<svg width="428" height="167" viewBox="0 0 428 167" fill="none" xmlns="http://www.w3.org/2000/svg">
    <path
        d="M417.223 1.44629H11.5922C6.22176 1.44629 1.86816 5.64926 1.86816 10.8339V155.671C1.86816 160.856 6.22176 165.059 11.5922 165.059H417.223C422.594 165.059 426.947 160.856 426.947 155.671V10.8339C426.947 5.64926 422.594 1.44629 417.223 1.44629Z"
        fill="var(--background-color)" stroke="url(#paint0_linear_701_2354)" stroke-width="2" />
    <path
        d="M53.0998 103.558C51.5594 103.558 50.14 103.2 48.8413 102.486C47.5425 101.772 46.5082 100.795 45.738 99.5561C44.983 98.3022 44.6055 96.9101 44.6055 95.3786C44.6055 93.8485 44.983 92.4631 45.738 91.2239C46.5082 89.97 47.5425 88.9857 48.8413 88.2722C50.14 87.5574 51.5594 87.2007 53.0998 87.2007C54.323 87.2007 55.463 87.4112 56.5202 87.8337C57.5772 88.2575 58.4607 88.8475 59.1704 89.6052L57.4035 91.3111C56.875 90.7425 56.2408 90.3053 55.5008 89.9995C54.776 89.6938 53.968 89.5395 53.0772 89.5395C52.0352 89.5395 51.0611 89.7809 50.1551 90.261C49.249 90.7425 48.5241 91.4278 47.9805 92.3169C47.437 93.2061 47.1651 94.2266 47.1651 95.3786C47.1651 96.5306 47.437 97.5512 47.9805 98.4403C48.5241 99.3295 49.249 100.015 50.1551 100.496C51.0611 100.976 52.0427 101.218 53.0998 101.218C54.0663 101.218 54.8742 101.08 55.5235 100.802C56.1728 100.524 56.7543 100.153 57.2677 99.6862C57.5998 99.3657 57.8792 98.9647 58.1058 98.4846C58.3473 98.0031 58.506 97.4774 58.5814 96.9101H53.0772V94.7228H60.9825C61.058 95.1305 61.0958 95.5543 61.0958 95.9915C61.0958 96.9825 60.9371 97.9374 60.6201 98.856C60.303 99.7599 59.797 100.547 59.1025 101.218C57.5772 102.777 55.5764 103.558 53.0998 103.558ZM68.9197 103.558C67.757 103.558 66.715 103.302 65.7939 102.792C64.8726 102.266 64.1554 101.553 63.6419 100.649C63.1285 99.7452 62.8718 98.7394 62.8718 97.6316C62.8718 96.5226 63.1285 95.5167 63.6419 94.6129C64.1554 93.709 64.8726 93.0022 65.7939 92.4926C66.715 91.9669 67.757 91.7054 68.9197 91.7054C70.0824 91.7054 71.1244 91.9669 72.0456 92.4926C72.9667 93.017 73.6841 93.7318 74.1975 94.6357C74.7109 95.5396 74.9676 96.5373 74.9676 97.6316C74.9676 98.7394 74.7109 99.7452 74.1975 100.649C73.6841 101.553 72.9667 102.266 72.0456 102.792C71.1244 103.302 70.0824 103.558 68.9197 103.558ZM68.9197 101.349C69.554 101.349 70.1429 101.203 70.6866 100.912C71.2301 100.605 71.6605 100.176 71.9776 99.6205C72.3099 99.0519 72.4759 98.3894 72.4759 97.6316C72.4759 96.8726 72.3099 96.2168 71.9776 95.6629C71.6605 95.1091 71.2301 94.6866 70.6866 94.3943C70.1429 94.0885 69.554 93.9356 68.9197 93.9356C68.2854 93.9356 67.6966 94.0885 67.1529 94.3943C66.6093 94.6866 66.1713 95.1091 65.8391 95.6629C65.522 96.2168 65.3634 96.8726 65.3634 97.6316C65.3634 98.3894 65.522 99.0519 65.8391 99.6205C66.1713 100.176 66.6093 100.605 67.1529 100.912C67.6966 101.203 68.2854 101.349 68.9197 101.349ZM82.6787 103.558C81.5159 103.558 80.4739 103.302 79.5528 102.792C78.6317 102.266 77.9143 101.553 77.4009 100.649C76.8874 99.7452 76.6307 98.7394 76.6307 97.6316C76.6307 96.5226 76.8874 95.5167 77.4009 94.6129C77.9143 93.709 78.6317 93.0022 79.5528 92.4926C80.4739 91.9669 81.5159 91.7054 82.6787 91.7054C83.8415 91.7054 84.8835 91.9669 85.8047 92.4926C86.7258 93.017 87.443 93.7318 87.9564 94.6357C88.4699 95.5396 88.7266 96.5373 88.7266 97.6316C88.7266 98.7394 88.4699 99.7452 87.9564 100.649C87.443 101.553 86.7258 102.266 85.8047 102.792C84.8835 103.302 83.8415 103.558 82.6787 103.558ZM82.6787 101.349C83.3129 101.349 83.9019 101.203 84.4455 100.912C84.9891 100.605 85.4196 100.176 85.7366 99.6205C86.0689 99.0519 86.235 98.3894 86.235 97.6316C86.235 96.8726 86.0689 96.2168 85.7366 95.6629C85.4196 95.1091 84.9891 94.6866 84.4455 94.3943C83.9019 94.0885 83.3129 93.9356 82.6787 93.9356C82.0445 93.9356 81.4555 94.0885 80.9119 94.3943C80.3682 94.6866 79.9304 95.1091 79.5981 95.6629C79.2809 96.2168 79.1224 96.8726 79.1224 97.6316C79.1224 98.3894 79.2809 99.0519 79.5981 99.6205C79.9304 100.176 80.3682 100.605 80.9119 100.912C81.4555 101.203 82.0445 101.349 82.6787 101.349ZM96.2338 108.281C94.8144 108.281 93.6365 107.967 92.7002 107.34C91.7791 106.713 91.16 105.971 90.8428 105.11L93.1759 104.169C93.4175 104.753 93.8025 105.22 94.3311 105.57C94.8748 105.933 95.509 106.115 96.2338 106.115C97.291 106.115 98.1139 105.81 98.7029 105.197C99.3069 104.6 99.6089 103.754 99.6089 102.661V101.633H99.473C99.0955 102.158 98.5895 102.574 97.9554 102.879C97.3362 103.17 96.6189 103.317 95.8035 103.317C94.837 103.317 93.9385 103.076 93.108 102.595C92.2774 102.114 91.613 101.436 91.1147 100.562C90.6314 99.6714 90.3898 98.6589 90.3898 97.5217C90.3898 96.3844 90.6314 95.3786 91.1147 94.5042C91.613 93.6151 92.2774 92.9298 93.108 92.4483C93.9385 91.9521 94.837 91.7054 95.8035 91.7054C96.6038 91.7054 97.3211 91.8583 97.9554 92.164C98.5895 92.4698 99.0955 92.8855 99.473 93.4112H99.6089V92.0554H101.987V102.595C101.987 103.805 101.746 104.833 101.263 105.678C100.779 106.539 100.1 107.187 99.2238 107.624C98.3631 108.063 97.3664 108.281 96.2338 108.281ZM96.2565 101.131C96.8606 101.131 97.4193 100.991 97.9328 100.715C98.4462 100.422 98.8539 100.008 99.1559 99.4676C99.4579 98.9137 99.6089 98.2646 99.6089 97.5217C99.6089 96.3844 99.2843 95.502 98.635 94.8757C98.0007 94.2347 97.2079 93.9142 96.2565 93.9142C95.6373 93.9142 95.0711 94.059 94.5577 94.3514C94.0442 94.6276 93.6365 95.0366 93.3344 95.5758C93.0324 96.1149 92.8814 96.764 92.8814 97.5217C92.8814 98.2794 93.0324 98.9285 93.3344 99.4676C93.6365 100.008 94.0442 100.422 94.5577 100.715C95.0711 100.991 95.6373 101.131 96.2565 101.131ZM104.916 87.5507H107.407V103.208H104.916V87.5507ZM115.502 103.558C114.37 103.558 113.351 103.302 112.444 102.792C111.554 102.281 110.851 101.582 110.338 100.692C109.84 99.7881 109.59 98.7756 109.59 97.6531C109.59 96.5883 109.832 95.6053 110.315 94.7014C110.814 93.7827 111.501 93.0532 112.377 92.5141C113.252 91.975 114.249 91.7054 115.367 91.7054C116.529 91.7054 117.534 91.9521 118.379 92.4483C119.24 92.9445 119.889 93.6218 120.327 94.4828C120.78 95.3424 121.007 96.312 121.007 97.3903C121.007 97.5941 120.984 97.8502 120.939 98.156H112.082C112.173 99.1913 112.55 99.9933 113.215 100.562C113.894 101.116 114.679 101.392 115.57 101.392C116.28 101.392 116.892 101.239 117.405 100.933C117.934 100.613 118.357 100.182 118.674 99.6433L120.78 100.605C120.237 101.523 119.527 102.245 118.651 102.771C117.775 103.295 116.726 103.558 115.502 103.558ZM118.47 96.3187C118.44 95.9258 118.311 95.5395 118.085 95.16C117.858 94.7671 117.511 94.4385 117.043 94.1757C116.59 93.9142 116.031 93.7827 115.367 93.7827C114.566 93.7827 113.887 94.0161 113.328 94.4828C112.784 94.9347 112.407 95.5463 112.195 96.3187H118.47ZM128.993 87.5507H134.18C135.856 87.5507 137.321 87.8779 138.574 88.5337C139.827 89.1895 140.787 90.1162 141.451 91.3111C142.13 92.4926 142.47 93.8485 142.47 95.3786C142.47 96.9101 142.13 98.2727 141.451 99.4676C140.787 100.649 139.827 101.568 138.574 102.224C137.321 102.879 135.856 103.208 134.18 103.208H128.993V87.5507ZM134.134 100.868C135.946 100.868 137.358 100.386 138.37 99.4247C139.398 98.447 139.91 97.0992 139.91 95.3786C139.91 93.6728 139.398 92.3317 138.37 91.3554C137.358 90.3777 135.946 89.8896 134.134 89.8896H131.529V100.868H134.134ZM149.9 103.558C148.767 103.558 147.748 103.302 146.842 102.792C145.952 102.281 145.249 101.582 144.735 100.692C144.237 99.7881 143.987 98.7756 143.987 97.6531C143.987 96.5883 144.229 95.6053 144.713 94.7014C145.211 93.7827 145.899 93.0532 146.774 92.5141C147.651 91.975 148.647 91.7054 149.763 91.7054C150.926 91.7054 151.931 91.9521 152.777 92.4483C153.638 92.9445 154.287 93.6218 154.724 94.4828C155.178 95.3424 155.405 96.312 155.405 97.3903C155.405 97.5941 155.381 97.8502 155.337 98.156H146.48C146.57 99.1913 146.948 99.9933 147.612 100.562C148.292 101.116 149.077 101.392 149.968 101.392C150.678 101.392 151.289 101.239 151.803 100.933C152.331 100.613 152.754 100.182 153.071 99.6433L155.178 100.605C154.634 101.523 153.924 102.245 153.049 102.771C152.172 103.295 151.123 103.558 149.9 103.558ZM152.867 96.3187C152.838 95.9258 152.708 95.5395 152.482 95.16C152.256 94.7671 151.908 94.4385 151.44 94.1757C150.987 93.9142 150.429 93.7827 149.763 93.7827C148.963 93.7827 148.284 94.0161 147.726 94.4828C147.182 94.9347 146.805 95.5463 146.593 96.3187H152.867ZM156.161 92.0554H158.947L162.141 100.102H162.231L165.493 92.0554H168.211L163.409 103.208H160.918L156.161 92.0554ZM174.764 103.558C173.63 103.558 172.612 103.302 171.705 102.792C170.815 102.281 170.112 101.582 169.599 100.692C169.1 99.7881 168.852 98.7756 168.852 97.6531C168.852 96.5883 169.093 95.6053 169.577 94.7014C170.074 93.7827 170.762 93.0532 171.637 92.5141C172.514 91.975 173.51 91.7054 174.628 91.7054C175.791 91.7054 176.795 91.9521 177.641 92.4483C178.501 92.9445 179.151 93.6218 179.588 94.4828C180.041 95.3424 180.268 96.312 180.268 97.3903C180.268 97.5941 180.246 97.8502 180.2 98.156H171.343C171.434 99.1913 171.811 99.9933 172.476 100.562C173.155 101.116 173.94 101.392 174.832 101.392C175.541 101.392 176.153 101.239 176.666 100.933C177.195 100.613 177.617 100.182 177.935 99.6433L180.041 100.605C179.498 101.523 178.788 102.245 177.912 102.771C177.037 103.295 175.986 103.558 174.764 103.558ZM177.731 96.3187C177.701 95.9258 177.573 95.5395 177.346 95.16C177.119 94.7671 176.771 94.4385 176.303 94.1757C175.85 93.9142 175.292 93.7827 174.628 93.7827C173.828 93.7827 173.147 94.0161 172.589 94.4828C172.045 94.9347 171.668 95.5463 171.456 96.3187H177.731ZM182.536 87.5507H185.028V103.208H182.536V87.5507ZM193.259 103.558C192.096 103.558 191.055 103.302 190.133 102.792C189.212 102.266 188.496 101.553 187.982 100.649C187.468 99.7452 187.212 98.7394 187.212 97.6316C187.212 96.5226 187.468 95.5167 187.982 94.6129C188.496 93.709 189.212 93.0022 190.133 92.4926C191.055 91.9669 192.096 91.7054 193.259 91.7054C194.422 91.7054 195.464 91.9669 196.386 92.4926C197.307 93.017 198.024 93.7318 198.538 94.6357C199.05 95.5396 199.307 96.5373 199.307 97.6316C199.307 98.7394 199.05 99.7452 198.538 100.649C198.024 101.553 197.307 102.266 196.386 102.792C195.464 103.302 194.422 103.558 193.259 103.558ZM193.259 101.349C193.894 101.349 194.483 101.203 195.026 100.912C195.571 100.605 196 100.176 196.318 99.6205C196.65 99.0519 196.815 98.3894 196.815 97.6316C196.815 96.8726 196.65 96.2168 196.318 95.6629C196 95.1091 195.571 94.6866 195.026 94.3943C194.483 94.0885 193.894 93.9356 193.259 93.9356C192.626 93.9356 192.037 94.0885 191.492 94.3943C190.949 94.6866 190.511 95.1091 190.179 95.6629C189.861 96.2168 189.703 96.8726 189.703 97.6316C189.703 98.3894 189.861 99.0519 190.179 99.6205C190.511 100.176 190.949 100.605 191.492 100.912C192.037 101.203 192.626 101.349 193.259 101.349ZM201.404 92.0554H203.782V93.5199H203.896C204.228 93.0103 204.718 92.5798 205.368 92.2298C206.017 91.8797 206.749 91.7054 207.565 91.7054C208.606 91.7054 209.551 91.9602 210.396 92.4698C211.242 92.9808 211.907 93.6875 212.389 94.5914C212.888 95.4805 213.136 96.4944 213.136 97.6316C213.136 98.7689 212.888 99.7881 212.389 100.692C211.907 101.582 211.242 102.281 210.396 102.792C209.551 103.302 208.606 103.558 207.565 103.558C206.749 103.558 206.017 103.382 205.368 103.032C204.718 102.682 204.228 102.26 203.896 101.764H203.782L203.896 103.317V107.931H201.404V92.0554ZM207.202 101.349C207.806 101.349 208.373 101.195 208.901 100.889C209.43 100.583 209.852 100.146 210.169 99.5776C210.487 99.0089 210.646 98.3599 210.646 97.6316C210.646 96.9021 210.487 96.2611 210.169 95.7072C209.852 95.1386 209.43 94.7014 208.901 94.3943C208.373 94.0885 207.806 93.9356 207.202 93.9356C206.598 93.9356 206.032 94.0885 205.503 94.3943C204.99 94.7014 204.575 95.1386 204.258 95.7072C203.94 96.2611 203.782 96.9021 203.782 97.6316C203.782 98.3599 203.94 99.0089 204.258 99.5776C204.575 100.146 204.99 100.583 205.503 100.889C206.032 101.195 206.598 101.349 207.202 101.349ZM220.686 103.558C219.553 103.558 218.535 103.302 217.628 102.792C216.737 102.281 216.034 101.582 215.522 100.692C215.023 99.7881 214.774 98.7756 214.774 97.6531C214.774 96.5883 215.016 95.6053 215.499 94.7014C215.997 93.7827 216.684 93.0532 217.559 92.5141C218.436 91.975 219.432 91.7054 220.55 91.7054C221.713 91.7054 222.717 91.9521 223.562 92.4483C224.423 92.9445 225.073 93.6218 225.511 94.4828C225.964 95.3424 226.19 96.312 226.19 97.3903C226.19 97.5941 226.168 97.8502 226.122 98.156H217.265C217.357 99.1913 217.733 99.9933 218.398 100.562C219.078 101.116 219.863 101.392 220.754 101.392C221.463 101.392 222.076 101.239 222.588 100.933C223.117 100.613 223.54 100.182 223.856 99.6433L225.964 100.605C225.421 101.523 224.711 102.245 223.834 102.771C222.959 103.295 221.909 103.558 220.686 103.558ZM223.654 96.3187C223.623 95.9258 223.495 95.5395 223.267 95.16C223.041 94.7671 222.694 94.4385 222.226 94.1757C221.773 93.9142 221.214 93.7827 220.55 93.7827C219.75 93.7827 219.069 94.0161 218.511 94.4828C217.968 94.9347 217.59 95.5463 217.379 96.3187H223.654ZM228.459 92.0554H230.837V93.6956H230.951C231.208 93.1269 231.654 92.6602 232.287 92.2955C232.922 91.9159 233.593 91.7268 234.303 91.7268C234.863 91.7268 235.331 91.7993 235.707 91.9454V94.4385C235.043 94.2052 234.447 94.0885 233.918 94.0885C233.344 94.0885 232.83 94.2347 232.377 94.5257C231.94 94.8181 231.593 95.211 231.336 95.7072C231.079 96.1873 230.951 96.7197 230.951 97.3031V103.208H228.459V92.0554ZM247.337 103.558C245.993 103.558 244.785 103.178 243.713 102.421C242.64 101.662 241.9 100.598 241.493 99.2275L243.893 98.2874C244.135 99.1471 244.559 99.8538 245.162 100.408C245.781 100.948 246.522 101.218 247.382 101.218C248.183 101.218 248.862 101.021 249.421 100.628C249.979 100.219 250.259 99.6647 250.259 98.9647C250.259 98.3236 250.01 97.7993 249.511 97.3903C249.028 96.9678 248.175 96.5454 246.952 96.1216L245.933 95.7729C244.845 95.4081 243.931 94.8824 243.192 94.1985C242.452 93.5132 242.082 92.6093 242.082 91.4868C242.082 90.713 242.3 89.9995 242.739 89.3437C243.177 88.6866 243.781 88.1703 244.551 87.7908C245.335 87.3965 246.219 87.2007 247.201 87.2007C248.621 87.2007 249.753 87.536 250.599 88.2065C251.445 88.8623 252.01 89.6052 252.298 90.4367L250.01 91.3768C249.843 90.8806 249.526 90.4434 249.058 90.0652C248.59 89.6857 247.986 89.4966 247.247 89.4966C246.506 89.4966 245.88 89.679 245.366 90.0424C244.867 90.4072 244.619 90.8739 244.619 91.4425C244.619 91.9816 244.845 92.4269 245.298 92.7769C245.751 93.1269 246.461 93.4622 247.428 93.7827L248.447 94.1099C249.836 94.5766 250.909 95.1895 251.663 95.9472C252.434 96.6902 252.819 97.6893 252.819 98.9432C252.819 99.9638 252.546 100.823 252.003 101.523C251.459 102.209 250.764 102.718 249.92 103.054C249.089 103.39 248.228 103.558 247.337 103.558ZM259.473 103.382C258.959 103.382 258.475 103.302 258.023 103.142C257.57 102.981 257.2 102.771 256.913 102.508C256.264 101.88 255.939 101.027 255.939 99.949V94.1757H253.923V92.0554H255.939V88.9052H258.431V92.0554H261.24V94.1757H258.431V99.4247C258.431 100.021 258.552 100.445 258.793 100.692C259.02 100.984 259.412 101.131 259.971 101.131C260.227 101.131 260.454 101.101 260.651 101.042C260.847 100.97 261.058 100.86 261.284 100.715V103.054C260.787 103.274 260.183 103.382 259.473 103.382ZM267.822 103.558C266.417 103.558 265.346 103.157 264.606 102.355C263.881 101.538 263.518 100.408 263.518 98.9647V92.0554H266.01V98.6375C266.01 99.5413 266.228 100.219 266.667 100.671C267.12 101.122 267.709 101.349 268.434 101.349C269.023 101.349 269.544 101.203 269.997 100.912C270.45 100.605 270.797 100.204 271.039 99.709C271.281 99.2128 271.401 98.6804 271.401 98.1118V92.0554H273.892V103.208H271.536V101.764H271.401C271.083 102.289 270.593 102.718 269.929 103.054C269.264 103.39 268.562 103.558 267.822 103.558ZM281.62 103.558C280.578 103.558 279.635 103.302 278.789 102.792C277.943 102.281 277.271 101.582 276.773 100.692C276.29 99.7881 276.048 98.7689 276.048 97.6316C276.048 96.4944 276.29 95.4805 276.773 94.5914C277.271 93.6875 277.943 92.9808 278.789 92.4698C279.635 91.9602 280.578 91.7054 281.62 91.7054C282.435 91.7054 283.167 91.8797 283.818 92.2298C284.466 92.5798 284.958 93.0103 285.29 93.5199H285.403L285.29 91.9454V87.5507H287.781V103.208H285.403V101.764H285.29C284.958 102.26 284.466 102.682 283.818 103.032C283.167 103.382 282.435 103.558 281.62 103.558ZM281.983 101.349C282.587 101.349 283.145 101.195 283.659 100.889C284.187 100.583 284.609 100.146 284.928 99.5776C285.244 99.0089 285.403 98.3599 285.403 97.6316C285.403 96.9021 285.244 96.2611 284.928 95.7072C284.609 95.1386 284.187 94.7014 283.659 94.3943C283.145 94.0885 282.587 93.9356 281.983 93.9356C281.378 93.9356 280.813 94.0885 280.284 94.3943C279.756 94.7014 279.332 95.1386 279.015 95.7072C278.699 96.2611 278.539 96.9021 278.539 97.6316C278.539 98.3599 278.699 99.0089 279.015 99.5776C279.332 100.146 279.756 100.583 280.284 100.889C280.813 101.195 281.378 101.349 281.983 101.349ZM295.852 103.558C294.72 103.558 293.7 103.302 292.794 102.792C291.902 102.281 291.201 101.582 290.687 100.692C290.188 99.7881 289.94 98.7756 289.94 97.6531C289.94 96.5883 290.181 95.6053 290.665 94.7014C291.163 93.7827 291.85 93.0532 292.726 92.5141C293.601 91.975 294.599 91.7054 295.716 91.7054C296.878 91.7054 297.883 91.9521 298.729 92.4483C299.589 92.9445 300.239 93.6218 300.676 94.4828C301.129 95.3424 301.356 96.312 301.356 97.3903C301.356 97.5941 301.333 97.8502 301.288 98.156H292.432C292.522 99.1913 292.9 99.9933 293.564 100.562C294.243 101.116 295.028 101.392 295.92 101.392C296.63 101.392 297.241 101.239 297.755 100.933C298.283 100.613 298.705 100.182 299.023 99.6433L301.129 100.605C300.586 101.523 299.876 102.245 299 102.771C298.124 103.295 297.074 103.558 295.852 103.558ZM298.819 96.3187C298.788 95.9258 298.661 95.5395 298.434 95.16C298.208 94.7671 297.86 94.4385 297.392 94.1757C296.939 93.9142 296.38 93.7827 295.716 93.7827C294.915 93.7827 294.236 94.0161 293.676 94.4828C293.133 94.9347 292.755 95.5463 292.544 96.3187H298.819ZM303.625 92.0554H306.004V93.5199H306.116C306.448 92.9955 306.94 92.565 307.589 92.2298C308.253 91.8797 308.956 91.7054 309.696 91.7054C311.1 91.7054 312.165 92.1064 312.89 92.907C313.629 93.6956 314 94.7738 314 96.1444V103.208H311.507V96.4716C311.507 95.5972 311.281 94.9562 310.828 94.5471C310.391 94.1395 309.778 93.9356 308.993 93.9356C308.435 93.9356 307.936 94.0885 307.498 94.3943C307.061 94.6866 306.72 95.0796 306.479 95.5758C306.237 96.0706 306.116 96.603 306.116 97.1716V103.208H303.625V92.0554ZM320.968 103.382C320.455 103.382 319.972 103.302 319.519 103.142C319.064 102.981 318.695 102.771 318.409 102.508C317.759 101.88 317.434 101.027 317.434 99.949V94.1757H315.418V92.0554H317.434V88.9052H319.926V92.0554H322.735V94.1757H319.926V99.4247C319.926 100.021 320.047 100.445 320.288 100.692C320.515 100.984 320.908 101.131 321.466 101.131C321.723 101.131 321.95 101.101 322.146 101.042C322.341 100.97 322.554 100.86 322.78 100.715V103.054C322.282 103.274 321.677 103.382 320.968 103.382ZM338.035 103.558C336.464 103.558 335.03 103.2 333.731 102.486C332.432 101.772 331.413 100.787 330.672 99.5333C329.933 98.2794 329.562 96.8954 329.562 95.3786C329.562 93.8632 329.933 92.4779 330.672 91.2239C331.413 89.97 332.432 88.9857 333.731 88.2722C335.03 87.5574 336.464 87.2007 338.035 87.2007C339.257 87.2007 340.367 87.4193 341.364 87.8565C342.376 88.2937 343.268 88.928 344.037 89.7581L342.226 91.4425C341.666 90.8015 341.048 90.3267 340.367 90.021C339.688 89.7005 338.91 89.5395 338.035 89.5395C336.947 89.5395 335.951 89.7809 335.044 90.261C334.153 90.7425 333.443 91.4278 332.916 92.3169C332.386 93.1913 332.122 94.2119 332.122 95.3786C332.122 96.5454 332.386 97.5726 332.916 98.4618C333.443 99.3362 334.153 100.015 335.044 100.496C335.951 100.976 336.947 101.218 338.035 101.218C339.846 101.218 341.387 100.488 342.655 99.0304L344.49 100.736C343.705 101.625 342.76 102.319 341.659 102.814C340.556 103.31 339.349 103.558 338.035 103.558ZM346.693 87.5507H349.185V103.208H346.693V87.5507ZM356.327 103.558C354.922 103.558 353.85 103.157 353.11 102.355C352.385 101.538 352.023 100.408 352.023 98.9647V92.0554H354.514V98.6375C354.514 99.5413 354.734 100.219 355.171 100.671C355.624 101.122 356.213 101.349 356.938 101.349C357.527 101.349 358.048 101.203 358.501 100.912C358.954 100.605 359.301 100.204 359.543 99.709C359.785 99.2128 359.905 98.6804 359.905 98.1118V92.0554H362.397V103.208H360.042V101.764H359.905C359.589 102.289 359.097 102.718 358.433 103.054C357.769 103.39 357.066 103.558 356.327 103.558ZM371.459 103.558C370.643 103.558 369.91 103.382 369.261 103.032C368.611 102.682 368.121 102.26 367.789 101.764H367.675V103.208H365.297V87.5507H367.789V91.9454L367.675 93.5199H367.789C368.121 93.0103 368.611 92.5798 369.261 92.2298C369.91 91.8797 370.643 91.7054 371.459 91.7054C372.501 91.7054 373.444 91.9602 374.29 92.4698C375.136 92.9808 375.8 93.6875 376.283 94.5914C376.781 95.4805 377.031 96.4944 377.031 97.6316C377.031 98.7689 376.781 99.7881 376.283 100.692C375.8 101.582 375.136 102.281 374.29 102.792C373.444 103.302 372.501 103.558 371.459 103.558ZM371.096 101.349C371.701 101.349 372.266 101.195 372.795 100.889C373.323 100.583 373.745 100.146 374.064 99.5776C374.38 99.0089 374.539 98.3599 374.539 97.6316C374.539 96.9021 374.38 96.2611 374.064 95.7072C373.745 95.1386 373.323 94.7014 372.795 94.3943C372.266 94.0885 371.701 93.9356 371.096 93.9356C370.492 93.9356 369.925 94.0885 369.397 94.3943C368.883 94.7014 368.468 95.1386 368.151 95.7072C367.835 96.2611 367.675 96.9021 367.675 97.6316C367.675 98.3599 367.835 99.0089 368.151 99.5776C368.468 100.146 368.883 100.583 369.397 100.889C369.925 101.195 370.492 101.349 371.096 101.349ZM383.401 103.558C382.073 103.558 380.986 103.28 380.14 102.726C379.295 102.158 378.698 101.436 378.35 100.562L380.57 99.6205C380.843 100.204 381.22 100.649 381.702 100.955C382.201 101.261 382.768 101.415 383.401 101.415C384.021 101.415 384.542 101.312 384.966 101.108C385.388 100.889 385.599 100.569 385.599 100.146C385.599 99.7371 385.418 99.4166 385.056 99.1833C384.693 98.9499 384.135 98.7461 383.379 98.5718L381.997 98.2432C381.076 98.0246 380.313 97.6383 379.71 97.0845C379.106 96.5306 378.803 95.8306 378.803 94.9857C378.803 94.3285 379.001 93.7532 379.392 93.257C379.801 92.7622 380.344 92.3826 381.023 92.1198C381.702 91.8435 382.443 91.7054 383.243 91.7054C384.315 91.7054 385.26 91.9159 386.076 92.3397C386.891 92.7474 387.48 93.3455 387.841 94.1328L385.667 95.0501C385.23 94.1904 384.429 93.7599 383.267 93.7599C382.707 93.7599 382.239 93.8699 381.862 94.0885C381.484 94.3071 381.295 94.5914 381.295 94.9414C381.295 95.2767 381.439 95.5543 381.726 95.7729C382.012 95.9767 382.436 96.1511 382.994 96.2973L384.693 96.713C385.825 96.9893 386.678 97.413 387.252 97.9803C387.841 98.5355 388.136 99.2208 388.136 100.036C388.136 100.736 387.924 101.356 387.502 101.895C387.094 102.421 386.528 102.828 385.803 103.119C385.078 103.412 384.278 103.558 383.401 103.558Z" />
    <path
        d="M223.048 53.0636L241.686 42.6752C244.284 41.2274 247.605 42.0866 249.105 44.5943C250.605 47.102 249.715 50.3085 247.117 51.7564L228.479 62.1447C225.882 63.5925 222.56 62.7333 221.061 60.2256C219.561 57.718 220.451 54.5114 223.048 53.0636Z"
        fill="#FBBC04" />
    <path
        d="M209.814 41.3114L191.176 51.6998C188.578 53.1476 185.257 52.2884 183.757 49.7807C182.257 47.273 183.147 44.0665 185.745 42.6186L204.383 32.2303C206.981 30.7825 210.302 31.6417 211.802 34.1494C213.301 36.657 212.411 39.8636 209.814 41.3114Z"
        fill="#EA4335" />
    <path
        d="M209.356 53.0621L190.718 42.6738C188.12 41.2259 184.799 42.0851 183.299 44.5928C181.799 47.1005 182.689 50.3071 185.287 51.7549L203.925 62.1432C206.523 63.5911 209.844 62.7319 211.344 60.2242C212.843 57.7165 211.953 54.5099 209.356 53.0621Z"
        fill="#4285F4" />
    <path
        d="M222.732 41.1351L242.003 51.8762C244.426 53.2266 247.524 52.4252 248.922 50.0862L249.288 49.4752C250.687 47.1363 249.856 44.1454 247.434 42.795L228.163 32.0539C225.74 30.7035 222.642 31.5049 221.243 33.8439L220.878 34.4549C219.479 36.7938 220.309 39.7846 222.732 41.1351Z"
        fill="#0F9D58" />
    <path
        d="M35.7805 131.223C35.0026 131.223 34.2895 130.995 33.6412 130.539C32.9929 130.083 32.5484 129.445 32.3076 128.622L33.4328 128.179C33.5902 128.752 33.8819 129.221 34.308 129.587C34.734 129.955 35.2341 130.137 35.8083 130.137C36.3824 130.137 36.8686 129.989 37.2669 129.694C37.6651 129.391 37.8642 128.98 37.8642 128.461C37.8642 128.014 37.6929 127.648 37.3502 127.361C37.0168 127.066 36.4658 126.794 35.6971 126.543L35.072 126.328C34.3681 126.087 33.794 125.77 33.3495 125.376C32.905 124.983 32.6827 124.437 32.6827 123.74C32.6827 123.284 32.8123 122.864 33.0716 122.479C33.331 122.086 33.6922 121.774 34.1552 121.541C34.6182 121.309 35.1369 121.192 35.711 121.192C36.2852 121.192 36.7853 121.295 37.2113 121.5C37.6374 121.707 37.9753 121.956 38.2254 122.251C38.4847 122.546 38.6653 122.837 38.7672 123.123L37.6558 123.579C37.5632 123.249 37.3502 122.949 37.0168 122.68C36.6927 122.412 36.2621 122.278 35.7249 122.278C35.2155 122.278 34.7803 122.418 34.4191 122.694C34.0579 122.972 33.8774 123.32 33.8774 123.74C33.8774 124.115 34.0302 124.424 34.3358 124.665C34.6414 124.899 35.1044 125.117 35.7249 125.322L36.3778 125.537C37.2206 125.832 37.8781 126.204 38.3504 126.65C38.8227 127.089 39.0589 127.688 39.0589 128.447C39.0589 129.064 38.8922 129.583 38.5588 130.003C38.2347 130.424 37.8225 130.732 37.3224 130.928C36.8223 131.125 36.3084 131.223 35.7805 131.223ZM40.5529 121.406H41.7337V124.236L41.6781 125.175H41.7337C41.9282 124.826 42.2338 124.537 42.6505 124.303C43.0764 124.071 43.5396 123.955 44.0397 123.955C44.9009 123.955 45.5584 124.201 46.0123 124.692C46.4659 125.175 46.6929 125.819 46.6929 126.623V131.009H45.5122V126.798C45.5122 126.181 45.35 125.725 45.026 125.43C44.7017 125.135 44.2804 124.987 43.7618 124.987C43.3913 124.987 43.0486 125.094 42.7339 125.309C42.4283 125.524 42.1828 125.801 41.9976 126.141C41.8216 126.481 41.7337 126.834 41.7337 127.2V131.009H40.5529V121.406ZM48.3939 124.169H49.5192V125.269H49.5747C49.7136 124.893 49.9822 124.585 50.3804 124.343C50.7787 124.094 51.1954 123.968 51.6307 123.968C51.9547 123.968 52.2326 124.014 52.4641 124.102V125.336C52.1678 125.194 51.8344 125.121 51.464 125.121C51.1213 125.121 50.8065 125.215 50.5193 125.403C50.2322 125.591 50.0008 125.845 49.8248 126.167C49.6581 126.481 49.5747 126.82 49.5747 127.187V131.009H48.3939V124.169ZM54.2978 122.909C54.0662 122.909 53.8672 122.828 53.7005 122.667C53.5338 122.506 53.4504 122.314 53.4504 122.09C53.4504 121.868 53.5338 121.68 53.7005 121.527C53.8672 121.366 54.0662 121.286 54.2978 121.286C54.5294 121.286 54.7285 121.366 54.8952 121.527C55.0618 121.68 55.1452 121.868 55.1452 122.09C55.1452 122.314 55.0618 122.506 54.8952 122.667C54.7378 122.828 54.5386 122.909 54.2978 122.909ZM53.7144 124.169H54.8813V131.009H53.7144V124.169ZM60.2018 121.406H63.5636C64.1099 121.406 64.6193 121.527 65.0916 121.769C65.5639 122.01 65.939 122.351 66.2168 122.788C66.5038 123.217 66.6475 123.705 66.6475 124.25C66.6475 124.698 66.5409 125.113 66.328 125.497C66.1242 125.882 65.837 126.204 65.4667 126.462C65.1055 126.723 64.7027 126.897 64.2581 126.985L64.2304 127.026L67.0364 130.955V131.009H65.6473L62.9385 127.093H61.3687V131.009H60.2018V121.406ZM63.4941 126.033C63.8367 126.033 64.1562 125.958 64.4526 125.805C64.7582 125.654 64.999 125.443 65.175 125.175C65.3602 124.899 65.4528 124.59 65.4528 124.25C65.4528 123.955 65.3741 123.673 65.2167 123.405C65.0591 123.136 64.8369 122.918 64.5499 122.748C64.272 122.579 63.9478 122.493 63.5775 122.493H61.3687V126.033H63.4941ZM70.2475 131.223C69.7287 131.223 69.2657 131.125 68.8583 130.928C68.4507 130.732 68.136 130.464 67.9137 130.124C67.6914 129.775 67.5803 129.382 67.5803 128.943C67.5803 128.219 67.8627 127.656 68.4277 127.254C68.9925 126.843 69.7057 126.637 70.567 126.637C70.9929 126.637 71.3866 126.682 71.7477 126.771C72.1181 126.861 72.4006 126.964 72.5951 127.079V126.664C72.5951 126.154 72.4098 125.748 72.0395 125.443C71.669 125.131 71.2012 124.974 70.6364 124.974C70.2381 124.974 69.8724 125.06 69.539 125.229C69.2056 125.39 68.9417 125.617 68.7472 125.913L67.8581 125.269C68.1359 124.858 68.5156 124.537 68.9972 124.303C69.488 124.071 70.0298 123.955 70.6225 123.955C71.5856 123.955 72.3403 124.201 72.8868 124.692C73.4425 125.175 73.7203 125.837 73.7203 126.677V131.009H72.5951V130.03H72.5396C72.3358 130.361 72.0302 130.643 71.6227 130.875C71.2151 131.108 70.7567 131.223 70.2475 131.223ZM70.3586 130.217C70.7567 130.217 71.1272 130.12 71.4699 129.922C71.8125 129.727 72.0857 129.462 72.2895 129.131C72.4932 128.801 72.5951 128.439 72.5951 128.045C72.3728 127.903 72.0996 127.786 71.7755 127.696C71.4513 127.608 71.1087 127.562 70.7475 127.562C70.0992 127.562 69.6084 127.692 69.2751 127.951C68.9508 128.211 68.7889 128.546 68.7889 128.957C68.7889 129.332 68.9369 129.637 69.2334 129.869C69.5297 130.102 69.9048 130.217 70.3586 130.217ZM75.363 124.169H76.4882V125.175H76.5438C76.7474 124.826 77.053 124.537 77.4606 124.303C77.868 124.071 78.2987 123.955 78.7525 123.955C79.2711 123.955 79.7202 124.075 80.1 124.317C80.4889 124.558 80.7668 124.88 80.9335 125.282C81.1835 124.88 81.5122 124.558 81.9198 124.317C82.3365 124.075 82.818 123.955 83.3645 123.955C84.1794 123.955 84.7906 124.196 85.1982 124.679C85.6149 125.153 85.8233 125.801 85.8233 126.623V131.009H84.6564V126.798C84.6564 126.163 84.5221 125.703 84.2535 125.416C83.9849 125.131 83.5867 124.987 83.0589 124.987C82.7069 124.987 82.3874 125.086 82.1004 125.282C81.8132 125.479 81.5864 125.744 81.4197 126.073C81.2621 126.405 81.1835 126.763 81.1835 127.146V131.009H80.0027V126.811C80.0027 126.167 79.8684 125.703 79.5999 125.416C79.3312 125.131 78.9377 124.987 78.4191 124.987C78.0671 124.987 77.7476 125.09 77.4606 125.296C77.1735 125.493 76.9466 125.761 76.7799 126.1C76.6224 126.432 76.5438 126.79 76.5438 127.173V131.009H75.363V124.169ZM90.5186 131.223C89.8887 131.223 89.3146 131.068 88.796 130.754C88.2866 130.441 87.8838 130.012 87.5875 129.466C87.291 128.913 87.143 128.286 87.143 127.589C87.143 126.901 87.291 126.28 87.5875 125.725C87.8838 125.171 88.2866 124.738 88.796 124.424C89.3146 124.111 89.8887 123.955 90.5186 123.955C91.0649 123.955 91.5511 124.075 91.9772 124.317C92.4031 124.55 92.7273 124.84 92.9496 125.188H93.0052L92.9496 124.236V121.406H94.1304V131.009H93.0052V130.003H92.9496C92.7273 130.343 92.4031 130.633 91.9772 130.875C91.5511 131.108 91.0649 131.223 90.5186 131.223ZM90.6575 130.191C91.0742 130.191 91.4585 130.083 91.8105 129.869C92.1717 129.654 92.4587 129.351 92.6718 128.957C92.894 128.564 93.0052 128.108 93.0052 127.589C93.0052 127.071 92.894 126.615 92.6718 126.221C92.4587 125.828 92.1717 125.524 91.8105 125.309C91.4585 125.094 91.0742 124.987 90.6575 124.987C90.2499 124.987 89.8657 125.094 89.5045 125.309C89.1433 125.524 88.8516 125.832 88.6294 126.234C88.4163 126.629 88.3098 127.079 88.3098 127.589C88.3098 128.098 88.4163 128.554 88.6294 128.957C88.8516 129.351 89.1433 129.654 89.5045 129.869C89.8657 130.083 90.2499 130.191 90.6575 130.191ZM98.9602 131.223C98.2841 131.223 97.6774 131.068 97.1404 130.754C96.6032 130.441 96.1819 130.012 95.8763 129.466C95.5798 128.913 95.4317 128.292 95.4317 127.602C95.4317 126.941 95.5706 126.334 95.8485 125.778C96.1355 125.225 96.5383 124.782 97.057 124.451C97.5756 124.121 98.1775 123.955 98.8629 123.955C99.5575 123.955 100.159 124.107 100.669 124.411C101.178 124.706 101.567 125.117 101.836 125.644C102.114 126.173 102.252 126.776 102.252 127.455C102.252 127.589 102.239 127.706 102.211 127.803H96.6125C96.6403 128.322 96.7699 128.761 97.0015 129.118C97.2329 129.476 97.5246 129.744 97.8766 129.922C98.2378 130.102 98.6129 130.191 99.0018 130.191C99.9094 130.191 100.609 129.78 101.099 128.957L102.1 129.426C101.794 129.981 101.377 130.419 100.849 130.74C100.331 131.062 99.701 131.223 98.9602 131.223ZM101.002 126.865C100.984 126.579 100.9 126.293 100.752 126.006C100.604 125.721 100.368 125.479 100.044 125.282C99.7288 125.086 99.3305 124.987 98.849 124.987C98.2934 124.987 97.8211 125.162 97.4321 125.51C97.0523 125.851 96.8023 126.301 96.682 126.865H101.002ZM106.967 131.223C106.272 131.223 105.647 131.062 105.091 130.74C104.536 130.419 104.1 129.981 103.785 129.426C103.48 128.872 103.327 128.259 103.327 127.589C103.327 126.918 103.48 126.307 103.785 125.752C104.1 125.198 104.536 124.759 105.091 124.437C105.647 124.115 106.272 123.955 106.967 123.955C107.661 123.955 108.286 124.115 108.842 124.437C109.398 124.759 109.828 125.198 110.134 125.752C110.449 126.307 110.606 126.918 110.606 127.589C110.606 128.259 110.449 128.872 110.134 129.426C109.828 129.981 109.398 130.419 108.842 130.74C108.286 131.062 107.661 131.223 106.967 131.223ZM106.967 130.191C107.402 130.191 107.805 130.089 108.175 129.882C108.555 129.668 108.856 129.364 109.078 128.97C109.31 128.577 109.425 128.117 109.425 127.589C109.425 127.062 109.31 126.602 109.078 126.208C108.856 125.815 108.555 125.516 108.175 125.309C107.805 125.094 107.402 124.987 106.967 124.987C106.531 124.987 106.124 125.094 105.744 125.309C105.364 125.516 105.059 125.815 104.827 126.208C104.605 126.602 104.494 127.062 104.494 127.589C104.494 128.117 104.605 128.577 104.827 128.97C105.059 129.364 105.364 129.668 105.744 129.882C106.124 130.089 106.531 130.191 106.967 130.191ZM115.507 131.223C114.97 131.223 114.484 131.108 114.049 130.875C113.623 130.633 113.303 130.343 113.09 130.003H113.035V131.009H111.91V121.406H113.09V124.236L113.035 125.188H113.09C113.303 124.84 113.623 124.55 114.049 124.317C114.484 124.075 114.97 123.955 115.507 123.955C116.137 123.955 116.711 124.111 117.23 124.424C117.749 124.738 118.156 125.171 118.452 125.725C118.749 126.28 118.897 126.901 118.897 127.589C118.897 128.286 118.749 128.913 118.452 129.466C118.156 130.012 117.749 130.441 117.23 130.754C116.711 131.068 116.137 131.223 115.507 131.223ZM115.368 130.191C115.776 130.191 116.16 130.083 116.521 129.869C116.883 129.654 117.17 129.351 117.383 128.957C117.605 128.554 117.716 128.098 117.716 127.589C117.716 127.079 117.605 126.629 117.383 126.234C117.17 125.832 116.883 125.524 116.521 125.309C116.16 125.094 115.776 124.987 115.368 124.987C114.961 124.987 114.577 125.094 114.215 125.309C113.854 125.524 113.567 125.828 113.354 126.221C113.141 126.615 113.035 127.071 113.035 127.589C113.035 128.108 113.141 128.564 113.354 128.957C113.567 129.351 113.854 129.654 114.215 129.869C114.577 130.083 114.961 130.191 115.368 130.191ZM122.53 131.223C122.012 131.223 121.549 131.125 121.141 130.928C120.734 130.732 120.419 130.464 120.197 130.124C119.974 129.775 119.863 129.382 119.863 128.943C119.863 128.219 120.146 127.656 120.711 127.254C121.276 126.843 121.989 126.637 122.85 126.637C123.276 126.637 123.669 126.682 124.031 126.771C124.401 126.861 124.684 126.964 124.878 127.079V126.664C124.878 126.154 124.693 125.748 124.322 125.443C123.952 125.131 123.484 124.974 122.919 124.974C122.521 124.974 122.155 125.06 121.822 125.229C121.489 125.39 121.225 125.617 121.03 125.913L120.141 125.269C120.419 124.858 120.799 124.537 121.28 124.303C121.771 124.071 122.313 123.955 122.905 123.955C123.869 123.955 124.623 124.201 125.17 124.692C125.725 125.175 126.003 125.837 126.003 126.677V131.009H124.878V130.03H124.822C124.619 130.361 124.313 130.643 123.906 130.875C123.498 131.108 123.04 131.223 122.53 131.223ZM122.642 130.217C123.04 130.217 123.41 130.12 123.753 129.922C124.096 129.727 124.369 129.462 124.572 129.131C124.776 128.801 124.878 128.439 124.878 128.045C124.656 127.903 124.383 127.786 124.058 127.696C123.734 127.608 123.392 127.562 123.03 127.562C122.382 127.562 121.891 127.692 121.558 127.951C121.234 128.211 121.072 128.546 121.072 128.957C121.072 129.332 121.22 129.637 121.516 129.869C121.813 130.102 122.188 130.217 122.642 130.217ZM131.244 131.223C130.707 131.223 130.22 131.108 129.785 130.875C129.359 130.633 129.04 130.343 128.827 130.003H128.771V131.009H127.646V121.406H128.827V124.236L128.771 125.188H128.827C129.04 124.84 129.359 124.55 129.785 124.317C130.22 124.075 130.707 123.955 131.244 123.955C131.874 123.955 132.448 124.111 132.966 124.424C133.485 124.738 133.892 125.171 134.189 125.725C134.485 126.28 134.633 126.901 134.633 127.589C134.633 128.286 134.485 128.913 134.189 129.466C133.892 130.012 133.485 130.441 132.966 130.754C132.448 131.068 131.874 131.223 131.244 131.223ZM131.105 130.191C131.512 130.191 131.897 130.083 132.258 129.869C132.619 129.654 132.906 129.351 133.119 128.957C133.341 128.554 133.453 128.098 133.453 127.589C133.453 127.079 133.341 126.629 133.119 126.234C132.906 125.832 132.619 125.524 132.258 125.309C131.897 125.094 131.512 124.987 131.105 124.987C130.697 124.987 130.313 125.094 129.952 125.309C129.591 125.524 129.304 125.828 129.091 126.221C128.878 126.615 128.771 127.071 128.771 127.589C128.771 128.108 128.878 128.564 129.091 128.957C129.304 129.351 129.591 129.654 129.952 129.869C130.313 130.083 130.697 130.191 131.105 130.191ZM138.267 131.223C137.748 131.223 137.285 131.125 136.878 130.928C136.47 130.732 136.155 130.464 135.933 130.124C135.711 129.775 135.6 129.382 135.6 128.943C135.6 128.219 135.882 127.656 136.447 127.254C137.012 126.843 137.725 126.637 138.586 126.637C139.012 126.637 139.406 126.682 139.767 126.771C140.137 126.861 140.42 126.964 140.615 127.079V126.664C140.615 126.154 140.429 125.748 140.059 125.443C139.688 125.131 139.221 124.974 138.656 124.974C138.257 124.974 137.892 125.06 137.558 125.229C137.225 125.39 136.961 125.617 136.767 125.913L135.877 125.269C136.155 124.858 136.535 124.537 137.017 124.303C137.507 124.071 138.049 123.955 138.642 123.955C139.605 123.955 140.359 124.201 140.907 124.692C141.462 125.175 141.74 125.837 141.74 126.677V131.009H140.615V130.03H140.559C140.355 130.361 140.049 130.643 139.642 130.875C139.235 131.108 138.776 131.223 138.267 131.223ZM138.378 130.217C138.776 130.217 139.147 130.12 139.49 129.922C139.831 129.727 140.105 129.462 140.309 129.131C140.512 128.801 140.615 128.439 140.615 128.045C140.393 127.903 140.119 127.786 139.795 127.696C139.47 127.608 139.128 127.562 138.767 127.562C138.119 127.562 137.628 127.692 137.294 127.951C136.97 128.211 136.808 128.546 136.808 128.957C136.808 129.332 136.956 129.637 137.253 129.869C137.549 130.102 137.924 130.217 138.378 130.217ZM151.243 131.223C150.281 131.223 149.405 131.005 148.618 130.566C147.83 130.129 147.211 129.529 146.756 128.769C146.312 128.001 146.089 127.146 146.089 126.208C146.089 125.269 146.312 124.42 146.756 123.66C147.211 122.891 147.83 122.288 148.618 121.849C149.405 121.412 150.281 121.192 151.243 121.192C151.984 121.192 152.66 121.331 153.271 121.608C153.892 121.876 154.429 122.261 154.883 122.761L154.035 123.552C153.656 123.115 153.239 122.793 152.785 122.587C152.341 122.381 151.827 122.278 151.243 122.278C150.521 122.278 149.858 122.444 149.257 122.774C148.655 123.096 148.173 123.558 147.812 124.156C147.461 124.746 147.284 125.43 147.284 126.208C147.284 126.985 147.461 127.675 147.812 128.273C148.173 128.863 148.655 129.324 149.257 129.654C149.858 129.976 150.521 130.137 151.243 130.137C152.448 130.137 153.47 129.66 154.313 128.702L155.175 129.507C154.712 130.035 154.142 130.455 153.466 130.767C152.789 131.072 152.049 131.223 151.243 131.223ZM159.63 131.223C158.935 131.223 158.31 131.062 157.754 130.74C157.199 130.419 156.764 129.981 156.448 129.426C156.143 128.872 155.99 128.259 155.99 127.589C155.99 126.918 156.143 126.307 156.448 125.752C156.764 125.198 157.199 124.759 157.754 124.437C158.31 124.115 158.935 123.955 159.63 123.955C160.324 123.955 160.949 124.115 161.505 124.437C162.061 124.759 162.491 125.198 162.797 125.752C163.112 126.307 163.269 126.918 163.269 127.589C163.269 128.259 163.112 128.872 162.797 129.426C162.491 129.981 162.061 130.419 161.505 130.74C160.949 131.062 160.324 131.223 159.63 131.223ZM159.63 130.191C160.064 130.191 160.467 130.089 160.838 129.882C161.217 129.668 161.519 129.364 161.741 128.97C161.973 128.577 162.088 128.117 162.088 127.589C162.088 127.062 161.973 126.602 161.741 126.208C161.519 125.815 161.217 125.516 160.838 125.309C160.467 125.094 160.064 124.987 159.63 124.987C159.195 124.987 158.786 125.094 158.407 125.309C158.028 125.516 157.722 125.815 157.49 126.208C157.268 126.602 157.157 127.062 157.157 127.589C157.157 128.117 157.268 128.577 157.49 128.97C157.722 129.364 158.028 129.668 158.407 129.882C158.786 130.089 159.195 130.191 159.63 130.191ZM164.572 121.406H165.753V131.009H164.572V121.406ZM167.502 121.406H168.683V131.009H167.502V121.406ZM173.518 131.223C172.842 131.223 172.236 131.068 171.698 130.754C171.161 130.441 170.74 130.012 170.434 129.466C170.138 128.913 169.99 128.292 169.99 127.602C169.99 126.941 170.129 126.334 170.407 125.778C170.694 125.225 171.097 124.782 171.615 124.451C172.133 124.121 172.736 123.955 173.421 123.955C174.116 123.955 174.717 124.107 175.227 124.411C175.737 124.706 176.126 125.117 176.394 125.644C176.672 126.173 176.81 126.776 176.81 127.455C176.81 127.589 176.797 127.706 176.769 127.803H171.171C171.198 128.322 171.328 128.761 171.559 129.118C171.791 129.476 172.083 129.744 172.435 129.922C172.796 130.102 173.171 130.191 173.56 130.191C174.467 130.191 175.167 129.78 175.657 128.957L176.658 129.426C176.352 129.981 175.935 130.419 175.407 130.74C174.889 131.062 174.259 131.223 173.518 131.223ZM175.56 126.865C175.542 126.579 175.459 126.293 175.31 126.006C175.162 125.721 174.925 125.479 174.602 125.282C174.286 125.086 173.889 124.987 173.407 124.987C172.851 124.987 172.379 125.162 171.99 125.51C171.611 125.851 171.361 126.301 171.24 126.865H175.56ZM181.372 134.12C180.539 134.12 179.849 133.932 179.303 133.557C178.765 133.181 178.404 132.731 178.219 132.202L179.289 131.76C179.446 132.154 179.705 132.47 180.067 132.712C180.436 132.963 180.872 133.087 181.372 133.087C182.103 133.087 182.669 132.882 183.067 132.47C183.474 132.06 183.678 131.478 183.678 130.727V129.963H183.623C183.391 130.311 183.062 130.598 182.637 130.821C182.22 131.035 181.742 131.143 181.206 131.143C180.595 131.143 180.033 130.991 179.525 130.687C179.025 130.384 178.626 129.959 178.33 129.413C178.033 128.868 177.886 128.246 177.886 127.549C177.886 126.861 178.033 126.244 178.33 125.698C178.626 125.144 179.025 124.715 179.525 124.411C180.033 124.107 180.595 123.955 181.206 123.955C181.742 123.955 182.22 124.067 182.637 124.29C183.062 124.504 183.391 124.791 183.623 125.148H183.678V124.169H184.804V130.74C184.804 131.84 184.488 132.677 183.859 133.248C183.228 133.83 182.4 134.12 181.372 134.12ZM181.372 130.11C181.798 130.11 182.182 130.008 182.525 129.802C182.877 129.596 183.155 129.301 183.359 128.917C183.571 128.533 183.678 128.077 183.678 127.549C183.678 127.012 183.571 126.552 183.359 126.167C183.155 125.784 182.877 125.493 182.525 125.296C182.182 125.09 181.798 124.987 181.372 124.987C180.946 124.987 180.557 125.09 180.206 125.296C179.853 125.502 179.571 125.797 179.358 126.181C179.154 126.566 179.053 127.022 179.053 127.549C179.053 128.077 179.154 128.537 179.358 128.93C179.571 129.315 179.853 129.61 180.206 129.815C180.557 130.012 180.946 130.11 181.372 130.11ZM189.635 131.223C188.959 131.223 188.352 131.068 187.815 130.754C187.278 130.441 186.857 130.012 186.551 129.466C186.254 128.913 186.107 128.292 186.107 127.602C186.107 126.941 186.246 126.334 186.523 125.778C186.81 125.225 187.212 124.782 187.732 124.451C188.25 124.121 188.852 123.955 189.538 123.955C190.232 123.955 190.834 124.107 191.344 124.411C191.852 124.706 192.241 125.117 192.511 125.644C192.788 126.173 192.927 126.776 192.927 127.455C192.927 127.589 192.913 127.706 192.886 127.803H187.287C187.315 128.322 187.444 128.761 187.676 129.118C187.907 129.476 188.199 129.744 188.552 129.922C188.913 130.102 189.288 130.191 189.677 130.191C190.584 130.191 191.283 129.78 191.774 128.957L192.775 129.426C192.469 129.981 192.052 130.419 191.524 130.74C191.005 131.062 190.376 131.223 189.635 131.223ZM191.677 126.865C191.658 126.579 191.574 126.293 191.427 126.006C191.278 125.721 191.042 125.479 190.719 125.282C190.403 125.086 190.005 124.987 189.524 124.987C188.968 124.987 188.496 125.162 188.107 125.51C187.726 125.851 187.476 126.301 187.357 126.865H191.677ZM200.802 131.223C200.108 131.223 199.483 131.062 198.927 130.74C198.371 130.419 197.935 129.981 197.621 129.426C197.316 128.872 197.163 128.259 197.163 127.589C197.163 126.918 197.316 126.307 197.621 125.752C197.935 125.198 198.371 124.759 198.927 124.437C199.483 124.115 200.108 123.955 200.802 123.955C201.497 123.955 202.122 124.115 202.678 124.437C203.233 124.759 203.664 125.198 203.97 125.752C204.284 126.307 204.442 126.918 204.442 127.589C204.442 128.259 204.284 128.872 203.97 129.426C203.664 129.981 203.233 130.419 202.678 130.74C202.122 131.062 201.497 131.223 200.802 131.223ZM200.802 130.191C201.237 130.191 201.64 130.089 202.011 129.882C202.39 129.668 202.692 129.364 202.914 128.97C203.145 128.577 203.261 128.117 203.261 127.589C203.261 127.062 203.145 126.602 202.914 126.208C202.692 125.815 202.39 125.516 202.011 125.309C201.64 125.094 201.237 124.987 200.802 124.987C200.366 124.987 199.959 125.094 199.58 125.309C199.199 125.516 198.894 125.815 198.663 126.208C198.441 126.602 198.33 127.062 198.33 127.589C198.33 128.117 198.441 128.577 198.663 128.97C198.894 129.364 199.199 129.668 199.58 129.882C199.959 130.089 200.366 130.191 200.802 130.191ZM206.428 125.202H205.123V124.169H206.428V123.432C206.428 123.002 206.53 122.627 206.734 122.305C206.938 121.983 207.211 121.738 207.554 121.567C207.897 121.389 208.276 121.299 208.693 121.299C209.091 121.299 209.439 121.353 209.735 121.46V122.573C209.568 122.512 209.411 122.462 209.262 122.426C209.114 122.381 208.939 122.359 208.734 122.359C208.429 122.359 208.165 122.466 207.943 122.68C207.72 122.887 207.609 123.177 207.609 123.552V124.169H209.429V125.202H207.609V131.009H206.428V125.202ZM214.337 121.406H220.088V122.493H215.504V125.671H219.643V126.744H215.504V129.922H220.088V131.009H214.337V121.406ZM221.617 124.169H222.743V125.175H222.798C222.993 124.836 223.302 124.55 223.729 124.317C224.154 124.075 224.608 123.955 225.09 123.955C225.942 123.955 226.591 124.196 227.035 124.679C227.488 125.153 227.716 125.801 227.716 126.623V131.009H226.535V126.798C226.535 126.163 226.377 125.703 226.063 125.416C225.747 125.131 225.317 124.987 224.771 124.987C224.39 124.987 224.048 125.09 223.743 125.296C223.446 125.502 223.215 125.774 223.048 126.114C222.882 126.445 222.798 126.794 222.798 127.16V131.009H221.617V124.169ZM232.447 134.12C231.614 134.12 230.925 133.932 230.377 133.557C229.841 133.181 229.48 132.731 229.294 132.202L230.363 131.76C230.522 132.154 230.78 132.47 231.141 132.712C231.512 132.963 231.947 133.087 232.447 133.087C233.179 133.087 233.745 132.882 234.142 132.47C234.55 132.06 234.753 131.478 234.753 130.727V129.963H234.698C234.467 130.311 234.138 130.598 233.711 130.821C233.295 131.035 232.818 131.143 232.281 131.143C231.669 131.143 231.109 130.991 230.6 130.687C230.1 130.384 229.702 129.959 229.405 129.413C229.109 128.868 228.96 128.246 228.96 127.549C228.96 126.861 229.109 126.244 229.405 125.698C229.702 125.144 230.1 124.715 230.6 124.411C231.109 124.107 231.669 123.955 232.281 123.955C232.818 123.955 233.295 124.067 233.711 124.29C234.138 124.504 234.467 124.791 234.698 125.148H234.753V124.169H235.878V130.74C235.878 131.84 235.564 132.677 234.934 133.248C234.305 133.83 233.475 134.12 232.447 134.12ZM232.447 130.11C232.874 130.11 233.258 130.008 233.6 129.802C233.953 129.596 234.231 129.301 234.434 128.917C234.648 128.533 234.753 128.077 234.753 127.549C234.753 127.012 234.648 126.552 234.434 126.167C234.231 125.784 233.953 125.493 233.6 125.296C233.258 125.09 232.874 124.987 232.447 124.987C232.022 124.987 231.633 125.09 231.28 125.296C230.929 125.502 230.647 125.797 230.433 126.181C230.23 126.566 230.127 127.022 230.127 127.549C230.127 128.077 230.23 128.537 230.433 128.93C230.647 129.315 230.929 129.61 231.28 129.815C231.633 130.012 232.022 130.11 232.447 130.11ZM238.319 122.909C238.087 122.909 237.889 122.828 237.722 122.667C237.555 122.506 237.472 122.314 237.472 122.09C237.472 121.868 237.555 121.68 237.722 121.527C237.889 121.366 238.087 121.286 238.319 121.286C238.551 121.286 238.75 121.366 238.917 121.527C239.083 121.68 239.167 121.868 239.167 122.09C239.167 122.314 239.083 122.506 238.917 122.667C238.76 122.828 238.559 122.909 238.319 122.909ZM237.736 124.169H238.903V131.009H237.736V124.169ZM240.758 124.169H241.884V125.175H241.939C242.134 124.836 242.444 124.55 242.87 124.317C243.296 124.075 243.749 123.955 244.231 123.955C245.083 123.955 245.732 124.196 246.176 124.679C246.63 125.153 246.857 125.801 246.857 126.623V131.009H245.676V126.798C245.676 126.163 245.519 125.703 245.204 125.416C244.888 125.131 244.458 124.987 243.912 124.987C243.533 124.987 243.189 125.09 242.884 125.296C242.588 125.502 242.356 125.774 242.189 126.114C242.023 126.445 241.939 126.794 241.939 127.16V131.009H240.758V124.169ZM251.698 131.223C251.023 131.223 250.416 131.068 249.878 130.754C249.342 130.441 248.92 130.012 248.614 129.466C248.318 128.913 248.17 128.292 248.17 127.602C248.17 126.941 248.309 126.334 248.586 125.778C248.874 125.225 249.277 124.782 249.795 124.451C250.314 124.121 250.916 123.955 251.601 123.955C252.295 123.955 252.898 124.107 253.407 124.411C253.917 124.706 254.305 125.117 254.574 125.644C254.851 126.173 254.99 126.776 254.99 127.455C254.99 127.589 254.976 127.706 254.949 127.803H249.35C249.378 128.322 249.509 128.761 249.739 129.118C249.971 129.476 250.263 129.744 250.615 129.922C250.976 130.102 251.351 130.191 251.74 130.191C252.648 130.191 253.347 129.78 253.837 128.957L254.838 129.426C254.532 129.981 254.115 130.419 253.587 130.74C253.069 131.062 252.44 131.223 251.698 131.223ZM253.74 126.865C253.722 126.579 253.639 126.293 253.49 126.006C253.343 125.721 253.107 125.479 252.782 125.282C252.468 125.086 252.069 124.987 251.587 124.987C251.031 124.987 250.559 125.162 250.17 125.51C249.791 125.851 249.541 126.301 249.42 126.865H253.74ZM259.594 131.223C258.917 131.223 258.312 131.068 257.774 130.754C257.237 130.441 256.816 130.012 256.51 129.466C256.214 128.913 256.066 128.292 256.066 127.602C256.066 126.941 256.204 126.334 256.482 125.778C256.77 125.225 257.173 124.782 257.691 124.451C258.209 124.121 258.812 123.955 259.497 123.955C260.191 123.955 260.793 124.107 261.303 124.411C261.812 124.706 262.201 125.117 262.469 125.644C262.747 126.173 262.886 126.776 262.886 127.455C262.886 127.589 262.872 127.706 262.845 127.803H257.246C257.274 128.322 257.403 128.761 257.635 129.118C257.867 129.476 258.159 129.744 258.51 129.922C258.872 130.102 259.247 130.191 259.636 130.191C260.543 130.191 261.243 129.78 261.733 128.957L262.733 129.426C262.428 129.981 262.011 130.419 261.483 130.74C260.965 131.062 260.334 131.223 259.594 131.223ZM261.636 126.865C261.618 126.579 261.535 126.293 261.386 126.006C261.237 125.721 261.001 125.479 260.677 125.282C260.362 125.086 259.965 124.987 259.483 124.987C258.927 124.987 258.455 125.162 258.066 125.51C257.687 125.851 257.437 126.301 257.316 126.865H261.636ZM264.268 124.169H265.394V125.269H265.449C265.588 124.893 265.856 124.585 266.255 124.343C266.652 124.094 267.069 123.968 267.505 123.968C267.829 123.968 268.107 124.014 268.339 124.102V125.336C268.041 125.194 267.708 125.121 267.338 125.121C266.995 125.121 266.68 125.215 266.394 125.403C266.106 125.591 265.874 125.845 265.699 126.167C265.533 126.481 265.449 126.82 265.449 127.187V131.009H264.268V124.169ZM270.172 122.909C269.94 122.909 269.742 122.828 269.575 122.667C269.408 122.506 269.325 122.314 269.325 122.09C269.325 121.868 269.408 121.68 269.575 121.527C269.742 121.366 269.94 121.286 270.172 121.286C270.403 121.286 270.603 121.366 270.77 121.527C270.936 121.68 271.02 121.868 271.02 122.09C271.02 122.314 270.936 122.506 270.77 122.667C270.611 122.828 270.413 122.909 270.172 122.909ZM269.589 124.169H270.756V131.009H269.589V124.169ZM272.612 124.169H273.737V125.175H273.792C273.987 124.836 274.297 124.55 274.723 124.317C275.148 124.075 275.602 123.955 276.085 123.955C276.936 123.955 277.585 124.196 278.029 124.679C278.482 125.153 278.71 125.801 278.71 126.623V131.009H277.529V126.798C277.529 126.163 277.371 125.703 277.057 125.416C276.742 125.131 276.311 124.987 275.765 124.987C275.384 124.987 275.043 125.09 274.737 125.296C274.44 125.502 274.209 125.774 274.042 126.114C273.876 126.445 273.792 126.794 273.792 127.16V131.009H272.612V124.169ZM283.441 134.12C282.608 134.12 281.919 133.932 281.372 133.557C280.835 133.181 280.474 132.731 280.288 132.202L281.358 131.76C281.516 132.154 281.774 132.47 282.136 132.712C282.507 132.963 282.941 133.087 283.441 133.087C284.174 133.087 284.739 132.882 285.136 132.47C285.545 132.06 285.747 131.478 285.747 130.727V129.963H285.692C285.461 130.311 285.132 130.598 284.706 130.821C284.289 131.035 283.812 131.143 283.275 131.143C282.663 131.143 282.104 130.991 281.594 130.687C281.094 130.384 280.697 129.959 280.399 129.413C280.103 128.868 279.955 128.246 279.955 127.549C279.955 126.861 280.103 126.244 280.399 125.698C280.697 125.144 281.094 124.715 281.594 124.411C282.104 124.107 282.663 123.955 283.275 123.955C283.812 123.955 284.289 124.067 284.706 124.29C285.132 124.504 285.461 124.791 285.692 125.148H285.747V124.169H286.873V130.74C286.873 131.84 286.559 132.677 285.928 133.248C285.299 133.83 284.469 134.12 283.441 134.12ZM283.441 130.11C283.868 130.11 284.253 130.008 284.594 129.802C284.947 129.596 285.225 129.301 285.428 128.917C285.642 128.533 285.747 128.077 285.747 127.549C285.747 127.012 285.642 126.552 285.428 126.167C285.225 125.784 284.947 125.493 284.594 125.296C284.253 125.09 283.868 124.987 283.441 124.987C283.016 124.987 282.627 125.09 282.275 125.296C281.923 125.502 281.641 125.797 281.427 126.181C281.224 126.566 281.122 127.022 281.122 127.549C281.122 128.077 281.224 128.537 281.427 128.93C281.641 129.315 281.923 129.61 282.275 129.815C282.627 130.012 283.016 130.11 283.441 130.11ZM294.112 131.223C293.593 131.223 293.131 131.125 292.722 130.928C292.315 130.732 292 130.464 291.778 130.124C291.555 129.775 291.444 129.382 291.444 128.943C291.444 128.219 291.728 127.656 292.292 127.254C292.857 126.843 293.57 126.637 294.431 126.637C294.857 126.637 295.251 126.682 295.612 126.771C295.983 126.861 296.265 126.964 296.459 127.079V126.664C296.459 126.154 296.274 125.748 295.903 125.443C295.534 125.131 295.066 124.974 294.5 124.974C294.103 124.974 293.736 125.06 293.403 125.229C293.07 125.39 292.806 125.617 292.611 125.913L291.722 125.269C292 124.858 292.381 124.537 292.861 124.303C293.353 124.071 293.895 123.955 294.487 123.955C295.451 123.955 296.205 124.201 296.751 124.692C297.307 125.175 297.584 125.837 297.584 126.677V131.009H296.459V130.03H296.404C296.201 130.361 295.895 130.643 295.487 130.875C295.08 131.108 294.621 131.223 294.112 131.223ZM294.223 130.217C294.621 130.217 294.992 130.12 295.334 129.922C295.677 129.727 295.951 129.462 296.154 129.131C296.358 128.801 296.459 128.439 296.459 128.045C296.237 127.903 295.965 127.786 295.64 127.696C295.316 127.608 294.973 127.562 294.612 127.562C293.964 127.562 293.472 127.692 293.139 127.951C292.815 128.211 292.653 128.546 292.653 128.957C292.653 129.332 292.802 129.637 293.097 129.869C293.395 130.102 293.77 130.217 294.223 130.217ZM299.228 124.169H300.353V125.175H300.408C300.603 124.836 300.913 124.55 301.339 124.317C301.764 124.075 302.219 123.955 302.701 123.955C303.552 123.955 304.201 124.196 304.645 124.679C305.098 125.153 305.326 125.801 305.326 126.623V131.009H304.145V126.798C304.145 126.163 303.987 125.703 303.673 125.416C303.358 125.131 302.927 124.987 302.381 124.987C302 124.987 301.659 125.09 301.353 125.296C301.056 125.502 300.825 125.774 300.659 126.114C300.492 126.445 300.408 126.794 300.408 127.16V131.009H299.228V124.169ZM310.014 131.223C309.385 131.223 308.811 131.068 308.292 130.754C307.783 130.441 307.381 130.012 307.083 129.466C306.787 128.913 306.639 128.286 306.639 127.589C306.639 126.901 306.787 126.28 307.083 125.725C307.381 125.171 307.783 124.738 308.292 124.424C308.811 124.111 309.385 123.955 310.014 123.955C310.562 123.955 311.048 124.075 311.473 124.317C311.9 124.55 312.223 124.84 312.445 125.188H312.501L312.445 124.236V121.406H313.626V131.009H312.501V130.003H312.445C312.223 130.343 311.9 130.633 311.473 130.875C311.048 131.108 310.562 131.223 310.014 131.223ZM310.153 130.191C310.57 130.191 310.955 130.083 311.306 129.869C311.668 129.654 311.955 129.351 312.168 128.957C312.39 128.564 312.501 128.108 312.501 127.589C312.501 127.071 312.39 126.615 312.168 126.221C311.955 125.828 311.668 125.524 311.306 125.309C310.955 125.094 310.57 124.987 310.153 124.987C309.746 124.987 309.362 125.094 309 125.309C308.639 125.524 308.347 125.832 308.125 126.234C307.913 126.629 307.806 127.079 307.806 127.589C307.806 128.098 307.913 128.554 308.125 128.957C308.347 129.351 308.639 129.654 309 129.869C309.362 130.083 309.746 130.191 310.153 130.191ZM318.836 121.406H320.544L323.711 129.279H323.767L326.934 121.406H328.643V131.009H327.476V124.907L327.532 123.083H327.476L324.225 131.009H323.253L320.002 123.083H319.947L320.002 124.907V131.009H318.836V121.406ZM332.694 131.223C332.174 131.223 331.712 131.125 331.305 130.928C330.896 130.732 330.582 130.464 330.36 130.124C330.138 129.775 330.026 129.382 330.026 128.943C330.026 128.219 330.309 127.656 330.874 127.254C331.438 126.843 332.152 126.637 333.013 126.637C333.438 126.637 333.833 126.682 334.194 126.771C334.563 126.861 334.847 126.964 335.041 127.079V126.664C335.041 126.154 334.855 125.748 334.486 125.443C334.115 125.131 333.647 124.974 333.083 124.974C332.684 124.974 332.319 125.06 331.985 125.229C331.652 125.39 331.388 125.617 331.193 125.913L330.304 125.269C330.582 124.858 330.961 124.537 331.443 124.303C331.934 124.071 332.476 123.955 333.069 123.955C334.031 123.955 334.786 124.201 335.333 124.692C335.889 125.175 336.167 125.837 336.167 126.677V131.009H335.041V130.03H334.986C334.782 130.361 334.476 130.643 334.069 130.875C333.66 131.108 333.202 131.223 332.694 131.223ZM332.805 130.217C333.202 130.217 333.573 130.12 333.916 129.922C334.258 129.727 334.531 129.462 334.736 129.131C334.939 128.801 335.041 128.439 335.041 128.045C334.819 127.903 334.545 127.786 334.222 127.696C333.897 127.608 333.555 127.562 333.194 127.562C332.545 127.562 332.055 127.692 331.721 127.951C331.396 128.211 331.235 128.546 331.235 128.957C331.235 129.332 331.382 129.637 331.68 129.869C331.975 130.102 332.351 130.217 332.805 130.217ZM337.809 124.169H338.934V125.175H338.989C339.184 124.836 339.494 124.55 339.92 124.317C340.346 124.075 340.799 123.955 341.281 123.955C342.133 123.955 342.782 124.196 343.226 124.679C343.68 125.153 343.907 125.801 343.907 126.623V131.009H342.726V126.798C342.726 126.163 342.569 125.703 342.254 125.416C341.938 125.131 341.508 124.987 340.962 124.987C340.583 124.987 340.24 125.09 339.934 125.296C339.638 125.502 339.406 125.774 339.239 126.114C339.073 126.445 338.989 126.794 338.989 127.16V131.009H337.809V124.169ZM347.792 131.223C347.273 131.223 346.81 131.125 346.403 130.928C345.995 130.732 345.681 130.464 345.459 130.124C345.236 129.775 345.125 129.382 345.125 128.943C345.125 128.219 345.407 127.656 345.973 127.254C346.536 126.843 347.251 126.637 348.112 126.637C348.537 126.637 348.931 126.682 349.293 126.771C349.662 126.861 349.945 126.964 350.14 127.079V126.664C350.14 126.154 349.954 125.748 349.584 125.443C349.213 125.131 348.745 124.974 348.181 124.974C347.783 124.974 347.417 125.06 347.084 125.229C346.75 125.39 346.487 125.617 346.292 125.913L345.403 125.269C345.681 124.858 346.06 124.537 346.542 124.303C347.032 124.071 347.574 123.955 348.167 123.955C349.13 123.955 349.884 124.201 350.432 124.692C350.987 125.175 351.265 125.837 351.265 126.677V131.009H350.14V130.03H350.084C349.88 130.361 349.575 130.643 349.168 130.875C348.759 131.108 348.301 131.223 347.792 131.223ZM347.903 130.217C348.301 130.217 348.672 130.12 349.015 129.922C349.356 129.727 349.63 129.462 349.834 129.131C350.037 128.801 350.14 128.439 350.14 128.045C349.918 127.903 349.644 127.786 349.32 127.696C348.995 127.608 348.654 127.562 348.292 127.562C347.644 127.562 347.153 127.692 346.82 127.951C346.495 128.211 346.334 128.546 346.334 128.957C346.334 129.332 346.481 129.637 346.778 129.869C347.074 130.102 347.449 130.217 347.903 130.217ZM355.951 134.12C355.117 134.12 354.428 133.932 353.881 133.557C353.345 133.181 352.984 132.731 352.797 132.202L353.867 131.76C354.025 132.154 354.284 132.47 354.645 132.712C355.016 132.963 355.451 133.087 355.951 133.087C356.683 133.087 357.248 132.882 357.646 132.47C358.054 132.06 358.257 131.478 358.257 130.727V129.963H358.201C357.971 130.311 357.641 130.598 357.215 130.821C356.798 131.035 356.322 131.143 355.784 131.143C355.173 131.143 354.613 130.991 354.103 130.687C353.603 130.384 353.206 129.959 352.909 129.413C352.613 128.868 352.464 128.246 352.464 127.549C352.464 126.861 352.613 126.244 352.909 125.698C353.206 125.144 353.603 124.715 354.103 124.411C354.613 124.107 355.173 123.955 355.784 123.955C356.322 123.955 356.798 124.067 357.215 124.29C357.641 124.504 357.971 124.791 358.201 125.148H358.257V124.169H359.382V130.74C359.382 131.84 359.068 132.677 358.437 133.248C357.808 133.83 356.979 134.12 355.951 134.12ZM355.951 130.11C356.377 130.11 356.762 130.008 357.104 129.802C357.457 129.596 357.734 129.301 357.937 128.917C358.151 128.533 358.257 128.077 358.257 127.549C358.257 127.012 358.151 126.552 357.937 126.167C357.734 125.784 357.457 125.493 357.104 125.296C356.762 125.09 356.377 124.987 355.951 124.987C355.526 124.987 355.137 125.09 354.784 125.296C354.432 125.502 354.15 125.797 353.936 126.181C353.734 126.566 353.631 127.022 353.631 127.549C353.631 128.077 353.734 128.537 353.936 128.93C354.15 129.315 354.432 129.61 354.784 129.815C355.137 130.012 355.526 130.11 355.951 130.11ZM364.213 131.223C363.538 131.223 362.931 131.068 362.394 130.754C361.857 130.441 361.435 130.012 361.13 129.466C360.834 128.913 360.685 128.292 360.685 127.602C360.685 126.941 360.824 126.334 361.102 125.778C361.389 125.225 361.792 124.782 362.31 124.451C362.83 124.121 363.431 123.955 364.116 123.955C364.811 123.955 365.414 124.107 365.922 124.411C366.432 124.706 366.821 125.117 367.089 125.644C367.367 126.173 367.506 126.776 367.506 127.455C367.506 127.589 367.492 127.706 367.464 127.803H361.866C361.894 128.322 362.024 128.761 362.255 129.118C362.487 129.476 362.778 129.744 363.13 129.922C363.491 130.102 363.866 130.191 364.255 130.191C365.164 130.191 365.862 129.78 366.353 128.957L367.353 129.426C367.047 129.981 366.631 130.419 366.103 130.74C365.585 131.062 364.955 131.223 364.213 131.223ZM366.255 126.865C366.237 126.579 366.154 126.293 366.005 126.006C365.858 125.721 365.622 125.479 365.297 125.282C364.983 125.086 364.584 124.987 364.102 124.987C363.547 124.987 363.074 125.162 362.685 125.51C362.306 125.851 362.056 126.301 361.935 126.865H366.255ZM368.888 124.169H370.013V125.175H370.069C370.273 124.826 370.578 124.537 370.986 124.303C371.394 124.071 371.825 123.955 372.277 123.955C372.797 123.955 373.246 124.075 373.625 124.317C374.014 124.558 374.292 124.88 374.458 125.282C374.708 124.88 375.038 124.558 375.445 124.317C375.861 124.075 376.343 123.955 376.889 123.955C377.705 123.955 378.316 124.196 378.723 124.679C379.14 125.153 379.348 125.801 379.348 126.623V131.009H378.181V126.798C378.181 126.163 378.048 125.703 377.778 125.416C377.51 125.131 377.112 124.987 376.584 124.987C376.232 124.987 375.913 125.086 375.625 125.282C375.339 125.479 375.111 125.744 374.945 126.073C374.788 126.405 374.708 126.763 374.708 127.146V131.009H373.528V126.811C373.528 126.167 373.394 125.703 373.125 125.416C372.857 125.131 372.464 124.987 371.944 124.987C371.593 124.987 371.273 125.09 370.986 125.296C370.699 125.493 370.472 125.761 370.305 126.1C370.148 126.432 370.069 126.79 370.069 127.173V131.009H368.888V124.169ZM384.196 131.223C383.521 131.223 382.914 131.068 382.377 130.754C381.84 130.441 381.418 130.012 381.112 129.466C380.817 128.913 380.668 128.292 380.668 127.602C380.668 126.941 380.807 126.334 381.085 125.778C381.372 125.225 381.775 124.782 382.293 124.451C382.813 124.121 383.414 123.955 384.099 123.955C384.794 123.955 385.397 124.107 385.905 124.411C386.415 124.706 386.804 125.117 387.072 125.644C387.35 126.173 387.489 126.776 387.489 127.455C387.489 127.589 387.475 127.706 387.447 127.803H381.849C381.876 128.322 382.007 128.761 382.238 129.118C382.47 129.476 382.761 129.744 383.113 129.922C383.474 130.102 383.849 130.191 384.238 130.191C385.146 130.191 385.845 129.78 386.336 128.957L387.336 129.426C387.03 129.981 386.613 130.419 386.086 130.74C385.567 131.062 384.938 131.223 384.196 131.223ZM386.238 126.865C386.22 126.579 386.137 126.293 385.988 126.006C385.841 125.721 385.605 125.479 385.28 125.282C384.966 125.086 384.567 124.987 384.085 124.987C383.53 124.987 383.057 125.162 382.668 125.51C382.289 125.851 382.039 126.301 381.918 126.865H386.238ZM388.871 124.169H389.996V125.175H390.052C390.246 124.836 390.556 124.55 390.982 124.317C391.409 124.075 391.862 123.955 392.344 123.955C393.195 123.955 393.844 124.196 394.288 124.679C394.743 125.153 394.969 125.801 394.969 126.623V131.009H393.788V126.798C393.788 126.163 393.631 125.703 393.316 125.416C393.001 125.131 392.57 124.987 392.024 124.987C391.645 124.987 391.302 125.09 390.996 125.296C390.7 125.502 390.468 125.774 390.302 126.114C390.135 126.445 390.052 126.794 390.052 127.16V131.009H388.871V124.169ZM399.028 131.116C398.741 131.116 398.473 131.072 398.223 130.982C397.981 130.893 397.778 130.773 397.611 130.62C397.425 130.451 397.286 130.254 397.195 130.03C397.102 129.807 397.056 129.533 397.056 129.212V125.202H395.819V124.169H397.056V122.238H398.236V124.169H399.959V125.202H398.236V128.93C398.236 129.305 398.31 129.583 398.459 129.761C398.634 129.959 398.889 130.056 399.223 130.056C399.491 130.056 399.751 129.981 400.001 129.828V130.942C399.862 131.005 399.717 131.049 399.57 131.076C399.431 131.103 399.251 131.116 399.028 131.116Z" />
    <defs>
        <linearGradient id="paint0_linear_701_2354" x1="425.558" y1="130.558" x2="9.03645" y2="130.558"
            gradientUnits="userSpaceOnUse">
            <stop stop-color="#348BCA" />
            <stop offset="0.404875" stop-color="#59A43A" />
            <stop offset="0.711571" stop-color="#F3B002" />
            <stop offset="1" stop-color="#DF572E" />
        </linearGradient>
    </defs>
</svg>