<svg width="428" height="167" viewBox="0 0 428 167" fill="none" xmlns="http://www.w3.org/2000/svg">
    <path
        d="M416.864 1.5625H11.2328C5.86239 1.5625 1.50879 5.76547 1.50879 10.9501V155.787C1.50879 160.972 5.86239 165.175 11.2328 165.175H416.864C422.234 165.175 426.588 160.972 426.588 155.787V10.9501C426.588 5.76547 422.234 1.5625 416.864 1.5625Z"
        fill="var(--background-color)" stroke="url(#paint0_linear_701_2358)" stroke-width="2" />
    <path
        d="M59.9732 103.674C58.4326 103.674 57.0129 103.316 55.7154 102.603C54.4166 101.888 53.3817 100.911 52.6121 99.6723C51.8564 98.4184 51.4785 97.0263 51.4785 95.4948C51.4785 93.9646 51.8564 92.5793 52.6121 91.3401C53.3817 90.0862 54.4166 89.1019 55.7154 88.3884C57.0129 87.6736 58.4326 87.3169 59.9732 87.3169C61.197 87.3169 62.3361 87.5274 63.3933 87.9499C64.4504 88.3736 65.3339 88.9637 66.0437 89.7215L64.2767 91.4273C63.7489 90.8587 63.114 90.4215 62.375 90.1157C61.6499 89.81 60.8414 89.6557 59.951 89.6557C58.9091 89.6557 57.9353 89.8972 57.0282 90.3773C56.1225 90.8587 55.3973 91.544 54.8542 92.4331C54.311 93.3223 54.0387 94.3428 54.0387 95.4948C54.0387 96.6468 54.311 97.6674 54.8542 98.5565C55.3973 99.4457 56.1225 100.131 57.0282 100.612C57.9353 101.093 58.916 101.334 59.9732 101.334C60.94 101.334 61.7471 101.196 62.3972 100.918C63.046 100.641 63.628 100.269 64.1406 99.8024C64.474 99.4819 64.7532 99.0809 64.9797 98.6008C65.2214 98.1193 65.3797 97.5936 65.4547 97.0263H59.951V94.8391H67.8566C67.9316 95.2467 67.9691 95.6705 67.9691 96.1077C67.9691 97.0988 67.8108 98.0536 67.494 98.9723C67.1759 99.8762 66.6702 100.663 65.9757 101.334C64.4504 102.894 62.45 103.674 59.9732 103.674ZM75.7928 103.674C74.6301 103.674 73.5882 103.418 72.6672 102.908C71.7462 102.383 71.0294 101.669 70.5154 100.765C70.0014 99.8614 69.7458 98.8556 69.7458 97.7478C69.7458 96.6388 70.0014 95.633 70.5154 94.7291C71.0294 93.8252 71.7462 93.1184 72.6672 92.6088C73.5882 92.0831 74.6301 91.8216 75.7928 91.8216C76.9555 91.8216 77.9974 92.0831 78.9198 92.6088C79.8408 93.1332 80.5575 93.848 81.0715 94.7519C81.5841 95.6558 81.8411 96.6535 81.8411 97.7478C81.8411 98.8556 81.5841 99.8614 81.0715 100.765C80.5575 101.669 79.8408 102.383 78.9198 102.908C77.9974 103.418 76.9555 103.674 75.7928 103.674ZM75.7928 101.465C76.4276 101.465 77.0166 101.319 77.5598 101.028C78.1043 100.721 78.5336 100.292 78.8517 99.7367C79.1837 99.168 79.349 98.5055 79.349 97.7478C79.349 96.9888 79.1837 96.333 78.8517 95.7791C78.5336 95.2253 78.1043 94.8029 77.5598 94.5105C77.0166 94.2047 76.4276 94.0518 75.7928 94.0518C75.1593 94.0518 74.5703 94.2047 74.0258 94.5105C73.4826 94.8029 73.045 95.2253 72.713 95.7791C72.3949 96.333 72.2366 96.9888 72.2366 97.7478C72.2366 98.5055 72.3949 99.168 72.713 99.7367C73.045 100.292 73.4826 100.721 74.0258 101.028C74.5703 101.319 75.1593 101.465 75.7928 101.465ZM89.5523 103.674C88.3896 103.674 87.3477 103.418 86.4267 102.908C85.5057 102.383 84.7875 101.669 84.2749 100.765C83.7609 99.8614 83.5039 98.8556 83.5039 97.7478C83.5039 96.6388 83.7609 95.633 84.2749 94.7291C84.7875 93.8252 85.5057 93.1184 86.4267 92.6088C87.3477 92.0831 88.3896 91.8216 89.5523 91.8216C90.715 91.8216 91.7569 92.0831 92.6779 92.6088C93.5989 93.1332 94.317 93.848 94.8296 94.7519C95.3436 95.6558 95.6006 96.6535 95.6006 97.7478C95.6006 98.8556 95.3436 99.8614 94.8296 100.765C94.317 101.669 93.5989 102.383 92.6779 102.908C91.7569 103.418 90.715 103.674 89.5523 103.674ZM89.5523 101.465C90.1871 101.465 90.7747 101.319 91.3193 101.028C91.8624 100.721 92.2931 100.292 92.6098 99.7367C92.9418 99.168 93.1085 98.5055 93.1085 97.7478C93.1085 96.9888 92.9418 96.333 92.6098 95.7791C92.2931 95.2253 91.8624 94.8029 91.3193 94.5105C90.7747 94.2047 90.1871 94.0518 89.5523 94.0518C88.9174 94.0518 88.3284 94.2047 87.7853 94.5105C87.2421 94.8029 86.8031 95.2253 86.4711 95.7791C86.1544 96.333 85.9961 96.9888 85.9961 97.7478C85.9961 98.5055 86.1544 99.168 86.4711 99.7367C86.8031 100.292 87.2421 100.721 87.7853 101.028C88.3284 101.319 88.9174 101.465 89.5523 101.465ZM103.108 108.397C101.688 108.397 100.51 108.084 99.5736 107.456C98.6526 106.83 98.033 106.087 97.7163 105.226L100.05 104.286C100.29 104.869 100.677 105.336 101.204 105.686C101.748 106.049 102.382 106.232 103.108 106.232C104.165 106.232 104.987 105.926 105.576 105.313C106.18 104.716 106.482 103.87 106.482 102.777V101.75H106.347C105.969 102.274 105.464 102.69 104.829 102.996C104.209 103.287 103.492 103.433 102.677 103.433C101.71 103.433 100.813 103.193 99.982 102.711C99.1513 102.23 98.4859 101.553 97.9886 100.678C97.5052 99.7877 97.2634 98.7751 97.2634 97.6379C97.2634 96.5007 97.5052 95.4949 97.9886 94.6205C98.4859 93.7313 99.1513 93.046 99.982 92.5646C100.813 92.0684 101.71 91.8216 102.677 91.8216C103.477 91.8216 104.195 91.9745 104.829 92.2802C105.464 92.586 105.969 93.0018 106.347 93.5275H106.482V92.1716H108.861V102.711C108.861 103.921 108.62 104.949 108.136 105.794C107.653 106.655 106.974 107.303 106.097 107.74C105.237 108.179 104.24 108.397 103.108 108.397ZM103.13 101.247C103.734 101.247 104.293 101.107 104.806 100.831C105.319 100.539 105.728 100.124 106.029 99.5838C106.332 99.0299 106.482 98.3809 106.482 97.6379C106.482 96.5007 106.158 95.6182 105.508 94.9919C104.875 94.3509 104.081 94.0304 103.13 94.0304C102.51 94.0304 101.945 94.1752 101.431 94.4676C100.918 94.7438 100.51 95.1528 100.208 95.692C99.9056 96.2311 99.7556 96.8802 99.7556 97.6379C99.7556 98.3956 99.9056 99.0447 100.208 99.5838C100.51 100.124 100.918 100.539 101.431 100.831C101.945 101.107 102.51 101.247 103.13 101.247ZM111.79 87.6669H114.28V103.324H111.79V87.6669ZM122.376 103.674C121.243 103.674 120.225 103.418 119.318 102.908C118.427 102.397 117.726 101.699 117.212 100.808C116.713 99.9043 116.464 98.8918 116.464 97.7693C116.464 96.7045 116.706 95.7215 117.189 94.8176C117.687 93.8989 118.374 93.1694 119.249 92.6303C120.126 92.0912 121.122 91.8216 122.24 91.8216C123.403 91.8216 124.407 92.0684 125.253 92.5646C126.113 93.0608 126.763 93.738 127.201 94.599C127.654 95.4586 127.88 96.4282 127.88 97.5064C127.88 97.7103 127.858 97.9665 127.812 98.2722H118.955C119.047 99.3075 119.423 100.11 120.089 100.678C120.768 101.232 121.553 101.508 122.445 101.508C123.154 101.508 123.766 101.355 124.278 101.05C124.807 100.729 125.23 100.299 125.548 99.7595L127.654 100.721C127.111 101.64 126.401 102.361 125.524 102.887C124.649 103.411 123.599 103.674 122.376 103.674ZM125.344 96.4349C125.313 96.042 125.185 95.6558 124.959 95.2762C124.732 94.8833 124.384 94.5547 123.916 94.2919C123.463 94.0304 122.904 93.8989 122.24 93.8989C121.44 93.8989 120.761 94.1323 120.201 94.599C119.658 95.0509 119.28 95.6625 119.069 96.4349H125.344ZM135.866 87.6669H141.054C142.729 87.6669 144.194 87.9941 145.447 88.6499C146.7 89.3057 147.66 90.2324 148.324 91.4273C149.004 92.6088 149.344 93.9646 149.344 95.4948C149.344 97.0263 149.004 98.3889 148.324 99.5838C147.66 100.765 146.7 101.684 145.447 102.34C144.194 102.996 142.729 103.324 141.054 103.324H135.866V87.6669ZM141.008 100.984C142.821 100.984 144.232 100.502 145.243 99.5409C146.271 98.5632 146.784 97.2154 146.784 95.4948C146.784 93.789 146.271 92.4479 145.243 91.4716C144.232 90.4939 142.821 90.0058 141.008 90.0058H138.403V100.984H141.008ZM156.773 103.674C155.641 103.674 154.621 103.418 153.716 102.908C152.825 102.397 152.122 101.699 151.608 100.808C151.111 99.9043 150.861 98.8918 150.861 97.7693C150.861 96.7045 151.103 95.7215 151.586 94.8176C152.085 93.8989 152.772 93.1694 153.648 92.6303C154.524 92.0912 155.52 91.8216 156.637 91.8216C157.8 91.8216 158.804 92.0684 159.65 92.5646C160.511 93.0608 161.16 93.738 161.598 94.599C162.052 95.4586 162.278 96.4282 162.278 97.5064C162.278 97.7103 162.255 97.9665 162.21 98.2722H153.353C153.443 99.3075 153.821 100.11 154.485 100.678C155.166 101.232 155.951 101.508 156.841 101.508C157.551 101.508 158.162 101.355 158.676 101.05C159.204 100.729 159.628 100.299 159.945 99.7595L162.052 100.721C161.507 101.64 160.797 102.361 159.922 102.887C159.046 103.411 157.997 103.674 156.773 103.674ZM159.74 96.4349C159.711 96.042 159.582 95.6558 159.356 95.2762C159.129 94.8833 158.782 94.5547 158.314 94.2919C157.861 94.0304 157.302 93.8989 156.637 93.8989C155.837 93.8989 155.158 94.1323 154.599 94.599C154.056 95.0509 153.678 95.6625 153.467 96.4349H159.74ZM163.034 92.1716H165.821L169.014 100.218H169.105L172.366 92.1716H175.085L170.283 103.324H167.792L163.034 92.1716ZM181.637 103.674C180.504 103.674 179.486 103.418 178.579 102.908C177.688 102.397 176.987 101.699 176.473 100.808C175.974 99.9043 175.725 98.8918 175.725 97.7693C175.725 96.7045 175.967 95.7215 176.45 94.8176C176.948 93.8989 177.635 93.1694 178.51 92.6303C179.387 92.0912 180.383 91.8216 181.501 91.8216C182.664 91.8216 183.668 92.0684 184.514 92.5646C185.374 93.0608 186.024 93.738 186.462 94.599C186.915 95.4586 187.141 96.4282 187.141 97.5064C187.141 97.7103 187.119 97.9665 187.073 98.2722H178.216C178.308 99.3075 178.684 100.11 179.35 100.678C180.029 101.232 180.814 101.508 181.706 101.508C182.415 101.508 183.027 101.355 183.539 101.05C184.068 100.729 184.491 100.299 184.809 99.7595L186.915 100.721C186.372 101.64 185.662 102.361 184.785 102.887C183.91 103.411 182.86 103.674 181.637 103.674ZM184.605 96.4349C184.574 96.042 184.446 95.6558 184.22 95.2762C183.993 94.8833 183.645 94.5547 183.177 94.2919C182.724 94.0304 182.165 93.8989 181.501 93.8989C180.701 93.8989 180.022 94.1323 179.462 94.599C178.919 95.0509 178.541 95.6625 178.33 96.4349H184.605ZM189.41 87.6669H191.902V103.324H189.41V87.6669ZM200.133 103.674C198.97 103.674 197.928 103.418 197.007 102.908C196.086 102.383 195.369 101.669 194.855 100.765C194.341 99.8614 194.086 98.8556 194.086 97.7478C194.086 96.6388 194.341 95.633 194.855 94.7291C195.369 93.8252 196.086 93.1184 197.007 92.6088C197.928 92.0831 198.97 91.8216 200.133 91.8216C201.295 91.8216 202.337 92.0831 203.26 92.6088C204.181 93.1332 204.897 93.848 205.411 94.7519C205.924 95.6558 206.181 96.6535 206.181 97.7478C206.181 98.8556 205.924 99.8614 205.411 100.765C204.897 101.669 204.181 102.383 203.26 102.908C202.337 103.418 201.295 103.674 200.133 103.674ZM200.133 101.465C200.767 101.465 201.356 101.319 201.9 101.028C202.444 100.721 202.873 100.292 203.191 99.7367C203.523 99.168 203.689 98.5055 203.689 97.7478C203.689 96.9888 203.523 96.333 203.191 95.7791C202.873 95.2253 202.444 94.8029 201.9 94.5105C201.356 94.2047 200.767 94.0518 200.133 94.0518C199.499 94.0518 198.91 94.2047 198.366 94.5105C197.822 94.8029 197.385 95.2253 197.053 95.7791C196.735 96.333 196.576 96.9888 196.576 97.7478C196.576 98.5055 196.735 99.168 197.053 99.7367C197.385 100.292 197.822 100.721 198.366 101.028C198.91 101.319 199.499 101.465 200.133 101.465ZM208.277 92.1716H210.655V93.6361H210.769C211.101 93.1265 211.592 92.696 212.242 92.346C212.891 91.9959 213.623 91.8216 214.438 91.8216C215.48 91.8216 216.424 92.0764 217.269 92.586C218.115 93.097 218.78 93.8037 219.263 94.7076C219.761 95.5967 220.011 96.6106 220.011 97.7478C220.011 98.8851 219.761 99.9043 219.263 100.808C218.78 101.699 218.115 102.397 217.269 102.908C216.424 103.418 215.48 103.674 214.438 103.674C213.623 103.674 212.891 103.498 212.242 103.148C211.592 102.798 211.101 102.376 210.769 101.88H210.655L210.769 103.433V108.047H208.277V92.1716ZM214.075 101.465C214.68 101.465 215.247 101.311 215.774 101.005C216.304 100.7 216.726 100.262 217.043 99.6938C217.361 99.1252 217.519 98.476 217.519 97.7478C217.519 97.0183 217.361 96.3772 217.043 95.8234C216.726 95.2548 216.304 94.8176 215.774 94.5105C215.247 94.2047 214.68 94.0518 214.075 94.0518C213.473 94.0518 212.906 94.2047 212.377 94.5105C211.864 94.8176 211.449 95.2548 211.132 95.8234C210.814 96.3772 210.655 97.0183 210.655 97.7478C210.655 98.476 210.814 99.1252 211.132 99.6938C211.449 100.262 211.864 100.7 212.377 101.005C212.906 101.311 213.473 101.465 214.075 101.465ZM227.56 103.674C226.426 103.674 225.408 103.418 224.501 102.908C223.611 102.397 222.908 101.699 222.395 100.808C221.896 99.9043 221.648 98.8918 221.648 97.7693C221.648 96.7045 221.889 95.7215 222.373 94.8176C222.87 93.8989 223.558 93.1694 224.433 92.6303C225.309 92.0912 226.305 91.8216 227.424 91.8216C228.586 91.8216 229.591 92.0684 230.435 92.5646C231.297 93.0608 231.947 93.738 232.384 94.599C232.837 95.4586 233.064 96.4282 233.064 97.5064C233.064 97.7103 233.041 97.9665 232.996 98.2722H224.138C224.23 99.3075 224.607 100.11 225.272 100.678C225.951 101.232 226.736 101.508 227.628 101.508C228.336 101.508 228.949 101.355 229.462 101.05C229.991 100.729 230.413 100.299 230.73 99.7595L232.837 100.721C232.294 101.64 231.584 102.361 230.708 102.887C229.833 103.411 228.782 103.674 227.56 103.674ZM230.527 96.4349C230.497 96.042 230.369 95.6558 230.142 95.2762C229.915 94.8833 229.567 94.5547 229.099 94.2919C228.646 94.0304 228.088 93.8989 227.424 93.8989C226.624 93.8989 225.943 94.1323 225.385 94.599C224.841 95.0509 224.464 95.6625 224.252 96.4349H230.527ZM235.332 92.1716H237.712V93.8118H237.824C238.081 93.2431 238.527 92.7765 239.161 92.4117C239.796 92.0322 240.466 91.8431 241.176 91.8431C241.736 91.8431 242.204 91.9155 242.581 92.0616V94.5547C241.917 94.3214 241.321 94.2047 240.792 94.2047C240.218 94.2047 239.704 94.3509 239.251 94.6419C238.813 94.9343 238.466 95.3272 238.209 95.8234C237.952 96.3035 237.824 96.8359 237.824 97.4193V103.324H235.332V92.1716ZM254.211 103.674C252.866 103.674 251.659 103.295 250.586 102.537C249.514 101.778 248.774 100.714 248.367 99.3437L250.767 98.4036C251.009 99.2633 251.432 99.97 252.035 100.524C252.655 101.064 253.395 101.334 254.255 101.334C255.057 101.334 255.736 101.137 256.294 100.744C256.853 100.335 257.132 99.7809 257.132 99.0809C257.132 98.4399 256.883 97.9155 256.385 97.5064C255.901 97.084 255.048 96.6616 253.826 96.2378L252.806 95.8891C251.719 95.5243 250.805 94.9986 250.065 94.3147C249.325 93.6294 248.956 92.7255 248.956 91.603C248.956 90.8292 249.174 90.1157 249.613 89.4599C250.05 88.8028 250.654 88.2865 251.424 87.907C252.209 87.5127 253.092 87.3169 254.075 87.3169C255.494 87.3169 256.626 87.6522 257.472 88.3227C258.318 88.9785 258.884 89.7215 259.171 90.5529L256.883 91.4931C256.717 90.9969 256.4 90.5596 255.932 90.1814C255.464 89.8019 254.859 89.6128 254.12 89.6128C253.38 89.6128 252.753 89.7952 252.24 90.1586C251.741 90.5234 251.492 90.9901 251.492 91.5587C251.492 92.0979 251.719 92.5431 252.171 92.8931C252.624 93.2431 253.334 93.5784 254.301 93.8989L255.321 94.2262C256.71 94.6929 257.782 95.3057 258.536 96.0635C259.307 96.8064 259.692 97.8055 259.692 99.0595C259.692 100.08 259.42 100.94 258.877 101.64C258.334 102.325 257.638 102.835 256.793 103.17C255.962 103.506 255.101 103.674 254.211 103.674ZM266.346 103.498C265.832 103.498 265.349 103.418 264.896 103.258C264.443 103.097 264.074 102.887 263.786 102.624C263.137 101.996 262.812 101.143 262.812 100.065V94.2919H260.797V92.1716H262.812V89.0214H265.304V92.1716H268.113V94.2919H265.304V99.5409C265.304 100.138 265.425 100.561 265.667 100.808C265.893 101.101 266.285 101.247 266.845 101.247C267.101 101.247 267.327 101.217 267.524 101.158C267.72 101.086 267.931 100.976 268.158 100.831V103.17C267.66 103.39 267.056 103.498 266.346 103.498ZM274.695 103.674C273.291 103.674 272.22 103.273 271.479 102.471C270.754 101.654 270.391 100.524 270.391 99.0809V92.1716H272.884V98.7536C272.884 99.6575 273.102 100.335 273.541 100.787C273.994 101.239 274.583 101.465 275.308 101.465C275.897 101.465 276.418 101.319 276.87 101.028C277.323 100.721 277.671 100.32 277.912 99.8252C278.154 99.329 278.275 98.7966 278.275 98.2279V92.1716H280.766V103.324H278.411V101.88H278.275C277.957 102.405 277.466 102.835 276.802 103.17C276.137 103.506 275.436 103.674 274.695 103.674ZM288.493 103.674C287.452 103.674 286.508 103.418 285.662 102.908C284.816 102.397 284.144 101.699 283.647 100.808C283.163 99.9043 282.922 98.8851 282.922 97.7478C282.922 96.6106 283.163 95.5967 283.647 94.7076C284.144 93.8037 284.816 93.097 285.662 92.586C286.508 92.0764 287.452 91.8216 288.493 91.8216C289.309 91.8216 290.041 91.9959 290.691 92.346C291.34 92.696 291.832 93.1265 292.164 93.6361H292.276L292.164 92.0616V87.6669H294.654V103.324H292.276V101.88H292.164C291.832 102.376 291.34 102.798 290.691 103.148C290.041 103.498 289.309 103.674 288.493 103.674ZM288.856 101.465C289.46 101.465 290.019 101.311 290.533 101.005C291.061 100.7 291.484 100.262 291.801 99.6938C292.118 99.1252 292.276 98.476 292.276 97.7478C292.276 97.0183 292.118 96.3772 291.801 95.8234C291.484 95.2548 291.061 94.8176 290.533 94.5105C290.019 94.2047 289.46 94.0518 288.856 94.0518C288.252 94.0518 287.686 94.2047 287.157 94.5105C286.629 94.8176 286.206 95.2548 285.889 95.8234C285.572 96.3772 285.414 97.0183 285.414 97.7478C285.414 98.476 285.572 99.1252 285.889 99.6938C286.206 100.262 286.629 100.7 287.157 101.005C287.686 101.311 288.252 101.465 288.856 101.465ZM302.725 103.674C301.593 103.674 300.574 103.418 299.668 102.908C298.776 102.397 298.074 101.699 297.56 100.808C297.062 99.9043 296.813 98.8918 296.813 97.7693C296.813 96.7045 297.055 95.7215 297.538 94.8176C298.037 93.8989 298.723 93.1694 299.6 92.6303C300.475 92.0912 301.472 91.8216 302.589 91.8216C303.752 91.8216 304.756 92.0684 305.602 92.5646C306.462 93.0608 307.112 93.738 307.55 94.599C308.003 95.4586 308.229 96.4282 308.229 97.5064C308.229 97.7103 308.207 97.9665 308.161 98.2722H299.305C299.396 99.3075 299.773 100.11 300.437 100.678C301.117 101.232 301.902 101.508 302.793 101.508C303.503 101.508 304.114 101.355 304.628 101.05C305.156 100.729 305.579 100.299 305.897 99.7595L308.003 100.721C307.46 101.64 306.75 102.361 305.873 102.887C304.998 103.411 303.948 103.674 302.725 103.674ZM305.692 96.4349C305.662 96.042 305.534 95.6558 305.308 95.2762C305.081 94.8833 304.734 94.5547 304.266 94.2919C303.813 94.0304 303.253 93.8989 302.589 93.8989C301.789 93.8989 301.11 94.1323 300.551 94.599C300.007 95.0509 299.629 95.6625 299.418 96.4349H305.692ZM310.499 92.1716H312.877V93.6361H312.99C313.322 93.1117 313.813 92.6812 314.462 92.346C315.128 91.9959 315.829 91.8216 316.57 91.8216C317.974 91.8216 319.038 92.2226 319.763 93.0232C320.502 93.8118 320.873 94.89 320.873 96.2606V103.324H318.381V96.5878C318.381 95.7134 318.155 95.0724 317.702 94.6634C317.264 94.2557 316.651 94.0518 315.867 94.0518C315.308 94.0518 314.809 94.2047 314.372 94.5105C313.934 94.8029 313.594 95.1958 313.352 95.692C313.111 96.1868 312.99 96.7192 312.99 97.2879V103.324H310.499V92.1716ZM327.841 103.498C327.328 103.498 326.845 103.418 326.392 103.258C325.939 103.097 325.568 102.887 325.282 102.624C324.632 101.996 324.307 101.143 324.307 100.065V94.2919H322.291V92.1716H324.307V89.0214H326.799V92.1716H329.608V94.2919H326.799V99.5409C326.799 100.138 326.92 100.561 327.162 100.808C327.388 101.101 327.781 101.247 328.34 101.247C328.597 101.247 328.823 101.217 329.019 101.158C329.215 101.086 329.427 100.976 329.654 100.831V103.17C329.155 103.39 328.551 103.498 327.841 103.498ZM344.908 103.674C343.337 103.674 341.903 103.316 340.605 102.603C339.306 101.888 338.286 100.903 337.546 99.6495C336.807 98.3956 336.436 97.0116 336.436 95.4948C336.436 93.9794 336.807 92.5941 337.546 91.3401C338.286 90.0862 339.306 89.1019 340.605 88.3884C341.903 87.6736 343.337 87.3169 344.908 87.3169C346.131 87.3169 347.241 87.5355 348.238 87.9727C349.249 88.4099 350.141 89.0442 350.911 89.8744L349.099 91.5587C348.539 90.9177 347.921 90.443 347.24 90.1372C346.561 89.8167 345.783 89.6557 344.908 89.6557C343.82 89.6557 342.824 89.8972 341.919 90.3773C341.027 90.8587 340.317 91.544 339.789 92.4331C339.26 93.3075 338.996 94.3281 338.996 95.4948C338.996 96.6616 339.26 97.6889 339.789 98.578C340.317 99.4524 341.027 100.131 341.919 100.612C342.824 101.093 343.82 101.334 344.908 101.334C346.72 101.334 348.26 100.604 349.528 99.1466L351.363 100.852C350.579 101.742 349.634 102.435 348.532 102.93C347.429 103.426 346.222 103.674 344.908 103.674ZM353.567 87.6669H356.059V103.324H353.567V87.6669ZM363.2 103.674C361.796 103.674 360.724 103.273 359.983 102.471C359.258 101.654 358.897 100.524 358.897 99.0809V92.1716H361.388V98.7536C361.388 99.6575 361.607 100.335 362.045 100.787C362.498 101.239 363.086 101.465 363.812 101.465C364.401 101.465 364.922 101.319 365.374 101.028C365.827 100.721 366.175 100.32 366.416 99.8252C366.658 99.329 366.779 98.7966 366.779 98.2279V92.1716H369.271V103.324H366.915V101.88H366.779C366.462 102.405 365.97 102.835 365.306 103.17C364.642 103.506 363.939 103.674 363.2 103.674ZM378.332 103.674C377.517 103.674 376.784 103.498 376.135 103.148C375.485 102.798 374.994 102.376 374.662 101.88H374.55V103.324H372.17V87.6669H374.662V92.0616L374.55 93.6361H374.662C374.994 93.1265 375.485 92.696 376.135 92.346C376.784 91.9959 377.517 91.8216 378.332 91.8216C379.374 91.8216 380.318 92.0764 381.164 92.586C382.009 93.097 382.673 93.8037 383.157 94.7076C383.656 95.5967 383.904 96.6106 383.904 97.7478C383.904 98.8851 383.656 99.9043 383.157 100.808C382.673 101.699 382.009 102.397 381.164 102.908C380.318 103.418 379.374 103.674 378.332 103.674ZM377.97 101.465C378.574 101.465 379.139 101.311 379.669 101.005C380.197 100.7 380.62 100.262 380.937 99.6938C381.254 99.1252 381.412 98.476 381.412 97.7478C381.412 97.0183 381.254 96.3772 380.937 95.8234C380.62 95.2548 380.197 94.8176 379.669 94.5105C379.139 94.2047 378.574 94.0518 377.97 94.0518C377.366 94.0518 376.799 94.2047 376.271 94.5105C375.757 94.8176 375.342 95.2548 375.025 95.8234C374.708 96.3772 374.55 97.0183 374.55 97.7478C374.55 98.476 374.708 99.1252 375.025 99.6938C375.342 100.262 375.757 100.7 376.271 101.005C376.799 101.311 377.366 101.465 377.97 101.465ZM390.275 103.674C388.947 103.674 387.859 103.396 387.013 102.843C386.169 102.274 385.571 101.553 385.224 100.678L387.444 99.7367C387.716 100.32 388.094 100.765 388.577 101.071C389.075 101.377 389.641 101.531 390.275 101.531C390.894 101.531 391.415 101.428 391.839 101.224C392.261 101.005 392.473 100.685 392.473 100.262C392.473 99.8533 392.292 99.5328 391.929 99.2995C391.567 99.0661 391.008 98.8623 390.253 98.688L388.87 98.3594C387.949 98.1408 387.187 97.7546 386.584 97.2007C385.98 96.6468 385.677 95.9468 385.677 95.1019C385.677 94.4448 385.874 93.8694 386.266 93.3732C386.674 92.8784 387.217 92.4988 387.897 92.236C388.577 91.9597 389.316 91.8216 390.116 91.8216C391.189 91.8216 392.134 92.0322 392.949 92.4559C393.764 92.8636 394.353 93.4618 394.715 94.249L392.541 95.1663C392.103 94.3066 391.303 93.8761 390.14 93.8761C389.58 93.8761 389.112 93.9861 388.736 94.2047C388.358 94.4233 388.169 94.7076 388.169 95.0576C388.169 95.3929 388.312 95.6705 388.6 95.8891C388.886 96.093 389.309 96.2673 389.868 96.4135L391.567 96.8292C392.699 97.1055 393.552 97.5293 394.126 98.0965C394.715 98.6517 395.009 99.3371 395.009 100.152C395.009 100.852 394.798 101.472 394.376 102.011C393.967 102.537 393.402 102.945 392.677 103.236C391.952 103.528 391.151 103.674 390.275 103.674Z" />
    <path
        d="M231.692 53.1798L250.33 42.7914C252.927 41.3436 256.249 42.2028 257.749 44.7105C259.248 47.2182 258.358 50.4248 255.761 51.8726L237.123 62.2609C234.525 63.7087 231.204 62.8495 229.704 60.3419C228.204 57.8342 229.094 54.6276 231.692 53.1798Z"
        fill="#FBBC04" />
    <path
        d="M218.457 41.4277L199.819 51.816C197.221 53.2638 193.899 52.4046 192.4 49.8969C190.9 47.3892 191.79 44.1827 194.388 42.7348L213.026 32.3465C215.623 30.8987 218.945 31.7579 220.444 34.2656C221.944 36.7733 221.054 39.9798 218.457 41.4277Z"
        fill="#EA4335" />
    <path
        d="M217.999 53.1783L199.361 42.79C196.763 41.3422 193.441 42.2014 191.942 44.7091C190.442 47.2167 191.332 50.4233 193.93 51.8711L212.568 62.2595C215.165 63.7073 218.487 62.8481 219.986 60.3404C221.486 57.8327 220.596 54.6261 217.999 53.1783Z"
        fill="#4285F4" />
    <path
        d="M231.375 41.2513L250.646 51.9924C253.069 53.3428 256.167 52.5414 257.566 50.2024L257.931 49.5914C259.33 47.2524 258.5 44.2616 256.077 42.9112L236.806 32.1701C234.384 30.8197 231.286 31.6211 229.887 33.9601L229.521 34.5711C228.123 36.91 228.953 39.9009 231.375 41.2513Z"
        fill="#0F9D58" />
    <path
        d="M55.3682 120.943H56.9351L59.8856 129.295L60.2858 130.438H60.3524L60.7692 129.295L63.8531 120.943H65.42L61.0526 132.466H59.5856L55.3682 120.943ZM67.1926 122.745C66.9147 122.745 66.6758 122.649 66.4758 122.456C66.2758 122.263 66.1757 122.032 66.1757 121.764C66.1757 121.496 66.2758 121.27 66.4758 121.088C66.6758 120.895 66.9147 120.798 67.1926 120.798C67.4704 120.798 67.7093 120.895 67.9094 121.088C68.1094 121.27 68.2094 121.496 68.2094 121.764C68.2094 122.032 68.1094 122.263 67.9094 122.456C67.7204 122.649 67.4815 122.745 67.1926 122.745ZM66.4924 124.258H67.8927V132.466H66.4924V124.258ZM73.0867 132.723C72.1755 132.723 71.4142 132.519 70.803 132.112C70.1917 131.693 69.7583 131.162 69.5027 130.518L70.7696 129.971C70.9808 130.465 71.292 130.846 71.7031 131.114C72.1255 131.382 72.5867 131.516 73.0867 131.516C73.6202 131.516 74.0758 131.414 74.4536 131.21C74.8315 130.996 75.0204 130.695 75.0204 130.309C75.0204 129.966 74.8704 129.692 74.5703 129.488C74.2703 129.274 73.798 129.091 73.1534 128.941L72.1199 128.684C71.442 128.523 70.8863 128.249 70.4529 127.863C70.0195 127.477 69.8028 126.978 69.8028 126.366C69.8028 125.894 69.9473 125.481 70.2362 125.127C70.5363 124.762 70.9308 124.484 71.4198 124.29C71.9087 124.097 72.4366 124.001 73.0034 124.001C73.748 124.001 74.4092 124.156 74.9871 124.467C75.5761 124.779 75.9928 125.213 76.2373 125.771L75.0038 126.318C74.6259 125.589 73.9535 125.224 72.9867 125.224C72.5199 125.224 72.1088 125.331 71.7531 125.546C71.4086 125.75 71.2364 126.012 71.2364 126.334C71.2364 126.635 71.3587 126.881 71.6031 127.074C71.8476 127.257 72.2144 127.407 72.7033 127.525L73.9369 127.831C74.7704 128.035 75.3983 128.34 75.8206 128.748C76.2429 129.145 76.454 129.633 76.454 130.213C76.454 130.717 76.304 131.162 76.004 131.548C75.7039 131.924 75.2983 132.214 74.7871 132.417C74.2759 132.621 73.7091 132.723 73.0867 132.723ZM77.0652 124.258H78.5822L81.216 130.856H81.2494L83.9165 124.258H85.4001L81.9328 132.466H80.4992L77.0652 124.258ZM90.101 132.723C89.2897 132.723 88.5618 132.535 87.9173 132.16C87.2727 131.784 86.767 131.269 86.4003 130.615C86.0447 129.95 85.8669 129.204 85.8669 128.378C85.8669 127.584 86.0336 126.855 86.367 126.189C86.7115 125.524 87.1949 124.993 87.8173 124.596C88.4396 124.199 89.162 124.001 89.9843 124.001C90.8178 124.001 91.5402 124.183 92.1514 124.548C92.7626 124.902 93.2294 125.395 93.5517 126.028C93.8851 126.661 94.0517 127.386 94.0517 128.201C94.0517 128.362 94.0351 128.501 94.0017 128.619H87.2838C87.3172 129.242 87.4728 129.767 87.7506 130.197C88.0284 130.626 88.3785 130.948 88.8008 131.162C89.2342 131.377 89.6843 131.484 90.151 131.484C91.2401 131.484 92.0791 130.99 92.6681 130.003L93.8684 130.567C93.5016 131.232 93.0016 131.758 92.3681 132.144C91.7458 132.53 90.9901 132.723 90.101 132.723ZM92.5515 127.493C92.5292 127.15 92.4292 126.806 92.2514 126.463C92.0736 126.12 91.7902 125.83 91.4012 125.594C91.0234 125.358 90.5455 125.24 89.9676 125.24C89.3008 125.24 88.7341 125.449 88.2673 125.868C87.8117 126.275 87.5116 126.817 87.3672 127.493H92.5515ZM98.7582 132.723C97.8469 132.723 97.0857 132.519 96.4744 132.112C95.8632 131.693 95.4298 131.162 95.1742 130.518L96.4411 129.971C96.6522 130.465 96.9634 130.846 97.3746 131.114C97.7969 131.382 98.2581 131.516 98.7582 131.516C99.2916 131.516 99.7472 131.414 100.125 131.21C100.503 130.996 100.692 130.695 100.692 130.309C100.692 129.966 100.542 129.692 100.242 129.488C99.9417 129.274 99.4694 129.091 98.8248 128.941L97.7913 128.684C97.1134 128.523 96.5578 128.249 96.1243 127.863C95.6909 127.477 95.4742 126.978 95.4742 126.366C95.4742 125.894 95.6187 125.481 95.9076 125.127C96.2077 124.762 96.6022 124.484 97.0912 124.29C97.5802 124.097 98.108 124.001 98.6748 124.001C99.4194 124.001 100.081 124.156 100.659 124.467C101.248 124.779 101.664 125.213 101.909 125.771L100.675 126.318C100.297 125.589 99.625 125.224 98.6582 125.224C98.1914 125.224 97.7802 125.331 97.4246 125.546C97.0801 125.75 96.9078 126.012 96.9078 126.334C96.9078 126.635 97.0301 126.881 97.2746 127.074C97.5191 127.257 97.8858 127.407 98.3748 127.525L99.6083 127.831C100.442 128.035 101.07 128.34 101.492 128.748C101.914 129.145 102.125 129.633 102.125 130.213C102.125 130.717 101.975 131.162 101.675 131.548C101.375 131.924 100.97 132.214 100.458 132.417C99.9473 132.621 99.3805 132.723 98.7582 132.723ZM102.737 124.258H104.254L106.887 130.856H106.921L109.588 124.258H111.072L107.604 132.466H106.171L102.737 124.258ZM114.788 132.723C114.165 132.723 113.61 132.605 113.121 132.369C112.632 132.133 112.254 131.811 111.987 131.404C111.72 130.985 111.587 130.513 111.587 129.987C111.587 129.118 111.926 128.442 112.604 127.96C113.282 127.466 114.137 127.219 115.171 127.219C115.682 127.219 116.154 127.273 116.588 127.38C117.032 127.488 117.371 127.611 117.605 127.75V127.251C117.605 126.64 117.382 126.152 116.938 125.787C116.493 125.412 115.932 125.224 115.254 125.224C114.776 125.224 114.337 125.326 113.937 125.53C113.537 125.723 113.221 125.996 112.987 126.35L111.92 125.578C112.254 125.084 112.709 124.698 113.287 124.419C113.876 124.14 114.526 124.001 115.238 124.001C116.393 124.001 117.299 124.296 117.955 124.886C118.622 125.465 118.955 126.259 118.955 127.268V132.466H117.605V131.291H117.538C117.294 131.688 116.927 132.026 116.438 132.305C115.949 132.584 115.399 132.723 114.788 132.723ZM114.921 131.516C115.399 131.516 115.843 131.398 116.254 131.162C116.666 130.926 116.994 130.61 117.238 130.213C117.482 129.816 117.605 129.381 117.605 128.909C117.338 128.737 117.01 128.598 116.621 128.491C116.232 128.383 115.821 128.33 115.388 128.33C114.61 128.33 114.021 128.485 113.621 128.796C113.232 129.108 113.037 129.51 113.037 130.003C113.037 130.454 113.215 130.819 113.571 131.098C113.926 131.377 114.376 131.516 114.921 131.516ZM120.926 124.258H122.276V125.578H122.343C122.51 125.127 122.832 124.757 123.31 124.467C123.788 124.167 124.288 124.017 124.81 124.017C125.199 124.017 125.533 124.07 125.81 124.178V125.658C125.455 125.487 125.055 125.401 124.61 125.401C124.199 125.401 123.821 125.513 123.477 125.739C123.132 125.964 122.854 126.27 122.643 126.656C122.443 127.032 122.343 127.439 122.343 127.879V132.466H120.926V124.258ZM129.569 132.723C128.947 132.723 128.391 132.605 127.902 132.369C127.414 132.133 127.036 131.811 126.769 131.404C126.502 130.985 126.369 130.513 126.369 129.987C126.369 129.118 126.708 128.442 127.386 127.96C128.064 127.466 128.919 127.219 129.953 127.219C130.464 127.219 130.936 127.273 131.37 127.38C131.814 127.488 132.153 127.611 132.387 127.75V127.251C132.387 126.64 132.164 126.152 131.72 125.787C131.275 125.412 130.714 125.224 130.036 125.224C129.558 125.224 129.119 125.326 128.719 125.53C128.319 125.723 128.002 125.996 127.769 126.35L126.702 125.578C127.036 125.084 127.491 124.698 128.069 124.419C128.658 124.14 129.308 124.001 130.02 124.001C131.175 124.001 132.081 124.296 132.737 124.886C133.404 125.465 133.737 126.259 133.737 127.268V132.466H132.387V131.291H132.32C132.075 131.688 131.709 132.026 131.22 132.305C130.731 132.584 130.181 132.723 129.569 132.723ZM129.703 131.516C130.181 131.516 130.625 131.398 131.036 131.162C131.448 130.926 131.775 130.61 132.02 130.213C132.264 129.816 132.387 129.381 132.387 128.909C132.12 128.737 131.792 128.598 131.403 128.491C131.014 128.383 130.603 128.33 130.17 128.33C129.392 128.33 128.803 128.485 128.403 128.796C128.014 129.108 127.819 129.51 127.819 130.003C127.819 130.454 127.997 130.819 128.353 131.098C128.708 131.377 129.158 131.516 129.703 131.516ZM138.145 131.951L134.627 124.258H136.161L138.828 130.357H138.861L141.429 124.258H142.962L137.711 135.942H136.244L138.145 131.951ZM146.434 132.723C145.811 132.723 145.256 132.605 144.767 132.369C144.278 132.133 143.9 131.811 143.633 131.404C143.366 130.985 143.233 130.513 143.233 129.987C143.233 129.118 143.572 128.442 144.25 127.96C144.928 127.466 145.784 127.219 146.817 127.219C147.328 127.219 147.801 127.273 148.234 127.38C148.679 127.488 149.018 127.611 149.251 127.75V127.251C149.251 126.64 149.029 126.152 148.584 125.787C148.14 125.412 147.578 125.224 146.9 125.224C146.423 125.224 145.984 125.326 145.584 125.53C145.183 125.723 144.867 125.996 144.633 126.35L143.567 125.578C143.9 125.084 144.356 124.698 144.933 124.419C145.522 124.14 146.173 124.001 146.884 124.001C148.04 124.001 148.945 124.296 149.601 124.886C150.268 125.465 150.601 126.259 150.601 127.268V132.466H149.251V131.291H149.184C148.94 131.688 148.573 132.026 148.084 132.305C147.595 132.584 147.045 132.723 146.434 132.723ZM146.567 131.516C147.045 131.516 147.489 131.398 147.901 131.162C148.312 130.926 148.64 130.61 148.884 130.213C149.129 129.816 149.251 129.381 149.251 128.909C148.984 128.737 148.656 128.598 148.267 128.491C147.878 128.383 147.467 128.33 147.034 128.33C146.256 128.33 145.667 128.485 145.267 128.796C144.878 129.108 144.683 129.51 144.683 130.003C144.683 130.454 144.861 130.819 145.217 131.098C145.572 131.377 146.023 131.516 146.567 131.516ZM156.73 120.943H158.464L164.448 130.116H164.515L164.448 127.895V120.943H165.865V132.466H164.398L158.13 122.858H158.064L158.13 125.079V132.466H156.73V120.943ZM170.723 132.723C170.101 132.723 169.545 132.605 169.056 132.369C168.567 132.133 168.189 131.811 167.922 131.404C167.656 130.985 167.522 130.513 167.522 129.987C167.522 129.118 167.861 128.442 168.539 127.96C169.217 127.466 170.073 127.219 171.106 127.219C171.618 127.219 172.09 127.273 172.523 127.38C172.968 127.488 173.307 127.611 173.54 127.75V127.251C173.54 126.64 173.318 126.152 172.873 125.787C172.429 125.412 171.868 125.224 171.19 125.224C170.712 125.224 170.273 125.326 169.873 125.53C169.473 125.723 169.156 125.996 168.923 126.35L167.856 125.578C168.189 125.084 168.645 124.698 169.223 124.419C169.812 124.14 170.462 124.001 171.173 124.001C172.329 124.001 173.235 124.296 173.89 124.886C174.557 125.465 174.89 126.259 174.89 127.268V132.466H173.54V131.291H173.473C173.229 131.688 172.862 132.026 172.373 132.305C171.884 132.584 171.334 132.723 170.723 132.723ZM170.856 131.516C171.334 131.516 171.779 131.398 172.19 131.162C172.601 130.926 172.929 130.61 173.173 130.213C173.418 129.816 173.54 129.381 173.54 128.909C173.273 128.737 172.946 128.598 172.557 128.491C172.168 128.383 171.756 128.33 171.323 128.33C170.545 128.33 169.956 128.485 169.556 128.796C169.167 129.108 168.973 129.51 168.973 130.003C168.973 130.454 169.15 130.819 169.506 131.098C169.862 131.377 170.312 131.516 170.856 131.516ZM179.965 132.594C179.62 132.594 179.298 132.541 178.998 132.433C178.709 132.326 178.465 132.181 178.265 131.999C178.042 131.795 177.876 131.559 177.765 131.291C177.653 131.023 177.598 130.695 177.598 130.309V125.497H176.114V124.258H177.598V121.941H179.015V124.258H181.082V125.497H179.015V129.971C179.015 130.422 179.104 130.754 179.281 130.969C179.493 131.205 179.798 131.323 180.198 131.323C180.521 131.323 180.832 131.232 181.132 131.049V132.385C180.965 132.46 180.793 132.514 180.615 132.546C180.448 132.578 180.232 132.594 179.965 132.594ZM183.718 122.745C183.441 122.745 183.202 122.649 183.002 122.456C182.802 122.263 182.702 122.032 182.702 121.764C182.702 121.496 182.802 121.27 183.002 121.088C183.202 120.895 183.441 120.798 183.718 120.798C183.996 120.798 184.235 120.895 184.435 121.088C184.635 121.27 184.735 121.496 184.735 121.764C184.735 122.032 184.635 122.263 184.435 122.456C184.246 122.649 184.007 122.745 183.718 122.745ZM183.018 124.258H184.419V132.466H183.018V124.258ZM190.481 132.723C189.647 132.723 188.897 132.53 188.23 132.144C187.564 131.758 187.041 131.232 186.663 130.567C186.297 129.902 186.113 129.167 186.113 128.362C186.113 127.557 186.297 126.822 186.663 126.157C187.041 125.492 187.564 124.966 188.23 124.58C188.897 124.194 189.647 124.001 190.481 124.001C191.314 124.001 192.064 124.194 192.731 124.58C193.398 124.966 193.915 125.492 194.281 126.157C194.659 126.822 194.848 127.557 194.848 128.362C194.848 129.167 194.659 129.902 194.281 130.567C193.915 131.232 193.398 131.758 192.731 132.144C192.064 132.53 191.314 132.723 190.481 132.723ZM190.481 131.484C191.003 131.484 191.487 131.361 191.931 131.114C192.387 130.856 192.748 130.492 193.015 130.02C193.292 129.547 193.431 128.995 193.431 128.362C193.431 127.729 193.292 127.176 193.015 126.704C192.748 126.232 192.387 125.873 191.931 125.626C191.487 125.369 191.003 125.24 190.481 125.24C189.958 125.24 189.469 125.369 189.014 125.626C188.558 125.873 188.191 126.232 187.914 126.704C187.647 127.176 187.514 127.729 187.514 128.362C187.514 128.995 187.647 129.547 187.914 130.02C188.191 130.492 188.558 130.856 189.014 131.114C189.469 131.361 189.958 131.484 190.481 131.484ZM196.33 124.258H197.681V125.465H197.747C197.981 125.058 198.353 124.714 198.864 124.435C199.376 124.146 199.92 124.001 200.498 124.001C201.52 124.001 202.298 124.29 202.832 124.87C203.376 125.438 203.649 126.216 203.649 127.203V132.466H202.232V127.412C202.232 126.651 202.043 126.098 201.665 125.755C201.287 125.412 200.77 125.24 200.115 125.24C199.659 125.24 199.248 125.363 198.881 125.61C198.525 125.857 198.248 126.184 198.047 126.592C197.847 126.989 197.747 127.407 197.747 127.847V132.466H196.33V124.258ZM208.31 132.723C207.688 132.723 207.133 132.605 206.644 132.369C206.155 132.133 205.777 131.811 205.51 131.404C205.243 130.985 205.11 130.513 205.11 129.987C205.11 129.118 205.449 128.442 206.127 127.96C206.805 127.466 207.66 127.219 208.694 127.219C209.205 127.219 209.677 127.273 210.111 127.38C210.555 127.488 210.894 127.611 211.128 127.75V127.251C211.128 126.64 210.905 126.152 210.461 125.787C210.016 125.412 209.455 125.224 208.777 125.224C208.299 125.224 207.86 125.326 207.46 125.53C207.06 125.723 206.744 125.996 206.51 126.35L205.443 125.578C205.777 125.084 206.232 124.698 206.81 124.419C207.399 124.14 208.049 124.001 208.761 124.001C209.916 124.001 210.822 124.296 211.478 124.886C212.145 125.465 212.478 126.259 212.478 127.268V132.466H211.128V131.291H211.061C210.817 131.688 210.45 132.026 209.961 132.305C209.472 132.584 208.922 132.723 208.31 132.723ZM208.444 131.516C208.922 131.516 209.366 131.398 209.777 131.162C210.189 130.926 210.516 130.61 210.761 130.213C211.005 129.816 211.128 129.381 211.128 128.909C210.861 128.737 210.533 128.598 210.144 128.491C209.755 128.383 209.344 128.33 208.911 128.33C208.133 128.33 207.544 128.485 207.144 128.796C206.755 129.108 206.56 129.51 206.56 130.003C206.56 130.454 206.738 130.819 207.094 131.098C207.449 131.377 207.899 131.516 208.444 131.516ZM214.449 120.943H215.866V132.466H214.449V120.943ZM222.124 120.943H223.524V132.466H222.124V120.943ZM225.91 124.258H227.26V125.465H227.327C227.56 125.058 227.932 124.714 228.443 124.435C228.955 124.146 229.499 124.001 230.077 124.001C231.099 124.001 231.877 124.29 232.411 124.87C232.955 125.438 233.228 126.216 233.228 127.203V132.466H231.811V127.412C231.811 126.651 231.622 126.098 231.244 125.755C230.866 125.412 230.349 125.24 229.694 125.24C229.238 125.24 228.827 125.363 228.46 125.61C228.104 125.857 227.827 126.184 227.627 126.592C227.427 126.989 227.327 127.407 227.327 127.847V132.466H225.91V124.258ZM238.14 132.723C237.228 132.723 236.467 132.519 235.856 132.112C235.245 131.693 234.811 131.162 234.556 130.518L235.823 129.971C236.034 130.465 236.345 130.846 236.756 131.114C237.178 131.382 237.64 131.516 238.14 131.516C238.673 131.516 239.129 131.414 239.507 131.21C239.884 130.996 240.073 130.695 240.073 130.309C240.073 129.966 239.923 129.692 239.623 129.488C239.323 129.274 238.851 129.091 238.206 128.941L237.173 128.684C236.495 128.523 235.939 128.249 235.506 127.863C235.072 127.477 234.856 126.978 234.856 126.366C234.856 125.894 235 125.481 235.289 125.127C235.589 124.762 235.984 124.484 236.473 124.29C236.962 124.097 237.49 124.001 238.056 124.001C238.801 124.001 239.462 124.156 240.04 124.467C240.629 124.779 241.046 125.213 241.29 125.771L240.057 126.318C239.679 125.589 239.006 125.224 238.04 125.224C237.573 125.224 237.162 125.331 236.806 125.546C236.462 125.75 236.289 126.012 236.289 126.334C236.289 126.635 236.412 126.881 236.656 127.074C236.901 127.257 237.267 127.407 237.756 127.525L238.99 127.831C239.823 128.035 240.451 128.34 240.874 128.748C241.296 129.145 241.507 129.633 241.507 130.213C241.507 130.717 241.357 131.162 241.057 131.548C240.757 131.924 240.351 132.214 239.84 132.417C239.329 132.621 238.762 132.723 238.14 132.723ZM246.237 132.594C245.892 132.594 245.57 132.541 245.27 132.433C244.981 132.326 244.737 132.181 244.537 131.999C244.314 131.795 244.148 131.559 244.037 131.291C243.925 131.023 243.87 130.695 243.87 130.309V125.497H242.386V124.258H243.87V121.941H245.287V124.258H247.354V125.497H245.287V129.971C245.287 130.422 245.376 130.754 245.554 130.969C245.765 131.205 246.07 131.323 246.47 131.323C246.793 131.323 247.104 131.232 247.404 131.049V132.385C247.237 132.46 247.065 132.514 246.887 132.546C246.72 132.578 246.504 132.594 246.237 132.594ZM249.99 122.745C249.713 122.745 249.474 122.649 249.274 122.456C249.074 122.263 248.974 122.032 248.974 121.764C248.974 121.496 249.074 121.27 249.274 121.088C249.474 120.895 249.713 120.798 249.99 120.798C250.268 120.798 250.507 120.895 250.707 121.088C250.907 121.27 251.007 121.496 251.007 121.764C251.007 122.032 250.907 122.263 250.707 122.456C250.518 122.649 250.279 122.745 249.99 122.745ZM249.29 124.258H250.691V132.466H249.29V124.258ZM256.103 132.594C255.758 132.594 255.436 132.541 255.136 132.433C254.847 132.326 254.602 132.181 254.402 131.999C254.18 131.795 254.013 131.559 253.902 131.291C253.791 131.023 253.736 130.695 253.736 130.309V125.497H252.252V124.258H253.736V121.941H255.153V124.258H257.22V125.497H255.153V129.971C255.153 130.422 255.241 130.754 255.419 130.969C255.63 131.205 255.936 131.323 256.336 131.323C256.658 131.323 256.97 131.232 257.27 131.049V132.385C257.103 132.46 256.931 132.514 256.753 132.546C256.586 132.578 256.369 132.594 256.103 132.594ZM262.025 132.723C261.002 132.723 260.219 132.433 259.674 131.854C259.141 131.275 258.874 130.465 258.874 129.424V124.258H260.291V129.215C260.291 129.998 260.474 130.572 260.841 130.937C261.208 131.302 261.702 131.484 262.325 131.484C262.803 131.484 263.225 131.361 263.592 131.114C263.969 130.867 264.258 130.545 264.458 130.148C264.67 129.751 264.775 129.333 264.775 128.893V124.258H266.192V132.466H264.842V131.275H264.775C264.542 131.682 264.17 132.026 263.658 132.305C263.147 132.584 262.603 132.723 262.025 132.723ZM271.633 132.594C271.289 132.594 270.967 132.541 270.667 132.433C270.378 132.326 270.133 132.181 269.933 131.999C269.711 131.795 269.544 131.559 269.433 131.291C269.322 131.023 269.266 130.695 269.266 130.309V125.497H267.783V124.258H269.266V121.941H270.683V124.258H272.75V125.497H270.683V129.971C270.683 130.422 270.772 130.754 270.95 130.969C271.161 131.205 271.467 131.323 271.867 131.323C272.189 131.323 272.5 131.232 272.8 131.049V132.385C272.634 132.46 272.461 132.514 272.284 132.546C272.117 132.578 271.9 132.594 271.633 132.594ZM277.88 132.723C277.069 132.723 276.341 132.535 275.697 132.16C275.052 131.784 274.546 131.269 274.18 130.615C273.824 129.95 273.646 129.204 273.646 128.378C273.646 127.584 273.813 126.855 274.146 126.189C274.491 125.524 274.974 124.993 275.597 124.596C276.219 124.199 276.941 124.001 277.764 124.001C278.597 124.001 279.32 124.183 279.931 124.548C280.542 124.902 281.009 125.395 281.331 126.028C281.664 126.661 281.831 127.386 281.831 128.201C281.831 128.362 281.814 128.501 281.781 128.619H275.063C275.096 129.242 275.252 129.767 275.53 130.197C275.808 130.626 276.158 130.948 276.58 131.162C277.014 131.377 277.464 131.484 277.93 131.484C279.019 131.484 279.859 130.99 280.448 130.003L281.648 130.567C281.281 131.232 280.781 131.758 280.147 132.144C279.525 132.53 278.769 132.723 277.88 132.723ZM280.331 127.493C280.309 127.15 280.209 126.806 280.031 126.463C279.853 126.12 279.57 125.83 279.181 125.594C278.803 125.358 278.325 125.24 277.747 125.24C277.08 125.24 276.513 125.449 276.047 125.868C275.591 126.275 275.291 126.817 275.146 127.493H280.331ZM292.855 132.723C291.711 132.723 290.672 132.455 289.738 131.918C288.805 131.382 288.071 130.658 287.538 129.746C287.004 128.823 286.738 127.809 286.738 126.704C286.738 125.61 287.004 124.602 287.538 123.679C288.071 122.756 288.805 122.027 289.738 121.49C290.672 120.954 291.711 120.686 292.855 120.686C294 120.686 295.039 120.954 295.973 121.49C296.906 122.027 297.64 122.756 298.173 123.679C298.718 124.602 298.99 125.61 298.99 126.704C298.99 127.809 298.723 128.823 298.19 129.746C297.656 130.658 296.917 131.382 295.973 131.918C295.039 132.455 294 132.723 292.855 132.723ZM292.855 131.42C293.711 131.42 294.495 131.221 295.206 130.824C295.928 130.416 296.495 129.859 296.906 129.15C297.328 128.432 297.54 127.616 297.54 126.704C297.54 125.792 297.328 124.982 296.906 124.274C296.495 123.556 295.928 122.998 295.206 122.601C294.495 122.193 293.711 121.989 292.855 121.989C292 121.989 291.216 122.193 290.505 122.601C289.794 122.998 289.227 123.556 288.805 124.274C288.382 124.993 288.171 125.803 288.171 126.704C288.171 127.606 288.382 128.416 288.805 129.134C289.227 129.853 289.794 130.416 290.505 130.824C291.216 131.221 292 131.42 292.855 131.42ZM301.777 125.497H300.21V124.258H301.777V123.373C301.777 122.858 301.899 122.408 302.143 122.021C302.388 121.635 302.716 121.34 303.127 121.136C303.538 120.922 303.994 120.814 304.494 120.814C304.972 120.814 305.388 120.879 305.744 121.007V122.343C305.544 122.268 305.355 122.209 305.177 122.166C304.999 122.112 304.788 122.086 304.544 122.086C304.177 122.086 303.86 122.214 303.593 122.472C303.327 122.719 303.193 123.067 303.193 123.518V124.258H305.377V125.497H303.193V132.466H301.777V125.497ZM313.051 122.247H309.7V120.943H317.802V122.247H314.468V132.466H313.051V122.247ZM321.752 132.723C320.941 132.723 320.213 132.535 319.569 132.16C318.924 131.784 318.419 131.269 318.052 130.615C317.696 129.95 317.518 129.204 317.518 128.378C317.518 127.584 317.685 126.855 318.018 126.189C318.363 125.524 318.846 124.993 319.469 124.596C320.091 124.199 320.813 124.001 321.636 124.001C322.469 124.001 323.192 124.183 323.803 124.548C324.414 124.902 324.881 125.395 325.203 126.028C325.536 126.661 325.703 127.386 325.703 128.201C325.703 128.362 325.686 128.501 325.653 128.619H318.935C318.969 129.242 319.124 129.767 319.402 130.197C319.68 130.626 320.03 130.948 320.452 131.162C320.886 131.377 321.336 131.484 321.802 131.484C322.891 131.484 323.731 130.99 324.32 130.003L325.52 130.567C325.153 131.232 324.653 131.758 324.02 132.144C323.397 132.53 322.642 132.723 321.752 132.723ZM324.203 127.493C324.181 127.15 324.081 126.806 323.903 126.463C323.725 126.12 323.442 125.83 323.053 125.594C322.675 125.358 322.197 125.24 321.619 125.24C320.952 125.24 320.386 125.449 319.919 125.868C319.463 126.275 319.163 126.817 319.019 127.493H324.203ZM331.293 132.723C330.471 132.723 329.732 132.535 329.076 132.16C328.42 131.774 327.909 131.253 327.542 130.599C327.176 129.934 326.992 129.188 326.992 128.362C326.992 127.536 327.176 126.79 327.542 126.125C327.909 125.46 328.42 124.939 329.076 124.564C329.732 124.188 330.471 124.001 331.293 124.001C332.215 124.001 332.988 124.21 333.61 124.628C334.244 125.036 334.694 125.583 334.96 126.27L333.677 126.785C333.466 126.281 333.149 125.9 332.727 125.642C332.315 125.374 331.815 125.24 331.226 125.24C330.726 125.24 330.26 125.374 329.826 125.642C329.393 125.9 329.043 126.264 328.776 126.737C328.52 127.209 328.393 127.75 328.393 128.362C328.393 128.973 328.52 129.515 328.776 129.987C329.043 130.459 329.393 130.83 329.826 131.098C330.26 131.355 330.726 131.484 331.226 131.484C331.827 131.484 332.343 131.35 332.777 131.082C333.21 130.813 333.532 130.433 333.744 129.939L335.01 130.454C334.722 131.13 334.255 131.677 333.61 132.096C332.977 132.514 332.204 132.723 331.293 132.723ZM336.543 120.943H337.96V124.339L337.893 125.465H337.96C338.193 125.047 338.56 124.698 339.06 124.419C339.571 124.14 340.127 124.001 340.727 124.001C341.76 124.001 342.549 124.296 343.094 124.886C343.638 125.465 343.911 126.238 343.911 127.203V132.466H342.494V127.412C342.494 126.672 342.299 126.125 341.91 125.771C341.521 125.417 341.016 125.24 340.393 125.24C339.949 125.24 339.538 125.369 339.16 125.626C338.793 125.884 338.499 126.216 338.276 126.624C338.065 127.032 337.96 127.455 337.96 127.895V132.466H336.543V120.943ZM345.951 124.258H347.302V125.465H347.368C347.602 125.058 347.974 124.714 348.485 124.435C348.996 124.146 349.541 124.001 350.119 124.001C351.141 124.001 351.919 124.29 352.453 124.87C352.997 125.438 353.269 126.216 353.269 127.203V132.466H351.852V127.412C351.852 126.651 351.664 126.098 351.286 125.755C350.908 125.412 350.391 125.24 349.735 125.24C349.28 125.24 348.869 125.363 348.502 125.61C348.146 125.857 347.868 126.184 347.668 126.592C347.468 126.989 347.368 127.407 347.368 127.847V132.466H345.951V124.258ZM359.214 132.723C358.38 132.723 357.63 132.53 356.963 132.144C356.296 131.758 355.774 131.232 355.396 130.567C355.029 129.902 354.846 129.167 354.846 128.362C354.846 127.557 355.029 126.822 355.396 126.157C355.774 125.492 356.296 124.966 356.963 124.58C357.63 124.194 358.38 124.001 359.214 124.001C360.047 124.001 360.797 124.194 361.464 124.58C362.131 124.966 362.648 125.492 363.014 126.157C363.392 126.822 363.581 127.557 363.581 128.362C363.581 129.167 363.392 129.902 363.014 130.567C362.648 131.232 362.131 131.758 361.464 132.144C360.797 132.53 360.047 132.723 359.214 132.723ZM359.214 131.484C359.736 131.484 360.219 131.361 360.664 131.114C361.119 130.856 361.481 130.492 361.747 130.02C362.025 129.547 362.164 128.995 362.164 128.362C362.164 127.729 362.025 127.176 361.747 126.704C361.481 126.232 361.119 125.873 360.664 125.626C360.219 125.369 359.736 125.24 359.214 125.24C358.691 125.24 358.202 125.369 357.747 125.626C357.291 125.873 356.924 126.232 356.646 126.704C356.38 127.176 356.246 127.729 356.246 128.362C356.246 128.995 356.38 129.547 356.646 130.02C356.924 130.492 357.291 130.856 357.747 131.114C358.202 131.361 358.691 131.484 359.214 131.484ZM365.145 120.943H366.562V132.466H365.145V120.943ZM372.497 132.723C371.663 132.723 370.913 132.53 370.246 132.144C369.579 131.758 369.057 131.232 368.679 130.567C368.313 129.902 368.129 129.167 368.129 128.362C368.129 127.557 368.313 126.822 368.679 126.157C369.057 125.492 369.579 124.966 370.246 124.58C370.913 124.194 371.663 124.001 372.497 124.001C373.33 124.001 374.08 124.194 374.747 124.58C375.414 124.966 375.931 125.492 376.297 126.157C376.675 126.822 376.864 127.557 376.864 128.362C376.864 129.167 376.675 129.902 376.297 130.567C375.931 131.232 375.414 131.758 374.747 132.144C374.08 132.53 373.33 132.723 372.497 132.723ZM372.497 131.484C373.019 131.484 373.502 131.361 373.947 131.114C374.403 130.856 374.764 130.492 375.03 130.02C375.308 129.547 375.447 128.995 375.447 128.362C375.447 127.729 375.308 127.176 375.03 126.704C374.764 126.232 374.403 125.873 373.947 125.626C373.502 125.369 373.019 125.24 372.497 125.24C371.974 125.24 371.485 125.369 371.03 125.626C370.574 125.873 370.207 126.232 369.929 126.704C369.663 127.176 369.529 127.729 369.529 128.362C369.529 128.995 369.663 129.547 369.929 130.02C370.207 130.492 370.574 130.856 371.03 131.114C371.485 131.361 371.974 131.484 372.497 131.484ZM382.244 136.199C381.244 136.199 380.416 135.974 379.76 135.523C379.116 135.073 378.682 134.531 378.46 133.898L379.744 133.367C379.933 133.839 380.244 134.22 380.677 134.509C381.122 134.81 381.644 134.96 382.244 134.96C383.122 134.96 383.8 134.713 384.278 134.22C384.767 133.726 385.011 133.029 385.011 132.128V131.21H384.945C384.667 131.629 384.272 131.972 383.761 132.24C383.261 132.498 382.689 132.627 382.044 132.627C381.311 132.627 380.638 132.444 380.027 132.079C379.427 131.715 378.949 131.205 378.594 130.551C378.238 129.896 378.06 129.151 378.06 128.314C378.06 127.488 378.238 126.747 378.594 126.093C378.949 125.428 379.427 124.913 380.027 124.548C380.638 124.183 381.311 124.001 382.044 124.001C382.689 124.001 383.261 124.135 383.761 124.403C384.272 124.661 384.667 125.004 384.945 125.433H385.011V124.258H386.362V132.144C386.362 133.463 385.984 134.467 385.228 135.153C384.472 135.851 383.478 136.199 382.244 136.199ZM382.244 131.387C382.755 131.387 383.217 131.264 383.628 131.017C384.05 130.771 384.384 130.416 384.628 129.955C384.884 129.494 385.011 128.947 385.011 128.314C385.011 127.67 384.884 127.117 384.628 126.656C384.384 126.195 384.05 125.846 383.628 125.61C383.217 125.363 382.755 125.24 382.244 125.24C381.733 125.24 381.266 125.363 380.844 125.61C380.422 125.857 380.083 126.211 379.827 126.672C379.583 127.134 379.46 127.681 379.46 128.314C379.46 128.947 379.583 129.499 379.827 129.971C380.083 130.433 380.422 130.787 380.844 131.033C381.266 131.269 381.733 131.387 382.244 131.387ZM391.057 131.951L387.54 124.258H389.073L391.74 130.357H391.774L394.341 124.258H395.875L390.624 135.942H389.157L391.057 131.951Z" />
    <defs>
        <linearGradient id="paint0_linear_701_2358" x1="425.199" y1="130.674" x2="8.67679" y2="130.674"
            gradientUnits="userSpaceOnUse">
            <stop stop-color="#348BCA" />
            <stop offset="0.404875" stop-color="#59A43A" />
            <stop offset="0.711571" stop-color="#F3B002" />
            <stop offset="1" stop-color="#DF572E" />
        </linearGradient>
    </defs>
</svg>