<svg width="428" height="167" viewBox="0 0 428 167" fill="none" xmlns="http://www.w3.org/2000/svg">
    <path
        d="M417.144 1.5625H11.5131C6.14266 1.5625 1.78906 5.76547 1.78906 10.9501V155.787C1.78906 160.972 6.14266 165.175 11.5131 165.175H417.144C422.515 165.175 426.868 160.972 426.868 155.787V10.9501C426.868 5.76547 422.515 1.5625 417.144 1.5625Z"
        fill="var(--background-color)" stroke="url(#paint0_linear_701_2365)" stroke-width="2" />
    <path
        d="M50.5339 103.674C48.9919 103.674 47.575 103.316 46.2692 102.603C44.9773 101.888 43.9354 100.911 43.1713 99.6723C42.4073 98.4184 42.0322 97.0263 42.0322 95.4948C42.0322 93.9646 42.4073 92.5793 43.1713 91.3401C43.9354 90.0862 44.9773 89.1019 46.2692 88.3884C47.575 87.6736 48.9919 87.3169 50.5339 87.3169C51.7563 87.3169 52.8954 87.5274 53.9511 87.9499C55.0069 88.3736 55.8959 88.9637 56.6044 89.7215L54.8402 91.4273C54.2984 90.8587 53.6733 90.4215 52.9371 90.1157C52.2008 89.81 51.3951 89.6557 50.5061 89.6557C49.4642 89.6557 48.4918 89.8972 47.5888 90.3773C46.6859 90.8587 45.9497 91.544 45.4079 92.4331C44.8662 93.3223 44.5883 94.3428 44.5883 95.4948C44.5883 96.6468 44.8662 97.6674 45.4079 98.5565C45.9497 99.4457 46.6859 100.131 47.5888 100.612C48.4918 101.093 49.4781 101.334 50.5339 101.334C51.4924 101.334 52.2981 101.196 52.951 100.918C53.6039 100.641 54.1873 100.269 54.7013 99.8024C55.0347 99.4819 55.3125 99.0809 55.5348 98.6008C55.7709 98.1193 55.9377 97.5936 56.0071 97.0263H50.5061V94.8391H58.4103C58.4937 95.2467 58.5214 95.6705 58.5214 96.1077C58.5214 97.0988 58.3686 98.0536 58.0491 98.9723C57.7296 99.8762 57.2296 100.663 56.535 101.334C55.007 102.894 53.0066 103.674 50.5339 103.674ZM66.3562 103.674C65.1893 103.674 64.1475 103.418 63.2306 102.908C62.2999 102.383 61.5915 101.669 61.0776 100.765C60.5636 99.8614 60.2995 98.8556 60.2995 97.7478C60.2995 96.6388 60.5636 95.633 61.0776 94.7291C61.5915 93.8252 62.2999 93.1184 63.2306 92.6088C64.1475 92.0831 65.1893 91.8216 66.3562 91.8216C67.5092 91.8216 68.5511 92.0831 69.4818 92.6088C70.3986 93.1332 71.121 93.848 71.6211 94.7519C72.1351 95.6558 72.399 96.6535 72.399 97.7478C72.399 98.8556 72.1351 99.8614 71.6211 100.765C71.121 101.669 70.3986 102.383 69.4818 102.908C68.5511 103.418 67.5092 103.674 66.3562 103.674ZM66.3562 101.465C66.9813 101.465 67.5787 101.319 68.1205 101.028C68.6622 100.721 69.0929 100.292 69.4124 99.7367C69.7458 99.168 69.9125 98.5055 69.9125 97.7478C69.9125 96.9888 69.7458 96.333 69.4124 95.7791C69.0929 95.2253 68.6622 94.8029 68.1205 94.5105C67.5787 94.2047 66.9813 94.0518 66.3562 94.0518C65.7172 94.0518 65.1198 94.2047 64.5781 94.5105C64.0363 94.8029 63.6057 95.2253 63.2723 95.7791C62.9528 96.333 62.8001 96.9888 62.8001 97.7478C62.8001 98.5055 62.9528 99.168 63.2723 99.7367C63.6057 100.292 64.0363 100.721 64.5781 101.028C65.1198 101.319 65.7172 101.465 66.3562 101.465ZM80.1088 103.674C78.9419 103.674 77.9001 103.418 76.9832 102.908C76.0664 102.383 75.344 101.669 74.83 100.765C74.316 99.8614 74.066 98.8556 74.066 97.7478C74.066 96.6388 74.316 95.633 74.83 94.7291C75.344 93.8252 76.0664 93.1184 76.9832 92.6088C77.9001 92.0831 78.9419 91.8216 80.1088 91.8216C81.2757 91.8216 82.3175 92.0831 83.2344 92.6088C84.1512 93.1332 84.8736 93.848 85.3876 94.7519C85.9016 95.6558 86.1516 96.6535 86.1516 97.7478C86.1516 98.8556 85.9016 99.8614 85.3876 100.765C84.8736 101.669 84.1512 102.383 83.2344 102.908C82.3175 103.418 81.2757 103.674 80.1088 103.674ZM80.1088 101.465C80.7478 101.465 81.3313 101.319 81.873 101.028C82.4148 100.721 82.8454 100.292 83.1649 99.7367C83.4983 99.168 83.6649 98.5055 83.6649 97.7478C83.6649 96.9888 83.4983 96.333 83.1649 95.7791C82.8454 95.2253 82.4148 94.8029 81.873 94.5105C81.3313 94.2047 80.7478 94.0518 80.1088 94.0518C79.4698 94.0518 78.8863 94.2047 78.3446 94.5105C77.8028 94.8029 77.3583 95.2253 77.0249 95.7791C76.7054 96.333 76.5525 96.9888 76.5525 97.7478C76.5525 98.5055 76.7054 99.168 77.0249 99.7367C77.3583 100.292 77.8028 100.721 78.3446 101.028C78.8863 101.319 79.4698 101.465 80.1088 101.465ZM93.6669 108.397C92.25 108.397 91.0691 108.084 90.1245 107.456C89.2077 106.83 88.5965 106.087 88.277 105.226L90.6107 104.286C90.8468 104.869 91.2359 105.336 91.7638 105.686C92.3055 106.049 92.9445 106.232 93.6669 106.232C94.7226 106.232 95.5423 105.926 96.1396 105.313C96.7369 104.716 97.0424 103.87 97.0424 102.777V101.75H96.9035C96.5285 102.274 96.0145 102.69 95.3894 102.996C94.7643 103.287 94.0558 103.433 93.2362 103.433C92.2638 103.433 91.3748 103.193 90.5413 102.711C89.7078 102.23 89.0409 101.553 88.5409 100.678C88.0546 99.7877 87.8186 98.7751 87.8186 97.6379C87.8186 96.5007 88.0546 95.4949 88.5409 94.6205C89.0409 93.7313 89.7078 93.046 90.5413 92.5646C91.3748 92.0684 92.2638 91.8216 93.2362 91.8216C94.028 91.8216 94.7504 91.9745 95.3894 92.2802C96.0145 92.586 96.5285 93.0018 96.9035 93.5275H97.0424V92.1716H99.418V102.711C99.418 103.921 99.1818 104.949 98.6956 105.794C98.2094 106.655 97.5288 107.303 96.6536 107.74C95.7923 108.179 94.7921 108.397 93.6669 108.397ZM93.6808 101.247C94.292 101.247 94.8476 101.107 95.3616 100.831C95.8756 100.539 96.2785 100.124 96.5841 99.5838C96.8897 99.0299 97.0424 98.3809 97.0424 97.6379C97.0424 96.5007 96.7091 95.6182 96.0701 94.9919C95.4311 94.3509 94.6393 94.0304 93.6808 94.0304C93.0696 94.0304 92.5001 94.1752 91.9861 94.4676C91.4721 94.7438 91.0692 95.1528 90.7636 95.692C90.458 96.2311 90.3051 96.8802 90.3051 97.6379C90.3051 98.3956 90.458 99.0447 90.7636 99.5838C91.0692 100.124 91.4721 100.539 91.9861 100.831C92.5001 101.107 93.0696 101.247 93.6808 101.247ZM102.349 87.6669H104.836V103.324H102.349V87.6669ZM112.934 103.674C111.795 103.674 110.781 103.418 109.878 102.908C108.989 102.397 108.281 101.699 107.767 100.808C107.267 99.9043 107.017 98.8918 107.017 97.7693C107.017 96.7045 107.267 95.7215 107.739 94.8176C108.239 93.8989 108.934 93.1694 109.809 92.6303C110.684 92.0912 111.684 91.8216 112.795 91.8216C113.962 91.8216 114.962 92.0684 115.81 92.5646C116.671 93.0608 117.324 93.738 117.755 94.599C118.213 95.4586 118.435 96.4282 118.435 97.5064C118.435 97.7103 118.408 97.9665 118.366 98.2722H109.517C109.6 99.3075 109.975 100.11 110.642 100.678C111.323 101.232 112.115 101.508 113.004 101.508C113.712 101.508 114.324 101.355 114.837 101.05C115.365 100.729 115.782 100.299 116.102 99.7595L118.213 100.721C117.671 101.64 116.963 102.361 116.088 102.887C115.199 103.411 114.157 103.674 112.934 103.674ZM115.893 96.4349C115.865 96.042 115.74 95.6558 115.518 95.2762C115.282 94.8833 114.935 94.5547 114.476 94.2919C114.018 94.0304 113.462 93.8989 112.795 93.8989C111.99 93.8989 111.323 94.1323 110.753 94.599C110.212 95.0509 109.837 95.6625 109.628 96.4349H115.893ZM126.423 87.6669H131.604C133.285 87.6669 134.744 87.9941 136.008 88.6499C137.258 89.3057 138.217 90.2324 138.884 91.4273C139.564 92.6088 139.898 93.9646 139.898 95.4948C139.898 97.0263 139.564 98.3889 138.884 99.5838C138.217 100.765 137.258 101.684 136.008 102.34C134.744 102.996 133.285 103.324 131.604 103.324H126.423V87.6669ZM131.563 100.984C133.383 100.984 134.786 100.502 135.8 99.5409C136.828 98.5632 137.342 97.2154 137.342 95.4948C137.342 93.789 136.828 92.4479 135.8 91.4716C134.786 90.4939 133.383 90.0058 131.563 90.0058H128.965V100.984H131.563ZM147.33 103.674C146.191 103.674 145.176 103.418 144.273 102.908C143.384 102.397 142.676 101.699 142.162 100.808C141.662 99.9043 141.412 98.8918 141.412 97.7693C141.412 96.7045 141.662 95.7215 142.148 94.8176C142.634 93.8989 143.329 93.1694 144.204 92.6303C145.079 92.0912 146.079 91.8216 147.191 91.8216C148.358 91.8216 149.358 92.0684 150.205 92.5646C151.066 93.0608 151.719 93.738 152.15 94.599C152.608 95.4586 152.831 96.4282 152.831 97.5064C152.831 97.7103 152.817 97.9665 152.761 98.2722H143.912C143.996 99.3075 144.385 100.11 145.038 100.678C145.718 101.232 146.51 101.508 147.399 101.508C148.107 101.508 148.719 101.355 149.233 101.05C149.761 100.729 150.177 100.299 150.497 99.7595L152.608 100.721C152.067 101.64 151.358 102.361 150.483 102.887C149.608 103.411 148.552 103.674 147.33 103.674ZM150.302 96.4349C150.261 96.042 150.136 95.6558 149.913 95.2762C149.691 94.8833 149.344 94.5547 148.872 94.2919C148.413 94.0304 147.858 93.8989 147.191 93.8989C146.399 93.8989 145.718 94.1323 145.149 94.599C144.607 95.0509 144.232 95.6625 144.023 96.4349H150.302ZM153.595 92.1716H156.373L159.568 100.218H159.665L162.93 92.1716H165.639L160.846 103.324H158.346L153.595 92.1716ZM172.195 103.674C171.056 103.674 170.042 103.418 169.139 102.908C168.25 102.397 167.542 101.699 167.028 100.808C166.528 99.9043 166.278 98.8918 166.278 97.7693C166.278 96.7045 166.528 95.7215 167 94.8176C167.5 93.8989 168.195 93.1694 169.07 92.6303C169.945 92.0912 170.945 91.8216 172.056 91.8216C173.223 91.8216 174.224 92.0684 175.071 92.5646C175.932 93.0608 176.585 93.738 177.016 94.599C177.474 95.4586 177.696 96.4282 177.696 97.5064C177.696 97.7103 177.669 97.9665 177.627 98.2722H168.778C168.861 99.3075 169.237 100.11 169.903 100.678C170.584 101.232 171.376 101.508 172.265 101.508C172.973 101.508 173.585 101.355 174.099 101.05C174.626 100.729 175.043 100.299 175.363 99.7595L177.474 100.721C176.932 101.64 176.224 102.361 175.349 102.887C174.46 103.411 173.418 103.674 172.195 103.674ZM175.154 96.4349C175.127 96.042 175.001 95.6558 174.779 95.2762C174.543 94.8833 174.196 94.5547 173.737 94.2919C173.279 94.0304 172.723 93.8989 172.056 93.8989C171.251 93.8989 170.584 94.1323 170.014 94.599C169.473 95.0509 169.098 95.6625 168.889 96.4349H175.154ZM179.961 87.6669H182.461V103.324H179.961V87.6669ZM190.685 103.674C189.532 103.674 188.49 103.418 187.559 102.908C186.642 102.383 185.92 101.669 185.406 100.765C184.892 99.8614 184.642 98.8556 184.642 97.7478C184.642 96.6388 184.892 95.633 185.406 94.7291C185.92 93.8252 186.642 93.1184 187.559 92.6088C188.49 92.0831 189.532 91.8216 190.685 91.8216C191.852 91.8216 192.894 92.0831 193.81 92.6088C194.741 93.1332 195.45 93.848 195.964 94.7519C196.478 95.6558 196.742 96.6535 196.742 97.7478C196.742 98.8556 196.478 99.8614 195.964 100.765C195.45 101.669 194.741 102.383 193.81 102.908C192.894 103.418 191.852 103.674 190.685 103.674ZM190.685 101.465C191.324 101.465 191.907 101.319 192.463 101.028C193.005 100.721 193.436 100.292 193.741 99.7367C194.075 99.168 194.241 98.5055 194.241 97.7478C194.241 96.9888 194.075 96.333 193.741 95.7791C193.436 95.2253 193.005 94.8029 192.463 94.5105C191.907 94.2047 191.324 94.0518 190.685 94.0518C190.06 94.0518 189.462 94.2047 188.921 94.5105C188.379 94.8029 187.934 95.2253 187.615 95.7791C187.295 96.333 187.129 96.9888 187.129 97.7478C187.129 98.5055 187.295 99.168 187.615 99.7367C187.934 100.292 188.379 100.721 188.921 101.028C189.462 101.319 190.06 101.465 190.685 101.465ZM198.839 92.1716H201.215V93.6361H201.326C201.659 93.1265 202.145 92.696 202.798 92.346C203.451 91.9959 204.174 91.8216 204.993 91.8216C206.035 91.8216 206.98 92.0764 207.827 92.586C208.674 93.097 209.341 93.8037 209.813 94.7076C210.314 95.5967 210.564 96.6106 210.564 97.7478C210.564 98.8851 210.314 99.9043 209.813 100.808C209.341 101.699 208.674 102.397 207.827 102.908C206.98 103.418 206.035 103.674 204.993 103.674C204.174 103.674 203.451 103.498 202.798 103.148C202.145 102.798 201.659 102.376 201.326 101.88H201.215L201.326 103.433V108.047H198.839V92.1716ZM204.632 101.465C205.243 101.465 205.799 101.311 206.327 101.005C206.855 100.7 207.285 100.262 207.605 99.6938C207.91 99.1252 208.077 98.476 208.077 97.7478C208.077 97.0183 207.91 96.3772 207.605 95.8234C207.285 95.2548 206.855 94.8176 206.327 94.5105C205.799 94.2047 205.243 94.0518 204.632 94.0518C204.035 94.0518 203.465 94.2047 202.937 94.5105C202.423 94.8176 202.007 95.2548 201.687 95.8234C201.367 96.3772 201.215 97.0183 201.215 97.7478C201.215 98.476 201.367 99.1252 201.687 99.6938C202.007 100.262 202.423 100.7 202.937 101.005C203.465 101.311 204.035 101.465 204.632 101.465ZM218.121 103.674C216.981 103.674 215.967 103.418 215.064 102.908C214.162 102.397 213.467 101.699 212.953 100.808C212.453 99.9043 212.203 98.8918 212.203 97.7693C212.203 96.7045 212.439 95.7215 212.925 94.8176C213.425 93.8989 214.12 93.1694 214.995 92.6303C215.87 92.0912 216.856 91.8216 217.982 91.8216C219.149 91.8216 220.149 92.0684 220.996 92.5646C221.857 93.0608 222.496 93.738 222.941 94.599C223.399 95.4586 223.622 96.4282 223.622 97.5064C223.622 97.7103 223.594 97.9665 223.552 98.2722H214.689C214.787 99.3075 215.162 100.11 215.828 100.678C216.509 101.232 217.287 101.508 218.19 101.508C218.899 101.508 219.51 101.355 220.024 101.05C220.552 100.729 220.968 100.299 221.288 99.7595L223.399 100.721C222.844 101.64 222.135 102.361 221.26 102.887C220.385 103.411 219.343 103.674 218.121 103.674ZM221.079 96.4349C221.052 96.042 220.927 95.6558 220.704 95.2762C220.468 94.8833 220.121 94.5547 219.662 94.2919C219.204 94.0304 218.648 93.8989 217.982 93.8989C217.176 93.8989 216.495 94.1323 215.94 94.599C215.398 95.0509 215.023 95.6625 214.814 96.4349H221.079ZM225.886 92.1716H228.261V93.8118H228.386C228.636 93.2431 229.081 92.7765 229.72 92.4117C230.345 92.0322 231.026 91.8431 231.734 91.8431C232.29 91.8431 232.762 91.9155 233.137 92.0616V94.5547C232.471 94.3214 231.873 94.2047 231.345 94.2047C230.776 94.2047 230.262 94.3509 229.803 94.6419C229.373 94.9343 229.025 95.3272 228.761 95.8234C228.511 96.3035 228.386 96.8359 228.386 97.4193V103.324H225.886V92.1716ZM244.764 103.674C243.417 103.674 242.208 103.295 241.139 102.537C240.069 101.778 239.333 100.714 238.916 99.3437L241.319 98.4036C241.569 99.2633 241.986 99.97 242.597 100.524C243.209 101.064 243.945 101.334 244.806 101.334C245.612 101.334 246.293 101.137 246.848 100.744C247.404 100.335 247.696 99.7809 247.696 99.0809C247.696 98.4399 247.445 97.9155 246.945 97.5064C246.459 97.084 245.612 96.6616 244.375 96.2378L243.361 95.8891C242.278 95.5243 241.361 94.9986 240.625 94.3147C239.889 93.6294 239.513 92.7255 239.513 91.603C239.513 90.8292 239.736 90.1157 240.166 89.4599C240.611 88.8028 241.208 88.2865 241.986 87.907C242.764 87.5127 243.653 87.3169 244.626 87.3169C246.056 87.3169 247.182 87.6522 248.029 88.3227C248.876 88.9785 249.446 89.7215 249.724 90.5529L247.445 91.4931C247.279 90.9969 246.959 90.5596 246.487 90.1814C246.015 89.8019 245.417 89.6128 244.681 89.6128C243.931 89.6128 243.306 89.7952 242.792 90.1586C242.292 90.5234 242.056 90.9901 242.056 91.5587C242.056 92.0979 242.278 92.5431 242.722 92.8931C243.181 93.2431 243.889 93.5784 244.862 93.8989L245.876 94.2262C247.265 94.6929 248.335 95.3057 249.099 96.0635C249.863 96.8064 250.252 97.8055 250.252 99.0595C250.252 100.08 249.974 100.94 249.432 101.64C248.89 102.325 248.196 102.835 247.348 103.17C246.515 103.506 245.654 103.674 244.764 103.674ZM256.906 103.498C256.392 103.498 255.905 103.418 255.447 103.258C255.002 103.097 254.627 102.887 254.35 102.624C253.697 101.996 253.363 101.143 253.363 100.065V94.2919H251.349V92.1716H253.363V89.0214H255.864V92.1716H258.67V94.2919H255.864V99.5409C255.864 100.138 255.975 100.561 256.225 100.808C256.447 101.101 256.836 101.247 257.406 101.247C257.656 101.247 257.878 101.217 258.086 101.158C258.281 101.086 258.489 100.976 258.711 100.831V103.17C258.211 103.39 257.614 103.498 256.906 103.498ZM265.254 103.674C263.851 103.674 262.782 103.273 262.031 102.471C261.309 101.654 260.948 100.524 260.948 99.0809V92.1716H263.435V98.7536C263.435 99.6575 263.657 100.335 264.101 100.787C264.546 101.239 265.143 101.465 265.866 101.465C266.449 101.465 266.977 101.319 267.421 101.028C267.88 100.721 268.227 100.32 268.463 99.8252C268.713 99.329 268.824 98.7966 268.824 98.2279V92.1716H271.325V103.324H268.963V101.88H268.824C268.519 102.405 268.019 102.835 267.352 103.17C266.699 103.506 265.991 103.674 265.254 103.674ZM279.049 103.674C278.007 103.674 277.062 103.418 276.215 102.908C275.367 102.397 274.701 101.699 274.2 100.808C273.714 99.9043 273.478 98.8851 273.478 97.7478C273.478 96.6106 273.714 95.5967 274.2 94.7076C274.701 93.8037 275.367 93.097 276.215 92.586C277.062 92.0764 278.007 91.8216 279.049 91.8216C279.868 91.8216 280.604 91.9959 281.243 92.346C281.896 92.696 282.383 93.1265 282.716 93.6361H282.827L282.716 92.0616V87.6669H285.216V103.324H282.827V101.88H282.716C282.383 102.376 281.896 102.798 281.243 103.148C280.604 103.498 279.868 103.674 279.049 103.674ZM279.41 101.465C280.021 101.465 280.577 101.311 281.091 101.005C281.619 100.7 282.035 100.262 282.355 99.6938C282.674 99.1252 282.827 98.476 282.827 97.7478C282.827 97.0183 282.674 96.3772 282.355 95.8234C282.035 95.2548 281.619 94.8176 281.091 94.5105C280.577 94.2047 280.021 94.0518 279.41 94.0518C278.812 94.0518 278.243 94.2047 277.715 94.5105C277.187 94.8176 276.756 95.2548 276.451 95.8234C276.131 96.3772 275.965 97.0183 275.965 97.7478C275.965 98.476 276.131 99.1252 276.451 99.6938C276.756 100.262 277.187 100.7 277.715 101.005C278.243 101.311 278.812 101.465 279.41 101.465ZM293.287 103.674C292.148 103.674 291.134 103.418 290.217 102.908C289.328 102.397 288.634 101.699 288.12 100.808C287.62 99.9043 287.37 98.8918 287.37 97.7693C287.37 96.7045 287.606 95.7215 288.092 94.8176C288.592 93.8989 289.287 93.1694 290.162 92.6303C291.037 92.0912 292.023 91.8216 293.148 91.8216C294.315 91.8216 295.316 92.0684 296.163 92.5646C297.024 93.0608 297.663 93.738 298.108 94.599C298.566 95.4586 298.788 96.4282 298.788 97.5064C298.788 97.7103 298.761 97.9665 298.719 98.2722H289.856C289.953 99.3075 290.328 100.11 290.995 100.678C291.676 101.232 292.454 101.508 293.343 101.508C294.065 101.508 294.676 101.355 295.19 101.05C295.718 100.729 296.135 100.299 296.455 99.7595L298.566 100.721C298.01 101.64 297.302 102.361 296.427 102.887C295.552 103.411 294.51 103.674 293.287 103.674ZM296.246 96.4349C296.218 96.042 296.093 95.6558 295.857 95.2762C295.635 94.8833 295.288 94.5547 294.815 94.2919C294.371 94.0304 293.815 93.8989 293.148 93.8989C292.343 93.8989 291.662 94.1323 291.106 94.599C290.565 95.0509 290.189 95.6625 289.981 96.4349H296.246ZM301.053 92.1716H303.428V93.6361H303.553C303.873 93.1117 304.373 92.6812 305.026 92.346C305.679 91.9959 306.387 91.8216 307.123 91.8216C308.526 91.8216 309.596 92.2226 310.318 93.0232C311.055 93.8118 311.43 94.89 311.43 96.2606V103.324H308.943V96.5878C308.943 95.7134 308.707 95.0724 308.262 94.6634C307.818 94.2557 307.207 94.0518 306.429 94.0518C305.859 94.0518 305.373 94.2047 304.928 94.5105C304.484 94.8029 304.15 95.1958 303.914 95.692C303.664 96.1868 303.553 96.7192 303.553 97.2879V103.324H301.053V92.1716ZM318.403 103.498C317.889 103.498 317.403 103.418 316.945 103.258C316.5 103.097 316.125 102.887 315.833 102.624C315.194 101.996 314.861 101.143 314.861 100.065V94.2919H312.847V92.1716H314.861V89.0214H317.361V92.1716H320.167V94.2919H317.361V99.5409C317.361 100.138 317.472 100.561 317.723 100.808C317.945 101.101 318.334 101.247 318.889 101.247C319.153 101.247 319.376 101.217 319.57 101.158C319.778 101.086 319.987 100.976 320.209 100.831V103.17C319.709 103.39 319.112 103.498 318.403 103.498ZM335.462 103.674C333.892 103.674 332.461 103.316 331.155 102.603C329.864 101.888 328.85 100.903 328.099 99.6495C327.363 98.3956 326.988 97.0116 326.988 95.4948C326.988 93.9794 327.363 92.5941 328.099 91.3401C328.85 90.0862 329.864 89.1019 331.155 88.3884C332.461 87.6736 333.892 87.3169 335.462 87.3169C336.684 87.3169 337.796 87.5355 338.796 87.9727C339.81 88.4099 340.699 89.0442 341.463 89.8744L339.657 91.5587C339.101 90.9177 338.476 90.443 337.796 90.1372C337.115 89.8167 336.337 89.6557 335.462 89.6557C334.378 89.6557 333.378 89.8972 332.475 90.3773C331.586 90.8587 330.878 91.544 330.35 92.4331C329.822 93.3075 329.558 94.3281 329.558 95.4948C329.558 96.6616 329.822 97.6889 330.35 98.578C330.878 99.4524 331.586 100.131 332.475 100.612C333.378 101.093 334.378 101.334 335.462 101.334C337.282 101.334 338.824 100.604 340.088 99.1466L341.921 100.852C341.13 101.742 340.185 102.435 339.088 102.93C337.99 103.426 336.781 103.674 335.462 103.674ZM344.13 87.6669H346.617V103.324H344.13V87.6669ZM353.757 103.674C352.354 103.674 351.284 103.273 350.534 102.471C349.812 101.654 349.451 100.524 349.451 99.0809V92.1716H351.951V98.7536C351.951 99.6575 352.159 100.335 352.604 100.787C353.048 101.239 353.646 101.465 354.368 101.465C354.952 101.465 355.479 101.319 355.938 101.028C356.382 100.721 356.73 100.32 356.98 99.8252C357.216 99.329 357.341 98.7966 357.341 98.2279V92.1716H359.827V103.324H357.466V101.88H357.341C357.021 102.405 356.521 102.835 355.868 103.17C355.202 103.506 354.493 103.674 353.757 103.674ZM368.885 103.674C368.079 103.674 367.343 103.498 366.69 103.148C366.037 102.798 365.551 102.376 365.217 101.88H365.106V103.324H362.731V87.6669H365.217V92.0616L365.106 93.6361H365.217C365.551 93.1265 366.037 92.696 366.69 92.346C367.343 91.9959 368.079 91.8216 368.885 91.8216C369.927 91.8216 370.871 92.0764 371.719 92.586C372.566 93.097 373.233 93.8037 373.719 94.7076C374.205 95.5967 374.455 96.6106 374.455 97.7478C374.455 98.8851 374.205 99.9043 373.719 100.808C373.233 101.699 372.566 102.397 371.719 102.908C370.871 103.418 369.927 103.674 368.885 103.674ZM368.524 101.465C369.135 101.465 369.69 101.311 370.218 101.005C370.76 100.7 371.177 100.262 371.496 99.6938C371.816 99.1252 371.969 98.476 371.969 97.7478C371.969 97.0183 371.816 96.3772 371.496 95.8234C371.177 95.2548 370.76 94.8176 370.218 94.5105C369.69 94.2047 369.135 94.0518 368.524 94.0518C367.926 94.0518 367.357 94.2047 366.829 94.5105C366.315 94.8176 365.898 95.2548 365.579 95.8234C365.259 96.3772 365.106 97.0183 365.106 97.7478C365.106 98.476 365.259 99.1252 365.579 99.6938C365.898 100.262 366.315 100.7 366.829 101.005C367.357 101.311 367.926 101.465 368.524 101.465ZM380.831 103.674C379.498 103.674 378.414 103.396 377.567 102.843C376.72 102.274 376.122 101.553 375.775 100.678L377.997 99.7367C378.275 100.32 378.65 100.765 379.137 101.071C379.637 101.377 380.192 101.531 380.831 101.531C381.456 101.531 381.97 101.428 382.401 101.224C382.818 101.005 383.026 100.685 383.026 100.262C383.026 99.8533 382.846 99.5328 382.485 99.2995C382.123 99.0661 381.568 98.8623 380.804 98.688L379.428 98.3594C378.511 98.1408 377.747 97.7546 377.136 97.2007C376.539 96.6468 376.233 95.9468 376.233 95.1019C376.233 94.4448 376.428 93.8694 376.817 93.3732C377.233 92.8784 377.775 92.4988 378.456 92.236C379.137 91.9597 379.873 91.8216 380.679 91.8216C381.748 91.8216 382.693 92.0322 383.499 92.4559C384.318 92.8636 384.916 93.4618 385.277 94.249L383.096 95.1663C382.665 94.3066 381.859 93.8761 380.693 93.8761C380.137 93.8761 379.665 93.9861 379.289 94.2047C378.914 94.4233 378.72 94.7076 378.72 95.0576C378.72 95.3929 378.873 95.6705 379.151 95.8891C379.442 96.093 379.859 96.2673 380.428 96.4135L382.123 96.8292C383.262 97.1055 384.11 97.5293 384.679 98.0965C385.277 98.6517 385.568 99.3371 385.568 100.152C385.568 100.852 385.36 101.472 384.929 102.011C384.527 102.537 383.957 102.945 383.235 103.236C382.512 103.528 381.707 103.674 380.831 103.674Z" />
    <path
        d="M222.243 53.1798L240.881 42.7914C243.478 41.3436 246.8 42.2028 248.299 44.7105C249.799 47.2182 248.909 50.4248 246.312 51.8726L227.674 62.2609C225.076 63.7087 221.755 62.8495 220.255 60.3419C218.755 57.8342 219.645 54.6276 222.243 53.1798Z"
        fill="#FBBC04" />
    <path
        d="M209.012 41.4277L190.374 51.816C187.777 53.2638 184.455 52.4046 182.955 49.8969C181.456 47.3892 182.346 44.1827 184.943 42.7348L203.581 32.3465C206.179 30.8987 209.5 31.7579 211 34.2656C212.5 36.7733 211.61 39.9798 209.012 41.4277Z"
        fill="#EA4335" />
    <path
        d="M208.553 53.1783L189.915 42.79C187.318 41.3422 183.996 42.2014 182.496 44.7091C180.997 47.2167 181.887 50.4233 184.484 51.8711L203.122 62.2595C205.72 63.7073 209.041 62.848 210.541 60.3403C212.041 57.8327 211.151 54.6261 208.553 53.1783Z"
        fill="#4285F4" />
    <path
        d="M221.926 41.2513L241.197 51.9924C243.62 53.3428 246.718 52.5414 248.117 50.2024L248.482 49.5914C249.881 47.2524 249.051 44.2616 246.628 42.9112L227.357 32.1701C224.934 30.8197 221.836 31.6211 220.438 33.96L220.072 34.5711C218.673 36.91 219.503 39.9009 221.926 41.2513Z"
        fill="#0F9D58" />
    <path
        d="M55.1597 132.723C54.2845 132.723 53.5067 132.492 52.8538 132.031C52.2009 131.559 51.7425 130.899 51.4785 130.052L52.812 129.521C53.201 130.787 53.9928 131.42 55.1597 131.42C55.8126 131.42 56.3406 131.2 56.7295 130.76C57.1185 130.32 57.3268 129.741 57.3268 129.022V120.943H58.7437V128.909C58.7437 129.714 58.591 130.406 58.2715 130.985C57.9797 131.554 57.5491 131.988 57.0073 132.289C56.4794 132.578 55.8543 132.723 55.1597 132.723ZM61.2165 120.943H64.8143C66.0367 120.943 67.1065 121.19 68.0094 121.683C68.9262 122.166 69.6208 122.842 70.107 123.711C70.6071 124.58 70.8431 125.578 70.8431 126.704C70.8431 127.831 70.6071 128.829 70.107 129.698C69.6208 130.567 68.9262 131.248 68.0094 131.741C67.1065 132.224 66.0367 132.466 64.8143 132.466H61.2165V120.943ZM64.8143 131.162C66.2173 131.162 67.3426 130.771 68.1622 129.987C68.9957 129.204 69.4125 128.11 69.4125 126.704C69.4125 125.299 68.9957 124.205 68.1622 123.421C67.3426 122.638 66.2173 122.247 64.8143 122.247H62.6056V131.162H64.8143ZM82.0815 132.723C80.9285 132.723 79.8727 132.46 78.9281 131.935C77.9835 131.409 77.2472 130.69 76.6916 129.778C76.1637 128.855 75.8997 127.831 75.8997 126.704C75.8997 125.578 76.1637 124.559 76.6916 123.647C77.2472 122.724 77.9835 122 78.9281 121.474C79.8727 120.948 80.9285 120.686 82.0815 120.686C82.9705 120.686 83.7762 120.852 84.5125 121.184C85.2626 121.506 85.9015 121.968 86.4432 122.568L85.4292 123.518C84.9708 122.992 84.4707 122.606 83.929 122.359C83.4011 122.112 82.776 121.989 82.0815 121.989C81.2202 121.989 80.4144 122.188 79.692 122.585C78.9697 122.971 78.4001 123.523 77.9695 124.242C77.5388 124.95 77.3305 125.771 77.3305 126.704C77.3305 127.638 77.5388 128.464 77.9695 129.183C78.4001 129.891 78.9697 130.443 79.692 130.84C80.4144 131.227 81.2202 131.42 82.0815 131.42C83.5262 131.42 84.7485 130.846 85.7626 129.698L86.8044 130.663C86.2488 131.296 85.5542 131.8 84.7485 132.176C83.9428 132.541 83.0539 132.723 82.0815 132.723ZM92.1389 132.723C91.3054 132.723 90.5553 132.53 89.8885 132.144C89.2217 131.758 88.7077 131.232 88.3326 130.567C87.9576 129.902 87.7769 129.167 87.7769 128.362C87.7769 127.557 87.9576 126.822 88.3326 126.157C88.7077 125.492 89.2217 124.966 89.8885 124.58C90.5553 124.194 91.3054 124.001 92.1389 124.001C92.9724 124.001 93.7225 124.194 94.3893 124.58C95.0561 124.966 95.584 125.492 95.9451 126.157C96.3202 126.822 96.5146 127.557 96.5146 128.362C96.5146 129.167 96.3202 129.902 95.9451 130.567C95.584 131.232 95.0561 131.758 94.3893 132.144C93.7225 132.53 92.9724 132.723 92.1389 132.723ZM92.1389 131.484C92.6668 131.484 93.1529 131.361 93.5974 131.114C94.0558 130.856 94.417 130.492 94.681 130.02C94.9588 129.547 95.0978 128.995 95.0978 128.362C95.0978 127.729 94.9588 127.176 94.681 126.704C94.417 126.232 94.0558 125.873 93.5974 125.626C93.1529 125.369 92.6668 125.24 92.1389 125.24C91.6249 125.24 91.1386 125.369 90.6802 125.626C90.2218 125.873 89.8606 126.232 89.5827 126.704C89.3049 127.176 89.18 127.729 89.18 128.362C89.18 128.995 89.3049 129.547 89.5827 130.02C89.8606 130.492 90.2218 130.856 90.6802 131.114C91.1386 131.361 91.6249 131.484 92.1389 131.484ZM98.0706 120.943H99.4874V132.466H98.0706V120.943ZM101.599 120.943H103.016V132.466H101.599V120.943ZM108.809 132.723C108.003 132.723 107.267 132.535 106.628 132.16C105.989 131.784 105.475 131.269 105.113 130.615C104.752 129.95 104.572 129.204 104.572 128.378C104.572 127.584 104.738 126.855 105.072 126.189C105.419 125.524 105.905 124.993 106.53 124.596C107.156 124.199 107.878 124.001 108.697 124.001C109.531 124.001 110.253 124.183 110.865 124.548C111.476 124.902 111.934 125.395 112.268 126.028C112.601 126.661 112.768 127.386 112.768 128.201C112.768 128.362 112.74 128.501 112.712 128.619H105.989C106.03 129.242 106.183 129.767 106.461 130.197C106.739 130.626 107.086 130.948 107.517 131.162C107.947 131.377 108.392 131.484 108.864 131.484C109.948 131.484 110.795 130.99 111.379 130.003L112.573 130.567C112.212 131.232 111.712 131.758 111.073 132.144C110.462 132.53 109.698 132.723 108.809 132.723ZM111.267 127.493C111.24 127.15 111.142 126.806 110.962 126.463C110.781 126.12 110.503 125.83 110.114 125.594C109.739 125.358 109.253 125.24 108.684 125.24C108.017 125.24 107.447 125.449 106.975 125.868C106.516 126.275 106.225 126.817 106.072 127.493H111.267ZM118.241 136.199C117.241 136.199 116.407 135.974 115.754 135.523C115.101 135.073 114.671 134.531 114.449 133.898L115.74 133.367C115.921 133.839 116.24 134.22 116.671 134.509C117.116 134.81 117.63 134.96 118.241 134.96C119.116 134.96 119.797 134.713 120.269 134.22C120.755 133.726 121.005 133.029 121.005 132.128V131.21H120.936C120.658 131.629 120.269 131.972 119.755 132.24C119.255 132.498 118.686 132.627 118.033 132.627C117.296 132.627 116.629 132.444 116.018 132.079C115.421 131.715 114.935 131.205 114.587 130.551C114.226 129.896 114.046 129.151 114.046 128.314C114.046 127.488 114.226 126.747 114.587 126.093C114.935 125.428 115.421 124.913 116.018 124.548C116.629 124.183 117.296 124.001 118.033 124.001C118.686 124.001 119.255 124.135 119.755 124.403C120.269 124.661 120.658 125.004 120.936 125.433H121.005V124.258H122.353V132.144C122.353 133.463 121.978 134.467 121.214 135.153C120.464 135.851 119.463 136.199 118.241 136.199ZM118.241 131.387C118.741 131.387 119.213 131.264 119.616 131.017C120.047 130.771 120.38 130.416 120.616 129.955C120.88 129.494 121.005 128.947 121.005 128.314C121.005 127.67 120.88 127.117 120.616 126.656C120.38 126.195 120.047 125.846 119.616 125.61C119.213 125.363 118.741 125.24 118.241 125.24C117.727 125.24 117.255 125.363 116.838 125.61C116.407 125.857 116.074 126.211 115.824 126.672C115.574 127.134 115.449 127.681 115.449 128.314C115.449 128.947 115.574 129.499 115.824 129.971C116.074 130.433 116.407 130.787 116.838 131.033C117.255 131.269 117.727 131.387 118.241 131.387ZM128.145 132.723C127.34 132.723 126.617 132.535 125.965 132.16C125.326 131.784 124.812 131.269 124.45 130.615C124.089 129.95 123.923 129.204 123.923 128.378C123.923 127.584 124.089 126.855 124.423 126.189C124.756 125.524 125.242 124.993 125.867 124.596C126.492 124.199 127.215 124.001 128.034 124.001C128.868 124.001 129.59 124.183 130.201 124.548C130.813 124.902 131.285 125.395 131.604 126.028C131.938 126.661 132.105 127.386 132.105 128.201C132.105 128.362 132.091 128.501 132.049 128.619H125.339C125.367 129.242 125.52 129.767 125.798 130.197C126.076 130.626 126.423 130.948 126.854 131.162C127.284 131.377 127.729 131.484 128.201 131.484C129.285 131.484 130.132 130.99 130.716 130.003L131.924 130.567C131.549 131.232 131.049 131.758 130.424 132.144C129.799 132.53 129.035 132.723 128.145 132.723ZM130.604 127.493C130.577 127.15 130.479 126.806 130.299 126.463C130.118 126.12 129.84 125.83 129.451 125.594C129.076 125.358 128.59 125.24 128.021 125.24C127.354 125.24 126.784 125.449 126.312 125.868C125.867 126.275 125.562 126.817 125.423 127.493H130.604ZM141.551 132.723C140.717 132.723 139.967 132.53 139.3 132.144C138.634 131.758 138.12 131.232 137.731 130.567C137.369 129.902 137.189 129.167 137.189 128.362C137.189 127.557 137.369 126.822 137.731 126.157C138.12 125.492 138.634 124.966 139.3 124.58C139.967 124.194 140.717 124.001 141.551 124.001C142.384 124.001 143.134 124.194 143.801 124.58C144.468 124.966 144.982 125.492 145.357 126.157C145.732 126.822 145.927 127.557 145.927 128.362C145.927 129.167 145.732 129.902 145.357 130.567C144.982 131.232 144.468 131.758 143.801 132.144C143.134 132.53 142.384 132.723 141.551 132.723ZM141.551 131.484C142.079 131.484 142.565 131.361 143.009 131.114C143.454 130.856 143.815 130.492 144.093 130.02C144.371 129.547 144.51 128.995 144.51 128.362C144.51 127.729 144.371 127.176 144.093 126.704C143.815 126.232 143.454 125.873 143.009 125.626C142.565 125.369 142.079 125.24 141.551 125.24C141.037 125.24 140.537 125.369 140.092 125.626C139.634 125.873 139.259 126.232 138.981 126.704C138.717 127.176 138.592 127.729 138.592 128.362C138.592 128.995 138.717 129.547 138.981 130.02C139.259 130.492 139.634 130.856 140.092 131.114C140.537 131.361 141.037 131.484 141.551 131.484ZM148.302 125.497H146.732V124.258H148.302V123.373C148.302 122.858 148.427 122.408 148.677 122.021C148.913 121.635 149.247 121.34 149.649 121.136C150.066 120.922 150.525 120.814 151.025 120.814C151.497 120.814 151.914 120.879 152.275 121.007V122.343C152.067 122.268 151.886 122.209 151.706 122.166C151.525 122.112 151.316 122.086 151.066 122.086C150.705 122.086 150.386 122.214 150.122 122.472C149.858 122.719 149.719 123.067 149.719 123.518V124.258H151.9V125.497H149.719V132.466H148.302V125.497ZM157.79 120.943H164.694V122.247H159.193V126.061H164.166V127.348H159.193V131.162H164.694V132.466H157.79V120.943ZM166.528 124.258H167.875V125.465H167.945C168.181 125.058 168.556 124.714 169.07 124.435C169.57 124.146 170.126 124.001 170.695 124.001C171.723 124.001 172.501 124.29 173.029 124.87C173.571 125.438 173.848 126.216 173.848 127.203V132.466H172.431V127.412C172.431 126.651 172.237 126.098 171.862 125.755C171.487 125.412 170.973 125.24 170.32 125.24C169.862 125.24 169.445 125.363 169.084 125.61C168.723 125.857 168.445 126.184 168.25 126.592C168.042 126.989 167.945 127.407 167.945 127.847V132.466H166.528V124.258ZM179.53 136.199C178.53 136.199 177.696 135.974 177.044 135.523C176.405 135.073 175.96 134.531 175.738 133.898L177.03 133.367C177.21 133.839 177.53 134.22 177.96 134.509C178.405 134.81 178.933 134.96 179.53 134.96C180.405 134.96 181.086 134.713 181.558 134.22C182.044 133.726 182.294 133.029 182.294 132.128V131.21H182.225C181.947 131.629 181.558 131.972 181.044 132.24C180.544 132.498 179.975 132.627 179.322 132.627C178.599 132.627 177.919 132.444 177.307 132.079C176.71 131.715 176.238 131.205 175.877 130.551C175.515 129.896 175.349 129.151 175.349 128.314C175.349 127.488 175.515 126.747 175.877 126.093C176.238 125.428 176.71 124.913 177.307 124.548C177.919 124.183 178.599 124.001 179.322 124.001C179.975 124.001 180.544 124.135 181.044 124.403C181.558 124.661 181.947 125.004 182.225 125.433H182.294V124.258H183.642V132.144C183.642 133.463 183.267 134.467 182.517 135.153C181.753 135.851 180.766 136.199 179.53 136.199ZM179.53 131.387C180.044 131.387 180.502 131.264 180.905 131.017C181.336 130.771 181.669 130.416 181.906 129.955C182.17 129.494 182.294 128.947 182.294 128.314C182.294 127.67 182.17 127.117 181.906 126.656C181.669 126.195 181.336 125.846 180.905 125.61C180.502 125.363 180.044 125.24 179.53 125.24C179.016 125.24 178.544 125.363 178.127 125.61C177.71 125.857 177.363 126.211 177.113 126.672C176.863 127.134 176.738 127.681 176.738 128.314C176.738 128.947 176.863 129.499 177.113 129.971C177.363 130.433 177.71 130.787 178.127 131.033C178.544 131.269 179.016 131.387 179.53 131.387ZM186.573 122.745C186.295 122.745 186.059 122.649 185.851 122.456C185.656 122.263 185.559 122.032 185.559 121.764C185.559 121.496 185.656 121.27 185.851 121.088C186.059 120.895 186.295 120.798 186.573 120.798C186.851 120.798 187.087 120.895 187.295 121.088C187.49 121.27 187.587 121.496 187.587 121.764C187.587 122.032 187.49 122.263 187.295 122.456C187.101 122.649 186.865 122.745 186.573 122.745ZM185.879 124.258H187.268V132.466H185.879V124.258ZM189.504 124.258H190.852V125.465H190.921C191.157 125.058 191.518 124.714 192.032 124.435C192.546 124.146 193.088 124.001 193.672 124.001C194.686 124.001 195.464 124.29 196.005 124.87C196.547 125.438 196.825 126.216 196.825 127.203V132.466H195.408V127.412C195.408 126.651 195.214 126.098 194.838 125.755C194.463 125.412 193.936 125.24 193.283 125.24C192.824 125.24 192.421 125.363 192.046 125.61C191.699 125.857 191.421 126.184 191.213 126.592C191.018 126.989 190.921 127.407 190.921 127.847V132.466H189.504V124.258ZM202.632 132.723C201.812 132.723 201.09 132.535 200.451 132.16C199.798 131.784 199.298 131.269 198.923 130.615C198.575 129.95 198.395 129.204 198.395 128.378C198.395 127.584 198.561 126.855 198.895 126.189C199.242 125.524 199.728 124.993 200.34 124.596C200.965 124.199 201.687 124.001 202.507 124.001C203.34 124.001 204.062 124.183 204.674 124.548C205.285 124.902 205.757 125.395 206.077 126.028C206.41 126.661 206.577 127.386 206.577 128.201C206.577 128.362 206.563 128.501 206.535 128.619H199.812C199.839 129.242 200.006 129.767 200.284 130.197C200.562 130.626 200.909 130.948 201.326 131.162C201.756 131.377 202.215 131.484 202.673 131.484C203.771 131.484 204.604 130.99 205.202 130.003L206.396 130.567C206.035 131.232 205.535 131.758 204.896 132.144C204.271 132.53 203.521 132.723 202.632 132.723ZM205.076 127.493C205.063 127.15 204.951 126.806 204.785 126.463C204.604 126.12 204.312 125.83 203.924 125.594C203.548 125.358 203.076 125.24 202.493 125.24C201.826 125.24 201.256 125.449 200.798 125.868C200.34 126.275 200.034 126.817 199.895 127.493H205.076ZM212.106 132.723C211.286 132.723 210.564 132.535 209.925 132.16C209.272 131.784 208.772 131.269 208.397 130.615C208.049 129.95 207.869 129.204 207.869 128.378C207.869 127.584 208.035 126.855 208.369 126.189C208.716 125.524 209.202 124.993 209.813 124.596C210.439 124.199 211.161 124.001 211.981 124.001C212.814 124.001 213.536 124.183 214.148 124.548C214.759 124.902 215.231 125.395 215.551 126.028C215.884 126.661 216.051 127.386 216.051 128.201C216.051 128.362 216.037 128.501 216.009 128.619H209.286C209.313 129.242 209.48 129.767 209.758 130.197C210.036 130.626 210.383 130.948 210.8 131.162C211.23 131.377 211.689 131.484 212.147 131.484C213.245 131.484 214.078 130.99 214.676 130.003L215.87 130.567C215.509 131.232 215.009 131.758 214.37 132.144C213.745 132.53 212.995 132.723 212.106 132.723ZM214.551 127.493C214.537 127.15 214.425 126.806 214.259 126.463C214.078 126.12 213.786 125.83 213.397 125.594C213.022 125.358 212.55 125.24 211.967 125.24C211.3 125.24 210.73 125.449 210.272 125.868C209.813 126.275 209.508 126.817 209.369 127.493H214.551ZM217.718 124.258H219.065V125.578H219.135C219.301 125.127 219.621 124.757 220.093 124.467C220.579 124.167 221.079 124.017 221.593 124.017C221.982 124.017 222.316 124.07 222.594 124.178V125.658C222.246 125.487 221.843 125.401 221.399 125.401C220.982 125.401 220.607 125.513 220.26 125.739C219.913 125.964 219.635 126.27 219.426 126.656C219.232 127.032 219.135 127.439 219.135 127.879V132.466H217.718V124.258ZM224.802 122.745C224.525 122.745 224.275 122.649 224.08 122.456C223.886 122.263 223.774 122.032 223.774 121.764C223.774 121.496 223.886 121.27 224.08 121.088C224.275 120.895 224.525 120.798 224.802 120.798C225.08 120.798 225.316 120.895 225.511 121.088C225.719 121.27 225.816 121.496 225.816 121.764C225.816 122.032 225.719 122.263 225.511 122.456C225.33 122.649 225.08 122.745 224.802 122.745ZM224.094 124.258H225.497V132.466H224.094V124.258ZM227.72 124.258H229.067V125.465H229.137C229.373 125.058 229.748 124.714 230.262 124.435C230.762 124.146 231.318 124.001 231.887 124.001C232.915 124.001 233.693 124.29 234.221 124.87C234.763 125.438 235.04 126.216 235.04 127.203V132.466H233.624V127.412C233.624 126.651 233.429 126.098 233.054 125.755C232.679 125.412 232.165 125.24 231.512 125.24C231.054 125.24 230.637 125.363 230.276 125.61C229.914 125.857 229.637 126.184 229.442 126.592C229.234 126.989 229.137 127.407 229.137 127.847V132.466H227.72V124.258ZM240.722 136.199C239.722 136.199 238.888 135.974 238.235 135.523C237.596 135.073 237.152 134.531 236.93 133.898L238.221 133.367C238.402 133.839 238.722 134.22 239.152 134.509C239.597 134.81 240.125 134.96 240.722 134.96C241.597 134.96 242.278 134.713 242.75 134.22C243.236 133.726 243.486 133.029 243.486 132.128V131.21H243.417C243.139 131.629 242.75 131.972 242.236 132.24C241.736 132.498 241.167 132.627 240.514 132.627C239.791 132.627 239.111 132.444 238.499 132.079C237.902 131.715 237.43 131.205 237.069 130.551C236.707 129.896 236.541 129.151 236.541 128.314C236.541 127.488 236.707 126.747 237.069 126.093C237.43 125.428 237.902 124.913 238.499 124.548C239.111 124.183 239.791 124.001 240.514 124.001C241.167 124.001 241.736 124.135 242.236 124.403C242.75 124.661 243.139 125.004 243.417 125.433H243.486V124.258H244.834V132.144C244.834 133.463 244.459 134.467 243.709 135.153C242.945 135.851 241.958 136.199 240.722 136.199ZM240.722 131.387C241.236 131.387 241.694 131.264 242.097 131.017C242.528 130.771 242.861 130.416 243.097 129.955C243.361 129.494 243.486 128.947 243.486 128.314C243.486 127.67 243.361 127.117 243.097 126.656C242.861 126.195 242.528 125.846 242.097 125.61C241.694 125.363 241.236 125.24 240.722 125.24C240.208 125.24 239.736 125.363 239.319 125.61C238.902 125.857 238.555 126.211 238.305 126.672C238.055 127.134 237.93 127.681 237.93 128.314C237.93 128.947 238.055 129.499 238.305 129.971C238.555 130.433 238.902 130.787 239.319 131.033C239.736 131.269 240.208 131.387 240.722 131.387ZM253.53 132.723C252.905 132.723 252.349 132.605 251.863 132.369C251.363 132.133 250.988 131.811 250.724 131.404C250.46 130.985 250.321 130.513 250.321 129.987C250.321 129.118 250.668 128.442 251.335 127.96C252.016 127.466 252.877 127.219 253.905 127.219C254.419 127.219 254.891 127.273 255.322 127.38C255.766 127.488 256.114 127.611 256.336 127.75V127.251C256.336 126.64 256.114 126.152 255.669 125.787C255.225 125.412 254.669 125.224 253.988 125.224C253.516 125.224 253.072 125.326 252.669 125.53C252.28 125.723 251.96 125.996 251.724 126.35L250.654 125.578C250.988 125.084 251.446 124.698 252.03 124.419C252.613 124.14 253.266 124.001 253.975 124.001C255.128 124.001 256.03 124.296 256.697 124.886C257.364 125.465 257.697 126.259 257.697 127.268V132.466H256.336V131.291H256.28C256.03 131.688 255.669 132.026 255.169 132.305C254.683 132.584 254.141 132.723 253.53 132.723ZM253.655 131.516C254.141 131.516 254.586 131.398 254.989 131.162C255.405 130.926 255.725 130.61 255.975 130.213C256.225 129.816 256.336 129.381 256.336 128.909C256.072 128.737 255.753 128.598 255.364 128.491C254.975 128.383 254.558 128.33 254.127 128.33C253.349 128.33 252.752 128.485 252.363 128.796C251.974 129.108 251.78 129.51 251.78 130.003C251.78 130.454 251.946 130.819 252.307 131.098C252.669 131.377 253.113 131.516 253.655 131.516ZM259.656 124.258H261.017V125.465H261.073C261.309 125.058 261.684 124.714 262.198 124.435C262.712 124.146 263.254 124.001 263.824 124.001C264.852 124.001 265.63 124.29 266.157 124.87C266.713 125.438 266.977 126.216 266.977 127.203V132.466H265.56V127.412C265.56 126.651 265.379 126.098 264.99 125.755C264.615 125.412 264.101 125.24 263.448 125.24C262.99 125.24 262.573 125.363 262.212 125.61C261.851 125.857 261.573 126.184 261.379 126.592C261.184 126.989 261.073 127.407 261.073 127.847V132.466H259.656V124.258ZM272.603 132.723C271.853 132.723 271.158 132.535 270.547 132.16C269.936 131.784 269.45 131.269 269.088 130.615C268.741 129.95 268.561 129.199 268.561 128.362C268.561 127.536 268.741 126.79 269.088 126.125C269.45 125.46 269.936 124.939 270.547 124.564C271.158 124.188 271.853 124.001 272.603 124.001C273.27 124.001 273.853 124.146 274.353 124.435C274.867 124.714 275.256 125.063 275.52 125.481H275.59L275.52 124.339V120.943H276.937V132.466H275.59V131.259H275.52C275.256 131.666 274.867 132.015 274.353 132.305C273.853 132.584 273.27 132.723 272.603 132.723ZM272.77 131.484C273.27 131.484 273.742 131.355 274.159 131.098C274.589 130.84 274.937 130.475 275.187 130.003C275.465 129.531 275.59 128.984 275.59 128.362C275.59 127.74 275.465 127.192 275.187 126.72C274.937 126.248 274.589 125.884 274.159 125.626C273.742 125.369 273.27 125.24 272.77 125.24C272.283 125.24 271.825 125.369 271.394 125.626C270.964 125.884 270.603 126.254 270.339 126.737C270.089 127.209 269.964 127.75 269.964 128.362C269.964 128.973 270.089 129.521 270.339 130.003C270.603 130.475 270.964 130.84 271.394 131.098C271.825 131.355 272.283 131.484 272.77 131.484ZM283.188 120.943H285.244L289.051 130.39H289.106L292.912 120.943H294.968V132.466H293.565V125.143L293.635 122.955H293.565L289.662 132.466H288.495L284.591 122.955H284.522L284.591 125.143V132.466H283.188V120.943ZM299.816 132.723C299.205 132.723 298.649 132.605 298.149 132.369C297.663 132.133 297.288 131.811 297.024 131.404C296.76 130.985 296.621 130.513 296.621 129.987C296.621 129.118 296.955 128.442 297.635 127.96C298.316 127.466 299.177 127.219 300.205 127.219C300.719 127.219 301.192 127.273 301.622 127.38C302.067 127.488 302.4 127.611 302.636 127.75V127.251C302.636 126.64 302.414 126.152 301.969 125.787C301.525 125.412 300.969 125.224 300.289 125.224C299.816 125.224 299.372 125.326 298.969 125.53C298.566 125.723 298.26 125.996 298.024 126.35L296.955 125.578C297.288 125.084 297.746 124.698 298.316 124.419C298.913 124.14 299.566 124.001 300.275 124.001C301.428 124.001 302.331 124.296 302.984 124.886C303.65 125.465 303.984 126.259 303.984 127.268V132.466H302.636V131.291H302.567C302.331 131.688 301.956 132.026 301.469 132.305C300.983 132.584 300.428 132.723 299.816 132.723ZM299.955 131.516C300.428 131.516 300.872 131.398 301.289 131.162C301.706 130.926 302.025 130.61 302.275 130.213C302.511 129.816 302.636 129.381 302.636 128.909C302.372 128.737 302.039 128.598 301.65 128.491C301.261 128.383 300.858 128.33 300.428 128.33C299.65 128.33 299.052 128.485 298.649 128.796C298.26 129.108 298.066 129.51 298.066 130.003C298.066 130.454 298.247 130.819 298.608 131.098C298.955 131.377 299.414 131.516 299.955 131.516ZM305.956 124.258H307.318V125.465H307.373C307.609 125.058 307.985 124.714 308.499 124.435C309.013 124.146 309.554 124.001 310.124 124.001C311.152 124.001 311.93 124.29 312.458 124.87C313.013 125.438 313.277 126.216 313.277 127.203V132.466H311.86V127.412C311.86 126.651 311.68 126.098 311.291 125.755C310.916 125.412 310.402 125.24 309.749 125.24C309.29 125.24 308.874 125.363 308.512 125.61C308.151 125.857 307.873 126.184 307.679 126.592C307.484 126.989 307.373 127.407 307.373 127.847V132.466H305.956V124.258ZM317.945 132.723C317.32 132.723 316.764 132.605 316.278 132.369C315.792 132.133 315.402 131.811 315.139 131.404C314.875 130.985 314.736 130.513 314.736 129.987C314.736 129.118 315.083 128.442 315.764 127.96C316.431 127.466 317.292 127.219 318.32 127.219C318.834 127.219 319.306 127.273 319.737 127.38C320.181 127.488 320.529 127.611 320.765 127.75V127.251C320.765 126.64 320.542 126.152 320.098 125.787C319.653 125.412 319.084 125.224 318.403 125.224C317.931 125.224 317.486 125.326 317.097 125.53C316.694 125.723 316.375 125.996 316.139 126.35L315.069 125.578C315.403 125.084 315.861 124.698 316.444 124.419C317.028 124.14 317.681 124.001 318.389 124.001C319.542 124.001 320.459 124.296 321.112 124.886C321.779 125.465 322.112 126.259 322.112 127.268V132.466H320.765V131.291H320.695C320.445 131.688 320.084 132.026 319.598 132.305C319.098 132.584 318.556 132.723 317.945 132.723ZM318.07 131.516C318.556 131.516 319 131.398 319.403 131.162C319.82 130.926 320.153 130.61 320.39 130.213C320.64 129.816 320.765 129.381 320.765 128.909C320.487 128.737 320.167 128.598 319.778 128.491C319.389 128.383 318.973 128.33 318.542 128.33C317.764 128.33 317.181 128.485 316.778 128.796C316.389 129.108 316.194 129.51 316.194 130.003C316.194 130.454 316.375 130.819 316.722 131.098C317.083 131.377 317.528 131.516 318.07 131.516ZM327.738 136.199C326.738 136.199 325.905 135.974 325.252 135.523C324.599 135.073 324.168 134.531 323.946 133.898L325.238 133.367C325.418 133.839 325.738 134.22 326.168 134.509C326.613 134.81 327.127 134.96 327.738 134.96C328.613 134.96 329.294 134.713 329.766 134.22C330.253 133.726 330.503 133.029 330.503 132.128V131.21H330.433C330.155 131.629 329.766 131.972 329.252 132.24C328.752 132.498 328.183 132.627 327.53 132.627C326.794 132.627 326.127 132.444 325.516 132.079C324.918 131.715 324.432 131.205 324.085 130.551C323.724 129.896 323.543 129.151 323.543 128.314C323.543 127.488 323.724 126.747 324.085 126.093C324.432 125.428 324.918 124.913 325.516 124.548C326.127 124.183 326.794 124.001 327.53 124.001C328.183 124.001 328.752 124.135 329.252 124.403C329.766 124.661 330.155 125.004 330.433 125.433H330.503V124.258H331.85V132.144C331.85 133.463 331.475 134.467 330.711 135.153C329.961 135.851 328.961 136.199 327.738 136.199ZM327.738 131.387C328.238 131.387 328.711 131.264 329.113 131.017C329.544 130.771 329.877 130.416 330.114 129.955C330.378 129.494 330.503 128.947 330.503 128.314C330.503 127.67 330.378 127.117 330.114 126.656C329.877 126.195 329.544 125.846 329.113 125.61C328.711 125.363 328.238 125.24 327.738 125.24C327.224 125.24 326.752 125.363 326.335 125.61C325.905 125.857 325.571 126.211 325.321 126.672C325.071 127.134 324.946 127.681 324.946 128.314C324.946 128.947 325.071 129.499 325.321 129.971C325.571 130.433 325.905 130.787 326.335 131.033C326.752 131.269 327.224 131.387 327.738 131.387ZM337.643 132.723C336.837 132.723 336.101 132.535 335.462 132.16C334.823 131.784 334.309 131.269 333.948 130.615C333.586 129.95 333.406 129.204 333.406 128.378C333.406 127.584 333.573 126.855 333.906 126.189C334.253 125.524 334.74 124.993 335.365 124.596C335.99 124.199 336.712 124.001 337.532 124.001C338.365 124.001 339.088 124.183 339.699 124.548C340.31 124.902 340.768 125.395 341.102 126.028C341.435 126.661 341.602 127.386 341.602 128.201C341.602 128.362 341.574 128.501 341.546 128.619H334.823C334.865 129.242 335.017 129.767 335.295 130.197C335.573 130.626 335.92 130.948 336.351 131.162C336.782 131.377 337.226 131.484 337.698 131.484C338.782 131.484 339.629 130.99 340.213 130.003L341.407 130.567C341.046 131.232 340.546 131.758 339.907 132.144C339.296 132.53 338.532 132.723 337.643 132.723ZM340.102 127.493C340.074 127.15 339.977 126.806 339.796 126.463C339.615 126.12 339.338 125.83 338.949 125.594C338.574 125.358 338.087 125.24 337.518 125.24C336.851 125.24 336.281 125.449 335.809 125.868C335.351 126.275 335.059 126.817 334.906 127.493H340.102ZM343.255 124.258H344.603V125.465H344.672C344.922 125.047 345.283 124.698 345.769 124.419C346.256 124.14 346.783 124.001 347.325 124.001C347.95 124.001 348.478 124.146 348.937 124.435C349.409 124.725 349.742 125.111 349.937 125.594C350.242 125.111 350.631 124.725 351.118 124.435C351.618 124.146 352.201 124.001 352.854 124.001C353.84 124.001 354.563 124.29 355.063 124.87C355.563 125.438 355.813 126.216 355.813 127.203V132.466H354.41V127.412C354.41 126.651 354.243 126.098 353.924 125.755C353.604 125.412 353.118 125.24 352.493 125.24C352.062 125.24 351.687 125.358 351.34 125.594C350.993 125.83 350.729 126.146 350.52 126.543C350.34 126.94 350.242 127.37 350.242 127.831V132.466H348.825V127.429C348.825 126.656 348.659 126.098 348.339 125.755C348.02 125.412 347.547 125.24 346.922 125.24C346.506 125.24 346.117 125.363 345.769 125.61C345.422 125.846 345.158 126.168 344.95 126.576C344.769 126.973 344.672 127.402 344.672 127.863V132.466H343.255V124.258ZM361.62 132.723C360.814 132.723 360.091 132.535 359.439 132.16C358.799 131.784 358.286 131.269 357.924 130.615C357.563 129.95 357.396 129.204 357.396 128.378C357.396 127.584 357.563 126.855 357.897 126.189C358.23 125.524 358.716 124.993 359.341 124.596C359.966 124.199 360.689 124.001 361.508 124.001C362.342 124.001 363.064 124.183 363.675 124.548C364.287 124.902 364.759 125.395 365.079 126.028C365.412 126.661 365.579 127.386 365.579 128.201C365.579 128.362 365.565 128.501 365.523 128.619H358.813C358.841 129.242 358.994 129.767 359.272 130.197C359.55 130.626 359.897 130.948 360.328 131.162C360.758 131.377 361.203 131.484 361.675 131.484C362.759 131.484 363.606 130.99 364.189 130.003L365.398 130.567C365.023 131.232 364.523 131.758 363.898 132.144C363.273 132.53 362.509 132.723 361.62 132.723ZM364.078 127.493C364.051 127.15 363.953 126.806 363.773 126.463C363.592 126.12 363.314 125.83 362.925 125.594C362.55 125.358 362.064 125.24 361.494 125.24C360.828 125.24 360.258 125.449 359.786 125.868C359.341 126.275 359.036 126.817 358.897 127.493H364.078ZM367.232 124.258H368.579V125.465H368.649C368.885 125.058 369.26 124.714 369.774 124.435C370.274 124.146 370.829 124.001 371.399 124.001C372.427 124.001 373.205 124.29 373.733 124.87C374.275 125.438 374.552 126.216 374.552 127.203V132.466H373.135V127.412C373.135 126.651 372.941 126.098 372.566 125.755C372.191 125.412 371.677 125.24 371.024 125.24C370.566 125.24 370.149 125.363 369.788 125.61C369.427 125.857 369.149 126.184 368.954 126.592C368.746 126.989 368.649 127.407 368.649 127.847V132.466H367.232V124.258ZM379.428 132.594C379.081 132.594 378.762 132.541 378.456 132.433C378.164 132.326 377.928 132.181 377.72 131.999C377.497 131.795 377.331 131.559 377.22 131.291C377.109 131.023 377.053 130.695 377.053 130.309V125.497H375.566V124.258H377.053V121.941H378.47V124.258H380.54V125.497H378.47V129.971C378.47 130.422 378.567 130.754 378.734 130.969C378.956 131.205 379.262 131.323 379.651 131.323C379.984 131.323 380.29 131.232 380.595 131.049V132.385C380.428 132.46 380.248 132.514 380.067 132.546C379.901 132.578 379.692 132.594 379.428 132.594Z" />
    <defs>
        <linearGradient id="paint0_linear_701_2365" x1="425.479" y1="130.674" x2="8.95706" y2="130.674"
            gradientUnits="userSpaceOnUse">
            <stop stop-color="#348BCA" />
            <stop offset="0.404875" stop-color="#59A43A" />
            <stop offset="0.711571" stop-color="#F3B002" />
            <stop offset="1" stop-color="#DF572E" />
        </linearGradient>
    </defs>
</svg>