<svg width="428" height="167" viewBox="0 0 428 167" fill="none" xmlns="http://www.w3.org/2000/svg">
    <path
        d="M417.144 1.44629H11.5131C6.14266 1.44629 1.78906 5.64926 1.78906 10.8339V155.671C1.78906 160.856 6.14266 165.059 11.5131 165.059H417.144C422.515 165.059 426.868 160.856 426.868 155.671V10.8339C426.868 5.64926 422.515 1.44629 417.144 1.44629Z"
        fill="var(--background-color)" stroke="url(#paint0_linear_701_2360)" stroke-width="2" />
    <path
        d="M50.5339 103.558C48.9919 103.558 47.575 103.2 46.2692 102.486C44.9773 101.772 43.9354 100.795 43.1713 99.5561C42.4073 98.3022 42.0322 96.9101 42.0322 95.3786C42.0322 93.8485 42.4073 92.4631 43.1713 91.2239C43.9354 89.97 44.9773 88.9857 46.2692 88.2722C47.575 87.5574 48.9919 87.2007 50.5339 87.2007C51.7563 87.2007 52.8954 87.4112 53.9511 87.8337C55.0069 88.2575 55.8959 88.8475 56.6044 89.6052L54.8402 91.3111C54.2984 90.7425 53.6733 90.3053 52.9371 89.9995C52.2008 89.6938 51.3951 89.5395 50.5061 89.5395C49.4642 89.5395 48.4918 89.7809 47.5888 90.261C46.6859 90.7425 45.9497 91.4278 45.4079 92.3169C44.8662 93.2061 44.5883 94.2266 44.5883 95.3786C44.5883 96.5306 44.8662 97.5512 45.4079 98.4403C45.9497 99.3295 46.6859 100.015 47.5888 100.496C48.4918 100.976 49.4781 101.218 50.5339 101.218C51.4924 101.218 52.2981 101.08 52.951 100.802C53.6039 100.524 54.1873 100.153 54.7013 99.6862C55.0347 99.3657 55.3125 98.9647 55.5348 98.4846C55.7709 98.0031 55.9377 97.4774 56.0071 96.9101H50.5061V94.7228H58.4103C58.4937 95.1305 58.5214 95.5543 58.5214 95.9915C58.5214 96.9825 58.3686 97.9374 58.0491 98.856C57.7296 99.7599 57.2296 100.547 56.535 101.218C55.007 102.777 53.0066 103.558 50.5339 103.558ZM66.3562 103.558C65.1893 103.558 64.1475 103.302 63.2306 102.792C62.2999 102.266 61.5915 101.553 61.0776 100.649C60.5636 99.7452 60.2995 98.7394 60.2995 97.6316C60.2995 96.5226 60.5636 95.5167 61.0776 94.6129C61.5915 93.709 62.2999 93.0022 63.2306 92.4926C64.1475 91.9669 65.1893 91.7054 66.3562 91.7054C67.5092 91.7054 68.5511 91.9669 69.4818 92.4926C70.3986 93.017 71.121 93.7318 71.6211 94.6357C72.1351 95.5396 72.399 96.5373 72.399 97.6316C72.399 98.7394 72.1351 99.7452 71.6211 100.649C71.121 101.553 70.3986 102.266 69.4818 102.792C68.5511 103.302 67.5092 103.558 66.3562 103.558ZM66.3562 101.349C66.9813 101.349 67.5787 101.203 68.1205 100.912C68.6622 100.605 69.0929 100.176 69.4124 99.6205C69.7458 99.0519 69.9125 98.3894 69.9125 97.6316C69.9125 96.8726 69.7458 96.2168 69.4124 95.6629C69.0929 95.1091 68.6622 94.6866 68.1205 94.3943C67.5787 94.0885 66.9813 93.9356 66.3562 93.9356C65.7172 93.9356 65.1198 94.0885 64.5781 94.3943C64.0363 94.6866 63.6057 95.1091 63.2723 95.6629C62.9528 96.2168 62.8001 96.8726 62.8001 97.6316C62.8001 98.3894 62.9528 99.0519 63.2723 99.6205C63.6057 100.176 64.0363 100.605 64.5781 100.912C65.1198 101.203 65.7172 101.349 66.3562 101.349ZM80.1088 103.558C78.9419 103.558 77.9001 103.302 76.9832 102.792C76.0664 102.266 75.344 101.553 74.83 100.649C74.316 99.7452 74.066 98.7394 74.066 97.6316C74.066 96.5226 74.316 95.5167 74.83 94.6129C75.344 93.709 76.0664 93.0022 76.9832 92.4926C77.9001 91.9669 78.9419 91.7054 80.1088 91.7054C81.2757 91.7054 82.3175 91.9669 83.2344 92.4926C84.1512 93.017 84.8736 93.7318 85.3876 94.6357C85.9016 95.5396 86.1516 96.5373 86.1516 97.6316C86.1516 98.7394 85.9016 99.7452 85.3876 100.649C84.8736 101.553 84.1512 102.266 83.2344 102.792C82.3175 103.302 81.2757 103.558 80.1088 103.558ZM80.1088 101.349C80.7478 101.349 81.3313 101.203 81.873 100.912C82.4148 100.605 82.8454 100.176 83.1649 99.6205C83.4983 99.0519 83.6649 98.3894 83.6649 97.6316C83.6649 96.8726 83.4983 96.2168 83.1649 95.6629C82.8454 95.1091 82.4148 94.6866 81.873 94.3943C81.3313 94.0885 80.7478 93.9356 80.1088 93.9356C79.4698 93.9356 78.8863 94.0885 78.3446 94.3943C77.8028 94.6866 77.3583 95.1091 77.0249 95.6629C76.7054 96.2168 76.5525 96.8726 76.5525 97.6316C76.5525 98.3894 76.7054 99.0519 77.0249 99.6205C77.3583 100.176 77.8028 100.605 78.3446 100.912C78.8863 101.203 79.4698 101.349 80.1088 101.349ZM93.6669 108.281C92.25 108.281 91.0691 107.967 90.1245 107.34C89.2077 106.713 88.5965 105.971 88.277 105.11L90.6107 104.169C90.8468 104.753 91.2359 105.22 91.7638 105.57C92.3055 105.933 92.9445 106.115 93.6669 106.115C94.7226 106.115 95.5423 105.81 96.1396 105.197C96.7369 104.6 97.0424 103.754 97.0424 102.661V101.633H96.9035C96.5285 102.158 96.0145 102.574 95.3894 102.879C94.7643 103.17 94.0558 103.317 93.2362 103.317C92.2638 103.317 91.3748 103.076 90.5413 102.595C89.7078 102.114 89.0409 101.436 88.5409 100.562C88.0546 99.6714 87.8186 98.6589 87.8186 97.5217C87.8186 96.3844 88.0546 95.3786 88.5409 94.5042C89.0409 93.6151 89.7078 92.9298 90.5413 92.4483C91.3748 91.9521 92.2638 91.7054 93.2362 91.7054C94.028 91.7054 94.7504 91.8583 95.3894 92.164C96.0145 92.4698 96.5285 92.8855 96.9035 93.4112H97.0424V92.0554H99.418V102.595C99.418 103.805 99.1818 104.833 98.6956 105.678C98.2094 106.539 97.5288 107.187 96.6536 107.624C95.7923 108.063 94.7921 108.281 93.6669 108.281ZM93.6808 101.131C94.292 101.131 94.8476 100.991 95.3616 100.715C95.8756 100.422 96.2785 100.008 96.5841 99.4676C96.8897 98.9137 97.0424 98.2646 97.0424 97.5217C97.0424 96.3844 96.7091 95.502 96.0701 94.8757C95.4311 94.2347 94.6393 93.9142 93.6808 93.9142C93.0696 93.9142 92.5001 94.059 91.9861 94.3514C91.4721 94.6276 91.0692 95.0366 90.7636 95.5758C90.458 96.1149 90.3051 96.764 90.3051 97.5217C90.3051 98.2794 90.458 98.9285 90.7636 99.4676C91.0692 100.008 91.4721 100.422 91.9861 100.715C92.5001 100.991 93.0696 101.131 93.6808 101.131ZM102.349 87.5507H104.836V103.208H102.349V87.5507ZM112.934 103.558C111.795 103.558 110.781 103.302 109.878 102.792C108.989 102.281 108.281 101.582 107.767 100.692C107.267 99.7881 107.017 98.7756 107.017 97.6531C107.017 96.5883 107.267 95.6053 107.739 94.7014C108.239 93.7827 108.934 93.0532 109.809 92.5141C110.684 91.975 111.684 91.7054 112.795 91.7054C113.962 91.7054 114.962 91.9521 115.81 92.4483C116.671 92.9445 117.324 93.6218 117.755 94.4828C118.213 95.3424 118.435 96.312 118.435 97.3903C118.435 97.5941 118.408 97.8502 118.366 98.156H109.517C109.6 99.1913 109.975 99.9933 110.642 100.562C111.323 101.116 112.115 101.392 113.004 101.392C113.712 101.392 114.324 101.239 114.837 100.933C115.365 100.613 115.782 100.182 116.102 99.6433L118.213 100.605C117.671 101.523 116.963 102.245 116.088 102.771C115.199 103.295 114.157 103.558 112.934 103.558ZM115.893 96.3187C115.865 95.9258 115.74 95.5395 115.518 95.16C115.282 94.7671 114.935 94.4385 114.476 94.1757C114.018 93.9142 113.462 93.7827 112.795 93.7827C111.99 93.7827 111.323 94.0161 110.753 94.4828C110.212 94.9347 109.837 95.5463 109.628 96.3187H115.893ZM126.423 87.5507H131.604C133.285 87.5507 134.744 87.8779 136.008 88.5337C137.258 89.1895 138.217 90.1162 138.884 91.3111C139.564 92.4926 139.898 93.8485 139.898 95.3786C139.898 96.9101 139.564 98.2727 138.884 99.4676C138.217 100.649 137.258 101.568 136.008 102.224C134.744 102.879 133.285 103.208 131.604 103.208H126.423V87.5507ZM131.563 100.868C133.383 100.868 134.786 100.386 135.8 99.4247C136.828 98.447 137.342 97.0992 137.342 95.3786C137.342 93.6728 136.828 92.3317 135.8 91.3554C134.786 90.3777 133.383 89.8896 131.563 89.8896H128.965V100.868H131.563ZM147.33 103.558C146.191 103.558 145.176 103.302 144.273 102.792C143.384 102.281 142.676 101.582 142.162 100.692C141.662 99.7881 141.412 98.7756 141.412 97.6531C141.412 96.5883 141.662 95.6053 142.148 94.7014C142.634 93.7827 143.329 93.0532 144.204 92.5141C145.079 91.975 146.079 91.7054 147.191 91.7054C148.358 91.7054 149.358 91.9521 150.205 92.4483C151.066 92.9445 151.719 93.6218 152.15 94.4828C152.608 95.3424 152.831 96.312 152.831 97.3903C152.831 97.5941 152.817 97.8502 152.761 98.156H143.912C143.996 99.1913 144.385 99.9933 145.038 100.562C145.718 101.116 146.51 101.392 147.399 101.392C148.107 101.392 148.719 101.239 149.233 100.933C149.761 100.613 150.177 100.182 150.497 99.6433L152.608 100.605C152.067 101.523 151.358 102.245 150.483 102.771C149.608 103.295 148.552 103.558 147.33 103.558ZM150.302 96.3187C150.261 95.9258 150.136 95.5395 149.913 95.16C149.691 94.7671 149.344 94.4385 148.872 94.1757C148.413 93.9142 147.858 93.7827 147.191 93.7827C146.399 93.7827 145.718 94.0161 145.149 94.4828C144.607 94.9347 144.232 95.5463 144.023 96.3187H150.302ZM153.595 92.0554H156.373L159.568 100.102H159.665L162.93 92.0554H165.639L160.846 103.208H158.346L153.595 92.0554ZM172.195 103.558C171.056 103.558 170.042 103.302 169.139 102.792C168.25 102.281 167.542 101.582 167.028 100.692C166.528 99.7881 166.278 98.7756 166.278 97.6531C166.278 96.5883 166.528 95.6053 167 94.7014C167.5 93.7827 168.195 93.0532 169.07 92.5141C169.945 91.975 170.945 91.7054 172.056 91.7054C173.223 91.7054 174.224 91.9521 175.071 92.4483C175.932 92.9445 176.585 93.6218 177.016 94.4828C177.474 95.3424 177.696 96.312 177.696 97.3903C177.696 97.5941 177.669 97.8502 177.627 98.156H168.778C168.861 99.1913 169.237 99.9933 169.903 100.562C170.584 101.116 171.376 101.392 172.265 101.392C172.973 101.392 173.585 101.239 174.099 100.933C174.626 100.613 175.043 100.182 175.363 99.6433L177.474 100.605C176.932 101.523 176.224 102.245 175.349 102.771C174.46 103.295 173.418 103.558 172.195 103.558ZM175.154 96.3187C175.127 95.9258 175.001 95.5395 174.779 95.16C174.543 94.7671 174.196 94.4385 173.737 94.1757C173.279 93.9142 172.723 93.7827 172.056 93.7827C171.251 93.7827 170.584 94.0161 170.014 94.4828C169.473 94.9347 169.098 95.5463 168.889 96.3187H175.154ZM179.961 87.5507H182.461V103.208H179.961V87.5507ZM190.685 103.558C189.532 103.558 188.49 103.302 187.559 102.792C186.642 102.266 185.92 101.553 185.406 100.649C184.892 99.7452 184.642 98.7394 184.642 97.6316C184.642 96.5226 184.892 95.5167 185.406 94.6129C185.92 93.709 186.642 93.0022 187.559 92.4926C188.49 91.9669 189.532 91.7054 190.685 91.7054C191.852 91.7054 192.894 91.9669 193.81 92.4926C194.741 93.017 195.45 93.7318 195.964 94.6357C196.478 95.5396 196.742 96.5373 196.742 97.6316C196.742 98.7394 196.478 99.7452 195.964 100.649C195.45 101.553 194.741 102.266 193.81 102.792C192.894 103.302 191.852 103.558 190.685 103.558ZM190.685 101.349C191.324 101.349 191.907 101.203 192.463 100.912C193.005 100.605 193.436 100.176 193.741 99.6205C194.075 99.0519 194.241 98.3894 194.241 97.6316C194.241 96.8726 194.075 96.2168 193.741 95.6629C193.436 95.1091 193.005 94.6866 192.463 94.3943C191.907 94.0885 191.324 93.9356 190.685 93.9356C190.06 93.9356 189.462 94.0885 188.921 94.3943C188.379 94.6866 187.934 95.1091 187.615 95.6629C187.295 96.2168 187.129 96.8726 187.129 97.6316C187.129 98.3894 187.295 99.0519 187.615 99.6205C187.934 100.176 188.379 100.605 188.921 100.912C189.462 101.203 190.06 101.349 190.685 101.349ZM198.839 92.0554H201.215V93.5199H201.326C201.659 93.0103 202.145 92.5798 202.798 92.2298C203.451 91.8797 204.174 91.7054 204.993 91.7054C206.035 91.7054 206.98 91.9602 207.827 92.4698C208.674 92.9808 209.341 93.6875 209.813 94.5914C210.314 95.4805 210.564 96.4944 210.564 97.6316C210.564 98.7689 210.314 99.7881 209.813 100.692C209.341 101.582 208.674 102.281 207.827 102.792C206.98 103.302 206.035 103.558 204.993 103.558C204.174 103.558 203.451 103.382 202.798 103.032C202.145 102.682 201.659 102.26 201.326 101.764H201.215L201.326 103.317V107.931H198.839V92.0554ZM204.632 101.349C205.243 101.349 205.799 101.195 206.327 100.889C206.855 100.583 207.285 100.146 207.605 99.5776C207.91 99.0089 208.077 98.3599 208.077 97.6316C208.077 96.9021 207.91 96.2611 207.605 95.7072C207.285 95.1386 206.855 94.7014 206.327 94.3943C205.799 94.0885 205.243 93.9356 204.632 93.9356C204.035 93.9356 203.465 94.0885 202.937 94.3943C202.423 94.7014 202.007 95.1386 201.687 95.7072C201.367 96.2611 201.215 96.9021 201.215 97.6316C201.215 98.3599 201.367 99.0089 201.687 99.5776C202.007 100.146 202.423 100.583 202.937 100.889C203.465 101.195 204.035 101.349 204.632 101.349ZM218.121 103.558C216.981 103.558 215.967 103.302 215.064 102.792C214.162 102.281 213.467 101.582 212.953 100.692C212.453 99.7881 212.203 98.7756 212.203 97.6531C212.203 96.5883 212.439 95.6053 212.925 94.7014C213.425 93.7827 214.12 93.0532 214.995 92.5141C215.87 91.975 216.856 91.7054 217.982 91.7054C219.149 91.7054 220.149 91.9521 220.996 92.4483C221.857 92.9445 222.496 93.6218 222.941 94.4828C223.399 95.3424 223.622 96.312 223.622 97.3903C223.622 97.5941 223.594 97.8502 223.552 98.156H214.689C214.787 99.1913 215.162 99.9933 215.828 100.562C216.509 101.116 217.287 101.392 218.19 101.392C218.899 101.392 219.51 101.239 220.024 100.933C220.552 100.613 220.968 100.182 221.288 99.6433L223.399 100.605C222.844 101.523 222.135 102.245 221.26 102.771C220.385 103.295 219.343 103.558 218.121 103.558ZM221.079 96.3187C221.052 95.9258 220.927 95.5395 220.704 95.16C220.468 94.7671 220.121 94.4385 219.662 94.1757C219.204 93.9142 218.648 93.7827 217.982 93.7827C217.176 93.7827 216.495 94.0161 215.94 94.4828C215.398 94.9347 215.023 95.5463 214.814 96.3187H221.079ZM225.886 92.0554H228.261V93.6956H228.386C228.636 93.1269 229.081 92.6602 229.72 92.2955C230.345 91.9159 231.026 91.7268 231.734 91.7268C232.29 91.7268 232.762 91.7993 233.137 91.9454V94.4385C232.471 94.2052 231.873 94.0885 231.345 94.0885C230.776 94.0885 230.262 94.2347 229.803 94.5257C229.373 94.8181 229.025 95.211 228.761 95.7072C228.511 96.1873 228.386 96.7197 228.386 97.3031V103.208H225.886V92.0554ZM244.764 103.558C243.417 103.558 242.208 103.178 241.139 102.421C240.069 101.662 239.333 100.598 238.916 99.2275L241.319 98.2874C241.569 99.1471 241.986 99.8538 242.597 100.408C243.209 100.948 243.945 101.218 244.806 101.218C245.612 101.218 246.293 101.021 246.848 100.628C247.404 100.219 247.696 99.6647 247.696 98.9647C247.696 98.3236 247.445 97.7993 246.945 97.3903C246.459 96.9678 245.612 96.5454 244.375 96.1216L243.361 95.7729C242.278 95.4081 241.361 94.8824 240.625 94.1985C239.889 93.5132 239.513 92.6093 239.513 91.4868C239.513 90.713 239.736 89.9995 240.166 89.3437C240.611 88.6866 241.208 88.1703 241.986 87.7908C242.764 87.3965 243.653 87.2007 244.626 87.2007C246.056 87.2007 247.182 87.536 248.029 88.2065C248.876 88.8623 249.446 89.6052 249.724 90.4367L247.445 91.3768C247.279 90.8806 246.959 90.4434 246.487 90.0652C246.015 89.6857 245.417 89.4966 244.681 89.4966C243.931 89.4966 243.306 89.679 242.792 90.0424C242.292 90.4072 242.056 90.8739 242.056 91.4425C242.056 91.9816 242.278 92.4269 242.722 92.7769C243.181 93.1269 243.889 93.4622 244.862 93.7827L245.876 94.1099C247.265 94.5766 248.335 95.1895 249.099 95.9472C249.863 96.6902 250.252 97.6893 250.252 98.9432C250.252 99.9638 249.974 100.823 249.432 101.523C248.89 102.209 248.196 102.718 247.348 103.054C246.515 103.39 245.654 103.558 244.764 103.558ZM256.906 103.382C256.392 103.382 255.905 103.302 255.447 103.142C255.002 102.981 254.627 102.771 254.35 102.508C253.697 101.88 253.363 101.027 253.363 99.949V94.1757H251.349V92.0554H253.363V88.9052H255.864V92.0554H258.67V94.1757H255.864V99.4247C255.864 100.021 255.975 100.445 256.225 100.692C256.447 100.984 256.836 101.131 257.406 101.131C257.656 101.131 257.878 101.101 258.086 101.042C258.281 100.97 258.489 100.86 258.711 100.715V103.054C258.211 103.274 257.614 103.382 256.906 103.382ZM265.254 103.558C263.851 103.558 262.782 103.157 262.031 102.355C261.309 101.538 260.948 100.408 260.948 98.9647V92.0554H263.435V98.6375C263.435 99.5413 263.657 100.219 264.101 100.671C264.546 101.122 265.143 101.349 265.866 101.349C266.449 101.349 266.977 101.203 267.421 100.912C267.88 100.605 268.227 100.204 268.463 99.709C268.713 99.2128 268.824 98.6804 268.824 98.1118V92.0554H271.325V103.208H268.963V101.764H268.824C268.519 102.289 268.019 102.718 267.352 103.054C266.699 103.39 265.991 103.558 265.254 103.558ZM279.049 103.558C278.007 103.558 277.062 103.302 276.215 102.792C275.367 102.281 274.701 101.582 274.2 100.692C273.714 99.7881 273.478 98.7689 273.478 97.6316C273.478 96.4944 273.714 95.4805 274.2 94.5914C274.701 93.6875 275.367 92.9808 276.215 92.4698C277.062 91.9602 278.007 91.7054 279.049 91.7054C279.868 91.7054 280.604 91.8797 281.243 92.2298C281.896 92.5798 282.383 93.0103 282.716 93.5199H282.827L282.716 91.9454V87.5507H285.216V103.208H282.827V101.764H282.716C282.383 102.26 281.896 102.682 281.243 103.032C280.604 103.382 279.868 103.558 279.049 103.558ZM279.41 101.349C280.021 101.349 280.577 101.195 281.091 100.889C281.619 100.583 282.035 100.146 282.355 99.5776C282.674 99.0089 282.827 98.3599 282.827 97.6316C282.827 96.9021 282.674 96.2611 282.355 95.7072C282.035 95.1386 281.619 94.7014 281.091 94.3943C280.577 94.0885 280.021 93.9356 279.41 93.9356C278.812 93.9356 278.243 94.0885 277.715 94.3943C277.187 94.7014 276.756 95.1386 276.451 95.7072C276.131 96.2611 275.965 96.9021 275.965 97.6316C275.965 98.3599 276.131 99.0089 276.451 99.5776C276.756 100.146 277.187 100.583 277.715 100.889C278.243 101.195 278.812 101.349 279.41 101.349ZM293.287 103.558C292.148 103.558 291.134 103.302 290.217 102.792C289.328 102.281 288.634 101.582 288.12 100.692C287.62 99.7881 287.37 98.7756 287.37 97.6531C287.37 96.5883 287.606 95.6053 288.092 94.7014C288.592 93.7827 289.287 93.0532 290.162 92.5141C291.037 91.975 292.023 91.7054 293.148 91.7054C294.315 91.7054 295.316 91.9521 296.163 92.4483C297.024 92.9445 297.663 93.6218 298.108 94.4828C298.566 95.3424 298.788 96.312 298.788 97.3903C298.788 97.5941 298.761 97.8502 298.719 98.156H289.856C289.953 99.1913 290.328 99.9933 290.995 100.562C291.676 101.116 292.454 101.392 293.343 101.392C294.065 101.392 294.676 101.239 295.19 100.933C295.718 100.613 296.135 100.182 296.455 99.6433L298.566 100.605C298.01 101.523 297.302 102.245 296.427 102.771C295.552 103.295 294.51 103.558 293.287 103.558ZM296.246 96.3187C296.218 95.9258 296.093 95.5395 295.857 95.16C295.635 94.7671 295.288 94.4385 294.815 94.1757C294.371 93.9142 293.815 93.7827 293.148 93.7827C292.343 93.7827 291.662 94.0161 291.106 94.4828C290.565 94.9347 290.189 95.5463 289.981 96.3187H296.246ZM301.053 92.0554H303.428V93.5199H303.553C303.873 92.9955 304.373 92.565 305.026 92.2298C305.679 91.8797 306.387 91.7054 307.123 91.7054C308.526 91.7054 309.596 92.1064 310.318 92.907C311.055 93.6956 311.43 94.7738 311.43 96.1444V103.208H308.943V96.4716C308.943 95.5972 308.707 94.9562 308.262 94.5471C307.818 94.1395 307.207 93.9356 306.429 93.9356C305.859 93.9356 305.373 94.0885 304.928 94.3943C304.484 94.6866 304.15 95.0796 303.914 95.5758C303.664 96.0706 303.553 96.603 303.553 97.1716V103.208H301.053V92.0554ZM318.403 103.382C317.889 103.382 317.403 103.302 316.945 103.142C316.5 102.981 316.125 102.771 315.833 102.508C315.194 101.88 314.861 101.027 314.861 99.949V94.1757H312.847V92.0554H314.861V88.9052H317.361V92.0554H320.167V94.1757H317.361V99.4247C317.361 100.021 317.472 100.445 317.723 100.692C317.945 100.984 318.334 101.131 318.889 101.131C319.153 101.131 319.376 101.101 319.57 101.042C319.778 100.97 319.987 100.86 320.209 100.715V103.054C319.709 103.274 319.112 103.382 318.403 103.382ZM335.462 103.558C333.892 103.558 332.461 103.2 331.155 102.486C329.864 101.772 328.85 100.787 328.099 99.5333C327.363 98.2794 326.988 96.8954 326.988 95.3786C326.988 93.8632 327.363 92.4779 328.099 91.2239C328.85 89.97 329.864 88.9857 331.155 88.2722C332.461 87.5574 333.892 87.2007 335.462 87.2007C336.684 87.2007 337.796 87.4193 338.796 87.8565C339.81 88.2937 340.699 88.928 341.463 89.7581L339.657 91.4425C339.101 90.8015 338.476 90.3267 337.796 90.021C337.115 89.7005 336.337 89.5395 335.462 89.5395C334.378 89.5395 333.378 89.7809 332.475 90.261C331.586 90.7425 330.878 91.4278 330.35 92.3169C329.822 93.1913 329.558 94.2119 329.558 95.3786C329.558 96.5454 329.822 97.5726 330.35 98.4618C330.878 99.3362 331.586 100.015 332.475 100.496C333.378 100.976 334.378 101.218 335.462 101.218C337.282 101.218 338.824 100.488 340.088 99.0304L341.921 100.736C341.13 101.625 340.185 102.319 339.088 102.814C337.99 103.31 336.781 103.558 335.462 103.558ZM344.13 87.5507H346.617V103.208H344.13V87.5507ZM353.757 103.558C352.354 103.558 351.284 103.157 350.534 102.355C349.812 101.538 349.451 100.408 349.451 98.9647V92.0554H351.951V98.6375C351.951 99.5413 352.159 100.219 352.604 100.671C353.048 101.122 353.646 101.349 354.368 101.349C354.952 101.349 355.479 101.203 355.938 100.912C356.382 100.605 356.73 100.204 356.98 99.709C357.216 99.2128 357.341 98.6804 357.341 98.1118V92.0554H359.827V103.208H357.466V101.764H357.341C357.021 102.289 356.521 102.718 355.868 103.054C355.202 103.39 354.493 103.558 353.757 103.558ZM368.885 103.558C368.079 103.558 367.343 103.382 366.69 103.032C366.037 102.682 365.551 102.26 365.217 101.764H365.106V103.208H362.731V87.5507H365.217V91.9454L365.106 93.5199H365.217C365.551 93.0103 366.037 92.5798 366.69 92.2298C367.343 91.8797 368.079 91.7054 368.885 91.7054C369.927 91.7054 370.871 91.9602 371.719 92.4698C372.566 92.9808 373.233 93.6875 373.719 94.5914C374.205 95.4805 374.455 96.4944 374.455 97.6316C374.455 98.7689 374.205 99.7881 373.719 100.692C373.233 101.582 372.566 102.281 371.719 102.792C370.871 103.302 369.927 103.558 368.885 103.558ZM368.524 101.349C369.135 101.349 369.69 101.195 370.218 100.889C370.76 100.583 371.177 100.146 371.496 99.5776C371.816 99.0089 371.969 98.3599 371.969 97.6316C371.969 96.9021 371.816 96.2611 371.496 95.7072C371.177 95.1386 370.76 94.7014 370.218 94.3943C369.69 94.0885 369.135 93.9356 368.524 93.9356C367.926 93.9356 367.357 94.0885 366.829 94.3943C366.315 94.7014 365.898 95.1386 365.579 95.7072C365.259 96.2611 365.106 96.9021 365.106 97.6316C365.106 98.3599 365.259 99.0089 365.579 99.5776C365.898 100.146 366.315 100.583 366.829 100.889C367.357 101.195 367.926 101.349 368.524 101.349ZM380.831 103.558C379.498 103.558 378.414 103.28 377.567 102.726C376.72 102.158 376.122 101.436 375.775 100.562L377.997 99.6205C378.275 100.204 378.65 100.649 379.137 100.955C379.637 101.261 380.192 101.415 380.831 101.415C381.456 101.415 381.97 101.312 382.401 101.108C382.818 100.889 383.026 100.569 383.026 100.146C383.026 99.7371 382.846 99.4166 382.485 99.1833C382.123 98.9499 381.568 98.7461 380.804 98.5718L379.428 98.2432C378.511 98.0246 377.747 97.6383 377.136 97.0845C376.539 96.5306 376.233 95.8306 376.233 94.9857C376.233 94.3285 376.428 93.7532 376.817 93.257C377.233 92.7622 377.775 92.3826 378.456 92.1198C379.137 91.8435 379.873 91.7054 380.679 91.7054C381.748 91.7054 382.693 91.9159 383.499 92.3397C384.318 92.7474 384.916 93.3455 385.277 94.1328L383.096 95.0501C382.665 94.1904 381.859 93.7599 380.693 93.7599C380.137 93.7599 379.665 93.8699 379.289 94.0885C378.914 94.3071 378.72 94.5914 378.72 94.9414C378.72 95.2767 378.873 95.5543 379.151 95.7729C379.442 95.9767 379.859 96.1511 380.428 96.2973L382.123 96.713C383.262 96.9893 384.11 97.413 384.679 97.9803C385.277 98.5355 385.568 99.2208 385.568 100.036C385.568 100.736 385.36 101.356 384.929 101.895C384.527 102.421 383.957 102.828 383.235 103.119C382.512 103.412 381.707 103.558 380.831 103.558Z" />
    <path
        d="M222.243 53.0636L240.881 42.6752C243.478 41.2274 246.8 42.0866 248.299 44.5943C249.799 47.102 248.909 50.3085 246.312 51.7564L227.674 62.1447C225.076 63.5925 221.755 62.7333 220.255 60.2256C218.755 57.718 219.645 54.5114 222.243 53.0636Z"
        fill="#FBBC04" />
    <path
        d="M209.012 41.3114L190.374 51.6998C187.777 53.1476 184.455 52.2884 182.955 49.7807C181.456 47.273 182.346 44.0665 184.943 42.6186L203.581 32.2303C206.179 30.7825 209.5 31.6417 211 34.1494C212.5 36.657 211.61 39.8636 209.012 41.3114Z"
        fill="#EA4335" />
    <path
        d="M208.553 53.0621L189.915 42.6738C187.318 41.2259 183.996 42.0851 182.496 44.5928C180.997 47.1005 181.887 50.3071 184.484 51.7549L203.122 62.1432C205.72 63.5911 209.041 62.7318 210.541 60.2241C212.041 57.7164 211.151 54.5099 208.553 53.0621Z"
        fill="#4285F4" />
    <path
        d="M221.926 41.135L241.197 51.8762C243.62 53.2266 246.718 52.4252 248.117 50.0862L248.482 49.4752C249.881 47.1363 249.051 44.1454 246.628 42.795L227.357 32.0539C224.934 30.7035 221.836 31.5049 220.438 33.8438L220.072 34.4548C218.673 36.7938 219.503 39.7846 221.926 41.135Z"
        fill="#0F9D58" />
    <path
        d="M44.1018 131.223C43.3239 131.223 42.6153 130.995 41.9624 130.539C41.3234 130.083 40.879 129.445 40.6289 128.622L41.7541 128.179C41.9208 128.752 42.2125 129.221 42.6293 129.587C43.0599 129.955 43.5599 130.137 44.1295 130.137C44.7129 130.137 45.1992 129.989 45.5882 129.694C45.991 129.391 46.1855 128.98 46.1855 128.461C46.1855 128.014 46.0188 127.648 45.6715 127.361C45.3381 127.066 44.7964 126.794 44.0184 126.543L43.3933 126.328C42.6987 126.087 42.1153 125.77 41.6708 125.376C41.2262 124.983 41.0039 124.437 41.0039 123.74C41.0039 123.284 41.1429 122.864 41.3929 122.479C41.6569 122.086 42.018 121.774 42.4764 121.541C42.9487 121.309 43.4627 121.192 44.0322 121.192C44.6157 121.192 45.1158 121.295 45.5326 121.5C45.9632 121.707 46.2966 121.956 46.5466 122.251C46.8105 122.546 46.9911 122.837 47.0884 123.123L45.9771 123.579C45.8937 123.249 45.6714 122.949 45.3381 122.68C45.0185 122.412 44.5879 122.278 44.0462 122.278C43.5461 122.278 43.1015 122.418 42.7404 122.694C42.3792 122.972 42.1986 123.32 42.1986 123.74C42.1986 124.115 42.3514 124.424 42.657 124.665C42.9626 124.899 43.4349 125.117 44.0462 125.322L44.6991 125.537C45.5465 125.832 46.1994 126.204 46.6717 126.65C47.144 127.089 47.3801 127.688 47.3801 128.447C47.3801 129.064 47.2135 129.583 46.8801 130.003C46.5606 130.424 46.1438 130.732 45.6437 130.928C45.1436 131.125 44.6297 131.223 44.1018 131.223ZM51.2558 131.116C50.9641 131.116 50.7002 131.072 50.4502 130.982C50.2001 130.893 50.0057 130.773 49.839 130.62C49.6445 130.451 49.5055 130.254 49.4221 130.03C49.3249 129.807 49.2833 129.533 49.2833 129.212V125.202H48.0469V124.169H49.2833V122.238H50.464V124.169H52.1866V125.202H50.464V128.93C50.464 129.305 50.5335 129.583 50.6863 129.761C50.853 129.959 51.1169 130.056 51.4503 130.056C51.7143 130.056 51.9782 129.981 52.2283 129.828V130.942C52.0893 131.005 51.9365 131.049 51.7976 131.076C51.6587 131.103 51.4781 131.116 51.2558 131.116ZM54.3953 131.089C54.1453 131.089 53.923 131.009 53.7563 130.848C53.5896 130.679 53.5062 130.472 53.5062 130.231C53.5062 129.999 53.5896 129.802 53.7563 129.641C53.923 129.472 54.1453 129.386 54.3953 129.386C54.6315 129.386 54.8398 129.472 55.0065 129.641C55.1732 129.802 55.2705 129.999 55.2705 130.231C55.2705 130.472 55.1732 130.679 55.0065 130.848C54.8398 131.009 54.6315 131.089 54.3953 131.089ZM58.91 121.406H60.2159L62.6746 128.367L63.008 129.319H63.0636L63.4109 128.367L65.9808 121.406H67.2866L63.6471 131.009H62.4246L58.91 121.406ZM68.773 122.909C68.5368 122.909 68.3424 122.828 68.1757 122.667C68.009 122.506 67.9256 122.314 67.9256 122.09C67.9256 121.868 68.009 121.68 68.1757 121.527C68.3424 121.366 68.5368 121.286 68.773 121.286C68.9952 121.286 69.2037 121.366 69.3704 121.527C69.5371 121.68 69.6203 121.868 69.6203 122.09C69.6203 122.314 69.5371 122.506 69.3704 122.667C69.2037 122.828 69.0091 122.909 68.773 122.909ZM68.1896 124.169H69.3565V131.009H68.1896V124.169ZM71.204 124.169H72.3293V125.175H72.3847C72.5792 124.836 72.8988 124.55 73.3155 124.317C73.7461 124.075 74.2045 123.955 74.6768 123.955C75.5381 123.955 76.1771 124.196 76.6217 124.679C77.0801 125.153 77.3023 125.801 77.3023 126.623V131.009H76.1216V126.798C76.1216 126.163 75.9688 125.703 75.6493 125.416C75.3437 125.131 74.913 124.987 74.3574 124.987C73.9823 124.987 73.635 125.09 73.3294 125.296C73.0377 125.502 72.8015 125.774 72.6348 126.114C72.4681 126.445 72.3847 126.794 72.3847 127.16V131.009H71.204V124.169ZM82.2061 131.223C81.5254 131.223 80.9003 131.068 80.3586 130.754C79.8168 130.432 79.3861 129.999 79.0805 129.453C78.7749 128.899 78.6221 128.278 78.6221 127.589C78.6221 126.901 78.7749 126.28 79.0805 125.725C79.3861 125.171 79.8168 124.738 80.3586 124.424C80.9003 124.111 81.5254 123.955 82.2061 123.955C82.9701 123.955 83.623 124.129 84.137 124.478C84.6649 124.818 85.0399 125.274 85.2621 125.845L84.1925 126.275C84.0119 125.855 83.748 125.537 83.4007 125.322C83.0534 125.1 82.6367 124.987 82.1505 124.987C81.7337 124.987 81.3448 125.1 80.9836 125.322C80.6224 125.537 80.3307 125.841 80.1084 126.234C79.9001 126.629 79.789 127.079 79.789 127.589C79.789 128.098 79.9001 128.55 80.1084 128.943C80.3307 129.338 80.6224 129.646 80.9836 129.869C81.3448 130.083 81.7337 130.191 82.1505 130.191C82.6505 130.191 83.0813 130.079 83.4424 129.855C83.8036 129.633 84.0675 129.315 84.2481 128.903L85.3038 129.332C85.0677 129.896 84.6788 130.352 84.137 130.7C83.6091 131.049 82.9701 131.223 82.2061 131.223ZM89.6658 131.223C88.9851 131.223 88.3877 131.068 87.8459 130.754C87.3042 130.441 86.8875 130.012 86.5819 129.466C86.2902 128.913 86.1373 128.292 86.1373 127.602C86.1373 126.941 86.2763 126.334 86.5541 125.778C86.8458 125.225 87.2487 124.782 87.7627 124.451C88.2766 124.121 88.8878 123.955 89.5684 123.955C90.263 123.955 90.8604 124.107 91.3744 124.411C91.8884 124.706 92.2773 125.117 92.5412 125.644C92.8191 126.173 92.9581 126.776 92.9581 127.455C92.9581 127.589 92.9441 127.706 92.9163 127.803H87.318C87.3458 128.322 87.4709 128.761 87.707 129.118C87.9432 129.476 88.2349 129.744 88.5822 129.922C88.9434 130.102 89.3185 130.191 89.7075 130.191C90.6104 130.191 91.3189 129.78 91.8051 128.957L92.8053 129.426C92.4997 129.981 92.0829 130.419 91.555 130.74C91.041 131.062 90.402 131.223 89.6658 131.223ZM91.7078 126.865C91.6939 126.579 91.6106 126.293 91.4578 126.006C91.305 125.721 91.0689 125.479 90.7494 125.282C90.4299 125.086 90.0409 124.987 89.5547 124.987C88.9991 124.987 88.5267 125.162 88.1378 125.51C87.7627 125.851 87.5126 126.301 87.3876 126.865H91.7078ZM94.3333 124.169H95.4586V125.175H95.514C95.7085 124.836 96.0281 124.55 96.4448 124.317C96.8755 124.075 97.3339 123.955 97.8062 123.955C98.6674 123.955 99.3065 124.196 99.751 124.679C100.209 125.153 100.432 125.801 100.432 126.623V131.009H99.2509V126.798C99.2509 126.163 99.098 125.703 98.7785 125.416C98.4729 125.131 98.0423 124.987 97.4867 124.987C97.1116 124.987 96.7643 125.09 96.4587 125.296C96.167 125.502 95.9309 125.774 95.7642 126.114C95.5975 126.445 95.514 126.794 95.514 127.16V131.009H94.3333V124.169ZM104.502 131.116C104.21 131.116 103.946 131.072 103.696 130.982C103.446 130.893 103.252 130.773 103.085 130.62C102.891 130.451 102.752 130.254 102.668 130.03C102.571 129.807 102.529 129.533 102.529 129.212V125.202H101.293V124.169H102.529V122.238H103.71V124.169H105.433V125.202H103.71V128.93C103.71 129.305 103.78 129.583 103.932 129.761C104.099 129.959 104.363 130.056 104.696 130.056C104.96 130.056 105.224 129.981 105.474 129.828V130.942C105.335 131.005 105.182 131.049 105.044 131.076C104.905 131.103 104.724 131.116 104.502 131.116ZM110.322 121.406H113.67C114.226 121.406 114.74 121.527 115.212 121.769C115.685 122.01 116.06 122.351 116.337 122.788C116.629 123.217 116.768 123.705 116.768 124.25C116.768 124.795 116.629 125.288 116.337 125.725C116.06 126.154 115.685 126.489 115.212 126.731C114.74 126.972 114.226 127.093 113.67 127.093H111.489V131.009H110.322V121.406ZM113.698 126.006C114.073 126.006 114.393 125.922 114.67 125.752C114.962 125.583 115.184 125.363 115.337 125.094C115.504 124.826 115.573 124.545 115.573 124.25C115.573 123.955 115.504 123.673 115.337 123.405C115.184 123.136 114.962 122.918 114.67 122.748C114.393 122.579 114.073 122.493 113.698 122.493H111.489V126.006H113.698ZM120.088 131.223C119.574 131.223 119.102 131.125 118.699 130.928C118.296 130.732 117.977 130.464 117.754 130.124C117.532 129.775 117.421 129.382 117.421 128.943C117.421 128.219 117.699 127.656 118.268 127.254C118.838 126.843 119.546 126.637 120.408 126.637C120.838 126.637 121.227 126.682 121.588 126.771C121.963 126.861 122.241 126.964 122.436 127.079V126.664C122.436 126.154 122.255 125.748 121.88 125.443C121.505 125.131 121.047 124.974 120.477 124.974C120.074 124.974 119.713 125.06 119.38 125.229C119.046 125.39 118.782 125.617 118.588 125.913L117.699 125.269C117.977 124.858 118.352 124.537 118.838 124.303C119.324 124.071 119.866 123.955 120.463 123.955C121.422 123.955 122.186 124.201 122.728 124.692C123.283 125.175 123.561 125.837 123.561 126.677V131.009H122.436V130.03H122.38C122.172 130.361 121.866 130.643 121.463 130.875C121.061 131.108 120.602 131.223 120.088 131.223ZM120.199 130.217C120.602 130.217 120.963 130.12 121.311 129.922C121.658 129.727 121.922 129.462 122.13 129.131C122.339 128.801 122.436 128.439 122.436 128.045C122.213 127.903 121.936 127.786 121.616 127.696C121.297 127.608 120.949 127.562 120.588 127.562C119.935 127.562 119.449 127.692 119.116 127.951C118.796 128.211 118.629 128.546 118.629 128.957C118.629 129.332 118.782 129.637 119.074 129.869C119.366 130.102 119.741 130.217 120.199 130.217ZM125.2 121.406H126.381V131.009H125.2V121.406ZM128.131 121.406H129.312V131.009H128.131V121.406ZM134.257 131.223C133.563 131.223 132.938 131.062 132.382 130.74C131.826 130.419 131.396 129.981 131.076 129.426C130.771 128.872 130.618 128.259 130.618 127.589C130.618 126.918 130.771 126.307 131.076 125.752C131.396 125.198 131.826 124.759 132.382 124.437C132.938 124.115 133.563 123.955 134.257 123.955C134.952 123.955 135.577 124.115 136.133 124.437C136.688 124.759 137.119 125.198 137.425 125.752C137.744 126.307 137.897 126.918 137.897 127.589C137.897 128.259 137.744 128.872 137.425 129.426C137.119 129.981 136.688 130.419 136.133 130.74C135.577 131.062 134.952 131.223 134.257 131.223ZM134.257 130.191C134.688 130.191 135.091 130.089 135.466 129.882C135.841 129.668 136.147 129.364 136.369 128.97C136.605 128.577 136.716 128.117 136.716 127.589C136.716 127.062 136.605 126.602 136.369 126.208C136.147 125.815 135.841 125.516 135.466 125.309C135.091 125.094 134.688 124.987 134.257 124.987C133.827 124.987 133.41 125.094 133.035 125.309C132.66 125.516 132.354 125.815 132.118 126.208C131.896 126.602 131.785 127.062 131.785 127.589C131.785 128.117 131.896 128.577 132.118 128.97C132.354 129.364 132.66 129.668 133.035 129.882C133.41 130.089 133.827 130.191 134.257 130.191ZM141.787 131.116C141.495 131.116 141.231 131.072 140.981 130.982C140.745 130.893 140.536 130.773 140.37 130.62C140.189 130.451 140.05 130.254 139.953 130.03C139.856 129.807 139.814 129.533 139.814 129.212V125.202H138.578V124.169H139.814V122.238H140.995V124.169H142.717V125.202H140.995V128.93C140.995 129.305 141.064 129.583 141.217 129.761C141.398 129.959 141.648 130.056 141.981 130.056C142.245 130.056 142.509 129.981 142.759 129.828V130.942C142.62 131.005 142.481 131.049 142.328 131.076C142.189 131.103 142.009 131.116 141.787 131.116ZM144.912 122.909C144.69 122.909 144.481 122.828 144.315 122.667C144.148 122.506 144.065 122.314 144.065 122.09C144.065 121.868 144.148 121.68 144.315 121.527C144.481 121.366 144.69 121.286 144.912 121.286C145.148 121.286 145.343 121.366 145.509 121.527C145.676 121.68 145.76 121.868 145.76 122.09C145.76 122.314 145.676 122.506 145.509 122.667C145.357 122.828 145.162 122.909 144.912 122.909ZM144.329 124.169H145.496V131.009H144.329V124.169ZM155.22 131.223C154.247 131.223 153.372 131.005 152.594 130.566C151.802 130.129 151.177 129.529 150.733 128.769C150.288 128.001 150.066 127.146 150.066 126.208C150.066 125.269 150.288 124.42 150.733 123.66C151.177 122.891 151.802 122.288 152.594 121.849C153.372 121.412 154.247 121.192 155.22 121.192C155.956 121.192 156.637 121.331 157.248 121.608C157.859 121.876 158.401 122.261 158.859 122.761L158.012 123.552C157.623 123.115 157.206 122.793 156.762 122.587C156.317 122.381 155.803 122.278 155.22 122.278C154.497 122.278 153.831 122.444 153.233 122.774C152.622 123.096 152.15 123.558 151.788 124.156C151.427 124.746 151.261 125.43 151.261 126.208C151.261 126.985 151.427 127.675 151.788 128.273C152.15 128.863 152.622 129.324 153.233 129.654C153.831 129.976 154.497 130.137 155.22 130.137C156.414 130.137 157.442 129.66 158.29 128.702L159.151 129.507C158.679 130.035 158.109 130.455 157.442 130.767C156.762 131.072 156.025 131.223 155.22 131.223ZM163.596 131.223C162.902 131.223 162.276 131.062 161.721 130.74C161.165 130.419 160.734 129.981 160.415 129.426C160.109 128.872 159.957 128.259 159.957 127.589C159.957 126.918 160.109 126.307 160.415 125.752C160.734 125.198 161.165 124.759 161.721 124.437C162.276 124.115 162.902 123.955 163.596 123.955C164.291 123.955 164.916 124.115 165.471 124.437C166.027 124.759 166.458 125.198 166.763 125.752C167.083 126.307 167.236 126.918 167.236 127.589C167.236 128.259 167.083 128.872 166.763 129.426C166.458 129.981 166.027 130.419 165.471 130.74C164.916 131.062 164.291 131.223 163.596 131.223ZM163.596 130.191C164.041 130.191 164.444 130.089 164.805 129.882C165.194 129.668 165.485 129.364 165.708 128.97C165.944 128.577 166.055 128.117 166.055 127.589C166.055 127.062 165.944 126.602 165.708 126.208C165.485 125.815 165.194 125.516 164.805 125.309C164.444 125.094 164.041 124.987 163.596 124.987C163.166 124.987 162.763 125.094 162.374 125.309C161.999 125.516 161.693 125.815 161.457 126.208C161.235 126.602 161.123 127.062 161.123 127.589C161.123 128.117 161.235 128.577 161.457 128.97C161.693 129.364 161.999 129.668 162.374 129.882C162.763 130.089 163.166 130.191 163.596 130.191ZM168.542 121.406H169.722V131.009H168.542V121.406ZM171.473 121.406H172.653V131.009H171.473V121.406ZM177.488 131.223C176.821 131.223 176.21 131.068 175.668 130.754C175.14 130.441 174.709 130.012 174.404 129.466C174.112 128.913 173.959 128.292 173.959 127.602C173.959 126.941 174.098 126.334 174.376 125.778C174.668 125.225 175.071 124.782 175.585 124.451C176.112 124.121 176.71 123.955 177.39 123.955C178.085 123.955 178.696 124.107 179.196 124.411C179.71 124.706 180.099 125.117 180.363 125.644C180.641 126.173 180.78 126.776 180.78 127.455C180.78 127.589 180.766 127.706 180.738 127.803H175.14C175.168 128.322 175.307 128.761 175.529 129.118C175.765 129.476 176.057 129.744 176.404 129.922C176.765 130.102 177.14 130.191 177.529 130.191C178.446 130.191 179.141 129.78 179.627 128.957L180.627 129.426C180.322 129.981 179.905 130.419 179.377 130.74C178.863 131.062 178.238 131.223 177.488 131.223ZM179.53 126.865C179.516 126.579 179.432 126.293 179.28 126.006C179.141 125.721 178.905 125.479 178.571 125.282C178.266 125.086 177.863 124.987 177.377 124.987C176.821 124.987 176.349 125.162 175.96 125.51C175.585 125.851 175.334 126.301 175.209 126.865H179.53ZM185.35 134.12C184.517 134.12 183.822 133.932 183.28 133.557C182.739 133.181 182.377 132.731 182.197 132.202L183.267 131.76C183.419 132.154 183.683 132.47 184.044 132.712C184.406 132.963 184.85 133.087 185.35 133.087C186.073 133.087 186.642 132.882 187.045 132.47C187.448 132.06 187.656 131.478 187.656 130.727V129.963H187.601C187.365 130.311 187.031 130.598 186.614 130.821C186.198 131.035 185.711 131.143 185.184 131.143C184.572 131.143 184.003 130.991 183.503 130.687C183.003 130.384 182.6 129.959 182.308 129.413C182.002 128.868 181.863 128.246 181.863 127.549C181.863 126.861 182.002 126.244 182.308 125.698C182.6 125.144 183.003 124.715 183.503 124.411C184.003 124.107 184.572 123.955 185.184 123.955C185.711 123.955 186.198 124.067 186.614 124.29C187.031 124.504 187.365 124.791 187.601 125.148H187.656V124.169H188.781V130.74C188.781 131.84 188.462 132.677 187.837 133.248C187.198 133.83 186.378 134.12 185.35 134.12ZM185.35 130.11C185.767 130.11 186.156 130.008 186.503 129.802C186.85 129.596 187.128 129.301 187.337 128.917C187.545 128.533 187.656 128.077 187.656 127.549C187.656 127.012 187.545 126.552 187.337 126.167C187.128 125.784 186.85 125.493 186.503 125.296C186.156 125.09 185.767 124.987 185.35 124.987C184.92 124.987 184.531 125.09 184.183 125.296C183.822 125.502 183.544 125.797 183.336 126.181C183.128 126.566 183.03 127.022 183.03 127.549C183.03 128.077 183.128 128.537 183.336 128.93C183.544 129.315 183.822 129.61 184.183 129.815C184.531 130.012 184.92 130.11 185.35 130.11ZM193.602 131.223C192.935 131.223 192.324 131.068 191.782 130.754C191.254 130.441 190.823 130.012 190.518 129.466C190.226 128.913 190.073 128.292 190.073 127.602C190.073 126.941 190.212 126.334 190.49 125.778C190.782 125.225 191.185 124.782 191.699 124.451C192.226 124.121 192.824 123.955 193.505 123.955C194.199 123.955 194.81 124.107 195.311 124.411C195.824 124.706 196.213 125.117 196.477 125.644C196.755 126.173 196.894 126.776 196.894 127.455C196.894 127.589 196.88 127.706 196.852 127.803H191.254C191.282 128.322 191.421 128.761 191.643 129.118C191.879 129.476 192.171 129.744 192.518 129.922C192.879 130.102 193.254 130.191 193.643 130.191C194.56 130.191 195.255 129.78 195.741 128.957L196.741 129.426C196.436 129.981 196.019 130.419 195.491 130.74C194.977 131.062 194.352 131.223 193.602 131.223ZM195.644 126.865C195.63 126.579 195.547 126.293 195.394 126.006C195.255 125.721 195.019 125.479 194.685 125.282C194.38 125.086 193.977 124.987 193.491 124.987C192.935 124.987 192.463 125.162 192.074 125.51C191.699 125.851 191.449 126.301 191.323 126.865H195.644ZM204.77 131.223C204.076 131.223 203.451 131.062 202.895 130.74C202.34 130.419 201.909 129.981 201.589 129.426C201.284 128.872 201.131 128.259 201.131 127.589C201.131 126.918 201.284 126.307 201.589 125.752C201.909 125.198 202.34 124.759 202.895 124.437C203.451 124.115 204.076 123.955 204.77 123.955C205.465 123.955 206.09 124.115 206.646 124.437C207.201 124.759 207.632 125.198 207.938 125.752C208.257 126.307 208.41 126.918 208.41 127.589C208.41 128.259 208.257 128.872 207.938 129.426C207.632 129.981 207.201 130.419 206.646 130.74C206.09 131.062 205.465 131.223 204.77 131.223ZM204.77 130.191C205.215 130.191 205.618 130.089 205.979 129.882C206.368 129.668 206.66 129.364 206.882 128.97C207.118 128.577 207.229 128.117 207.229 127.589C207.229 127.062 207.118 126.602 206.882 126.208C206.66 125.815 206.368 125.516 205.979 125.309C205.618 125.094 205.215 124.987 204.77 124.987C204.34 124.987 203.937 125.094 203.548 125.309C203.173 125.516 202.867 125.815 202.631 126.208C202.409 126.602 202.298 127.062 202.298 127.589C202.298 128.117 202.409 128.577 202.631 128.97C202.867 129.364 203.173 129.668 203.548 129.882C203.937 130.089 204.34 130.191 204.77 130.191ZM210.397 125.202H209.091V124.169H210.397V123.432C210.397 123.002 210.508 122.627 210.702 122.305C210.911 121.983 211.188 121.738 211.522 121.567C211.869 121.389 212.244 121.299 212.661 121.299C213.064 121.299 213.411 121.353 213.703 121.46V122.573C213.536 122.512 213.383 122.462 213.23 122.426C213.091 122.381 212.911 122.359 212.702 122.359C212.397 122.359 212.133 122.466 211.911 122.68C211.688 122.887 211.577 123.177 211.577 123.552V124.169H213.397V125.202H211.577V131.009H210.397V125.202ZM218.315 121.406H224.066V122.493H219.482V125.671H223.621V126.744H219.482V129.922H224.066V131.009H218.315V121.406ZM225.594 124.169H226.719V125.175H226.775C226.969 124.836 227.275 124.55 227.705 124.317C228.122 124.075 228.58 123.955 229.067 123.955C229.914 123.955 230.567 124.196 231.012 124.679C231.456 125.153 231.692 125.801 231.692 126.623V131.009H230.511V126.798C230.511 126.163 230.345 125.703 230.039 125.416C229.72 125.131 229.289 124.987 228.747 124.987C228.358 124.987 228.025 125.09 227.719 125.296C227.414 125.502 227.191 125.774 227.025 126.114C226.858 126.445 226.775 126.794 226.775 127.16V131.009H225.594V124.169ZM236.415 134.12C235.582 134.12 234.901 133.932 234.345 133.557C233.818 133.181 233.456 132.731 233.262 132.202L234.332 131.76C234.498 132.154 234.748 132.47 235.109 132.712C235.484 132.963 235.915 133.087 236.415 133.087C237.152 133.087 237.721 132.882 238.11 132.47C238.527 132.06 238.721 131.478 238.721 130.727V129.963H238.666C238.443 130.311 238.11 130.598 237.679 130.821C237.263 131.035 236.79 131.143 236.249 131.143C235.637 131.143 235.082 130.991 234.568 130.687C234.068 130.384 233.679 129.959 233.373 129.413C233.081 128.868 232.929 128.246 232.929 127.549C232.929 126.861 233.081 126.244 233.373 125.698C233.679 125.144 234.068 124.715 234.568 124.411C235.082 124.107 235.637 123.955 236.249 123.955C236.79 123.955 237.263 124.067 237.679 124.29C238.11 124.504 238.443 124.791 238.666 125.148H238.721V124.169H239.846V130.74C239.846 131.84 239.541 132.677 238.902 133.248C238.277 133.83 237.443 134.12 236.415 134.12ZM236.415 130.11C236.846 130.11 237.235 130.008 237.568 129.802C237.929 129.596 238.207 129.301 238.402 128.917C238.624 128.533 238.721 128.077 238.721 127.549C238.721 127.012 238.624 126.552 238.402 126.167C238.207 125.784 237.929 125.493 237.568 125.296C237.235 125.09 236.846 124.987 236.415 124.987C235.999 124.987 235.61 125.09 235.248 125.296C234.901 125.502 234.623 125.797 234.401 126.181C234.206 126.566 234.095 127.022 234.095 127.549C234.095 128.077 234.206 128.537 234.401 128.93C234.623 129.315 234.901 129.61 235.248 129.815C235.61 130.012 235.999 130.11 236.415 130.11ZM242.291 122.909C242.055 122.909 241.861 122.828 241.694 122.667C241.527 122.506 241.444 122.314 241.444 122.09C241.444 121.868 241.527 121.68 241.694 121.527C241.861 121.366 242.055 121.286 242.291 121.286C242.528 121.286 242.722 121.366 242.889 121.527C243.055 121.68 243.139 121.868 243.139 122.09C243.139 122.314 243.055 122.506 242.889 122.667C242.736 122.828 242.528 122.909 242.291 122.909ZM241.708 124.169H242.875V131.009H241.708V124.169ZM244.736 124.169H245.861V125.175H245.917C246.112 124.836 246.417 124.55 246.848 124.317C247.265 124.075 247.723 123.955 248.209 123.955C249.057 123.955 249.709 124.196 250.154 124.679C250.599 125.153 250.835 125.801 250.835 126.623V131.009H249.654V126.798C249.654 126.163 249.487 125.703 249.181 125.416C248.862 125.131 248.431 124.987 247.89 124.987C247.501 124.987 247.167 125.09 246.862 125.296C246.556 125.502 246.334 125.774 246.167 126.114C246 126.445 245.917 126.794 245.917 127.16V131.009H244.736V124.169ZM255.669 131.223C254.988 131.223 254.391 131.068 253.849 130.754C253.307 130.441 252.891 130.012 252.585 129.466C252.293 128.913 252.14 128.292 252.14 127.602C252.14 126.941 252.279 126.334 252.557 125.778C252.849 125.225 253.252 124.782 253.766 124.451C254.28 124.121 254.891 123.955 255.572 123.955C256.266 123.955 256.864 124.107 257.377 124.411C257.891 124.706 258.28 125.117 258.544 125.644C258.822 126.173 258.961 126.776 258.961 127.455C258.961 127.589 258.947 127.706 258.919 127.803H253.321C253.349 128.322 253.474 128.761 253.71 129.118C253.946 129.476 254.238 129.744 254.585 129.922C254.946 130.102 255.322 130.191 255.711 130.191C256.614 130.191 257.322 129.78 257.808 128.957L258.808 129.426C258.503 129.981 258.086 130.419 257.558 130.74C257.044 131.062 256.405 131.223 255.669 131.223ZM257.711 126.865C257.697 126.579 257.614 126.293 257.461 126.006C257.308 125.721 257.072 125.479 256.752 125.282C256.433 125.086 256.044 124.987 255.558 124.987C255.002 124.987 254.53 125.162 254.141 125.51C253.766 125.851 253.516 126.301 253.391 126.865H257.711ZM263.559 131.223C262.892 131.223 262.281 131.068 261.739 130.754C261.212 130.441 260.781 130.012 260.475 129.466C260.184 128.913 260.031 128.292 260.031 127.602C260.031 126.941 260.17 126.334 260.447 125.778C260.739 125.225 261.142 124.782 261.656 124.451C262.184 124.121 262.781 123.955 263.462 123.955C264.157 123.955 264.768 124.107 265.268 124.411C265.782 124.706 266.171 125.117 266.435 125.644C266.713 126.173 266.852 126.776 266.852 127.455C266.852 127.589 266.838 127.706 266.81 127.803H261.212C261.239 128.322 261.378 128.761 261.601 129.118C261.837 129.476 262.128 129.744 262.476 129.922C262.837 130.102 263.212 130.191 263.601 130.191C264.518 130.191 265.212 129.78 265.698 128.957L266.699 129.426C266.393 129.981 265.976 130.419 265.449 130.74C264.935 131.062 264.309 131.223 263.559 131.223ZM265.601 126.865C265.587 126.579 265.504 126.293 265.351 126.006C265.212 125.721 264.976 125.479 264.643 125.282C264.337 125.086 263.934 124.987 263.448 124.987C262.892 124.987 262.42 125.162 262.031 125.51C261.656 125.851 261.406 126.301 261.281 126.865H265.601ZM268.241 124.169H269.366V125.269H269.421C269.56 124.893 269.824 124.585 270.227 124.343C270.63 124.094 271.047 123.968 271.477 123.968C271.797 123.968 272.075 124.014 272.311 124.102V125.336C272.019 125.194 271.686 125.121 271.311 125.121C270.963 125.121 270.658 125.215 270.366 125.403C270.074 125.591 269.852 125.845 269.671 126.167C269.505 126.481 269.421 126.82 269.421 127.187V131.009H268.241V124.169ZM274.145 122.909C273.908 122.909 273.714 122.828 273.547 122.667C273.38 122.506 273.297 122.314 273.297 122.09C273.297 121.868 273.38 121.68 273.547 121.527C273.714 121.366 273.908 121.286 274.145 121.286C274.381 121.286 274.575 121.366 274.742 121.527C274.909 121.68 274.992 121.868 274.992 122.09C274.992 122.314 274.909 122.506 274.742 122.667C274.589 122.828 274.381 122.909 274.145 122.909ZM273.561 124.169H274.728V131.009H273.561V124.169ZM276.589 124.169H277.715V125.175H277.77C277.965 124.836 278.27 124.55 278.701 124.317C279.118 124.075 279.576 123.955 280.062 123.955C280.91 123.955 281.563 124.196 282.007 124.679C282.452 125.153 282.688 125.801 282.688 126.623V131.009H281.507V126.798C281.507 126.163 281.34 125.703 281.035 125.416C280.715 125.131 280.285 124.987 279.743 124.987C279.354 124.987 279.02 125.09 278.715 125.296C278.409 125.502 278.187 125.774 278.02 126.114C277.854 126.445 277.77 126.794 277.77 127.16V131.009H276.589V124.169ZM287.411 134.12C286.577 134.12 285.897 133.932 285.341 133.557C284.813 133.181 284.452 132.731 284.257 132.202L285.327 131.76C285.494 132.154 285.744 132.47 286.105 132.712C286.48 132.963 286.911 133.087 287.411 133.087C288.147 133.087 288.717 132.882 289.106 132.47C289.522 132.06 289.717 131.478 289.717 130.727V129.963H289.661C289.439 130.311 289.106 130.598 288.675 130.821C288.258 131.035 287.786 131.143 287.244 131.143C286.633 131.143 286.077 130.991 285.563 130.687C285.063 130.384 284.674 129.959 284.369 129.413C284.077 128.868 283.924 128.246 283.924 127.549C283.924 126.861 284.077 126.244 284.369 125.698C284.674 125.144 285.063 124.715 285.563 124.411C286.077 124.107 286.633 123.955 287.244 123.955C287.786 123.955 288.258 124.067 288.675 124.29C289.106 124.504 289.439 124.791 289.661 125.148H289.717V124.169H290.842V130.74C290.842 131.84 290.536 132.677 289.897 133.248C289.272 133.83 288.439 134.12 287.411 134.12ZM287.411 130.11C287.841 130.11 288.23 130.008 288.564 129.802C288.925 129.596 289.203 129.301 289.397 128.917C289.62 128.533 289.717 128.077 289.717 127.549C289.717 127.012 289.62 126.552 289.397 126.167C289.203 125.784 288.925 125.493 288.564 125.296C288.23 125.09 287.841 124.987 287.411 124.987C286.994 124.987 286.605 125.09 286.244 125.296C285.897 125.502 285.619 125.797 285.397 126.181C285.202 126.566 285.091 127.022 285.091 127.549C285.091 128.077 285.202 128.537 285.397 128.93C285.619 129.315 285.897 129.61 286.244 129.815C286.605 130.012 286.994 130.11 287.411 130.11ZM298.08 131.223C297.566 131.223 297.107 131.125 296.69 130.928C296.288 130.732 295.968 130.464 295.746 130.124C295.523 129.775 295.412 129.382 295.412 128.943C295.412 128.219 295.704 127.656 296.26 127.254C296.829 126.843 297.538 126.637 298.399 126.637C298.83 126.637 299.219 126.682 299.58 126.771C299.955 126.861 300.233 126.964 300.427 127.079V126.664C300.427 126.154 300.247 125.748 299.871 125.443C299.51 125.131 299.038 124.974 298.468 124.974C298.079 124.974 297.704 125.06 297.371 125.229C297.038 125.39 296.774 125.617 296.579 125.913L295.69 125.269C295.968 124.858 296.357 124.537 296.829 124.303C297.329 124.071 297.871 123.955 298.455 123.955C299.427 123.955 300.177 124.201 300.719 124.692C301.274 125.175 301.552 125.837 301.552 126.677V131.009H300.427V130.03H300.372C300.177 130.361 299.872 130.643 299.455 130.875C299.052 131.108 298.594 131.223 298.08 131.223ZM298.191 130.217C298.594 130.217 298.969 130.12 299.302 129.922C299.649 129.727 299.927 129.462 300.122 129.131C300.33 128.801 300.427 128.439 300.427 128.045C300.205 127.903 299.941 127.786 299.608 127.696C299.288 127.608 298.941 127.562 298.58 127.562C297.941 127.562 297.44 127.692 297.107 127.951C296.788 128.211 296.621 128.546 296.621 128.957C296.621 129.332 296.774 129.637 297.066 129.869C297.371 130.102 297.746 130.217 298.191 130.217ZM303.205 124.169H304.331V125.175H304.386C304.581 124.836 304.886 124.55 305.317 124.317C305.734 124.075 306.192 123.955 306.678 123.955C307.526 123.955 308.179 124.196 308.623 124.679C309.068 125.153 309.304 125.801 309.304 126.623V131.009H308.123V126.798C308.123 126.163 307.956 125.703 307.651 125.416C307.331 125.131 306.901 124.987 306.359 124.987C305.97 124.987 305.637 125.09 305.331 125.296C305.025 125.502 304.803 125.774 304.636 126.114C304.47 126.445 304.386 126.794 304.386 127.16V131.009H303.205V124.169ZM313.985 131.223C313.36 131.223 312.777 131.068 312.263 130.754C311.749 130.441 311.346 130.012 311.054 129.466C310.762 128.913 310.61 128.286 310.61 127.589C310.61 126.901 310.762 126.28 311.054 125.725C311.346 125.171 311.749 124.738 312.263 124.424C312.777 124.111 313.36 123.955 313.985 123.955C314.527 123.955 315.013 124.075 315.444 124.317C315.875 124.55 316.194 124.84 316.416 125.188H316.472L316.416 124.236V121.406H317.597V131.009H316.472V130.003H316.416C316.194 130.343 315.875 130.633 315.444 130.875C315.013 131.108 314.527 131.223 313.985 131.223ZM314.124 130.191C314.541 130.191 314.93 130.083 315.277 129.869C315.638 129.654 315.93 129.351 316.138 128.957C316.361 128.564 316.472 128.108 316.472 127.589C316.472 127.071 316.361 126.615 316.138 126.221C315.93 125.828 315.638 125.524 315.277 125.309C314.93 125.094 314.541 124.987 314.124 124.987C313.721 124.987 313.332 125.094 312.971 125.309C312.61 125.524 312.318 125.832 312.096 126.234C311.888 126.629 311.777 127.079 311.777 127.589C311.777 128.098 311.888 128.554 312.096 128.957C312.318 129.351 312.61 129.654 312.971 129.869C313.332 130.083 313.721 130.191 314.124 130.191ZM324.293 122.493H321.501V121.406H328.252V122.493H325.474V131.009H324.293V122.493ZM331.544 131.223C330.863 131.223 330.266 131.068 329.724 130.754C329.182 130.441 328.766 130.012 328.46 129.466C328.168 128.913 328.016 128.292 328.016 127.602C328.016 126.941 328.155 126.334 328.432 125.778C328.724 125.225 329.127 124.782 329.641 124.451C330.155 124.121 330.766 123.955 331.447 123.955C332.141 123.955 332.739 124.107 333.253 124.411C333.767 124.706 334.156 125.117 334.42 125.644C334.697 126.173 334.836 126.776 334.836 127.455C334.836 127.589 334.822 127.706 334.795 127.803H329.196C329.224 128.322 329.349 128.761 329.585 129.118C329.822 129.476 330.113 129.744 330.461 129.922C330.822 130.102 331.197 130.191 331.586 130.191C332.489 130.191 333.197 129.78 333.683 128.957L334.684 129.426C334.378 129.981 333.961 130.419 333.433 130.74C332.919 131.062 332.28 131.223 331.544 131.223ZM333.586 126.865C333.572 126.579 333.489 126.293 333.336 126.006C333.183 125.721 332.947 125.479 332.628 125.282C332.308 125.086 331.919 124.987 331.433 124.987C330.877 124.987 330.405 125.162 330.016 125.51C329.641 125.851 329.391 126.301 329.266 126.865H333.586ZM339.49 131.223C338.809 131.223 338.198 131.068 337.642 130.754C337.101 130.432 336.67 129.999 336.364 129.453C336.059 128.899 335.906 128.278 335.906 127.589C335.906 126.901 336.059 126.28 336.364 125.725C336.67 125.171 337.101 124.738 337.642 124.424C338.198 124.111 338.809 123.955 339.49 123.955C340.268 123.955 340.907 124.129 341.421 124.478C341.949 124.818 342.324 125.274 342.546 125.845L341.477 126.275C341.31 125.855 341.046 125.537 340.685 125.322C340.351 125.1 339.935 124.987 339.435 124.987C339.018 124.987 338.629 125.1 338.268 125.322C337.906 125.537 337.615 125.841 337.392 126.234C337.184 126.629 337.073 127.079 337.073 127.589C337.073 128.098 337.184 128.55 337.392 128.943C337.615 129.338 337.906 129.646 338.268 129.869C338.629 130.083 339.018 130.191 339.435 130.191C339.935 130.191 340.365 130.079 340.726 129.855C341.087 129.633 341.365 129.315 341.532 128.903L342.588 129.332C342.352 129.896 341.963 130.352 341.421 130.7C340.893 131.049 340.254 131.223 339.49 131.223ZM343.866 121.406H345.047V124.236L344.991 125.175H345.047C345.241 124.826 345.547 124.537 345.963 124.303C346.394 124.071 346.852 123.955 347.353 123.955C348.214 123.955 348.881 124.201 349.325 124.692C349.784 125.175 350.006 125.819 350.006 126.623V131.009H348.825V126.798C348.825 126.181 348.672 125.725 348.339 125.43C348.019 125.135 347.603 124.987 347.075 124.987C346.714 124.987 346.366 125.094 346.047 125.309C345.741 125.524 345.505 125.801 345.311 126.141C345.144 126.481 345.047 126.834 345.047 127.2V131.009H343.866V121.406ZM351.715 124.169H352.84V125.175H352.895C353.09 124.836 353.395 124.55 353.826 124.317C354.243 124.075 354.701 123.955 355.187 123.955C356.035 123.955 356.688 124.196 357.132 124.679C357.577 125.153 357.813 125.801 357.813 126.623V131.009H356.632V126.798C356.632 126.163 356.465 125.703 356.16 125.416C355.84 125.131 355.41 124.987 354.868 124.987C354.479 124.987 354.146 125.09 353.84 125.296C353.534 125.502 353.312 125.774 353.145 126.114C352.979 126.445 352.895 126.794 352.895 127.16V131.009H351.715V124.169ZM362.758 131.223C362.064 131.223 361.439 131.062 360.883 130.74C360.327 130.419 359.897 129.981 359.577 129.426C359.272 128.872 359.119 128.259 359.119 127.589C359.119 126.918 359.272 126.307 359.577 125.752C359.897 125.198 360.327 124.759 360.883 124.437C361.439 124.115 362.064 123.955 362.758 123.955C363.453 123.955 364.078 124.115 364.633 124.437C365.189 124.759 365.62 125.198 365.925 125.752C366.245 126.307 366.398 126.918 366.398 127.589C366.398 128.259 366.245 128.872 365.925 129.426C365.62 129.981 365.189 130.419 364.633 130.74C364.078 131.062 363.453 131.223 362.758 131.223ZM362.758 130.191C363.203 130.191 363.606 130.089 363.967 129.882C364.356 129.668 364.647 129.364 364.87 128.97C365.106 128.577 365.217 128.117 365.217 127.589C365.217 127.062 365.106 126.602 364.87 126.208C364.647 125.815 364.356 125.516 363.967 125.309C363.606 125.094 363.203 124.987 362.758 124.987C362.328 124.987 361.925 125.094 361.536 125.309C361.161 125.516 360.855 125.815 360.619 126.208C360.397 126.602 360.285 127.062 360.285 127.589C360.285 128.117 360.397 128.577 360.619 128.97C360.855 129.364 361.161 129.668 361.536 129.882C361.925 130.089 362.328 130.191 362.758 130.191ZM367.704 121.406H368.884V131.009H367.704V121.406ZM373.83 131.223C373.135 131.223 372.51 131.062 371.954 130.74C371.399 130.419 370.968 129.981 370.649 129.426C370.343 128.872 370.19 128.259 370.19 127.589C370.19 126.918 370.343 126.307 370.649 125.752C370.968 125.198 371.399 124.759 371.954 124.437C372.51 124.115 373.135 123.955 373.83 123.955C374.524 123.955 375.149 124.115 375.705 124.437C376.261 124.759 376.691 125.198 376.997 125.752C377.316 126.307 377.469 126.918 377.469 127.589C377.469 128.259 377.316 128.872 376.997 129.426C376.691 129.981 376.261 130.419 375.705 130.74C375.149 131.062 374.524 131.223 373.83 131.223ZM373.83 130.191C374.274 130.191 374.677 130.089 375.038 129.882C375.427 129.668 375.719 129.364 375.941 128.97C376.177 128.577 376.288 128.117 376.288 127.589C376.288 127.062 376.177 126.602 375.941 126.208C375.719 125.815 375.427 125.516 375.038 125.309C374.677 125.094 374.274 124.987 373.83 124.987C373.399 124.987 372.996 125.094 372.607 125.309C372.232 125.516 371.927 125.815 371.69 126.208C371.468 126.602 371.357 127.062 371.357 127.589C371.357 128.117 371.468 128.577 371.69 128.97C371.927 129.364 372.232 129.668 372.607 129.882C372.996 130.089 373.399 130.191 373.83 130.191ZM381.956 134.12C381.123 134.12 380.428 133.932 379.886 133.557C379.345 133.181 378.983 132.731 378.803 132.202L379.873 131.76C380.025 132.154 380.289 132.47 380.65 132.712C381.025 132.963 381.456 133.087 381.956 133.087C382.693 133.087 383.248 132.882 383.651 132.47C384.054 132.06 384.262 131.478 384.262 130.727V129.963H384.207C383.971 130.311 383.651 130.598 383.22 130.821C382.804 131.035 382.331 131.143 381.79 131.143C381.178 131.143 380.623 130.991 380.109 130.687C379.609 130.384 379.206 129.959 378.914 129.413C378.622 128.868 378.47 128.246 378.47 127.549C378.47 126.861 378.622 126.244 378.914 125.698C379.206 125.144 379.609 124.715 380.109 124.411C380.623 124.107 381.178 123.955 381.79 123.955C382.331 123.955 382.804 124.067 383.22 124.29C383.651 124.504 383.971 124.791 384.207 125.148H384.262V124.169H385.387V130.74C385.387 131.84 385.068 132.677 384.443 133.248C383.818 133.83 382.984 134.12 381.956 134.12ZM381.956 130.11C382.387 130.11 382.762 130.008 383.109 129.802C383.457 129.596 383.734 129.301 383.943 128.917C384.151 128.533 384.262 128.077 384.262 127.549C384.262 127.012 384.151 126.552 383.943 126.167C383.734 125.784 383.457 125.493 383.109 125.296C382.762 125.09 382.387 124.987 381.956 124.987C381.526 124.987 381.137 125.09 380.789 125.296C380.442 125.502 380.15 125.797 379.942 126.181C379.734 126.566 379.636 127.022 379.636 127.549C379.636 128.077 379.734 128.537 379.942 128.93C380.15 129.315 380.442 129.61 380.789 129.815C381.137 130.012 381.526 130.11 381.956 130.11ZM389.305 130.579L386.374 124.169H387.652L389.874 129.252H389.902L392.042 124.169H393.319L388.944 133.905H387.721L389.305 130.579Z" />
    <defs>
        <linearGradient id="paint0_linear_701_2360" x1="425.479" y1="130.558" x2="8.95706" y2="130.558"
            gradientUnits="userSpaceOnUse">
            <stop stop-color="#348BCA" />
            <stop offset="0.404875" stop-color="#59A43A" />
            <stop offset="0.711571" stop-color="#F3B002" />
            <stop offset="1" stop-color="#DF572E" />
        </linearGradient>
    </defs>
</svg>