<svg width="428" height="167" viewBox="0 0 428 167" fill="none" xmlns="http://www.w3.org/2000/svg">
    <path
        d="M416.864 1.44629H11.2328C5.86239 1.44629 1.50879 5.64926 1.50879 10.8339V155.671C1.50879 160.856 5.86239 165.059 11.2328 165.059H416.864C422.234 165.059 426.588 160.856 426.588 155.671V10.8339C426.588 5.64926 422.234 1.44629 416.864 1.44629Z"
        fill="var(--background-color)" stroke="url(#paint0_linear_701_2357)" stroke-width="2" />
    <path
        d="M50.2495 103.558C48.709 103.558 47.2893 103.2 45.9918 102.486C44.693 101.772 43.658 100.795 42.8884 99.5561C42.1327 98.3022 41.7549 96.9101 41.7549 95.3786C41.7549 93.8485 42.1327 92.4631 42.8884 91.2239C43.658 89.97 44.693 88.9857 45.9918 88.2722C47.2893 87.5574 48.709 87.2007 50.2495 87.2007C51.4734 87.2007 52.6125 87.4112 53.6696 87.8337C54.7268 88.2575 55.6103 88.8475 56.3201 89.6052L54.5531 91.3111C54.0252 90.7425 53.3904 90.3053 52.6514 89.9995C51.9263 89.6938 51.1178 89.5395 50.2273 89.5395C49.1855 89.5395 48.2117 89.7809 47.3046 90.261C46.3988 90.7425 45.6737 91.4278 45.1305 92.3169C44.5874 93.2061 44.3151 94.2266 44.3151 95.3786C44.3151 96.5306 44.5874 97.5512 45.1305 98.4403C45.6737 99.3295 46.3988 100.015 47.3046 100.496C48.2117 100.976 49.1924 101.218 50.2495 101.218C51.2164 101.218 52.0235 101.08 52.6736 100.802C53.3223 100.524 53.9044 100.153 54.417 99.6862C54.7504 99.3657 55.0296 98.9647 55.256 98.4846C55.4978 98.0031 55.6561 97.4774 55.7311 96.9101H50.2273V94.7228H58.1329C58.208 95.1305 58.2455 95.5543 58.2455 95.9915C58.2455 96.9825 58.0871 97.9374 57.7704 98.856C57.4523 99.7599 56.9466 100.547 56.252 101.218C54.7267 102.777 52.7264 103.558 50.2495 103.558ZM66.0692 103.558C64.9064 103.558 63.8646 103.302 62.9436 102.792C62.0226 102.266 61.3058 101.553 60.7918 100.649C60.2778 99.7452 60.0222 98.7394 60.0222 97.6316C60.0222 96.5226 60.2778 95.5167 60.7918 94.6129C61.3058 93.709 62.0226 93.0022 62.9436 92.4926C63.8646 91.9669 64.9064 91.7054 66.0692 91.7054C67.2319 91.7054 68.2737 91.9669 69.1961 92.4926C70.1171 93.017 70.8339 93.7318 71.3479 94.6357C71.8605 95.5396 72.1175 96.5373 72.1175 97.6316C72.1175 98.7394 71.8605 99.7452 71.3479 100.649C70.8339 101.553 70.1171 102.266 69.1961 102.792C68.2737 103.302 67.2319 103.558 66.0692 103.558ZM66.0692 101.349C66.704 101.349 67.293 101.203 67.8362 100.912C68.3807 100.605 68.8099 100.176 69.1281 99.6205C69.4601 99.0519 69.6254 98.3894 69.6254 97.6316C69.6254 96.8726 69.4601 96.2168 69.1281 95.6629C68.8099 95.1091 68.3807 94.6866 67.8362 94.3943C67.293 94.0885 66.704 93.9356 66.0692 93.9356C65.4357 93.9356 64.8467 94.0885 64.3022 94.3943C63.759 94.6866 63.3214 95.1091 62.9894 95.6629C62.6713 96.2168 62.5129 96.8726 62.5129 97.6316C62.5129 98.3894 62.6713 99.0519 62.9894 99.6205C63.3214 100.176 63.759 100.605 64.3022 100.912C64.8467 101.203 65.4357 101.349 66.0692 101.349ZM79.8287 103.558C78.6659 103.558 77.6241 103.302 76.7031 102.792C75.7821 102.266 75.0639 101.553 74.5513 100.649C74.0373 99.7452 73.7803 98.7394 73.7803 97.6316C73.7803 96.5226 74.0373 95.5167 74.5513 94.6129C75.0639 93.709 75.7821 93.0022 76.7031 92.4926C77.6241 91.9669 78.6659 91.7054 79.8287 91.7054C80.9914 91.7054 82.0332 91.9669 82.9542 92.4926C83.8752 93.017 84.5934 93.7318 85.106 94.6357C85.62 95.5396 85.877 96.5373 85.877 97.6316C85.877 98.7394 85.62 99.7452 85.106 100.649C84.5934 101.553 83.8752 102.266 82.9542 102.792C82.0332 103.302 80.9914 103.558 79.8287 103.558ZM79.8287 101.349C80.4635 101.349 81.0511 101.203 81.5957 100.912C82.1388 100.605 82.5694 100.176 82.8862 99.6205C83.2182 99.0519 83.3849 98.3894 83.3849 97.6316C83.3849 96.8726 83.2182 96.2168 82.8862 95.6629C82.5694 95.1091 82.1388 94.6866 81.5957 94.3943C81.0511 94.0885 80.4635 93.9356 79.8287 93.9356C79.1938 93.9356 78.6048 94.0885 78.0617 94.3943C77.5185 94.6866 77.0795 95.1091 76.7475 95.6629C76.4308 96.2168 76.2724 96.8726 76.2724 97.6316C76.2724 98.3894 76.4308 99.0519 76.7475 99.6205C77.0795 100.176 77.5185 100.605 78.0617 100.912C78.6048 101.203 79.1938 101.349 79.8287 101.349ZM93.384 108.281C91.9642 108.281 90.7862 107.967 89.85 107.34C88.9289 106.713 88.3094 105.971 87.9927 105.11L90.3265 104.169C90.5668 104.753 90.953 105.22 91.4808 105.57C92.024 105.933 92.6588 106.115 93.384 106.115C94.4411 106.115 95.2635 105.81 95.8525 105.197C96.4568 104.6 96.7582 103.754 96.7582 102.661V101.633H96.6234C96.2456 102.158 95.74 102.574 95.1051 102.879C94.4856 103.17 93.7687 103.317 92.9533 103.317C91.9865 103.317 91.0891 103.076 90.2584 102.595C89.4277 102.114 88.7623 101.436 88.2649 100.562C87.7815 99.6714 87.5398 98.6589 87.5398 97.5217C87.5398 96.3844 87.7815 95.3786 88.2649 94.5042C88.7623 93.6151 89.4277 92.9298 90.2584 92.4483C91.0891 91.9521 91.9865 91.7054 92.9533 91.7054C93.7535 91.7054 94.4717 91.8583 95.1051 92.164C95.74 92.4698 96.2456 92.8855 96.6234 93.4112H96.7582V92.0554H99.1378V102.595C99.1378 103.805 98.8961 104.833 98.4127 105.678C97.9292 106.539 97.25 107.187 96.3734 107.624C95.5135 108.063 94.5161 108.281 93.384 108.281ZM93.4062 101.131C94.0104 101.131 94.5689 100.991 95.0829 100.715C95.5955 100.422 96.0039 100.008 96.3053 99.4676C96.6082 98.9137 96.7582 98.2646 96.7582 97.5217C96.7582 96.3844 96.4345 95.502 95.7844 94.8757C95.1509 94.2347 94.3577 93.9142 93.4062 93.9142C92.7866 93.9142 92.2212 94.059 91.7073 94.3514C91.1947 94.6276 90.7862 95.0366 90.4848 95.5758C90.182 96.1149 90.0319 96.764 90.0319 97.5217C90.0319 98.2794 90.182 98.9285 90.4848 99.4676C90.7862 100.008 91.1947 100.422 91.7073 100.715C92.2212 100.991 92.7866 101.131 93.4062 101.131ZM102.066 87.5507H104.557V103.208H102.066V87.5507ZM112.653 103.558C111.519 103.558 110.501 103.302 109.594 102.792C108.703 102.281 108.002 101.582 107.488 100.692C106.989 99.7881 106.741 98.7756 106.741 97.6531C106.741 96.5883 106.982 95.6053 107.466 94.7014C107.963 93.7827 108.651 93.0532 109.526 92.5141C110.402 91.975 111.398 91.7054 112.517 91.7054C113.679 91.7054 114.684 91.9521 115.53 92.4483C116.39 92.9445 117.04 93.6218 117.477 94.4828C117.93 95.3424 118.157 96.312 118.157 97.3903C118.157 97.5941 118.134 97.8502 118.089 98.156H109.231C109.323 99.1913 109.699 99.9933 110.365 100.562C111.044 101.116 111.829 101.392 112.721 101.392C113.431 101.392 114.042 101.239 114.555 100.933C115.084 100.613 115.506 100.182 115.824 99.6433L117.93 100.605C117.387 101.523 116.677 102.245 115.801 102.771C114.925 103.295 113.875 103.558 112.653 103.558ZM115.62 96.3187C115.589 95.9258 115.462 95.5395 115.235 95.16C115.009 94.7671 114.66 94.4385 114.192 94.1757C113.739 93.9142 113.181 93.7827 112.517 93.7827C111.717 93.7827 111.037 94.0161 110.477 94.4828C109.934 94.9347 109.556 95.5463 109.345 96.3187H115.62ZM126.143 87.5507H131.33C133.005 87.5507 134.471 87.8779 135.724 88.5337C136.977 89.1895 137.937 90.1162 138.601 91.3111C139.28 92.4926 139.62 93.8485 139.62 95.3786C139.62 96.9101 139.28 98.2727 138.601 99.4676C137.937 100.649 136.977 101.568 135.724 102.224C134.471 102.879 133.005 103.208 131.33 103.208H126.143V87.5507ZM131.284 100.868C133.097 100.868 134.508 100.386 135.52 99.4247C136.548 98.447 137.06 97.0992 137.06 95.3786C137.06 93.6728 136.548 92.3317 135.52 91.3554C134.508 90.3777 133.097 89.8896 131.284 89.8896H128.679V100.868H131.284ZM147.049 103.558C145.917 103.558 144.898 103.302 143.992 102.792C143.102 102.281 142.399 101.582 141.885 100.692C141.387 99.7881 141.137 98.7756 141.137 97.6531C141.137 96.5883 141.379 95.6053 141.862 94.7014C142.361 93.7827 143.049 93.0532 143.924 92.5141C144.8 91.975 145.796 91.7054 146.913 91.7054C148.076 91.7054 149.08 91.9521 149.926 92.4483C150.788 92.9445 151.436 93.6218 151.874 94.4828C152.328 95.3424 152.555 96.312 152.555 97.3903C152.555 97.5941 152.531 97.8502 152.487 98.156H143.629C143.72 99.1913 144.098 99.9933 144.762 100.562C145.442 101.116 146.227 101.392 147.118 101.392C147.827 101.392 148.439 101.239 148.953 100.933C149.481 100.613 149.904 100.182 150.221 99.6433L152.328 100.605C151.784 101.523 151.074 102.245 150.199 102.771C149.322 103.295 148.273 103.558 147.049 103.558ZM150.017 96.3187C149.988 95.9258 149.858 95.5395 149.632 95.16C149.405 94.7671 149.058 94.4385 148.59 94.1757C148.137 93.9142 147.579 93.7827 146.913 93.7827C146.113 93.7827 145.434 94.0161 144.875 94.4828C144.332 94.9347 143.954 95.5463 143.743 96.3187H150.017ZM153.31 92.0554H156.097L159.291 100.102H159.381L162.643 92.0554H165.361L160.559 103.208H158.068L153.31 92.0554ZM171.914 103.558C170.78 103.558 169.762 103.302 168.855 102.792C167.965 102.281 167.263 101.582 166.749 100.692C166.25 99.7881 166.002 98.7756 166.002 97.6531C166.002 96.5883 166.243 95.6053 166.727 94.7014C167.224 93.7827 167.912 93.0532 168.787 92.5141C169.663 91.975 170.659 91.7054 171.778 91.7054C172.94 91.7054 173.945 91.9521 174.791 92.4483C175.651 92.9445 176.301 93.6218 176.738 94.4828C177.191 95.3424 177.418 96.312 177.418 97.3903C177.418 97.5941 177.395 97.8502 177.35 98.156H168.492C168.584 99.1913 168.961 99.9933 169.626 100.562C170.305 101.116 171.09 101.392 171.982 101.392C172.692 101.392 173.303 101.239 173.816 100.933C174.345 100.613 174.767 100.182 175.085 99.6433L177.191 100.605C176.648 101.523 175.938 102.245 175.062 102.771C174.186 103.295 173.136 103.558 171.914 103.558ZM174.881 96.3187C174.85 95.9258 174.723 95.5395 174.496 95.16C174.27 94.7671 173.921 94.4385 173.453 94.1757C173 93.9142 172.442 93.7827 171.778 93.7827C170.978 93.7827 170.298 94.0161 169.738 94.4828C169.195 94.9347 168.817 95.5463 168.606 96.3187H174.881ZM179.686 87.5507H182.178V103.208H179.686V87.5507ZM190.409 103.558C189.246 103.558 188.204 103.302 187.283 102.792C186.362 102.266 185.646 101.553 185.132 100.649C184.618 99.7452 184.362 98.7394 184.362 97.6316C184.362 96.5226 184.618 95.5167 185.132 94.6129C185.646 93.709 186.362 93.0022 187.283 92.4926C188.204 91.9669 189.246 91.7054 190.409 91.7054C191.572 91.7054 192.614 91.9669 193.536 92.4926C194.457 93.017 195.174 93.7318 195.688 94.6357C196.2 95.5396 196.457 96.5373 196.457 97.6316C196.457 98.7394 196.2 99.7452 195.688 100.649C195.174 101.553 194.457 102.266 193.536 102.792C192.614 103.302 191.572 103.558 190.409 103.558ZM190.409 101.349C191.044 101.349 191.633 101.203 192.176 100.912C192.72 100.605 193.15 100.176 193.468 99.6205C193.8 99.0519 193.965 98.3894 193.965 97.6316C193.965 96.8726 193.8 96.2168 193.468 95.6629C193.15 95.1091 192.72 94.6866 192.176 94.3943C191.633 94.0885 191.044 93.9356 190.409 93.9356C189.775 93.9356 189.186 94.0885 188.642 94.3943C188.099 94.6866 187.661 95.1091 187.329 95.6629C187.011 96.2168 186.853 96.8726 186.853 97.6316C186.853 98.3894 187.011 99.0519 187.329 99.6205C187.661 100.176 188.099 100.605 188.642 100.912C189.186 101.203 189.775 101.349 190.409 101.349ZM198.554 92.0554H200.932V93.5199H201.046C201.378 93.0103 201.868 92.5798 202.518 92.2298C203.167 91.8797 203.899 91.7054 204.714 91.7054C205.756 91.7054 206.701 91.9602 207.545 92.4698C208.391 92.9808 209.057 93.6875 209.539 94.5914C210.038 95.4805 210.288 96.4944 210.288 97.6316C210.288 98.7689 210.038 99.7881 209.539 100.692C209.057 101.582 208.391 102.281 207.545 102.792C206.701 103.302 205.756 103.558 204.714 103.558C203.899 103.558 203.167 103.382 202.518 103.032C201.868 102.682 201.378 102.26 201.046 101.764H200.932L201.046 103.317V107.931H198.554V92.0554ZM204.352 101.349C204.956 101.349 205.523 101.195 206.051 100.889C206.58 100.583 207.002 100.146 207.319 99.5776C207.637 99.0089 207.796 98.3599 207.796 97.6316C207.796 96.9021 207.637 96.2611 207.319 95.7072C207.002 95.1386 206.58 94.7014 206.051 94.3943C205.523 94.0885 204.956 93.9356 204.352 93.9356C203.749 93.9356 203.182 94.0885 202.653 94.3943C202.14 94.7014 201.725 95.1386 201.408 95.7072C201.09 96.2611 200.932 96.9021 200.932 97.6316C200.932 98.3599 201.09 99.0089 201.408 99.5776C201.725 100.146 202.14 100.583 202.653 100.889C203.182 101.195 203.749 101.349 204.352 101.349ZM217.836 103.558C216.703 103.558 215.684 103.302 214.777 102.792C213.887 102.281 213.184 101.582 212.671 100.692C212.173 99.7881 211.924 98.7756 211.924 97.6531C211.924 96.5883 212.166 95.6053 212.649 94.7014C213.147 93.7827 213.834 93.0532 214.709 92.5141C215.586 91.975 216.582 91.7054 217.7 91.7054C218.863 91.7054 219.867 91.9521 220.712 92.4483C221.573 92.9445 222.223 93.6218 222.661 94.4828C223.114 95.3424 223.34 96.312 223.34 97.3903C223.34 97.5941 223.318 97.8502 223.272 98.156H214.415C214.506 99.1913 214.883 99.9933 215.548 100.562C216.228 101.116 217.012 101.392 217.904 101.392C218.613 101.392 219.225 101.239 219.738 100.933C220.267 100.613 220.69 100.182 221.006 99.6433L223.114 100.605C222.57 101.523 221.861 102.245 220.984 102.771C220.109 103.295 219.059 103.558 217.836 103.558ZM220.803 96.3187C220.773 95.9258 220.645 95.5395 220.419 95.16C220.191 94.7671 219.844 94.4385 219.375 94.1757C218.923 93.9142 218.364 93.7827 217.7 93.7827C216.9 93.7827 216.219 94.0161 215.661 94.4828C215.118 94.9347 214.74 95.5463 214.529 96.3187H220.803ZM225.609 92.0554H227.988V93.6956H228.101C228.358 93.1269 228.804 92.6602 229.437 92.2955C230.072 91.9159 230.743 91.7268 231.453 91.7268C232.012 91.7268 232.481 91.7993 232.857 91.9454V94.4385C232.193 94.2052 231.597 94.0885 231.068 94.0885C230.494 94.0885 229.98 94.2347 229.527 94.5257C229.09 94.8181 228.742 95.211 228.485 95.7072C228.228 96.1873 228.101 96.7197 228.101 97.3031V103.208H225.609V92.0554ZM244.487 103.558C243.142 103.558 241.935 103.178 240.863 102.421C239.79 101.662 239.05 100.598 238.643 99.2275L241.043 98.2874C241.285 99.1471 241.709 99.8538 242.312 100.408C242.931 100.948 243.672 101.218 244.532 101.218C245.333 101.218 246.012 101.021 246.571 100.628C247.129 100.219 247.408 99.6647 247.408 98.9647C247.408 98.3236 247.16 97.7993 246.661 97.3903C246.178 96.9678 245.325 96.5454 244.102 96.1216L243.083 95.7729C241.995 95.4081 241.081 94.8824 240.342 94.1985C239.601 93.5132 239.232 92.6093 239.232 91.4868C239.232 90.713 239.45 89.9995 239.889 89.3437C240.327 88.6866 240.931 88.1703 241.7 87.7908C242.485 87.3965 243.369 87.2007 244.351 87.2007C245.771 87.2007 246.903 87.536 247.749 88.2065C248.595 88.8623 249.16 89.6052 249.448 90.4367L247.16 91.3768C246.993 90.8806 246.676 90.4434 246.208 90.0652C245.74 89.6857 245.136 89.4966 244.397 89.4966C243.656 89.4966 243.03 89.679 242.516 90.0424C242.017 90.4072 241.768 90.8739 241.768 91.4425C241.768 91.9816 241.995 92.4269 242.448 92.7769C242.901 93.1269 243.61 93.4622 244.577 93.7827L245.597 94.1099C246.986 94.5766 248.059 95.1895 248.813 95.9472C249.584 96.6902 249.969 97.6893 249.969 98.9432C249.969 99.9638 249.696 100.823 249.153 101.523C248.61 102.209 247.914 102.718 247.069 103.054C246.239 103.39 245.377 103.558 244.487 103.558ZM256.623 103.382C256.109 103.382 255.625 103.302 255.172 103.142C254.72 102.981 254.35 102.771 254.062 102.508C253.414 101.88 253.089 101.027 253.089 99.949V94.1757H251.073V92.0554H253.089V88.9052H255.581V92.0554H258.39V94.1757H255.581V99.4247C255.581 100.021 255.702 100.445 255.943 100.692C256.17 100.984 256.562 101.131 257.121 101.131C257.377 101.131 257.603 101.101 257.801 101.042C257.996 100.97 258.208 100.86 258.434 100.715V103.054C257.937 103.274 257.333 103.382 256.623 103.382ZM264.971 103.558C263.567 103.558 262.496 103.157 261.756 102.355C261.03 101.538 260.668 100.408 260.668 98.9647V92.0554H263.16V98.6375C263.16 99.5413 263.378 100.219 263.817 100.671C264.27 101.122 264.859 101.349 265.584 101.349C266.173 101.349 266.694 101.203 267.147 100.912C267.6 100.605 267.947 100.204 268.189 99.709C268.43 99.2128 268.551 98.6804 268.551 98.1118V92.0554H271.042V103.208H268.687V101.764H268.551C268.233 102.289 267.743 102.718 267.079 103.054C266.413 103.39 265.712 103.558 264.971 103.558ZM278.77 103.558C277.728 103.558 276.785 103.302 275.939 102.792C275.093 102.281 274.42 101.582 273.923 100.692C273.44 99.7881 273.198 98.7689 273.198 97.6316C273.198 96.4944 273.44 95.4805 273.923 94.5914C274.42 93.6875 275.093 92.9808 275.939 92.4698C276.785 91.9602 277.728 91.7054 278.77 91.7054C279.585 91.7054 280.317 91.8797 280.967 92.2298C281.616 92.5798 282.108 93.0103 282.44 93.5199H282.553L282.44 91.9454V87.5507H284.931V103.208H282.553V101.764H282.44C282.108 102.26 281.616 102.682 280.967 103.032C280.317 103.382 279.585 103.558 278.77 103.558ZM279.132 101.349C279.737 101.349 280.295 101.195 280.809 100.889C281.337 100.583 281.761 100.146 282.077 99.5776C282.394 99.0089 282.553 98.3599 282.553 97.6316C282.553 96.9021 282.394 96.2611 282.077 95.7072C281.761 95.1386 281.337 94.7014 280.809 94.3943C280.295 94.0885 279.737 93.9356 279.132 93.9356C278.528 93.9356 277.963 94.0885 277.434 94.3943C276.906 94.7014 276.482 95.1386 276.165 95.7072C275.848 96.2611 275.69 96.9021 275.69 97.6316C275.69 98.3599 275.848 99.0089 276.165 99.5776C276.482 100.146 276.906 100.583 277.434 100.889C277.963 101.195 278.528 101.349 279.132 101.349ZM293.002 103.558C291.869 103.558 290.85 103.302 289.944 102.792C289.052 102.281 288.351 101.582 287.837 100.692C287.338 99.7881 287.089 98.7756 287.089 97.6531C287.089 96.5883 287.331 95.6053 287.815 94.7014C288.313 93.7827 288.999 93.0532 289.876 92.5141C290.751 91.975 291.749 91.7054 292.865 91.7054C294.028 91.7054 295.033 91.9521 295.879 92.4483C296.738 92.9445 297.389 93.6218 297.826 94.4828C298.279 95.3424 298.505 96.312 298.505 97.3903C298.505 97.5941 298.483 97.8502 298.437 98.156H289.582C289.672 99.1913 290.05 99.9933 290.714 100.562C291.393 101.116 292.178 101.392 293.07 101.392C293.78 101.392 294.391 101.239 294.905 100.933C295.433 100.613 295.855 100.182 296.173 99.6433L298.279 100.605C297.736 101.523 297.026 102.245 296.149 102.771C295.274 103.295 294.224 103.558 293.002 103.558ZM295.969 96.3187C295.938 95.9258 295.811 95.5395 295.584 95.16C295.358 94.7671 295.01 94.4385 294.542 94.1757C294.089 93.9142 293.529 93.7827 292.865 93.7827C292.065 93.7827 291.386 94.0161 290.828 94.4828C290.283 94.9347 289.905 95.5463 289.694 96.3187H295.969ZM300.775 92.0554H303.154V93.5199H303.266C303.598 92.9955 304.09 92.565 304.738 92.2298C305.404 91.8797 306.105 91.7054 306.846 91.7054C308.25 91.7054 309.314 92.1064 310.04 92.907C310.779 93.6956 311.15 94.7738 311.15 96.1444V103.208H308.657V96.4716C308.657 95.5972 308.431 94.9562 307.978 94.5471C307.54 94.1395 306.928 93.9356 306.143 93.9356C305.585 93.9356 305.086 94.0885 304.648 94.3943C304.211 94.6866 303.87 95.0796 303.629 95.5758C303.387 96.0706 303.266 96.603 303.266 97.1716V103.208H300.775V92.0554ZM318.117 103.382C317.605 103.382 317.121 103.302 316.669 103.142C316.216 102.981 315.845 102.771 315.559 102.508C314.908 101.88 314.583 101.027 314.583 99.949V94.1757H312.568V92.0554H314.583V88.9052H317.076V92.0554H319.884V94.1757H317.076V99.4247C317.076 100.021 317.196 100.445 317.438 100.692C317.665 100.984 318.058 101.131 318.616 101.131C318.873 101.131 319.1 101.101 319.295 101.042C319.491 100.97 319.704 100.86 319.93 100.715V103.054C319.432 103.274 318.827 103.382 318.117 103.382ZM335.185 103.558C333.613 103.558 332.18 103.2 330.881 102.486C329.582 101.772 328.562 100.787 327.822 99.5333C327.083 98.2794 326.712 96.8954 326.712 95.3786C326.712 93.8632 327.083 92.4779 327.822 91.2239C328.562 89.97 329.582 88.9857 330.881 88.2722C332.18 87.5574 333.613 87.2007 335.185 87.2007C336.407 87.2007 337.517 87.4193 338.514 87.8565C339.526 88.2937 340.417 88.928 341.187 89.7581L339.376 91.4425C338.816 90.8015 338.198 90.3267 337.517 90.021C336.838 89.7005 336.06 89.5395 335.185 89.5395C334.097 89.5395 333.101 89.7809 332.195 90.261C331.303 90.7425 330.593 91.4278 330.066 92.3169C329.536 93.1913 329.272 94.2119 329.272 95.3786C329.272 96.5454 329.536 97.5726 330.066 98.4618C330.593 99.3362 331.303 100.015 332.195 100.496C333.101 100.976 334.097 101.218 335.185 101.218C336.996 101.218 338.537 100.488 339.805 99.0304L341.64 100.736C340.855 101.625 339.91 102.319 338.809 102.814C337.706 103.31 336.499 103.558 335.185 103.558ZM343.843 87.5507H346.335V103.208H343.843V87.5507ZM353.477 103.558C352.072 103.558 351 103.157 350.26 102.355C349.534 101.538 349.173 100.408 349.173 98.9647V92.0554H351.664V98.6375C351.664 99.5413 351.883 100.219 352.321 100.671C352.774 101.122 353.363 101.349 354.088 101.349C354.677 101.349 355.198 101.203 355.651 100.912C356.104 100.605 356.451 100.204 356.693 99.709C356.934 99.2128 357.055 98.6804 357.055 98.1118V92.0554H359.547V103.208H357.191V101.764H357.055C356.738 102.289 356.247 102.718 355.583 103.054C354.919 103.39 354.216 103.558 353.477 103.558ZM368.609 103.558C367.793 103.558 367.06 103.382 366.411 103.032C365.761 102.682 365.271 102.26 364.939 101.764H364.826V103.208H362.447V87.5507H364.939V91.9454L364.826 93.5199H364.939C365.271 93.0103 365.761 92.5798 366.411 92.2298C367.06 91.8797 367.793 91.7054 368.609 91.7054C369.651 91.7054 370.594 91.9602 371.44 92.4698C372.286 92.9808 372.95 93.6875 373.433 94.5914C373.932 95.4805 374.181 96.4944 374.181 97.6316C374.181 98.7689 373.932 99.7881 373.433 100.692C372.95 101.582 372.286 102.281 371.44 102.792C370.594 103.302 369.651 103.558 368.609 103.558ZM368.246 101.349C368.85 101.349 369.416 101.195 369.945 100.889C370.473 100.583 370.897 100.146 371.213 99.5776C371.53 99.0089 371.688 98.3599 371.688 97.6316C371.688 96.9021 371.53 96.2611 371.213 95.7072C370.897 95.1386 370.473 94.7014 369.945 94.3943C369.416 94.0885 368.85 93.9356 368.246 93.9356C367.642 93.9356 367.075 94.0885 366.547 94.3943C366.033 94.7014 365.618 95.1386 365.301 95.7072C364.984 96.2611 364.826 96.9021 364.826 97.6316C364.826 98.3599 364.984 99.0089 365.301 99.5776C365.618 100.146 366.033 100.583 366.547 100.889C367.075 101.195 367.642 101.349 368.246 101.349ZM380.551 103.558C379.223 103.558 378.136 103.28 377.29 102.726C376.445 102.158 375.848 101.436 375.5 100.562L377.72 99.6205C377.992 100.204 378.37 100.649 378.854 100.955C379.351 101.261 379.918 101.415 380.551 101.415C381.171 101.415 381.692 101.312 382.115 101.108C382.538 100.889 382.749 100.569 382.749 100.146C382.749 99.7371 382.568 99.4166 382.206 99.1833C381.843 98.9499 381.285 98.7461 380.529 98.5718L379.147 98.2432C378.226 98.0246 377.463 97.6383 376.86 97.0845C376.256 96.5306 375.953 95.8306 375.953 94.9857C375.953 94.3285 376.15 93.7532 376.542 93.257C376.951 92.7622 377.494 92.3826 378.173 92.1198C378.854 91.8435 379.593 91.7054 380.393 91.7054C381.465 91.7054 382.41 91.9159 383.225 92.3397C384.041 92.7474 384.63 93.3455 384.991 94.1328L382.817 95.0501C382.379 94.1904 381.579 93.7599 380.417 93.7599C379.857 93.7599 379.389 93.8699 379.012 94.0885C378.634 94.3071 378.445 94.5914 378.445 94.9414C378.445 95.2767 378.588 95.5543 378.876 95.7729C379.162 95.9767 379.586 96.1511 380.144 96.2973L381.843 96.713C382.975 96.9893 383.828 97.413 384.402 97.9803C384.991 98.5355 385.285 99.2208 385.285 100.036C385.285 100.736 385.074 101.356 384.652 101.895C384.244 102.421 383.678 102.828 382.953 103.119C382.228 103.412 381.428 103.558 380.551 103.558Z" />
    <path
        d="M221.968 53.0636L240.606 42.6752C243.204 41.2274 246.525 42.0866 248.025 44.5943C249.525 47.102 248.635 50.3085 246.037 51.7564L227.399 62.1447C224.802 63.5925 221.48 62.7333 219.98 60.2256C218.481 57.718 219.371 54.5114 221.968 53.0636Z"
        fill="#FBBC04" />
    <path
        d="M208.732 41.3114L190.094 51.6998C187.496 53.1476 184.175 52.2884 182.675 49.7807C181.175 47.273 182.065 44.0665 184.663 42.6186L203.301 32.2303C205.899 30.7825 209.22 31.6417 210.72 34.1494C212.219 36.657 211.329 39.8636 208.732 41.3114Z"
        fill="#EA4335" />
    <path
        d="M208.274 53.0621L189.636 42.6738C187.038 41.2259 183.717 42.0851 182.217 44.5928C180.717 47.1005 181.607 50.3071 184.205 51.7549L202.843 62.1432C205.441 63.5911 208.762 62.7319 210.262 60.2242C211.761 57.7165 210.871 54.5099 208.274 53.0621Z"
        fill="#4285F4" />
    <path
        d="M221.652 41.1351L240.923 51.8762C243.346 53.2266 246.444 52.4252 247.842 50.0862L248.208 49.4752C249.607 47.1363 248.776 44.1454 246.354 42.795L227.083 32.0539C224.66 30.7035 221.562 31.5049 220.163 33.8439L219.798 34.4549C218.399 36.7938 219.229 39.7847 221.652 41.1351Z"
        fill="#0F9D58" />
    <path
        d="M195.221 132.607C194.098 132.607 193.065 132.344 192.12 131.818C191.175 131.293 190.425 130.568 189.87 129.646C189.314 128.723 189.036 127.704 189.036 126.588C189.036 125.472 189.314 124.453 189.87 123.53C190.425 122.608 191.175 121.884 192.12 121.358C193.065 120.832 194.098 120.569 195.221 120.569C196.099 120.569 196.921 120.72 197.688 121.02C198.466 121.32 199.105 121.744 199.605 122.291L198.588 123.273C198.21 122.822 197.727 122.479 197.138 122.243C196.549 121.996 195.915 121.873 195.237 121.873C194.393 121.873 193.604 122.071 192.87 122.468C192.148 122.855 191.564 123.407 191.12 124.126C190.686 124.834 190.47 125.655 190.47 126.588C190.47 127.522 190.686 128.348 191.12 129.066C191.564 129.775 192.153 130.327 192.887 130.724C193.62 131.11 194.404 131.303 195.237 131.303C196.037 131.303 196.704 131.185 197.238 130.949C197.782 130.703 198.249 130.381 198.638 129.984C198.927 129.683 199.16 129.324 199.338 128.906C199.516 128.476 199.627 128.004 199.671 127.489H195.254V126.218H200.988C201.044 126.518 201.072 126.797 201.072 127.055C201.072 127.763 200.955 128.455 200.722 129.131C200.488 129.796 200.116 130.381 199.605 130.885C198.505 132.033 197.043 132.607 195.221 132.607ZM203.18 120.827H204.581V125.816H210.749V120.827H212.149V132.349H210.749V127.103H204.581V132.349H203.18V120.827ZM214.82 120.827H218.854C219.51 120.827 220.121 120.972 220.688 121.261C221.255 121.551 221.705 121.959 222.038 122.484C222.383 122.999 222.555 123.584 222.555 124.239C222.555 124.775 222.427 125.274 222.171 125.735C221.927 126.197 221.582 126.583 221.138 126.894C220.705 127.205 220.221 127.414 219.688 127.522L219.654 127.57L223.022 132.285V132.349H221.355L218.104 127.65H216.22V132.349H214.82V120.827ZM218.771 126.379C219.182 126.379 219.565 126.288 219.921 126.105C220.288 125.923 220.577 125.671 220.788 125.349C221.01 125.016 221.121 124.646 221.121 124.239C221.121 123.884 221.027 123.547 220.838 123.225C220.649 122.903 220.382 122.64 220.038 122.436C219.704 122.232 219.315 122.13 218.871 122.13H216.22V126.379H218.771ZM230.188 132.607C229.032 132.607 227.982 132.344 227.038 131.818C226.093 131.293 225.348 130.574 224.804 129.662C224.27 128.739 224.004 127.715 224.004 126.588C224.004 125.462 224.27 124.442 224.804 123.53C225.348 122.608 226.093 121.884 227.038 121.358C227.982 120.832 229.032 120.569 230.188 120.569C231.077 120.569 231.889 120.736 232.622 121.068C233.367 121.39 234.011 121.851 234.556 122.452L233.539 123.402C233.083 122.876 232.583 122.49 232.039 122.243C231.505 121.996 230.888 121.873 230.188 121.873C229.321 121.873 228.527 122.071 227.804 122.468C227.082 122.855 226.504 123.407 226.071 124.126C225.649 124.834 225.437 125.655 225.437 126.588C225.437 127.522 225.649 128.348 226.071 129.066C226.504 129.775 227.082 130.327 227.804 130.724C228.527 131.11 229.321 131.303 230.188 131.303C231.633 131.303 232.861 130.729 233.872 129.581L234.906 130.547C234.35 131.18 233.667 131.684 232.855 132.06C232.044 132.425 231.155 132.607 230.188 132.607ZM236.942 120.827H243.844V122.13H238.343V125.944H243.31V127.232H238.343V131.046H243.844V132.349H236.942V120.827Z" />
    <defs>
        <linearGradient id="paint0_linear_701_2357" x1="425.199" y1="130.558" x2="8.67679" y2="130.558"
            gradientUnits="userSpaceOnUse">
            <stop stop-color="#348BCA" />
            <stop offset="0.404875" stop-color="#59A43A" />
            <stop offset="0.711571" stop-color="#F3B002" />
            <stop offset="1" stop-color="#DF572E" />
        </linearGradient>
    </defs>
</svg>