<svg width="428" height="167" viewBox="0 0 428 167" fill="none" xmlns="http://www.w3.org/2000/svg">
    <path
        d="M416.503 1.67871H10.8725C5.50203 1.67871 1.14844 5.88168 1.14844 11.0663V155.904C1.14844 161.088 5.50203 165.291 10.8725 165.291H416.503C421.874 165.291 426.228 161.088 426.228 155.904V11.0663C426.228 5.88168 421.874 1.67871 416.503 1.67871Z"
        fill="var(--background-color)" stroke="url(#paint0_linear_701_2361)" stroke-width="2" />
    <path
        d="M55.0395 105.132C53.499 105.132 52.0793 104.774 50.7818 104.06C49.483 103.345 48.448 102.369 47.6784 101.13C46.9227 99.8759 46.5449 98.4839 46.5449 96.9523C46.5449 95.4222 46.9227 94.0368 47.6784 92.7977C48.448 91.5438 49.483 90.5594 50.7818 89.846C52.0793 89.1312 53.499 88.7744 55.0395 88.7744C56.2634 88.7744 57.4024 88.9849 58.4596 89.4074C59.5167 89.8312 60.4003 90.4213 61.1101 91.179L59.3432 92.8848C58.8153 92.3162 58.1804 91.879 57.4414 91.5733C56.7162 91.2675 55.9078 91.1133 55.0173 91.1133C53.9755 91.1133 53.0017 91.3547 52.0946 91.8348C51.1888 92.3162 50.4637 93.0015 49.9205 93.8907C49.3774 94.7798 49.1051 95.8003 49.1051 96.9523C49.1051 98.1043 49.3774 99.1249 49.9205 100.014C50.4637 100.903 51.1888 101.588 52.0946 102.07C53.0017 102.55 53.9824 102.791 55.0395 102.791C56.0064 102.791 56.8135 102.653 57.4636 102.376C58.1123 102.098 58.6944 101.727 59.207 101.26C59.5404 100.939 59.8196 100.538 60.046 100.058C60.2877 99.5769 60.4461 99.0511 60.5211 98.4839H55.0173V96.2966H62.9229C62.9979 96.7043 63.0354 97.128 63.0354 97.5652C63.0354 98.5563 62.8771 99.5112 62.5604 100.43C62.2423 101.334 61.7366 102.121 61.042 102.791C59.5167 104.351 57.5164 105.132 55.0395 105.132ZM70.8592 105.132C69.6964 105.132 68.6546 104.875 67.7336 104.366C66.8126 103.84 66.0958 103.127 65.5818 102.223C65.0678 101.319 64.8122 100.313 64.8122 99.2054C64.8122 98.0963 65.0678 97.0905 65.5818 96.1866C66.0958 95.2827 66.8126 94.576 67.7336 94.0664C68.6546 93.5407 69.6964 93.2791 70.8592 93.2791C72.0219 93.2791 73.0637 93.5407 73.9861 94.0664C74.9071 94.5907 75.6239 95.3055 76.1379 96.2094C76.6505 97.1133 76.9075 98.111 76.9075 99.2054C76.9075 100.313 76.6505 101.319 76.1379 102.223C75.6239 103.127 74.9071 103.84 73.9861 104.366C73.0637 104.875 72.0219 105.132 70.8592 105.132ZM70.8592 102.923C71.494 102.923 72.083 102.777 72.6261 102.486C73.1707 102.179 73.5999 101.749 73.918 101.194C74.25 100.626 74.4154 99.9631 74.4154 99.2054C74.4154 98.4463 74.25 97.7905 73.918 97.2367C73.5999 96.6828 73.1707 96.2604 72.6261 95.968C72.083 95.6622 71.494 95.5093 70.8592 95.5093C70.2257 95.5093 69.6367 95.6622 69.0921 95.968C68.549 96.2604 68.1114 96.6828 67.7794 97.2367C67.4613 97.7905 67.3029 98.4463 67.3029 99.2054C67.3029 99.9631 67.4613 100.626 67.7794 101.194C68.1114 101.749 68.549 102.179 69.0921 102.486C69.6367 102.777 70.2257 102.923 70.8592 102.923ZM84.6186 105.132C83.4559 105.132 82.414 104.875 81.493 104.366C80.572 103.84 79.8539 103.127 79.3413 102.223C78.8273 101.319 78.5703 100.313 78.5703 99.2054C78.5703 98.0963 78.8273 97.0905 79.3413 96.1866C79.8539 95.2827 80.572 94.576 81.493 94.0664C82.414 93.5407 83.4559 93.2791 84.6186 93.2791C85.7813 93.2791 86.8232 93.5407 87.7442 94.0664C88.6652 94.5907 89.3834 95.3055 89.896 96.2094C90.41 97.1133 90.667 98.111 90.667 99.2054C90.667 100.313 90.41 101.319 89.896 102.223C89.3834 103.127 88.6652 103.84 87.7442 104.366C86.8232 104.875 85.7813 105.132 84.6186 105.132ZM84.6186 102.923C85.2535 102.923 85.8425 102.777 86.3857 102.486C86.9288 102.179 87.3595 101.749 87.6762 101.194C88.0082 100.626 88.1748 99.9631 88.1748 99.2054C88.1748 98.4463 88.0082 97.7905 87.6762 97.2367C87.3595 96.6828 86.9288 96.2604 86.3857 95.968C85.8425 95.6622 85.2535 95.5093 84.6186 95.5093C83.9838 95.5093 83.3948 95.6622 82.8517 95.968C82.3085 96.2604 81.8709 96.6828 81.5375 97.2367C81.2208 97.7905 81.0624 98.4463 81.0624 99.2054C81.0624 99.9631 81.2208 100.626 81.5375 101.194C81.8709 101.749 82.3085 102.179 82.8517 102.486C83.3948 102.777 83.9838 102.923 84.6186 102.923ZM98.1739 109.855C96.7542 109.855 95.5763 109.541 94.64 108.913C93.719 108.287 93.0994 107.544 92.7826 106.683L95.1164 105.743C95.3567 106.327 95.7429 106.793 96.2708 107.143C96.8153 107.507 97.4488 107.689 98.1739 107.689C99.231 107.689 100.053 107.383 100.642 106.77C101.247 106.174 101.548 105.327 101.548 104.234V103.207H101.413C101.036 103.732 100.53 104.147 99.8951 104.453C99.2755 104.744 98.5587 104.89 97.7433 104.89C96.7764 104.89 95.879 104.65 95.0483 104.169C94.2176 103.687 93.5522 103.01 93.0549 102.136C92.5715 101.245 92.3298 100.233 92.3298 99.0954C92.3298 97.9582 92.5715 96.9524 93.0549 96.078C93.5522 95.1888 94.2176 94.5035 95.0483 94.0221C95.879 93.5259 96.7764 93.2791 97.7433 93.2791C98.5434 93.2791 99.2616 93.432 99.8951 93.7378C100.53 94.0435 101.036 94.4593 101.413 94.985H101.548V93.6291H103.928V104.169C103.928 105.378 103.686 106.407 103.203 107.252C102.719 108.113 102.04 108.761 101.163 109.198C100.304 109.636 99.3061 109.855 98.1739 109.855ZM98.1962 102.704C98.8005 102.704 99.3589 102.565 99.8729 102.289C100.385 101.996 100.794 101.582 101.095 101.041C101.398 100.487 101.548 99.8384 101.548 99.0954C101.548 97.9582 101.225 97.0757 100.574 96.4494C99.9409 95.8084 99.1478 95.4879 98.1962 95.4879C97.5766 95.4879 97.0112 95.6327 96.4972 95.9251C95.9846 96.2013 95.5762 96.6104 95.2748 97.1495C94.972 97.6886 94.8219 98.3377 94.8219 99.0954C94.8219 99.8531 94.972 100.502 95.2748 101.041C95.5762 101.582 95.9846 101.996 96.4972 102.289C97.0112 102.565 97.5766 102.704 98.1962 102.704ZM106.856 89.1244H109.347V104.782H106.856V89.1244ZM117.443 105.132C116.309 105.132 115.291 104.875 114.384 104.366C113.493 103.855 112.792 103.156 112.278 102.266C111.779 101.362 111.531 100.349 111.531 99.2268C111.531 98.162 111.772 97.179 112.256 96.2751C112.753 95.3564 113.441 94.6269 114.316 94.0878C115.192 93.5487 116.188 93.2791 117.307 93.2791C118.469 93.2791 119.474 93.5259 120.32 94.0221C121.18 94.5183 121.83 95.1955 122.267 96.0565C122.72 96.9161 122.947 97.8857 122.947 98.964C122.947 99.1678 122.924 99.424 122.879 99.7297H114.021C114.113 100.765 114.489 101.567 115.155 102.136C115.834 102.69 116.619 102.966 117.511 102.966C118.221 102.966 118.832 102.813 119.345 102.507C119.874 102.187 120.296 101.756 120.614 101.217L122.72 102.179C122.177 103.097 121.467 103.819 120.591 104.344C119.715 104.869 118.665 105.132 117.443 105.132ZM120.41 97.8925C120.379 97.4995 120.252 97.1133 120.025 96.7338C119.799 96.3408 119.452 96.0122 118.983 95.7494C118.529 95.4879 117.971 95.3564 117.307 95.3564C116.506 95.3564 115.827 95.5898 115.267 96.0565C114.724 96.5084 114.346 97.12 114.135 97.8925H120.41ZM130.933 89.1244H136.12C137.795 89.1244 139.261 89.4516 140.514 90.1074C141.767 90.7632 142.727 91.6899 143.391 92.8848C144.07 94.0663 144.41 95.4222 144.41 96.9523C144.41 98.4839 144.07 99.8464 143.391 101.041C142.727 102.223 141.767 103.141 140.514 103.797C139.261 104.453 137.795 104.782 136.12 104.782H130.933V89.1244ZM136.074 102.441C137.887 102.441 139.298 101.96 140.31 100.998C141.338 100.021 141.85 98.673 141.85 96.9523C141.85 95.2465 141.338 93.9054 140.31 92.9291C139.298 91.9514 137.887 91.4633 136.074 91.4633H133.469V102.441H136.074ZM151.839 105.132C150.707 105.132 149.688 104.875 148.782 104.366C147.892 103.855 147.189 103.156 146.676 102.266C146.177 101.362 145.927 100.349 145.927 99.2268C145.927 98.162 146.169 97.179 146.652 96.2751C147.151 95.3564 147.839 94.6269 148.714 94.0878C149.59 93.5487 150.587 93.2791 151.703 93.2791C152.867 93.2791 153.87 93.5259 154.716 94.0221C155.578 94.5183 156.226 95.1955 156.664 96.0565C157.118 96.9161 157.345 97.8857 157.345 98.964C157.345 99.1678 157.321 99.424 157.277 99.7297H148.419C148.51 100.765 148.888 101.567 149.552 102.136C150.232 102.69 151.017 102.966 151.908 102.966C152.617 102.966 153.229 102.813 153.743 102.507C154.27 102.187 154.694 101.756 155.011 101.217L157.118 102.179C156.574 103.097 155.864 103.819 154.989 104.344C154.112 104.869 153.063 105.132 151.839 105.132ZM154.807 97.8925C154.777 97.4995 154.648 97.1133 154.422 96.7338C154.195 96.3408 153.848 96.0122 153.38 95.7494C152.927 95.4879 152.369 95.3564 151.703 95.3564C150.903 95.3564 150.224 95.5898 149.665 96.0565C149.122 96.5084 148.744 97.12 148.533 97.8925H154.807ZM158.1 93.6291H160.887L164.081 101.676H164.171L167.433 93.6291H170.151L165.349 104.782H162.858L158.1 93.6291ZM176.704 105.132C175.57 105.132 174.552 104.875 173.645 104.366C172.754 103.855 172.053 103.156 171.539 102.266C171.04 101.362 170.792 100.349 170.792 99.2268C170.792 98.162 171.033 97.179 171.517 96.2751C172.014 95.3564 172.702 94.6269 173.577 94.0878C174.453 93.5487 175.449 93.2791 176.568 93.2791C177.73 93.2791 178.735 93.5259 179.581 94.0221C180.441 94.5183 181.091 95.1955 181.528 96.0565C181.981 96.9161 182.208 97.8857 182.208 98.964C182.208 99.1678 182.185 99.424 182.14 99.7297H173.284C173.374 100.765 173.752 101.567 174.416 102.136C175.095 102.69 175.88 102.966 176.772 102.966C177.482 102.966 178.093 102.813 178.606 102.507C179.135 102.187 179.557 101.756 179.875 101.217L181.981 102.179C181.438 103.097 180.728 103.819 179.852 104.344C178.977 104.869 177.926 105.132 176.704 105.132ZM179.671 97.8925C179.641 97.4995 179.513 97.1133 179.286 96.7338C179.06 96.3408 178.713 96.0122 178.244 95.7494C177.79 95.4879 177.232 95.3564 176.568 95.3564C175.768 95.3564 175.088 95.5898 174.528 96.0565C173.985 96.5084 173.607 97.12 173.396 97.8925H179.671ZM184.476 89.1244H186.968V104.782H184.476V89.1244ZM195.199 105.132C194.036 105.132 192.994 104.875 192.073 104.366C191.152 103.84 190.436 103.127 189.922 102.223C189.408 101.319 189.152 100.313 189.152 99.2054C189.152 98.0963 189.408 97.0905 189.922 96.1866C190.436 95.2827 191.152 94.576 192.073 94.0664C192.994 93.5407 194.036 93.2791 195.199 93.2791C196.362 93.2791 197.403 93.5407 198.326 94.0664C199.247 94.5907 199.964 95.3055 200.478 96.2094C200.99 97.1133 201.247 98.111 201.247 99.2054C201.247 100.313 200.99 101.319 200.478 102.223C199.964 103.127 199.247 103.84 198.326 104.366C197.403 104.875 196.362 105.132 195.199 105.132ZM195.199 102.923C195.834 102.923 196.423 102.777 196.966 102.486C197.51 102.179 197.94 101.749 198.258 101.194C198.59 100.626 198.755 99.9631 198.755 99.2054C198.755 98.4463 198.59 97.7905 198.258 97.2367C197.94 96.6828 197.51 96.2604 196.966 95.968C196.423 95.6622 195.834 95.5093 195.199 95.5093C194.565 95.5093 193.977 95.6622 193.432 95.968C192.889 96.2604 192.451 96.6828 192.119 97.2367C191.801 97.7905 191.643 98.4463 191.643 99.2054C191.643 99.9631 191.801 100.626 192.119 101.194C192.451 101.749 192.889 102.179 193.432 102.486C193.977 102.777 194.565 102.923 195.199 102.923ZM203.343 93.6291H205.722V95.0936H205.836C206.168 94.584 206.658 94.1535 207.308 93.8035C207.957 93.4535 208.689 93.2791 209.504 93.2791C210.546 93.2791 211.491 93.5339 212.337 94.0435C213.181 94.5545 213.847 95.2612 214.329 96.1651C214.828 97.0543 215.078 98.0681 215.078 99.2054C215.078 100.343 214.828 101.362 214.329 102.266C213.847 103.156 213.181 103.855 212.337 104.366C211.491 104.875 210.546 105.132 209.504 105.132C208.689 105.132 207.957 104.956 207.308 104.606C206.658 104.256 206.168 103.833 205.836 103.337H205.722L205.836 104.89V109.505H203.343V93.6291ZM209.142 102.923C209.746 102.923 210.313 102.769 210.841 102.463C211.37 102.157 211.792 101.72 212.109 101.151C212.427 100.583 212.585 99.9336 212.585 99.2054C212.585 98.4758 212.427 97.8348 212.109 97.2809C211.792 96.7123 211.37 96.2751 210.841 95.968C210.313 95.6622 209.746 95.5093 209.142 95.5093C208.539 95.5093 207.972 95.6622 207.443 95.968C206.93 96.2751 206.515 96.7123 206.198 97.2809C205.88 97.8348 205.722 98.4758 205.722 99.2054C205.722 99.9336 205.88 100.583 206.198 101.151C206.515 101.72 206.93 102.157 207.443 102.463C207.972 102.769 208.539 102.923 209.142 102.923ZM222.626 105.132C221.493 105.132 220.474 104.875 219.567 104.366C218.677 103.855 217.974 103.156 217.461 102.266C216.963 101.362 216.714 100.349 216.714 99.2268C216.714 98.162 216.956 97.179 217.439 96.2751C217.937 95.3564 218.624 94.6269 219.499 94.0878C220.376 93.5487 221.372 93.2791 222.49 93.2791C223.653 93.2791 224.657 93.5259 225.503 94.0221C226.363 94.5183 227.013 95.1955 227.451 96.0565C227.904 96.9161 228.13 97.8857 228.13 98.964C228.13 99.1678 228.108 99.424 228.062 99.7297H219.205C219.296 100.765 219.673 101.567 220.338 102.136C221.018 102.69 221.802 102.966 222.694 102.966C223.403 102.966 224.015 102.813 224.528 102.507C225.057 102.187 225.48 101.756 225.796 101.217L227.904 102.179C227.36 103.097 226.651 103.819 225.774 104.344C224.899 104.869 223.849 105.132 222.626 105.132ZM225.593 97.8925C225.563 97.4995 225.435 97.1133 225.209 96.7338C224.981 96.3408 224.634 96.0122 224.165 95.7494C223.713 95.4879 223.154 95.3564 222.49 95.3564C221.69 95.3564 221.009 95.5898 220.451 96.0565C219.908 96.5084 219.53 97.12 219.319 97.8925H225.593ZM230.399 93.6291H232.778V95.2693H232.891C233.148 94.7007 233.594 94.234 234.227 93.8692C234.862 93.4897 235.533 93.3006 236.243 93.3006C236.803 93.3006 237.271 93.373 237.647 93.5192V96.0123C236.983 95.7789 236.387 95.6622 235.858 95.6622C235.284 95.6622 234.77 95.8084 234.317 96.0994C233.88 96.3918 233.532 96.7847 233.275 97.2809C233.018 97.761 232.891 98.2934 232.891 98.8768V104.782H230.399V93.6291ZM249.277 105.132C247.932 105.132 246.725 104.752 245.653 103.994C244.58 103.235 243.84 102.172 243.433 100.801L245.833 99.8612C246.075 100.721 246.499 101.428 247.102 101.981C247.721 102.522 248.462 102.791 249.321 102.791C250.123 102.791 250.802 102.594 251.361 102.201C251.919 101.792 252.198 101.238 252.198 100.538C252.198 99.8974 251.95 99.373 251.451 98.964C250.968 98.5415 250.115 98.1191 248.892 97.6953L247.873 97.3466C246.785 96.9819 245.872 96.4561 245.132 95.7722C244.391 95.0869 244.022 94.183 244.022 93.0605C244.022 92.2867 244.24 91.5732 244.679 90.9175C245.117 90.2603 245.721 89.744 246.49 89.3645C247.275 88.9702 248.159 88.7744 249.141 88.7744C250.561 88.7744 251.693 89.1097 252.539 89.7802C253.385 90.436 253.95 91.179 254.238 92.0104L251.95 92.9506C251.783 92.4544 251.466 92.0171 250.998 91.639C250.53 91.2594 249.926 91.0704 249.187 91.0704C248.446 91.0704 247.82 91.2527 247.306 91.6162C246.807 91.9809 246.558 92.4476 246.558 93.0163C246.558 93.5554 246.785 94.0006 247.238 94.3506C247.691 94.7007 248.401 95.0359 249.367 95.3564L250.387 95.6837C251.776 96.1504 252.848 96.7633 253.603 97.521C254.374 98.2639 254.759 99.2631 254.759 100.517C254.759 101.538 254.486 102.397 253.943 103.097C253.4 103.782 252.704 104.292 251.859 104.627C251.029 104.964 250.168 105.132 249.277 105.132ZM261.413 104.956C260.899 104.956 260.415 104.875 259.962 104.716C259.509 104.555 259.14 104.344 258.852 104.082C258.204 103.454 257.879 102.601 257.879 101.523V95.7494H255.863V93.6291H257.879V90.4789H260.371V93.6291H263.18V95.7494H260.371V100.998C260.371 101.595 260.492 102.019 260.733 102.266C260.96 102.558 261.351 102.704 261.911 102.704C262.167 102.704 262.395 102.675 262.591 102.616C262.786 102.543 262.998 102.433 263.224 102.289V104.627C262.727 104.847 262.122 104.956 261.413 104.956ZM269.761 105.132C268.357 105.132 267.286 104.731 266.546 103.929C265.82 103.112 265.458 101.981 265.458 100.538V93.6291H267.95V100.211C267.95 101.115 268.168 101.792 268.607 102.244C269.06 102.696 269.649 102.923 270.374 102.923C270.963 102.923 271.484 102.777 271.937 102.486C272.39 102.179 272.737 101.778 272.979 101.283C273.22 100.787 273.341 100.254 273.341 99.6855V93.6291H275.832V104.782H273.477V103.337H273.341C273.023 103.863 272.533 104.292 271.869 104.627C271.205 104.964 270.502 105.132 269.761 105.132ZM283.56 105.132C282.518 105.132 281.575 104.875 280.729 104.366C279.883 103.855 279.21 103.156 278.713 102.266C278.23 101.362 277.988 100.343 277.988 99.2054C277.988 98.0681 278.23 97.0543 278.713 96.1651C279.21 95.2612 279.883 94.5545 280.729 94.0435C281.575 93.5339 282.518 93.2791 283.56 93.2791C284.375 93.2791 285.107 93.4535 285.757 93.8035C286.406 94.1535 286.898 94.584 287.23 95.0936H287.342L287.23 93.5192V89.1244H289.721V104.782H287.342V103.337H287.23C286.898 103.833 286.406 104.256 285.757 104.606C285.107 104.956 284.375 105.132 283.56 105.132ZM283.922 102.923C284.527 102.923 285.085 102.769 285.599 102.463C286.127 102.157 286.551 101.72 286.867 101.151C287.184 100.583 287.342 99.9336 287.342 99.2054C287.342 98.4758 287.184 97.8348 286.867 97.2809C286.551 96.7123 286.127 96.2751 285.599 95.968C285.085 95.6622 284.527 95.5093 283.922 95.5093C283.318 95.5093 282.753 95.6622 282.223 95.968C281.696 96.2751 281.272 96.7123 280.955 97.2809C280.638 97.8348 280.48 98.4758 280.48 99.2054C280.48 99.9336 280.638 100.583 280.955 101.151C281.272 101.72 281.696 102.157 282.223 102.463C282.753 102.769 283.318 102.923 283.922 102.923ZM297.792 105.132C296.66 105.132 295.64 104.875 294.734 104.366C293.842 103.855 293.141 103.156 292.627 102.266C292.128 101.362 291.879 100.349 291.879 99.2268C291.879 98.162 292.121 97.179 292.605 96.2751C293.103 95.3564 293.79 94.6269 294.666 94.0878C295.541 93.5487 296.539 93.2791 297.655 93.2791C298.818 93.2791 299.823 93.5259 300.669 94.0221C301.528 94.5183 302.179 95.1955 302.616 96.0565C303.069 96.9161 303.295 97.8857 303.295 98.964C303.295 99.1678 303.273 99.424 303.227 99.7297H294.372C294.462 100.765 294.84 101.567 295.504 102.136C296.183 102.69 296.968 102.966 297.86 102.966C298.57 102.966 299.181 102.813 299.695 102.507C300.223 102.187 300.645 101.756 300.963 101.217L303.069 102.179C302.526 103.097 301.816 103.819 300.939 104.344C300.064 104.869 299.014 105.132 297.792 105.132ZM300.759 97.8925C300.728 97.4995 300.6 97.1133 300.374 96.7338C300.148 96.3408 299.8 96.0122 299.332 95.7494C298.879 95.4879 298.32 95.3564 297.655 95.3564C296.855 95.3564 296.176 95.5898 295.618 96.0565C295.073 96.5084 294.695 97.12 294.484 97.8925H300.759ZM305.565 93.6291H307.944V95.0936H308.056C308.388 94.5693 308.88 94.1388 309.529 93.8035C310.194 93.4535 310.895 93.2791 311.636 93.2791C313.04 93.2791 314.104 93.6801 314.829 94.4807C315.57 95.2693 315.939 96.3475 315.939 97.7181V104.782H313.447V98.0453C313.447 97.1709 313.221 96.5299 312.768 96.1209C312.33 95.7132 311.718 95.5093 310.933 95.5093C310.374 95.5093 309.876 95.6622 309.438 95.968C309.001 96.2604 308.66 96.6533 308.419 97.1495C308.177 97.6443 308.056 98.1768 308.056 98.7454V104.782H305.565V93.6291ZM322.907 104.956C322.395 104.956 321.911 104.875 321.459 104.716C321.006 104.555 320.635 104.344 320.349 104.082C319.698 103.454 319.373 102.601 319.373 101.523V95.7494H317.358V93.6291H319.373V90.4789H321.866V93.6291H324.674V95.7494H321.866V100.998C321.866 101.595 321.986 102.019 322.228 102.266C322.454 102.558 322.848 102.704 323.406 102.704C323.663 102.704 323.89 102.675 324.085 102.616C324.281 102.543 324.494 102.433 324.72 102.289V104.627C324.221 104.847 323.617 104.956 322.907 104.956ZM339.974 105.132C338.403 105.132 336.97 104.774 335.671 104.06C334.372 103.345 333.352 102.361 332.612 101.107C331.873 99.8531 331.503 98.4691 331.503 96.9523C331.503 95.4369 331.873 94.0516 332.612 92.7977C333.352 91.5438 334.372 90.5594 335.671 89.846C336.97 89.1312 338.403 88.7744 339.974 88.7744C341.197 88.7744 342.307 88.993 343.304 89.4302C344.316 89.8674 345.207 90.5017 345.977 91.3319L344.166 93.0163C343.606 92.3752 342.988 91.9005 342.307 91.5947C341.628 91.2742 340.85 91.1133 339.974 91.1133C338.887 91.1133 337.891 91.3547 336.985 91.8348C336.093 92.3162 335.383 93.0015 334.855 93.8907C334.326 94.765 334.062 95.7856 334.062 96.9523C334.062 98.1191 334.326 99.1464 334.855 100.036C335.383 100.91 336.093 101.588 336.985 102.07C337.891 102.55 338.887 102.791 339.974 102.791C341.786 102.791 343.326 102.062 344.595 100.604L346.43 102.31C345.645 103.199 344.7 103.892 343.599 104.387C342.496 104.884 341.289 105.132 339.974 105.132ZM348.633 89.1244H351.125V104.782H348.633V89.1244ZM358.267 105.132C356.862 105.132 355.79 104.731 355.049 103.929C354.324 103.112 353.963 101.981 353.963 100.538V93.6291H356.454V100.211C356.454 101.115 356.673 101.792 357.111 102.244C357.564 102.696 358.153 102.923 358.878 102.923C359.467 102.923 359.988 102.777 360.441 102.486C360.894 102.179 361.241 101.778 361.483 101.283C361.724 100.787 361.845 100.254 361.845 99.6855V93.6291H364.337V104.782H361.981V103.337H361.845C361.528 103.863 361.037 104.292 360.373 104.627C359.709 104.964 359.006 105.132 358.267 105.132ZM373.399 105.132C372.583 105.132 371.85 104.956 371.201 104.606C370.552 104.256 370.061 103.833 369.729 103.337H369.616V104.782H367.236V89.1244H369.729V93.5192L369.616 95.0936H369.729C370.061 94.584 370.552 94.1535 371.201 93.8035C371.85 93.4535 372.583 93.2791 373.399 93.2791C374.441 93.2791 375.384 93.5339 376.23 94.0435C377.076 94.5545 377.74 95.2612 378.223 96.1651C378.722 97.0543 378.971 98.0681 378.971 99.2054C378.971 100.343 378.722 101.362 378.223 102.266C377.74 103.156 377.076 103.855 376.23 104.366C375.384 104.875 374.441 105.132 373.399 105.132ZM373.036 102.923C373.64 102.923 374.206 102.769 374.735 102.463C375.263 102.157 375.687 101.72 376.003 101.151C376.32 100.583 376.478 99.9336 376.478 99.2054C376.478 98.4758 376.32 97.8348 376.003 97.2809C375.687 96.7123 375.263 96.2751 374.735 95.968C374.206 95.6622 373.64 95.5093 373.036 95.5093C372.432 95.5093 371.865 95.6622 371.337 95.968C370.823 96.2751 370.408 96.7123 370.091 97.2809C369.774 97.8348 369.616 98.4758 369.616 99.2054C369.616 99.9336 369.774 100.583 370.091 101.151C370.408 101.72 370.823 102.157 371.337 102.463C371.865 102.769 372.432 102.923 373.036 102.923ZM385.343 105.132C384.013 105.132 382.925 104.854 382.079 104.3C381.235 103.732 380.638 103.01 380.29 102.136L382.51 101.194C382.782 101.778 383.16 102.223 383.644 102.529C384.141 102.834 384.708 102.989 385.343 102.989C385.961 102.989 386.482 102.885 386.905 102.681C387.328 102.463 387.539 102.142 387.539 101.72C387.539 101.311 387.358 100.99 386.996 100.757C386.633 100.524 386.075 100.32 385.319 100.145L383.938 99.8169C383.016 99.5983 382.253 99.2121 381.65 98.6582C381.046 98.1043 380.743 97.4043 380.743 96.5594C380.743 95.9023 380.94 95.3269 381.332 94.8307C381.741 94.3359 382.284 93.9564 382.963 93.6935C383.644 93.4173 384.383 93.2791 385.183 93.2791C386.255 93.2791 387.2 93.4897 388.015 93.9135C388.831 94.3211 389.42 94.9193 389.781 95.7065L387.607 96.6238C387.169 95.7641 386.369 95.3337 385.206 95.3337C384.647 95.3337 384.178 95.4436 383.802 95.6622C383.424 95.8808 383.235 96.1651 383.235 96.5152C383.235 96.8504 383.378 97.128 383.666 97.3466C383.952 97.5505 384.376 97.7248 384.934 97.871L386.633 98.2867C387.765 98.563 388.618 98.9868 389.193 99.554C389.781 100.109 390.075 100.795 390.075 101.61C390.075 102.31 389.864 102.93 389.442 103.469C389.034 103.994 388.468 104.402 387.743 104.693C387.018 104.985 386.218 105.132 385.343 105.132Z" />
    <path
        d="M226.757 54.6373L245.395 44.2489C247.993 42.8011 251.314 43.6603 252.814 46.168C254.314 48.6757 253.424 51.8823 250.826 53.3301L232.188 63.7184C229.591 65.1663 226.269 64.3071 224.77 61.7994C223.27 59.2917 224.16 56.0851 226.757 54.6373Z"
        fill="#FBBC04" />
    <path
        d="M213.523 42.8852L194.885 53.2735C192.287 54.7213 188.966 53.8621 187.466 51.3544C185.966 48.8468 186.856 45.6402 189.454 44.1924L208.092 33.804C210.69 32.3562 214.011 33.2154 215.511 35.7231C217.01 38.2308 216.12 41.4374 213.523 42.8852Z"
        fill="#EA4335" />
    <path
        d="M213.064 54.6358L194.426 44.2475C191.828 42.7997 188.507 43.6589 187.007 46.1666C185.507 48.6743 186.398 51.8808 188.995 53.3287L207.633 63.717C210.231 65.1648 213.552 64.3056 215.052 61.7979C216.552 59.2903 215.662 56.0836 213.064 54.6358Z"
        fill="#4285F4" />
    <path
        d="M226.441 42.7088L245.712 53.4499C248.135 54.8003 251.233 53.9989 252.631 51.6599L252.997 51.0489C254.396 48.71 253.565 45.7191 251.143 44.3687L231.872 33.6276C229.449 32.2772 226.351 33.0786 224.952 35.4176L224.587 36.0286C223.188 38.3675 224.018 41.3584 226.441 42.7088Z"
        fill="#0F9D58" />
    <path
        d="M46.8322 134.159C45.7723 134.159 44.8096 133.919 43.9442 133.437C43.0787 132.955 42.3953 132.297 41.8966 131.46C41.4076 130.615 41.1631 129.675 41.1631 128.642C41.1631 127.61 41.4076 126.676 41.8966 125.839C42.3953 124.994 43.0787 124.331 43.9442 123.848C44.8096 123.366 45.7723 123.125 46.8322 123.125C47.6476 123.125 48.3908 123.278 49.0632 123.582C49.7453 123.877 50.337 124.301 50.8357 124.851L49.9036 125.721C49.4855 125.24 49.0271 124.886 48.5283 124.659C48.0394 124.434 47.474 124.32 46.8322 124.32C46.0376 124.32 45.3097 124.502 44.6471 124.866C43.9844 125.22 43.4552 125.727 43.0579 126.385C42.6703 127.034 42.4772 127.787 42.4772 128.642C42.4772 129.498 42.6703 130.256 43.0579 130.914C43.4552 131.563 43.9844 132.07 44.6471 132.433C45.3097 132.787 46.0376 132.965 46.8322 132.965C48.156 132.965 49.2827 132.439 50.2092 131.386L51.1567 132.271C50.6468 132.852 50.0203 133.315 49.2771 133.658C48.5339 133.993 47.7185 134.159 46.8322 134.159ZM55.3672 134.159C54.4309 134.159 53.7127 133.894 53.2126 133.363C52.7236 132.832 52.4791 132.09 52.4791 131.135V126.4H53.7779V130.944C53.7779 131.662 53.9461 132.188 54.2822 132.522C54.6184 132.857 55.0727 133.024 55.6422 133.024C56.0812 133.024 56.4674 132.911 56.8035 132.684C57.1508 132.459 57.4147 132.164 57.5981 131.799C57.7926 131.436 57.8884 131.052 57.8884 130.648V126.4H59.1873V133.923H57.9495V132.832H57.8884C57.6745 133.206 57.3341 133.521 56.8646 133.776C56.3964 134.032 55.8978 134.159 55.3672 134.159ZM61.1057 126.4H62.3434V127.506H62.4046C62.6296 127.123 62.9658 126.804 63.4131 126.547C63.8618 126.293 64.3354 126.164 64.8341 126.164C65.4051 126.164 65.8996 126.297 66.3164 126.562C66.7442 126.828 67.0499 127.182 67.2333 127.624C67.5083 127.182 67.8709 126.828 68.3182 126.562C68.7766 126.297 69.3072 126.164 69.9073 126.164C70.8047 126.164 71.477 126.429 71.9243 126.96C72.3828 127.482 72.612 128.196 72.612 129.1V133.923H71.3285V129.291C71.3285 128.594 71.1812 128.087 70.8853 127.772C70.5908 127.458 70.1518 127.3 69.5712 127.3C69.185 127.3 68.8335 127.408 68.5168 127.624C68.2014 127.842 67.9514 128.131 67.768 128.495C67.5957 128.859 67.5083 129.252 67.5083 129.675V133.923H66.2095V129.306C66.2095 128.598 66.0622 128.087 65.7663 127.772C65.4718 127.458 65.0384 127.3 64.4674 127.3C64.0812 127.3 63.7298 127.414 63.4131 127.639C63.0978 127.856 62.8477 128.151 62.6643 128.524C62.4921 128.889 62.4046 129.282 62.4046 129.704V133.923H61.1057V126.4ZM74.4763 126.4H75.714V127.506H75.7751C76.0001 127.123 76.3363 126.804 76.7836 126.547C77.2323 126.293 77.706 126.164 78.2047 126.164C78.7756 126.164 79.2702 126.297 79.6869 126.562C80.1148 126.828 80.4204 127.182 80.6038 127.624C80.8788 127.182 81.2414 126.828 81.6887 126.562C82.1471 126.297 82.6778 126.164 83.2779 126.164C84.1753 126.164 84.8476 126.429 85.2949 126.96C85.7533 127.482 85.9825 128.196 85.9825 129.1V133.923H84.699V129.291C84.699 128.594 84.5517 128.087 84.2558 127.772C83.9613 127.458 83.5224 127.3 82.9417 127.3C82.5555 127.3 82.204 127.408 81.8873 127.624C81.572 127.842 81.3219 128.131 81.1385 128.495C80.9663 128.859 80.8788 129.252 80.8788 129.675V133.923H79.58V129.306C79.58 128.598 79.4327 128.087 79.1368 127.772C78.8423 127.458 78.4089 127.3 77.838 127.3C77.4518 127.3 77.1004 127.414 76.7836 127.639C76.4683 127.856 76.2183 128.151 76.0349 128.524C75.8626 128.889 75.7751 129.282 75.7751 129.704V133.923H74.4763V126.4ZM88.6108 125.013C88.3566 125.013 88.1371 124.925 87.9537 124.748C87.7703 124.571 87.6787 124.36 87.6787 124.113C87.6787 123.868 87.7703 123.661 87.9537 123.494C88.1371 123.317 88.3566 123.228 88.6108 123.228C88.8664 123.228 89.0845 123.317 89.2679 123.494C89.4513 123.661 89.543 123.868 89.543 124.113C89.543 124.36 89.4513 124.571 89.2679 124.748C89.0957 124.925 88.8761 125.013 88.6108 125.013ZM87.9691 126.4H89.2526V133.923H87.9691V126.4ZM91.2947 126.4H92.5324V127.506H92.5935C92.8074 127.134 93.1478 126.818 93.6173 126.562C94.0854 126.297 94.5842 126.164 95.1148 126.164C96.0511 126.164 96.7651 126.429 97.2541 126.96C97.7528 127.482 98.0028 128.196 98.0028 129.1V133.923H96.704V129.291C96.704 128.594 96.5304 128.087 96.1845 127.772C95.8372 127.458 95.3635 127.3 94.7634 127.3C94.3452 127.3 93.9687 127.414 93.6326 127.639C93.3061 127.866 93.0519 128.166 92.8685 128.539C92.6852 128.904 92.5935 129.287 92.5935 129.69V133.923H91.2947V126.4ZM102.505 134.159C101.67 134.159 100.971 133.973 100.412 133.599C99.8518 133.215 99.4545 132.728 99.2198 132.138L100.381 131.637C100.574 132.09 100.86 132.439 101.237 132.684C101.624 132.931 102.047 133.053 102.505 133.053C102.994 133.053 103.412 132.961 103.758 132.773C104.104 132.577 104.278 132.301 104.278 131.947C104.278 131.633 104.14 131.382 103.865 131.194C103.59 130.999 103.157 130.831 102.566 130.693L101.619 130.457C100.998 130.309 100.488 130.058 100.091 129.704C99.6934 129.35 99.4948 128.893 99.4948 128.332C99.4948 127.901 99.6267 127.521 99.892 127.197C100.167 126.863 100.528 126.606 100.977 126.429C101.426 126.252 101.909 126.164 102.429 126.164C103.111 126.164 103.718 126.307 104.247 126.592C104.787 126.877 105.169 127.276 105.393 127.787L104.262 128.288C103.916 127.62 103.3 127.285 102.413 127.285C101.985 127.285 101.609 127.384 101.283 127.58C100.967 127.768 100.809 128.008 100.809 128.303C100.809 128.579 100.921 128.804 101.145 128.981C101.369 129.149 101.705 129.287 102.154 129.395L103.284 129.675C104.048 129.863 104.624 130.143 105.011 130.516C105.399 130.88 105.592 131.327 105.592 131.858C105.592 132.321 105.454 132.728 105.179 133.083C104.904 133.427 104.532 133.693 104.064 133.879C103.596 134.067 103.076 134.159 102.505 134.159ZM115.655 134.159C114.595 134.159 113.632 133.919 112.767 133.437C111.901 132.955 111.218 132.297 110.719 131.46C110.23 130.615 109.986 129.675 109.986 128.642C109.986 127.61 110.23 126.676 110.719 125.839C111.218 124.994 111.901 124.331 112.767 123.848C113.632 123.366 114.595 123.125 115.655 123.125C116.47 123.125 117.213 123.278 117.886 123.582C118.568 123.877 119.16 124.301 119.658 124.851L118.726 125.721C118.308 125.24 117.85 124.886 117.351 124.659C116.862 124.434 116.297 124.32 115.655 124.32C114.86 124.32 114.132 124.502 113.47 124.866C112.807 125.22 112.278 125.727 111.88 126.385C111.493 127.034 111.3 127.787 111.3 128.642C111.3 129.498 111.493 130.256 111.88 130.914C112.278 131.563 112.807 132.07 113.47 132.433C114.132 132.787 114.86 132.965 115.655 132.965C116.979 132.965 118.105 132.439 119.032 131.386L119.979 132.271C119.469 132.852 118.843 133.315 118.1 133.658C117.356 133.993 116.541 134.159 115.655 134.159ZM124.88 134.159C124.116 134.159 123.428 133.982 122.817 133.628C122.206 133.274 121.727 132.793 121.381 132.183C121.045 131.574 120.877 130.899 120.877 130.162C120.877 129.424 121.045 128.751 121.381 128.141C121.727 127.532 122.206 127.049 122.817 126.695C123.428 126.341 124.116 126.164 124.88 126.164C125.644 126.164 126.332 126.341 126.943 126.695C127.554 127.049 128.028 127.532 128.364 128.141C128.71 128.751 128.884 129.424 128.884 130.162C128.884 130.899 128.71 131.574 128.364 132.183C128.028 132.793 127.554 133.274 126.943 133.628C126.332 133.982 125.644 134.159 124.88 134.159ZM124.88 133.024C125.358 133.024 125.801 132.911 126.209 132.684C126.626 132.448 126.958 132.114 127.203 131.681C127.457 131.249 127.585 130.742 127.585 130.162C127.585 129.582 127.457 129.075 127.203 128.642C126.958 128.21 126.626 127.88 126.209 127.654C125.801 127.418 125.358 127.3 124.88 127.3C124.401 127.3 123.952 127.418 123.535 127.654C123.117 127.88 122.781 128.21 122.527 128.642C122.282 129.075 122.16 129.582 122.16 130.162C122.16 130.742 122.282 131.249 122.527 131.681C122.781 132.114 123.117 132.448 123.535 132.684C123.952 132.911 124.401 133.024 124.88 133.024ZM130.317 123.361H131.616V133.923H130.317V123.361ZM133.54 123.361H134.839V133.923H133.54V123.361ZM140.157 134.159C139.413 134.159 138.746 133.988 138.155 133.643C137.564 133.3 137.1 132.828 136.764 132.227C136.439 131.618 136.275 130.934 136.275 130.176C136.275 129.45 136.428 128.78 136.734 128.17C137.05 127.561 137.494 127.074 138.063 126.71C138.634 126.346 139.297 126.164 140.05 126.164C140.814 126.164 141.476 126.332 142.036 126.665C142.597 126.99 143.025 127.443 143.32 128.023C143.625 128.603 143.778 129.267 143.778 130.014C143.778 130.162 143.763 130.29 143.732 130.398H137.574C137.605 130.969 137.748 131.45 138.002 131.843C138.258 132.238 138.578 132.533 138.965 132.728C139.362 132.926 139.774 133.024 140.202 133.024C141.201 133.024 141.971 132.572 142.51 131.666L143.61 132.183C143.274 132.793 142.815 133.274 142.235 133.628C141.665 133.982 140.972 134.159 140.157 134.159ZM142.403 129.365C142.383 129.051 142.292 128.736 142.128 128.421C141.965 128.107 141.705 127.842 141.348 127.624C141.002 127.408 140.565 127.3 140.034 127.3C139.423 127.3 138.903 127.492 138.476 127.875C138.059 128.249 137.784 128.745 137.65 129.365H142.403ZM148.796 137.346C147.879 137.346 147.12 137.139 146.519 136.726C145.928 136.313 145.531 135.817 145.327 135.236L146.504 134.75C146.677 135.183 146.962 135.531 147.359 135.797C147.768 136.073 148.246 136.21 148.796 136.21C149.601 136.21 150.222 135.985 150.66 135.531C151.109 135.079 151.332 134.44 151.332 133.614V132.773H151.271C151.017 133.156 150.656 133.471 150.186 133.717C149.728 133.953 149.204 134.071 148.612 134.071C147.94 134.071 147.325 133.905 146.763 133.569C146.213 133.235 145.776 132.769 145.449 132.168C145.124 131.568 144.96 130.885 144.96 130.117C144.96 129.361 145.124 128.682 145.449 128.082C145.776 127.473 146.213 127.001 146.763 126.665C147.325 126.332 147.94 126.164 148.612 126.164C149.204 126.164 149.728 126.287 150.186 126.533C150.656 126.769 151.017 127.084 151.271 127.477H151.332V126.4H152.57V133.628C152.57 134.838 152.224 135.758 151.531 136.387C150.839 137.027 149.926 137.346 148.796 137.346ZM148.796 132.935C149.265 132.935 149.687 132.822 150.064 132.596C150.451 132.37 150.757 132.046 150.981 131.622C151.216 131.2 151.332 130.698 151.332 130.117C151.332 129.527 151.216 129.022 150.981 128.598C150.757 128.176 150.451 127.856 150.064 127.639C149.687 127.414 149.265 127.3 148.796 127.3C148.327 127.3 147.9 127.414 147.512 127.639C147.126 127.866 146.815 128.19 146.58 128.613C146.356 129.036 146.244 129.538 146.244 130.117C146.244 130.698 146.356 131.205 146.58 131.637C146.815 132.061 147.126 132.385 147.512 132.61C147.9 132.828 148.327 132.935 148.796 132.935ZM157.885 134.159C157.142 134.159 156.473 133.988 155.883 133.643C155.293 133.3 154.829 132.828 154.493 132.227C154.166 131.618 154.003 130.934 154.003 130.176C154.003 129.45 154.156 128.78 154.462 128.17C154.777 127.561 155.22 127.074 155.791 126.71C156.362 126.346 157.024 126.164 157.778 126.164C158.542 126.164 159.205 126.332 159.764 126.665C160.324 126.99 160.752 127.443 161.048 128.023C161.354 128.603 161.506 129.267 161.506 130.014C161.506 130.162 161.491 130.29 161.46 130.398H155.302C155.333 130.969 155.476 131.45 155.73 131.843C155.984 132.238 156.305 132.533 156.693 132.728C157.09 132.926 157.503 133.024 157.931 133.024C158.929 133.024 159.698 132.572 160.238 131.666L161.338 132.183C161.002 132.793 160.544 133.274 159.963 133.628C159.392 133.982 158.7 134.159 157.885 134.159ZM160.131 129.365C160.11 129.051 160.019 128.736 159.856 128.421C159.693 128.107 159.434 127.842 159.077 127.624C158.731 127.408 158.292 127.3 157.763 127.3C157.151 127.3 156.632 127.492 156.204 127.875C155.786 128.249 155.511 128.745 155.379 129.365H160.131ZM170.169 134.159C169.405 134.159 168.717 133.982 168.106 133.628C167.495 133.274 167.016 132.793 166.67 132.183C166.334 131.574 166.165 130.899 166.165 130.162C166.165 129.424 166.334 128.751 166.67 128.141C167.016 127.532 167.495 127.049 168.106 126.695C168.717 126.341 169.405 126.164 170.169 126.164C170.933 126.164 171.621 126.341 172.232 126.695C172.843 127.049 173.317 127.532 173.653 128.141C173.999 128.751 174.173 129.424 174.173 130.162C174.173 130.899 173.999 131.574 173.653 132.183C173.317 132.793 172.843 133.274 172.232 133.628C171.621 133.982 170.933 134.159 170.169 134.159ZM170.169 133.024C170.648 133.024 171.091 132.911 171.498 132.684C171.917 132.448 172.247 132.114 172.492 131.681C172.746 131.249 172.874 130.742 172.874 130.162C172.874 129.582 172.746 129.075 172.492 128.642C172.247 128.21 171.917 127.88 171.498 127.654C171.091 127.418 170.648 127.3 170.169 127.3C169.69 127.3 169.242 127.418 168.824 127.654C168.406 127.88 168.07 128.21 167.816 128.642C167.571 129.075 167.449 129.582 167.449 130.162C167.449 130.742 167.571 131.249 167.816 131.681C168.07 132.114 168.406 132.448 168.824 132.684C169.242 132.911 169.69 133.024 170.169 133.024ZM176.359 127.536H174.923V126.4H176.359V125.589C176.359 125.116 176.47 124.703 176.695 124.349C176.919 123.995 177.219 123.726 177.597 123.538C177.973 123.342 178.391 123.243 178.85 123.243C179.287 123.243 179.669 123.302 179.996 123.42V124.644C179.812 124.576 179.639 124.522 179.476 124.482C179.312 124.434 179.119 124.408 178.896 124.408C178.559 124.408 178.269 124.526 178.025 124.762C177.78 124.989 177.658 125.308 177.658 125.721V126.4H179.66V127.536H177.658V133.923H176.359V127.536ZM185.058 123.361H191.384V124.556H186.342V128.052H190.895V129.232H186.342V132.728H191.384V133.923H185.058V123.361ZM193.065 126.4H194.303V127.506H194.364C194.578 127.134 194.919 126.818 195.388 126.562C195.857 126.297 196.356 126.164 196.885 126.164C197.823 126.164 198.535 126.429 199.024 126.96C199.524 127.482 199.773 128.196 199.773 129.1V133.923H198.474V129.291C198.474 128.594 198.302 128.087 197.955 127.772C197.609 127.458 197.135 127.3 196.534 127.3C196.117 127.3 195.739 127.414 195.403 127.639C195.078 127.866 194.822 128.166 194.639 128.539C194.455 128.904 194.364 129.287 194.364 129.69V133.923H193.065V126.4ZM204.98 137.346C204.063 137.346 203.303 137.139 202.703 136.726C202.111 136.313 201.714 135.817 201.511 135.236L202.688 134.75C202.86 135.183 203.146 135.531 203.543 135.797C203.95 136.073 204.43 136.21 204.98 136.21C205.784 136.21 206.405 135.985 206.844 135.531C207.291 135.079 207.516 134.44 207.516 133.614V132.773H207.455C207.2 133.156 206.838 133.471 206.37 133.717C205.912 133.953 205.387 134.071 204.796 134.071C204.124 134.071 203.507 133.905 202.947 133.569C202.397 133.235 201.958 132.769 201.633 132.168C201.307 131.568 201.144 130.885 201.144 130.117C201.144 129.361 201.307 128.682 201.633 128.082C201.958 127.473 202.397 127.001 202.947 126.665C203.507 126.332 204.124 126.164 204.796 126.164C205.387 126.164 205.912 126.287 206.37 126.533C206.838 126.769 207.2 127.084 207.455 127.477H207.516V126.4H208.754V133.628C208.754 134.838 208.407 135.758 207.715 136.387C207.022 137.027 206.11 137.346 204.98 137.346ZM204.98 132.935C205.448 132.935 205.87 132.822 206.248 132.596C206.634 132.37 206.94 132.046 207.165 131.622C207.398 131.2 207.516 130.698 207.516 130.117C207.516 129.527 207.398 129.022 207.165 128.598C206.94 128.176 206.634 127.856 206.248 127.639C205.87 127.414 205.448 127.3 204.98 127.3C204.51 127.3 204.082 127.414 203.696 127.639C203.309 127.866 202.997 128.19 202.764 128.613C202.539 129.036 202.428 129.538 202.428 130.117C202.428 130.698 202.539 131.205 202.764 131.637C202.997 132.061 203.309 132.385 203.696 132.61C204.082 132.828 204.51 132.935 204.98 132.935ZM211.438 125.013C211.184 125.013 210.964 124.925 210.781 124.748C210.597 124.571 210.506 124.36 210.506 124.113C210.506 123.868 210.597 123.661 210.781 123.494C210.964 123.317 211.184 123.228 211.438 123.228C211.693 123.228 211.912 123.317 212.095 123.494C212.278 123.661 212.37 123.868 212.37 124.113C212.37 124.36 212.278 124.571 212.095 124.748C211.923 124.925 211.703 125.013 211.438 125.013ZM210.796 126.4H212.08V133.923H210.796V126.4ZM214.122 126.4H215.359V127.506H215.421C215.634 127.134 215.975 126.818 216.444 126.562C216.912 126.297 217.411 126.164 217.942 126.164C218.878 126.164 219.592 126.429 220.081 126.96C220.58 127.482 220.83 128.196 220.83 129.1V133.923H219.531V129.291C219.531 128.594 219.357 128.087 219.011 127.772C218.664 127.458 218.19 127.3 217.59 127.3C217.172 127.3 216.796 127.414 216.46 127.639C216.133 127.866 215.879 128.166 215.696 128.539C215.512 128.904 215.421 129.287 215.421 129.69V133.923H214.122V126.4ZM226.156 134.159C225.411 134.159 224.744 133.988 224.154 133.643C223.562 133.3 223.1 132.828 222.764 132.227C222.437 131.618 222.275 130.934 222.275 130.176C222.275 129.45 222.427 128.78 222.733 128.17C223.048 127.561 223.491 127.074 224.062 126.71C224.632 126.346 225.295 126.164 226.049 126.164C226.813 126.164 227.474 126.332 228.035 126.665C228.595 126.99 229.023 127.443 229.319 128.023C229.625 128.603 229.777 129.267 229.777 130.014C229.777 130.162 229.762 130.29 229.732 130.398H223.573C223.604 130.969 223.746 131.45 224.001 131.843C224.256 132.238 224.576 132.533 224.964 132.728C225.361 132.926 225.774 133.024 226.202 133.024C227.199 133.024 227.969 132.572 228.509 131.666L229.609 132.183C229.273 132.793 228.815 133.274 228.234 133.628C227.663 133.982 226.97 134.159 226.156 134.159ZM228.402 129.365C228.381 129.051 228.29 128.736 228.127 128.421C227.963 128.107 227.703 127.842 227.348 127.624C227 127.408 226.563 127.3 226.034 127.3C225.422 127.3 224.903 127.492 224.475 127.875C224.057 128.249 223.782 128.745 223.65 129.365H228.402ZM234.841 134.159C234.096 134.159 233.429 133.988 232.839 133.643C232.247 133.3 231.785 132.828 231.448 132.227C231.122 131.618 230.959 130.934 230.959 130.176C230.959 129.45 231.112 128.78 231.418 128.17C231.733 127.561 232.176 127.074 232.747 126.71C233.317 126.346 233.98 126.164 234.734 126.164C235.498 126.164 236.159 126.332 236.72 126.665C237.28 126.99 237.708 127.443 238.004 128.023C238.31 128.603 238.462 129.267 238.462 130.014C238.462 130.162 238.447 130.29 238.416 130.398H232.258C232.289 130.969 232.431 131.45 232.686 131.843C232.94 132.238 233.261 132.533 233.649 132.728C234.046 132.926 234.459 133.024 234.887 133.024C235.884 133.024 236.654 132.572 237.194 131.666L238.294 132.183C237.958 132.793 237.5 133.274 236.919 133.628C236.348 133.982 235.655 134.159 234.841 134.159ZM237.087 129.365C237.066 129.051 236.975 128.736 236.812 128.421C236.648 128.107 236.388 127.842 236.033 127.624C235.685 127.408 235.248 127.3 234.719 127.3C234.107 127.3 233.588 127.492 233.16 127.875C232.742 128.249 232.467 128.745 232.335 129.365H237.087ZM239.982 126.4H241.22V127.61H241.281C241.434 127.197 241.73 126.857 242.167 126.592C242.605 126.317 243.063 126.179 243.542 126.179C243.899 126.179 244.205 126.228 244.459 126.326V127.683C244.133 127.526 243.766 127.447 243.359 127.447C242.983 127.447 242.635 127.551 242.32 127.757C242.005 127.964 241.749 128.244 241.556 128.598C241.373 128.943 241.281 129.317 241.281 129.719V133.923H239.982V126.4ZM246.476 125.013C246.222 125.013 246.003 124.925 245.819 124.748C245.636 124.571 245.544 124.36 245.544 124.113C245.544 123.868 245.636 123.661 245.819 123.494C246.003 123.317 246.222 123.228 246.476 123.228C246.731 123.228 246.95 123.317 247.133 123.494C247.317 123.661 247.408 123.868 247.408 124.113C247.408 124.36 247.317 124.571 247.133 124.748C246.96 124.925 246.742 125.013 246.476 125.013ZM245.834 126.4H247.118V133.923H245.834V126.4ZM249.159 126.4H250.396V127.506H250.458C250.672 127.134 251.013 126.818 251.481 126.562C251.951 126.297 252.45 126.164 252.979 126.164C253.917 126.164 254.629 126.429 255.118 126.96C255.618 127.482 255.867 128.196 255.867 129.1V133.923H254.568V129.291C254.568 128.594 254.396 128.087 254.049 127.772C253.703 127.458 253.229 127.3 252.627 127.3C252.211 127.3 251.833 127.414 251.497 127.639C251.172 127.866 250.916 128.166 250.733 128.539C250.549 128.904 250.458 129.287 250.458 129.69V133.923H249.159V126.4ZM261.073 137.346C260.157 137.346 259.397 137.139 258.797 136.726C258.205 136.313 257.808 135.817 257.605 135.236L258.781 134.75C258.954 135.183 259.24 135.531 259.637 135.797C260.044 136.073 260.523 136.21 261.073 136.21C261.878 136.21 262.499 135.985 262.938 135.531C263.385 135.079 263.61 134.44 263.61 133.614V132.773H263.549C263.293 133.156 262.932 133.471 262.464 133.717C262.006 133.953 261.48 134.071 260.89 134.071C260.218 134.071 259.601 133.905 259.041 133.569C258.491 133.235 258.052 132.769 257.727 132.168C257.401 131.568 257.238 130.885 257.238 130.117C257.238 129.361 257.401 128.682 257.727 128.082C258.052 127.473 258.491 127.001 259.041 126.665C259.601 126.332 260.218 126.164 260.89 126.164C261.48 126.164 262.006 126.287 262.464 126.533C262.932 126.769 263.293 127.084 263.549 127.477H263.61V126.4H264.848V133.628C264.848 134.838 264.5 135.758 263.809 136.387C263.116 137.027 262.204 137.346 261.073 137.346ZM261.073 132.935C261.542 132.935 261.964 132.822 262.342 132.596C262.728 132.37 263.034 132.046 263.259 131.622C263.492 131.2 263.61 130.698 263.61 130.117C263.61 129.527 263.492 129.022 263.259 128.598C263.034 128.176 262.728 127.856 262.342 127.639C261.964 127.414 261.542 127.3 261.073 127.3C260.604 127.3 260.176 127.414 259.79 127.639C259.402 127.866 259.091 128.19 258.858 128.613C258.633 129.036 258.522 129.538 258.522 130.117C258.522 130.698 258.633 131.205 258.858 131.637C259.091 132.061 259.402 132.385 259.79 132.61C260.176 132.828 260.604 132.935 261.073 132.935ZM270.922 127.536H269.486V126.4H270.922V125.589C270.922 125.116 271.035 124.703 271.259 124.349C271.482 123.995 271.784 123.726 272.16 123.538C272.537 123.342 272.955 123.243 273.413 123.243C273.851 123.243 274.233 123.302 274.559 123.42V124.644C274.376 124.576 274.202 124.522 274.04 124.482C273.877 124.434 273.683 124.408 273.459 124.408C273.123 124.408 272.833 124.526 272.588 124.762C272.344 124.989 272.221 125.308 272.221 125.721V126.4H274.223V127.536H272.221V133.923H270.922V127.536ZM278.924 134.159C278.16 134.159 277.472 133.982 276.861 133.628C276.25 133.274 275.771 132.793 275.425 132.183C275.089 131.574 274.92 130.899 274.92 130.162C274.92 129.424 275.089 128.751 275.425 128.141C275.771 127.532 276.25 127.049 276.861 126.695C277.472 126.341 278.16 126.164 278.924 126.164C279.688 126.164 280.376 126.341 280.987 126.695C281.598 127.049 282.072 127.532 282.408 128.141C282.754 128.751 282.928 129.424 282.928 130.162C282.928 130.899 282.754 131.574 282.408 132.183C282.072 132.793 281.598 133.274 280.987 133.628C280.376 133.982 279.688 134.159 278.924 134.159ZM278.924 133.024C279.403 133.024 279.846 132.911 280.253 132.684C280.672 132.448 281.002 132.114 281.247 131.681C281.501 131.249 281.629 130.742 281.629 130.162C281.629 129.582 281.501 129.075 281.247 128.642C281.002 128.21 280.672 127.88 280.253 127.654C279.846 127.418 279.403 127.3 278.924 127.3C278.445 127.3 277.997 127.418 277.579 127.654C277.161 127.88 276.825 128.21 276.571 128.642C276.326 129.075 276.204 129.582 276.204 130.162C276.204 130.742 276.326 131.249 276.571 131.681C276.825 132.114 277.161 132.448 277.579 132.684C277.997 132.911 278.445 133.024 278.924 133.024ZM284.286 126.4H285.524V127.61H285.585C285.738 127.197 286.034 126.857 286.471 126.592C286.91 126.317 287.369 126.179 287.846 126.179C288.203 126.179 288.509 126.228 288.763 126.326V127.683C288.438 127.526 288.072 127.447 287.663 127.447C287.287 127.447 286.941 127.551 286.624 127.757C286.309 127.964 286.054 128.244 285.86 128.598C285.677 128.943 285.585 129.317 285.585 129.719V133.923H284.286V126.4ZM292.713 126.4H294.042L295.906 132.345H295.922L297.877 126.4H299.222L301.193 132.33H301.209L303.058 126.4H304.372L301.851 133.923H300.536L298.519 127.919L296.518 133.923H295.219L292.713 126.4ZM308.888 134.159C308.124 134.159 307.436 133.982 306.825 133.628C306.214 133.274 305.736 132.793 305.389 132.183C305.052 131.574 304.884 130.899 304.884 130.162C304.884 129.424 305.052 128.751 305.389 128.141C305.736 127.532 306.214 127.049 306.825 126.695C307.436 126.341 308.124 126.164 308.888 126.164C309.652 126.164 310.34 126.341 310.951 126.695C311.562 127.049 312.036 127.532 312.372 128.141C312.719 128.751 312.891 129.424 312.891 130.162C312.891 130.899 312.719 131.574 312.372 132.183C312.036 132.793 311.562 133.274 310.951 133.628C310.34 133.982 309.652 134.159 308.888 134.159ZM308.888 133.024C309.367 133.024 309.81 132.911 310.217 132.684C310.635 132.448 310.966 132.114 311.211 131.681C311.466 131.249 311.593 130.742 311.593 130.162C311.593 129.582 311.466 129.075 311.211 128.642C310.966 128.21 310.635 127.88 310.217 127.654C309.81 127.418 309.367 127.3 308.888 127.3C308.41 127.3 307.961 127.418 307.543 127.654C307.126 127.88 306.79 128.21 306.535 128.642C306.29 129.075 306.168 129.582 306.168 130.162C306.168 130.742 306.29 131.249 306.535 131.681C306.79 132.114 307.126 132.448 307.543 132.684C307.961 132.911 308.41 133.024 308.888 133.024ZM314.251 126.4H315.489V127.506H315.55C315.774 127.123 316.11 126.804 316.559 126.547C317.006 126.293 317.48 126.164 317.98 126.164C318.549 126.164 319.044 126.297 319.462 126.562C319.89 126.828 320.196 127.182 320.379 127.624C320.654 127.182 321.015 126.828 321.464 126.562C321.922 126.297 322.452 126.164 323.053 126.164C323.949 126.164 324.621 126.429 325.07 126.96C325.528 127.482 325.758 128.196 325.758 129.1V133.923H324.474V129.291C324.474 128.594 324.326 128.087 324.031 127.772C323.735 127.458 323.298 127.3 322.717 127.3C322.329 127.3 321.978 127.408 321.662 127.624C321.346 127.842 321.097 128.131 320.914 128.495C320.74 128.859 320.654 129.252 320.654 129.675V133.923H319.355V129.306C319.355 128.598 319.206 128.087 318.912 127.772C318.616 127.458 318.183 127.3 317.613 127.3C317.226 127.3 316.874 127.414 316.559 127.639C316.242 127.856 315.993 128.151 315.81 128.524C315.636 128.889 315.55 129.282 315.55 129.704V133.923H314.251V126.4ZM331.091 134.159C330.346 134.159 329.679 133.988 329.089 133.643C328.497 133.3 328.035 132.828 327.698 132.227C327.372 131.618 327.209 130.934 327.209 130.176C327.209 129.45 327.362 128.78 327.668 128.17C327.983 127.561 328.426 127.074 328.997 126.71C329.567 126.346 330.229 126.164 330.984 126.164C331.748 126.164 332.409 126.332 332.97 126.665C333.53 126.99 333.958 127.443 334.254 128.023C334.559 128.603 334.712 129.267 334.712 130.014C334.712 130.162 334.697 130.29 334.666 130.398H328.508C328.539 130.969 328.68 131.45 328.936 131.843C329.19 132.238 329.511 132.533 329.899 132.728C330.296 132.926 330.709 133.024 331.136 133.024C332.134 133.024 332.903 132.572 333.444 131.666L334.544 132.183C334.208 132.793 333.749 133.274 333.169 133.628C332.598 133.982 331.905 134.159 331.091 134.159ZM333.337 129.365C333.316 129.051 333.224 128.736 333.062 128.421C332.898 128.107 332.638 127.842 332.283 127.624C331.935 127.408 331.498 127.3 330.968 127.3C330.357 127.3 329.838 127.492 329.41 127.875C328.992 128.249 328.717 128.745 328.585 129.365H333.337ZM336.232 126.4H337.47V127.506H337.531C337.745 127.134 338.086 126.818 338.555 126.562C339.023 126.297 339.523 126.164 340.052 126.164C340.99 126.164 341.702 126.429 342.191 126.96C342.69 127.482 342.94 128.196 342.94 129.1V133.923H341.641V129.291C341.641 128.594 341.468 128.087 341.122 127.772C340.776 127.458 340.302 127.3 339.701 127.3C339.282 127.3 338.906 127.414 338.57 127.639C338.243 127.866 337.989 128.166 337.806 128.539C337.622 128.904 337.531 129.287 337.531 129.69V133.923H336.232V126.4ZM344.614 135.148L345.424 133.923C345.24 133.894 345.078 133.801 344.935 133.643C344.792 133.486 344.721 133.294 344.721 133.068C344.721 132.813 344.813 132.596 344.996 132.419C345.189 132.232 345.424 132.138 345.699 132.138C345.974 132.138 346.203 132.232 346.387 132.419C346.58 132.596 346.677 132.813 346.677 133.068C346.677 133.235 346.641 133.398 346.57 133.555C346.499 133.702 346.392 133.875 346.249 134.071L345.241 135.546L344.614 135.148ZM352.295 123.361H353.884L359.369 131.77H359.431L359.369 129.734V123.361H360.668V133.923H359.324L353.578 125.116H353.517L353.578 127.152V133.923H352.295V123.361ZM365.121 134.159C364.55 134.159 364.041 134.052 363.593 133.835C363.144 133.619 362.798 133.324 362.553 132.95C362.309 132.566 362.187 132.134 362.187 131.652C362.187 130.855 362.498 130.235 363.119 129.793C363.74 129.341 364.525 129.114 365.472 129.114C365.94 129.114 366.374 129.164 366.771 129.262C367.178 129.361 367.489 129.474 367.703 129.601V129.144C367.703 128.583 367.499 128.137 367.092 127.801C366.685 127.458 366.169 127.285 365.548 127.285C365.111 127.285 364.708 127.379 364.341 127.565C363.975 127.742 363.684 127.993 363.47 128.318L362.492 127.61C362.798 127.158 363.216 126.804 363.745 126.547C364.286 126.293 364.882 126.164 365.533 126.164C366.593 126.164 367.422 126.435 368.024 126.975C368.635 127.506 368.941 128.235 368.941 129.159V133.923H367.703V132.847H367.642C367.418 133.211 367.082 133.521 366.633 133.776C366.185 134.032 365.68 134.159 365.121 134.159ZM365.243 133.053C365.68 133.053 366.089 132.946 366.465 132.728C366.842 132.513 367.143 132.223 367.367 131.858C367.59 131.495 367.703 131.096 367.703 130.663C367.458 130.506 367.158 130.379 366.801 130.28C366.444 130.182 366.068 130.132 365.671 130.132C364.958 130.132 364.418 130.276 364.051 130.56C363.694 130.846 363.516 131.214 363.516 131.666C363.516 132.079 363.679 132.415 364.005 132.669C364.332 132.926 364.744 133.053 365.243 133.053ZM374.096 137.346C373.179 137.346 372.421 137.139 371.819 136.726C371.229 136.313 370.831 135.817 370.627 135.236L371.804 134.75C371.977 135.183 372.262 135.531 372.659 135.797C373.066 136.073 373.546 136.21 374.096 136.21C374.9 136.21 375.523 135.985 375.96 135.531C376.409 135.079 376.632 134.44 376.632 133.614V132.773H376.571C376.317 133.156 375.955 133.471 375.486 133.717C375.028 133.953 374.503 134.071 373.913 134.071C373.24 134.071 372.623 133.905 372.064 133.569C371.513 133.235 371.076 132.769 370.749 132.168C370.423 131.568 370.26 130.885 370.26 130.117C370.26 129.361 370.423 128.682 370.749 128.082C371.076 127.473 371.513 127.001 372.064 126.665C372.623 126.332 373.24 126.164 373.913 126.164C374.503 126.164 375.028 126.287 375.486 126.533C375.955 126.769 376.317 127.084 376.571 127.477H376.632V126.4H377.87V133.628C377.87 134.838 377.524 135.758 376.831 136.387C376.138 137.027 375.227 137.346 374.096 137.346ZM374.096 132.935C374.564 132.935 374.988 132.822 375.364 132.596C375.752 132.37 376.057 132.046 376.281 131.622C376.516 131.2 376.632 130.698 376.632 130.117C376.632 129.527 376.516 129.022 376.281 128.598C376.057 128.176 375.752 127.856 375.364 127.639C374.988 127.414 374.564 127.3 374.096 127.3C373.628 127.3 373.2 127.414 372.812 127.639C372.425 127.866 372.115 128.19 371.88 128.613C371.657 129.036 371.544 129.538 371.544 130.117C371.544 130.698 371.657 131.205 371.88 131.637C372.115 132.061 372.425 132.385 372.812 132.61C373.2 132.828 373.628 132.935 374.096 132.935ZM379.729 126.4H380.967V127.521H381.028C381.262 127.138 381.614 126.818 382.082 126.562C382.561 126.297 383.096 126.164 383.686 126.164C384.38 126.164 385.012 126.337 385.581 126.68C386.152 127.025 386.601 127.502 386.926 128.111C387.252 128.721 387.415 129.405 387.415 130.162C387.415 130.929 387.252 131.618 386.926 132.227C386.601 132.828 386.152 133.3 385.581 133.643C385.012 133.988 384.38 134.159 383.686 134.159C383.096 134.159 382.561 134.032 382.082 133.776C381.614 133.51 381.262 133.191 381.028 132.817H380.967L381.028 133.85V137.11H379.729V126.4ZM383.534 133.024C383.982 133.024 384.405 132.905 384.802 132.669C385.199 132.433 385.516 132.1 385.749 131.666C385.994 131.224 386.116 130.722 386.116 130.162C386.116 129.601 385.994 129.105 385.749 128.672C385.516 128.229 385.199 127.89 384.802 127.654C384.405 127.418 383.982 127.3 383.534 127.3C383.086 127.3 382.663 127.418 382.265 127.654C381.868 127.89 381.553 128.225 381.318 128.657C381.085 129.09 380.967 129.592 380.967 130.162C380.967 130.733 381.085 131.235 381.318 131.666C381.553 132.1 381.868 132.433 382.265 132.669C382.663 132.905 383.086 133.024 383.534 133.024ZM391.676 134.159C390.738 134.159 390.02 133.894 389.521 133.363C389.032 132.832 388.787 132.09 388.787 131.135V126.4H390.086V130.944C390.086 131.662 390.254 132.188 390.591 132.522C390.927 132.857 391.38 133.024 391.951 133.024C392.388 133.024 392.776 132.911 393.112 132.684C393.458 132.459 393.723 132.164 393.906 131.799C394.1 131.436 394.197 131.052 394.197 130.648V126.4H395.496V133.923H394.258V132.832H394.197C393.983 133.206 393.641 133.521 393.173 133.776C392.705 134.032 392.205 134.159 391.676 134.159ZM397.414 126.4H398.652V127.61H398.713C398.866 127.197 399.162 126.857 399.599 126.592C400.037 126.317 400.495 126.179 400.974 126.179C401.331 126.179 401.637 126.228 401.891 126.326V127.683C401.565 127.526 401.198 127.447 400.791 127.447C400.415 127.447 400.067 127.551 399.752 127.757C399.437 127.964 399.181 128.244 398.988 128.598C398.805 128.943 398.713 129.317 398.713 129.719V133.923H397.414V126.4Z" />
    <defs>
        <linearGradient id="paint0_linear_701_2361" x1="424.838" y1="130.79" x2="8.31644" y2="130.79"
            gradientUnits="userSpaceOnUse">
            <stop stop-color="#348BCA" />
            <stop offset="0.404875" stop-color="#59A43A" />
            <stop offset="0.711571" stop-color="#F3B002" />
            <stop offset="1" stop-color="#DF572E" />
        </linearGradient>
    </defs>
</svg>