<svg width="428" height="167" viewBox="0 0 428 167" fill="none" xmlns="http://www.w3.org/2000/svg">
    <path
        d="M417.223 1.67871H11.5922C6.22176 1.67871 1.86816 5.88168 1.86816 11.0663V155.904C1.86816 161.088 6.22176 165.291 11.5922 165.291H417.223C422.594 165.291 426.947 161.088 426.947 155.904V11.0663C426.947 5.88168 422.594 1.67871 417.223 1.67871Z"
        fill="var(--background-color)" stroke="url(#paint0_linear_701_2363)" stroke-width="2" />
    <path
        d="M50.6096 99.7674C49.0693 99.7674 47.6497 99.4093 46.3512 98.6959C45.0524 97.9811 44.0179 97.0048 43.2478 95.7656C42.4928 94.5117 42.1152 93.1196 42.1152 91.5881C42.1152 90.0579 42.4928 88.6726 43.2478 87.4334C44.0179 86.1795 45.0524 85.1952 46.3512 84.4817C47.6497 83.7669 49.0693 83.4102 50.6096 83.4102C51.8327 83.4102 52.973 83.6207 54.03 84.0431C55.087 84.4669 55.9705 85.057 56.6802 85.8147L54.9133 87.5206C54.3849 86.952 53.7506 86.5148 53.0106 86.209C52.2857 85.9032 51.478 85.749 50.587 85.749C49.545 85.749 48.5709 85.9904 47.6649 86.4705C46.7589 86.952 46.034 87.6373 45.4903 88.5264C44.9467 89.4155 44.6749 90.4361 44.6749 91.5881C44.6749 92.7401 44.9467 93.7607 45.4903 94.6498C46.034 95.5389 46.7589 96.2242 47.6649 96.7057C48.5709 97.1858 49.5525 97.4272 50.6096 97.4272C51.576 97.4272 52.3839 97.289 53.0332 97.0114C53.6827 96.7338 54.264 96.3624 54.7774 95.8957C55.1097 95.5751 55.3891 95.1742 55.6155 94.694C55.8572 94.2126 56.0157 93.6869 56.0913 93.1196H50.587V90.9323H58.4923C58.5677 91.34 58.6055 91.7638 58.6055 92.201C58.6055 93.192 58.447 94.1469 58.1299 95.0655C57.8127 95.9694 57.3068 96.7566 56.6122 97.4272C55.087 98.9869 53.0862 99.7674 50.6096 99.7674ZM66.4295 99.7674C65.2668 99.7674 64.2248 99.5112 63.3036 99.0016C62.3825 98.4759 61.6651 97.7624 61.1517 96.8585C60.6383 95.9546 60.3816 94.9488 60.3816 93.8411C60.3816 92.732 60.6383 91.7262 61.1517 90.8223C61.6651 89.9185 62.3825 89.2117 63.3036 88.7021C64.2248 88.1764 65.2668 87.9149 66.4295 87.9149C67.5923 87.9149 68.6342 88.1764 69.5555 88.7021C70.4766 89.2265 71.1938 89.9412 71.7073 90.8451C72.2207 91.749 72.4774 92.7468 72.4774 93.8411C72.4774 94.9488 72.2207 95.9546 71.7073 96.8585C71.1938 97.7624 70.4766 98.4759 69.5555 99.0016C68.6342 99.5112 67.5923 99.7674 66.4295 99.7674ZM66.4295 97.5586C67.0638 97.5586 67.6528 97.4124 68.1963 97.1214C68.7399 96.8143 69.1704 96.3851 69.4874 95.8299C69.8197 95.2613 69.9858 94.5988 69.9858 93.8411C69.9858 93.082 69.8197 92.4263 69.4874 91.8724C69.1704 91.3185 68.7399 90.8961 68.1963 90.6038C67.6528 90.298 67.0638 90.1451 66.4295 90.1451C65.7953 90.1451 65.2063 90.298 64.6628 90.6038C64.119 90.8961 63.6812 91.3185 63.3489 91.8724C63.0318 92.4263 62.8733 93.082 62.8733 93.8411C62.8733 94.5988 63.0318 95.2613 63.3489 95.8299C63.6812 96.3851 64.119 96.8143 64.6628 97.1214C65.2063 97.4124 65.7953 97.5586 66.4295 97.5586ZM80.1886 99.7674C79.0257 99.7674 77.9837 99.5112 77.0626 99.0016C76.1414 98.4759 75.4242 97.7624 74.9108 96.8585C74.3974 95.9546 74.1406 94.9488 74.1406 93.8411C74.1406 92.732 74.3974 91.7262 74.9108 90.8223C75.4242 89.9185 76.1414 89.2117 77.0626 88.7021C77.9837 88.1764 79.0257 87.9149 80.1886 87.9149C81.3513 87.9149 82.3933 88.1764 83.3144 88.7021C84.2356 89.2265 84.9529 89.9412 85.4664 90.8451C85.9798 91.749 86.2365 92.7468 86.2365 93.8411C86.2365 94.9488 85.9798 95.9546 85.4664 96.8585C84.9529 97.7624 84.2356 98.4759 83.3144 99.0016C82.3933 99.5112 81.3513 99.7674 80.1886 99.7674ZM80.1886 97.5586C80.8227 97.5586 81.4117 97.4124 81.9553 97.1214C82.499 96.8143 82.9294 96.3851 83.2465 95.8299C83.5786 95.2613 83.7448 94.5988 83.7448 93.8411C83.7448 93.082 83.5786 92.4263 83.2465 91.8724C82.9294 91.3185 82.499 90.8961 81.9553 90.6038C81.4117 90.298 80.8227 90.1451 80.1886 90.1451C79.5543 90.1451 78.9653 90.298 78.4217 90.6038C77.878 90.8961 77.4401 91.3185 77.1079 91.8724C76.7909 92.4263 76.6322 93.082 76.6322 93.8411C76.6322 94.5988 76.7909 95.2613 77.1079 95.8299C77.4401 96.3851 77.878 96.8143 78.4217 97.1214C78.9653 97.4124 79.5543 97.5586 80.1886 97.5586ZM93.7436 104.491C92.3242 104.491 91.1463 104.177 90.21 103.549C89.2889 102.923 88.6697 102.18 88.3526 101.319L90.6857 100.379C90.9274 100.962 91.3124 101.429 91.8409 101.779C92.3846 102.142 93.0189 102.325 93.7436 102.325C94.8007 102.325 95.6237 102.019 96.2127 101.406C96.8167 100.809 97.1187 99.9632 97.1187 98.8702V97.8429H96.9828C96.6052 98.3673 96.0994 98.783 95.4652 99.0888C94.846 99.3798 94.1288 99.526 93.3132 99.526C92.3468 99.526 91.4483 99.2859 90.6177 98.8045C89.7872 98.323 89.1227 97.6458 88.6244 96.7714C88.1412 95.8809 87.8996 94.8684 87.8996 93.7312C87.8996 92.5939 88.1412 91.5881 88.6244 90.7137C89.1227 89.8246 89.7872 89.1393 90.6177 88.6578C91.4483 88.1616 92.3468 87.9149 93.3132 87.9149C94.1137 87.9149 94.8309 88.0677 95.4652 88.3735C96.0994 88.6793 96.6052 89.095 96.9828 89.6207H97.1187V88.2649H99.4972V98.8045C99.4972 100.014 99.2556 101.043 98.7723 101.888C98.289 102.749 97.6094 103.396 96.7336 103.834C95.8729 104.272 94.8763 104.491 93.7436 104.491ZM93.7664 97.34C94.3704 97.34 94.9291 97.2005 95.4425 96.9243C95.9559 96.6319 96.3637 96.2175 96.6657 95.6771C96.9677 95.1232 97.1187 94.4741 97.1187 93.7312C97.1187 92.5939 96.794 91.7115 96.1447 91.0852C95.5105 90.4441 94.7177 90.1236 93.7664 90.1236C93.1472 90.1236 92.5809 90.2685 92.0674 90.5608C91.554 90.8371 91.1463 91.2461 90.8443 91.7852C90.5423 92.3243 90.3913 92.9735 90.3913 93.7312C90.3913 94.4889 90.5423 95.138 90.8443 95.6771C91.1463 96.2175 91.554 96.6319 92.0674 96.9243C92.5809 97.2005 93.1472 97.34 93.7664 97.34ZM102.425 83.7602H104.917V99.4174H102.425V83.7602ZM113.012 99.7674C111.88 99.7674 110.86 99.5112 109.954 99.0016C109.063 98.4907 108.361 97.792 107.848 96.9015C107.349 95.9976 107.1 94.9851 107.1 93.8626C107.1 92.7978 107.342 91.8147 107.825 90.9108C108.323 89.9922 109.01 89.2627 109.886 88.7235C110.762 88.1844 111.759 87.9149 112.876 87.9149C114.039 87.9149 115.043 88.1616 115.889 88.6578C116.75 89.154 117.399 89.8313 117.837 90.6922C118.29 91.5519 118.517 92.5215 118.517 93.5997C118.517 93.8036 118.494 94.0597 118.449 94.3655H109.592C109.683 95.4008 110.06 96.2028 110.725 96.7714C111.404 97.3253 112.189 97.6015 113.08 97.6015C113.79 97.6015 114.402 97.4486 114.915 97.1429C115.444 96.8223 115.866 96.3918 116.183 95.8527L118.29 96.8143C117.746 97.7329 117.037 98.4544 116.161 98.9801C115.285 99.5045 114.235 99.7674 113.012 99.7674ZM115.98 92.5282C115.949 92.1353 115.821 91.749 115.595 91.3695C115.368 90.9766 115.021 90.648 114.553 90.3851C114.1 90.1236 113.541 89.9922 112.876 89.9922C112.076 89.9922 111.396 90.2255 110.838 90.6922C110.294 91.1442 109.917 91.7557 109.705 92.5282H115.98ZM126.502 83.7602H131.69C133.366 83.7602 134.831 84.0874 136.084 84.7432C137.337 85.399 138.296 86.3257 138.961 87.5206C139.64 88.7021 139.98 90.0579 139.98 91.5881C139.98 93.1196 139.64 94.4822 138.961 95.6771C138.296 96.8586 137.337 97.7772 136.084 98.433C134.831 99.0888 133.366 99.4174 131.69 99.4174H126.502V83.7602ZM131.644 97.0772C133.456 97.0772 134.868 96.5957 135.88 95.6341C136.907 94.6565 137.42 93.3087 137.42 91.5881C137.42 89.8822 136.907 88.5411 135.88 87.5648C134.868 86.5872 133.456 86.099 131.644 86.099H129.039V97.0772H131.644ZM147.409 99.7674C146.277 99.7674 145.258 99.5112 144.352 99.0016C143.461 98.4907 142.759 97.792 142.245 96.9015C141.747 95.9976 141.497 94.9851 141.497 93.8626C141.497 92.7978 141.739 91.8147 142.222 90.9108C142.721 89.9922 143.409 89.2627 144.284 88.7235C145.16 88.1844 146.156 87.9149 147.273 87.9149C148.436 87.9149 149.44 88.1616 150.286 88.6578C151.148 89.154 151.796 89.8313 152.234 90.6922C152.688 91.5519 152.915 92.5215 152.915 93.5997C152.915 93.8036 152.891 94.0597 152.847 94.3655H143.989C144.08 95.4008 144.457 96.2028 145.121 96.7714C145.802 97.3253 146.587 97.6015 147.477 97.6015C148.187 97.6015 148.799 97.4486 149.313 97.1429C149.84 96.8223 150.264 96.3918 150.581 95.8527L152.688 96.8143C152.144 97.7329 151.434 98.4544 150.559 98.9801C149.682 99.5045 148.633 99.7674 147.409 99.7674ZM150.377 92.5282C150.347 92.1353 150.218 91.749 149.992 91.3695C149.765 90.9766 149.418 90.648 148.95 90.3851C148.497 90.1236 147.939 89.9922 147.273 89.9922C146.473 89.9922 145.794 90.2255 145.235 90.6922C144.692 91.1442 144.314 91.7557 144.103 92.5282H150.377ZM153.67 88.2649H156.457L159.651 96.3114H159.741L163.003 88.2649H165.721L160.919 99.4174H158.428L153.67 88.2649ZM172.274 99.7674C171.14 99.7674 170.122 99.5112 169.215 99.0016C168.324 98.4907 167.623 97.792 167.109 96.9015C166.61 95.9976 166.362 94.9851 166.362 93.8626C166.362 92.7978 166.603 91.8147 167.087 90.9108C167.584 89.9922 168.272 89.2627 169.147 88.7235C170.023 88.1844 171.019 87.9149 172.138 87.9149C173.3 87.9149 174.305 88.1616 175.151 88.6578C176.011 89.154 176.661 89.8313 177.098 90.6922C177.551 91.5519 177.778 92.5215 177.778 93.5997C177.778 93.8036 177.755 94.0597 177.709 94.3655H168.852C168.944 95.4008 169.32 96.2028 169.986 96.7714C170.665 97.3253 171.45 97.6015 172.342 97.6015C173.052 97.6015 173.663 97.4486 174.176 97.1429C174.705 96.8223 175.127 96.3918 175.445 95.8527L177.551 96.8143C177.008 97.7329 176.298 98.4544 175.422 98.9801C174.546 99.5045 173.496 99.7674 172.274 99.7674ZM175.241 92.5282C175.21 92.1353 175.083 91.749 174.856 91.3695C174.63 90.9766 174.281 90.648 173.813 90.3851C173.36 90.1236 172.802 89.9922 172.138 89.9922C171.337 89.9922 170.658 90.2255 170.098 90.6922C169.555 91.1442 169.177 91.7557 168.966 92.5282H175.241ZM180.046 83.7602H182.538V99.4174H180.046V83.7602ZM190.769 99.7674C189.606 99.7674 188.564 99.5112 187.643 99.0016C186.722 98.4759 186.005 97.7624 185.492 96.8585C184.978 95.9546 184.722 94.9488 184.722 93.8411C184.722 92.732 184.978 91.7262 185.492 90.8223C186.005 89.9185 186.722 89.2117 187.643 88.7021C188.564 88.1764 189.606 87.9149 190.769 87.9149C191.932 87.9149 192.973 88.1764 193.896 88.7021C194.817 89.2265 195.534 89.9412 196.048 90.8451C196.56 91.749 196.817 92.7468 196.817 93.8411C196.817 94.9488 196.56 95.9546 196.048 96.8585C195.534 97.7624 194.817 98.4759 193.896 99.0016C192.973 99.5112 191.932 99.7674 190.769 99.7674ZM190.769 97.5586C191.404 97.5586 191.993 97.4124 192.536 97.1214C193.08 96.8143 193.51 96.3851 193.828 95.8299C194.16 95.2613 194.325 94.5988 194.325 93.8411C194.325 93.082 194.16 92.4263 193.828 91.8724C193.51 91.3185 193.08 90.8961 192.536 90.6038C191.993 90.298 191.404 90.1451 190.769 90.1451C190.135 90.1451 189.546 90.298 189.002 90.6038C188.459 90.8961 188.021 91.3185 187.689 91.8724C187.371 92.4263 187.213 93.082 187.213 93.8411C187.213 94.5988 187.371 95.2613 187.689 95.8299C188.021 96.3851 188.459 96.8143 189.002 97.1214C189.546 97.4124 190.135 97.5586 190.769 97.5586ZM198.913 88.2649H201.292V89.7294H201.406C201.738 89.2197 202.228 88.7892 202.878 88.4392C203.527 88.0892 204.259 87.9149 205.074 87.9149C206.116 87.9149 207.061 88.1696 207.905 88.6793C208.751 89.1902 209.417 89.897 209.899 90.8009C210.398 91.69 210.648 92.7039 210.648 93.8411C210.648 94.9783 210.398 95.9976 209.899 96.9015C209.417 97.792 208.751 98.4907 207.905 99.0016C207.061 99.5112 206.116 99.7674 205.074 99.7674C204.259 99.7674 203.527 99.5917 202.878 99.2417C202.228 98.8916 201.738 98.4692 201.406 97.973H201.292L201.406 99.526V104.141H198.913V88.2649ZM204.712 97.5586C205.316 97.5586 205.883 97.4044 206.411 97.0986C206.94 96.7928 207.362 96.3557 207.679 95.787C207.997 95.2184 208.155 94.5693 208.155 93.8411C208.155 93.1115 207.997 92.4705 207.679 91.9166C207.362 91.348 206.94 90.9109 206.411 90.6038C205.883 90.298 205.316 90.1451 204.712 90.1451C204.109 90.1451 203.542 90.298 203.013 90.6038C202.5 90.9109 202.085 91.348 201.768 91.9166C201.45 92.4705 201.292 93.1115 201.292 93.8411C201.292 94.5693 201.45 95.2184 201.768 95.787C202.085 96.3557 202.5 96.7928 203.013 97.0986C203.542 97.4044 204.109 97.5586 204.712 97.5586ZM218.196 99.7674C217.063 99.7674 216.044 99.5112 215.137 99.0016C214.247 98.4907 213.544 97.792 213.031 96.9015C212.533 95.9976 212.284 94.9851 212.284 93.8626C212.284 92.7978 212.526 91.8147 213.009 90.9108C213.506 89.9922 214.194 89.2627 215.069 88.7235C215.946 88.1844 216.942 87.9149 218.06 87.9149C219.223 87.9149 220.227 88.1616 221.072 88.6578C221.933 89.154 222.583 89.8313 223.021 90.6922C223.474 91.5519 223.7 92.5215 223.7 93.5997C223.7 93.8036 223.678 94.0597 223.632 94.3655H214.775C214.866 95.4008 215.243 96.2028 215.908 96.7714C216.588 97.3253 217.372 97.6015 218.264 97.6015C218.973 97.6015 219.585 97.4486 220.098 97.1429C220.627 96.8223 221.049 96.3918 221.366 95.8527L223.474 96.8143C222.93 97.7329 222.221 98.4544 221.344 98.9801C220.469 99.5045 219.419 99.7674 218.196 99.7674ZM221.163 92.5282C221.133 92.1353 221.005 91.749 220.779 91.3695C220.551 90.9766 220.204 90.648 219.735 90.3851C219.283 90.1236 218.724 89.9922 218.06 89.9922C217.26 89.9922 216.579 90.2255 216.021 90.6922C215.478 91.1442 215.1 91.7557 214.889 92.5282H221.163ZM225.968 88.2649H228.348V89.905H228.461C228.718 89.3364 229.163 88.8697 229.797 88.505C230.432 88.1254 231.103 87.9363 231.813 87.9363C232.372 87.9363 232.841 88.0087 233.217 88.1549V90.648C232.553 90.4146 231.957 90.298 231.428 90.298C230.854 90.298 230.34 90.4442 229.887 90.7352C229.45 91.0275 229.102 91.4204 228.845 91.9166C228.588 92.3968 228.461 92.9292 228.461 93.5125V99.4174H225.968V88.2649ZM244.847 99.7674C243.502 99.7674 242.295 99.3878 241.223 98.6301C240.15 97.8711 239.41 96.8076 239.003 95.437L241.403 94.4969C241.645 95.3565 242.069 96.0633 242.672 96.6172C243.291 97.1576 244.032 97.4272 244.891 97.4272C245.693 97.4272 246.372 97.23 246.931 96.8371C247.489 96.4281 247.768 95.8742 247.768 95.1742C247.768 94.5331 247.52 94.0087 247.021 93.5997C246.538 93.1773 245.685 92.7548 244.462 92.3311L243.443 91.9824C242.355 91.6176 241.441 91.0919 240.702 90.4079C239.961 89.7226 239.592 88.8188 239.592 87.6963C239.592 86.9225 239.81 86.209 240.249 85.5532C240.686 84.8961 241.291 84.3798 242.06 84.0002C242.845 83.606 243.729 83.4102 244.711 83.4102C246.131 83.4102 247.263 83.7454 248.109 84.416C248.955 85.0718 249.52 85.8147 249.808 86.6462L247.52 87.5863C247.353 87.0901 247.036 86.6529 246.568 86.2747C246.1 85.8952 245.496 85.7061 244.757 85.7061C244.016 85.7061 243.39 85.8885 242.876 86.2519C242.377 86.6167 242.128 87.0834 242.128 87.652C242.128 88.1911 242.355 88.6364 242.808 88.9864C243.261 89.3364 243.97 89.6717 244.937 89.9922L245.957 90.3194C247.346 90.7861 248.418 91.399 249.173 92.1567C249.944 92.8997 250.329 93.8988 250.329 95.1527C250.329 96.1733 250.056 97.0329 249.513 97.7329C248.97 98.4182 248.274 98.9279 247.429 99.2631C246.599 99.5998 245.737 99.7674 244.847 99.7674ZM256.983 99.5917C256.469 99.5917 255.985 99.5112 255.532 99.3516C255.079 99.1907 254.71 98.9802 254.422 98.7173C253.774 98.0897 253.449 97.2368 253.449 96.1585V90.3851H251.433V88.2649H253.449V85.1147H255.941V88.2649H258.75V90.3851H255.941V95.6341C255.941 96.2309 256.062 96.6547 256.303 96.9015C256.53 97.1938 256.921 97.34 257.481 97.34C257.737 97.34 257.963 97.3105 258.161 97.2515C258.356 97.1791 258.568 97.0691 258.794 96.9243V99.2631C258.297 99.4831 257.692 99.5917 256.983 99.5917ZM265.331 99.7674C263.927 99.7674 262.856 99.3664 262.115 98.5644C261.39 97.7477 261.028 96.6172 261.028 95.1742V88.2649H263.52V94.8469C263.52 95.7508 263.738 96.4281 264.177 96.88C264.63 97.332 265.219 97.5586 265.944 97.5586C266.533 97.5586 267.054 97.4124 267.507 97.1214C267.96 96.8143 268.307 96.4133 268.549 95.9185C268.79 95.4223 268.911 94.8898 268.911 94.3212V88.2649H271.402V99.4174H269.047V97.973H268.911C268.593 98.4987 268.103 98.9279 267.439 99.2631C266.773 99.5998 266.072 99.7674 265.331 99.7674ZM279.13 99.7674C278.088 99.7674 277.145 99.5112 276.299 99.0016C275.453 98.4907 274.78 97.792 274.283 96.9015C273.8 95.9976 273.558 94.9783 273.558 93.8411C273.558 92.7039 273.8 91.69 274.283 90.8009C274.78 89.897 275.453 89.1902 276.299 88.6793C277.145 88.1696 278.088 87.9149 279.13 87.9149C279.945 87.9149 280.677 88.0892 281.327 88.4392C281.976 88.7892 282.468 89.2197 282.8 89.7294H282.912L282.8 88.1549V83.7602H285.291V99.4174H282.912V97.973H282.8C282.468 98.4692 281.976 98.8916 281.327 99.2417C280.677 99.5917 279.945 99.7674 279.13 99.7674ZM279.492 97.5586C280.097 97.5586 280.655 97.4044 281.169 97.0986C281.697 96.7928 282.121 96.3557 282.437 95.787C282.754 95.2184 282.912 94.5693 282.912 93.8411C282.912 93.1115 282.754 92.4705 282.437 91.9166C282.121 91.348 281.697 90.9109 281.169 90.6038C280.655 90.298 280.097 90.1451 279.492 90.1451C278.888 90.1451 278.323 90.298 277.793 90.6038C277.265 90.9109 276.842 91.348 276.525 91.9166C276.208 92.4705 276.05 93.1115 276.05 93.8411C276.05 94.5693 276.208 95.2184 276.525 95.787C276.842 96.3557 277.265 96.7928 277.793 97.0986C278.323 97.4044 278.888 97.5586 279.492 97.5586ZM293.362 99.7674C292.229 99.7674 291.21 99.5112 290.304 99.0016C289.412 98.4907 288.711 97.792 288.197 96.9015C287.698 95.9976 287.449 94.9851 287.449 93.8626C287.449 92.7978 287.691 91.8147 288.174 90.9108C288.673 89.9922 289.359 89.2627 290.236 88.7235C291.111 88.1844 292.109 87.9149 293.225 87.9149C294.388 87.9149 295.392 88.1616 296.238 88.6578C297.098 89.154 297.748 89.8313 298.186 90.6922C298.639 91.5519 298.865 92.5215 298.865 93.5997C298.865 93.8036 298.843 94.0597 298.797 94.3655H289.941C290.032 95.4008 290.41 96.2028 291.074 96.7714C291.753 97.3253 292.538 97.6015 293.43 97.6015C294.139 97.6015 294.751 97.4486 295.265 97.1429C295.793 96.8223 296.215 96.3918 296.533 95.8527L298.639 96.8143C298.096 97.7329 297.386 98.4544 296.509 98.9801C295.634 99.5045 294.584 99.7674 293.362 99.7674ZM296.329 92.5282C296.298 92.1353 296.17 91.749 295.944 91.3695C295.718 90.9766 295.37 90.648 294.902 90.3851C294.449 90.1236 293.889 89.9922 293.225 89.9922C292.425 89.9922 291.746 90.2255 291.188 90.6922C290.643 91.1442 290.265 91.7557 290.054 92.5282H296.329ZM301.135 88.2649H303.513V89.7294H303.626C303.958 89.205 304.45 88.7745 305.098 88.4392C305.764 88.0892 306.465 87.9149 307.206 87.9149C308.61 87.9149 309.674 88.3159 310.399 89.1165C311.138 89.905 311.509 90.9833 311.509 92.3539V99.4174H309.017V92.6811C309.017 91.8067 308.791 91.1656 308.338 90.7566C307.9 90.3489 307.288 90.1451 306.503 90.1451C305.944 90.1451 305.446 90.298 305.008 90.6038C304.571 90.8961 304.23 91.289 303.989 91.7852C303.747 92.2801 303.626 92.8125 303.626 93.3811V99.4174H301.135V88.2649ZM318.477 99.5917C317.965 99.5917 317.481 99.5112 317.028 99.3516C316.576 99.1907 316.205 98.9802 315.919 98.7173C315.268 98.0897 314.943 97.2368 314.943 96.1585V90.3851H312.928V88.2649H314.943V85.1147H317.435V88.2649H320.244V90.3851H317.435V95.6341C317.435 96.2309 317.556 96.6547 317.798 96.9015C318.024 97.1938 318.418 97.34 318.976 97.34C319.233 97.34 319.459 97.3105 319.655 97.2515C319.851 97.1791 320.064 97.0691 320.29 96.9243V99.2631C319.791 99.4831 319.187 99.5917 318.477 99.5917ZM335.544 99.7674C333.973 99.7674 332.54 99.4093 331.241 98.6959C329.942 97.9811 328.922 96.9967 328.182 95.7428C327.443 94.4889 327.072 93.1049 327.072 91.5881C327.072 90.0727 327.443 88.6873 328.182 87.4334C328.922 86.1795 329.942 85.1952 331.241 84.4817C332.54 83.7669 333.973 83.4102 335.544 83.4102C336.767 83.4102 337.877 83.6288 338.874 84.066C339.885 84.5032 340.777 85.1375 341.547 85.9676L339.735 87.652C339.176 87.011 338.557 86.5362 337.877 86.2305C337.197 85.9099 336.42 85.749 335.544 85.749C334.457 85.749 333.461 85.9904 332.555 86.4705C331.663 86.952 330.953 87.6373 330.425 88.5264C329.896 89.4008 329.632 90.4213 329.632 91.5881C329.632 92.7548 329.896 93.7821 330.425 94.6713C330.953 95.5456 331.663 96.2242 332.555 96.7057C333.461 97.1858 334.457 97.4272 335.544 97.4272C337.356 97.4272 338.896 96.6976 340.165 95.2399L342 96.9457C341.215 97.8349 340.27 98.5282 339.169 99.0231C338.066 99.5193 336.859 99.7674 335.544 99.7674ZM344.203 83.7602H346.695V99.4174H344.203V83.7602ZM353.837 99.7674C352.432 99.7674 351.36 99.3664 350.619 98.5644C349.894 97.7477 349.533 96.6172 349.533 95.1742V88.2649H352.024V94.8469C352.024 95.7508 352.243 96.4281 352.681 96.88C353.134 97.332 353.723 97.5586 354.448 97.5586C355.037 97.5586 355.558 97.4124 356.011 97.1214C356.464 96.8143 356.811 96.4133 357.053 95.9185C357.294 95.4223 357.415 94.8898 357.415 94.3212V88.2649H359.907V99.4174H357.551V97.973H357.415C357.098 98.4987 356.607 98.9279 355.943 99.2631C355.279 99.5998 354.576 99.7674 353.837 99.7674ZM368.969 99.7674C368.153 99.7674 367.42 99.5917 366.771 99.2417C366.121 98.8916 365.631 98.4692 365.299 97.973H365.186V99.4174H362.806V83.7602H365.299V88.1549L365.186 89.7294H365.299C365.631 89.2197 366.121 88.7892 366.771 88.4392C367.42 88.0892 368.153 87.9149 368.969 87.9149C370.011 87.9149 370.954 88.1696 371.8 88.6793C372.646 89.1902 373.31 89.897 373.793 90.8009C374.292 91.69 374.541 92.7039 374.541 93.8411C374.541 94.9783 374.292 95.9976 373.793 96.9015C373.31 97.792 372.646 98.4907 371.8 99.0016C370.954 99.5112 370.011 99.7674 368.969 99.7674ZM368.606 97.5586C369.21 97.5586 369.776 97.4044 370.305 97.0986C370.833 96.7928 371.257 96.3557 371.573 95.787C371.89 95.2184 372.048 94.5693 372.048 93.8411C372.048 93.1115 371.89 92.4705 371.573 91.9166C371.257 91.348 370.833 90.9109 370.305 90.6038C369.776 90.298 369.21 90.1451 368.606 90.1451C368.002 90.1451 367.435 90.298 366.907 90.6038C366.393 90.9109 365.978 91.348 365.661 91.9166C365.344 92.4705 365.186 93.1115 365.186 93.8411C365.186 94.5693 365.344 95.2184 365.661 95.787C365.978 96.3557 366.393 96.7928 366.907 97.0986C367.435 97.4044 368.002 97.5586 368.606 97.5586ZM380.911 99.7674C379.583 99.7674 378.495 99.4898 377.649 98.9359C376.805 98.3673 376.208 97.6458 375.86 96.7714L378.08 95.8299C378.352 96.4133 378.73 96.8586 379.214 97.1643C379.711 97.4701 380.278 97.6243 380.911 97.6243C381.531 97.6243 382.052 97.521 382.475 97.3172C382.898 97.0986 383.109 96.7781 383.109 96.3556C383.109 95.9466 382.928 95.6261 382.566 95.3927C382.203 95.1594 381.645 94.9556 380.889 94.7812L379.507 94.4527C378.586 94.2341 377.823 93.8478 377.22 93.2939C376.616 92.7401 376.313 92.04 376.313 91.1951C376.313 90.538 376.51 89.9627 376.902 89.4665C377.31 88.9716 377.854 88.5921 378.533 88.3293C379.214 88.053 379.953 87.9149 380.753 87.9149C381.825 87.9149 382.77 88.1254 383.585 88.5492C384.401 88.9569 384.99 89.555 385.351 90.3422L383.177 91.2595C382.739 90.3999 381.939 89.9694 380.776 89.9694C380.217 89.9694 379.748 90.0794 379.372 90.298C378.994 90.5165 378.805 90.8009 378.805 91.1509C378.805 91.4862 378.948 91.7638 379.236 91.9824C379.522 92.1862 379.946 92.3605 380.504 92.5067L382.203 92.9225C383.335 93.1987 384.188 93.6225 384.762 94.1898C385.351 94.745 385.645 95.4303 385.645 96.2457C385.645 96.9457 385.434 97.5653 385.012 98.1044C384.604 98.6301 384.038 99.0378 383.313 99.3288C382.588 99.6212 381.788 99.7674 380.911 99.7674Z" />
    <path
        d="M222.328 49.2725L240.966 38.8842C243.563 37.4364 246.885 38.2956 248.384 40.8033C249.884 43.311 248.994 46.5175 246.397 47.9654L227.759 58.3537C225.161 59.8015 221.84 58.9423 220.34 56.4346C218.84 53.9269 219.73 50.7204 222.328 49.2725Z"
        fill="#FBBC04" />
    <path
        d="M209.092 37.5209L190.454 47.9093C187.857 49.3571 184.535 48.4979 183.036 45.9902C181.536 43.4825 182.426 40.2759 185.023 38.8281L203.661 28.4398C206.259 26.9919 209.58 27.8511 211.08 30.3588C212.58 32.8665 211.69 36.0731 209.092 37.5209Z"
        fill="#EA4335" />
    <path
        d="M208.633 49.2716L189.995 38.8832C187.398 37.4354 184.076 38.2946 182.577 40.8023C181.077 43.31 181.967 46.5166 184.564 47.9644L203.202 58.3527C205.8 59.8005 209.121 58.9414 210.621 56.4337C212.121 53.926 211.231 50.7194 208.633 49.2716Z"
        fill="#4285F4" />
    <path
        d="M222.011 37.3445L241.282 48.0856C243.705 49.436 246.803 48.6347 248.202 46.2957L248.567 45.6847C249.966 43.3457 249.136 40.3549 246.713 39.0045L227.442 28.2634C225.019 26.913 221.921 27.7143 220.523 30.0533L220.157 30.6643C218.758 33.0033 219.588 35.9941 222.011 37.3445Z"
        fill="#0F9D58" />
    <path
        d="M51.0038 128.816C49.8814 128.816 48.8479 128.554 47.9032 128.028C46.9586 127.502 46.2085 126.778 45.6528 125.855C45.0972 124.933 44.8193 123.913 44.8193 122.798C44.8193 121.682 45.0972 120.663 45.6528 119.74C46.2085 118.817 46.9586 118.093 47.9032 117.567C48.8479 117.042 49.8814 116.779 51.0038 116.779C51.8818 116.779 52.7041 116.929 53.4709 117.229C54.2489 117.53 54.8879 117.954 55.388 118.501L54.3711 119.482C53.9933 119.032 53.5098 118.689 52.9208 118.453C52.3318 118.206 51.6984 118.082 51.0205 118.082C50.1759 118.082 49.3869 118.281 48.6534 118.678C47.931 119.064 47.3476 119.617 46.9031 120.335C46.4696 121.043 46.2529 121.864 46.2529 122.798C46.2529 123.731 46.4696 124.557 46.9031 125.276C47.3476 125.984 47.9366 126.537 48.6701 126.934C49.4035 127.32 50.187 127.513 51.0205 127.513C51.8206 127.513 52.4874 127.395 53.0209 127.159C53.5654 126.912 54.0322 126.59 54.4211 126.193C54.7101 125.893 54.9434 125.533 55.1213 125.115C55.2991 124.686 55.4102 124.214 55.4546 123.699H51.0372V122.427H56.7716C56.8271 122.728 56.8549 123.007 56.8549 123.264C56.8549 123.972 56.7382 124.664 56.5048 125.34C56.2715 126.005 55.8992 126.59 55.388 127.094C54.2878 128.242 52.8264 128.816 51.0038 128.816ZM62.5158 128.816C61.6823 128.816 60.9322 128.623 60.2654 128.237C59.5986 127.851 59.0763 127.325 58.6984 126.66C58.3317 125.995 58.1483 125.26 58.1483 124.455C58.1483 123.651 58.3317 122.916 58.6984 122.25C59.0763 121.585 59.5986 121.06 60.2654 120.673C60.9322 120.287 61.6823 120.094 62.5158 120.094C63.3493 120.094 64.0994 120.287 64.7662 120.673C65.433 121.06 65.9498 121.585 66.3165 122.25C66.6944 122.916 66.8833 123.651 66.8833 124.455C66.8833 125.26 66.6944 125.995 66.3165 126.66C65.9498 127.325 65.433 127.851 64.7662 128.237C64.0994 128.623 63.3493 128.816 62.5158 128.816ZM62.5158 127.577C63.0381 127.577 63.5216 127.454 63.9661 127.207C64.4217 126.95 64.7829 126.585 65.0496 126.113C65.3275 125.641 65.4664 125.088 65.4664 124.455C65.4664 123.822 65.3275 123.27 65.0496 122.798C64.7829 122.326 64.4217 121.966 63.9661 121.719C63.5216 121.462 63.0381 121.333 62.5158 121.333C61.9935 121.333 61.5045 121.462 61.0489 121.719C60.5932 121.966 60.2265 122.326 59.9487 122.798C59.682 123.27 59.5486 123.822 59.5486 124.455C59.5486 125.088 59.682 125.641 59.9487 126.113C60.2265 126.585 60.5932 126.95 61.0489 127.207C61.5045 127.454 61.9935 127.577 62.5158 127.577ZM67.351 120.351H68.868L71.5018 126.95H71.5351L74.2023 120.351H75.6859L72.2186 128.559H70.785L67.351 120.351ZM80.3872 128.816C79.5759 128.816 78.848 128.629 78.2035 128.253C77.5589 127.878 77.0532 127.363 76.6865 126.708C76.3309 126.043 76.1531 125.297 76.1531 124.471C76.1531 123.677 76.3198 122.948 76.6532 122.283C76.9977 121.617 77.4811 121.086 78.1034 120.689C78.7258 120.292 79.4481 120.094 80.2705 120.094C81.104 120.094 81.8264 120.276 82.4376 120.641C83.0488 120.995 83.5156 121.489 83.8378 122.122C84.1712 122.755 84.3379 123.479 84.3379 124.294C84.3379 124.455 84.3213 124.595 84.2879 124.713H77.57C77.6033 125.335 77.7589 125.861 78.0368 126.29C78.3146 126.719 78.6647 127.041 79.087 127.255C79.5204 127.47 79.9705 127.577 80.4372 127.577C81.5263 127.577 82.3653 127.084 82.9543 126.097L84.1546 126.66C83.7878 127.325 83.2877 127.851 82.6543 128.237C82.0319 128.623 81.2763 128.816 80.3872 128.816ZM82.8377 123.586C82.8154 123.243 82.7154 122.9 82.5376 122.556C82.3598 122.213 82.0764 121.923 81.6874 121.687C81.3096 121.451 80.8317 121.333 80.2538 121.333C79.587 121.333 79.0203 121.542 78.5535 121.961C78.0979 122.368 77.7978 122.91 77.6534 123.586H82.8377ZM85.9962 120.351H87.3464V121.671H87.4131C87.5798 121.22 87.9021 120.85 88.3799 120.561C88.8578 120.26 89.3579 120.11 89.8802 120.11C90.2692 120.11 90.6026 120.164 90.8804 120.271V121.752C90.5248 121.58 90.1247 121.494 89.6802 121.494C89.269 121.494 88.8911 121.607 88.5466 121.832C88.2021 122.057 87.9243 122.363 87.7131 122.749C87.5131 123.125 87.4131 123.533 87.4131 123.972V128.559H85.9962V120.351ZM92.2473 120.351H93.5976V121.558H93.6643C93.8976 121.151 94.2699 120.807 94.7811 120.529C95.2923 120.239 95.8369 120.094 96.4148 120.094C97.4372 120.094 98.2151 120.384 98.7485 120.963C99.2931 121.532 99.5653 122.309 99.5653 123.297V128.559H98.1484V123.506C98.1484 122.744 97.9595 122.191 97.5816 121.848C97.2038 121.505 96.687 121.333 96.0314 121.333C95.5757 121.333 95.1645 121.457 94.7978 121.703C94.4422 121.95 94.1643 122.277 93.9643 122.685C93.7643 123.082 93.6643 123.5 93.6643 123.94V128.559H92.2473V120.351ZM101.592 120.351H102.942V121.558H103.008C103.253 121.14 103.62 120.791 104.109 120.512C104.598 120.233 105.114 120.094 105.659 120.094C106.281 120.094 106.82 120.239 107.276 120.529C107.743 120.818 108.076 121.204 108.276 121.687C108.576 121.204 108.971 120.818 109.46 120.529C109.96 120.239 110.538 120.094 111.193 120.094C112.171 120.094 112.905 120.384 113.394 120.963C113.894 121.532 114.144 122.309 114.144 123.297V128.559H112.744V123.506C112.744 122.744 112.582 122.191 112.26 121.848C111.938 121.505 111.46 121.333 110.827 121.333C110.404 121.333 110.021 121.451 109.676 121.687C109.332 121.923 109.06 122.24 108.86 122.637C108.671 123.034 108.576 123.463 108.576 123.924V128.559H107.159V123.522C107.159 122.749 106.998 122.191 106.676 121.848C106.354 121.505 105.881 121.333 105.259 121.333C104.837 121.333 104.453 121.457 104.109 121.703C103.764 121.939 103.492 122.261 103.292 122.669C103.103 123.066 103.008 123.495 103.008 123.956V128.559H101.592V120.351ZM119.962 128.816C119.15 128.816 118.422 128.629 117.778 128.253C117.133 127.878 116.628 127.363 116.261 126.708C115.905 126.043 115.728 125.297 115.728 124.471C115.728 123.677 115.894 122.948 116.227 122.283C116.572 121.617 117.056 121.086 117.678 120.689C118.3 120.292 119.023 120.094 119.845 120.094C120.678 120.094 121.401 120.276 122.012 120.641C122.623 120.995 123.09 121.489 123.412 122.122C123.746 122.755 123.912 123.479 123.912 124.294C123.912 124.455 123.896 124.595 123.862 124.713H117.144C117.178 125.335 117.333 125.861 117.611 126.29C117.889 126.719 118.239 127.041 118.661 127.255C119.095 127.47 119.545 127.577 120.012 127.577C121.101 127.577 121.94 127.084 122.529 126.097L123.729 126.66C123.362 127.325 122.862 127.851 122.229 128.237C121.606 128.623 120.851 128.816 119.962 128.816ZM122.412 123.586C122.39 123.243 122.29 122.9 122.112 122.556C121.934 122.213 121.651 121.923 121.262 121.687C120.884 121.451 120.406 121.333 119.828 121.333C119.161 121.333 118.595 121.542 118.128 121.961C117.672 122.368 117.372 122.91 117.228 123.586H122.412ZM125.571 120.351H126.921V121.558H126.988C127.221 121.151 127.593 120.807 128.104 120.529C128.616 120.239 129.16 120.094 129.738 120.094C130.76 120.094 131.538 120.384 132.072 120.963C132.616 121.532 132.889 122.309 132.889 123.297V128.559H131.472V123.506C131.472 122.744 131.283 122.191 130.905 121.848C130.527 121.505 130.01 121.333 129.355 121.333C128.899 121.333 128.488 121.457 128.121 121.703C127.765 121.95 127.488 122.277 127.288 122.685C127.088 123.082 126.988 123.5 126.988 123.94V128.559H125.571V120.351ZM137.759 128.688C137.414 128.688 137.092 128.634 136.792 128.527C136.503 128.419 136.258 128.275 136.058 128.092C135.836 127.888 135.669 127.652 135.558 127.384C135.447 127.116 135.392 126.789 135.392 126.402V121.591H133.908V120.351H135.392V118.034H136.809V120.351H138.876V121.591H136.809V126.064C136.809 126.515 136.897 126.848 137.075 127.062C137.286 127.298 137.592 127.416 137.992 127.416C138.314 127.416 138.626 127.325 138.926 127.143V128.478C138.759 128.554 138.587 128.607 138.409 128.639C138.242 128.672 138.025 128.688 137.759 128.688ZM150.029 128.816C148.874 128.816 147.823 128.554 146.879 128.028C145.934 127.502 145.19 126.783 144.645 125.871C144.112 124.949 143.845 123.924 143.845 122.798C143.845 121.671 144.112 120.652 144.645 119.74C145.19 118.817 145.934 118.093 146.879 117.567C147.823 117.042 148.874 116.779 150.029 116.779C150.918 116.779 151.73 116.945 152.463 117.278C153.208 117.6 153.852 118.061 154.397 118.662L153.38 119.611C152.924 119.085 152.424 118.699 151.88 118.453C151.346 118.206 150.729 118.082 150.029 118.082C149.162 118.082 148.368 118.281 147.646 118.678C146.923 119.064 146.345 119.617 145.912 120.335C145.49 121.043 145.278 121.864 145.278 122.798C145.278 123.731 145.49 124.557 145.912 125.276C146.345 125.984 146.923 126.537 147.646 126.934C148.368 127.32 149.162 127.513 150.029 127.513C151.474 127.513 152.702 126.939 153.713 125.791L154.747 126.756C154.191 127.389 153.508 127.894 152.696 128.269C151.885 128.634 150.996 128.816 150.029 128.816ZM160.092 128.816C159.259 128.816 158.509 128.623 157.842 128.237C157.175 127.851 156.653 127.325 156.275 126.66C155.908 125.995 155.725 125.26 155.725 124.455C155.725 123.651 155.908 122.916 156.275 122.25C156.653 121.585 157.175 121.06 157.842 120.673C158.509 120.287 159.259 120.094 160.092 120.094C160.926 120.094 161.676 120.287 162.343 120.673C163.009 121.06 163.526 121.585 163.893 122.25C164.271 122.916 164.46 123.651 164.46 124.455C164.46 125.26 164.271 125.995 163.893 126.66C163.526 127.325 163.009 127.851 162.343 128.237C161.676 128.623 160.926 128.816 160.092 128.816ZM160.092 127.577C160.615 127.577 161.098 127.454 161.543 127.207C161.998 126.95 162.359 126.585 162.626 126.113C162.904 125.641 163.043 125.088 163.043 124.455C163.043 123.822 162.904 123.27 162.626 122.798C162.359 122.326 161.998 121.966 161.543 121.719C161.098 121.462 160.615 121.333 160.092 121.333C159.57 121.333 159.081 121.462 158.625 121.719C158.17 121.966 157.803 122.326 157.525 122.798C157.258 123.27 157.125 123.822 157.125 124.455C157.125 125.088 157.258 125.641 157.525 126.113C157.803 126.585 158.17 126.95 158.625 127.207C159.081 127.454 159.57 127.577 160.092 127.577ZM166.024 117.036H167.441V128.559H166.024V117.036ZM169.54 117.036H170.957V128.559H169.54V117.036ZM176.759 128.816C175.948 128.816 175.22 128.629 174.576 128.253C173.931 127.878 173.425 127.363 173.059 126.708C172.703 126.043 172.525 125.297 172.525 124.471C172.525 123.677 172.692 122.948 173.025 122.283C173.37 121.617 173.853 121.086 174.476 120.689C175.098 120.292 175.82 120.094 176.643 120.094C177.476 120.094 178.198 120.276 178.81 120.641C179.421 120.995 179.888 121.489 180.21 122.122C180.543 122.755 180.71 123.479 180.71 124.294C180.71 124.455 180.693 124.595 180.66 124.713H173.942C173.975 125.335 174.131 125.861 174.409 126.29C174.687 126.719 175.037 127.041 175.459 127.255C175.892 127.47 176.343 127.577 176.809 127.577C177.898 127.577 178.737 127.084 179.326 126.097L180.527 126.66C180.16 127.325 179.66 127.851 179.026 128.237C178.404 128.623 177.648 128.816 176.759 128.816ZM179.21 123.586C179.188 123.243 179.087 122.9 178.91 122.556C178.732 122.213 178.448 121.923 178.06 121.687C177.682 121.451 177.204 121.333 176.626 121.333C175.959 121.333 175.392 121.542 174.926 121.961C174.47 122.368 174.17 122.91 174.025 123.586H179.21ZM186.183 132.293C185.183 132.293 184.355 132.067 183.699 131.617C183.055 131.166 182.621 130.624 182.399 129.991L183.683 129.46C183.872 129.932 184.183 130.313 184.616 130.603C185.061 130.903 185.583 131.053 186.183 131.053C187.061 131.053 187.739 130.807 188.217 130.313C188.706 129.82 188.95 129.122 188.95 128.221V127.304H188.884C188.606 127.722 188.211 128.065 187.7 128.334C187.2 128.591 186.628 128.72 185.983 128.72C185.25 128.72 184.577 128.537 183.966 128.173C183.366 127.808 182.888 127.298 182.533 126.644C182.177 125.989 181.999 125.244 181.999 124.407C181.999 123.581 182.177 122.841 182.533 122.186C182.888 121.521 183.366 121.006 183.966 120.641C184.577 120.276 185.25 120.094 185.983 120.094C186.628 120.094 187.2 120.228 187.7 120.496C188.211 120.754 188.606 121.097 188.884 121.526H188.95V120.351H190.301V128.237C190.301 129.557 189.923 130.56 189.167 131.246C188.411 131.944 187.417 132.293 186.183 132.293ZM186.183 127.481C186.694 127.481 187.156 127.357 187.567 127.111C187.989 126.864 188.323 126.51 188.567 126.048C188.823 125.587 188.95 125.04 188.95 124.407C188.95 123.763 188.823 123.211 188.567 122.749C188.323 122.288 187.989 121.939 187.567 121.703C187.156 121.457 186.694 121.333 186.183 121.333C185.672 121.333 185.205 121.457 184.783 121.703C184.361 121.95 184.022 122.304 183.766 122.765C183.522 123.227 183.399 123.774 183.399 124.407C183.399 125.04 183.522 125.592 183.766 126.064C184.022 126.526 184.361 126.88 184.783 127.127C185.205 127.363 185.672 127.481 186.183 127.481ZM196.099 128.816C195.288 128.816 194.56 128.629 193.915 128.253C193.271 127.878 192.765 127.363 192.398 126.708C192.043 126.043 191.865 125.297 191.865 124.471C191.865 123.677 192.032 122.948 192.365 122.283C192.709 121.617 193.193 121.086 193.815 120.689C194.438 120.292 195.16 120.094 195.982 120.094C196.816 120.094 197.538 120.276 198.149 120.641C198.761 120.995 199.227 121.489 199.55 122.122C199.883 122.755 200.05 123.479 200.05 124.294C200.05 124.455 200.033 124.595 200 124.713H193.282C193.315 125.335 193.471 125.861 193.749 126.29C194.026 126.719 194.376 127.041 194.799 127.255C195.232 127.47 195.682 127.577 196.149 127.577C197.238 127.577 198.077 127.084 198.666 126.097L199.866 126.66C199.5 127.325 199 127.851 198.366 128.237C197.744 128.623 196.988 128.816 196.099 128.816ZM198.549 123.586C198.527 123.243 198.427 122.9 198.249 122.556C198.072 122.213 197.788 121.923 197.399 121.687C197.021 121.451 196.544 121.333 195.966 121.333C195.299 121.333 194.732 121.542 194.265 121.961C193.81 122.368 193.51 122.91 193.365 123.586H198.549ZM211.074 128.816C209.929 128.816 208.89 128.548 207.957 128.012C207.023 127.475 206.29 126.751 205.756 125.839C205.223 124.917 204.956 123.903 204.956 122.798C204.956 121.703 205.223 120.695 205.756 119.772C206.29 118.849 207.023 118.12 207.957 117.583C208.89 117.047 209.929 116.779 211.074 116.779C212.219 116.779 213.258 117.047 214.191 117.583C215.125 118.12 215.858 118.849 216.392 119.772C216.936 120.695 217.208 121.703 217.208 122.798C217.208 123.903 216.942 124.917 216.408 125.839C215.875 126.751 215.136 127.475 214.191 128.012C213.258 128.548 212.219 128.816 211.074 128.816ZM211.074 127.513C211.93 127.513 212.713 127.314 213.424 126.917C214.147 126.51 214.714 125.952 215.125 125.244C215.547 124.525 215.758 123.71 215.758 122.798C215.758 121.886 215.547 121.076 215.125 120.368C214.714 119.649 214.147 119.091 213.424 118.694C212.713 118.286 211.93 118.082 211.074 118.082C210.218 118.082 209.435 118.286 208.724 118.694C208.012 119.091 207.446 119.649 207.023 120.368C206.601 121.086 206.39 121.896 206.39 122.798C206.39 123.699 206.601 124.509 207.023 125.228C207.446 125.946 208.012 126.51 208.724 126.917C209.435 127.314 210.218 127.513 211.074 127.513ZM219.996 121.591H218.43V120.351H219.996V119.466C219.996 118.951 220.119 118.501 220.363 118.115C220.608 117.728 220.936 117.433 221.347 117.229C221.758 117.015 222.214 116.908 222.714 116.908C223.192 116.908 223.608 116.972 223.964 117.101V118.436C223.764 118.361 223.575 118.302 223.397 118.259C223.219 118.206 223.008 118.179 222.764 118.179C222.397 118.179 222.08 118.308 221.813 118.565C221.547 118.812 221.413 119.161 221.413 119.611V120.351H223.597V121.591H221.413V128.559H219.996V121.591ZM229.487 117.036H236.388V118.34H230.887V122.154H235.855V123.441H230.887V127.255H236.388V128.559H229.487V117.036ZM238.222 120.351H239.572V121.558H239.639C239.872 121.151 240.245 120.807 240.756 120.529C241.267 120.239 241.812 120.094 242.39 120.094C243.412 120.094 244.19 120.384 244.723 120.963C245.268 121.532 245.54 122.309 245.54 123.297V128.559H244.123V123.506C244.123 122.744 243.934 122.191 243.556 121.848C243.179 121.505 242.662 121.333 242.006 121.333C241.551 121.333 241.139 121.457 240.773 121.703C240.417 121.95 240.139 122.277 239.939 122.685C239.739 123.082 239.639 123.5 239.639 123.94V128.559H238.222V120.351ZM251.219 132.293C250.219 132.293 249.391 132.067 248.735 131.617C248.091 131.166 247.657 130.624 247.435 129.991L248.719 129.46C248.907 129.932 249.219 130.313 249.652 130.603C250.097 130.903 250.619 131.053 251.219 131.053C252.097 131.053 252.775 130.807 253.253 130.313C253.742 129.82 253.986 129.122 253.986 128.221V127.304H253.919C253.642 127.722 253.247 128.065 252.736 128.334C252.236 128.591 251.663 128.72 251.019 128.72C250.285 128.72 249.613 128.537 249.002 128.173C248.402 127.808 247.924 127.298 247.568 126.644C247.213 125.989 247.035 125.244 247.035 124.407C247.035 123.581 247.213 122.841 247.568 122.186C247.924 121.521 248.402 121.006 249.002 120.641C249.613 120.276 250.285 120.094 251.019 120.094C251.663 120.094 252.236 120.228 252.736 120.496C253.247 120.754 253.642 121.097 253.919 121.526H253.986V120.351H255.336V128.237C255.336 129.557 254.959 130.56 254.203 131.246C253.447 131.944 252.453 132.293 251.219 132.293ZM251.219 127.481C251.73 127.481 252.191 127.357 252.603 127.111C253.025 126.864 253.358 126.51 253.603 126.048C253.858 125.587 253.986 125.04 253.986 124.407C253.986 123.763 253.858 123.211 253.603 122.749C253.358 122.288 253.025 121.939 252.603 121.703C252.191 121.457 251.73 121.333 251.219 121.333C250.708 121.333 250.241 121.457 249.819 121.703C249.396 121.95 249.057 122.304 248.802 122.765C248.557 123.227 248.435 123.774 248.435 124.407C248.435 125.04 248.557 125.592 248.802 126.064C249.057 126.526 249.396 126.88 249.819 127.127C250.241 127.363 250.708 127.481 251.219 127.481ZM258.265 118.839C257.987 118.839 257.748 118.742 257.548 118.549C257.348 118.356 257.248 118.125 257.248 117.857C257.248 117.589 257.348 117.364 257.548 117.181C257.748 116.988 257.987 116.891 258.265 116.891C258.543 116.891 258.781 116.988 258.982 117.181C259.182 117.364 259.282 117.589 259.282 117.857C259.282 118.125 259.182 118.356 258.982 118.549C258.793 118.742 258.554 118.839 258.265 118.839ZM257.565 120.351H258.965V128.559H257.565V120.351ZM261.192 120.351H262.542V121.558H262.609C262.842 121.151 263.214 120.807 263.725 120.529C264.237 120.239 264.781 120.094 265.359 120.094C266.382 120.094 267.159 120.384 267.693 120.963C268.237 121.532 268.51 122.309 268.51 123.297V128.559H267.093V123.506C267.093 122.744 266.904 122.191 266.526 121.848C266.148 121.505 265.631 121.333 264.976 121.333C264.52 121.333 264.109 121.457 263.742 121.703C263.387 121.95 263.109 122.277 262.909 122.685C262.709 123.082 262.609 123.5 262.609 123.94V128.559H261.192V120.351ZM274.319 128.816C273.508 128.816 272.78 128.629 272.135 128.253C271.491 127.878 270.985 127.363 270.618 126.708C270.263 126.043 270.085 125.297 270.085 124.471C270.085 123.677 270.252 122.948 270.585 122.283C270.93 121.617 271.413 121.086 272.035 120.689C272.658 120.292 273.38 120.094 274.202 120.094C275.036 120.094 275.758 120.276 276.369 120.641C276.981 120.995 277.447 121.489 277.77 122.122C278.103 122.755 278.27 123.479 278.27 124.294C278.27 124.455 278.253 124.595 278.22 124.713H271.502C271.535 125.335 271.691 125.861 271.969 126.29C272.246 126.719 272.597 127.041 273.019 127.255C273.452 127.47 273.902 127.577 274.369 127.577C275.458 127.577 276.297 127.084 276.886 126.097L278.086 126.66C277.72 127.325 277.22 127.851 276.586 128.237C275.964 128.623 275.208 128.816 274.319 128.816ZM276.77 123.586C276.747 123.243 276.647 122.9 276.469 122.556C276.292 122.213 276.008 121.923 275.619 121.687C275.241 121.451 274.764 121.333 274.186 121.333C273.519 121.333 272.952 121.542 272.485 121.961C272.03 122.368 271.73 122.91 271.585 123.586H276.77ZM283.794 128.816C282.983 128.816 282.255 128.629 281.611 128.253C280.966 127.878 280.461 127.363 280.094 126.708C279.738 126.043 279.56 125.297 279.56 124.471C279.56 123.677 279.727 122.948 280.06 122.283C280.405 121.617 280.888 121.086 281.511 120.689C282.133 120.292 282.855 120.094 283.678 120.094C284.511 120.094 285.234 120.276 285.845 120.641C286.456 120.995 286.923 121.489 287.245 122.122C287.578 122.755 287.745 123.479 287.745 124.294C287.745 124.455 287.729 124.595 287.695 124.713H280.977C281.011 125.335 281.166 125.861 281.444 126.29C281.722 126.719 282.072 127.041 282.494 127.255C282.928 127.47 283.378 127.577 283.844 127.577C284.934 127.577 285.773 127.084 286.362 126.097L287.562 126.66C287.195 127.325 286.695 127.851 286.062 128.237C285.439 128.623 284.684 128.816 283.794 128.816ZM286.245 123.586C286.223 123.243 286.123 122.9 285.945 122.556C285.767 122.213 285.484 121.923 285.095 121.687C284.717 121.451 284.239 121.333 283.661 121.333C282.994 121.333 282.428 121.542 281.961 121.961C281.505 122.368 281.205 122.91 281.061 123.586H286.245ZM289.402 120.351H290.753V121.671H290.819C290.986 121.22 291.308 120.85 291.786 120.561C292.264 120.26 292.764 120.11 293.286 120.11C293.675 120.11 294.009 120.164 294.287 120.271V121.752C293.931 121.58 293.531 121.494 293.086 121.494C292.675 121.494 292.297 121.607 291.953 121.832C291.608 122.057 291.331 122.363 291.119 122.749C290.919 123.125 290.819 123.533 290.819 123.972V128.559H289.402V120.351ZM296.487 118.839C296.209 118.839 295.97 118.742 295.77 118.549C295.57 118.356 295.47 118.125 295.47 117.857C295.47 117.589 295.57 117.364 295.77 117.181C295.97 116.988 296.209 116.891 296.487 116.891C296.765 116.891 297.004 116.988 297.204 117.181C297.404 117.364 297.504 117.589 297.504 117.857C297.504 118.125 297.404 118.356 297.204 118.549C297.015 118.742 296.776 118.839 296.487 118.839ZM295.787 120.351H297.187V128.559H295.787V120.351ZM299.415 120.351H300.766V121.558H300.832C301.066 121.151 301.438 120.807 301.949 120.529C302.46 120.239 303.005 120.094 303.583 120.094C304.605 120.094 305.383 120.384 305.917 120.963C306.461 121.532 306.733 122.309 306.733 123.297V128.559H305.317V123.506C305.317 122.744 305.128 122.191 304.75 121.848C304.372 121.505 303.855 121.333 303.199 121.333C302.744 121.333 302.333 121.457 301.966 121.703C301.61 121.95 301.332 122.277 301.132 122.685C300.932 123.082 300.832 123.5 300.832 123.94V128.559H299.415V120.351ZM312.411 132.293C311.411 132.293 310.583 132.067 309.927 131.617C309.283 131.166 308.849 130.624 308.627 129.991L309.91 129.46C310.099 129.932 310.411 130.313 310.844 130.603C311.288 130.903 311.811 131.053 312.411 131.053C313.289 131.053 313.967 130.807 314.445 130.313C314.934 129.82 315.178 129.122 315.178 128.221V127.304H315.111C314.834 127.722 314.439 128.065 313.928 128.334C313.428 128.591 312.855 128.72 312.211 128.72C311.477 128.72 310.805 128.537 310.194 128.173C309.594 127.808 309.116 127.298 308.76 126.644C308.405 125.989 308.227 125.244 308.227 124.407C308.227 123.581 308.405 122.841 308.76 122.186C309.116 121.521 309.594 121.006 310.194 120.641C310.805 120.276 311.477 120.094 312.211 120.094C312.855 120.094 313.428 120.228 313.928 120.496C314.439 120.754 314.834 121.097 315.111 121.526H315.178V120.351H316.528V128.237C316.528 129.557 316.15 130.56 315.395 131.246C314.639 131.944 313.644 132.293 312.411 132.293ZM312.411 127.481C312.922 127.481 313.383 127.357 313.794 127.111C314.217 126.864 314.55 126.51 314.795 126.048C315.05 125.587 315.178 125.04 315.178 124.407C315.178 123.763 315.05 123.211 314.795 122.749C314.55 122.288 314.217 121.939 313.794 121.703C313.383 121.457 312.922 121.333 312.411 121.333C311.9 121.333 311.433 121.457 311.011 121.703C310.588 121.95 310.249 122.304 309.994 122.765C309.749 123.227 309.627 123.774 309.627 124.407C309.627 125.04 309.749 125.592 309.994 126.064C310.249 126.526 310.588 126.88 311.011 127.127C311.433 127.363 311.9 127.481 312.411 127.481ZM325.711 117.036H327.311L331.845 128.559H330.295L329.095 125.389H323.944L322.743 128.559H321.193L325.711 117.036ZM328.611 124.101L327.027 119.949L326.544 118.71H326.477L326.011 119.949L324.427 124.101H328.611ZM333.145 120.351H334.496V121.558H334.562C334.807 121.14 335.173 120.791 335.662 120.512C336.151 120.233 336.668 120.094 337.213 120.094C337.835 120.094 338.374 120.239 338.83 120.529C339.296 120.818 339.63 121.204 339.83 121.687C340.13 121.204 340.524 120.818 341.013 120.529C341.514 120.239 342.091 120.094 342.747 120.094C343.725 120.094 344.458 120.384 344.947 120.963C345.448 121.532 345.698 122.309 345.698 123.297V128.559H344.297V123.506C344.297 122.744 344.136 122.191 343.814 121.848C343.492 121.505 343.014 121.333 342.38 121.333C341.958 121.333 341.575 121.451 341.23 121.687C340.886 121.923 340.613 122.24 340.413 122.637C340.224 123.034 340.13 123.463 340.13 123.924V128.559H338.713V123.522C338.713 122.749 338.552 122.191 338.23 121.848C337.907 121.505 337.435 121.333 336.813 121.333C336.39 121.333 336.007 121.457 335.662 121.703C335.318 121.939 335.046 122.261 334.846 122.669C334.657 123.066 334.562 123.495 334.562 123.956V128.559H333.145V120.351ZM347.731 120.351H349.082V121.671H349.148C349.315 121.22 349.637 120.85 350.115 120.561C350.593 120.26 351.093 120.11 351.615 120.11C352.004 120.11 352.338 120.164 352.616 120.271V121.752C352.26 121.58 351.86 121.494 351.415 121.494C351.004 121.494 350.626 121.607 350.282 121.832C349.937 122.057 349.659 122.363 349.448 122.749C349.248 123.125 349.148 123.533 349.148 123.972V128.559H347.731V120.351ZM356.373 128.816C355.751 128.816 355.195 128.698 354.706 128.462C354.217 128.226 353.839 127.904 353.573 127.497C353.306 127.078 353.173 126.606 353.173 126.081C353.173 125.212 353.512 124.536 354.189 124.053C354.867 123.559 355.723 123.313 356.757 123.313C357.268 123.313 357.74 123.366 358.174 123.474C358.618 123.581 358.957 123.704 359.19 123.844V123.345C359.19 122.733 358.968 122.245 358.524 121.88C358.079 121.505 357.518 121.317 356.84 121.317C356.362 121.317 355.923 121.419 355.523 121.623C355.123 121.816 354.806 122.09 354.573 122.444L353.506 121.671C353.839 121.178 354.295 120.791 354.873 120.512C355.462 120.233 356.112 120.094 356.823 120.094C357.979 120.094 358.885 120.389 359.54 120.979C360.207 121.558 360.541 122.352 360.541 123.361V128.559H359.19V127.384H359.124C358.879 127.781 358.513 128.119 358.024 128.398C357.535 128.677 356.984 128.816 356.373 128.816ZM356.507 127.609C356.984 127.609 357.429 127.491 357.84 127.255C358.251 127.019 358.579 126.703 358.824 126.306C359.068 125.909 359.19 125.474 359.19 125.002C358.924 124.831 358.596 124.691 358.207 124.584C357.818 124.477 357.407 124.423 356.973 124.423C356.195 124.423 355.606 124.579 355.206 124.89C354.817 125.201 354.623 125.603 354.623 126.097C354.623 126.547 354.801 126.912 355.156 127.191C355.512 127.47 355.962 127.609 356.507 127.609ZM361.416 120.351H362.933L365.567 126.95H365.6L368.267 120.351H369.751L366.283 128.559H364.85L361.416 120.351ZM373.467 128.816C372.844 128.816 372.289 128.698 371.8 128.462C371.311 128.226 370.933 127.904 370.666 127.497C370.399 127.078 370.266 126.606 370.266 126.081C370.266 125.212 370.605 124.536 371.283 124.053C371.961 123.559 372.817 123.313 373.85 123.313C374.361 123.313 374.834 123.366 375.267 123.474C375.712 123.581 376.051 123.704 376.284 123.844V123.345C376.284 122.733 376.062 122.245 375.617 121.88C375.173 121.505 374.611 121.317 373.933 121.317C373.456 121.317 373.017 121.419 372.617 121.623C372.216 121.816 371.9 122.09 371.666 122.444L370.6 121.671C370.933 121.178 371.389 120.791 371.966 120.512C372.555 120.233 373.206 120.094 373.917 120.094C375.073 120.094 375.978 120.389 376.634 120.979C377.301 121.558 377.634 122.352 377.634 123.361V128.559H376.284V127.384H376.217C375.973 127.781 375.606 128.119 375.117 128.398C374.628 128.677 374.078 128.816 373.467 128.816ZM373.6 127.609C374.078 127.609 374.522 127.491 374.934 127.255C375.345 127.019 375.673 126.703 375.917 126.306C376.162 125.909 376.284 125.474 376.284 125.002C376.017 124.831 375.689 124.691 375.3 124.584C374.911 124.477 374.5 124.423 374.067 124.423C373.289 124.423 372.7 124.579 372.3 124.89C371.911 125.201 371.716 125.603 371.716 126.097C371.716 126.547 371.894 126.912 372.25 127.191C372.605 127.47 373.055 127.609 373.6 127.609ZM382.71 128.688C382.366 128.688 382.043 128.634 381.743 128.527C381.454 128.419 381.21 128.275 381.01 128.092C380.788 127.888 380.621 127.652 380.51 127.384C380.399 127.116 380.343 126.789 380.343 126.402V121.591H378.859V120.351H380.343V118.034H381.76V120.351H383.827V121.591H381.76V126.064C381.76 126.515 381.849 126.848 382.027 127.062C382.238 127.298 382.543 127.416 382.943 127.416C383.266 127.416 383.577 127.325 383.877 127.143V128.478C383.71 128.554 383.538 128.607 383.36 128.639C383.193 128.672 382.977 128.688 382.71 128.688ZM386.462 118.839C386.184 118.839 385.945 118.742 385.745 118.549C385.545 118.356 385.445 118.125 385.445 117.857C385.445 117.589 385.545 117.364 385.745 117.181C385.945 116.988 386.184 116.891 386.462 116.891C386.74 116.891 386.979 116.988 387.179 117.181C387.379 117.364 387.479 117.589 387.479 117.857C387.479 118.125 387.379 118.356 387.179 118.549C386.99 118.742 386.751 118.839 386.462 118.839ZM385.762 120.351H387.162V128.559H385.762V120.351Z" />
    <defs>
        <linearGradient id="paint0_linear_701_2363" x1="425.558" y1="130.79" x2="9.03645" y2="130.79"
            gradientUnits="userSpaceOnUse">
            <stop stop-color="#348BCA" />
            <stop offset="0.404875" stop-color="#59A43A" />
            <stop offset="0.711571" stop-color="#F3B002" />
            <stop offset="1" stop-color="#DF572E" />
        </linearGradient>
    </defs>
</svg>