<svg width="428" height="167" viewBox="0 0 428 167" fill="none" xmlns="http://www.w3.org/2000/svg">
    <path
        d="M416.864 1.67871H11.2328C5.86239 1.67871 1.50879 5.88168 1.50879 11.0663V155.904C1.50879 161.088 5.86239 165.291 11.2328 165.291H416.864C422.234 165.291 426.588 161.088 426.588 155.904V11.0663C426.588 5.88168 422.234 1.67871 416.864 1.67871Z"
        fill="var(--background-color)" stroke="url(#paint0_linear_701_2362)" stroke-width="2" />
    <path
        d="M50.2495 105.132C48.709 105.132 47.2893 104.774 45.9918 104.06C44.693 103.345 43.658 102.369 42.8884 101.13C42.1327 99.8759 41.7549 98.4839 41.7549 96.9523C41.7549 95.4222 42.1327 94.0368 42.8884 92.7977C43.658 91.5438 44.693 90.5594 45.9918 89.846C47.2893 89.1312 48.709 88.7744 50.2495 88.7744C51.4734 88.7744 52.6125 88.9849 53.6696 89.4074C54.7268 89.8312 55.6103 90.4213 56.3201 91.179L54.5531 92.8848C54.0252 92.3162 53.3904 91.879 52.6514 91.5733C51.9263 91.2675 51.1178 91.1133 50.2273 91.1133C49.1855 91.1133 48.2117 91.3547 47.3046 91.8348C46.3988 92.3162 45.6737 93.0015 45.1305 93.8907C44.5874 94.7798 44.3151 95.8003 44.3151 96.9523C44.3151 98.1043 44.5874 99.1249 45.1305 100.014C45.6737 100.903 46.3988 101.588 47.3046 102.07C48.2117 102.55 49.1924 102.791 50.2495 102.791C51.2164 102.791 52.0235 102.653 52.6736 102.376C53.3223 102.098 53.9044 101.727 54.417 101.26C54.7504 100.939 55.0296 100.538 55.256 100.058C55.4978 99.5769 55.6561 99.0511 55.7311 98.4839H50.2273V96.2966H58.1329C58.208 96.7043 58.2455 97.128 58.2455 97.5652C58.2455 98.5563 58.0871 99.5112 57.7704 100.43C57.4523 101.334 56.9466 102.121 56.252 102.791C54.7267 104.351 52.7264 105.132 50.2495 105.132ZM66.0692 105.132C64.9064 105.132 63.8646 104.875 62.9436 104.366C62.0226 103.84 61.3058 103.127 60.7918 102.223C60.2778 101.319 60.0222 100.313 60.0222 99.2054C60.0222 98.0963 60.2778 97.0905 60.7918 96.1866C61.3058 95.2827 62.0226 94.576 62.9436 94.0664C63.8646 93.5407 64.9064 93.2791 66.0692 93.2791C67.2319 93.2791 68.2737 93.5407 69.1961 94.0664C70.1171 94.5907 70.8339 95.3055 71.3479 96.2094C71.8605 97.1133 72.1175 98.111 72.1175 99.2054C72.1175 100.313 71.8605 101.319 71.3479 102.223C70.8339 103.127 70.1171 103.84 69.1961 104.366C68.2737 104.875 67.2319 105.132 66.0692 105.132ZM66.0692 102.923C66.704 102.923 67.293 102.777 67.8362 102.486C68.3807 102.179 68.8099 101.749 69.1281 101.194C69.4601 100.626 69.6254 99.9631 69.6254 99.2054C69.6254 98.4463 69.4601 97.7905 69.1281 97.2367C68.8099 96.6828 68.3807 96.2604 67.8362 95.968C67.293 95.6622 66.704 95.5093 66.0692 95.5093C65.4357 95.5093 64.8467 95.6622 64.3022 95.968C63.759 96.2604 63.3214 96.6828 62.9894 97.2367C62.6713 97.7905 62.5129 98.4463 62.5129 99.2054C62.5129 99.9631 62.6713 100.626 62.9894 101.194C63.3214 101.749 63.759 102.179 64.3022 102.486C64.8467 102.777 65.4357 102.923 66.0692 102.923ZM79.8287 105.132C78.6659 105.132 77.6241 104.875 76.7031 104.366C75.7821 103.84 75.0639 103.127 74.5513 102.223C74.0373 101.319 73.7803 100.313 73.7803 99.2054C73.7803 98.0963 74.0373 97.0905 74.5513 96.1866C75.0639 95.2827 75.7821 94.576 76.7031 94.0664C77.6241 93.5407 78.6659 93.2791 79.8287 93.2791C80.9914 93.2791 82.0332 93.5407 82.9542 94.0664C83.8752 94.5907 84.5934 95.3055 85.106 96.2094C85.62 97.1133 85.877 98.111 85.877 99.2054C85.877 100.313 85.62 101.319 85.106 102.223C84.5934 103.127 83.8752 103.84 82.9542 104.366C82.0332 104.875 80.9914 105.132 79.8287 105.132ZM79.8287 102.923C80.4635 102.923 81.0511 102.777 81.5957 102.486C82.1388 102.179 82.5694 101.749 82.8862 101.194C83.2182 100.626 83.3849 99.9631 83.3849 99.2054C83.3849 98.4463 83.2182 97.7905 82.8862 97.2367C82.5694 96.6828 82.1388 96.2604 81.5957 95.968C81.0511 95.6622 80.4635 95.5093 79.8287 95.5093C79.1938 95.5093 78.6048 95.6622 78.0617 95.968C77.5185 96.2604 77.0795 96.6828 76.7475 97.2367C76.4308 97.7905 76.2724 98.4463 76.2724 99.2054C76.2724 99.9631 76.4308 100.626 76.7475 101.194C77.0795 101.749 77.5185 102.179 78.0617 102.486C78.6048 102.777 79.1938 102.923 79.8287 102.923ZM93.384 109.855C91.9642 109.855 90.7862 109.541 89.85 108.913C88.9289 108.287 88.3094 107.544 87.9927 106.683L90.3265 105.743C90.5668 106.327 90.953 106.793 91.4808 107.143C92.024 107.507 92.6588 107.689 93.384 107.689C94.4411 107.689 95.2635 107.383 95.8525 106.77C96.4568 106.174 96.7582 105.327 96.7582 104.234V103.207H96.6234C96.2456 103.732 95.74 104.147 95.1051 104.453C94.4856 104.744 93.7687 104.89 92.9533 104.89C91.9865 104.89 91.0891 104.65 90.2584 104.169C89.4277 103.687 88.7623 103.01 88.2649 102.136C87.7815 101.245 87.5398 100.233 87.5398 99.0954C87.5398 97.9582 87.7815 96.9524 88.2649 96.078C88.7623 95.1888 89.4277 94.5035 90.2584 94.0221C91.0891 93.5259 91.9865 93.2791 92.9533 93.2791C93.7535 93.2791 94.4717 93.432 95.1051 93.7378C95.74 94.0435 96.2456 94.4593 96.6234 94.985H96.7582V93.6291H99.1378V104.169C99.1378 105.378 98.8961 106.407 98.4127 107.252C97.9292 108.113 97.25 108.761 96.3734 109.198C95.5135 109.636 94.5161 109.855 93.384 109.855ZM93.4062 102.704C94.0104 102.704 94.5689 102.565 95.0829 102.289C95.5955 101.996 96.0039 101.582 96.3053 101.041C96.6082 100.487 96.7582 99.8384 96.7582 99.0954C96.7582 97.9582 96.4345 97.0757 95.7844 96.4494C95.1509 95.8084 94.3577 95.4879 93.4062 95.4879C92.7866 95.4879 92.2212 95.6327 91.7073 95.9251C91.1947 96.2013 90.7862 96.6104 90.4848 97.1495C90.182 97.6886 90.0319 98.3377 90.0319 99.0954C90.0319 99.8531 90.182 100.502 90.4848 101.041C90.7862 101.582 91.1947 101.996 91.7073 102.289C92.2212 102.565 92.7866 102.704 93.4062 102.704ZM102.066 89.1244H104.557V104.782H102.066V89.1244ZM112.653 105.132C111.519 105.132 110.501 104.875 109.594 104.366C108.703 103.855 108.002 103.156 107.488 102.266C106.989 101.362 106.741 100.349 106.741 99.2268C106.741 98.162 106.982 97.179 107.466 96.2751C107.963 95.3564 108.651 94.6269 109.526 94.0878C110.402 93.5487 111.398 93.2791 112.517 93.2791C113.679 93.2791 114.684 93.5259 115.53 94.0221C116.39 94.5183 117.04 95.1955 117.477 96.0565C117.93 96.9161 118.157 97.8857 118.157 98.964C118.157 99.1678 118.134 99.424 118.089 99.7297H109.231C109.323 100.765 109.699 101.567 110.365 102.136C111.044 102.69 111.829 102.966 112.721 102.966C113.431 102.966 114.042 102.813 114.555 102.507C115.084 102.187 115.506 101.756 115.824 101.217L117.93 102.179C117.387 103.097 116.677 103.819 115.801 104.344C114.925 104.869 113.875 105.132 112.653 105.132ZM115.62 97.8925C115.589 97.4995 115.462 97.1133 115.235 96.7338C115.009 96.3408 114.66 96.0122 114.192 95.7494C113.739 95.4879 113.181 95.3564 112.517 95.3564C111.717 95.3564 111.037 95.5898 110.477 96.0565C109.934 96.5084 109.556 97.12 109.345 97.8925H115.62ZM126.143 89.1244H131.33C133.005 89.1244 134.471 89.4516 135.724 90.1074C136.977 90.7632 137.937 91.6899 138.601 92.8848C139.28 94.0663 139.62 95.4222 139.62 96.9523C139.62 98.4839 139.28 99.8464 138.601 101.041C137.937 102.223 136.977 103.141 135.724 103.797C134.471 104.453 133.005 104.782 131.33 104.782H126.143V89.1244ZM131.284 102.441C133.097 102.441 134.508 101.96 135.52 100.998C136.548 100.021 137.06 98.673 137.06 96.9523C137.06 95.2465 136.548 93.9054 135.52 92.9291C134.508 91.9514 133.097 91.4633 131.284 91.4633H128.679V102.441H131.284ZM147.049 105.132C145.917 105.132 144.898 104.875 143.992 104.366C143.102 103.855 142.399 103.156 141.885 102.266C141.387 101.362 141.137 100.349 141.137 99.2268C141.137 98.162 141.379 97.179 141.862 96.2751C142.361 95.3564 143.049 94.6269 143.924 94.0878C144.8 93.5487 145.796 93.2791 146.913 93.2791C148.076 93.2791 149.08 93.5259 149.926 94.0221C150.788 94.5183 151.436 95.1955 151.874 96.0565C152.328 96.9161 152.555 97.8857 152.555 98.964C152.555 99.1678 152.531 99.424 152.487 99.7297H143.629C143.72 100.765 144.098 101.567 144.762 102.136C145.442 102.69 146.227 102.966 147.118 102.966C147.827 102.966 148.439 102.813 148.953 102.507C149.481 102.187 149.904 101.756 150.221 101.217L152.328 102.179C151.784 103.097 151.074 103.819 150.199 104.344C149.322 104.869 148.273 105.132 147.049 105.132ZM150.017 97.8925C149.988 97.4995 149.858 97.1133 149.632 96.7338C149.405 96.3408 149.058 96.0122 148.59 95.7494C148.137 95.4879 147.579 95.3564 146.913 95.3564C146.113 95.3564 145.434 95.5898 144.875 96.0565C144.332 96.5084 143.954 97.12 143.743 97.8925H150.017ZM153.31 93.6291H156.097L159.291 101.676H159.381L162.643 93.6291H165.361L160.559 104.782H158.068L153.31 93.6291ZM171.914 105.132C170.78 105.132 169.762 104.875 168.855 104.366C167.965 103.855 167.263 103.156 166.749 102.266C166.25 101.362 166.002 100.349 166.002 99.2268C166.002 98.162 166.243 97.179 166.727 96.2751C167.224 95.3564 167.912 94.6269 168.787 94.0878C169.663 93.5487 170.659 93.2791 171.778 93.2791C172.94 93.2791 173.945 93.5259 174.791 94.0221C175.651 94.5183 176.301 95.1955 176.738 96.0565C177.191 96.9161 177.418 97.8857 177.418 98.964C177.418 99.1678 177.395 99.424 177.35 99.7297H168.492C168.584 100.765 168.961 101.567 169.626 102.136C170.305 102.69 171.09 102.966 171.982 102.966C172.692 102.966 173.303 102.813 173.816 102.507C174.345 102.187 174.767 101.756 175.085 101.217L177.191 102.179C176.648 103.097 175.938 103.819 175.062 104.344C174.186 104.869 173.136 105.132 171.914 105.132ZM174.881 97.8925C174.85 97.4995 174.723 97.1133 174.496 96.7338C174.27 96.3408 173.921 96.0122 173.453 95.7494C173 95.4879 172.442 95.3564 171.778 95.3564C170.978 95.3564 170.298 95.5898 169.738 96.0565C169.195 96.5084 168.817 97.12 168.606 97.8925H174.881ZM179.686 89.1244H182.178V104.782H179.686V89.1244ZM190.409 105.132C189.246 105.132 188.204 104.875 187.283 104.366C186.362 103.84 185.646 103.127 185.132 102.223C184.618 101.319 184.362 100.313 184.362 99.2054C184.362 98.0963 184.618 97.0905 185.132 96.1866C185.646 95.2827 186.362 94.576 187.283 94.0664C188.204 93.5407 189.246 93.2791 190.409 93.2791C191.572 93.2791 192.614 93.5407 193.536 94.0664C194.457 94.5907 195.174 95.3055 195.688 96.2094C196.2 97.1133 196.457 98.111 196.457 99.2054C196.457 100.313 196.2 101.319 195.688 102.223C195.174 103.127 194.457 103.84 193.536 104.366C192.614 104.875 191.572 105.132 190.409 105.132ZM190.409 102.923C191.044 102.923 191.633 102.777 192.176 102.486C192.72 102.179 193.15 101.749 193.468 101.194C193.8 100.626 193.965 99.9631 193.965 99.2054C193.965 98.4463 193.8 97.7905 193.468 97.2367C193.15 96.6828 192.72 96.2604 192.176 95.968C191.633 95.6622 191.044 95.5093 190.409 95.5093C189.775 95.5093 189.186 95.6622 188.642 95.968C188.099 96.2604 187.661 96.6828 187.329 97.2367C187.011 97.7905 186.853 98.4463 186.853 99.2054C186.853 99.9631 187.011 100.626 187.329 101.194C187.661 101.749 188.099 102.179 188.642 102.486C189.186 102.777 189.775 102.923 190.409 102.923ZM198.554 93.6291H200.932V95.0936H201.046C201.378 94.584 201.868 94.1535 202.518 93.8035C203.167 93.4535 203.899 93.2791 204.714 93.2791C205.756 93.2791 206.701 93.5339 207.545 94.0435C208.391 94.5545 209.057 95.2612 209.539 96.1651C210.038 97.0543 210.288 98.0681 210.288 99.2054C210.288 100.343 210.038 101.362 209.539 102.266C209.057 103.156 208.391 103.855 207.545 104.366C206.701 104.875 205.756 105.132 204.714 105.132C203.899 105.132 203.167 104.956 202.518 104.606C201.868 104.256 201.378 103.833 201.046 103.337H200.932L201.046 104.89V109.505H198.554V93.6291ZM204.352 102.923C204.956 102.923 205.523 102.769 206.051 102.463C206.58 102.157 207.002 101.72 207.319 101.151C207.637 100.583 207.796 99.9336 207.796 99.2054C207.796 98.4758 207.637 97.8348 207.319 97.2809C207.002 96.7123 206.58 96.2751 206.051 95.968C205.523 95.6622 204.956 95.5093 204.352 95.5093C203.749 95.5093 203.182 95.6622 202.653 95.968C202.14 96.2751 201.725 96.7123 201.408 97.2809C201.09 97.8348 200.932 98.4758 200.932 99.2054C200.932 99.9336 201.09 100.583 201.408 101.151C201.725 101.72 202.14 102.157 202.653 102.463C203.182 102.769 203.749 102.923 204.352 102.923ZM217.836 105.132C216.703 105.132 215.684 104.875 214.777 104.366C213.887 103.855 213.184 103.156 212.671 102.266C212.173 101.362 211.924 100.349 211.924 99.2268C211.924 98.162 212.166 97.179 212.649 96.2751C213.147 95.3564 213.834 94.6269 214.709 94.0878C215.586 93.5487 216.582 93.2791 217.7 93.2791C218.863 93.2791 219.867 93.5259 220.712 94.0221C221.573 94.5183 222.223 95.1955 222.661 96.0565C223.114 96.9161 223.34 97.8857 223.34 98.964C223.34 99.1678 223.318 99.424 223.272 99.7297H214.415C214.506 100.765 214.883 101.567 215.548 102.136C216.228 102.69 217.012 102.966 217.904 102.966C218.613 102.966 219.225 102.813 219.738 102.507C220.267 102.187 220.69 101.756 221.006 101.217L223.114 102.179C222.57 103.097 221.861 103.819 220.984 104.344C220.109 104.869 219.059 105.132 217.836 105.132ZM220.803 97.8925C220.773 97.4995 220.645 97.1133 220.419 96.7338C220.191 96.3408 219.844 96.0122 219.375 95.7494C218.923 95.4879 218.364 95.3564 217.7 95.3564C216.9 95.3564 216.219 95.5898 215.661 96.0565C215.118 96.5084 214.74 97.12 214.529 97.8925H220.803ZM225.609 93.6291H227.988V95.2693H228.101C228.358 94.7007 228.804 94.234 229.437 93.8692C230.072 93.4897 230.743 93.3006 231.453 93.3006C232.012 93.3006 232.481 93.373 232.857 93.5192V96.0123C232.193 95.7789 231.597 95.6622 231.068 95.6622C230.494 95.6622 229.98 95.8084 229.527 96.0994C229.09 96.3918 228.742 96.7847 228.485 97.2809C228.228 97.761 228.101 98.2934 228.101 98.8768V104.782H225.609V93.6291ZM244.487 105.132C243.142 105.132 241.935 104.752 240.863 103.994C239.79 103.235 239.05 102.172 238.643 100.801L241.043 99.8612C241.285 100.721 241.709 101.428 242.312 101.981C242.931 102.522 243.672 102.791 244.532 102.791C245.333 102.791 246.012 102.594 246.571 102.201C247.129 101.792 247.408 101.238 247.408 100.538C247.408 99.8974 247.16 99.373 246.661 98.964C246.178 98.5415 245.325 98.1191 244.102 97.6953L243.083 97.3466C241.995 96.9819 241.081 96.4561 240.342 95.7722C239.601 95.0869 239.232 94.183 239.232 93.0605C239.232 92.2867 239.45 91.5732 239.889 90.9175C240.327 90.2603 240.931 89.744 241.7 89.3645C242.485 88.9702 243.369 88.7744 244.351 88.7744C245.771 88.7744 246.903 89.1097 247.749 89.7802C248.595 90.436 249.16 91.179 249.448 92.0104L247.16 92.9506C246.993 92.4544 246.676 92.0171 246.208 91.639C245.74 91.2594 245.136 91.0704 244.397 91.0704C243.656 91.0704 243.03 91.2527 242.516 91.6162C242.017 91.9809 241.768 92.4476 241.768 93.0163C241.768 93.5554 241.995 94.0006 242.448 94.3506C242.901 94.7007 243.61 95.0359 244.577 95.3564L245.597 95.6837C246.986 96.1504 248.059 96.7633 248.813 97.521C249.584 98.2639 249.969 99.2631 249.969 100.517C249.969 101.538 249.696 102.397 249.153 103.097C248.61 103.782 247.914 104.292 247.069 104.627C246.239 104.964 245.377 105.132 244.487 105.132ZM256.623 104.956C256.109 104.956 255.625 104.875 255.172 104.716C254.72 104.555 254.35 104.344 254.062 104.082C253.414 103.454 253.089 102.601 253.089 101.523V95.7494H251.073V93.6291H253.089V90.4789H255.581V93.6291H258.39V95.7494H255.581V100.998C255.581 101.595 255.702 102.019 255.943 102.266C256.17 102.558 256.562 102.704 257.121 102.704C257.377 102.704 257.603 102.675 257.801 102.616C257.996 102.543 258.208 102.433 258.434 102.289V104.627C257.937 104.847 257.333 104.956 256.623 104.956ZM264.971 105.132C263.567 105.132 262.496 104.731 261.756 103.929C261.03 103.112 260.668 101.981 260.668 100.538V93.6291H263.16V100.211C263.16 101.115 263.378 101.792 263.817 102.244C264.27 102.696 264.859 102.923 265.584 102.923C266.173 102.923 266.694 102.777 267.147 102.486C267.6 102.179 267.947 101.778 268.189 101.283C268.43 100.787 268.551 100.254 268.551 99.6855V93.6291H271.042V104.782H268.687V103.337H268.551C268.233 103.863 267.743 104.292 267.079 104.627C266.413 104.964 265.712 105.132 264.971 105.132ZM278.77 105.132C277.728 105.132 276.785 104.875 275.939 104.366C275.093 103.855 274.42 103.156 273.923 102.266C273.44 101.362 273.198 100.343 273.198 99.2054C273.198 98.0681 273.44 97.0543 273.923 96.1651C274.42 95.2612 275.093 94.5545 275.939 94.0435C276.785 93.5339 277.728 93.2791 278.77 93.2791C279.585 93.2791 280.317 93.4535 280.967 93.8035C281.616 94.1535 282.108 94.584 282.44 95.0936H282.553L282.44 93.5192V89.1244H284.931V104.782H282.553V103.337H282.44C282.108 103.833 281.616 104.256 280.967 104.606C280.317 104.956 279.585 105.132 278.77 105.132ZM279.132 102.923C279.737 102.923 280.295 102.769 280.809 102.463C281.337 102.157 281.761 101.72 282.077 101.151C282.394 100.583 282.553 99.9336 282.553 99.2054C282.553 98.4758 282.394 97.8348 282.077 97.2809C281.761 96.7123 281.337 96.2751 280.809 95.968C280.295 95.6622 279.737 95.5093 279.132 95.5093C278.528 95.5093 277.963 95.6622 277.434 95.968C276.906 96.2751 276.482 96.7123 276.165 97.2809C275.848 97.8348 275.69 98.4758 275.69 99.2054C275.69 99.9336 275.848 100.583 276.165 101.151C276.482 101.72 276.906 102.157 277.434 102.463C277.963 102.769 278.528 102.923 279.132 102.923ZM293.002 105.132C291.869 105.132 290.85 104.875 289.944 104.366C289.052 103.855 288.351 103.156 287.837 102.266C287.338 101.362 287.089 100.349 287.089 99.2268C287.089 98.162 287.331 97.179 287.815 96.2751C288.313 95.3564 288.999 94.6269 289.876 94.0878C290.751 93.5487 291.749 93.2791 292.865 93.2791C294.028 93.2791 295.033 93.5259 295.879 94.0221C296.738 94.5183 297.389 95.1955 297.826 96.0565C298.279 96.9161 298.505 97.8857 298.505 98.964C298.505 99.1678 298.483 99.424 298.437 99.7297H289.582C289.672 100.765 290.05 101.567 290.714 102.136C291.393 102.69 292.178 102.966 293.07 102.966C293.78 102.966 294.391 102.813 294.905 102.507C295.433 102.187 295.855 101.756 296.173 101.217L298.279 102.179C297.736 103.097 297.026 103.819 296.149 104.344C295.274 104.869 294.224 105.132 293.002 105.132ZM295.969 97.8925C295.938 97.4995 295.811 97.1133 295.584 96.7338C295.358 96.3408 295.01 96.0122 294.542 95.7494C294.089 95.4879 293.529 95.3564 292.865 95.3564C292.065 95.3564 291.386 95.5898 290.828 96.0565C290.283 96.5084 289.905 97.12 289.694 97.8925H295.969ZM300.775 93.6291H303.154V95.0936H303.266C303.598 94.5693 304.09 94.1388 304.738 93.8035C305.404 93.4535 306.105 93.2791 306.846 93.2791C308.25 93.2791 309.314 93.6801 310.04 94.4807C310.779 95.2693 311.15 96.3475 311.15 97.7181V104.782H308.657V98.0453C308.657 97.1709 308.431 96.5299 307.978 96.1209C307.54 95.7132 306.928 95.5093 306.143 95.5093C305.585 95.5093 305.086 95.6622 304.648 95.968C304.211 96.2604 303.87 96.6533 303.629 97.1495C303.387 97.6443 303.266 98.1768 303.266 98.7454V104.782H300.775V93.6291ZM318.117 104.956C317.605 104.956 317.121 104.875 316.669 104.716C316.216 104.555 315.845 104.344 315.559 104.082C314.908 103.454 314.583 102.601 314.583 101.523V95.7494H312.568V93.6291H314.583V90.4789H317.076V93.6291H319.884V95.7494H317.076V100.998C317.076 101.595 317.196 102.019 317.438 102.266C317.665 102.558 318.058 102.704 318.616 102.704C318.873 102.704 319.1 102.675 319.295 102.616C319.491 102.543 319.704 102.433 319.93 102.289V104.627C319.432 104.847 318.827 104.956 318.117 104.956ZM335.185 105.132C333.613 105.132 332.18 104.774 330.881 104.06C329.582 103.345 328.562 102.361 327.822 101.107C327.083 99.8531 326.712 98.4691 326.712 96.9523C326.712 95.4369 327.083 94.0516 327.822 92.7977C328.562 91.5438 329.582 90.5594 330.881 89.846C332.18 89.1312 333.613 88.7744 335.185 88.7744C336.407 88.7744 337.517 88.993 338.514 89.4302C339.526 89.8674 340.417 90.5017 341.187 91.3319L339.376 93.0163C338.816 92.3752 338.198 91.9005 337.517 91.5947C336.838 91.2742 336.06 91.1133 335.185 91.1133C334.097 91.1133 333.101 91.3547 332.195 91.8348C331.303 92.3162 330.593 93.0015 330.066 93.8907C329.536 94.765 329.272 95.7856 329.272 96.9523C329.272 98.1191 329.536 99.1464 330.066 100.036C330.593 100.91 331.303 101.588 332.195 102.07C333.101 102.55 334.097 102.791 335.185 102.791C336.996 102.791 338.537 102.062 339.805 100.604L341.64 102.31C340.855 103.199 339.91 103.892 338.809 104.387C337.706 104.884 336.499 105.132 335.185 105.132ZM343.843 89.1244H346.335V104.782H343.843V89.1244ZM353.477 105.132C352.072 105.132 351 104.731 350.26 103.929C349.534 103.112 349.173 101.981 349.173 100.538V93.6291H351.664V100.211C351.664 101.115 351.883 101.792 352.321 102.244C352.774 102.696 353.363 102.923 354.088 102.923C354.677 102.923 355.198 102.777 355.651 102.486C356.104 102.179 356.451 101.778 356.693 101.283C356.934 100.787 357.055 100.254 357.055 99.6855V93.6291H359.547V104.782H357.191V103.337H357.055C356.738 103.863 356.247 104.292 355.583 104.627C354.919 104.964 354.216 105.132 353.477 105.132ZM368.609 105.132C367.793 105.132 367.06 104.956 366.411 104.606C365.761 104.256 365.271 103.833 364.939 103.337H364.826V104.782H362.447V89.1244H364.939V93.5192L364.826 95.0936H364.939C365.271 94.584 365.761 94.1535 366.411 93.8035C367.06 93.4535 367.793 93.2791 368.609 93.2791C369.651 93.2791 370.594 93.5339 371.44 94.0435C372.286 94.5545 372.95 95.2612 373.433 96.1651C373.932 97.0543 374.181 98.0681 374.181 99.2054C374.181 100.343 373.932 101.362 373.433 102.266C372.95 103.156 372.286 103.855 371.44 104.366C370.594 104.875 369.651 105.132 368.609 105.132ZM368.246 102.923C368.85 102.923 369.416 102.769 369.945 102.463C370.473 102.157 370.897 101.72 371.213 101.151C371.53 100.583 371.688 99.9336 371.688 99.2054C371.688 98.4758 371.53 97.8348 371.213 97.2809C370.897 96.7123 370.473 96.2751 369.945 95.968C369.416 95.6622 368.85 95.5093 368.246 95.5093C367.642 95.5093 367.075 95.6622 366.547 95.968C366.033 96.2751 365.618 96.7123 365.301 97.2809C364.984 97.8348 364.826 98.4758 364.826 99.2054C364.826 99.9336 364.984 100.583 365.301 101.151C365.618 101.72 366.033 102.157 366.547 102.463C367.075 102.769 367.642 102.923 368.246 102.923ZM380.551 105.132C379.223 105.132 378.136 104.854 377.29 104.3C376.445 103.732 375.848 103.01 375.5 102.136L377.72 101.194C377.992 101.778 378.37 102.223 378.854 102.529C379.351 102.834 379.918 102.989 380.551 102.989C381.171 102.989 381.692 102.885 382.115 102.681C382.538 102.463 382.749 102.142 382.749 101.72C382.749 101.311 382.568 100.99 382.206 100.757C381.843 100.524 381.285 100.32 380.529 100.145L379.147 99.8169C378.226 99.5983 377.463 99.2121 376.86 98.6582C376.256 98.1043 375.953 97.4043 375.953 96.5594C375.953 95.9023 376.15 95.3269 376.542 94.8307C376.951 94.3359 377.494 93.9564 378.173 93.6935C378.854 93.4173 379.593 93.2791 380.393 93.2791C381.465 93.2791 382.41 93.4897 383.225 93.9135C384.041 94.3211 384.63 94.9193 384.991 95.7065L382.817 96.6238C382.379 95.7641 381.579 95.3337 380.417 95.3337C379.857 95.3337 379.389 95.4436 379.012 95.6622C378.634 95.8808 378.445 96.1651 378.445 96.5152C378.445 96.8504 378.588 97.128 378.876 97.3466C379.162 97.5505 379.586 97.7248 380.144 97.871L381.843 98.2867C382.975 98.563 383.828 98.9868 384.402 99.554C384.991 100.109 385.285 100.795 385.285 101.61C385.285 102.31 385.074 102.93 384.652 103.469C384.244 103.994 383.678 104.402 382.953 104.693C382.228 104.985 381.428 105.132 380.551 105.132Z" />
    <path
        d="M221.968 54.6373L240.606 44.2489C243.204 42.8011 246.525 43.6603 248.025 46.168C249.525 48.6757 248.635 51.8823 246.037 53.3301L227.399 63.7184C224.802 65.1663 221.48 64.3071 219.98 61.7994C218.481 59.2917 219.371 56.0851 221.968 54.6373Z"
        fill="#FBBC04" />
    <path
        d="M208.732 42.8852L190.094 53.2735C187.496 54.7213 184.175 53.8621 182.675 51.3544C181.175 48.8468 182.065 45.6402 184.663 44.1924L203.301 33.804C205.899 32.3562 209.22 33.2154 210.72 35.7231C212.219 38.2308 211.329 41.4374 208.732 42.8852Z"
        fill="#EA4335" />
    <path
        d="M208.274 54.6358L189.636 44.2475C187.038 42.7997 183.717 43.6589 182.217 46.1666C180.717 48.6743 181.607 51.8808 184.205 53.3287L202.843 63.717C205.441 65.1648 208.762 64.3056 210.262 61.7979C211.761 59.2903 210.871 56.0836 208.274 54.6358Z"
        fill="#4285F4" />
    <path
        d="M221.652 42.7088L240.923 53.4499C243.346 54.8003 246.444 53.9989 247.842 51.6599L248.208 51.0489C249.607 48.71 248.776 45.7191 246.354 44.3687L227.083 33.6276C224.66 32.2772 221.562 33.0786 220.163 35.4176L219.798 36.0286C218.399 38.3676 219.229 41.3584 221.652 42.7088Z"
        fill="#0F9D58" />
    <path
        d="M55.4198 128.596L51.3857 122.401H53.036L56.0866 127.228H56.1533L59.1539 122.401H60.8042L56.8368 128.596V133.923H55.4198V128.596ZM64.2228 134.181C63.4116 134.181 62.6837 133.993 62.0391 133.617C61.3946 133.242 60.8889 132.727 60.5222 132.072C60.1665 131.407 59.9887 130.662 59.9887 129.836C59.9887 129.042 60.1554 128.312 60.4888 127.647C60.8333 126.982 61.3168 126.451 61.9391 126.054C62.5615 125.657 63.2838 125.458 64.1062 125.458C64.9397 125.458 65.662 125.641 66.2732 126.005C66.8845 126.359 67.3512 126.853 67.6735 127.486C68.0069 128.119 68.1736 128.843 68.1736 129.659C68.1736 129.819 68.1569 129.959 68.1236 130.077H61.4057C61.439 130.699 61.5946 131.225 61.8724 131.654C62.1503 132.083 62.5003 132.405 62.9226 132.62C63.356 132.834 63.8061 132.941 64.2729 132.941C65.362 132.941 66.201 132.448 66.79 131.461L67.9902 132.024C67.6235 132.689 67.1234 133.215 66.49 133.601C65.8676 133.988 65.1119 134.181 64.2228 134.181ZM66.6733 128.95C66.6511 128.607 66.5511 128.264 66.3733 127.92C66.1954 127.577 65.9121 127.287 65.5231 127.051C65.1452 126.815 64.6674 126.697 64.0895 126.697C63.4227 126.697 62.8559 126.907 62.3892 127.325C61.9335 127.733 61.6335 128.275 61.489 128.95H66.6733ZM72.88 134.181C71.9687 134.181 71.2075 133.977 70.5963 133.569C69.985 133.151 69.5516 132.62 69.296 131.976L70.5629 131.429C70.7741 131.922 71.0852 132.303 71.4964 132.571C71.9187 132.84 72.3799 132.974 72.88 132.974C73.4134 132.974 73.8691 132.872 74.2469 132.668C74.6248 132.453 74.8137 132.153 74.8137 131.767C74.8137 131.423 74.6637 131.15 74.3636 130.946C74.0636 130.731 73.5913 130.549 72.9467 130.399L71.9132 130.141C71.2353 129.98 70.6796 129.707 70.2462 129.321C69.8128 128.934 69.5961 128.435 69.5961 127.824C69.5961 127.352 69.7405 126.939 70.0295 126.585C70.3295 126.22 70.7241 125.941 71.2131 125.748C71.702 125.555 72.2299 125.458 72.7967 125.458C73.5412 125.458 74.2025 125.614 74.7804 125.925C75.3694 126.236 75.7861 126.671 76.0306 127.228L74.797 127.776C74.4192 127.046 73.7468 126.681 72.78 126.681C72.3132 126.681 71.9021 126.789 71.5464 127.003C71.2019 127.207 71.0297 127.47 71.0297 127.792C71.0297 128.092 71.1519 128.339 71.3964 128.532C71.6409 128.714 72.0076 128.865 72.4966 128.983L73.7302 129.288C74.5637 129.492 75.1916 129.798 75.6139 130.206C76.0362 130.603 76.2473 131.091 76.2473 131.67C76.2473 132.174 76.0973 132.62 75.7972 133.006C75.4972 133.381 75.0915 133.671 74.5803 133.875C74.0691 134.079 73.5023 134.181 72.88 134.181ZM77.792 122.401H79.209V125.796L79.1423 126.923H79.209C79.4423 126.504 79.8091 126.156 80.3092 125.877C80.8204 125.598 81.376 125.458 81.9761 125.458C83.0097 125.458 83.7987 125.753 84.3433 126.343C84.8878 126.923 85.1601 127.695 85.1601 128.661V133.923H83.7431V128.87C83.7431 128.13 83.5487 127.583 83.1597 127.228C82.7708 126.874 82.2651 126.697 81.6428 126.697C81.1982 126.697 80.7871 126.826 80.4092 127.084C80.0425 127.341 79.7479 127.674 79.5257 128.081C79.3145 128.489 79.209 128.913 79.209 129.353V133.923H77.792V122.401ZM86.1047 125.716H87.555L89.5887 132.201H89.6054L91.7391 125.716H93.206L95.3564 132.185H95.3731L97.3901 125.716H98.8237L96.0732 133.923H94.6396L92.4392 127.373L90.2555 133.923H88.8385L86.1047 125.716ZM102.551 134.181C101.928 134.181 101.373 134.063 100.884 133.827C100.395 133.591 100.017 133.269 99.7503 132.861C99.4836 132.443 99.3502 131.971 99.3502 131.445C99.3502 130.576 99.6892 129.9 100.367 129.417C101.045 128.924 101.901 128.677 102.934 128.677C103.445 128.677 103.918 128.73 104.351 128.838C104.796 128.945 105.135 129.068 105.368 129.208V128.709C105.368 128.097 105.146 127.609 104.701 127.245C104.257 126.869 103.695 126.681 103.018 126.681C102.54 126.681 102.101 126.783 101.701 126.987C101.301 127.18 100.984 127.454 100.75 127.808L99.6836 127.035C100.017 126.542 100.473 126.156 101.051 125.877C101.64 125.598 102.29 125.458 103.001 125.458C104.157 125.458 105.062 125.753 105.718 126.343C106.385 126.923 106.718 127.717 106.718 128.725V133.923H105.368V132.748H105.301C105.057 133.145 104.69 133.483 104.201 133.762C103.712 134.041 103.162 134.181 102.551 134.181ZM102.684 132.974C103.162 132.974 103.607 132.856 104.018 132.62C104.429 132.384 104.757 132.067 105.001 131.67C105.246 131.273 105.368 130.839 105.368 130.367C105.101 130.195 104.773 130.055 104.384 129.948C103.996 129.841 103.584 129.787 103.151 129.787C102.373 129.787 101.784 129.943 101.384 130.254C100.995 130.565 100.8 130.967 100.8 131.461C100.8 131.912 100.978 132.276 101.334 132.555C101.69 132.834 102.14 132.974 102.684 132.974ZM108.689 125.716H110.04V126.923H110.106C110.34 126.515 110.712 126.172 111.223 125.893C111.734 125.603 112.279 125.458 112.857 125.458C113.879 125.458 114.657 125.748 115.191 126.327C115.735 126.896 116.007 127.674 116.007 128.661V133.923H114.591V128.87C114.591 128.108 114.402 127.556 114.024 127.212C113.646 126.869 113.129 126.697 112.473 126.697C112.018 126.697 111.607 126.821 111.24 127.068C110.884 127.314 110.606 127.642 110.406 128.049C110.206 128.446 110.106 128.865 110.106 129.304V133.923H108.689V125.716ZM120.878 134.052C120.533 134.052 120.211 133.998 119.911 133.891C119.622 133.784 119.378 133.639 119.178 133.456C118.955 133.253 118.789 133.017 118.677 132.748C118.566 132.48 118.511 132.153 118.511 131.767V126.955H117.027V125.716H118.511V123.398H119.928V125.716H121.995V126.955H119.928V131.429C119.928 131.879 120.017 132.212 120.194 132.427C120.406 132.663 120.711 132.781 121.111 132.781C121.433 132.781 121.745 132.689 122.045 132.507V133.843C121.878 133.918 121.706 133.971 121.528 134.004C121.361 134.036 121.145 134.052 120.878 134.052ZM123.716 125.716H125.066V127.035H125.133C125.299 126.585 125.622 126.215 126.1 125.925C126.577 125.625 127.078 125.474 127.6 125.474C127.989 125.474 128.322 125.528 128.6 125.635V127.116C128.244 126.944 127.844 126.858 127.4 126.858C126.989 126.858 126.611 126.971 126.266 127.196C125.922 127.422 125.644 127.727 125.433 128.114C125.233 128.489 125.133 128.897 125.133 129.337V133.923H123.716V125.716ZM132.358 134.181C131.735 134.181 131.18 134.063 130.691 133.827C130.202 133.591 129.824 133.269 129.557 132.861C129.291 132.443 129.157 131.971 129.157 131.445C129.157 130.576 129.496 129.9 130.174 129.417C130.852 128.924 131.708 128.677 132.741 128.677C133.252 128.677 133.725 128.73 134.158 128.838C134.603 128.945 134.942 129.068 135.175 129.208V128.709C135.175 128.097 134.953 127.609 134.508 127.245C134.064 126.869 133.502 126.681 132.824 126.681C132.347 126.681 131.908 126.783 131.508 126.987C131.108 127.18 130.791 127.454 130.557 127.808L129.491 127.035C129.824 126.542 130.28 126.156 130.857 125.877C131.446 125.598 132.097 125.458 132.808 125.458C133.964 125.458 134.869 125.753 135.525 126.343C136.192 126.923 136.525 127.717 136.525 128.725V133.923H135.175V132.748H135.108C134.864 133.145 134.497 133.483 134.008 133.762C133.519 134.041 132.969 134.181 132.358 134.181ZM132.491 132.974C132.969 132.974 133.413 132.856 133.825 132.62C134.236 132.384 134.564 132.067 134.808 131.67C135.053 131.273 135.175 130.839 135.175 130.367C134.908 130.195 134.58 130.055 134.191 129.948C133.802 129.841 133.391 129.787 132.958 129.787C132.18 129.787 131.591 129.943 131.191 130.254C130.802 130.565 130.607 130.967 130.607 131.461C130.607 131.912 130.785 132.276 131.141 132.555C131.496 132.834 131.947 132.974 132.491 132.974ZM142.333 134.181C141.5 134.181 140.75 133.988 140.083 133.601C139.416 133.215 138.894 132.689 138.516 132.024C138.149 131.359 137.966 130.624 137.966 129.819C137.966 129.015 138.149 128.28 138.516 127.615C138.894 126.95 139.416 126.424 140.083 126.038C140.75 125.651 141.5 125.458 142.333 125.458C143.167 125.458 143.917 125.651 144.584 126.038C145.25 126.424 145.767 126.95 146.134 127.615C146.512 128.28 146.701 129.015 146.701 129.819C146.701 130.624 146.512 131.359 146.134 132.024C145.767 132.689 145.25 133.215 144.584 133.601C143.917 133.988 143.167 134.181 142.333 134.181ZM142.333 132.941C142.856 132.941 143.339 132.818 143.783 132.571C144.239 132.314 144.6 131.949 144.867 131.477C145.145 131.005 145.284 130.452 145.284 129.819C145.284 129.186 145.145 128.634 144.867 128.162C144.6 127.69 144.239 127.33 143.783 127.084C143.339 126.826 142.856 126.697 142.333 126.697C141.811 126.697 141.322 126.826 140.866 127.084C140.411 127.33 140.044 127.69 139.766 128.162C139.499 128.634 139.366 129.186 139.366 129.819C139.366 130.452 139.499 131.005 139.766 131.477C140.044 131.949 140.411 132.314 140.866 132.571C141.322 132.818 141.811 132.941 142.333 132.941ZM157.779 134.181C156.623 134.181 155.573 133.918 154.629 133.392C153.684 132.866 152.939 132.148 152.395 131.236C151.861 130.313 151.595 129.288 151.595 128.162C151.595 127.035 151.861 126.016 152.395 125.104C152.939 124.182 153.684 123.457 154.629 122.932C155.573 122.406 156.623 122.143 157.779 122.143C158.668 122.143 159.479 122.309 160.213 122.642C160.958 122.964 161.602 123.425 162.147 124.026L161.13 124.975C160.674 124.45 160.174 124.064 159.629 123.817C159.096 123.57 158.479 123.447 157.779 123.447C156.912 123.447 156.118 123.645 155.395 124.042C154.673 124.428 154.095 124.981 153.662 125.7C153.239 126.408 153.028 127.228 153.028 128.162C153.028 129.095 153.239 129.921 153.662 130.64C154.095 131.348 154.673 131.901 155.395 132.298C156.118 132.684 156.912 132.877 157.779 132.877C159.224 132.877 160.452 132.303 161.463 131.155L162.497 132.121C161.941 132.754 161.258 133.258 160.446 133.634C159.635 133.998 158.746 134.181 157.779 134.181ZM164.087 122.401H165.504V125.796L165.437 126.923H165.504C165.738 126.504 166.104 126.156 166.604 125.877C167.116 125.598 167.671 125.458 168.271 125.458C169.305 125.458 170.094 125.753 170.638 126.343C171.183 126.923 171.455 127.695 171.455 128.661V133.923H170.038V128.87C170.038 128.13 169.844 127.583 169.455 127.228C169.066 126.874 168.56 126.697 167.938 126.697C167.493 126.697 167.082 126.826 166.704 127.084C166.338 127.341 166.043 127.674 165.821 128.081C165.61 128.489 165.504 128.913 165.504 129.353V133.923H164.087V122.401ZM176.133 134.181C175.51 134.181 174.955 134.063 174.466 133.827C173.977 133.591 173.599 133.269 173.332 132.861C173.065 132.443 172.932 131.971 172.932 131.445C172.932 130.576 173.271 129.9 173.949 129.417C174.627 128.924 175.482 128.677 176.516 128.677C177.027 128.677 177.499 128.73 177.933 128.838C178.377 128.945 178.716 129.068 178.95 129.208V128.709C178.95 128.097 178.727 127.609 178.283 127.245C177.838 126.869 177.277 126.681 176.599 126.681C176.121 126.681 175.682 126.783 175.282 126.987C174.882 127.18 174.566 127.454 174.332 127.808L173.265 127.035C173.599 126.542 174.054 126.156 174.632 125.877C175.221 125.598 175.871 125.458 176.583 125.458C177.738 125.458 178.644 125.753 179.3 126.343C179.967 126.923 180.3 127.717 180.3 128.725V133.923H178.95V132.748H178.883C178.639 133.145 178.272 133.483 177.783 133.762C177.294 134.041 176.744 134.181 176.133 134.181ZM176.266 132.974C176.744 132.974 177.188 132.856 177.599 132.62C178.011 132.384 178.339 132.067 178.583 131.67C178.827 131.273 178.95 130.839 178.95 130.367C178.683 130.195 178.355 130.055 177.966 129.948C177.577 129.841 177.166 129.787 176.733 129.787C175.955 129.787 175.366 129.943 174.966 130.254C174.577 130.565 174.382 130.967 174.382 131.461C174.382 131.912 174.56 132.276 174.916 132.555C175.271 132.834 175.721 132.974 176.266 132.974ZM181.175 125.716H182.692L185.326 132.314H185.359L188.026 125.716H189.51L186.043 133.923H184.609L181.175 125.716ZM193.226 134.181C192.604 134.181 192.048 134.063 191.559 133.827C191.07 133.591 190.692 133.269 190.425 132.861C190.159 132.443 190.025 131.971 190.025 131.445C190.025 130.576 190.364 129.9 191.042 129.417C191.72 128.924 192.576 128.677 193.609 128.677C194.121 128.677 194.593 128.73 195.026 128.838C195.471 128.945 195.81 129.068 196.043 129.208V128.709C196.043 128.097 195.821 127.609 195.376 127.245C194.932 126.869 194.371 126.681 193.693 126.681C193.215 126.681 192.776 126.783 192.376 126.987C191.976 127.18 191.659 127.454 191.426 127.808L190.359 127.035C190.692 126.542 191.148 126.156 191.726 125.877C192.315 125.598 192.965 125.458 193.676 125.458C194.832 125.458 195.738 125.753 196.393 126.343C197.06 126.923 197.393 127.717 197.393 128.725V133.923H196.043V132.748H195.977C195.732 133.145 195.365 133.483 194.876 133.762C194.387 134.041 193.837 134.181 193.226 134.181ZM193.359 132.974C193.837 132.974 194.282 132.856 194.693 132.62C195.104 132.384 195.432 132.067 195.676 131.67C195.921 131.273 196.043 130.839 196.043 130.367C195.776 130.195 195.449 130.055 195.06 129.948C194.671 129.841 194.26 129.787 193.826 129.787C193.048 129.787 192.459 129.943 192.059 130.254C191.67 130.565 191.476 130.967 191.476 131.461C191.476 131.912 191.654 132.276 192.009 132.555C192.365 132.834 192.815 132.974 193.359 132.974ZM199.365 125.716H200.715V126.923H200.782C201.015 126.515 201.387 126.172 201.898 125.893C202.41 125.603 202.954 125.458 203.532 125.458C204.554 125.458 205.332 125.748 205.866 126.327C206.41 126.896 206.683 127.674 206.683 128.661V133.923H205.266V128.87C205.266 128.108 205.077 127.556 204.699 127.212C204.321 126.869 203.804 126.697 203.149 126.697C202.693 126.697 202.282 126.821 201.915 127.068C201.559 127.314 201.282 127.642 201.082 128.049C200.882 128.446 200.782 128.865 200.782 129.304V133.923H199.365V125.716ZM218.142 134.181C216.986 134.181 215.936 133.918 214.991 133.392C214.047 132.866 213.302 132.148 212.757 131.236C212.224 130.313 211.957 129.288 211.957 128.162C211.957 127.035 212.224 126.016 212.757 125.104C213.302 124.182 214.047 123.457 214.991 122.932C215.936 122.406 216.986 122.143 218.142 122.143C219.031 122.143 219.842 122.309 220.576 122.642C221.32 122.964 221.965 123.425 222.509 124.026L221.492 124.975C221.037 124.45 220.537 124.064 219.992 123.817C219.459 123.57 218.842 123.447 218.142 123.447C217.275 123.447 216.48 123.645 215.758 124.042C215.036 124.428 214.458 124.981 214.024 125.7C213.602 126.408 213.391 127.228 213.391 128.162C213.391 129.095 213.602 129.921 214.024 130.64C214.458 131.348 215.036 131.901 215.758 132.298C216.48 132.684 217.275 132.877 218.142 132.877C219.586 132.877 220.814 132.303 221.826 131.155L222.859 132.121C222.304 132.754 221.62 133.258 220.809 133.634C219.998 133.998 219.109 134.181 218.142 134.181ZM228.205 134.181C227.371 134.181 226.621 133.988 225.954 133.601C225.288 133.215 224.765 132.689 224.387 132.024C224.021 131.359 223.837 130.624 223.837 129.819C223.837 129.015 224.021 128.28 224.387 127.615C224.765 126.95 225.288 126.424 225.954 126.038C226.621 125.651 227.371 125.458 228.205 125.458C229.038 125.458 229.788 125.651 230.455 126.038C231.122 126.424 231.639 126.95 232.005 127.615C232.383 128.28 232.572 129.015 232.572 129.819C232.572 130.624 232.383 131.359 232.005 132.024C231.639 132.689 231.122 133.215 230.455 133.601C229.788 133.988 229.038 134.181 228.205 134.181ZM228.205 132.941C228.727 132.941 229.21 132.818 229.655 132.571C230.111 132.314 230.472 131.949 230.739 131.477C231.016 131.005 231.155 130.452 231.155 129.819C231.155 129.186 231.016 128.634 230.739 128.162C230.472 127.69 230.111 127.33 229.655 127.084C229.21 126.826 228.727 126.697 228.205 126.697C227.682 126.697 227.193 126.826 226.738 127.084C226.282 127.33 225.915 127.69 225.638 128.162C225.371 128.634 225.238 129.186 225.238 129.819C225.238 130.452 225.371 131.005 225.638 131.477C225.915 131.949 226.282 132.314 226.738 132.571C227.193 132.818 227.682 132.941 228.205 132.941ZM234.136 122.401H235.553V133.923H234.136V122.401ZM237.652 122.401H239.069V133.923H237.652V122.401ZM244.872 134.181C244.06 134.181 243.333 133.993 242.688 133.617C242.043 133.242 241.538 132.727 241.171 132.072C240.815 131.407 240.638 130.662 240.638 129.836C240.638 129.042 240.804 128.312 241.138 127.647C241.482 126.982 241.966 126.451 242.588 126.054C243.21 125.657 243.933 125.458 244.755 125.458C245.589 125.458 246.311 125.641 246.922 126.005C247.533 126.359 248 126.853 248.322 127.486C248.656 128.119 248.822 128.843 248.822 129.659C248.822 129.819 248.806 129.959 248.772 130.077H242.055C242.088 130.699 242.243 131.225 242.521 131.654C242.799 132.083 243.149 132.405 243.571 132.62C244.005 132.834 244.455 132.941 244.922 132.941C246.011 132.941 246.85 132.448 247.439 131.461L248.639 132.024C248.272 132.689 247.772 133.215 247.139 133.601C246.516 133.988 245.761 134.181 244.872 134.181ZM247.322 128.95C247.3 128.607 247.2 128.264 247.022 127.92C246.844 127.577 246.561 127.287 246.172 127.051C245.794 126.815 245.316 126.697 244.738 126.697C244.072 126.697 243.505 126.907 243.038 127.325C242.582 127.733 242.282 128.275 242.138 128.95H247.322ZM254.296 137.657C253.296 137.657 252.468 137.431 251.812 136.981C251.167 136.53 250.734 135.988 250.512 135.355L251.795 134.824C251.984 135.296 252.295 135.677 252.729 135.967C253.173 136.267 253.696 136.418 254.296 136.418C255.174 136.418 255.852 136.171 256.329 135.677C256.818 135.184 257.063 134.486 257.063 133.585V132.668H256.996C256.718 133.086 256.324 133.43 255.813 133.698C255.313 133.955 254.74 134.084 254.096 134.084C253.362 134.084 252.69 133.902 252.079 133.537C251.479 133.172 251.001 132.663 250.645 132.008C250.289 131.354 250.112 130.608 250.112 129.771C250.112 128.945 250.289 128.205 250.645 127.55C251.001 126.885 251.479 126.37 252.079 126.005C252.69 125.641 253.362 125.458 254.096 125.458C254.74 125.458 255.313 125.592 255.813 125.861C256.324 126.118 256.718 126.461 256.996 126.891H257.063V125.716H258.413V133.601C258.413 134.921 258.035 135.924 257.28 136.611C256.524 137.308 255.529 137.657 254.296 137.657ZM254.296 132.845C254.807 132.845 255.268 132.722 255.679 132.475C256.102 132.228 256.435 131.874 256.68 131.413C256.935 130.951 257.063 130.404 257.063 129.771C257.063 129.127 256.935 128.575 256.68 128.114C256.435 127.652 256.102 127.304 255.679 127.068C255.268 126.821 254.807 126.697 254.296 126.697C253.784 126.697 253.318 126.821 252.895 127.068C252.473 127.314 252.134 127.668 251.879 128.13C251.634 128.591 251.512 129.138 251.512 129.771C251.512 130.404 251.634 130.957 251.879 131.429C252.134 131.89 252.473 132.244 252.895 132.491C253.318 132.727 253.784 132.845 254.296 132.845ZM264.211 134.181C263.4 134.181 262.672 133.993 262.028 133.617C261.383 133.242 260.878 132.727 260.511 132.072C260.155 131.407 259.977 130.662 259.977 129.836C259.977 129.042 260.144 128.312 260.477 127.647C260.822 126.982 261.305 126.451 261.928 126.054C262.55 125.657 263.272 125.458 264.095 125.458C264.928 125.458 265.651 125.641 266.262 126.005C266.873 126.359 267.34 126.853 267.662 127.486C267.995 128.119 268.162 128.843 268.162 129.659C268.162 129.819 268.145 129.959 268.112 130.077H261.394C261.428 130.699 261.583 131.225 261.861 131.654C262.139 132.083 262.489 132.405 262.911 132.62C263.345 132.834 263.795 132.941 264.261 132.941C265.35 132.941 266.19 132.448 266.779 131.461L267.979 132.024C267.612 132.689 267.112 133.215 266.478 133.601C265.856 133.988 265.101 134.181 264.211 134.181ZM266.662 128.95C266.64 128.607 266.54 128.264 266.362 127.92C266.184 127.577 265.901 127.287 265.512 127.051C265.134 126.815 264.656 126.697 264.078 126.697C263.411 126.697 262.845 126.907 262.378 127.325C261.922 127.733 261.622 128.275 261.478 128.95H266.662ZM277.613 134.181C276.779 134.181 276.029 133.988 275.362 133.601C274.695 133.215 274.173 132.689 273.795 132.024C273.428 131.359 273.245 130.624 273.245 129.819C273.245 129.015 273.428 128.28 273.795 127.615C274.173 126.95 274.695 126.424 275.362 126.038C276.029 125.651 276.779 125.458 277.613 125.458C278.446 125.458 279.196 125.651 279.863 126.038C280.53 126.424 281.047 126.95 281.413 127.615C281.791 128.28 281.98 129.015 281.98 129.819C281.98 130.624 281.791 131.359 281.413 132.024C281.047 132.689 280.53 133.215 279.863 133.601C279.196 133.988 278.446 134.181 277.613 134.181ZM277.613 132.941C278.135 132.941 278.618 132.818 279.063 132.571C279.518 132.314 279.88 131.949 280.146 131.477C280.424 131.005 280.563 130.452 280.563 129.819C280.563 129.186 280.424 128.634 280.146 128.162C279.88 127.69 279.518 127.33 279.063 127.084C278.618 126.826 278.135 126.697 277.613 126.697C277.09 126.697 276.601 126.826 276.146 127.084C275.69 127.33 275.323 127.69 275.045 128.162C274.779 128.634 274.645 129.186 274.645 129.819C274.645 130.452 274.779 131.005 275.045 131.477C275.323 131.949 275.69 132.314 276.146 132.571C276.601 132.818 277.09 132.941 277.613 132.941ZM284.364 126.955H282.797V125.716H284.364V124.831C284.364 124.316 284.486 123.865 284.731 123.479C284.975 123.093 285.303 122.798 285.714 122.594C286.125 122.379 286.581 122.272 287.081 122.272C287.559 122.272 287.976 122.336 288.331 122.465V123.801C288.131 123.726 287.942 123.667 287.764 123.624C287.587 123.57 287.375 123.543 287.131 123.543C286.764 123.543 286.448 123.672 286.181 123.929C285.914 124.176 285.781 124.525 285.781 124.975V125.716H287.964V126.955H285.781V133.923H284.364V126.955ZM293.854 122.401H300.756V123.704H295.255V127.518H300.222V128.806H295.255V132.62H300.756V133.923H293.854V122.401ZM302.589 125.716H303.94V126.923H304.006C304.24 126.515 304.612 126.172 305.123 125.893C305.634 125.603 306.179 125.458 306.757 125.458C307.779 125.458 308.557 125.748 309.091 126.327C309.635 126.896 309.907 127.674 309.907 128.661V133.923H308.491V128.87C308.491 128.108 308.302 127.556 307.924 127.212C307.546 126.869 307.029 126.697 306.373 126.697C305.918 126.697 305.507 126.821 305.14 127.068C304.784 127.314 304.506 127.642 304.306 128.049C304.106 128.446 304.006 128.865 304.006 129.304V133.923H302.589V125.716ZM315.586 137.657C314.586 137.657 313.758 137.431 313.103 136.981C312.458 136.53 312.024 135.988 311.802 135.355L313.086 134.824C313.275 135.296 313.586 135.677 314.019 135.967C314.464 136.267 314.986 136.418 315.586 136.418C316.464 136.418 317.142 136.171 317.62 135.677C318.109 135.184 318.353 134.486 318.353 133.585V132.668H318.287C318.009 133.086 317.614 133.43 317.103 133.698C316.603 133.955 316.031 134.084 315.386 134.084C314.653 134.084 313.98 133.902 313.369 133.537C312.769 133.172 312.291 132.663 311.936 132.008C311.58 131.354 311.402 130.608 311.402 129.771C311.402 128.945 311.58 128.205 311.936 127.55C312.291 126.885 312.769 126.37 313.369 126.005C313.98 125.641 314.653 125.458 315.386 125.458C316.031 125.458 316.603 125.592 317.103 125.861C317.614 126.118 318.009 126.461 318.287 126.891H318.353V125.716H319.704V133.601C319.704 134.921 319.326 135.924 318.57 136.611C317.814 137.308 316.82 137.657 315.586 137.657ZM315.586 132.845C316.097 132.845 316.559 132.722 316.97 132.475C317.392 132.228 317.726 131.874 317.97 131.413C318.226 130.951 318.353 130.404 318.353 129.771C318.353 129.127 318.226 128.575 317.97 128.114C317.726 127.652 317.392 127.304 316.97 127.068C316.559 126.821 316.097 126.697 315.586 126.697C315.075 126.697 314.608 126.821 314.186 127.068C313.764 127.314 313.425 127.668 313.169 128.13C312.925 128.591 312.802 129.138 312.802 129.771C312.802 130.404 312.925 130.957 313.169 131.429C313.425 131.89 313.764 132.244 314.186 132.491C314.608 132.727 315.075 132.845 315.586 132.845ZM322.633 124.203C322.356 124.203 322.117 124.106 321.917 123.913C321.717 123.72 321.617 123.49 321.617 123.221C321.617 122.953 321.717 122.728 321.917 122.545C322.117 122.352 322.356 122.256 322.633 122.256C322.911 122.256 323.15 122.352 323.35 122.545C323.55 122.728 323.65 122.953 323.65 123.221C323.65 123.49 323.55 123.72 323.35 123.913C323.161 124.106 322.922 124.203 322.633 124.203ZM321.933 125.716H323.334V133.923H321.933V125.716ZM325.56 125.716H326.911V126.923H326.977C327.211 126.515 327.583 126.172 328.094 125.893C328.605 125.603 329.15 125.458 329.728 125.458C330.75 125.458 331.528 125.748 332.062 126.327C332.606 126.896 332.878 127.674 332.878 128.661V133.923H331.461V128.87C331.461 128.108 331.273 127.556 330.895 127.212C330.517 126.869 330 126.697 329.344 126.697C328.889 126.697 328.478 126.821 328.111 127.068C327.755 127.314 327.477 127.642 327.277 128.049C327.077 128.446 326.977 128.865 326.977 129.304V133.923H325.56V125.716ZM338.688 134.181C337.876 134.181 337.149 133.993 336.504 133.617C335.859 133.242 335.354 132.727 334.987 132.072C334.631 131.407 334.454 130.662 334.454 129.836C334.454 129.042 334.62 128.312 334.954 127.647C335.298 126.982 335.782 126.451 336.404 126.054C337.026 125.657 337.749 125.458 338.571 125.458C339.405 125.458 340.127 125.641 340.738 126.005C341.349 126.359 341.816 126.853 342.138 127.486C342.472 128.119 342.638 128.843 342.638 129.659C342.638 129.819 342.622 129.959 342.588 130.077H335.871C335.904 130.699 336.059 131.225 336.337 131.654C336.615 132.083 336.965 132.405 337.388 132.62C337.821 132.834 338.271 132.941 338.738 132.941C339.827 132.941 340.666 132.448 341.255 131.461L342.455 132.024C342.088 132.689 341.588 133.215 340.955 133.601C340.333 133.988 339.577 134.181 338.688 134.181ZM341.138 128.95C341.116 128.607 341.016 128.264 340.838 127.92C340.66 127.577 340.377 127.287 339.988 127.051C339.61 126.815 339.132 126.697 338.554 126.697C337.888 126.697 337.321 126.907 336.854 127.325C336.398 127.733 336.098 128.275 335.954 128.95H341.138ZM348.162 134.181C347.35 134.181 346.623 133.993 345.978 133.617C345.333 133.242 344.828 132.727 344.461 132.072C344.105 131.407 343.928 130.662 343.928 129.836C343.928 129.042 344.094 128.312 344.428 127.647C344.772 126.982 345.256 126.451 345.878 126.054C346.5 125.657 347.223 125.458 348.045 125.458C348.879 125.458 349.601 125.641 350.212 126.005C350.823 126.359 351.29 126.853 351.612 127.486C351.946 128.119 352.112 128.843 352.112 129.659C352.112 129.819 352.096 129.959 352.062 130.077H345.345C345.378 130.699 345.533 131.225 345.811 131.654C346.089 132.083 346.439 132.405 346.861 132.62C347.295 132.834 347.745 132.941 348.212 132.941C349.301 132.941 350.14 132.448 350.729 131.461L351.929 132.024C351.562 132.689 351.062 133.215 350.429 133.601C349.807 133.988 349.051 134.181 348.162 134.181ZM350.612 128.95C350.59 128.607 350.49 128.264 350.312 127.92C350.134 127.577 349.851 127.287 349.462 127.051C349.084 126.815 348.606 126.697 348.028 126.697C347.362 126.697 346.795 126.907 346.328 127.325C345.872 127.733 345.572 128.275 345.428 128.95H350.612ZM353.771 125.716H355.121V127.035H355.188C355.355 126.585 355.677 126.215 356.155 125.925C356.633 125.625 357.133 125.474 357.655 125.474C358.044 125.474 358.378 125.528 358.655 125.635V127.116C358.3 126.944 357.9 126.858 357.455 126.858C357.044 126.858 356.666 126.971 356.322 127.196C355.977 127.422 355.699 127.727 355.488 128.114C355.288 128.489 355.188 128.897 355.188 129.337V133.923H353.771V125.716ZM360.856 124.203C360.578 124.203 360.339 124.106 360.139 123.913C359.939 123.72 359.839 123.49 359.839 123.221C359.839 122.953 359.939 122.728 360.139 122.545C360.339 122.352 360.578 122.256 360.856 122.256C361.134 122.256 361.373 122.352 361.573 122.545C361.773 122.728 361.873 122.953 361.873 123.221C361.873 123.49 361.773 123.72 361.573 123.913C361.384 124.106 361.145 124.203 360.856 124.203ZM360.156 125.716H361.556V133.923H360.156V125.716ZM363.783 125.716H365.133V126.923H365.2C365.433 126.515 365.805 126.172 366.316 125.893C366.828 125.603 367.372 125.458 367.95 125.458C368.973 125.458 369.75 125.748 370.284 126.327C370.828 126.896 371.101 127.674 371.101 128.661V133.923H369.684V128.87C369.684 128.108 369.495 127.556 369.117 127.212C368.739 126.869 368.222 126.697 367.567 126.697C367.111 126.697 366.7 126.821 366.333 127.068C365.978 127.314 365.7 127.642 365.5 128.049C365.3 128.446 365.2 128.865 365.2 129.304V133.923H363.783V125.716ZM376.78 137.657C375.779 137.657 374.951 137.431 374.296 136.981C373.651 136.53 373.218 135.988 372.996 135.355L374.279 134.824C374.468 135.296 374.779 135.677 375.213 135.967C375.657 136.267 376.18 136.418 376.78 136.418C377.658 136.418 378.335 136.171 378.813 135.677C379.302 135.184 379.547 134.486 379.547 133.585V132.668H379.48C379.202 133.086 378.808 133.43 378.297 133.698C377.796 133.955 377.224 134.084 376.579 134.084C375.846 134.084 375.174 133.902 374.562 133.537C373.962 133.172 373.485 132.663 373.129 132.008C372.773 131.354 372.595 130.608 372.595 129.771C372.595 128.945 372.773 128.205 373.129 127.55C373.485 126.885 373.962 126.37 374.562 126.005C375.174 125.641 375.846 125.458 376.579 125.458C377.224 125.458 377.796 125.592 378.297 125.861C378.808 126.118 379.202 126.461 379.48 126.891H379.547V125.716H380.897V133.601C380.897 134.921 380.519 135.924 379.764 136.611C379.008 137.308 378.013 137.657 376.78 137.657ZM376.78 132.845C377.291 132.845 377.752 132.722 378.163 132.475C378.585 132.228 378.919 131.874 379.163 131.413C379.419 130.951 379.547 130.404 379.547 129.771C379.547 129.127 379.419 128.575 379.163 128.114C378.919 127.652 378.585 127.304 378.163 127.068C377.752 126.821 377.291 126.697 376.78 126.697C376.268 126.697 375.802 126.821 375.379 127.068C374.957 127.314 374.618 127.668 374.362 128.13C374.118 128.591 373.996 129.138 373.996 129.771C373.996 130.404 374.118 130.957 374.362 131.429C374.618 131.89 374.957 132.244 375.379 132.491C375.802 132.727 376.268 132.845 376.78 132.845Z" />
    <defs>
        <linearGradient id="paint0_linear_701_2362" x1="425.199" y1="130.79" x2="8.67679" y2="130.79"
            gradientUnits="userSpaceOnUse">
            <stop stop-color="#348BCA" />
            <stop offset="0.404875" stop-color="#59A43A" />
            <stop offset="0.711571" stop-color="#F3B002" />
            <stop offset="1" stop-color="#DF572E" />
        </linearGradient>
    </defs>
</svg>