<svg width="428" height="167" viewBox="0 0 428 167" fill="none" xmlns="http://www.w3.org/2000/svg">
    <path
        d="M416.503 1.5625H10.8725C5.50203 1.5625 1.14844 5.76547 1.14844 10.9501V155.787C1.14844 160.972 5.50203 165.175 10.8725 165.175H416.503C421.874 165.175 426.228 160.972 426.228 155.787V10.9501C426.228 5.76547 421.874 1.5625 416.503 1.5625Z"
        fill="var(--background-color)" stroke="url(#paint0_linear_701_2364)" stroke-width="2" />
    <path
        d="M49.8892 103.674C48.3486 103.674 46.9289 103.316 45.6314 102.603C44.3326 101.888 43.2977 100.911 42.5281 99.6723C41.7724 98.4184 41.3945 97.0263 41.3945 95.4948C41.3945 93.9646 41.7724 92.5793 42.5281 91.3401C43.2977 90.0862 44.3326 89.1019 45.6314 88.3884C46.9289 87.6736 48.3486 87.3169 49.8892 87.3169C51.113 87.3169 52.2521 87.5274 53.3093 87.9499C54.3664 88.3736 55.2499 88.9637 55.9597 89.7215L54.1928 91.4273C53.6649 90.8587 53.03 90.4215 52.291 90.1157C51.5659 89.81 50.7574 89.6557 49.8669 89.6557C48.8251 89.6557 47.8513 89.8972 46.9442 90.3773C46.0384 90.8587 45.3133 91.544 44.7701 92.4331C44.227 93.3223 43.9548 94.3428 43.9548 95.4948C43.9548 96.6468 44.227 97.6674 44.7701 98.5565C45.3133 99.4457 46.0384 100.131 46.9442 100.612C47.8513 101.093 48.832 101.334 49.8892 101.334C50.856 101.334 51.6631 101.196 52.3132 100.918C52.9619 100.641 53.544 100.269 54.0566 99.8024C54.39 99.4819 54.6692 99.0809 54.8956 98.6008C55.1374 98.1193 55.2958 97.5936 55.3708 97.0263H49.8669V94.8391H57.7726C57.8476 95.2467 57.8851 95.6705 57.8851 96.1077C57.8851 97.0988 57.7267 98.0536 57.41 98.9723C57.0919 99.8762 56.5863 100.663 55.8917 101.334C54.3664 102.894 52.366 103.674 49.8892 103.674ZM65.7088 103.674C64.546 103.674 63.5042 103.418 62.5832 102.908C61.6622 102.383 60.9454 101.669 60.4315 100.765C59.9175 99.8614 59.6619 98.8556 59.6619 97.7478C59.6619 96.6388 59.9175 95.633 60.4315 94.7291C60.9454 93.8252 61.6622 93.1184 62.5832 92.6088C63.5042 92.0831 64.546 91.8216 65.7088 91.8216C66.8715 91.8216 67.9134 92.0831 68.8358 92.6088C69.7568 93.1332 70.4736 93.848 70.9876 94.7519C71.5002 95.6558 71.7571 96.6535 71.7571 97.7478C71.7571 98.8556 71.5002 99.8614 70.9876 100.765C70.4736 101.669 69.7568 102.383 68.8358 102.908C67.9134 103.418 66.8715 103.674 65.7088 103.674ZM65.7088 101.465C66.3436 101.465 66.9326 101.319 67.4758 101.028C68.0204 100.721 68.4496 100.292 68.7677 99.7367C69.0997 99.168 69.265 98.5055 69.265 97.7478C69.265 96.9888 69.0997 96.333 68.7677 95.7791C68.4496 95.2253 68.0204 94.8029 67.4758 94.5105C66.9326 94.2047 66.3436 94.0518 65.7088 94.0518C65.0753 94.0518 64.4864 94.2047 63.9418 94.5105C63.3986 94.8029 62.9611 95.2253 62.6291 95.7791C62.3109 96.333 62.1525 96.9888 62.1525 97.7478C62.1525 98.5055 62.3109 99.168 62.6291 99.7367C62.9611 100.292 63.3986 100.721 63.9418 101.028C64.4864 101.319 65.0753 101.465 65.7088 101.465ZM79.4683 103.674C78.3056 103.674 77.2637 103.418 76.3427 102.908C75.4217 102.383 74.7035 101.669 74.1909 100.765C73.6769 99.8614 73.42 98.8556 73.42 97.7478C73.42 96.6388 73.6769 95.633 74.1909 94.7291C74.7035 93.8252 75.4217 93.1184 76.3427 92.6088C77.2637 92.0831 78.3056 91.8216 79.4683 91.8216C80.631 91.8216 81.6729 92.0831 82.5939 92.6088C83.5149 93.1332 84.2331 93.848 84.7457 94.7519C85.2597 95.6558 85.5167 96.6535 85.5167 97.7478C85.5167 98.8556 85.2597 99.8614 84.7457 100.765C84.2331 101.669 83.5149 102.383 82.5939 102.908C81.6729 103.418 80.631 103.674 79.4683 103.674ZM79.4683 101.465C80.1031 101.465 80.6907 101.319 81.2353 101.028C81.7784 100.721 82.2091 100.292 82.5258 99.7367C82.8578 99.168 83.0245 98.5055 83.0245 97.7478C83.0245 96.9888 82.8578 96.333 82.5258 95.7791C82.2091 95.2253 81.7784 94.8029 81.2353 94.5105C80.6907 94.2047 80.1031 94.0518 79.4683 94.0518C78.8335 94.0518 78.2444 94.2047 77.7013 94.5105C77.1581 94.8029 76.7192 95.2253 76.3872 95.7791C76.0704 96.333 75.9121 96.9888 75.9121 97.7478C75.9121 98.5055 76.0704 99.168 76.3872 99.7367C76.7192 100.292 77.1581 100.721 77.7013 101.028C78.2444 101.319 78.8335 101.465 79.4683 101.465ZM93.0236 108.397C91.6039 108.397 90.4259 108.084 89.4896 107.456C88.5686 106.83 87.9491 106.087 87.6323 105.226L89.9661 104.286C90.2064 104.869 90.5926 105.336 91.1205 105.686C91.6636 106.049 92.2985 106.232 93.0236 106.232C94.0807 106.232 94.9031 105.926 95.4921 105.313C96.0964 104.716 96.3979 103.87 96.3979 102.777V101.75H96.2631C95.8852 102.274 95.3796 102.69 94.7448 102.996C94.1252 103.287 93.4084 103.433 92.593 103.433C91.6261 103.433 90.7287 103.193 89.898 102.711C89.0673 102.23 88.4019 101.553 87.9046 100.678C87.4212 99.7877 87.1795 98.7751 87.1795 97.6379C87.1795 96.5007 87.4212 95.4949 87.9046 94.6205C88.4019 93.7313 89.0673 93.046 89.898 92.5646C90.7287 92.0684 91.6261 91.8216 92.593 91.8216C93.3931 91.8216 94.1113 91.9745 94.7448 92.2802C95.3796 92.586 95.8852 93.0018 96.2631 93.5275H96.3979V92.1716H98.7775V102.711C98.7775 103.921 98.5357 104.949 98.0523 105.794C97.5689 106.655 96.8896 107.303 96.013 107.74C95.1531 108.179 94.1558 108.397 93.0236 108.397ZM93.0458 101.247C93.6501 101.247 94.2086 101.107 94.7226 100.831C95.2352 100.539 95.6436 100.124 95.945 99.5838C96.2478 99.0299 96.3979 98.3809 96.3979 97.6379C96.3979 96.5007 96.0742 95.6182 95.4241 94.9919C94.7906 94.3509 93.9974 94.0304 93.0458 94.0304C92.4263 94.0304 91.8609 94.1752 91.3469 94.4676C90.8343 94.7438 90.4259 95.1528 90.1245 95.692C89.8217 96.2311 89.6716 96.8802 89.6716 97.6379C89.6716 98.3956 89.8217 99.0447 90.1245 99.5838C90.4259 100.124 90.8343 100.539 91.3469 100.831C91.8609 101.107 92.4263 101.247 93.0458 101.247ZM101.706 87.6669H104.197V103.324H101.706V87.6669ZM112.292 103.674C111.159 103.674 110.141 103.418 109.234 102.908C108.343 102.397 107.642 101.699 107.128 100.808C106.629 99.9043 106.38 98.8918 106.38 97.7693C106.38 96.7045 106.622 95.7215 107.105 94.8176C107.603 93.8989 108.29 93.1694 109.165 92.6303C110.042 92.0912 111.038 91.8216 112.156 91.8216C113.319 91.8216 114.323 92.0684 115.169 92.5646C116.029 93.0608 116.679 93.738 117.117 94.599C117.57 95.4586 117.796 96.4282 117.796 97.5064C117.796 97.7103 117.774 97.9665 117.728 98.2722H108.871C108.963 99.3075 109.339 100.11 110.005 100.678C110.684 101.232 111.469 101.508 112.361 101.508C113.07 101.508 113.682 101.355 114.194 101.05C114.723 100.729 115.146 100.299 115.464 99.7595L117.57 100.721C117.027 101.64 116.317 102.361 115.44 102.887C114.565 103.411 113.515 103.674 112.292 103.674ZM115.26 96.4349C115.229 96.042 115.101 95.6558 114.875 95.2762C114.648 94.8833 114.3 94.5547 113.832 94.2919C113.379 94.0304 112.82 93.8989 112.156 93.8989C111.356 93.8989 110.677 94.1323 110.117 94.599C109.574 95.0509 109.196 95.6625 108.985 96.4349H115.26ZM125.782 87.6669H130.97C132.645 87.6669 134.11 87.9941 135.363 88.6499C136.616 89.3057 137.576 90.2324 138.24 91.4273C138.92 92.6088 139.26 93.9646 139.26 95.4948C139.26 97.0263 138.92 98.3889 138.24 99.5838C137.576 100.765 136.616 101.684 135.363 102.34C134.11 102.996 132.645 103.324 130.97 103.324H125.782V87.6669ZM130.924 100.984C132.737 100.984 134.148 100.502 135.159 99.5409C136.187 98.5632 136.7 97.2154 136.7 95.4948C136.7 93.789 136.187 92.4479 135.159 91.4716C134.148 90.4939 132.737 90.0058 130.924 90.0058H128.319V100.984H130.924ZM146.689 103.674C145.557 103.674 144.537 103.418 143.632 102.908C142.741 102.397 142.038 101.699 141.524 100.808C141.027 99.9043 140.777 98.8918 140.777 97.7693C140.777 96.7045 141.019 95.7215 141.502 94.8176C142.001 93.8989 142.688 93.1694 143.564 92.6303C144.44 92.0912 145.436 91.8216 146.553 91.8216C147.716 91.8216 148.72 92.0684 149.566 92.5646C150.427 93.0608 151.076 93.738 151.514 94.599C151.968 95.4586 152.194 96.4282 152.194 97.5064C152.194 97.7103 152.171 97.9665 152.126 98.2722H143.269C143.359 99.3075 143.737 100.11 144.401 100.678C145.082 101.232 145.867 101.508 146.757 101.508C147.467 101.508 148.078 101.355 148.592 101.05C149.12 100.729 149.544 100.299 149.861 99.7595L151.968 100.721C151.423 101.64 150.713 102.361 149.838 102.887C148.962 103.411 147.913 103.674 146.689 103.674ZM149.656 96.4349C149.627 96.042 149.498 95.6558 149.272 95.2762C149.045 94.8833 148.698 94.5547 148.23 94.2919C147.777 94.0304 147.218 93.8989 146.553 93.8989C145.753 93.8989 145.074 94.1323 144.515 94.599C143.972 95.0509 143.594 95.6625 143.383 96.4349H149.656ZM152.95 92.1716H155.737L158.93 100.218H159.021L162.282 92.1716H165.001L160.199 103.324H157.708L152.95 92.1716ZM171.553 103.674C170.42 103.674 169.402 103.418 168.495 102.908C167.604 102.397 166.903 101.699 166.389 100.808C165.89 99.9043 165.641 98.8918 165.641 97.7693C165.641 96.7045 165.883 95.7215 166.366 94.8176C166.864 93.8989 167.551 93.1694 168.427 92.6303C169.303 92.0912 170.299 91.8216 171.417 91.8216C172.58 91.8216 173.584 92.0684 174.43 92.5646C175.29 93.0608 175.94 93.738 176.378 94.599C176.831 95.4586 177.057 96.4282 177.057 97.5064C177.057 97.7103 177.035 97.9665 176.989 98.2722H168.132C168.224 99.3075 168.6 100.11 169.266 100.678C169.945 101.232 170.73 101.508 171.622 101.508C172.331 101.508 172.943 101.355 173.455 101.05C173.985 100.729 174.407 100.299 174.725 99.7595L176.831 100.721C176.288 101.64 175.578 102.361 174.701 102.887C173.826 103.411 172.776 103.674 171.553 103.674ZM174.521 96.4349C174.49 96.042 174.362 95.6558 174.136 95.2762C173.91 94.8833 173.561 94.5547 173.093 94.2919C172.64 94.0304 172.081 93.8989 171.417 93.8989C170.617 93.8989 169.938 94.1323 169.378 94.599C168.835 95.0509 168.457 95.6625 168.246 96.4349H174.521ZM179.326 87.6669H181.818V103.324H179.326V87.6669ZM190.049 103.674C188.886 103.674 187.844 103.418 186.923 102.908C186.002 102.383 185.285 101.669 184.771 100.765C184.257 99.8614 184.002 98.8556 184.002 97.7478C184.002 96.6388 184.257 95.633 184.771 94.7291C185.285 93.8252 186.002 93.1184 186.923 92.6088C187.844 92.0831 188.886 91.8216 190.049 91.8216C191.211 91.8216 192.253 92.0831 193.176 92.6088C194.097 93.1332 194.813 93.848 195.327 94.7519C195.84 95.6558 196.097 96.6535 196.097 97.7478C196.097 98.8556 195.84 99.8614 195.327 100.765C194.813 101.669 194.097 102.383 193.176 102.908C192.253 103.418 191.211 103.674 190.049 103.674ZM190.049 101.465C190.683 101.465 191.272 101.319 191.816 101.028C192.36 100.721 192.789 100.292 193.107 99.7367C193.439 99.168 193.605 98.5055 193.605 97.7478C193.605 96.9888 193.439 96.333 193.107 95.7791C192.789 95.2253 192.36 94.8029 191.816 94.5105C191.272 94.2047 190.683 94.0518 190.049 94.0518C189.415 94.0518 188.826 94.2047 188.282 94.5105C187.738 94.8029 187.301 95.2253 186.969 95.7791C186.651 96.333 186.492 96.9888 186.492 97.7478C186.492 98.5055 186.651 99.168 186.969 99.7367C187.301 100.292 187.738 100.721 188.282 101.028C188.826 101.319 189.415 101.465 190.049 101.465ZM198.193 92.1716H200.571V93.6361H200.685C201.017 93.1265 201.508 92.696 202.158 92.346C202.807 91.9959 203.539 91.8216 204.354 91.8216C205.396 91.8216 206.34 92.0764 207.185 92.586C208.031 93.097 208.697 93.8037 209.179 94.7076C209.677 95.5967 209.927 96.6106 209.927 97.7478C209.927 98.8851 209.677 99.9043 209.179 100.808C208.697 101.699 208.031 102.397 207.185 102.908C206.34 103.418 205.396 103.674 204.354 103.674C203.539 103.674 202.807 103.498 202.158 103.148C201.508 102.798 201.017 102.376 200.685 101.88H200.571L200.685 103.433V108.047H198.193V92.1716ZM203.991 101.465C204.596 101.465 205.162 101.311 205.69 101.005C206.22 100.7 206.642 100.262 206.959 99.6938C207.277 99.1252 207.435 98.476 207.435 97.7478C207.435 97.0183 207.277 96.3772 206.959 95.8234C206.642 95.2548 206.22 94.8176 205.69 94.5105C205.162 94.2047 204.596 94.0518 203.991 94.0518C203.389 94.0518 202.822 94.2047 202.293 94.5105C201.78 94.8176 201.365 95.2548 201.048 95.8234C200.73 96.3772 200.571 97.0183 200.571 97.7478C200.571 98.476 200.73 99.1252 201.048 99.6938C201.365 100.262 201.78 100.7 202.293 101.005C202.822 101.311 203.389 101.465 203.991 101.465ZM217.476 103.674C216.342 103.674 215.324 103.418 214.417 102.908C213.527 102.397 212.824 101.699 212.311 100.808C211.812 99.9043 211.564 98.8918 211.564 97.7693C211.564 96.7045 211.805 95.7215 212.289 94.8176C212.786 93.8989 213.474 93.1694 214.349 92.6303C215.226 92.0912 216.222 91.8216 217.34 91.8216C218.503 91.8216 219.507 92.0684 220.351 92.5646C221.213 93.0608 221.863 93.738 222.3 94.599C222.753 95.4586 222.98 96.4282 222.98 97.5064C222.98 97.7103 222.958 97.9665 222.912 98.2722H214.054C214.146 99.3075 214.523 100.11 215.188 100.678C215.867 101.232 216.652 101.508 217.544 101.508C218.252 101.508 218.865 101.355 219.378 101.05C219.907 100.729 220.329 100.299 220.646 99.7595L222.753 100.721C222.21 101.64 221.5 102.361 220.624 102.887C219.749 103.411 218.698 103.674 217.476 103.674ZM220.443 96.4349C220.413 96.042 220.285 95.6558 220.058 95.2762C219.831 94.8833 219.483 94.5547 219.015 94.2919C218.562 94.0304 218.004 93.8989 217.34 93.8989C216.54 93.8989 215.859 94.1323 215.301 94.599C214.757 95.0509 214.38 95.6625 214.168 96.4349H220.443ZM225.248 92.1716H227.628V93.8118H227.74C227.997 93.2431 228.443 92.7765 229.077 92.4117C229.712 92.0322 230.382 91.8431 231.092 91.8431C231.652 91.8431 232.12 91.9155 232.497 92.0616V94.5547C231.833 94.3214 231.237 94.2047 230.708 94.2047C230.134 94.2047 229.62 94.3509 229.167 94.6419C228.729 94.9343 228.382 95.3272 228.125 95.8234C227.868 96.3035 227.74 96.8359 227.74 97.4193V103.324H225.248V92.1716ZM244.127 103.674C242.782 103.674 241.575 103.295 240.502 102.537C239.43 101.778 238.69 100.714 238.283 99.3437L240.683 98.4036C240.925 99.2633 241.348 99.97 241.951 100.524C242.571 101.064 243.311 101.334 244.171 101.334C244.973 101.334 245.652 101.137 246.21 100.744C246.769 100.335 247.048 99.7809 247.048 99.0809C247.048 98.4399 246.799 97.9155 246.301 97.5064C245.817 97.084 244.964 96.6616 243.742 96.2378L242.722 95.8891C241.635 95.5243 240.72 94.9986 239.981 94.3147C239.241 93.6294 238.872 92.7255 238.872 91.603C238.872 90.8292 239.09 90.1157 239.529 89.4599C239.966 88.8028 240.57 88.2865 241.34 87.907C242.125 87.5127 243.008 87.3169 243.991 87.3169C245.41 87.3169 246.542 87.6522 247.388 88.3227C248.234 88.9785 248.8 89.7215 249.087 90.5529L246.799 91.4931C246.633 90.9969 246.316 90.5596 245.848 90.1814C245.38 89.8019 244.775 89.6128 244.036 89.6128C243.296 89.6128 242.669 89.7952 242.155 90.1586C241.657 90.5234 241.408 90.9901 241.408 91.5587C241.408 92.0979 241.635 92.5431 242.087 92.8931C242.54 93.2431 243.25 93.5784 244.217 93.8989L245.237 94.2262C246.626 94.6929 247.698 95.3057 248.453 96.0635C249.223 96.8064 249.608 97.8055 249.608 99.0595C249.608 100.08 249.336 100.94 248.793 101.64C248.25 102.325 247.554 102.835 246.709 103.17C245.878 103.506 245.017 103.674 244.127 103.674ZM256.262 103.498C255.748 103.498 255.265 103.418 254.812 103.258C254.359 103.097 253.99 102.887 253.702 102.624C253.053 101.996 252.728 101.143 252.728 100.065V94.2919H250.713V92.1716H252.728V89.0214H255.22V92.1716H258.029V94.2919H255.22V99.5409C255.22 100.138 255.341 100.561 255.583 100.808C255.809 101.101 256.201 101.247 256.761 101.247C257.017 101.247 257.243 101.217 257.44 101.158C257.636 101.086 257.847 100.976 258.074 100.831V103.17C257.576 103.39 256.972 103.498 256.262 103.498ZM264.611 103.674C263.207 103.674 262.136 103.273 261.395 102.471C260.67 101.654 260.307 100.524 260.307 99.0809V92.1716H262.8V98.7536C262.8 99.6575 263.018 100.335 263.457 100.787C263.91 101.239 264.499 101.465 265.224 101.465C265.813 101.465 266.334 101.319 266.786 101.028C267.239 100.721 267.587 100.32 267.828 99.8252C268.07 99.329 268.191 98.7966 268.191 98.2279V92.1716H270.682V103.324H268.327V101.88H268.191C267.873 102.405 267.382 102.835 266.718 103.17C266.053 103.506 265.352 103.674 264.611 103.674ZM278.409 103.674C277.368 103.674 276.424 103.418 275.578 102.908C274.732 102.397 274.06 101.699 273.563 100.808C273.079 99.9043 272.838 98.8851 272.838 97.7478C272.838 96.6106 273.079 95.5967 273.563 94.7076C274.06 93.8037 274.732 93.097 275.578 92.586C276.424 92.0764 277.368 91.8216 278.409 91.8216C279.225 91.8216 279.957 91.9959 280.607 92.346C281.256 92.696 281.748 93.1265 282.08 93.6361H282.192L282.08 92.0616V87.6669H284.57V103.324H282.192V101.88H282.08C281.748 102.376 281.256 102.798 280.607 103.148C279.957 103.498 279.225 103.674 278.409 103.674ZM278.772 101.465C279.376 101.465 279.935 101.311 280.449 101.005C280.977 100.7 281.4 100.262 281.717 99.6938C282.034 99.1252 282.192 98.476 282.192 97.7478C282.192 97.0183 282.034 96.3772 281.717 95.8234C281.4 95.2548 280.977 94.8176 280.449 94.5105C279.935 94.2047 279.376 94.0518 278.772 94.0518C278.168 94.0518 277.602 94.2047 277.073 94.5105C276.545 94.8176 276.122 95.2548 275.805 95.8234C275.488 96.3772 275.33 97.0183 275.33 97.7478C275.33 98.476 275.488 99.1252 275.805 99.6938C276.122 100.262 276.545 100.7 277.073 101.005C277.602 101.311 278.168 101.465 278.772 101.465ZM292.641 103.674C291.509 103.674 290.49 103.418 289.584 102.908C288.692 102.397 287.99 101.699 287.476 100.808C286.978 99.9043 286.729 98.8918 286.729 97.7693C286.729 96.7045 286.971 95.7215 287.454 94.8176C287.953 93.8989 288.639 93.1694 289.516 92.6303C290.391 92.0912 291.388 91.8216 292.505 91.8216C293.668 91.8216 294.672 92.0684 295.518 92.5646C296.378 93.0608 297.028 93.738 297.466 94.599C297.919 95.4586 298.145 96.4282 298.145 97.5064C298.145 97.7103 298.123 97.9665 298.077 98.2722H289.221C289.312 99.3075 289.689 100.11 290.353 100.678C291.033 101.232 291.818 101.508 292.709 101.508C293.419 101.508 294.03 101.355 294.544 101.05C295.072 100.729 295.495 100.299 295.813 99.7595L297.919 100.721C297.376 101.64 296.666 102.361 295.789 102.887C294.914 103.411 293.864 103.674 292.641 103.674ZM295.608 96.4349C295.578 96.042 295.45 95.6558 295.224 95.2762C294.997 94.8833 294.65 94.5547 294.182 94.2919C293.729 94.0304 293.169 93.8989 292.505 93.8989C291.705 93.8989 291.026 94.1323 290.467 94.599C289.923 95.0509 289.545 95.6625 289.334 96.4349H295.608ZM300.415 92.1716H302.793V93.6361H302.906C303.238 93.1117 303.729 92.6812 304.378 92.346C305.044 91.9959 305.745 91.8216 306.486 91.8216C307.89 91.8216 308.954 92.2226 309.679 93.0232C310.418 93.8118 310.789 94.89 310.789 96.2606V103.324H308.297V96.5878C308.297 95.7134 308.071 95.0724 307.618 94.6634C307.18 94.2557 306.568 94.0518 305.783 94.0518C305.224 94.0518 304.725 94.2047 304.288 94.5105C303.85 94.8029 303.51 95.1958 303.268 95.692C303.027 96.1868 302.906 96.7192 302.906 97.2879V103.324H300.415V92.1716ZM317.757 103.498C317.245 103.498 316.761 103.418 316.308 103.258C315.855 103.097 315.484 102.887 315.198 102.624C314.548 101.996 314.223 101.143 314.223 100.065V94.2919H312.207V92.1716H314.223V89.0214H316.715V92.1716H319.524V94.2919H316.715V99.5409C316.715 100.138 316.836 100.561 317.078 100.808C317.304 101.101 317.697 101.247 318.256 101.247C318.513 101.247 318.739 101.217 318.935 101.158C319.131 101.086 319.343 100.976 319.57 100.831V103.17C319.071 103.39 318.467 103.498 317.757 103.498ZM334.824 103.674C333.253 103.674 331.819 103.316 330.521 102.603C329.222 101.888 328.202 100.903 327.462 99.6495C326.723 98.3956 326.352 97.0116 326.352 95.4948C326.352 93.9794 326.723 92.5941 327.462 91.3401C328.202 90.0862 329.222 89.1019 330.521 88.3884C331.819 87.6736 333.253 87.3169 334.824 87.3169C336.047 87.3169 337.157 87.5355 338.154 87.9727C339.165 88.4099 340.057 89.0442 340.827 89.8744L339.015 91.5587C338.455 90.9177 337.837 90.443 337.156 90.1372C336.477 89.8167 335.699 89.6557 334.824 89.6557C333.736 89.6557 332.74 89.8972 331.835 90.3773C330.943 90.8587 330.233 91.544 329.705 92.4331C329.176 93.3075 328.912 94.3281 328.912 95.4948C328.912 96.6616 329.176 97.6889 329.705 98.578C330.233 99.4524 330.943 100.131 331.835 100.612C332.74 101.093 333.736 101.334 334.824 101.334C336.636 101.334 338.176 100.604 339.444 99.1466L341.28 100.852C340.495 101.742 339.55 102.435 338.448 102.93C337.345 103.426 336.138 103.674 334.824 103.674ZM343.483 87.6669H345.975V103.324H343.483V87.6669ZM353.116 103.674C351.712 103.674 350.64 103.273 349.899 102.471C349.174 101.654 348.813 100.524 348.813 99.0809V92.1716H351.304V98.7536C351.304 99.6575 351.523 100.335 351.961 100.787C352.414 101.239 353.003 101.465 353.728 101.465C354.317 101.465 354.838 101.319 355.29 101.028C355.743 100.721 356.091 100.32 356.332 99.8252C356.574 99.329 356.695 98.7966 356.695 98.2279V92.1716H359.187V103.324H356.831V101.88H356.695C356.378 102.405 355.886 102.835 355.222 103.17C354.558 103.506 353.855 103.674 353.116 103.674ZM368.248 103.674C367.433 103.674 366.7 103.498 366.051 103.148C365.401 102.798 364.91 102.376 364.578 101.88H364.466V103.324H362.086V87.6669H364.578V92.0616L364.466 93.6361H364.578C364.91 93.1265 365.401 92.696 366.051 92.346C366.7 91.9959 367.433 91.8216 368.248 91.8216C369.29 91.8216 370.234 92.0764 371.08 92.586C371.926 93.097 372.59 93.8037 373.073 94.7076C373.572 95.5967 373.82 96.6106 373.82 97.7478C373.82 98.8851 373.572 99.9043 373.073 100.808C372.59 101.699 371.926 102.397 371.08 102.908C370.234 103.418 369.29 103.674 368.248 103.674ZM367.886 101.465C368.49 101.465 369.055 101.311 369.585 101.005C370.113 100.7 370.536 100.262 370.853 99.6938C371.17 99.1252 371.328 98.476 371.328 97.7478C371.328 97.0183 371.17 96.3772 370.853 95.8234C370.536 95.2548 370.113 94.8176 369.585 94.5105C369.055 94.2047 368.49 94.0518 367.886 94.0518C367.282 94.0518 366.715 94.2047 366.187 94.5105C365.673 94.8176 365.258 95.2548 364.941 95.8234C364.624 96.3772 364.466 97.0183 364.466 97.7478C364.466 98.476 364.624 99.1252 364.941 99.6938C365.258 100.262 365.673 100.7 366.187 101.005C366.715 101.311 367.282 101.465 367.886 101.465ZM380.191 103.674C378.863 103.674 377.775 103.396 376.929 102.843C376.085 102.274 375.487 101.553 375.14 100.678L377.36 99.7367C377.632 100.32 378.01 100.765 378.493 101.071C378.991 101.377 379.557 101.531 380.191 101.531C380.81 101.531 381.331 101.428 381.755 101.224C382.177 101.005 382.389 100.685 382.389 100.262C382.389 99.8533 382.208 99.5328 381.845 99.2995C381.483 99.0661 380.924 98.8623 380.169 98.688L378.786 98.3594C377.865 98.1408 377.103 97.7546 376.5 97.2007C375.896 96.6468 375.593 95.9468 375.593 95.1019C375.593 94.4448 375.79 93.8694 376.182 93.3732C376.59 92.8784 377.133 92.4988 377.813 92.236C378.493 91.9597 379.232 91.8216 380.033 91.8216C381.105 91.8216 382.05 92.0322 382.865 92.4559C383.68 92.8636 384.269 93.4618 384.631 94.249L382.457 95.1663C382.019 94.3066 381.219 93.8761 380.056 93.8761C379.496 93.8761 379.028 93.9861 378.652 94.2047C378.274 94.4233 378.085 94.7076 378.085 95.0576C378.085 95.3929 378.228 95.6705 378.516 95.8891C378.802 96.093 379.225 96.2673 379.784 96.4135L381.483 96.8292C382.615 97.1055 383.468 97.5293 384.042 98.0965C384.631 98.6517 384.925 99.3371 384.925 100.152C384.925 100.852 384.714 101.472 384.292 102.011C383.883 102.537 383.318 102.945 382.593 103.236C381.868 103.528 381.067 103.674 380.191 103.674Z" />
    <path
        d="M221.609 53.1798L240.247 42.7914C242.844 41.3436 246.166 42.2028 247.666 44.7105C249.165 47.2182 248.275 50.4248 245.678 51.8726L227.04 62.2609C224.442 63.7087 221.121 62.8495 219.621 60.3419C218.121 57.8342 219.011 54.6276 221.609 53.1798Z"
        fill="#FBBC04" />
    <path
        d="M208.373 41.4277L189.735 51.816C187.137 53.2638 183.816 52.4046 182.316 49.8969C180.816 47.3892 181.706 44.1827 184.304 42.7348L202.942 32.3465C205.539 30.8987 208.861 31.7579 210.36 34.2656C211.86 36.7733 210.97 39.9798 208.373 41.4277Z"
        fill="#EA4335" />
    <path
        d="M207.915 53.1783L189.276 42.7899C186.679 41.3421 183.357 42.2014 181.858 44.7091C180.358 47.2167 181.248 50.4233 183.846 51.8711L202.484 62.2595C205.081 63.7073 208.403 62.8481 209.902 60.3404C211.402 57.8327 210.512 54.6261 207.915 53.1783Z"
        fill="#4285F4" />
    <path
        d="M221.292 41.2513L240.562 51.9924C242.985 53.3428 246.083 52.5414 247.482 50.2024L247.847 49.5914C249.246 47.2524 248.416 44.2617 245.993 42.9113L226.722 32.1701C224.3 30.8197 221.202 31.6211 219.803 33.9601L219.437 34.5711C218.039 36.9101 218.869 39.9009 221.292 41.2513Z"
        fill="#0F9D58" />
    <path
        d="M55.8525 132.723C54.7301 132.723 53.6965 132.46 52.7518 131.935C51.8072 131.409 51.0571 130.685 50.5014 129.762C49.9458 128.839 49.668 127.82 49.668 126.704C49.668 125.589 49.9458 124.569 50.5014 123.647C51.0571 122.724 51.8072 122 52.7518 121.474C53.6965 120.948 54.7301 120.686 55.8525 120.686C56.7304 120.686 57.5528 120.836 58.3196 121.136C59.0975 121.437 59.7365 121.86 60.2366 122.407L59.2197 123.389C58.8419 122.939 58.3584 122.595 57.7694 122.359C57.1804 122.112 56.547 121.989 55.8691 121.989C55.0245 121.989 54.2355 122.188 53.502 122.585C52.7797 122.971 52.1962 123.523 51.7517 124.242C51.3183 124.95 51.1015 125.771 51.1015 126.704C51.1015 127.638 51.3183 128.464 51.7517 129.183C52.1962 129.891 52.7852 130.443 53.5186 130.84C54.2521 131.227 55.0356 131.42 55.8691 131.42C56.6693 131.42 57.3361 131.302 57.8695 131.066C58.414 130.819 58.8808 130.497 59.2697 130.1C59.5587 129.8 59.7921 129.44 59.9699 129.022C60.1477 128.593 60.2588 128.121 60.3033 127.606H55.8858V126.334H61.6202C61.6758 126.635 61.7035 126.914 61.7035 127.171C61.7035 127.879 61.5868 128.571 61.3535 129.247C61.1201 129.912 60.7478 130.497 60.2366 131.001C59.1364 132.149 57.6751 132.723 55.8525 132.723ZM67.3643 132.723C66.5308 132.723 65.7807 132.53 65.1139 132.144C64.4471 131.758 63.9248 131.232 63.547 130.567C63.1802 129.902 62.9968 129.167 62.9968 128.362C62.9968 127.557 63.1802 126.822 63.547 126.157C63.9248 125.492 64.4471 124.966 65.1139 124.58C65.7807 124.194 66.5308 124.001 67.3643 124.001C68.1978 124.001 68.948 124.194 69.6147 124.58C70.2815 124.966 70.7983 125.492 71.165 126.157C71.5428 126.822 71.7318 127.557 71.7318 128.362C71.7318 129.167 71.5428 129.902 71.165 130.567C70.7983 131.232 70.2815 131.758 69.6147 132.144C68.948 132.53 68.1978 132.723 67.3643 132.723ZM67.3643 131.484C67.8867 131.484 68.3701 131.361 68.8146 131.114C69.2703 130.856 69.6314 130.492 69.8981 130.02C70.1759 129.547 70.3148 128.995 70.3148 128.362C70.3148 127.729 70.1759 127.176 69.8981 126.704C69.6314 126.232 69.2703 125.873 68.8146 125.626C68.3701 125.369 67.8867 125.24 67.3643 125.24C66.842 125.24 66.353 125.369 65.8974 125.626C65.4417 125.873 65.075 126.232 64.7972 126.704C64.5304 127.176 64.3971 127.729 64.3971 128.362C64.3971 128.995 64.5304 129.547 64.7972 130.02C65.075 130.492 65.4417 130.856 65.8974 131.114C66.353 131.361 66.842 131.484 67.3643 131.484ZM72.1999 124.258H73.7169L76.3507 130.856H76.384L79.0512 124.258H80.5348L77.0675 132.466H75.6339L72.1999 124.258ZM85.2357 132.723C84.4244 132.723 83.6965 132.535 83.0519 132.16C82.4074 131.784 81.9017 131.269 81.535 130.615C81.1794 129.95 81.0015 129.204 81.0015 128.378C81.0015 127.584 81.1683 126.855 81.5017 126.189C81.8462 125.524 82.3296 124.993 82.952 124.596C83.5743 124.199 84.2967 124.001 85.119 124.001C85.9525 124.001 86.6749 124.183 87.2861 124.548C87.8973 124.902 88.3641 125.395 88.6864 126.028C89.0197 126.661 89.1864 127.386 89.1864 128.201C89.1864 128.362 89.1697 128.501 89.1364 128.619H82.4185C82.4518 129.242 82.6074 129.767 82.8852 130.197C83.1631 130.626 83.5131 130.948 83.9354 131.162C84.3688 131.377 84.819 131.484 85.2857 131.484C86.3748 131.484 87.2139 130.99 87.8029 130.003L89.003 130.567C88.6363 131.232 88.1363 131.758 87.5028 132.144C86.8805 132.53 86.1248 132.723 85.2357 132.723ZM87.6861 127.493C87.6639 127.15 87.5639 126.806 87.3861 126.463C87.2083 126.12 86.9249 125.83 86.5359 125.594C86.1581 125.358 85.6802 125.24 85.1023 125.24C84.4355 125.24 83.8688 125.449 83.402 125.868C82.9464 126.275 82.6463 126.817 82.5018 127.493H87.6861ZM90.845 124.258H92.1953V125.578H92.262C92.4287 125.127 92.7509 124.757 93.2288 124.467C93.7067 124.167 94.2068 124.017 94.7291 124.017C95.1181 124.017 95.4515 124.07 95.7293 124.178V125.658C95.3737 125.487 94.9736 125.401 94.5291 125.401C94.1179 125.401 93.7401 125.513 93.3956 125.739C93.0511 125.964 92.7732 126.27 92.562 126.656C92.362 127.032 92.262 127.439 92.262 127.879V132.466H90.845V124.258ZM97.0962 124.258H98.4465V125.465H98.5131C98.7465 125.058 99.1188 124.714 99.63 124.435C100.141 124.146 100.686 124.001 101.264 124.001C102.286 124.001 103.064 124.29 103.597 124.87C104.142 125.438 104.414 126.216 104.414 127.203V132.466H102.997V127.412C102.997 126.651 102.808 126.098 102.431 125.755C102.053 125.412 101.536 125.24 100.88 125.24C100.425 125.24 100.013 125.363 99.6467 125.61C99.2911 125.857 99.0132 126.184 98.8132 126.592C98.6132 126.989 98.5131 127.407 98.5131 127.847V132.466H97.0962V124.258ZM106.44 124.258H107.79V125.465H107.857C108.101 125.047 108.468 124.698 108.957 124.419C109.446 124.14 109.963 124.001 110.507 124.001C111.129 124.001 111.668 124.146 112.124 124.435C112.591 124.725 112.924 125.111 113.124 125.594C113.424 125.111 113.819 124.725 114.308 124.435C114.808 124.146 115.386 124.001 116.041 124.001C117.019 124.001 117.753 124.29 118.242 124.87C118.742 125.438 118.992 126.216 118.992 127.203V132.466H117.592V127.412C117.592 126.651 117.431 126.098 117.108 125.755C116.786 125.412 116.308 125.24 115.675 125.24C115.252 125.24 114.869 125.358 114.524 125.594C114.18 125.83 113.908 126.146 113.708 126.543C113.519 126.94 113.424 127.37 113.424 127.831V132.466H112.007V127.429C112.007 126.656 111.846 126.098 111.524 125.755C111.202 125.412 110.729 125.24 110.107 125.24C109.685 125.24 109.301 125.363 108.957 125.61C108.612 125.846 108.34 126.168 108.14 126.576C107.951 126.973 107.857 127.402 107.857 127.863V132.466H106.44V124.258ZM124.81 132.723C123.998 132.723 123.271 132.535 122.626 132.16C121.981 131.784 121.476 131.269 121.109 130.615C120.753 129.95 120.576 129.204 120.576 128.378C120.576 127.584 120.742 126.855 121.076 126.189C121.42 125.524 121.904 124.993 122.526 124.596C123.148 124.199 123.871 124.001 124.693 124.001C125.527 124.001 126.249 124.183 126.86 124.548C127.471 124.902 127.938 125.395 128.26 126.028C128.594 126.661 128.76 127.386 128.76 128.201C128.76 128.362 128.744 128.501 128.71 128.619H121.993C122.026 129.242 122.181 129.767 122.459 130.197C122.737 130.626 123.087 130.948 123.509 131.162C123.943 131.377 124.393 131.484 124.86 131.484C125.949 131.484 126.788 130.99 127.377 130.003L128.577 130.567C128.21 131.232 127.71 131.758 127.077 132.144C126.454 132.53 125.699 132.723 124.81 132.723ZM127.26 127.493C127.238 127.15 127.138 126.806 126.96 126.463C126.782 126.12 126.499 125.83 126.11 125.594C125.732 125.358 125.254 125.24 124.676 125.24C124.01 125.24 123.443 125.449 122.976 125.868C122.52 126.275 122.22 126.817 122.076 127.493H127.26ZM130.419 124.258H131.769V125.465H131.836C132.069 125.058 132.442 124.714 132.953 124.435C133.464 124.146 134.009 124.001 134.587 124.001C135.609 124.001 136.387 124.29 136.92 124.87C137.465 125.438 137.737 126.216 137.737 127.203V132.466H136.32V127.412C136.32 126.651 136.131 126.098 135.753 125.755C135.376 125.412 134.859 125.24 134.203 125.24C133.748 125.24 133.336 125.363 132.97 125.61C132.614 125.857 132.336 126.184 132.136 126.592C131.936 126.989 131.836 127.407 131.836 127.847V132.466H130.419V124.258ZM142.607 132.594C142.263 132.594 141.941 132.541 141.641 132.433C141.352 132.326 141.107 132.181 140.907 131.999C140.685 131.795 140.518 131.559 140.407 131.291C140.296 131.023 140.24 130.695 140.24 130.309V125.497H138.757V124.258H140.24V121.941H141.657V124.258H143.724V125.497H141.657V129.971C141.657 130.422 141.746 130.754 141.924 130.969C142.135 131.205 142.441 131.323 142.841 131.323C143.163 131.323 143.474 131.232 143.774 131.049V132.385C143.608 132.46 143.435 132.514 143.258 132.546C143.091 132.578 142.874 132.594 142.607 132.594ZM154.878 132.723C153.722 132.723 152.672 132.46 151.727 131.935C150.783 131.409 150.038 130.69 149.494 129.778C148.96 128.855 148.693 127.831 148.693 126.704C148.693 125.578 148.96 124.559 149.494 123.647C150.038 122.724 150.783 122 151.727 121.474C152.672 120.948 153.722 120.686 154.878 120.686C155.767 120.686 156.578 120.852 157.312 121.184C158.056 121.506 158.701 121.968 159.245 122.568L158.228 123.518C157.773 122.992 157.273 122.606 156.728 122.359C156.195 122.112 155.578 121.989 154.878 121.989C154.011 121.989 153.216 122.188 152.494 122.585C151.772 122.971 151.194 123.523 150.76 124.242C150.338 124.95 150.127 125.771 150.127 126.704C150.127 127.638 150.338 128.464 150.76 129.183C151.194 129.891 151.772 130.443 152.494 130.84C153.216 131.227 154.011 131.42 154.878 131.42C156.323 131.42 157.551 130.846 158.562 129.698L159.595 130.663C159.04 131.296 158.356 131.8 157.545 132.176C156.734 132.541 155.845 132.723 154.878 132.723ZM164.941 132.723C164.107 132.723 163.357 132.53 162.69 132.144C162.024 131.758 161.501 131.232 161.123 130.567C160.757 129.902 160.573 129.167 160.573 128.362C160.573 127.557 160.757 126.822 161.123 126.157C161.501 125.492 162.024 124.966 162.69 124.58C163.357 124.194 164.107 124.001 164.941 124.001C165.774 124.001 166.524 124.194 167.191 124.58C167.858 124.966 168.375 125.492 168.741 126.157C169.119 126.822 169.308 127.557 169.308 128.362C169.308 129.167 169.119 129.902 168.741 130.567C168.375 131.232 167.858 131.758 167.191 132.144C166.524 132.53 165.774 132.723 164.941 132.723ZM164.941 131.484C165.463 131.484 165.947 131.361 166.391 131.114C166.847 130.856 167.208 130.492 167.475 130.02C167.752 129.547 167.891 128.995 167.891 128.362C167.891 127.729 167.752 127.176 167.475 126.704C167.208 126.232 166.847 125.873 166.391 125.626C165.947 125.369 165.463 125.24 164.941 125.24C164.419 125.24 163.929 125.369 163.474 125.626C163.018 125.873 162.651 126.232 162.374 126.704C162.107 127.176 161.974 127.729 161.974 128.362C161.974 128.995 162.107 129.547 162.374 130.02C162.651 130.492 163.018 130.856 163.474 131.114C163.929 131.361 164.419 131.484 164.941 131.484ZM170.872 120.943H172.289V132.466H170.872V120.943ZM174.388 120.943H175.805V132.466H174.388V120.943ZM181.608 132.723C180.797 132.723 180.069 132.535 179.424 132.16C178.779 131.784 178.274 131.269 177.907 130.615C177.551 129.95 177.374 129.204 177.374 128.378C177.374 127.584 177.54 126.855 177.874 126.189C178.218 125.524 178.702 124.993 179.324 124.596C179.946 124.199 180.669 124.001 181.491 124.001C182.325 124.001 183.047 124.183 183.658 124.548C184.269 124.902 184.736 125.395 185.058 126.028C185.392 126.661 185.559 127.386 185.559 128.201C185.559 128.362 185.542 128.501 185.508 128.619H178.791C178.824 129.242 178.98 129.767 179.257 130.197C179.535 130.626 179.885 130.948 180.308 131.162C180.741 131.377 181.191 131.484 181.658 131.484C182.747 131.484 183.586 130.99 184.175 130.003L185.375 130.567C185.008 131.232 184.508 131.758 183.875 132.144C183.253 132.53 182.497 132.723 181.608 132.723ZM184.058 127.493C184.036 127.15 183.936 126.806 183.758 126.463C183.58 126.12 183.297 125.83 182.908 125.594C182.53 125.358 182.052 125.24 181.474 125.24C180.808 125.24 180.241 125.449 179.774 125.868C179.318 126.275 179.018 126.817 178.874 127.493H184.058ZM191.032 136.199C190.032 136.199 189.204 135.974 188.548 135.523C187.903 135.073 187.47 134.531 187.248 133.898L188.531 133.367C188.72 133.839 189.031 134.22 189.465 134.509C189.909 134.81 190.432 134.96 191.032 134.96C191.91 134.96 192.588 134.713 193.065 134.22C193.554 133.726 193.799 133.029 193.799 132.128V131.21H193.732C193.454 131.629 193.06 131.972 192.549 132.24C192.049 132.498 191.476 132.627 190.832 132.627C190.098 132.627 189.426 132.444 188.815 132.079C188.215 131.715 187.737 131.205 187.381 130.551C187.025 129.896 186.848 129.151 186.848 128.314C186.848 127.488 187.025 126.747 187.381 126.093C187.737 125.428 188.215 124.913 188.815 124.548C189.426 124.183 190.098 124.001 190.832 124.001C191.476 124.001 192.049 124.135 192.549 124.403C193.06 124.661 193.454 125.004 193.732 125.433H193.799V124.258H195.149V132.144C195.149 133.463 194.771 134.467 194.016 135.153C193.26 135.851 192.265 136.199 191.032 136.199ZM191.032 131.387C191.543 131.387 192.004 131.264 192.415 131.017C192.838 130.771 193.171 130.416 193.416 129.955C193.671 129.494 193.799 128.947 193.799 128.314C193.799 127.67 193.671 127.117 193.416 126.656C193.171 126.195 192.838 125.846 192.415 125.61C192.004 125.363 191.543 125.24 191.032 125.24C190.521 125.24 190.054 125.363 189.632 125.61C189.209 125.857 188.87 126.211 188.615 126.672C188.37 127.134 188.248 127.681 188.248 128.314C188.248 128.947 188.37 129.499 188.615 129.971C188.87 130.433 189.209 130.787 189.632 131.033C190.054 131.269 190.521 131.387 191.032 131.387ZM200.947 132.723C200.136 132.723 199.408 132.535 198.764 132.16C198.119 131.784 197.614 131.269 197.247 130.615C196.891 129.95 196.713 129.204 196.713 128.378C196.713 127.584 196.88 126.855 197.213 126.189C197.558 125.524 198.041 124.993 198.664 124.596C199.286 124.199 200.008 124.001 200.831 124.001C201.664 124.001 202.387 124.183 202.998 124.548C203.609 124.902 204.076 125.395 204.398 126.028C204.732 126.661 204.898 127.386 204.898 128.201C204.898 128.362 204.882 128.501 204.848 128.619H198.13C198.164 129.242 198.319 129.767 198.597 130.197C198.875 130.626 199.225 130.948 199.647 131.162C200.081 131.377 200.531 131.484 200.998 131.484C202.087 131.484 202.926 130.99 203.515 130.003L204.715 130.567C204.348 131.232 203.848 131.758 203.215 132.144C202.592 132.53 201.837 132.723 200.947 132.723ZM203.398 127.493C203.376 127.15 203.276 126.806 203.098 126.463C202.92 126.12 202.637 125.83 202.248 125.594C201.87 125.358 201.392 125.24 200.814 125.24C200.147 125.24 199.581 125.449 199.114 125.868C198.658 126.275 198.358 126.817 198.214 127.493H203.398ZM215.922 132.723C214.778 132.723 213.739 132.455 212.805 131.918C211.872 131.382 211.138 130.658 210.605 129.746C210.071 128.823 209.805 127.809 209.805 126.704C209.805 125.61 210.071 124.602 210.605 123.679C211.138 122.756 211.872 122.027 212.805 121.49C213.739 120.954 214.778 120.686 215.922 120.686C217.067 120.686 218.106 120.954 219.04 121.49C219.973 122.027 220.707 122.756 221.24 123.679C221.785 124.602 222.057 125.61 222.057 126.704C222.057 127.809 221.79 128.823 221.257 129.746C220.723 130.658 219.984 131.382 219.04 131.918C218.106 132.455 217.067 132.723 215.922 132.723ZM215.922 131.42C216.778 131.42 217.562 131.221 218.273 130.824C218.995 130.416 219.562 129.859 219.973 129.15C220.396 128.432 220.607 127.616 220.607 126.704C220.607 125.792 220.396 124.982 219.973 124.274C219.562 123.556 218.995 122.998 218.273 122.601C217.562 122.193 216.778 121.989 215.922 121.989C215.067 121.989 214.283 122.193 213.572 122.601C212.861 122.998 212.294 123.556 211.872 124.274C211.449 124.993 211.238 125.803 211.238 126.704C211.238 127.606 211.449 128.416 211.872 129.134C212.294 129.853 212.861 130.416 213.572 130.824C214.283 131.221 215.067 131.42 215.922 131.42ZM224.844 125.497H223.277V124.258H224.844V123.373C224.844 122.858 224.966 122.408 225.21 122.021C225.455 121.635 225.783 121.34 226.194 121.136C226.605 120.922 227.061 120.814 227.561 120.814C228.039 120.814 228.455 120.879 228.811 121.007V122.343C228.611 122.268 228.422 122.209 228.244 122.166C228.066 122.112 227.855 122.086 227.611 122.086C227.244 122.086 226.927 122.214 226.661 122.472C226.394 122.719 226.261 123.067 226.261 123.518V124.258H228.444V125.497H226.261V132.466H224.844V125.497ZM234.334 120.943H241.236V122.247H235.735V126.061H240.702V127.348H235.735V131.162H241.236V132.466H234.334V120.943ZM243.071 124.258H244.421V125.465H244.488C244.721 125.058 245.093 124.714 245.604 124.435C246.116 124.146 246.66 124.001 247.238 124.001C248.26 124.001 249.038 124.29 249.572 124.87C250.116 125.438 250.389 126.216 250.389 127.203V132.466H248.972V127.412C248.972 126.651 248.783 126.098 248.405 125.755C248.027 125.412 247.51 125.24 246.855 125.24C246.399 125.24 245.988 125.363 245.621 125.61C245.265 125.857 244.988 126.184 244.788 126.592C244.588 126.989 244.488 127.407 244.488 127.847V132.466H243.071V124.258ZM256.067 136.199C255.067 136.199 254.239 135.974 253.584 135.523C252.939 135.073 252.506 134.531 252.283 133.898L253.567 133.367C253.756 133.839 254.067 134.22 254.501 134.509C254.945 134.81 255.467 134.96 256.067 134.96C256.945 134.96 257.623 134.713 258.101 134.22C258.59 133.726 258.835 133.029 258.835 132.128V131.21H258.768C258.49 131.629 258.096 131.972 257.584 132.24C257.084 132.498 256.512 132.627 255.867 132.627C255.134 132.627 254.462 132.444 253.85 132.079C253.25 131.715 252.772 131.205 252.417 130.551C252.061 129.896 251.883 129.151 251.883 128.314C251.883 127.488 252.061 126.747 252.417 126.093C252.772 125.428 253.25 124.913 253.85 124.548C254.462 124.183 255.134 124.001 255.867 124.001C256.512 124.001 257.084 124.135 257.584 124.403C258.096 124.661 258.49 125.004 258.768 125.433H258.835V124.258H260.185V132.144C260.185 133.463 259.807 134.467 259.051 135.153C258.296 135.851 257.301 136.199 256.067 136.199ZM256.067 131.387C256.579 131.387 257.04 131.264 257.451 131.017C257.873 130.771 258.207 130.416 258.451 129.955C258.707 129.494 258.835 128.947 258.835 128.314C258.835 127.67 258.707 127.117 258.451 126.656C258.207 126.195 257.873 125.846 257.451 125.61C257.04 125.363 256.579 125.24 256.067 125.24C255.556 125.24 255.09 125.363 254.667 125.61C254.245 125.857 253.906 126.211 253.65 126.672C253.406 127.134 253.284 127.681 253.284 128.314C253.284 128.947 253.406 129.499 253.65 129.971C253.906 130.433 254.245 130.787 254.667 131.033C255.09 131.269 255.556 131.387 256.067 131.387ZM263.113 122.745C262.835 122.745 262.596 122.649 262.396 122.456C262.196 122.263 262.096 122.032 262.096 121.764C262.096 121.496 262.196 121.27 262.396 121.088C262.596 120.895 262.835 120.798 263.113 120.798C263.391 120.798 263.63 120.895 263.83 121.088C264.03 121.27 264.13 121.496 264.13 121.764C264.13 122.032 264.03 122.263 263.83 122.456C263.641 122.649 263.402 122.745 263.113 122.745ZM262.413 124.258H263.813V132.466H262.413V124.258ZM266.04 124.258H267.39V125.465H267.457C267.69 125.058 268.063 124.714 268.574 124.435C269.085 124.146 269.63 124.001 270.208 124.001C271.23 124.001 272.008 124.29 272.541 124.87C273.086 125.438 273.358 126.216 273.358 127.203V132.466H271.941V127.412C271.941 126.651 271.752 126.098 271.374 125.755C270.997 125.412 270.48 125.24 269.824 125.24C269.369 125.24 268.957 125.363 268.591 125.61C268.235 125.857 267.957 126.184 267.757 126.592C267.557 126.989 267.457 127.407 267.457 127.847V132.466H266.04V124.258ZM279.168 132.723C278.356 132.723 277.628 132.535 276.984 132.16C276.339 131.784 275.834 131.269 275.467 130.615C275.111 129.95 274.934 129.204 274.934 128.378C274.934 127.584 275.1 126.855 275.434 126.189C275.778 125.524 276.262 124.993 276.884 124.596C277.506 124.199 278.229 124.001 279.051 124.001C279.884 124.001 280.607 124.183 281.218 124.548C281.829 124.902 282.296 125.395 282.618 126.028C282.952 126.661 283.118 127.386 283.118 128.201C283.118 128.362 283.102 128.501 283.068 128.619H276.35C276.384 129.242 276.539 129.767 276.817 130.197C277.095 130.626 277.445 130.948 277.867 131.162C278.301 131.377 278.751 131.484 279.218 131.484C280.307 131.484 281.146 130.99 281.735 130.003L282.935 130.567C282.568 131.232 282.068 131.758 281.435 132.144C280.812 132.53 280.057 132.723 279.168 132.723ZM281.618 127.493C281.596 127.15 281.496 126.806 281.318 126.463C281.14 126.12 280.857 125.83 280.468 125.594C280.09 125.358 279.612 125.24 279.034 125.24C278.367 125.24 277.801 125.449 277.334 125.868C276.878 126.275 276.578 126.817 276.434 127.493H281.618ZM288.643 132.723C287.832 132.723 287.104 132.535 286.459 132.16C285.815 131.784 285.309 131.269 284.942 130.615C284.587 129.95 284.409 129.204 284.409 128.378C284.409 127.584 284.576 126.855 284.909 126.189C285.253 125.524 285.737 124.993 286.359 124.596C286.982 124.199 287.704 124.001 288.526 124.001C289.36 124.001 290.082 124.183 290.693 124.548C291.305 124.902 291.771 125.395 292.094 126.028C292.427 126.661 292.594 127.386 292.594 128.201C292.594 128.362 292.577 128.501 292.544 128.619H285.826C285.859 129.242 286.015 129.767 286.293 130.197C286.57 130.626 286.92 130.948 287.343 131.162C287.776 131.377 288.226 131.484 288.693 131.484C289.782 131.484 290.621 130.99 291.21 130.003L292.41 130.567C292.044 131.232 291.544 131.758 290.91 132.144C290.288 132.53 289.532 132.723 288.643 132.723ZM291.093 127.493C291.071 127.15 290.971 126.806 290.793 126.463C290.616 126.12 290.332 125.83 289.943 125.594C289.565 125.358 289.088 125.24 288.51 125.24C287.843 125.24 287.276 125.449 286.809 125.868C286.354 126.275 286.054 126.817 285.909 127.493H291.093ZM294.251 124.258H295.601V125.578H295.668C295.835 125.127 296.157 124.757 296.635 124.467C297.113 124.167 297.613 124.017 298.135 124.017C298.524 124.017 298.857 124.07 299.135 124.178V125.658C298.78 125.487 298.38 125.401 297.935 125.401C297.524 125.401 297.146 125.513 296.801 125.739C296.457 125.964 296.179 126.27 295.968 126.656C295.768 127.032 295.668 127.439 295.668 127.879V132.466H294.251V124.258ZM301.336 122.745C301.058 122.745 300.819 122.649 300.619 122.456C300.419 122.263 300.319 122.032 300.319 121.764C300.319 121.496 300.419 121.27 300.619 121.088C300.819 120.895 301.058 120.798 301.336 120.798C301.613 120.798 301.852 120.895 302.052 121.088C302.252 121.27 302.352 121.496 302.352 121.764C302.352 122.032 302.252 122.263 302.052 122.456C301.863 122.649 301.625 122.745 301.336 122.745ZM300.636 124.258H302.036V132.466H300.636V124.258ZM304.263 124.258H305.613V125.465H305.679C305.913 125.058 306.285 124.714 306.796 124.435C307.308 124.146 307.852 124.001 308.43 124.001C309.452 124.001 310.23 124.29 310.764 124.87C311.308 125.438 311.581 126.216 311.581 127.203V132.466H310.164V127.412C310.164 126.651 309.975 126.098 309.597 125.755C309.219 125.412 308.702 125.24 308.047 125.24C307.591 125.24 307.18 125.363 306.813 125.61C306.457 125.857 306.18 126.184 305.98 126.592C305.78 126.989 305.679 127.407 305.679 127.847V132.466H304.263V124.258ZM317.259 136.199C316.259 136.199 315.431 135.974 314.776 135.523C314.131 135.073 313.698 134.531 313.475 133.898L314.759 133.367C314.948 133.839 315.259 134.22 315.692 134.509C316.137 134.81 316.659 134.96 317.259 134.96C318.137 134.96 318.815 134.713 319.293 134.22C319.782 133.726 320.027 133.029 320.027 132.128V131.21H319.96C319.682 131.629 319.288 131.972 318.776 132.24C318.276 132.498 317.704 132.627 317.059 132.627C316.326 132.627 315.654 132.444 315.042 132.079C314.442 131.715 313.964 131.205 313.609 130.551C313.253 129.896 313.075 129.151 313.075 128.314C313.075 127.488 313.253 126.747 313.609 126.093C313.964 125.428 314.442 124.913 315.042 124.548C315.654 124.183 316.326 124.001 317.059 124.001C317.704 124.001 318.276 124.135 318.776 124.403C319.288 124.661 319.682 125.004 319.96 125.433H320.027V124.258H321.377V132.144C321.377 133.463 320.999 134.467 320.243 135.153C319.488 135.851 318.493 136.199 317.259 136.199ZM317.259 131.387C317.771 131.387 318.232 131.264 318.643 131.017C319.065 130.771 319.399 130.416 319.643 129.955C319.899 129.494 320.027 128.947 320.027 128.314C320.027 127.67 319.899 127.117 319.643 126.656C319.399 126.195 319.065 125.846 318.643 125.61C318.232 125.363 317.771 125.24 317.259 125.24C316.748 125.24 316.281 125.363 315.859 125.61C315.437 125.857 315.098 126.211 314.842 126.672C314.598 127.134 314.476 127.681 314.476 128.314C314.476 128.947 314.598 129.499 314.842 129.971C315.098 130.433 315.437 130.787 315.859 131.033C316.281 131.269 316.748 131.387 317.259 131.387ZM327.631 120.943H329.364L335.349 130.116H335.416L335.349 127.895V120.943H336.766V132.466H335.299L329.031 122.858H328.964L329.031 125.079V132.466H327.631V120.943ZM341.622 132.723C341 132.723 340.444 132.605 339.955 132.369C339.466 132.133 339.088 131.811 338.822 131.404C338.555 130.985 338.422 130.513 338.422 129.987C338.422 129.118 338.761 128.442 339.439 127.96C340.116 127.466 340.972 127.219 342.006 127.219C342.517 127.219 342.989 127.273 343.423 127.38C343.867 127.488 344.206 127.611 344.439 127.75V127.251C344.439 126.64 344.217 126.152 343.773 125.787C343.328 125.412 342.767 125.224 342.089 125.224C341.611 125.224 341.172 125.326 340.772 125.53C340.372 125.723 340.055 125.996 339.822 126.35L338.755 125.578C339.088 125.084 339.544 124.698 340.122 124.419C340.711 124.14 341.361 124.001 342.072 124.001C343.228 124.001 344.134 124.296 344.79 124.886C345.456 125.465 345.79 126.259 345.79 127.268V132.466H344.439V131.291H344.373C344.128 131.688 343.762 132.026 343.273 132.305C342.784 132.584 342.233 132.723 341.622 132.723ZM341.756 131.516C342.233 131.516 342.678 131.398 343.089 131.162C343.5 130.926 343.828 130.61 344.073 130.213C344.317 129.816 344.439 129.381 344.439 128.909C344.173 128.737 343.845 128.598 343.456 128.491C343.067 128.383 342.656 128.33 342.222 128.33C341.444 128.33 340.855 128.485 340.455 128.796C340.066 129.108 339.872 129.51 339.872 130.003C339.872 130.454 340.05 130.819 340.405 131.098C340.761 131.377 341.211 131.516 341.756 131.516ZM351.413 136.199C350.413 136.199 349.585 135.974 348.929 135.523C348.285 135.073 347.851 134.531 347.629 133.898L348.913 133.367C349.101 133.839 349.413 134.22 349.846 134.509C350.291 134.81 350.813 134.96 351.413 134.96C352.291 134.96 352.969 134.713 353.447 134.22C353.936 133.726 354.18 133.029 354.18 132.128V131.21H354.113C353.836 131.629 353.441 131.972 352.93 132.24C352.43 132.498 351.858 132.627 351.213 132.627C350.48 132.627 349.807 132.444 349.196 132.079C348.596 131.715 348.118 131.205 347.762 130.551C347.407 129.896 347.229 129.151 347.229 128.314C347.229 127.488 347.407 126.747 347.762 126.093C348.118 125.428 348.596 124.913 349.196 124.548C349.807 124.183 350.48 124.001 351.213 124.001C351.858 124.001 352.43 124.135 352.93 124.403C353.441 124.661 353.836 125.004 354.113 125.433H354.18V124.258H355.53V132.144C355.53 133.463 355.153 134.467 354.397 135.153C353.641 135.851 352.647 136.199 351.413 136.199ZM351.413 131.387C351.924 131.387 352.385 131.264 352.797 131.017C353.219 130.771 353.552 130.416 353.797 129.955C354.052 129.494 354.18 128.947 354.18 128.314C354.18 127.67 354.052 127.117 353.797 126.656C353.552 126.195 353.219 125.846 352.797 125.61C352.385 125.363 351.924 125.24 351.413 125.24C350.902 125.24 350.435 125.363 350.013 125.61C349.59 125.857 349.251 126.211 348.996 126.672C348.751 127.134 348.629 127.681 348.629 128.314C348.629 128.947 348.751 129.499 348.996 129.971C349.251 130.433 349.59 130.787 350.013 131.033C350.435 131.269 350.902 131.387 351.413 131.387ZM357.559 124.258H358.909V125.481H358.975C359.231 125.063 359.614 124.714 360.126 124.435C360.648 124.146 361.231 124.001 361.876 124.001C362.632 124.001 363.321 124.188 363.943 124.564C364.565 124.939 365.054 125.46 365.41 126.125C365.766 126.79 365.944 127.536 365.944 128.362C365.944 129.199 365.766 129.95 365.41 130.615C365.054 131.269 364.565 131.784 363.943 132.16C363.321 132.535 362.632 132.723 361.876 132.723C361.231 132.723 360.648 132.584 360.126 132.305C359.614 132.015 359.231 131.666 358.975 131.259H358.909L358.975 132.385V135.942H357.559V124.258ZM361.709 131.484C362.198 131.484 362.66 131.355 363.093 131.098C363.526 130.84 363.871 130.475 364.126 130.003C364.393 129.521 364.527 128.973 364.527 128.362C364.527 127.75 364.393 127.209 364.126 126.737C363.871 126.254 363.526 125.884 363.093 125.626C362.66 125.369 362.198 125.24 361.709 125.24C361.22 125.24 360.759 125.369 360.326 125.626C359.892 125.884 359.548 126.248 359.292 126.72C359.037 127.192 358.909 127.74 358.909 128.362C358.909 128.984 359.037 129.531 359.292 130.003C359.548 130.475 359.892 130.84 360.326 131.098C360.759 131.355 361.22 131.484 361.709 131.484ZM370.592 132.723C369.569 132.723 368.786 132.433 368.241 131.854C367.708 131.275 367.441 130.465 367.441 129.424V124.258H368.858V129.215C368.858 129.998 369.041 130.572 369.408 130.937C369.775 131.302 370.269 131.484 370.892 131.484C371.369 131.484 371.792 131.361 372.159 131.114C372.536 130.867 372.825 130.545 373.025 130.148C373.236 129.751 373.342 129.333 373.342 128.893V124.258H374.759V132.466H373.409V131.275H373.342C373.109 131.682 372.736 132.026 372.225 132.305C371.714 132.584 371.169 132.723 370.592 132.723ZM376.851 124.258H378.201V125.578H378.268C378.435 125.127 378.757 124.757 379.235 124.467C379.713 124.167 380.213 124.017 380.735 124.017C381.124 124.017 381.457 124.07 381.735 124.178V125.658C381.38 125.487 380.98 125.401 380.535 125.401C380.124 125.401 379.746 125.513 379.402 125.739C379.057 125.964 378.779 126.27 378.568 126.656C378.368 127.032 378.268 127.439 378.268 127.879V132.466H376.851V124.258Z" />
    <defs>
        <linearGradient id="paint0_linear_701_2364" x1="424.838" y1="130.674" x2="8.31644" y2="130.674"
            gradientUnits="userSpaceOnUse">
            <stop stop-color="#348BCA" />
            <stop offset="0.404875" stop-color="#59A43A" />
            <stop offset="0.711571" stop-color="#F3B002" />
            <stop offset="1" stop-color="#DF572E" />
        </linearGradient>
    </defs>
</svg>