<svg width="428" height="167" viewBox="0 0 428 167" fill="none" xmlns="http://www.w3.org/2000/svg">
    <path
        d="M417.223 1.5625H11.5922C6.22176 1.5625 1.86816 5.76547 1.86816 10.9501V155.787C1.86816 160.972 6.22176 165.175 11.5922 165.175H417.223C422.594 165.175 426.947 160.972 426.947 155.787V10.9501C426.947 5.76547 422.594 1.5625 417.223 1.5625Z"
        fill="var(--background-color)" stroke="url(#paint0_linear_701_2355)" stroke-width="2" />
    <path
        d="M50.6096 103.674C49.0693 103.674 47.6497 103.316 46.3512 102.603C45.0524 101.888 44.0179 100.911 43.2478 99.6723C42.4928 98.4184 42.1152 97.0263 42.1152 95.4948C42.1152 93.9646 42.4928 92.5793 43.2478 91.3401C44.0179 90.0862 45.0524 89.1019 46.3512 88.3884C47.6497 87.6736 49.0693 87.3169 50.6096 87.3169C51.8327 87.3169 52.973 87.5274 54.03 87.9499C55.087 88.3736 55.9705 88.9637 56.6802 89.7215L54.9133 91.4273C54.3849 90.8587 53.7506 90.4215 53.0106 90.1157C52.2857 89.81 51.478 89.6557 50.587 89.6557C49.545 89.6557 48.5709 89.8972 47.6649 90.3773C46.7589 90.8587 46.034 91.544 45.4903 92.4331C44.9467 93.3223 44.6749 94.3428 44.6749 95.4948C44.6749 96.6468 44.9467 97.6674 45.4903 98.5565C46.034 99.4457 46.7589 100.131 47.6649 100.612C48.5709 101.093 49.5525 101.334 50.6096 101.334C51.576 101.334 52.3839 101.196 53.0332 100.918C53.6827 100.641 54.264 100.269 54.7774 99.8024C55.1097 99.4819 55.3891 99.0809 55.6155 98.6008C55.8572 98.1193 56.0157 97.5936 56.0913 97.0263H50.587V94.8391H58.4923C58.5677 95.2467 58.6055 95.6705 58.6055 96.1077C58.6055 97.0988 58.447 98.0536 58.1299 98.9723C57.8127 99.8762 57.3068 100.663 56.6122 101.334C55.087 102.894 53.0862 103.674 50.6096 103.674ZM66.4295 103.674C65.2668 103.674 64.2248 103.418 63.3036 102.908C62.3825 102.383 61.6651 101.669 61.1517 100.765C60.6383 99.8614 60.3816 98.8556 60.3816 97.7478C60.3816 96.6388 60.6383 95.633 61.1517 94.7291C61.6651 93.8252 62.3825 93.1184 63.3036 92.6088C64.2248 92.0831 65.2668 91.8216 66.4295 91.8216C67.5923 91.8216 68.6342 92.0831 69.5555 92.6088C70.4766 93.1332 71.1938 93.848 71.7073 94.7519C72.2207 95.6558 72.4774 96.6535 72.4774 97.7478C72.4774 98.8556 72.2207 99.8614 71.7073 100.765C71.1938 101.669 70.4766 102.383 69.5555 102.908C68.6342 103.418 67.5923 103.674 66.4295 103.674ZM66.4295 101.465C67.0638 101.465 67.6528 101.319 68.1963 101.028C68.7399 100.721 69.1704 100.292 69.4874 99.7367C69.8197 99.168 69.9858 98.5055 69.9858 97.7478C69.9858 96.9888 69.8197 96.333 69.4874 95.7791C69.1704 95.2253 68.7399 94.8029 68.1963 94.5105C67.6528 94.2047 67.0638 94.0518 66.4295 94.0518C65.7953 94.0518 65.2063 94.2047 64.6628 94.5105C64.119 94.8029 63.6812 95.2253 63.3489 95.7791C63.0318 96.333 62.8733 96.9888 62.8733 97.7478C62.8733 98.5055 63.0318 99.168 63.3489 99.7367C63.6812 100.292 64.119 100.721 64.6628 101.028C65.2063 101.319 65.7953 101.465 66.4295 101.465ZM80.1886 103.674C79.0257 103.674 77.9837 103.418 77.0626 102.908C76.1414 102.383 75.4242 101.669 74.9108 100.765C74.3974 99.8614 74.1406 98.8556 74.1406 97.7478C74.1406 96.6388 74.3974 95.633 74.9108 94.7291C75.4242 93.8252 76.1414 93.1184 77.0626 92.6088C77.9837 92.0831 79.0257 91.8216 80.1886 91.8216C81.3513 91.8216 82.3933 92.0831 83.3144 92.6088C84.2356 93.1332 84.9529 93.848 85.4664 94.7519C85.9798 95.6558 86.2365 96.6535 86.2365 97.7478C86.2365 98.8556 85.9798 99.8614 85.4664 100.765C84.9529 101.669 84.2356 102.383 83.3144 102.908C82.3933 103.418 81.3513 103.674 80.1886 103.674ZM80.1886 101.465C80.8227 101.465 81.4117 101.319 81.9553 101.028C82.499 100.721 82.9294 100.292 83.2465 99.7367C83.5786 99.168 83.7448 98.5055 83.7448 97.7478C83.7448 96.9888 83.5786 96.333 83.2465 95.7791C82.9294 95.2253 82.499 94.8029 81.9553 94.5105C81.4117 94.2047 80.8227 94.0518 80.1886 94.0518C79.5543 94.0518 78.9653 94.2047 78.4217 94.5105C77.878 94.8029 77.4401 95.2253 77.1079 95.7791C76.7909 96.333 76.6322 96.9888 76.6322 97.7478C76.6322 98.5055 76.7909 99.168 77.1079 99.7367C77.4401 100.292 77.878 100.721 78.4217 101.028C78.9653 101.319 79.5543 101.465 80.1886 101.465ZM93.7436 108.397C92.3242 108.397 91.1463 108.084 90.21 107.456C89.2889 106.83 88.6697 106.087 88.3526 105.226L90.6857 104.286C90.9274 104.869 91.3124 105.336 91.8409 105.686C92.3846 106.049 93.0189 106.232 93.7436 106.232C94.8007 106.232 95.6237 105.926 96.2127 105.313C96.8167 104.716 97.1187 103.87 97.1187 102.777V101.75H96.9828C96.6052 102.274 96.0994 102.69 95.4652 102.996C94.846 103.287 94.1288 103.433 93.3132 103.433C92.3468 103.433 91.4483 103.193 90.6177 102.711C89.7872 102.23 89.1227 101.553 88.6244 100.678C88.1412 99.7877 87.8996 98.7751 87.8996 97.6379C87.8996 96.5007 88.1412 95.4949 88.6244 94.6205C89.1227 93.7313 89.7872 93.046 90.6177 92.5646C91.4483 92.0684 92.3468 91.8216 93.3132 91.8216C94.1137 91.8216 94.8309 91.9745 95.4652 92.2802C96.0994 92.586 96.6052 93.0018 96.9828 93.5275H97.1187V92.1716H99.4972V102.711C99.4972 103.921 99.2556 104.949 98.7723 105.794C98.289 106.655 97.6094 107.303 96.7336 107.74C95.8729 108.179 94.8763 108.397 93.7436 108.397ZM93.7664 101.247C94.3704 101.247 94.9291 101.107 95.4425 100.831C95.9559 100.539 96.3637 100.124 96.6657 99.5838C96.9677 99.0299 97.1187 98.3809 97.1187 97.6379C97.1187 96.5007 96.794 95.6182 96.1447 94.9919C95.5105 94.3509 94.7177 94.0304 93.7664 94.0304C93.1472 94.0304 92.5809 94.1752 92.0674 94.4676C91.554 94.7438 91.1463 95.1528 90.8443 95.692C90.5423 96.2311 90.3913 96.8802 90.3913 97.6379C90.3913 98.3956 90.5423 99.0447 90.8443 99.5838C91.1463 100.124 91.554 100.539 92.0674 100.831C92.5809 101.107 93.1472 101.247 93.7664 101.247ZM102.425 87.6669H104.917V103.324H102.425V87.6669ZM113.012 103.674C111.88 103.674 110.86 103.418 109.954 102.908C109.063 102.397 108.361 101.699 107.848 100.808C107.349 99.9043 107.1 98.8918 107.1 97.7693C107.1 96.7045 107.342 95.7215 107.825 94.8176C108.323 93.8989 109.01 93.1694 109.886 92.6303C110.762 92.0912 111.759 91.8216 112.876 91.8216C114.039 91.8216 115.043 92.0684 115.889 92.5646C116.75 93.0608 117.399 93.738 117.837 94.599C118.29 95.4586 118.517 96.4282 118.517 97.5064C118.517 97.7103 118.494 97.9665 118.449 98.2722H109.592C109.683 99.3075 110.06 100.11 110.725 100.678C111.404 101.232 112.189 101.508 113.08 101.508C113.79 101.508 114.402 101.355 114.915 101.05C115.444 100.729 115.866 100.299 116.183 99.7595L118.29 100.721C117.746 101.64 117.037 102.361 116.161 102.887C115.285 103.411 114.235 103.674 113.012 103.674ZM115.98 96.4349C115.949 96.042 115.821 95.6558 115.595 95.2762C115.368 94.8833 115.021 94.5547 114.553 94.2919C114.1 94.0304 113.541 93.8989 112.876 93.8989C112.076 93.8989 111.396 94.1323 110.838 94.599C110.294 95.0509 109.917 95.6625 109.705 96.4349H115.98ZM126.502 87.6669H131.69C133.366 87.6669 134.831 87.9941 136.084 88.6499C137.337 89.3057 138.296 90.2324 138.961 91.4273C139.64 92.6088 139.98 93.9646 139.98 95.4948C139.98 97.0263 139.64 98.3889 138.961 99.5838C138.296 100.765 137.337 101.684 136.084 102.34C134.831 102.996 133.366 103.324 131.69 103.324H126.502V87.6669ZM131.644 100.984C133.456 100.984 134.868 100.502 135.88 99.5409C136.907 98.5632 137.42 97.2154 137.42 95.4948C137.42 93.789 136.907 92.4479 135.88 91.4716C134.868 90.4939 133.456 90.0058 131.644 90.0058H129.039V100.984H131.644ZM147.409 103.674C146.277 103.674 145.258 103.418 144.352 102.908C143.461 102.397 142.759 101.699 142.245 100.808C141.747 99.9043 141.497 98.8918 141.497 97.7693C141.497 96.7045 141.739 95.7215 142.222 94.8176C142.721 93.8989 143.409 93.1694 144.284 92.6303C145.16 92.0912 146.156 91.8216 147.273 91.8216C148.436 91.8216 149.44 92.0684 150.286 92.5646C151.148 93.0608 151.796 93.738 152.234 94.599C152.688 95.4586 152.915 96.4282 152.915 97.5064C152.915 97.7103 152.891 97.9665 152.847 98.2722H143.989C144.08 99.3075 144.457 100.11 145.121 100.678C145.802 101.232 146.587 101.508 147.477 101.508C148.187 101.508 148.799 101.355 149.313 101.05C149.84 100.729 150.264 100.299 150.581 99.7595L152.688 100.721C152.144 101.64 151.434 102.361 150.559 102.887C149.682 103.411 148.633 103.674 147.409 103.674ZM150.377 96.4349C150.347 96.042 150.218 95.6558 149.992 95.2762C149.765 94.8833 149.418 94.5547 148.95 94.2919C148.497 94.0304 147.939 93.8989 147.273 93.8989C146.473 93.8989 145.794 94.1323 145.235 94.599C144.692 95.0509 144.314 95.6625 144.103 96.4349H150.377ZM153.67 92.1716H156.457L159.651 100.218H159.741L163.003 92.1716H165.721L160.919 103.324H158.428L153.67 92.1716ZM172.274 103.674C171.14 103.674 170.122 103.418 169.215 102.908C168.324 102.397 167.623 101.699 167.109 100.808C166.61 99.9043 166.362 98.8918 166.362 97.7693C166.362 96.7045 166.603 95.7215 167.087 94.8176C167.584 93.8989 168.272 93.1694 169.147 92.6303C170.023 92.0912 171.019 91.8216 172.138 91.8216C173.3 91.8216 174.305 92.0684 175.151 92.5646C176.011 93.0608 176.661 93.738 177.098 94.599C177.551 95.4586 177.778 96.4282 177.778 97.5064C177.778 97.7103 177.755 97.9665 177.709 98.2722H168.852C168.944 99.3075 169.32 100.11 169.986 100.678C170.665 101.232 171.45 101.508 172.342 101.508C173.052 101.508 173.663 101.355 174.176 101.05C174.705 100.729 175.127 100.299 175.445 99.7595L177.551 100.721C177.008 101.64 176.298 102.361 175.422 102.887C174.546 103.411 173.496 103.674 172.274 103.674ZM175.241 96.4349C175.21 96.042 175.083 95.6558 174.856 95.2762C174.63 94.8833 174.281 94.5547 173.813 94.2919C173.36 94.0304 172.802 93.8989 172.138 93.8989C171.337 93.8989 170.658 94.1323 170.098 94.599C169.555 95.0509 169.177 95.6625 168.966 96.4349H175.241ZM180.046 87.6669H182.538V103.324H180.046V87.6669ZM190.769 103.674C189.606 103.674 188.564 103.418 187.643 102.908C186.722 102.383 186.005 101.669 185.492 100.765C184.978 99.8614 184.722 98.8556 184.722 97.7478C184.722 96.6388 184.978 95.633 185.492 94.7291C186.005 93.8252 186.722 93.1184 187.643 92.6088C188.564 92.0831 189.606 91.8216 190.769 91.8216C191.932 91.8216 192.973 92.0831 193.896 92.6088C194.817 93.1332 195.534 93.848 196.048 94.7519C196.56 95.6558 196.817 96.6535 196.817 97.7478C196.817 98.8556 196.56 99.8614 196.048 100.765C195.534 101.669 194.817 102.383 193.896 102.908C192.973 103.418 191.932 103.674 190.769 103.674ZM190.769 101.465C191.404 101.465 191.993 101.319 192.536 101.028C193.08 100.721 193.51 100.292 193.828 99.7367C194.16 99.168 194.325 98.5055 194.325 97.7478C194.325 96.9888 194.16 96.333 193.828 95.7791C193.51 95.2253 193.08 94.8029 192.536 94.5105C191.993 94.2047 191.404 94.0518 190.769 94.0518C190.135 94.0518 189.546 94.2047 189.002 94.5105C188.459 94.8029 188.021 95.2253 187.689 95.7791C187.371 96.333 187.213 96.9888 187.213 97.7478C187.213 98.5055 187.371 99.168 187.689 99.7367C188.021 100.292 188.459 100.721 189.002 101.028C189.546 101.319 190.135 101.465 190.769 101.465ZM198.913 92.1716H201.292V93.6361H201.406C201.738 93.1265 202.228 92.696 202.878 92.346C203.527 91.9959 204.259 91.8216 205.074 91.8216C206.116 91.8216 207.061 92.0764 207.905 92.586C208.751 93.097 209.417 93.8037 209.899 94.7076C210.398 95.5967 210.648 96.6106 210.648 97.7478C210.648 98.8851 210.398 99.9043 209.899 100.808C209.417 101.699 208.751 102.397 207.905 102.908C207.061 103.418 206.116 103.674 205.074 103.674C204.259 103.674 203.527 103.498 202.878 103.148C202.228 102.798 201.738 102.376 201.406 101.88H201.292L201.406 103.433V108.047H198.913V92.1716ZM204.712 101.465C205.316 101.465 205.883 101.311 206.411 101.005C206.94 100.7 207.362 100.262 207.679 99.6938C207.997 99.1252 208.155 98.476 208.155 97.7478C208.155 97.0183 207.997 96.3772 207.679 95.8234C207.362 95.2548 206.94 94.8176 206.411 94.5105C205.883 94.2047 205.316 94.0518 204.712 94.0518C204.109 94.0518 203.542 94.2047 203.013 94.5105C202.5 94.8176 202.085 95.2548 201.768 95.8234C201.45 96.3772 201.292 97.0183 201.292 97.7478C201.292 98.476 201.45 99.1252 201.768 99.6938C202.085 100.262 202.5 100.7 203.013 101.005C203.542 101.311 204.109 101.465 204.712 101.465ZM218.196 103.674C217.063 103.674 216.044 103.418 215.137 102.908C214.247 102.397 213.544 101.699 213.031 100.808C212.533 99.9043 212.284 98.8918 212.284 97.7693C212.284 96.7045 212.526 95.7215 213.009 94.8176C213.506 93.8989 214.194 93.1694 215.069 92.6303C215.946 92.0912 216.942 91.8216 218.06 91.8216C219.223 91.8216 220.227 92.0684 221.072 92.5646C221.933 93.0608 222.583 93.738 223.021 94.599C223.474 95.4586 223.7 96.4282 223.7 97.5064C223.7 97.7103 223.678 97.9665 223.632 98.2722H214.775C214.866 99.3075 215.243 100.11 215.908 100.678C216.588 101.232 217.372 101.508 218.264 101.508C218.973 101.508 219.585 101.355 220.098 101.05C220.627 100.729 221.049 100.299 221.366 99.7595L223.474 100.721C222.93 101.64 222.221 102.361 221.344 102.887C220.469 103.411 219.419 103.674 218.196 103.674ZM221.163 96.4349C221.133 96.042 221.005 95.6558 220.779 95.2762C220.551 94.8833 220.204 94.5547 219.735 94.2919C219.283 94.0304 218.724 93.8989 218.06 93.8989C217.26 93.8989 216.579 94.1323 216.021 94.599C215.478 95.0509 215.1 95.6625 214.889 96.4349H221.163ZM225.968 92.1716H228.348V93.8118H228.461C228.718 93.2431 229.163 92.7765 229.797 92.4117C230.432 92.0322 231.103 91.8431 231.813 91.8431C232.372 91.8431 232.841 91.9155 233.217 92.0616V94.5547C232.553 94.3214 231.957 94.2047 231.428 94.2047C230.854 94.2047 230.34 94.3509 229.887 94.6419C229.45 94.9343 229.102 95.3272 228.845 95.8234C228.588 96.3035 228.461 96.8359 228.461 97.4193V103.324H225.968V92.1716ZM244.847 103.674C243.502 103.674 242.295 103.295 241.223 102.537C240.15 101.778 239.41 100.714 239.003 99.3437L241.403 98.4036C241.645 99.2633 242.069 99.97 242.672 100.524C243.291 101.064 244.032 101.334 244.891 101.334C245.693 101.334 246.372 101.137 246.931 100.744C247.489 100.335 247.768 99.7809 247.768 99.0809C247.768 98.4399 247.52 97.9155 247.021 97.5064C246.538 97.084 245.685 96.6616 244.462 96.2378L243.443 95.8891C242.355 95.5243 241.441 94.9986 240.702 94.3147C239.961 93.6294 239.592 92.7255 239.592 91.603C239.592 90.8292 239.81 90.1157 240.249 89.4599C240.686 88.8028 241.291 88.2865 242.06 87.907C242.845 87.5127 243.729 87.3169 244.711 87.3169C246.131 87.3169 247.263 87.6522 248.109 88.3227C248.955 88.9785 249.52 89.7215 249.808 90.5529L247.52 91.4931C247.353 90.9969 247.036 90.5596 246.568 90.1814C246.1 89.8019 245.496 89.6128 244.757 89.6128C244.016 89.6128 243.39 89.7952 242.876 90.1586C242.377 90.5234 242.128 90.9901 242.128 91.5587C242.128 92.0979 242.355 92.5431 242.808 92.8931C243.261 93.2431 243.97 93.5784 244.937 93.8989L245.957 94.2262C247.346 94.6929 248.418 95.3057 249.173 96.0635C249.944 96.8064 250.329 97.8055 250.329 99.0595C250.329 100.08 250.056 100.94 249.513 101.64C248.97 102.325 248.274 102.835 247.429 103.17C246.599 103.506 245.737 103.674 244.847 103.674ZM256.983 103.498C256.469 103.498 255.985 103.418 255.532 103.258C255.079 103.097 254.71 102.887 254.422 102.624C253.774 101.996 253.449 101.143 253.449 100.065V94.2919H251.433V92.1716H253.449V89.0214H255.941V92.1716H258.75V94.2919H255.941V99.5409C255.941 100.138 256.062 100.561 256.303 100.808C256.53 101.101 256.921 101.247 257.481 101.247C257.737 101.247 257.963 101.217 258.161 101.158C258.356 101.086 258.568 100.976 258.794 100.831V103.17C258.297 103.39 257.692 103.498 256.983 103.498ZM265.331 103.674C263.927 103.674 262.856 103.273 262.115 102.471C261.39 101.654 261.028 100.524 261.028 99.0809V92.1716H263.52V98.7536C263.52 99.6575 263.738 100.335 264.177 100.787C264.63 101.239 265.219 101.465 265.944 101.465C266.533 101.465 267.054 101.319 267.507 101.028C267.96 100.721 268.307 100.32 268.549 99.8252C268.79 99.329 268.911 98.7966 268.911 98.2279V92.1716H271.402V103.324H269.047V101.88H268.911C268.593 102.405 268.103 102.835 267.439 103.17C266.773 103.506 266.072 103.674 265.331 103.674ZM279.13 103.674C278.088 103.674 277.145 103.418 276.299 102.908C275.453 102.397 274.78 101.699 274.283 100.808C273.8 99.9043 273.558 98.8851 273.558 97.7478C273.558 96.6106 273.8 95.5967 274.283 94.7076C274.78 93.8037 275.453 93.097 276.299 92.586C277.145 92.0764 278.088 91.8216 279.13 91.8216C279.945 91.8216 280.677 91.9959 281.327 92.346C281.976 92.696 282.468 93.1265 282.8 93.6361H282.912L282.8 92.0616V87.6669H285.291V103.324H282.912V101.88H282.8C282.468 102.376 281.976 102.798 281.327 103.148C280.677 103.498 279.945 103.674 279.13 103.674ZM279.492 101.465C280.097 101.465 280.655 101.311 281.169 101.005C281.697 100.7 282.121 100.262 282.437 99.6938C282.754 99.1252 282.912 98.476 282.912 97.7478C282.912 97.0183 282.754 96.3772 282.437 95.8234C282.121 95.2548 281.697 94.8176 281.169 94.5105C280.655 94.2047 280.097 94.0518 279.492 94.0518C278.888 94.0518 278.323 94.2047 277.793 94.5105C277.265 94.8176 276.842 95.2548 276.525 95.8234C276.208 96.3772 276.05 97.0183 276.05 97.7478C276.05 98.476 276.208 99.1252 276.525 99.6938C276.842 100.262 277.265 100.7 277.793 101.005C278.323 101.311 278.888 101.465 279.492 101.465ZM293.362 103.674C292.229 103.674 291.21 103.418 290.304 102.908C289.412 102.397 288.711 101.699 288.197 100.808C287.698 99.9043 287.449 98.8918 287.449 97.7693C287.449 96.7045 287.691 95.7215 288.174 94.8176C288.673 93.8989 289.359 93.1694 290.236 92.6303C291.111 92.0912 292.109 91.8216 293.225 91.8216C294.388 91.8216 295.392 92.0684 296.238 92.5646C297.098 93.0608 297.748 93.738 298.186 94.599C298.639 95.4586 298.865 96.4282 298.865 97.5064C298.865 97.7103 298.843 97.9665 298.797 98.2722H289.941C290.032 99.3075 290.41 100.11 291.074 100.678C291.753 101.232 292.538 101.508 293.43 101.508C294.139 101.508 294.751 101.355 295.265 101.05C295.793 100.729 296.215 100.299 296.533 99.7595L298.639 100.721C298.096 101.64 297.386 102.361 296.509 102.887C295.634 103.411 294.584 103.674 293.362 103.674ZM296.329 96.4349C296.298 96.042 296.17 95.6558 295.944 95.2762C295.718 94.8833 295.37 94.5547 294.902 94.2919C294.449 94.0304 293.889 93.8989 293.225 93.8989C292.425 93.8989 291.746 94.1323 291.188 94.599C290.643 95.0509 290.265 95.6625 290.054 96.4349H296.329ZM301.135 92.1716H303.513V93.6361H303.626C303.958 93.1117 304.45 92.6812 305.098 92.346C305.764 91.9959 306.465 91.8216 307.206 91.8216C308.61 91.8216 309.674 92.2226 310.399 93.0232C311.138 93.8118 311.509 94.89 311.509 96.2606V103.324H309.017V96.5878C309.017 95.7134 308.791 95.0724 308.338 94.6634C307.9 94.2557 307.288 94.0518 306.503 94.0518C305.944 94.0518 305.446 94.2047 305.008 94.5105C304.571 94.8029 304.23 95.1958 303.989 95.692C303.747 96.1868 303.626 96.7192 303.626 97.2879V103.324H301.135V92.1716ZM318.477 103.498C317.965 103.498 317.481 103.418 317.028 103.258C316.576 103.097 316.205 102.887 315.919 102.624C315.268 101.996 314.943 101.143 314.943 100.065V94.2919H312.928V92.1716H314.943V89.0214H317.435V92.1716H320.244V94.2919H317.435V99.5409C317.435 100.138 317.556 100.561 317.798 100.808C318.024 101.101 318.418 101.247 318.976 101.247C319.233 101.247 319.459 101.217 319.655 101.158C319.851 101.086 320.064 100.976 320.29 100.831V103.17C319.791 103.39 319.187 103.498 318.477 103.498ZM335.544 103.674C333.973 103.674 332.54 103.316 331.241 102.603C329.942 101.888 328.922 100.903 328.182 99.6495C327.443 98.3956 327.072 97.0116 327.072 95.4948C327.072 93.9794 327.443 92.5941 328.182 91.3401C328.922 90.0862 329.942 89.1019 331.241 88.3884C332.54 87.6736 333.973 87.3169 335.544 87.3169C336.767 87.3169 337.877 87.5355 338.874 87.9727C339.885 88.4099 340.777 89.0442 341.547 89.8744L339.735 91.5587C339.176 90.9177 338.557 90.443 337.877 90.1372C337.197 89.8167 336.42 89.6557 335.544 89.6557C334.457 89.6557 333.461 89.8972 332.555 90.3773C331.663 90.8587 330.953 91.544 330.425 92.4331C329.896 93.3075 329.632 94.3281 329.632 95.4948C329.632 96.6616 329.896 97.6889 330.425 98.578C330.953 99.4524 331.663 100.131 332.555 100.612C333.461 101.093 334.457 101.334 335.544 101.334C337.356 101.334 338.896 100.604 340.165 99.1466L342 100.852C341.215 101.742 340.27 102.435 339.169 102.93C338.066 103.426 336.859 103.674 335.544 103.674ZM344.203 87.6669H346.695V103.324H344.203V87.6669ZM353.837 103.674C352.432 103.674 351.36 103.273 350.619 102.471C349.894 101.654 349.533 100.524 349.533 99.0809V92.1716H352.024V98.7536C352.024 99.6575 352.243 100.335 352.681 100.787C353.134 101.239 353.723 101.465 354.448 101.465C355.037 101.465 355.558 101.319 356.011 101.028C356.464 100.721 356.811 100.32 357.053 99.8252C357.294 99.329 357.415 98.7966 357.415 98.2279V92.1716H359.907V103.324H357.551V101.88H357.415C357.098 102.405 356.607 102.835 355.943 103.17C355.279 103.506 354.576 103.674 353.837 103.674ZM368.969 103.674C368.153 103.674 367.42 103.498 366.771 103.148C366.121 102.798 365.631 102.376 365.299 101.88H365.186V103.324H362.806V87.6669H365.299V92.0616L365.186 93.6361H365.299C365.631 93.1265 366.121 92.696 366.771 92.346C367.42 91.9959 368.153 91.8216 368.969 91.8216C370.011 91.8216 370.954 92.0764 371.8 92.586C372.646 93.097 373.31 93.8037 373.793 94.7076C374.292 95.5967 374.541 96.6106 374.541 97.7478C374.541 98.8851 374.292 99.9043 373.793 100.808C373.31 101.699 372.646 102.397 371.8 102.908C370.954 103.418 370.011 103.674 368.969 103.674ZM368.606 101.465C369.21 101.465 369.776 101.311 370.305 101.005C370.833 100.7 371.257 100.262 371.573 99.6938C371.89 99.1252 372.048 98.476 372.048 97.7478C372.048 97.0183 371.89 96.3772 371.573 95.8234C371.257 95.2548 370.833 94.8176 370.305 94.5105C369.776 94.2047 369.21 94.0518 368.606 94.0518C368.002 94.0518 367.435 94.2047 366.907 94.5105C366.393 94.8176 365.978 95.2548 365.661 95.8234C365.344 96.3772 365.186 97.0183 365.186 97.7478C365.186 98.476 365.344 99.1252 365.661 99.6938C365.978 100.262 366.393 100.7 366.907 101.005C367.435 101.311 368.002 101.465 368.606 101.465ZM380.911 103.674C379.583 103.674 378.495 103.396 377.649 102.843C376.805 102.274 376.208 101.553 375.86 100.678L378.08 99.7367C378.352 100.32 378.73 100.765 379.214 101.071C379.711 101.377 380.278 101.531 380.911 101.531C381.531 101.531 382.052 101.428 382.475 101.224C382.898 101.005 383.109 100.685 383.109 100.262C383.109 99.8533 382.928 99.5328 382.566 99.2995C382.203 99.0661 381.645 98.8623 380.889 98.688L379.507 98.3594C378.586 98.1408 377.823 97.7546 377.22 97.2007C376.616 96.6468 376.313 95.9468 376.313 95.1019C376.313 94.4448 376.51 93.8694 376.902 93.3732C377.31 92.8784 377.854 92.4988 378.533 92.236C379.214 91.9597 379.953 91.8216 380.753 91.8216C381.825 91.8216 382.77 92.0322 383.585 92.4559C384.401 92.8636 384.99 93.4618 385.351 94.249L383.177 95.1663C382.739 94.3066 381.939 93.8761 380.776 93.8761C380.217 93.8761 379.748 93.9861 379.372 94.2047C378.994 94.4233 378.805 94.7076 378.805 95.0576C378.805 95.3929 378.948 95.6705 379.236 95.8891C379.522 96.093 379.946 96.2673 380.504 96.4135L382.203 96.8292C383.335 97.1055 384.188 97.5293 384.762 98.0965C385.351 98.6517 385.645 99.3371 385.645 100.152C385.645 100.852 385.434 101.472 385.012 102.011C384.604 102.537 384.038 102.945 383.313 103.236C382.588 103.528 381.788 103.674 380.911 103.674Z" />
    <path
        d="M222.328 53.1798L240.966 42.7914C243.563 41.3436 246.885 42.2028 248.384 44.7105C249.884 47.2182 248.994 50.4248 246.397 51.8726L227.759 62.2609C225.161 63.7087 221.84 62.8495 220.34 60.3419C218.84 57.8342 219.73 54.6276 222.328 53.1798Z"
        fill="#FBBC04" />
    <path
        d="M209.092 41.4277L190.454 51.816C187.857 53.2638 184.535 52.4046 183.036 49.8969C181.536 47.3892 182.426 44.1827 185.023 42.7348L203.661 32.3465C206.259 30.8987 209.58 31.7579 211.08 34.2656C212.58 36.7733 211.69 39.9798 209.092 41.4277Z"
        fill="#EA4335" />
    <path
        d="M208.633 53.1783L189.995 42.79C187.398 41.3421 184.076 42.2014 182.577 44.7091C181.077 47.2167 181.967 50.4233 184.564 51.8711L203.202 62.2595C205.8 63.7073 209.121 62.8481 210.621 60.3404C212.121 57.8327 211.231 54.6261 208.633 53.1783Z"
        fill="#4285F4" />
    <path
        d="M222.011 41.2513L241.282 51.9924C243.705 53.3428 246.803 52.5414 248.202 50.2024L248.567 49.5914C249.966 47.2524 249.136 44.2616 246.713 42.9112L227.442 32.1701C225.019 30.8197 221.921 31.6211 220.523 33.9601L220.157 34.5711C218.758 36.91 219.588 39.9009 222.011 41.2513Z"
        fill="#0F9D58" />
    <path
        d="M47.1982 121.904H48.4818V132.466H47.1982V121.904ZM50.669 124.943H51.9068V126.049H51.9679C52.1818 125.676 52.5231 125.361 52.9917 125.105C53.4602 124.839 53.9595 124.707 54.4892 124.707C55.4264 124.707 56.1395 124.972 56.6285 125.503C57.1276 126.025 57.3772 126.738 57.3772 127.642V132.466H56.0784V127.834C56.0784 127.137 55.9051 126.63 55.5588 126.315C55.2125 126.001 54.7388 125.843 54.1377 125.843C53.72 125.843 53.3431 125.957 53.007 126.182C52.6809 126.408 52.4263 126.709 52.2429 127.082C52.0596 127.446 51.9679 127.83 51.9679 128.232V132.466H50.669V124.943ZM62.5351 132.702C61.8425 132.702 61.2108 132.531 60.6403 132.186C60.0801 131.843 59.6369 131.37 59.3109 130.77C58.985 130.161 58.8219 129.471 58.8219 128.704C58.8219 127.948 58.985 127.264 59.3109 126.654C59.6369 126.045 60.0801 125.568 60.6403 125.223C61.2108 124.88 61.8425 124.707 62.5351 124.707C63.1362 124.707 63.671 124.839 64.1396 125.105C64.6083 125.361 64.9647 125.68 65.2092 126.064H65.2703L65.2092 125.016V121.904H66.5081V132.466H65.2703V131.36H65.2092C64.9647 131.734 64.6083 132.053 64.1396 132.319C63.671 132.575 63.1362 132.702 62.5351 132.702ZM62.6879 131.566C63.1463 131.566 63.5692 131.448 63.9562 131.212C64.3535 130.976 64.6694 130.642 64.9036 130.209C65.1481 129.777 65.2703 129.276 65.2703 128.704C65.2703 128.134 65.1481 127.633 64.9036 127.2C64.6694 126.768 64.3535 126.433 63.9562 126.197C63.5692 125.961 63.1463 125.843 62.6879 125.843C62.2398 125.843 61.8169 125.961 61.4196 126.197C61.0223 126.433 60.7014 126.772 60.457 127.214C60.2227 127.648 60.1055 128.144 60.1055 128.704C60.1055 129.265 60.2227 129.767 60.457 130.209C60.7014 130.642 61.0223 130.976 61.4196 131.212C61.8169 131.448 62.2398 131.566 62.6879 131.566ZM69.1908 123.556C68.9362 123.556 68.7171 123.467 68.5337 123.29C68.3504 123.113 68.2587 122.903 68.2587 122.656C68.2587 122.411 68.3504 122.204 68.5337 122.037C68.7171 121.86 68.9362 121.771 69.1908 121.771C69.4454 121.771 69.6645 121.86 69.8479 122.037C70.0312 122.204 70.1229 122.411 70.1229 122.656C70.1229 122.903 70.0312 123.113 69.8479 123.29C69.6746 123.467 69.4557 123.556 69.1908 123.556ZM68.549 124.943H69.8326V132.466H68.549V124.943ZM74.2899 132.702C73.7196 132.702 73.2102 132.595 72.7619 132.378C72.3137 132.162 71.9673 131.867 71.7228 131.493C71.4783 131.109 71.3561 130.677 71.3561 130.194C71.3561 129.398 71.6668 128.778 72.2882 128.336C72.9097 127.884 73.694 127.657 74.6414 127.657C75.1101 127.657 75.543 127.707 75.9403 127.805C76.3478 127.904 76.6584 128.016 76.8724 128.144V127.686C76.8724 127.126 76.6687 126.679 76.2611 126.344C75.8537 126.001 75.3393 125.828 74.7178 125.828C74.2798 125.828 73.8774 125.922 73.5106 126.108C73.1439 126.285 72.8536 126.536 72.6396 126.86L71.6617 126.152C71.9673 125.7 72.385 125.346 72.9147 125.09C73.4547 124.835 74.0506 124.707 74.7025 124.707C75.762 124.707 76.5923 124.977 77.1933 125.518C77.8045 126.049 78.1101 126.777 78.1101 127.701V132.466H76.8724V131.389H76.8112C76.5872 131.754 76.251 132.064 75.8027 132.319C75.3546 132.575 74.8503 132.702 74.2899 132.702ZM74.4122 131.596C74.8503 131.596 75.2578 131.488 75.6346 131.271C76.0117 131.055 76.3121 130.766 76.5362 130.401C76.7604 130.037 76.8724 129.639 76.8724 129.206C76.6279 129.049 76.3274 128.922 75.9708 128.822C75.6144 128.725 75.2373 128.675 74.84 128.675C74.127 128.675 73.587 128.818 73.2203 129.103C72.8638 129.388 72.6855 129.757 72.6855 130.209C72.6855 130.622 72.8486 130.957 73.1745 131.212C73.5005 131.468 73.9131 131.596 74.4122 131.596ZM79.9171 124.943H81.1548V126.049H81.216C81.4299 125.676 81.7712 125.361 82.2398 125.105C82.7083 124.839 83.2076 124.707 83.7373 124.707C84.6745 124.707 85.3876 124.972 85.8765 125.503C86.3757 126.025 86.6253 126.738 86.6253 127.642V132.466H85.3264V127.834C85.3264 127.137 85.1532 126.63 84.8069 126.315C84.4606 126.001 83.9869 125.843 83.3858 125.843C82.9681 125.843 82.5912 125.957 82.255 126.182C81.929 126.408 81.6744 126.709 81.491 127.082C81.3076 127.446 81.216 127.83 81.216 128.232V132.466H79.9171V124.943ZM92.294 121.904H93.5776V132.466H92.294V121.904ZM95.7648 124.943H97.0025V126.049H97.0636C97.2776 125.676 97.6189 125.361 98.0874 125.105C98.556 124.839 99.0552 124.707 99.5849 124.707C100.522 124.707 101.235 124.972 101.724 125.503C102.223 126.025 102.473 126.738 102.473 127.642V132.466H101.174V127.834C101.174 127.137 101.001 126.63 100.655 126.315C100.308 126.001 99.8346 125.843 99.2335 125.843C98.8158 125.843 98.4389 125.957 98.1027 126.182C97.7767 126.408 97.522 126.709 97.3387 127.082C97.1553 127.446 97.0636 127.83 97.0636 128.232V132.466H95.7648V124.943ZM106.976 132.702C106.14 132.702 105.442 132.516 104.882 132.142C104.322 131.758 103.925 131.271 103.69 130.681L104.852 130.18C105.045 130.633 105.33 130.982 105.707 131.227C106.094 131.474 106.517 131.596 106.976 131.596C107.465 131.596 107.882 131.503 108.229 131.316C108.575 131.12 108.748 130.843 108.748 130.489C108.748 130.176 108.611 129.925 108.336 129.737C108.061 129.541 107.628 129.374 107.037 129.235L106.089 128.999C105.468 128.852 104.959 128.601 104.561 128.247C104.164 127.893 103.965 127.436 103.965 126.875C103.965 126.443 104.098 126.064 104.363 125.739C104.638 125.405 104.999 125.149 105.448 124.972C105.896 124.795 106.38 124.707 106.899 124.707C107.582 124.707 108.188 124.85 108.718 125.134C109.258 125.42 109.64 125.818 109.864 126.329L108.733 126.831C108.387 126.163 107.77 125.828 106.884 125.828C106.456 125.828 106.079 125.927 105.753 126.123C105.437 126.311 105.279 126.551 105.279 126.846C105.279 127.122 105.392 127.347 105.616 127.524C105.84 127.692 106.176 127.83 106.624 127.937L107.755 128.218C108.519 128.405 109.094 128.686 109.482 129.058C109.869 129.423 110.062 129.87 110.062 130.401C110.062 130.864 109.925 131.271 109.65 131.625C109.375 131.97 109.003 132.235 108.534 132.422C108.066 132.61 107.546 132.702 106.976 132.702ZM114.399 132.584C114.083 132.584 113.787 132.536 113.512 132.437C113.247 132.339 113.023 132.206 112.84 132.038C112.636 131.852 112.483 131.636 112.381 131.389C112.28 131.144 112.229 130.843 112.229 130.489V126.079H110.869V124.943H112.229V122.818H113.528V124.943H115.422V126.079H113.528V130.18C113.528 130.593 113.609 130.898 113.772 131.094C113.966 131.311 114.246 131.419 114.612 131.419C114.908 131.419 115.193 131.336 115.468 131.168V132.392C115.315 132.462 115.157 132.51 114.994 132.54C114.842 132.569 114.643 132.584 114.399 132.584ZM117.838 123.556C117.583 123.556 117.364 123.467 117.181 123.29C116.998 123.113 116.906 122.903 116.906 122.656C116.906 122.411 116.998 122.204 117.181 122.037C117.364 121.86 117.583 121.771 117.838 121.771C118.093 121.771 118.312 121.86 118.495 122.037C118.678 122.204 118.77 122.411 118.77 122.656C118.77 122.903 118.678 123.113 118.495 123.29C118.322 123.467 118.103 123.556 117.838 123.556ZM117.196 124.943H118.48V132.466H117.196V124.943ZM123.442 132.584C123.126 132.584 122.83 132.536 122.555 132.437C122.29 132.339 122.066 132.206 121.883 132.038C121.679 131.852 121.526 131.636 121.425 131.389C121.323 131.144 121.272 130.843 121.272 130.489V126.079H119.912V124.943H121.272V122.818H122.571V124.943H124.465V126.079H122.571V130.18C122.571 130.593 122.652 130.898 122.815 131.094C123.009 131.311 123.289 131.419 123.656 131.419C123.951 131.419 124.236 131.336 124.511 131.168V132.392C124.358 132.462 124.2 132.51 124.038 132.54C123.885 132.569 123.686 132.584 123.442 132.584ZM128.869 132.702C127.932 132.702 127.214 132.437 126.715 131.906C126.226 131.374 125.981 130.633 125.981 129.678V124.943H127.28V129.486C127.28 130.205 127.448 130.731 127.784 131.065C128.121 131.4 128.574 131.566 129.144 131.566C129.582 131.566 129.97 131.454 130.306 131.227C130.652 131.002 130.917 130.707 131.1 130.342C131.294 129.978 131.391 129.595 131.391 129.191V124.943H132.69V132.466H131.452V131.374H131.391C131.177 131.749 130.835 132.064 130.367 132.319C129.898 132.575 129.399 132.702 128.869 132.702ZM137.678 132.584C137.362 132.584 137.066 132.536 136.791 132.437C136.527 132.339 136.302 132.206 136.119 132.038C135.915 131.852 135.762 131.636 135.661 131.389C135.559 131.144 135.508 130.843 135.508 130.489V126.079H134.148V124.943H135.508V122.818H136.807V124.943H138.701V126.079H136.807V130.18C136.807 130.593 136.888 130.898 137.051 131.094C137.245 131.311 137.525 131.419 137.891 131.419C138.187 131.419 138.472 131.336 138.747 131.168V132.392C138.594 132.462 138.437 132.51 138.274 132.54C138.121 132.569 137.922 132.584 137.678 132.584ZM143.404 132.702C142.66 132.702 141.993 132.531 141.403 132.186C140.811 131.843 140.348 131.37 140.012 130.77C139.686 130.161 139.523 129.477 139.523 128.719C139.523 127.992 139.676 127.323 139.981 126.713C140.297 126.104 140.74 125.617 141.311 125.252C141.88 124.889 142.543 124.707 143.297 124.707C144.061 124.707 144.723 124.874 145.284 125.208C145.844 125.533 146.272 125.986 146.567 126.565C146.873 127.146 147.026 127.81 147.026 128.557C147.026 128.704 147.011 128.833 146.98 128.94H140.822C140.852 129.512 140.994 129.993 141.25 130.386C141.504 130.78 141.825 131.075 142.212 131.271C142.61 131.468 143.022 131.566 143.45 131.566C144.448 131.566 145.217 131.114 145.758 130.209L146.858 130.725C146.522 131.336 146.063 131.817 145.482 132.171C144.912 132.525 144.218 132.702 143.404 132.702ZM145.651 127.908C145.63 127.594 145.538 127.279 145.376 126.964C145.212 126.65 144.952 126.384 144.596 126.167C144.249 125.951 143.811 125.843 143.282 125.843C142.671 125.843 142.151 126.034 141.723 126.418C141.305 126.792 141.03 127.288 140.898 127.908H145.651ZM155.689 132.702C154.925 132.702 154.237 132.525 153.626 132.171C153.014 131.817 152.535 131.336 152.189 130.725C151.853 130.117 151.685 129.442 151.685 128.704C151.685 127.967 151.853 127.294 152.189 126.683C152.535 126.075 153.014 125.592 153.626 125.238C154.237 124.884 154.925 124.707 155.689 124.707C156.453 124.707 157.14 124.884 157.751 125.238C158.363 125.592 158.836 126.075 159.173 126.683C159.518 127.294 159.692 127.967 159.692 128.704C159.692 129.442 159.518 130.117 159.173 130.725C158.836 131.336 158.363 131.817 157.751 132.171C157.14 132.525 156.453 132.702 155.689 132.702ZM155.689 131.566C156.166 131.566 156.61 131.454 157.018 131.227C157.435 130.991 157.767 130.657 158.011 130.224C158.265 129.792 158.393 129.285 158.393 128.704C158.393 128.125 158.265 127.618 158.011 127.185C157.767 126.753 157.435 126.423 157.018 126.197C156.61 125.961 156.166 125.843 155.689 125.843C155.209 125.843 154.761 125.961 154.344 126.197C153.926 126.423 153.59 126.753 153.335 127.185C153.091 127.618 152.969 128.125 152.969 128.704C152.969 129.285 153.091 129.792 153.335 130.224C153.59 130.657 153.926 130.991 154.344 131.227C154.761 131.454 155.209 131.566 155.689 131.566ZM161.877 126.079H160.441V124.943H161.877V124.131C161.877 123.659 161.99 123.246 162.213 122.892C162.438 122.538 162.738 122.269 163.115 122.081C163.493 121.885 163.91 121.786 164.368 121.786C164.807 121.786 165.189 121.845 165.514 121.963V123.187C165.331 123.119 165.158 123.065 164.994 123.025C164.832 122.977 164.639 122.951 164.414 122.951C164.078 122.951 163.787 123.069 163.543 123.305C163.298 123.532 163.176 123.851 163.176 124.264V124.943H165.178V126.079H163.176V132.466H161.877V126.079ZM170.577 121.904H171.861V132.466H170.577V121.904ZM174.048 124.943H175.285V126.049H175.346C175.56 125.676 175.902 125.361 176.37 125.105C176.84 124.839 177.338 124.707 177.868 124.707C178.805 124.707 179.518 124.972 180.007 125.503C180.507 126.025 180.756 126.738 180.756 127.642V132.466H179.457V127.834C179.457 127.137 179.285 126.63 178.937 126.315C178.591 126.001 178.118 125.843 177.516 125.843C177.099 125.843 176.722 125.957 176.385 126.182C176.06 126.408 175.805 126.709 175.621 127.082C175.438 127.446 175.346 127.83 175.346 128.232V132.466H174.048V124.943ZM183.366 126.079H181.93V124.943H183.366V124.131C183.366 123.659 183.478 123.246 183.702 122.892C183.926 122.538 184.227 122.269 184.604 122.081C184.98 121.885 185.398 121.786 185.857 121.786C186.294 121.786 186.676 121.845 187.003 121.963V123.187C186.819 123.119 186.646 123.065 186.483 123.025C186.321 122.977 186.126 122.951 185.902 122.951C185.566 122.951 185.276 123.069 185.032 123.305C184.787 123.532 184.665 123.851 184.665 124.264V124.943H186.667V126.079H184.665V132.466H183.366V126.079ZM191.367 132.702C190.603 132.702 189.916 132.525 189.305 132.171C188.693 131.817 188.215 131.336 187.868 130.725C187.532 130.117 187.364 129.442 187.364 128.704C187.364 127.967 187.532 127.294 187.868 126.683C188.215 126.075 188.693 125.592 189.305 125.238C189.916 124.884 190.603 124.707 191.367 124.707C192.131 124.707 192.819 124.884 193.43 125.238C194.042 125.592 194.515 126.075 194.851 126.683C195.199 127.294 195.371 127.967 195.371 128.704C195.371 129.442 195.199 130.117 194.851 130.725C194.515 131.336 194.042 131.817 193.43 132.171C192.819 132.525 192.131 132.702 191.367 132.702ZM191.367 131.566C191.847 131.566 192.29 131.454 192.697 131.227C193.115 130.991 193.446 130.657 193.69 130.224C193.946 129.792 194.072 129.285 194.072 128.704C194.072 128.125 193.946 127.618 193.69 127.185C193.446 126.753 193.115 126.423 192.697 126.197C192.29 125.961 191.847 125.843 191.367 125.843C190.89 125.843 190.441 125.961 190.023 126.197C189.606 126.423 189.27 126.753 189.014 127.185C188.77 127.618 188.647 128.125 188.647 128.704C188.647 129.285 188.77 129.792 189.014 130.224C189.27 130.657 189.606 130.991 190.023 131.227C190.441 131.454 190.89 131.566 191.367 131.566ZM196.731 124.943H197.969V126.152H198.03C198.183 125.739 198.477 125.4 198.916 125.134C199.354 124.86 199.812 124.721 200.291 124.721C200.647 124.721 200.953 124.771 201.208 124.869V126.226C200.882 126.069 200.515 125.99 200.108 125.99C199.73 125.99 199.384 126.093 199.069 126.3C198.752 126.506 198.498 126.787 198.305 127.141C198.121 127.485 198.03 127.86 198.03 128.262V132.466H196.731V124.943ZM202.461 124.943H203.699V126.049H203.76C203.984 125.666 204.32 125.346 204.769 125.09C205.216 124.835 205.69 124.707 206.19 124.707C206.759 124.707 207.254 124.839 207.672 125.105C208.1 125.37 208.405 125.724 208.589 126.167C208.864 125.724 209.225 125.37 209.674 125.105C210.132 124.839 210.661 124.707 211.263 124.707C212.159 124.707 212.831 124.972 213.28 125.503C213.738 126.025 213.967 126.738 213.967 127.642V132.466H212.684V127.834C212.684 127.137 212.535 126.63 212.241 126.315C211.945 126.001 211.507 125.843 210.927 125.843C210.539 125.843 210.188 125.951 209.872 126.167C209.556 126.384 209.307 126.674 209.123 127.037C208.95 127.402 208.864 127.795 208.864 128.218V132.466H207.565V127.849C207.565 127.141 207.416 126.63 207.122 126.315C206.826 126.001 206.392 125.843 205.823 125.843C205.435 125.843 205.084 125.957 204.769 126.182C204.452 126.399 204.203 126.694 204.02 127.067C203.846 127.432 203.76 127.825 203.76 128.247V132.466H202.461V124.943ZM218.247 132.702C217.676 132.702 217.167 132.595 216.719 132.378C216.271 132.162 215.925 131.867 215.68 131.493C215.436 131.109 215.314 130.677 215.314 130.194C215.314 129.398 215.623 128.778 216.246 128.336C216.867 127.884 217.651 127.657 218.599 127.657C219.067 127.657 219.5 127.707 219.898 127.805C220.305 127.904 220.616 128.016 220.83 128.144V127.686C220.83 127.126 220.626 126.679 220.219 126.344C219.81 126.001 219.296 125.828 218.675 125.828C218.236 125.828 217.835 125.922 217.468 126.108C217.101 126.285 216.811 126.536 216.597 126.86L215.619 126.152C215.925 125.7 216.341 125.346 216.872 125.09C217.411 124.835 218.007 124.707 218.66 124.707C219.719 124.707 220.549 124.977 221.151 125.518C221.762 126.049 222.068 126.777 222.068 127.701V132.466H220.83V131.389H220.769C220.544 131.754 220.207 132.064 219.76 132.319C219.311 132.575 218.807 132.702 218.247 132.702ZM218.37 131.596C218.807 131.596 219.214 131.488 219.592 131.271C219.969 131.055 220.269 130.766 220.494 130.401C220.717 130.037 220.83 129.639 220.83 129.206C220.585 129.049 220.284 128.922 219.928 128.822C219.571 128.725 219.195 128.675 218.798 128.675C218.083 128.675 217.544 128.818 217.178 129.103C216.821 129.388 216.643 129.757 216.643 130.209C216.643 130.622 216.805 130.957 217.132 131.212C217.457 131.468 217.87 131.596 218.37 131.596ZM226.72 132.584C226.404 132.584 226.109 132.536 225.834 132.437C225.568 132.339 225.345 132.206 225.161 132.038C224.957 131.852 224.804 131.636 224.703 131.389C224.601 131.144 224.55 130.843 224.55 130.489V126.079H223.19V124.943H224.55V122.818H225.849V124.943H227.744V126.079H225.849V130.18C225.849 130.593 225.931 130.898 226.093 131.094C226.286 131.311 226.567 131.419 226.934 131.419C227.23 131.419 227.514 131.336 227.789 131.168V132.392C227.637 132.462 227.478 132.51 227.316 132.54C227.163 132.569 226.964 132.584 226.72 132.584ZM230.159 123.556C229.905 123.556 229.686 123.467 229.502 123.29C229.319 123.113 229.227 122.903 229.227 122.656C229.227 122.411 229.319 122.204 229.502 122.037C229.686 121.86 229.905 121.771 230.159 121.771C230.415 121.771 230.633 121.86 230.816 122.037C231 122.204 231.091 122.411 231.091 122.656C231.091 122.903 231 123.113 230.816 123.29C230.644 123.467 230.425 123.556 230.159 123.556ZM229.518 124.943H230.801V132.466H229.518V124.943ZM236.359 132.702C235.595 132.702 234.907 132.525 234.296 132.171C233.685 131.817 233.206 131.336 232.86 130.725C232.524 130.117 232.356 129.442 232.356 128.704C232.356 127.967 232.524 127.294 232.86 126.683C233.206 126.075 233.685 125.592 234.296 125.238C234.907 124.884 235.595 124.707 236.359 124.707C237.123 124.707 237.811 124.884 238.422 125.238C239.033 125.592 239.507 126.075 239.843 126.683C240.189 127.294 240.363 127.967 240.363 128.704C240.363 129.442 240.189 130.117 239.843 130.725C239.507 131.336 239.033 131.817 238.422 132.171C237.811 132.525 237.123 132.702 236.359 132.702ZM236.359 131.566C236.838 131.566 237.282 131.454 237.689 131.227C238.107 130.991 238.437 130.657 238.682 130.224C238.936 129.792 239.064 129.285 239.064 128.704C239.064 128.125 238.936 127.618 238.682 127.185C238.437 126.753 238.107 126.423 237.689 126.197C237.282 125.961 236.838 125.843 236.359 125.843C235.88 125.843 235.433 125.961 235.014 126.197C234.596 126.423 234.26 126.753 234.006 127.185C233.761 127.618 233.639 128.125 233.639 128.704C233.639 129.285 233.761 129.792 234.006 130.224C234.26 130.657 234.596 130.991 235.014 131.227C235.433 131.454 235.88 131.566 236.359 131.566ZM241.721 124.943H242.959V126.049H243.02C243.234 125.676 243.576 125.361 244.044 125.105C244.513 124.839 245.012 124.707 245.541 124.707C246.479 124.707 247.192 124.972 247.681 125.503C248.181 126.025 248.429 126.738 248.429 127.642V132.466H247.131V127.834C247.131 127.137 246.958 126.63 246.611 126.315C246.265 126.001 245.791 125.843 245.19 125.843C244.773 125.843 244.395 125.957 244.059 126.182C243.734 126.408 243.478 126.709 243.295 127.082C243.112 127.446 243.02 127.83 243.02 128.232V132.466H241.721V124.943ZM255.732 123.099H252.661V121.904H260.087V123.099H257.031V132.466H255.732V123.099ZM263.709 132.702C262.965 132.702 262.299 132.531 261.707 132.186C261.116 131.843 260.653 131.37 260.316 130.77C259.991 130.161 259.827 129.477 259.827 128.719C259.827 127.992 259.98 127.323 260.286 126.713C260.603 126.104 261.046 125.617 261.615 125.252C262.186 124.889 262.849 124.707 263.602 124.707C264.366 124.707 265.028 124.874 265.588 125.208C266.149 125.533 266.577 125.986 266.872 126.565C267.177 127.146 267.33 127.81 267.33 128.557C267.33 128.704 267.315 128.833 267.284 128.94H261.126C261.157 129.512 261.3 129.993 261.554 130.386C261.81 130.78 262.131 131.075 262.517 131.271C262.914 131.468 263.327 131.566 263.754 131.566C264.753 131.566 265.523 131.114 266.062 130.209L267.162 130.725C266.826 131.336 266.367 131.817 265.787 132.171C265.217 132.525 264.524 132.702 263.709 132.702ZM265.955 127.908C265.935 127.594 265.844 127.279 265.68 126.964C265.517 126.65 265.258 126.384 264.901 126.167C264.555 125.951 264.117 125.843 263.586 125.843C262.975 125.843 262.456 126.034 262.028 126.418C261.611 126.792 261.336 127.288 261.203 127.908H265.955ZM272.455 132.702C271.702 132.702 271.024 132.531 270.422 132.186C269.822 131.832 269.353 131.356 269.017 130.755C268.68 130.146 268.512 129.462 268.512 128.704C268.512 127.948 268.68 127.264 269.017 126.654C269.353 126.045 269.822 125.568 270.422 125.223C271.024 124.88 271.702 124.707 272.455 124.707C273.301 124.707 274.009 124.898 274.579 125.282C275.159 125.656 275.572 126.158 275.816 126.787L274.64 127.259C274.447 126.797 274.156 126.447 273.769 126.211C273.392 125.966 272.934 125.843 272.394 125.843C271.935 125.843 271.507 125.966 271.11 126.211C270.713 126.447 270.392 126.783 270.147 127.214C269.914 127.648 269.796 128.144 269.796 128.704C269.796 129.265 269.914 129.762 270.147 130.194C270.392 130.627 270.713 130.967 271.11 131.212C271.507 131.448 271.935 131.566 272.394 131.566C272.944 131.566 273.417 131.444 273.815 131.197C274.212 130.952 274.508 130.603 274.701 130.15L275.862 130.622C275.598 131.242 275.17 131.743 274.579 132.127C273.998 132.51 273.291 132.702 272.455 132.702ZM277.267 121.904H278.566V125.016L278.504 126.049H278.566C278.779 125.666 279.116 125.346 279.574 125.09C280.042 124.835 280.552 124.707 281.102 124.707C282.05 124.707 282.773 124.977 283.272 125.518C283.771 126.049 284.021 126.757 284.021 127.642V132.466H282.722V127.834C282.722 127.155 282.544 126.654 282.187 126.329C281.83 126.005 281.367 125.843 280.797 125.843C280.39 125.843 280.012 125.961 279.666 126.197C279.33 126.433 279.06 126.738 278.856 127.111C278.663 127.485 278.566 127.874 278.566 128.277V132.466H277.267V121.904ZM285.892 124.943H287.13V126.049H287.191C287.405 125.676 287.746 125.361 288.215 125.105C288.683 124.839 289.183 124.707 289.712 124.707C290.65 124.707 291.362 124.972 291.851 125.503C292.35 126.025 292.6 126.738 292.6 127.642V132.466H291.301V127.834C291.301 127.137 291.128 126.63 290.782 126.315C290.436 126.001 289.962 125.843 289.361 125.843C288.942 125.843 288.566 125.957 288.23 126.182C287.903 126.408 287.649 126.709 287.466 127.082C287.282 127.446 287.191 127.83 287.191 128.232V132.466H285.892V124.943ZM298.048 132.702C297.284 132.702 296.597 132.525 295.985 132.171C295.374 131.817 294.895 131.336 294.549 130.725C294.213 130.117 294.045 129.442 294.045 128.704C294.045 127.967 294.213 127.294 294.549 126.683C294.895 126.075 295.374 125.592 295.985 125.238C296.597 124.884 297.284 124.707 298.048 124.707C298.812 124.707 299.5 124.884 300.111 125.238C300.722 125.592 301.196 126.075 301.532 126.683C301.878 127.294 302.052 127.967 302.052 128.704C302.052 129.442 301.878 130.117 301.532 130.725C301.196 131.336 300.722 131.817 300.111 132.171C299.5 132.525 298.812 132.702 298.048 132.702ZM298.048 131.566C298.528 131.566 298.971 131.454 299.378 131.227C299.796 130.991 300.127 130.657 300.371 130.224C300.625 129.792 300.753 129.285 300.753 128.704C300.753 128.125 300.625 127.618 300.371 127.185C300.127 126.753 299.796 126.423 299.378 126.197C298.971 125.961 298.528 125.843 298.048 125.843C297.569 125.843 297.122 125.961 296.704 126.197C296.286 126.423 295.949 126.753 295.695 127.185C295.451 127.618 295.328 128.125 295.328 128.704C295.328 129.285 295.451 129.792 295.695 130.224C295.949 130.657 296.286 130.991 296.704 131.227C297.122 131.454 297.569 131.566 298.048 131.566ZM303.485 121.904H304.784V132.466H303.485V121.904ZM310.226 132.702C309.462 132.702 308.774 132.525 308.163 132.171C307.552 131.817 307.072 131.336 306.726 130.725C306.39 130.117 306.222 129.442 306.222 128.704C306.222 127.967 306.39 127.294 306.726 126.683C307.072 126.075 307.552 125.592 308.163 125.238C308.774 124.884 309.462 124.707 310.226 124.707C310.99 124.707 311.677 124.884 312.289 125.238C312.9 125.592 313.373 126.075 313.71 126.683C314.055 127.294 314.229 127.967 314.229 128.704C314.229 129.442 314.055 130.117 313.71 130.725C313.373 131.336 312.9 131.817 312.289 132.171C311.677 132.525 310.99 132.702 310.226 132.702ZM310.226 131.566C310.703 131.566 311.147 131.454 311.555 131.227C311.972 130.991 312.304 130.657 312.548 130.224C312.802 129.792 312.93 129.285 312.93 128.704C312.93 128.125 312.802 127.618 312.548 127.185C312.304 126.753 311.972 126.423 311.555 126.197C311.147 125.961 310.703 125.843 310.226 125.843C309.746 125.843 309.298 125.961 308.881 126.197C308.463 126.423 308.127 126.753 307.872 127.185C307.628 127.618 307.506 128.125 307.506 128.704C307.506 129.285 307.628 129.792 307.872 130.224C308.127 130.657 308.463 130.991 308.881 131.227C309.298 131.454 309.746 131.566 310.226 131.566ZM319.159 135.889C318.242 135.889 317.484 135.682 316.882 135.269C316.292 134.856 315.895 134.36 315.691 133.779L316.867 133.292C317.041 133.725 317.326 134.074 317.723 134.34C318.131 134.616 318.609 134.753 319.159 134.753C319.965 134.753 320.586 134.527 321.023 134.074C321.472 133.622 321.696 132.982 321.696 132.156V131.316H321.635C321.38 131.699 321.019 132.014 320.55 132.26C320.091 132.496 319.568 132.614 318.976 132.614C318.303 132.614 317.688 132.447 317.127 132.112C316.577 131.778 316.139 131.311 315.813 130.711C315.488 130.111 315.324 129.427 315.324 128.66C315.324 127.904 315.488 127.225 315.813 126.624C316.139 126.016 316.577 125.543 317.127 125.208C317.688 124.874 318.303 124.707 318.976 124.707C319.568 124.707 320.091 124.83 320.55 125.075C321.019 125.311 321.38 125.627 321.635 126.02H321.696V124.943H322.934V132.171C322.934 133.381 322.588 134.301 321.894 134.93C321.203 135.569 320.29 135.889 319.159 135.889ZM319.159 131.478C319.629 131.478 320.051 131.365 320.428 131.138C320.815 130.913 321.121 130.589 321.344 130.165C321.579 129.742 321.696 129.241 321.696 128.66C321.696 128.07 321.579 127.564 321.344 127.141C321.121 126.718 320.815 126.399 320.428 126.182C320.051 125.957 319.629 125.843 319.159 125.843C318.691 125.843 318.263 125.957 317.876 126.182C317.489 126.408 317.178 126.733 316.944 127.155C316.72 127.579 316.607 128.081 316.607 128.66C316.607 129.241 316.72 129.748 316.944 130.18C317.178 130.603 317.489 130.928 317.876 131.153C318.263 131.37 318.691 131.478 319.159 131.478ZM327.239 131.994L324.014 124.943H325.42L327.865 130.534H327.896L330.249 124.943H331.655L326.841 135.653H325.496L327.239 131.994ZM336.544 121.904H338.134L343.619 130.312H343.68L343.619 128.277V121.904H344.918V132.466H343.573L337.828 123.659H337.767L337.828 125.695V132.466H336.544V121.904ZM349.37 132.702C348.801 132.702 348.291 132.595 347.842 132.378C347.395 132.162 347.048 131.867 346.803 131.493C346.559 131.109 346.437 130.677 346.437 130.194C346.437 129.398 346.748 128.778 347.369 128.336C347.991 127.884 348.774 127.657 349.722 127.657C350.191 127.657 350.623 127.707 351.021 127.805C351.429 127.904 351.739 128.016 351.953 128.144V127.686C351.953 127.126 351.75 126.679 351.342 126.344C350.935 126.001 350.421 125.828 349.798 125.828C349.361 125.828 348.958 125.922 348.591 126.108C348.224 126.285 347.934 126.536 347.72 126.86L346.742 126.152C347.048 125.7 347.466 125.346 347.995 125.09C348.536 124.835 349.131 124.707 349.783 124.707C350.843 124.707 351.674 124.977 352.274 125.518C352.885 126.049 353.191 126.777 353.191 127.701V132.466H351.953V131.389H351.892C351.668 131.754 351.332 132.064 350.883 132.319C350.436 132.575 349.932 132.702 349.37 132.702ZM349.493 131.596C349.932 131.596 350.339 131.488 350.715 131.271C351.093 131.055 351.393 130.766 351.617 130.401C351.842 130.037 351.953 129.639 351.953 129.206C351.708 129.049 351.408 128.922 351.051 128.822C350.696 128.725 350.318 128.675 349.921 128.675C349.208 128.675 348.667 128.818 348.301 129.103C347.945 129.388 347.766 129.757 347.766 130.209C347.766 130.622 347.93 130.957 348.255 131.212C348.581 131.468 348.994 131.596 349.493 131.596ZM358.346 135.889C357.429 135.889 356.67 135.682 356.069 135.269C355.478 134.856 355.081 134.36 354.877 133.779L356.054 133.292C356.227 133.725 356.512 134.074 356.909 134.34C357.318 134.616 357.796 134.753 358.346 134.753C359.151 134.753 359.772 134.527 360.21 134.074C360.659 133.622 360.882 132.982 360.882 132.156V131.316H360.821C360.567 131.699 360.206 132.014 359.736 132.26C359.278 132.496 358.754 132.614 358.162 132.614C357.49 132.614 356.875 132.447 356.313 132.112C355.763 131.778 355.326 131.311 354.999 130.711C354.674 130.111 354.51 129.427 354.51 128.66C354.51 127.904 354.674 127.225 354.999 126.624C355.326 126.016 355.763 125.543 356.313 125.208C356.875 124.874 357.49 124.707 358.162 124.707C358.754 124.707 359.278 124.83 359.736 125.075C360.206 125.311 360.567 125.627 360.821 126.02H360.882V124.943H362.12V132.171C362.12 133.381 361.774 134.301 361.081 134.93C360.389 135.569 359.476 135.889 358.346 135.889ZM358.346 131.478C358.815 131.478 359.237 131.365 359.614 131.138C360.002 130.913 360.307 130.589 360.531 130.165C360.766 129.742 360.882 129.241 360.882 128.66C360.882 128.07 360.766 127.564 360.531 127.141C360.307 126.718 360.002 126.399 359.614 126.182C359.237 125.957 358.815 125.843 358.346 125.843C357.878 125.843 357.45 125.957 357.062 126.182C356.676 126.408 356.365 126.733 356.13 127.155C355.906 127.579 355.794 128.081 355.794 128.66C355.794 129.241 355.906 129.748 356.13 130.18C356.365 130.603 356.676 130.928 357.062 131.153C357.45 131.37 357.878 131.478 358.346 131.478ZM363.98 124.943H365.218V126.064H365.279C365.514 125.68 365.865 125.361 366.333 125.105C366.813 124.839 367.347 124.707 367.938 124.707C368.631 124.707 369.262 124.88 369.833 125.223C370.403 125.568 370.851 126.045 371.177 126.654C371.504 127.264 371.666 127.948 371.666 128.704C371.666 129.471 371.504 130.161 371.177 130.77C370.851 131.37 370.403 131.843 369.833 132.186C369.262 132.531 368.631 132.702 367.938 132.702C367.347 132.702 366.813 132.575 366.333 132.319C365.865 132.053 365.514 131.734 365.279 131.36H365.218L365.279 132.392V135.653H363.98V124.943ZM367.785 131.566C368.234 131.566 368.656 131.448 369.053 131.212C369.451 130.976 369.766 130.642 370.001 130.209C370.245 129.767 370.367 129.265 370.367 128.704C370.367 128.144 370.245 127.648 370.001 127.214C369.766 126.772 369.451 126.433 369.053 126.197C368.656 125.961 368.234 125.843 367.785 125.843C367.336 125.843 366.914 125.961 366.517 126.197C366.119 126.433 365.804 126.768 365.569 127.2C365.334 127.633 365.218 128.134 365.218 128.704C365.218 129.276 365.334 129.777 365.569 130.209C365.804 130.642 366.119 130.976 366.517 131.212C366.914 131.448 367.336 131.566 367.785 131.566ZM375.925 132.702C374.989 132.702 374.271 132.437 373.771 131.906C373.282 131.374 373.037 130.633 373.037 129.678V124.943H374.336V129.486C374.336 130.205 374.504 130.731 374.84 131.065C375.177 131.4 375.631 131.566 376.2 131.566C376.639 131.566 377.026 131.454 377.362 131.227C377.709 131.002 377.973 130.707 378.156 130.342C378.351 129.978 378.447 129.595 378.447 129.191V124.943H379.745V132.466H378.508V131.374H378.447C378.233 131.749 377.892 132.064 377.423 132.319C376.955 132.575 376.456 132.702 375.925 132.702ZM381.664 124.943H382.902V126.152H382.963C383.116 125.739 383.411 125.4 383.849 125.134C384.288 124.86 384.746 124.721 385.224 124.721C385.581 124.721 385.887 124.771 386.141 124.869V126.226C385.816 126.069 385.449 125.99 385.041 125.99C384.664 125.99 384.319 126.093 384.002 126.3C383.686 126.506 383.432 126.787 383.238 127.141C383.054 127.485 382.963 127.86 382.963 128.262V132.466H381.664V124.943Z" />
    <defs>
        <linearGradient id="paint0_linear_701_2355" x1="425.558" y1="130.674" x2="9.03645" y2="130.674"
            gradientUnits="userSpaceOnUse">
            <stop stop-color="#348BCA" />
            <stop offset="0.404875" stop-color="#59A43A" />
            <stop offset="0.711571" stop-color="#F3B002" />
            <stop offset="1" stop-color="#DF572E" />
        </linearGradient>
    </defs>
</svg>