<svg width="428" height="167" viewBox="0 0 428 167" fill="none" xmlns="http://www.w3.org/2000/svg">
    <path
        d="M416.503 1.44629H10.8725C5.50203 1.44629 1.14844 5.64926 1.14844 10.8339V155.671C1.14844 160.856 5.50203 165.059 10.8725 165.059H416.503C421.874 165.059 426.228 160.856 426.228 155.671V10.8339C426.228 5.64926 421.874 1.44629 416.503 1.44629Z"
        fill="var(--background-color)" stroke="url(#paint0_linear_701_2359)" stroke-width="2" />
    <path
        d="M49.8892 103.558C48.3486 103.558 46.9289 103.2 45.6314 102.486C44.3326 101.772 43.2977 100.795 42.5281 99.5561C41.7724 98.3022 41.3945 96.9101 41.3945 95.3786C41.3945 93.8485 41.7724 92.4631 42.5281 91.2239C43.2977 89.97 44.3326 88.9857 45.6314 88.2722C46.9289 87.5574 48.3486 87.2007 49.8892 87.2007C51.113 87.2007 52.2521 87.4112 53.3093 87.8337C54.3664 88.2575 55.2499 88.8475 55.9597 89.6052L54.1928 91.3111C53.6649 90.7425 53.03 90.3053 52.291 89.9995C51.5659 89.6938 50.7574 89.5395 49.8669 89.5395C48.8251 89.5395 47.8513 89.7809 46.9442 90.261C46.0384 90.7425 45.3133 91.4278 44.7701 92.3169C44.227 93.2061 43.9548 94.2266 43.9548 95.3786C43.9548 96.5306 44.227 97.5512 44.7701 98.4403C45.3133 99.3295 46.0384 100.015 46.9442 100.496C47.8513 100.976 48.832 101.218 49.8892 101.218C50.856 101.218 51.6631 101.08 52.3132 100.802C52.9619 100.524 53.544 100.153 54.0566 99.6862C54.39 99.3657 54.6692 98.9647 54.8956 98.4846C55.1374 98.0031 55.2958 97.4774 55.3708 96.9101H49.8669V94.7228H57.7726C57.8476 95.1305 57.8851 95.5543 57.8851 95.9915C57.8851 96.9825 57.7267 97.9374 57.41 98.856C57.0919 99.7599 56.5863 100.547 55.8917 101.218C54.3664 102.777 52.366 103.558 49.8892 103.558ZM65.7088 103.558C64.546 103.558 63.5042 103.302 62.5832 102.792C61.6622 102.266 60.9454 101.553 60.4315 100.649C59.9175 99.7452 59.6619 98.7394 59.6619 97.6316C59.6619 96.5226 59.9175 95.5167 60.4315 94.6129C60.9454 93.709 61.6622 93.0022 62.5832 92.4926C63.5042 91.9669 64.546 91.7054 65.7088 91.7054C66.8715 91.7054 67.9134 91.9669 68.8358 92.4926C69.7568 93.017 70.4736 93.7318 70.9876 94.6357C71.5002 95.5396 71.7571 96.5373 71.7571 97.6316C71.7571 98.7394 71.5002 99.7452 70.9876 100.649C70.4736 101.553 69.7568 102.266 68.8358 102.792C67.9134 103.302 66.8715 103.558 65.7088 103.558ZM65.7088 101.349C66.3436 101.349 66.9326 101.203 67.4758 100.912C68.0204 100.605 68.4496 100.176 68.7677 99.6205C69.0997 99.0519 69.265 98.3894 69.265 97.6316C69.265 96.8726 69.0997 96.2168 68.7677 95.6629C68.4496 95.1091 68.0204 94.6866 67.4758 94.3943C66.9326 94.0885 66.3436 93.9356 65.7088 93.9356C65.0753 93.9356 64.4864 94.0885 63.9418 94.3943C63.3986 94.6866 62.9611 95.1091 62.6291 95.6629C62.3109 96.2168 62.1525 96.8726 62.1525 97.6316C62.1525 98.3894 62.3109 99.0519 62.6291 99.6205C62.9611 100.176 63.3986 100.605 63.9418 100.912C64.4864 101.203 65.0753 101.349 65.7088 101.349ZM79.4683 103.558C78.3056 103.558 77.2637 103.302 76.3427 102.792C75.4217 102.266 74.7035 101.553 74.1909 100.649C73.6769 99.7452 73.42 98.7394 73.42 97.6316C73.42 96.5226 73.6769 95.5167 74.1909 94.6129C74.7035 93.709 75.4217 93.0022 76.3427 92.4926C77.2637 91.9669 78.3056 91.7054 79.4683 91.7054C80.631 91.7054 81.6729 91.9669 82.5939 92.4926C83.5149 93.017 84.2331 93.7318 84.7457 94.6357C85.2597 95.5396 85.5167 96.5373 85.5167 97.6316C85.5167 98.7394 85.2597 99.7452 84.7457 100.649C84.2331 101.553 83.5149 102.266 82.5939 102.792C81.6729 103.302 80.631 103.558 79.4683 103.558ZM79.4683 101.349C80.1031 101.349 80.6907 101.203 81.2353 100.912C81.7784 100.605 82.2091 100.176 82.5258 99.6205C82.8578 99.0519 83.0245 98.3894 83.0245 97.6316C83.0245 96.8726 82.8578 96.2168 82.5258 95.6629C82.2091 95.1091 81.7784 94.6866 81.2353 94.3943C80.6907 94.0885 80.1031 93.9356 79.4683 93.9356C78.8335 93.9356 78.2444 94.0885 77.7013 94.3943C77.1581 94.6866 76.7192 95.1091 76.3872 95.6629C76.0704 96.2168 75.9121 96.8726 75.9121 97.6316C75.9121 98.3894 76.0704 99.0519 76.3872 99.6205C76.7192 100.176 77.1581 100.605 77.7013 100.912C78.2444 101.203 78.8335 101.349 79.4683 101.349ZM93.0236 108.281C91.6039 108.281 90.4259 107.967 89.4896 107.34C88.5686 106.713 87.9491 105.971 87.6323 105.11L89.9661 104.169C90.2064 104.753 90.5926 105.22 91.1205 105.57C91.6636 105.933 92.2985 106.115 93.0236 106.115C94.0807 106.115 94.9031 105.81 95.4921 105.197C96.0964 104.6 96.3979 103.754 96.3979 102.661V101.633H96.2631C95.8852 102.158 95.3796 102.574 94.7448 102.879C94.1252 103.17 93.4084 103.317 92.593 103.317C91.6261 103.317 90.7287 103.076 89.898 102.595C89.0673 102.114 88.4019 101.436 87.9046 100.562C87.4212 99.6714 87.1795 98.6589 87.1795 97.5217C87.1795 96.3844 87.4212 95.3786 87.9046 94.5042C88.4019 93.6151 89.0673 92.9298 89.898 92.4483C90.7287 91.9521 91.6261 91.7054 92.593 91.7054C93.3931 91.7054 94.1113 91.8583 94.7448 92.164C95.3796 92.4698 95.8852 92.8855 96.2631 93.4112H96.3979V92.0554H98.7775V102.595C98.7775 103.805 98.5357 104.833 98.0523 105.678C97.5689 106.539 96.8896 107.187 96.013 107.624C95.1531 108.063 94.1558 108.281 93.0236 108.281ZM93.0458 101.131C93.6501 101.131 94.2086 100.991 94.7226 100.715C95.2352 100.422 95.6436 100.008 95.945 99.4676C96.2478 98.9137 96.3979 98.2646 96.3979 97.5217C96.3979 96.3844 96.0742 95.502 95.4241 94.8757C94.7906 94.2347 93.9974 93.9142 93.0458 93.9142C92.4263 93.9142 91.8609 94.059 91.3469 94.3514C90.8343 94.6276 90.4259 95.0366 90.1245 95.5758C89.8217 96.1149 89.6716 96.764 89.6716 97.5217C89.6716 98.2794 89.8217 98.9285 90.1245 99.4676C90.4259 100.008 90.8343 100.422 91.3469 100.715C91.8609 100.991 92.4263 101.131 93.0458 101.131ZM101.706 87.5507H104.197V103.208H101.706V87.5507ZM112.292 103.558C111.159 103.558 110.141 103.302 109.234 102.792C108.343 102.281 107.642 101.582 107.128 100.692C106.629 99.7881 106.38 98.7756 106.38 97.6531C106.38 96.5883 106.622 95.6053 107.105 94.7014C107.603 93.7827 108.29 93.0532 109.165 92.5141C110.042 91.975 111.038 91.7054 112.156 91.7054C113.319 91.7054 114.323 91.9521 115.169 92.4483C116.029 92.9445 116.679 93.6218 117.117 94.4828C117.57 95.3424 117.796 96.312 117.796 97.3903C117.796 97.5941 117.774 97.8502 117.728 98.156H108.871C108.963 99.1913 109.339 99.9933 110.005 100.562C110.684 101.116 111.469 101.392 112.361 101.392C113.07 101.392 113.682 101.239 114.194 100.933C114.723 100.613 115.146 100.182 115.464 99.6433L117.57 100.605C117.027 101.523 116.317 102.245 115.44 102.771C114.565 103.295 113.515 103.558 112.292 103.558ZM115.26 96.3187C115.229 95.9258 115.101 95.5395 114.875 95.16C114.648 94.7671 114.3 94.4385 113.832 94.1757C113.379 93.9142 112.82 93.7827 112.156 93.7827C111.356 93.7827 110.677 94.0161 110.117 94.4828C109.574 94.9347 109.196 95.5463 108.985 96.3187H115.26ZM125.782 87.5507H130.97C132.645 87.5507 134.11 87.8779 135.363 88.5337C136.616 89.1895 137.576 90.1162 138.24 91.3111C138.92 92.4926 139.26 93.8485 139.26 95.3786C139.26 96.9101 138.92 98.2727 138.24 99.4676C137.576 100.649 136.616 101.568 135.363 102.224C134.11 102.879 132.645 103.208 130.97 103.208H125.782V87.5507ZM130.924 100.868C132.737 100.868 134.148 100.386 135.159 99.4247C136.187 98.447 136.7 97.0992 136.7 95.3786C136.7 93.6728 136.187 92.3317 135.159 91.3554C134.148 90.3777 132.737 89.8896 130.924 89.8896H128.319V100.868H130.924ZM146.689 103.558C145.557 103.558 144.537 103.302 143.632 102.792C142.741 102.281 142.038 101.582 141.524 100.692C141.027 99.7881 140.777 98.7756 140.777 97.6531C140.777 96.5883 141.019 95.6053 141.502 94.7014C142.001 93.7827 142.688 93.0532 143.564 92.5141C144.44 91.975 145.436 91.7054 146.553 91.7054C147.716 91.7054 148.72 91.9521 149.566 92.4483C150.427 92.9445 151.076 93.6218 151.514 94.4828C151.968 95.3424 152.194 96.312 152.194 97.3903C152.194 97.5941 152.171 97.8502 152.126 98.156H143.269C143.359 99.1913 143.737 99.9933 144.401 100.562C145.082 101.116 145.867 101.392 146.757 101.392C147.467 101.392 148.078 101.239 148.592 100.933C149.12 100.613 149.544 100.182 149.861 99.6433L151.968 100.605C151.423 101.523 150.713 102.245 149.838 102.771C148.962 103.295 147.913 103.558 146.689 103.558ZM149.656 96.3187C149.627 95.9258 149.498 95.5395 149.272 95.16C149.045 94.7671 148.698 94.4385 148.23 94.1757C147.777 93.9142 147.218 93.7827 146.553 93.7827C145.753 93.7827 145.074 94.0161 144.515 94.4828C143.972 94.9347 143.594 95.5463 143.383 96.3187H149.656ZM152.95 92.0554H155.737L158.93 100.102H159.021L162.282 92.0554H165.001L160.199 103.208H157.708L152.95 92.0554ZM171.553 103.558C170.42 103.558 169.402 103.302 168.495 102.792C167.604 102.281 166.903 101.582 166.389 100.692C165.89 99.7881 165.641 98.7756 165.641 97.6531C165.641 96.5883 165.883 95.6053 166.366 94.7014C166.864 93.7827 167.551 93.0532 168.427 92.5141C169.303 91.975 170.299 91.7054 171.417 91.7054C172.58 91.7054 173.584 91.9521 174.43 92.4483C175.29 92.9445 175.94 93.6218 176.378 94.4828C176.831 95.3424 177.057 96.312 177.057 97.3903C177.057 97.5941 177.035 97.8502 176.989 98.156H168.132C168.224 99.1913 168.6 99.9933 169.266 100.562C169.945 101.116 170.73 101.392 171.622 101.392C172.331 101.392 172.943 101.239 173.455 100.933C173.985 100.613 174.407 100.182 174.725 99.6433L176.831 100.605C176.288 101.523 175.578 102.245 174.701 102.771C173.826 103.295 172.776 103.558 171.553 103.558ZM174.521 96.3187C174.49 95.9258 174.362 95.5395 174.136 95.16C173.91 94.7671 173.561 94.4385 173.093 94.1757C172.64 93.9142 172.081 93.7827 171.417 93.7827C170.617 93.7827 169.938 94.0161 169.378 94.4828C168.835 94.9347 168.457 95.5463 168.246 96.3187H174.521ZM179.326 87.5507H181.818V103.208H179.326V87.5507ZM190.049 103.558C188.886 103.558 187.844 103.302 186.923 102.792C186.002 102.266 185.285 101.553 184.771 100.649C184.257 99.7452 184.002 98.7394 184.002 97.6316C184.002 96.5226 184.257 95.5167 184.771 94.6129C185.285 93.709 186.002 93.0022 186.923 92.4926C187.844 91.9669 188.886 91.7054 190.049 91.7054C191.211 91.7054 192.253 91.9669 193.176 92.4926C194.097 93.017 194.813 93.7318 195.327 94.6357C195.84 95.5396 196.097 96.5373 196.097 97.6316C196.097 98.7394 195.84 99.7452 195.327 100.649C194.813 101.553 194.097 102.266 193.176 102.792C192.253 103.302 191.211 103.558 190.049 103.558ZM190.049 101.349C190.683 101.349 191.272 101.203 191.816 100.912C192.36 100.605 192.789 100.176 193.107 99.6205C193.439 99.0519 193.605 98.3894 193.605 97.6316C193.605 96.8726 193.439 96.2168 193.107 95.6629C192.789 95.1091 192.36 94.6866 191.816 94.3943C191.272 94.0885 190.683 93.9356 190.049 93.9356C189.415 93.9356 188.826 94.0885 188.282 94.3943C187.738 94.6866 187.301 95.1091 186.969 95.6629C186.651 96.2168 186.492 96.8726 186.492 97.6316C186.492 98.3894 186.651 99.0519 186.969 99.6205C187.301 100.176 187.738 100.605 188.282 100.912C188.826 101.203 189.415 101.349 190.049 101.349ZM198.193 92.0554H200.571V93.5199H200.685C201.017 93.0103 201.508 92.5798 202.158 92.2298C202.807 91.8797 203.539 91.7054 204.354 91.7054C205.396 91.7054 206.34 91.9602 207.185 92.4698C208.031 92.9808 208.697 93.6875 209.179 94.5914C209.677 95.4805 209.927 96.4944 209.927 97.6316C209.927 98.7689 209.677 99.7881 209.179 100.692C208.697 101.582 208.031 102.281 207.185 102.792C206.34 103.302 205.396 103.558 204.354 103.558C203.539 103.558 202.807 103.382 202.158 103.032C201.508 102.682 201.017 102.26 200.685 101.764H200.571L200.685 103.317V107.931H198.193V92.0554ZM203.991 101.349C204.596 101.349 205.162 101.195 205.69 100.889C206.22 100.583 206.642 100.146 206.959 99.5776C207.277 99.0089 207.435 98.3599 207.435 97.6316C207.435 96.9021 207.277 96.2611 206.959 95.7072C206.642 95.1386 206.22 94.7014 205.69 94.3943C205.162 94.0885 204.596 93.9356 203.991 93.9356C203.389 93.9356 202.822 94.0885 202.293 94.3943C201.78 94.7014 201.365 95.1386 201.048 95.7072C200.73 96.2611 200.571 96.9021 200.571 97.6316C200.571 98.3599 200.73 99.0089 201.048 99.5776C201.365 100.146 201.78 100.583 202.293 100.889C202.822 101.195 203.389 101.349 203.991 101.349ZM217.476 103.558C216.342 103.558 215.324 103.302 214.417 102.792C213.527 102.281 212.824 101.582 212.311 100.692C211.812 99.7881 211.564 98.7756 211.564 97.6531C211.564 96.5883 211.805 95.6053 212.289 94.7014C212.786 93.7827 213.474 93.0532 214.349 92.5141C215.226 91.975 216.222 91.7054 217.34 91.7054C218.503 91.7054 219.507 91.9521 220.351 92.4483C221.213 92.9445 221.863 93.6218 222.3 94.4828C222.753 95.3424 222.98 96.312 222.98 97.3903C222.98 97.5941 222.958 97.8502 222.912 98.156H214.054C214.146 99.1913 214.523 99.9933 215.188 100.562C215.867 101.116 216.652 101.392 217.544 101.392C218.252 101.392 218.865 101.239 219.378 100.933C219.907 100.613 220.329 100.182 220.646 99.6433L222.753 100.605C222.21 101.523 221.5 102.245 220.624 102.771C219.749 103.295 218.698 103.558 217.476 103.558ZM220.443 96.3187C220.413 95.9258 220.285 95.5395 220.058 95.16C219.831 94.7671 219.483 94.4385 219.015 94.1757C218.562 93.9142 218.004 93.7827 217.34 93.7827C216.54 93.7827 215.859 94.0161 215.301 94.4828C214.757 94.9347 214.38 95.5463 214.168 96.3187H220.443ZM225.248 92.0554H227.628V93.6956H227.74C227.997 93.1269 228.443 92.6602 229.077 92.2955C229.712 91.9159 230.382 91.7268 231.092 91.7268C231.652 91.7268 232.12 91.7993 232.497 91.9454V94.4385C231.833 94.2052 231.237 94.0885 230.708 94.0885C230.134 94.0885 229.62 94.2347 229.167 94.5257C228.729 94.8181 228.382 95.211 228.125 95.7072C227.868 96.1873 227.74 96.7197 227.74 97.3031V103.208H225.248V92.0554ZM244.127 103.558C242.782 103.558 241.575 103.178 240.502 102.421C239.43 101.662 238.69 100.598 238.283 99.2275L240.683 98.2874C240.925 99.1471 241.348 99.8538 241.951 100.408C242.571 100.948 243.311 101.218 244.171 101.218C244.973 101.218 245.652 101.021 246.21 100.628C246.769 100.219 247.048 99.6647 247.048 98.9647C247.048 98.3236 246.799 97.7993 246.301 97.3903C245.817 96.9678 244.964 96.5454 243.742 96.1216L242.722 95.7729C241.635 95.4081 240.72 94.8824 239.981 94.1985C239.241 93.5132 238.872 92.6093 238.872 91.4868C238.872 90.713 239.09 89.9995 239.529 89.3437C239.966 88.6866 240.57 88.1703 241.34 87.7908C242.125 87.3965 243.008 87.2007 243.991 87.2007C245.41 87.2007 246.542 87.536 247.388 88.2065C248.234 88.8623 248.8 89.6052 249.087 90.4367L246.799 91.3768C246.633 90.8806 246.316 90.4434 245.848 90.0652C245.38 89.6857 244.775 89.4966 244.036 89.4966C243.296 89.4966 242.669 89.679 242.155 90.0424C241.657 90.4072 241.408 90.8739 241.408 91.4425C241.408 91.9816 241.635 92.4269 242.087 92.7769C242.54 93.1269 243.25 93.4622 244.217 93.7827L245.237 94.1099C246.626 94.5766 247.698 95.1895 248.453 95.9472C249.223 96.6902 249.608 97.6893 249.608 98.9432C249.608 99.9638 249.336 100.823 248.793 101.523C248.25 102.209 247.554 102.718 246.709 103.054C245.878 103.39 245.017 103.558 244.127 103.558ZM256.262 103.382C255.748 103.382 255.265 103.302 254.812 103.142C254.359 102.981 253.99 102.771 253.702 102.508C253.053 101.88 252.728 101.027 252.728 99.949V94.1757H250.713V92.0554H252.728V88.9052H255.22V92.0554H258.029V94.1757H255.22V99.4247C255.22 100.021 255.341 100.445 255.583 100.692C255.809 100.984 256.201 101.131 256.761 101.131C257.017 101.131 257.243 101.101 257.44 101.042C257.636 100.97 257.847 100.86 258.074 100.715V103.054C257.576 103.274 256.972 103.382 256.262 103.382ZM264.611 103.558C263.207 103.558 262.136 103.157 261.395 102.355C260.67 101.538 260.307 100.408 260.307 98.9647V92.0554H262.8V98.6375C262.8 99.5413 263.018 100.219 263.457 100.671C263.91 101.122 264.499 101.349 265.224 101.349C265.813 101.349 266.334 101.203 266.786 100.912C267.239 100.605 267.587 100.204 267.828 99.709C268.07 99.2128 268.191 98.6804 268.191 98.1118V92.0554H270.682V103.208H268.327V101.764H268.191C267.873 102.289 267.382 102.718 266.718 103.054C266.053 103.39 265.352 103.558 264.611 103.558ZM278.409 103.558C277.368 103.558 276.424 103.302 275.578 102.792C274.732 102.281 274.06 101.582 273.563 100.692C273.079 99.7881 272.838 98.7689 272.838 97.6316C272.838 96.4944 273.079 95.4805 273.563 94.5914C274.06 93.6875 274.732 92.9808 275.578 92.4698C276.424 91.9602 277.368 91.7054 278.409 91.7054C279.225 91.7054 279.957 91.8797 280.607 92.2298C281.256 92.5798 281.748 93.0103 282.08 93.5199H282.192L282.08 91.9454V87.5507H284.57V103.208H282.192V101.764H282.08C281.748 102.26 281.256 102.682 280.607 103.032C279.957 103.382 279.225 103.558 278.409 103.558ZM278.772 101.349C279.376 101.349 279.935 101.195 280.449 100.889C280.977 100.583 281.4 100.146 281.717 99.5776C282.034 99.0089 282.192 98.3599 282.192 97.6316C282.192 96.9021 282.034 96.2611 281.717 95.7072C281.4 95.1386 280.977 94.7014 280.449 94.3943C279.935 94.0885 279.376 93.9356 278.772 93.9356C278.168 93.9356 277.602 94.0885 277.073 94.3943C276.545 94.7014 276.122 95.1386 275.805 95.7072C275.488 96.2611 275.33 96.9021 275.33 97.6316C275.33 98.3599 275.488 99.0089 275.805 99.5776C276.122 100.146 276.545 100.583 277.073 100.889C277.602 101.195 278.168 101.349 278.772 101.349ZM292.641 103.558C291.509 103.558 290.49 103.302 289.584 102.792C288.692 102.281 287.99 101.582 287.476 100.692C286.978 99.7881 286.729 98.7756 286.729 97.6531C286.729 96.5883 286.971 95.6053 287.454 94.7014C287.953 93.7827 288.639 93.0532 289.516 92.5141C290.391 91.975 291.388 91.7054 292.505 91.7054C293.668 91.7054 294.672 91.9521 295.518 92.4483C296.378 92.9445 297.028 93.6218 297.466 94.4828C297.919 95.3424 298.145 96.312 298.145 97.3903C298.145 97.5941 298.123 97.8502 298.077 98.156H289.221C289.312 99.1913 289.689 99.9933 290.353 100.562C291.033 101.116 291.818 101.392 292.709 101.392C293.419 101.392 294.03 101.239 294.544 100.933C295.072 100.613 295.495 100.182 295.813 99.6433L297.919 100.605C297.376 101.523 296.666 102.245 295.789 102.771C294.914 103.295 293.864 103.558 292.641 103.558ZM295.608 96.3187C295.578 95.9258 295.45 95.5395 295.224 95.16C294.997 94.7671 294.65 94.4385 294.182 94.1757C293.729 93.9142 293.169 93.7827 292.505 93.7827C291.705 93.7827 291.026 94.0161 290.467 94.4828C289.923 94.9347 289.545 95.5463 289.334 96.3187H295.608ZM300.415 92.0554H302.793V93.5199H302.906C303.238 92.9955 303.729 92.565 304.378 92.2298C305.044 91.8797 305.745 91.7054 306.486 91.7054C307.89 91.7054 308.954 92.1064 309.679 92.907C310.418 93.6956 310.789 94.7738 310.789 96.1444V103.208H308.297V96.4716C308.297 95.5972 308.071 94.9562 307.618 94.5471C307.18 94.1395 306.568 93.9356 305.783 93.9356C305.224 93.9356 304.725 94.0885 304.288 94.3943C303.85 94.6866 303.51 95.0796 303.268 95.5758C303.027 96.0706 302.906 96.603 302.906 97.1716V103.208H300.415V92.0554ZM317.757 103.382C317.245 103.382 316.761 103.302 316.308 103.142C315.855 102.981 315.484 102.771 315.198 102.508C314.548 101.88 314.223 101.027 314.223 99.949V94.1757H312.207V92.0554H314.223V88.9052H316.715V92.0554H319.524V94.1757H316.715V99.4247C316.715 100.021 316.836 100.445 317.078 100.692C317.304 100.984 317.697 101.131 318.256 101.131C318.513 101.131 318.739 101.101 318.935 101.042C319.131 100.97 319.343 100.86 319.57 100.715V103.054C319.071 103.274 318.467 103.382 317.757 103.382ZM334.824 103.558C333.253 103.558 331.819 103.2 330.521 102.486C329.222 101.772 328.202 100.787 327.462 99.5333C326.723 98.2794 326.352 96.8954 326.352 95.3786C326.352 93.8632 326.723 92.4779 327.462 91.2239C328.202 89.97 329.222 88.9857 330.521 88.2722C331.819 87.5574 333.253 87.2007 334.824 87.2007C336.047 87.2007 337.157 87.4193 338.154 87.8565C339.165 88.2937 340.057 88.928 340.827 89.7581L339.015 91.4425C338.455 90.8015 337.837 90.3267 337.156 90.021C336.477 89.7005 335.699 89.5395 334.824 89.5395C333.736 89.5395 332.74 89.7809 331.835 90.261C330.943 90.7425 330.233 91.4278 329.705 92.3169C329.176 93.1913 328.912 94.2119 328.912 95.3786C328.912 96.5454 329.176 97.5726 329.705 98.4618C330.233 99.3362 330.943 100.015 331.835 100.496C332.74 100.976 333.736 101.218 334.824 101.218C336.636 101.218 338.176 100.488 339.444 99.0304L341.28 100.736C340.495 101.625 339.55 102.319 338.448 102.814C337.345 103.31 336.138 103.558 334.824 103.558ZM343.483 87.5507H345.975V103.208H343.483V87.5507ZM353.116 103.558C351.712 103.558 350.64 103.157 349.899 102.355C349.174 101.538 348.813 100.408 348.813 98.9647V92.0554H351.304V98.6375C351.304 99.5413 351.523 100.219 351.961 100.671C352.414 101.122 353.003 101.349 353.728 101.349C354.317 101.349 354.838 101.203 355.29 100.912C355.743 100.605 356.091 100.204 356.332 99.709C356.574 99.2128 356.695 98.6804 356.695 98.1118V92.0554H359.187V103.208H356.831V101.764H356.695C356.378 102.289 355.886 102.718 355.222 103.054C354.558 103.39 353.855 103.558 353.116 103.558ZM368.248 103.558C367.433 103.558 366.7 103.382 366.051 103.032C365.401 102.682 364.91 102.26 364.578 101.764H364.466V103.208H362.086V87.5507H364.578V91.9454L364.466 93.5199H364.578C364.91 93.0103 365.401 92.5798 366.051 92.2298C366.7 91.8797 367.433 91.7054 368.248 91.7054C369.29 91.7054 370.234 91.9602 371.08 92.4698C371.926 92.9808 372.59 93.6875 373.073 94.5914C373.572 95.4805 373.82 96.4944 373.82 97.6316C373.82 98.7689 373.572 99.7881 373.073 100.692C372.59 101.582 371.926 102.281 371.08 102.792C370.234 103.302 369.29 103.558 368.248 103.558ZM367.886 101.349C368.49 101.349 369.055 101.195 369.585 100.889C370.113 100.583 370.536 100.146 370.853 99.5776C371.17 99.0089 371.328 98.3599 371.328 97.6316C371.328 96.9021 371.17 96.2611 370.853 95.7072C370.536 95.1386 370.113 94.7014 369.585 94.3943C369.055 94.0885 368.49 93.9356 367.886 93.9356C367.282 93.9356 366.715 94.0885 366.187 94.3943C365.673 94.7014 365.258 95.1386 364.941 95.7072C364.624 96.2611 364.466 96.9021 364.466 97.6316C364.466 98.3599 364.624 99.0089 364.941 99.5776C365.258 100.146 365.673 100.583 366.187 100.889C366.715 101.195 367.282 101.349 367.886 101.349ZM380.191 103.558C378.863 103.558 377.775 103.28 376.929 102.726C376.085 102.158 375.487 101.436 375.14 100.562L377.36 99.6205C377.632 100.204 378.01 100.649 378.493 100.955C378.991 101.261 379.557 101.415 380.191 101.415C380.81 101.415 381.331 101.312 381.755 101.108C382.177 100.889 382.389 100.569 382.389 100.146C382.389 99.7371 382.208 99.4166 381.845 99.1833C381.483 98.9499 380.924 98.7461 380.169 98.5718L378.786 98.2432C377.865 98.0246 377.103 97.6383 376.5 97.0845C375.896 96.5306 375.593 95.8306 375.593 94.9857C375.593 94.3285 375.79 93.7532 376.182 93.257C376.59 92.7622 377.133 92.3826 377.813 92.1198C378.493 91.8435 379.232 91.7054 380.033 91.7054C381.105 91.7054 382.05 91.9159 382.865 92.3397C383.68 92.7474 384.269 93.3455 384.631 94.1328L382.457 95.0501C382.019 94.1904 381.219 93.7599 380.056 93.7599C379.496 93.7599 379.028 93.8699 378.652 94.0885C378.274 94.3071 378.085 94.5914 378.085 94.9414C378.085 95.2767 378.228 95.5543 378.516 95.7729C378.802 95.9767 379.225 96.1511 379.784 96.2973L381.483 96.713C382.615 96.9893 383.468 97.413 384.042 97.9803C384.631 98.5355 384.925 99.2208 384.925 100.036C384.925 100.736 384.714 101.356 384.292 101.895C383.883 102.421 383.318 102.828 382.593 103.119C381.868 103.412 381.067 103.558 380.191 103.558Z" />
    <path
        d="M221.609 53.0636L240.247 42.6752C242.844 41.2274 246.166 42.0866 247.666 44.5943C249.165 47.102 248.275 50.3085 245.678 51.7564L227.04 62.1447C224.442 63.5925 221.121 62.7333 219.621 60.2256C218.121 57.718 219.011 54.5114 221.609 53.0636Z"
        fill="#FBBC04" />
    <path
        d="M208.373 41.3114L189.735 51.6998C187.137 53.1476 183.816 52.2884 182.316 49.7807C180.816 47.273 181.706 44.0665 184.304 42.6186L202.942 32.2303C205.539 30.7825 208.861 31.6417 210.36 34.1494C211.86 36.657 210.97 39.8636 208.373 41.3114Z"
        fill="#EA4335" />
    <path
        d="M207.915 53.0621L189.276 42.6737C186.679 41.2259 183.357 42.0851 181.858 44.5928C180.358 47.1005 181.248 50.3071 183.846 51.7549L202.484 62.1432C205.081 63.5911 208.403 62.7318 209.902 60.2241C211.402 57.7165 210.512 54.5099 207.915 53.0621Z"
        fill="#4285F4" />
    <path
        d="M221.292 41.1351L240.562 51.8762C242.985 53.2266 246.083 52.4252 247.482 50.0862L247.847 49.4752C249.246 47.1363 248.416 44.1455 245.993 42.7951L226.722 32.0539C224.3 30.7035 221.202 31.5049 219.803 33.8439L219.437 34.4549C218.039 36.7938 218.869 39.7847 221.292 41.1351Z"
        fill="#0F9D58" />
    <path
        d="M79.5459 120.827H83.83C84.4301 120.827 84.9914 120.961 85.5137 121.229C86.0471 121.497 86.4694 121.868 86.7806 122.34C87.0918 122.812 87.2473 123.343 87.2473 123.933C87.2473 124.491 87.0973 124.979 86.7973 125.397C86.5083 125.816 86.1138 126.138 85.6137 126.363V126.427C86.2138 126.62 86.7028 126.953 87.0806 127.425C87.4585 127.897 87.6474 128.45 87.6474 129.083C87.6474 129.705 87.4807 130.268 87.1473 130.772C86.825 131.266 86.386 131.652 85.8304 131.931C85.2858 132.21 84.6969 132.35 84.0634 132.35H79.5459V120.827ZM83.83 125.816C84.2301 125.816 84.5802 125.725 84.8803 125.542C85.1914 125.36 85.4304 125.129 85.597 124.85C85.7637 124.561 85.8471 124.266 85.8471 123.965C85.8471 123.675 85.7637 123.391 85.597 123.112C85.4415 122.822 85.2136 122.586 84.9136 122.404C84.6246 122.222 84.2857 122.131 83.8967 122.131H80.9462V125.816H83.83ZM84.1468 131.046C84.5468 131.046 84.9025 130.949 85.2136 130.756C85.5359 130.563 85.7804 130.316 85.9471 130.016C86.1249 129.705 86.2138 129.388 86.2138 129.067C86.2138 128.745 86.1249 128.434 85.9471 128.133C85.7693 127.822 85.5192 127.575 85.1969 127.393C84.8747 127.2 84.5023 127.103 84.08 127.103H80.9462V131.046H84.1468ZM92.0885 132.607C91.4662 132.607 90.9105 132.489 90.4215 132.253C89.9325 132.017 89.5547 131.695 89.288 131.287C89.0213 130.869 88.8879 130.397 88.8879 129.871C88.8879 129.002 89.2269 128.326 89.9048 127.844C90.5827 127.35 91.4384 127.103 92.4719 127.103C92.9831 127.103 93.4554 127.157 93.8889 127.264C94.3334 127.371 94.6723 127.495 94.9057 127.634V127.135C94.9057 126.524 94.6835 126.036 94.2389 125.671C93.7944 125.295 93.2332 125.108 92.5552 125.108C92.0774 125.108 91.6384 125.21 91.2383 125.413C90.8383 125.607 90.5216 125.88 90.2882 126.234L89.2213 125.462C89.5547 124.968 90.0103 124.582 90.5882 124.303C91.1772 124.024 91.8274 123.885 92.5386 123.885C93.6944 123.885 94.6001 124.18 95.2558 124.77C95.9226 125.349 96.2559 126.143 96.2559 127.152V132.35H94.9057V131.175H94.839C94.5945 131.572 94.2278 131.91 93.7388 132.189C93.2498 132.468 92.6997 132.607 92.0885 132.607ZM92.2219 131.4C92.6997 131.4 93.1443 131.282 93.5555 131.046C93.9667 130.81 94.2945 130.493 94.539 130.097C94.7835 129.7 94.9057 129.265 94.9057 128.793C94.639 128.621 94.3111 128.482 93.9222 128.375C93.5332 128.267 93.122 128.214 92.6886 128.214C91.9107 128.214 91.3217 128.369 90.9217 128.68C90.5327 128.991 90.3382 129.394 90.3382 129.887C90.3382 130.338 90.516 130.703 90.8716 130.982C91.2273 131.261 91.6773 131.4 92.2219 131.4ZM99.0606 122.629C98.7828 122.629 98.5439 122.533 98.3438 122.34C98.1438 122.147 98.0438 121.916 98.0438 121.648C98.0438 121.379 98.1438 121.154 98.3438 120.972C98.5439 120.779 98.7828 120.682 99.0606 120.682C99.3384 120.682 99.5774 120.779 99.7775 120.972C99.9775 121.154 100.078 121.379 100.078 121.648C100.078 121.916 99.9775 122.147 99.7775 122.34C99.5886 122.533 99.3495 122.629 99.0606 122.629ZM97.427 135.987C97.1603 135.987 96.9103 135.949 96.6769 135.874V134.57C96.7658 134.624 96.8769 134.667 97.0103 134.699C97.1436 134.731 97.2659 134.747 97.377 134.747C97.7215 134.747 97.9715 134.64 98.1271 134.426C98.2827 134.222 98.3605 133.916 98.3605 133.508V124.142H99.7608V133.508C99.7608 134.334 99.5552 134.951 99.144 135.359C98.7328 135.777 98.1605 135.987 97.427 135.987ZM104.623 132.607C104 132.607 103.445 132.489 102.956 132.253C102.467 132.017 102.089 131.695 101.822 131.287C101.556 130.869 101.422 130.397 101.422 129.871C101.422 129.002 101.761 128.326 102.439 127.844C103.117 127.35 103.973 127.103 105.006 127.103C105.517 127.103 105.99 127.157 106.423 127.264C106.868 127.371 107.207 127.495 107.44 127.634V127.135C107.44 126.524 107.218 126.036 106.773 125.671C106.329 125.295 105.767 125.108 105.09 125.108C104.612 125.108 104.173 125.21 103.773 125.413C103.373 125.607 103.056 125.88 102.822 126.234L101.756 125.462C102.089 124.968 102.545 124.582 103.122 124.303C103.711 124.024 104.362 123.885 105.073 123.885C106.229 123.885 107.134 124.18 107.79 124.77C108.457 125.349 108.79 126.143 108.79 127.152V132.35H107.44V131.175H107.373C107.129 131.572 106.762 131.91 106.273 132.189C105.784 132.468 105.234 132.607 104.623 132.607ZM104.756 131.4C105.234 131.4 105.679 131.282 106.09 131.046C106.501 130.81 106.829 130.493 107.073 130.097C107.318 129.7 107.44 129.265 107.44 128.793C107.173 128.621 106.845 128.482 106.456 128.375C106.068 128.267 105.656 128.214 105.223 128.214C104.445 128.214 103.856 128.369 103.456 128.68C103.067 128.991 102.872 129.394 102.872 129.887C102.872 130.338 103.05 130.703 103.406 130.982C103.762 131.261 104.212 131.4 104.756 131.4ZM111.595 122.629C111.317 122.629 111.078 122.533 110.878 122.34C110.678 122.147 110.578 121.916 110.578 121.648C110.578 121.379 110.678 121.154 110.878 120.972C111.078 120.779 111.317 120.682 111.595 120.682C111.873 120.682 112.112 120.779 112.312 120.972C112.512 121.154 112.612 121.379 112.612 121.648C112.612 121.916 112.512 122.147 112.312 122.34C112.123 122.533 111.884 122.629 111.595 122.629ZM109.961 135.987C109.695 135.987 109.444 135.949 109.211 135.874V134.57C109.3 134.624 109.411 134.667 109.545 134.699C109.678 134.731 109.8 134.747 109.911 134.747C110.256 134.747 110.506 134.64 110.661 134.426C110.817 134.222 110.895 133.916 110.895 133.508V124.142H112.295V133.508C112.295 134.334 112.089 134.951 111.678 135.359C111.267 135.777 110.695 135.987 109.961 135.987ZM118.68 120.827H120.08V132.35H118.68V120.827ZM122.466 124.142H123.817V125.349H123.883C124.117 124.941 124.489 124.598 125 124.319C125.511 124.029 126.056 123.885 126.634 123.885C127.656 123.885 128.434 124.174 128.968 124.754C129.512 125.322 129.784 126.1 129.784 127.087V132.35H128.368V127.296C128.368 126.535 128.179 125.982 127.801 125.639C127.423 125.295 126.906 125.124 126.25 125.124C125.795 125.124 125.384 125.247 125.017 125.494C124.661 125.741 124.383 126.068 124.183 126.476C123.983 126.873 123.883 127.291 123.883 127.731V132.35H122.466V124.142ZM134.696 132.607C133.785 132.607 133.024 132.403 132.413 131.996C131.801 131.577 131.368 131.046 131.112 130.402L132.379 129.855C132.591 130.349 132.902 130.73 133.313 130.998C133.735 131.266 134.196 131.4 134.696 131.4C135.23 131.4 135.686 131.298 136.063 131.094C136.441 130.88 136.63 130.579 136.63 130.193C136.63 129.85 136.48 129.576 136.18 129.372C135.88 129.158 135.408 128.975 134.763 128.825L133.73 128.568C133.052 128.407 132.496 128.133 132.063 127.747C131.629 127.361 131.412 126.862 131.412 126.25C131.412 125.778 131.557 125.365 131.846 125.011C132.146 124.646 132.54 124.367 133.029 124.174C133.518 123.981 134.046 123.885 134.613 123.885C135.358 123.885 136.019 124.04 136.597 124.351C137.186 124.662 137.603 125.097 137.847 125.655L136.613 126.202C136.236 125.472 135.563 125.108 134.596 125.108C134.13 125.108 133.719 125.215 133.363 125.43C133.018 125.633 132.846 125.896 132.846 126.218C132.846 126.519 132.968 126.765 133.213 126.958C133.457 127.141 133.824 127.291 134.313 127.409L135.547 127.715C136.38 127.919 137.008 128.224 137.43 128.632C137.853 129.029 138.064 129.517 138.064 130.097C138.064 130.601 137.914 131.046 137.614 131.432C137.314 131.808 136.908 132.097 136.397 132.301C135.886 132.505 135.319 132.607 134.696 132.607ZM142.794 132.478C142.449 132.478 142.127 132.425 141.827 132.317C141.538 132.21 141.294 132.065 141.093 131.883C140.871 131.679 140.704 131.443 140.593 131.175C140.482 130.907 140.427 130.579 140.427 130.193V125.381H138.943V124.142H140.427V121.825H141.844V124.142H143.911V125.381H141.844V129.855C141.844 130.306 141.933 130.638 142.11 130.853C142.321 131.089 142.627 131.207 143.027 131.207C143.349 131.207 143.661 131.116 143.961 130.933V132.269C143.794 132.344 143.622 132.398 143.444 132.43C143.277 132.462 143.061 132.478 142.794 132.478ZM146.547 122.629C146.269 122.629 146.03 122.533 145.83 122.34C145.63 122.147 145.53 121.916 145.53 121.648C145.53 121.379 145.63 121.154 145.83 120.972C146.03 120.779 146.269 120.682 146.547 120.682C146.825 120.682 147.064 120.779 147.264 120.972C147.464 121.154 147.564 121.379 147.564 121.648C147.564 121.916 147.464 122.147 147.264 122.34C147.075 122.533 146.836 122.629 146.547 122.629ZM145.847 124.142H147.247V132.35H145.847V124.142ZM152.66 132.478C152.315 132.478 151.993 132.425 151.693 132.317C151.404 132.21 151.159 132.065 150.959 131.883C150.737 131.679 150.57 131.443 150.459 131.175C150.348 130.907 150.292 130.579 150.292 130.193V125.381H148.809V124.142H150.292V121.825H151.709V124.142H153.776V125.381H151.709V129.855C151.709 130.306 151.798 130.638 151.976 130.853C152.187 131.089 152.493 131.207 152.893 131.207C153.215 131.207 153.526 131.116 153.826 130.933V132.269C153.66 132.344 153.487 132.398 153.31 132.43C153.143 132.462 152.926 132.478 152.66 132.478ZM158.581 132.607C157.559 132.607 156.776 132.317 156.231 131.738C155.698 131.159 155.431 130.349 155.431 129.308V124.142H156.848V129.099C156.848 129.882 157.031 130.456 157.398 130.821C157.765 131.186 158.259 131.368 158.882 131.368C159.359 131.368 159.782 131.245 160.148 130.998C160.526 130.751 160.815 130.429 161.015 130.032C161.226 129.635 161.332 129.217 161.332 128.777V124.142H162.749V132.35H161.399V131.159H161.332C161.099 131.566 160.726 131.91 160.215 132.189C159.704 132.468 159.159 132.607 158.581 132.607ZM168.19 132.478C167.846 132.478 167.523 132.425 167.223 132.317C166.934 132.21 166.69 132.065 166.49 131.883C166.268 131.679 166.101 131.443 165.99 131.175C165.879 130.907 165.823 130.579 165.823 130.193V125.381H164.339V124.142H165.823V121.825H167.24V124.142H169.307V125.381H167.24V129.855C167.24 130.306 167.329 130.638 167.507 130.853C167.718 131.089 168.023 131.207 168.424 131.207C168.746 131.207 169.057 131.116 169.357 130.933V132.269C169.19 132.344 169.018 132.398 168.84 132.43C168.674 132.462 168.457 132.478 168.19 132.478ZM174.437 132.607C173.626 132.607 172.898 132.419 172.253 132.044C171.609 131.668 171.103 131.153 170.736 130.499C170.381 129.834 170.203 129.088 170.203 128.262C170.203 127.468 170.37 126.738 170.703 126.073C171.048 125.408 171.531 124.877 172.153 124.48C172.776 124.083 173.498 123.885 174.32 123.885C175.154 123.885 175.876 124.067 176.488 124.432C177.099 124.786 177.566 125.279 177.888 125.912C178.221 126.545 178.388 127.27 178.388 128.085C178.388 128.246 178.371 128.385 178.338 128.503H171.62C171.653 129.126 171.809 129.651 172.087 130.08C172.365 130.51 172.715 130.831 173.137 131.046C173.57 131.261 174.02 131.368 174.487 131.368C175.576 131.368 176.415 130.874 177.004 129.887L178.205 130.451C177.838 131.116 177.338 131.641 176.704 132.028C176.082 132.414 175.326 132.607 174.437 132.607ZM176.888 127.377C176.865 127.033 176.765 126.69 176.588 126.347C176.41 126.004 176.126 125.714 175.737 125.478C175.36 125.242 174.882 125.124 174.304 125.124C173.637 125.124 173.07 125.333 172.604 125.751C172.148 126.159 171.848 126.701 171.703 127.377H176.888ZM187.837 132.607C187.003 132.607 186.253 132.414 185.586 132.028C184.92 131.641 184.397 131.116 184.02 130.451C183.653 129.785 183.469 129.05 183.469 128.246C183.469 127.441 183.653 126.706 184.02 126.041C184.397 125.376 184.92 124.85 185.586 124.464C186.253 124.078 187.003 123.885 187.837 123.885C188.67 123.885 189.421 124.078 190.087 124.464C190.754 124.85 191.271 125.376 191.638 126.041C192.015 126.706 192.204 127.441 192.204 128.246C192.204 129.05 192.015 129.785 191.638 130.451C191.271 131.116 190.754 131.641 190.087 132.028C189.421 132.414 188.67 132.607 187.837 132.607ZM187.837 131.368C188.359 131.368 188.843 131.245 189.287 130.998C189.743 130.74 190.104 130.375 190.371 129.903C190.648 129.431 190.787 128.879 190.787 128.246C190.787 127.613 190.648 127.06 190.371 126.588C190.104 126.116 189.743 125.757 189.287 125.51C188.843 125.253 188.359 125.124 187.837 125.124C187.315 125.124 186.826 125.253 186.37 125.51C185.914 125.757 185.548 126.116 185.27 126.588C185.003 127.06 184.87 127.613 184.87 128.246C184.87 128.879 185.003 129.431 185.27 129.903C185.548 130.375 185.914 130.74 186.37 130.998C186.826 131.245 187.315 131.368 187.837 131.368ZM194.589 125.381H193.023V124.142H194.589V123.257C194.589 122.742 194.712 122.291 194.956 121.905C195.201 121.519 195.529 121.224 195.94 121.02C196.351 120.806 196.807 120.698 197.307 120.698C197.785 120.698 198.201 120.763 198.557 120.891V122.227C198.357 122.152 198.168 122.093 197.99 122.05C197.812 121.996 197.601 121.97 197.357 121.97C196.99 121.97 196.673 122.098 196.407 122.356C196.14 122.603 196.006 122.951 196.006 123.402V124.142H198.19V125.381H196.006V132.35H194.589V125.381ZM205.864 122.131H202.513V120.827H210.615V122.131H207.281V132.35H205.864V122.131ZM214.564 132.607C213.753 132.607 213.025 132.419 212.38 132.044C211.736 131.668 211.23 131.153 210.863 130.499C210.508 129.834 210.33 129.088 210.33 128.262C210.33 127.468 210.497 126.738 210.83 126.073C211.175 125.408 211.658 124.877 212.28 124.48C212.903 124.083 213.625 123.885 214.447 123.885C215.281 123.885 216.003 124.067 216.614 124.432C217.226 124.786 217.692 125.279 218.015 125.912C218.348 126.545 218.515 127.27 218.515 128.085C218.515 128.246 218.498 128.385 218.465 128.503H211.747C211.78 129.126 211.936 129.651 212.214 130.08C212.491 130.51 212.841 130.831 213.264 131.046C213.697 131.261 214.147 131.368 214.614 131.368C215.703 131.368 216.542 130.874 217.131 129.887L218.331 130.451C217.965 131.116 217.465 131.641 216.831 132.028C216.209 132.414 215.453 132.607 214.564 132.607ZM217.014 127.377C216.992 127.033 216.892 126.69 216.714 126.347C216.537 126.004 216.253 125.714 215.864 125.478C215.486 125.242 215.009 125.124 214.431 125.124C213.764 125.124 213.197 125.333 212.73 125.751C212.275 126.159 211.975 126.701 211.83 127.377H217.014ZM224.106 132.607C223.284 132.607 222.545 132.419 221.889 132.044C221.233 131.658 220.722 131.137 220.355 130.483C219.989 129.818 219.805 129.072 219.805 128.246C219.805 127.42 219.989 126.674 220.355 126.009C220.722 125.344 221.233 124.823 221.889 124.448C222.545 124.072 223.284 123.885 224.106 123.885C225.029 123.885 225.801 124.094 226.423 124.512C227.057 124.92 227.507 125.467 227.773 126.154L226.49 126.669C226.279 126.164 225.962 125.784 225.54 125.526C225.129 125.258 224.628 125.124 224.039 125.124C223.539 125.124 223.073 125.258 222.639 125.526C222.206 125.784 221.856 126.148 221.589 126.62C221.333 127.093 221.206 127.634 221.206 128.246C221.206 128.857 221.333 129.399 221.589 129.871C221.856 130.343 222.206 130.713 222.639 130.982C223.073 131.239 223.539 131.368 224.039 131.368C224.64 131.368 225.156 131.234 225.59 130.966C226.023 130.697 226.345 130.316 226.557 129.823L227.823 130.338C227.535 131.014 227.068 131.561 226.423 131.979C225.79 132.398 225.017 132.607 224.106 132.607ZM229.354 120.827H230.771V124.223L230.705 125.349H230.771C231.005 124.931 231.371 124.582 231.871 124.303C232.383 124.024 232.938 123.885 233.538 123.885C234.572 123.885 235.361 124.18 235.906 124.77C236.45 125.349 236.722 126.122 236.722 127.087V132.35H235.305V127.296C235.305 126.556 235.111 126.009 234.722 125.655C234.333 125.301 233.827 125.124 233.205 125.124C232.761 125.124 232.349 125.253 231.971 125.51C231.605 125.768 231.31 126.1 231.088 126.508C230.877 126.915 230.771 127.339 230.771 127.779V132.35H229.354V120.827ZM238.764 124.142H240.115V125.349H240.181C240.415 124.941 240.787 124.598 241.298 124.319C241.809 124.029 242.354 123.885 242.932 123.885C243.954 123.885 244.732 124.174 245.266 124.754C245.81 125.322 246.082 126.1 246.082 127.087V132.35H244.666V127.296C244.666 126.535 244.477 125.982 244.099 125.639C243.721 125.295 243.204 125.124 242.548 125.124C242.093 125.124 241.682 125.247 241.315 125.494C240.959 125.741 240.681 126.068 240.481 126.476C240.281 126.873 240.181 127.291 240.181 127.731V132.35H238.764V124.142ZM252.025 132.607C251.192 132.607 250.442 132.414 249.775 132.028C249.108 131.641 248.586 131.116 248.208 130.451C247.841 129.785 247.658 129.05 247.658 128.246C247.658 127.441 247.841 126.706 248.208 126.041C248.586 125.376 249.108 124.85 249.775 124.464C250.442 124.078 251.192 123.885 252.025 123.885C252.859 123.885 253.609 124.078 254.276 124.464C254.942 124.85 255.459 125.376 255.826 126.041C256.204 126.706 256.393 127.441 256.393 128.246C256.393 129.05 256.204 129.785 255.826 130.451C255.459 131.116 254.942 131.641 254.276 132.028C253.609 132.414 252.859 132.607 252.025 132.607ZM252.025 131.368C252.548 131.368 253.031 131.245 253.475 130.998C253.931 130.74 254.292 130.375 254.559 129.903C254.837 129.431 254.976 128.879 254.976 128.246C254.976 127.613 254.837 127.06 254.559 126.588C254.292 126.116 253.931 125.757 253.475 125.51C253.031 125.253 252.548 125.124 252.025 125.124C251.503 125.124 251.014 125.253 250.558 125.51C250.103 125.757 249.736 126.116 249.458 126.588C249.191 127.06 249.058 127.613 249.058 128.246C249.058 128.879 249.191 129.431 249.458 129.903C249.736 130.375 250.103 130.74 250.558 130.998C251.014 131.245 251.503 131.368 252.025 131.368ZM257.957 120.827H259.374V132.35H257.957V120.827ZM265.31 132.607C264.476 132.607 263.726 132.414 263.059 132.028C262.392 131.641 261.87 131.116 261.492 130.451C261.125 129.785 260.942 129.05 260.942 128.246C260.942 127.441 261.125 126.706 261.492 126.041C261.87 125.376 262.392 124.85 263.059 124.464C263.726 124.078 264.476 123.885 265.31 123.885C266.143 123.885 266.893 124.078 267.56 124.464C268.227 124.85 268.744 125.376 269.11 126.041C269.488 126.706 269.677 127.441 269.677 128.246C269.677 129.05 269.488 129.785 269.11 130.451C268.744 131.116 268.227 131.641 267.56 132.028C266.893 132.414 266.143 132.607 265.31 132.607ZM265.31 131.368C265.832 131.368 266.315 131.245 266.76 130.998C267.215 130.74 267.577 130.375 267.843 129.903C268.121 129.431 268.26 128.879 268.26 128.246C268.26 127.613 268.121 127.06 267.843 126.588C267.577 126.116 267.215 125.757 266.76 125.51C266.315 125.253 265.832 125.124 265.31 125.124C264.787 125.124 264.298 125.253 263.843 125.51C263.387 125.757 263.02 126.116 262.742 126.588C262.476 127.06 262.342 127.613 262.342 128.246C262.342 128.879 262.476 129.431 262.742 129.903C263.02 130.375 263.387 130.74 263.843 130.998C264.298 131.245 264.787 131.368 265.31 131.368ZM275.056 136.083C274.056 136.083 273.228 135.858 272.572 135.407C271.928 134.957 271.494 134.415 271.272 133.782L272.555 133.251C272.744 133.723 273.055 134.104 273.489 134.393C273.933 134.694 274.456 134.844 275.056 134.844C275.934 134.844 276.612 134.597 277.09 134.104C277.579 133.61 277.823 132.913 277.823 132.012V131.094H277.756C277.479 131.513 277.084 131.856 276.573 132.124C276.073 132.382 275.5 132.51 274.856 132.51C274.122 132.51 273.45 132.328 272.839 131.963C272.239 131.599 271.761 131.089 271.405 130.435C271.05 129.78 270.872 129.034 270.872 128.198C270.872 127.371 271.05 126.631 271.405 125.977C271.761 125.312 272.239 124.797 272.839 124.432C273.45 124.067 274.122 123.885 274.856 123.885C275.5 123.885 276.073 124.019 276.573 124.287C277.084 124.544 277.479 124.888 277.756 125.317H277.823V124.142H279.173V132.028C279.173 133.347 278.795 134.35 278.04 135.037C277.284 135.734 276.289 136.083 275.056 136.083ZM275.056 131.271C275.567 131.271 276.028 131.148 276.439 130.901C276.862 130.654 277.195 130.3 277.44 129.839C277.695 129.378 277.823 128.831 277.823 128.198C277.823 127.554 277.695 127.001 277.44 126.54C277.195 126.079 276.862 125.73 276.439 125.494C276.028 125.247 275.567 125.124 275.056 125.124C274.545 125.124 274.078 125.247 273.656 125.494C273.233 125.741 272.894 126.095 272.639 126.556C272.394 127.017 272.272 127.565 272.272 128.198C272.272 128.831 272.394 129.383 272.639 129.855C272.894 130.316 273.233 130.671 273.656 130.917C274.078 131.153 274.545 131.271 275.056 131.271ZM283.87 131.835L280.353 124.142H281.886L284.553 130.241H284.587L287.154 124.142H288.688L283.437 135.826H281.97L283.87 131.835ZM288.492 133.685L289.375 132.35C289.175 132.317 288.997 132.215 288.842 132.044C288.686 131.872 288.608 131.663 288.608 131.416C288.608 131.137 288.708 130.901 288.908 130.708C289.12 130.504 289.375 130.402 289.675 130.402C289.975 130.402 290.225 130.504 290.425 130.708C290.637 130.901 290.742 131.137 290.742 131.416C290.742 131.599 290.703 131.776 290.625 131.947C290.548 132.108 290.431 132.296 290.275 132.51L289.175 134.12L288.492 133.685ZM295.153 120.827H296.72L298.887 129.292L299.087 130.08H299.153L299.403 129.292L302.071 120.827H303.538L306.088 129.292L306.338 130.08H306.405L308.755 120.827H310.322L307.105 132.35H305.638L303.104 124.013L302.837 123.112H302.771L302.487 124.013L299.854 132.35H298.387L295.153 120.827ZM313.712 132.607C313.089 132.607 312.534 132.489 312.045 132.253C311.556 132.017 311.178 131.695 310.911 131.287C310.644 130.869 310.511 130.397 310.511 129.871C310.511 129.002 310.85 128.326 311.528 127.844C312.206 127.35 313.062 127.103 314.095 127.103C314.606 127.103 315.079 127.157 315.512 127.264C315.957 127.371 316.296 127.495 316.529 127.634V127.135C316.529 126.524 316.307 126.036 315.862 125.671C315.418 125.295 314.856 125.108 314.178 125.108C313.701 125.108 313.262 125.21 312.862 125.413C312.461 125.607 312.145 125.88 311.911 126.234L310.845 125.462C311.178 124.968 311.633 124.582 312.211 124.303C312.8 124.024 313.451 123.885 314.162 123.885C315.318 123.885 316.223 124.18 316.879 124.77C317.546 125.349 317.879 126.143 317.879 127.152V132.35H316.529V131.175H316.462C316.218 131.572 315.851 131.91 315.362 132.189C314.873 132.468 314.323 132.607 313.712 132.607ZM313.845 131.4C314.323 131.4 314.767 131.282 315.179 131.046C315.59 130.81 315.918 130.493 316.162 130.097C316.407 129.7 316.529 129.265 316.529 128.793C316.262 128.621 315.934 128.482 315.545 128.375C315.156 128.267 314.745 128.214 314.312 128.214C313.534 128.214 312.945 128.369 312.545 128.68C312.156 128.991 311.961 129.394 311.961 129.887C311.961 130.338 312.139 130.703 312.495 130.982C312.85 131.261 313.3 131.4 313.845 131.4ZM319.85 124.142H321.201V125.462H321.267C321.434 125.011 321.756 124.641 322.234 124.351C322.712 124.051 323.212 123.901 323.734 123.901C324.123 123.901 324.457 123.954 324.735 124.062V125.542C324.379 125.371 323.979 125.285 323.534 125.285C323.123 125.285 322.745 125.397 322.401 125.623C322.056 125.848 321.778 126.154 321.567 126.54C321.367 126.915 321.267 127.323 321.267 127.763V132.35H319.85V124.142ZM329.198 132.607C328.442 132.607 327.753 132.419 327.131 132.044C326.52 131.668 326.036 131.153 325.681 130.499C325.325 129.834 325.147 129.083 325.147 128.246C325.147 127.42 325.325 126.674 325.681 126.009C326.036 125.344 326.52 124.823 327.131 124.448C327.753 124.072 328.442 123.885 329.198 123.885C329.854 123.885 330.437 124.029 330.948 124.319C331.459 124.598 331.848 124.947 332.115 125.365H332.182L332.115 124.223V120.827H333.532V132.35H332.182V131.143H332.115C331.848 131.55 331.459 131.899 330.948 132.189C330.437 132.468 329.854 132.607 329.198 132.607ZM329.365 131.368C329.865 131.368 330.326 131.239 330.748 130.982C331.182 130.724 331.526 130.359 331.782 129.887C332.048 129.415 332.182 128.868 332.182 128.246C332.182 127.624 332.048 127.076 331.782 126.604C331.526 126.132 331.182 125.768 330.748 125.51C330.326 125.253 329.865 125.124 329.365 125.124C328.876 125.124 328.414 125.253 327.981 125.51C327.548 125.768 327.197 126.138 326.931 126.62C326.675 127.093 326.547 127.634 326.547 128.246C326.547 128.857 326.675 129.405 326.931 129.887C327.197 130.359 327.548 130.724 327.981 130.982C328.414 131.239 328.876 131.368 329.365 131.368ZM335.624 120.827H337.041V124.223L336.974 125.349H337.041C337.274 124.931 337.641 124.582 338.141 124.303C338.652 124.024 339.208 123.885 339.808 123.885C340.842 123.885 341.631 124.18 342.175 124.77C342.72 125.349 342.992 126.122 342.992 127.087V132.35H341.575V127.296C341.575 126.556 341.381 126.009 340.992 125.655C340.603 125.301 340.097 125.124 339.475 125.124C339.03 125.124 338.619 125.253 338.241 125.51C337.875 125.768 337.58 126.1 337.358 126.508C337.147 126.915 337.041 127.339 337.041 127.779V132.35H335.624V120.827ZM347.669 132.607C347.047 132.607 346.491 132.489 346.002 132.253C345.513 132.017 345.136 131.695 344.869 131.287C344.602 130.869 344.469 130.397 344.469 129.871C344.469 129.002 344.808 128.326 345.486 127.844C346.164 127.35 347.019 127.103 348.053 127.103C348.564 127.103 349.036 127.157 349.47 127.264C349.914 127.371 350.253 127.495 350.487 127.634V127.135C350.487 126.524 350.264 126.036 349.82 125.671C349.375 125.295 348.814 125.108 348.136 125.108C347.658 125.108 347.219 125.21 346.819 125.413C346.419 125.607 346.102 125.88 345.869 126.234L344.802 125.462C345.136 124.968 345.591 124.582 346.169 124.303C346.758 124.024 347.408 123.885 348.119 123.885C349.275 123.885 350.181 124.18 350.837 124.77C351.503 125.349 351.837 126.143 351.837 127.152V132.35H350.487V131.175H350.42C350.175 131.572 349.809 131.91 349.32 132.189C348.831 132.468 348.281 132.607 347.669 132.607ZM347.803 131.4C348.281 131.4 348.725 131.282 349.136 131.046C349.548 130.81 349.875 130.493 350.12 130.097C350.364 129.7 350.487 129.265 350.487 128.793C350.22 128.621 349.892 128.482 349.503 128.375C349.114 128.267 348.703 128.214 348.27 128.214C347.492 128.214 346.903 128.369 346.502 128.68C346.113 128.991 345.919 129.394 345.919 129.887C345.919 130.338 346.097 130.703 346.453 130.982C346.808 131.261 347.258 131.4 347.803 131.4Z" />
    <defs>
        <linearGradient id="paint0_linear_701_2359" x1="424.838" y1="130.558" x2="8.31644" y2="130.558"
            gradientUnits="userSpaceOnUse">
            <stop stop-color="#348BCA" />
            <stop offset="0.404875" stop-color="#59A43A" />
            <stop offset="0.711571" stop-color="#F3B002" />
            <stop offset="1" stop-color="#DF572E" />
        </linearGradient>
    </defs>
</svg>