<svg width="161" height="18" viewBox="0 0 161 18" fill="none" xmlns="http://www.w3.org/2000/svg">
<path d="M6.09184 14.2823C6.51238 13.9672 6.93291 13.6521 7.35345 13.2739C7.77399 12.8958 8.2546 12.5807 8.67514 12.2026C9.69644 11.3203 10.7177 10.438 11.739 9.55567C11.4987 9.9338 11.1984 10.3119 10.958 10.6901C10.7177 11.0682 10.4774 11.3833 10.1771 11.7614C10.0569 11.9505 9.87667 12.1395 9.75652 12.3286C9.57629 12.5177 9.45613 12.7698 9.39606 13.0218C9.2759 13.2739 9.21583 13.463 9.15575 13.7151C9.0356 14.0932 9.15575 14.5974 9.45613 14.8495C9.57629 14.9755 9.75652 15.1015 9.93675 15.1646C10.117 15.2276 10.3573 15.2276 10.5375 15.1646C10.7778 15.1015 11.0181 15.1015 11.2584 15.0385C11.4387 14.9755 11.5588 14.9125 11.739 14.8495C11.9193 14.7864 12.0995 14.7234 12.2197 14.5974C12.7603 14.3453 13.241 13.9672 13.7817 13.589C14.3223 13.2109 14.9231 12.8328 15.4638 12.3916C16.0646 11.9505 16.6053 11.5093 17.1459 11.0682C17.6866 10.6901 18.1672 10.2489 18.6479 9.80776C18.5878 9.87078 18.5277 9.9338 18.5277 9.99682C18.0471 10.627 17.5665 11.3203 17.0859 11.9505C16.7855 12.3286 16.4851 12.7067 16.2448 13.0849C16.1246 13.2739 16.0045 13.526 15.8843 13.7781C15.8243 13.9672 15.7642 14.1562 15.7642 14.3453C15.7642 14.5344 15.7041 14.7234 15.644 14.9125C15.584 15.2276 15.584 15.4797 15.7642 15.7318C15.8843 15.9208 16.1246 16.1729 16.3649 16.2359C16.7254 16.299 17.0859 16.362 17.5064 16.425C17.6866 16.425 17.8669 16.488 18.0471 16.425C18.2273 16.425 18.4076 16.362 18.5878 16.362C18.9482 16.299 19.2486 16.1729 19.549 16.0469C19.9095 15.9208 20.2099 15.7318 20.5102 15.6057C21.8319 14.9125 23.1536 14.0932 24.4152 13.2739C25.016 12.8958 25.5567 12.4547 26.1574 12.0765C25.797 12.5807 25.3764 13.0849 25.016 13.589C24.7757 13.9041 24.5354 14.2193 24.2951 14.5344C24.0548 14.8495 23.8745 15.1015 23.7544 15.4797C23.6342 15.7948 23.5741 16.1099 23.5141 16.425C23.454 16.8661 23.5141 17.2443 23.8145 17.5594C23.9346 17.6854 24.1148 17.8115 24.2951 17.8745C24.4753 17.9375 24.7156 17.9375 24.8958 17.8745C25.016 17.8745 25.1361 17.8115 25.1962 17.8115C25.5567 17.7484 25.9171 17.6854 26.2175 17.6224C26.578 17.5594 26.9384 17.4333 27.2989 17.2443C28.0198 16.9292 28.6807 16.551 29.3415 16.1729C30.6632 15.3536 31.9248 14.4713 33.1864 13.589C33.3666 13.463 33.5469 13.337 33.7271 13.1479C33.7271 13.1479 33.7271 13.2109 33.667 13.2109C33.5469 13.4 33.4267 13.6521 33.3666 13.8411C33.2465 14.2193 33.3666 14.5974 33.4267 14.9755C33.5469 15.6057 34.2077 15.9208 34.8085 15.7948C35.1689 15.6687 35.5294 15.6057 35.8899 15.4797C36.3104 15.3536 36.7309 15.1646 37.1515 14.9125C37.9925 14.5344 38.7735 13.9672 39.4945 13.463C40.0952 13.0849 40.6359 12.6437 41.2367 12.2656C42.3781 11.5093 43.4595 10.7531 44.601 9.9338C45.2017 9.49265 45.8626 8.98848 46.4634 8.54733C46.223 8.86244 45.9227 9.24057 45.6824 9.55567C45.5622 9.68172 45.4421 9.87078 45.3219 9.99682C45.0215 10.3119 44.7812 10.627 44.5409 10.9421C44.3006 11.3203 44.2405 11.7614 44.2405 12.2026C44.2405 12.3916 44.3006 12.5807 44.3006 12.7698C44.3006 12.8328 44.3607 12.9588 44.3607 13.0218C44.4207 13.2109 44.4808 13.337 44.5409 13.526C44.601 13.7151 44.7211 13.9041 44.8413 14.0932C45.0215 14.2823 45.382 14.4713 45.6824 14.4713C46.3432 14.4083 47.0641 14.3453 47.785 14.2193C48.4459 14.0932 49.1067 13.8411 49.7075 13.526C50.9691 12.9588 52.1706 12.2656 53.3722 11.5093C54.2132 11.0052 55.0543 10.438 55.8954 9.87078C55.7152 10.1229 55.4748 10.3119 55.2946 10.564C54.9342 11.0052 54.5136 11.4463 54.1532 11.8875C53.8528 12.2026 53.6125 12.5177 53.3121 12.8328C52.8916 13.337 52.5311 13.9041 52.1706 14.4713C51.8703 14.9755 52.0505 15.8578 52.5912 16.1099C52.7714 16.1729 52.8916 16.299 53.0718 16.362C53.252 16.425 53.4322 16.488 53.6125 16.551C53.9729 16.6141 54.3334 16.551 54.7539 16.488C55.1144 16.425 55.4749 16.2359 55.7752 16.0469C56.1958 15.8578 56.6163 15.6057 56.9768 15.3536C57.3372 15.1646 57.6376 14.9755 57.9981 14.7864C58.3585 14.5974 58.6589 14.4083 59.0194 14.1562C59.6201 13.7781 60.2209 13.4 60.7616 13.0218C60.9418 12.8958 61.1221 12.7698 61.2422 12.6437C61.1821 12.8328 61.062 12.9588 61.0019 13.1479C60.8217 13.526 60.7616 13.9672 61.0019 14.3453C61.2422 14.7234 61.6027 14.9125 62.0232 14.9125C62.3236 14.9125 62.5639 14.9755 62.8042 14.9755C62.9844 14.9755 63.1647 14.9125 63.3449 14.9125C63.5251 14.8495 63.7054 14.8495 63.8255 14.7864C64.186 14.6604 64.4864 14.4713 64.8468 14.3453C65.1472 14.1562 65.5077 13.9672 65.808 13.7781C66.4689 13.4 67.0696 12.9588 67.7305 12.5807C68.3913 12.1395 69.1123 11.6984 69.7731 11.2572C71.1549 10.3119 72.4765 9.30359 73.8583 8.35827C74.0986 8.1692 74.2788 8.04316 74.5191 7.8541C74.4591 7.91712 74.399 7.98014 74.399 8.04316C73.9184 8.67337 73.3777 9.36661 72.8971 10.0598C72.6568 10.375 72.4165 10.7531 72.1161 11.0682C71.8157 11.5093 71.4552 11.8875 71.1549 12.2656C71.0347 12.4547 70.8545 12.7067 70.7343 12.9588C70.5541 13.2739 70.4339 13.6521 70.3138 14.0302C70.1936 14.2823 70.3138 14.6604 70.4339 14.9125C70.6142 15.2276 70.9746 15.4797 71.3952 15.4797C71.5754 15.4797 71.7556 15.4797 71.8758 15.4797C72.056 15.4797 72.2362 15.4797 72.3564 15.4797C72.7769 15.4797 73.1975 15.3536 73.618 15.2276C73.9785 15.1015 74.2788 14.9755 74.6393 14.7864C75.0598 14.5974 75.4203 14.4083 75.8408 14.1562C77.3428 13.2739 78.7846 12.3916 80.2264 11.4463C81.6082 10.501 82.99 9.55567 84.3717 8.54733C85.0326 8.04316 85.6934 7.53899 86.3542 7.09784L86.2942 7.16086C85.9337 7.66503 85.5132 8.1692 85.1527 8.67337C84.9124 8.98848 84.6721 9.30359 84.4318 9.61869C84.3116 9.74474 84.2516 9.87078 84.1915 9.99682C84.1314 10.1229 84.0713 10.3119 84.0113 10.438C83.9512 10.564 83.9512 10.7531 84.0113 10.9421C84.0113 11.1942 84.1314 11.3833 84.1915 11.6354C84.3717 12.1395 84.8523 12.5177 85.393 12.3286C86.0539 12.1395 86.7147 11.9505 87.3755 11.7614C88.0364 11.5724 88.6372 11.2572 89.2379 10.9421C90.0189 10.564 90.7999 10.1229 91.5208 9.74474C92.4821 9.24057 93.3832 8.7364 94.3444 8.1692C95.2456 7.66503 96.0867 7.16086 96.9878 6.65669C96.7475 6.90878 96.4471 7.16086 96.2068 7.41295C95.4859 8.1692 94.7049 8.86244 93.984 9.61869C93.1429 10.438 92.3619 11.2572 91.5208 12.0765C91.0402 12.5807 90.5596 13.0849 90.079 13.589C89.7786 13.9041 89.4182 14.2193 89.1178 14.5344C88.9976 14.6604 88.9375 14.7864 88.8775 14.9125C88.8174 15.0385 88.7573 15.1646 88.6972 15.3536C88.6372 15.4797 88.6372 15.6687 88.6372 15.7948C88.6372 16.0469 88.6972 16.2359 88.6972 16.488C88.6972 16.7401 88.7573 16.9922 88.9976 17.1813C89.2379 17.4333 89.5984 17.4964 89.8988 17.4333C90.4395 17.3073 91.0402 17.1813 91.5809 17.0552C92.1216 16.9292 92.6623 16.7401 93.203 16.488C94.3445 15.9838 95.4859 15.4167 96.5673 14.7864C97.0479 14.5344 97.5886 14.2193 98.0692 13.9041C98.4297 13.6521 98.8502 13.4 99.2107 13.2109C99.6312 12.9588 100.052 12.7067 100.532 12.3916C100.412 12.5177 100.232 12.6437 100.112 12.7698C99.9316 12.8958 99.7514 13.0218 99.6312 13.2109C99.511 13.337 99.451 13.463 99.3308 13.589C99.2707 13.7151 99.2107 13.8411 99.1506 14.0302C99.0905 14.2192 99.0905 14.4713 99.1506 14.6604C99.1506 14.8495 99.2107 14.9755 99.2707 15.1015C99.451 15.4797 99.7513 15.7948 100.172 15.9838C100.713 16.1729 101.253 16.1099 101.854 15.9208C102.154 15.8578 102.455 15.6687 102.755 15.5427C103.056 15.4167 103.296 15.2906 103.596 15.1646C104.437 14.7864 105.278 14.4083 106.119 14.0302C107.021 13.589 107.862 13.0849 108.703 12.6437C109.243 12.3286 109.784 12.0135 110.325 11.6984C111.526 11.0052 112.728 10.2489 113.929 9.49265C114.71 8.98848 115.552 8.42129 116.333 7.91712C116.032 8.23223 115.792 8.61035 115.491 8.92546C115.191 9.24057 114.891 9.61869 114.59 9.9338C114.29 10.3119 113.99 10.6901 113.689 11.0682C113.389 11.4463 113.209 11.8875 112.968 12.3286C112.608 12.9588 112.908 13.8411 113.629 14.0302C113.869 14.0932 114.11 14.1562 114.41 14.2193C114.59 14.2823 114.771 14.2823 114.951 14.2823C115.131 14.2823 115.311 14.2193 115.491 14.2193C115.852 14.1562 116.152 14.0302 116.513 13.8411C116.813 13.7151 117.174 13.526 117.474 13.337C118.075 13.0218 118.615 12.7067 119.216 12.3916C119.937 12.0135 120.598 11.5724 121.319 11.1312C121.92 10.7531 122.52 10.3749 123.121 9.99682C123.061 10.0598 123.001 10.1229 122.941 10.1859C122.641 10.501 122.34 10.8791 122.04 11.2572C121.739 11.6354 121.499 12.0765 121.499 12.5807C121.499 12.8958 121.619 13.0849 121.739 13.337C121.799 13.526 122.1 13.8411 122.28 13.9041C122.34 13.9041 122.4 13.9672 122.4 13.9672C122.58 14.0932 122.761 14.1562 123.001 14.1562C123.241 14.1562 123.482 14.1562 123.662 14.0932C124.142 13.9672 124.563 13.7781 124.984 13.526C125.224 13.4 125.464 13.2739 125.704 13.1479C125.945 13.0218 126.245 12.8328 126.485 12.7067C126.966 12.3916 127.507 12.0765 127.987 11.7614C128.168 11.6354 128.348 11.5093 128.528 11.3833C128.408 11.5093 128.288 11.6984 128.168 11.8244C127.987 12.0765 127.747 12.3286 127.567 12.5807C127.266 12.9588 126.966 13.2739 126.666 13.6521C126.365 14.0302 126.125 14.4083 125.885 14.7864C125.704 15.0385 125.704 15.4167 125.765 15.6687C125.825 15.9208 126.005 16.2359 126.245 16.362C126.365 16.425 126.485 16.488 126.666 16.551C126.846 16.6141 126.966 16.6771 127.146 16.7401C127.327 16.8031 127.447 16.8031 127.627 16.8031C127.927 16.8031 128.168 16.7401 128.408 16.7401C128.828 16.6771 129.309 16.488 129.73 16.299C130.15 16.1099 130.571 15.8578 130.991 15.6687C131.352 15.4797 131.712 15.3536 132.073 15.1646C132.493 14.9755 132.974 14.7234 133.394 14.4713C134.115 14.0932 134.836 13.7151 135.497 13.2739C136.038 12.9588 136.518 12.6437 137.059 12.3286C136.999 12.3916 136.999 12.4547 136.939 12.5177C136.638 12.9588 136.759 13.6521 137.119 14.0302C137.419 14.3453 137.78 14.6604 138.2 14.8495C138.441 14.9125 138.681 14.9125 138.921 14.9125C139.282 14.9125 139.582 14.7864 139.943 14.6604C140.183 14.5974 140.423 14.4713 140.603 14.3453C140.844 14.2192 141.144 14.1562 141.384 14.0302C141.985 13.7781 142.526 13.463 143.127 13.0849C143.968 12.5807 144.809 12.0135 145.65 11.4463C145.59 11.6354 145.59 11.8244 145.59 12.0135C145.59 12.2026 145.65 12.4547 145.71 12.6437C145.77 12.7698 145.77 12.8328 145.83 12.9588C145.89 13.0849 146.01 13.2109 146.07 13.337C146.251 13.526 146.551 13.6521 146.791 13.7151C146.912 13.7151 147.032 13.7151 147.092 13.7781C147.212 13.7781 147.392 13.7781 147.512 13.7781C147.813 13.7151 148.053 13.7151 148.293 13.589C149.255 13.337 150.216 12.8328 151.117 12.3286C152.138 11.7614 153.159 11.1312 154.121 10.501C154.842 10.0598 155.502 9.55567 156.223 9.11452C156.283 9.0515 156.344 9.0515 156.404 8.98848C156.404 9.0515 156.344 9.11452 156.344 9.11452C155.983 9.74474 156.223 10.627 156.824 11.0052C157.125 11.1942 157.485 11.2572 157.845 11.1312C158.146 11.0682 158.506 10.8161 158.626 10.501C158.867 9.87078 159.107 9.30359 159.347 8.67337C159.468 8.42129 159.528 8.10618 159.648 7.8541C159.708 7.66503 159.768 7.53899 159.828 7.34993C159.948 6.9718 160.008 6.53065 160.008 6.0895C160.008 5.77439 159.888 5.45929 159.708 5.27022C159.407 4.95512 158.987 4.82907 158.626 4.95512C158.266 5.08116 157.906 5.2072 157.605 5.33324C157.305 5.45929 157.064 5.71137 156.764 5.90044C156.464 6.0895 156.223 6.27856 155.923 6.40461C155.502 6.71971 155.022 6.9718 154.601 7.28691C154.001 7.66503 153.4 8.04316 152.859 8.42129C152.198 8.86244 151.537 9.24057 150.816 9.68172C150.456 9.87078 150.156 10.0598 149.795 10.2489C149.615 10.375 149.435 10.438 149.255 10.564C149.735 9.9338 150.276 9.30359 150.756 8.67337C151.537 7.72806 152.318 6.84576 153.039 5.90044C153.159 5.77439 153.28 5.58533 153.34 5.39627C153.4 5.08116 153.4 4.76605 153.22 4.51397C153.099 4.26188 152.799 4.07282 152.559 3.94678C152.318 3.88375 151.898 3.88375 151.718 4.07282C150.516 5.01814 149.255 5.96346 148.053 6.84576C147.332 7.41295 146.551 7.91712 145.83 8.48431C144.929 9.11452 144.028 9.74474 143.067 10.375C142.466 10.7531 141.865 11.1312 141.264 11.4463C141.505 11.2572 141.685 11.0052 141.925 10.8161C142.406 10.3119 142.886 9.87078 143.367 9.42963C144.508 8.35827 145.59 7.22388 146.731 6.21554C146.791 6.15252 146.851 6.0895 146.912 6.02648C147.332 5.58533 147.332 4.82907 146.912 4.38793C146.731 4.19886 146.431 4.07282 146.131 4.07282C145.83 4.07282 145.59 4.19886 145.35 4.38793C145.289 4.45095 145.229 4.51397 145.169 4.57699C144.569 5.01814 143.908 5.45929 143.307 5.83742C142.826 6.15252 142.286 6.53065 141.805 6.84576C140.724 7.53899 139.702 8.23223 138.621 8.92546C138.321 9.11452 137.96 9.30359 137.66 9.49265C136.879 9.9338 136.158 10.438 135.377 10.8791C134.776 11.2572 134.175 11.6354 133.514 11.9505C132.733 12.3916 131.952 12.8328 131.171 13.2109C130.811 13.4 130.451 13.526 130.15 13.7151C129.91 13.8411 129.609 13.9672 129.369 14.0932C129.67 13.7151 129.97 13.337 130.33 12.9588C130.691 12.5177 131.051 12.0765 131.412 11.6354C131.952 11.0052 132.493 10.438 132.974 9.80776C133.394 9.36661 133.815 8.86244 134.235 8.42129C134.536 8.04316 134.836 7.66503 135.136 7.28691C135.377 6.9718 135.617 6.59367 135.857 6.21554C136.038 5.90044 136.038 5.45929 135.857 5.14418C135.737 4.95512 135.617 4.82907 135.497 4.76605C135.257 4.64001 134.956 4.57699 134.716 4.64001C134.536 4.70303 134.355 4.76605 134.235 4.82907C133.995 4.95512 133.815 5.08116 133.575 5.2072C133.334 5.39627 133.094 5.58533 132.854 5.71137C132.433 6.02648 132.073 6.27856 131.652 6.59367C131.051 7.03482 130.39 7.47597 129.79 7.91712C129.069 8.42129 128.288 8.92546 127.567 9.42963C127.146 9.68172 126.786 9.9338 126.365 10.1859C126.305 10.1859 126.305 10.2489 126.245 10.2489C126.726 9.74474 127.146 9.24057 127.627 8.7364C128.047 8.23222 128.528 7.72806 128.949 7.22388C129.309 6.84576 129.609 6.46763 129.97 6.0895C130.33 5.64835 130.691 5.2072 131.111 4.76605C131.232 4.64001 131.352 4.45095 131.412 4.26188C131.472 3.94678 131.472 3.63167 131.292 3.37958C131.051 2.93844 130.511 2.68635 130.03 2.87541C129.85 2.93843 129.609 3.00146 129.429 3.1275C129.129 3.31656 128.828 3.50563 128.588 3.69469C128.408 3.82073 128.168 3.94678 127.987 4.07282C127.567 4.3249 127.146 4.64001 126.726 4.8921C125.945 5.39627 125.164 5.96346 124.383 6.46763C123.422 7.09784 122.4 7.72806 121.439 8.35827C120.658 8.86244 119.877 9.30359 119.096 9.80776C118.495 10.1859 117.895 10.501 117.234 10.8161C116.993 10.9421 116.753 11.0682 116.453 11.2572C116.633 11.0682 116.753 10.8791 116.933 10.6901C117.174 10.375 117.474 10.0598 117.714 9.74474C118.075 9.30359 118.435 8.86244 118.796 8.42129C119.336 7.72805 119.877 7.09784 120.418 6.40461C120.658 6.0895 120.898 5.77439 121.199 5.52231C121.499 5.2072 121.739 4.8921 121.98 4.51397C122.22 4.19886 122.34 3.82073 122.46 3.44261C122.52 3.06448 122.46 2.62333 122.16 2.37124C121.86 2.05614 121.259 1.93009 120.898 2.18218C118.375 3.82073 115.852 5.52231 113.269 7.16086C112.848 7.47597 112.367 7.72805 111.947 7.98014C111.226 8.42129 110.565 8.79942 109.844 9.24057C107.862 10.438 105.879 11.5724 103.837 12.5177C104.197 12.2026 104.497 11.8875 104.858 11.6354C105.819 10.7531 106.78 9.9338 107.742 9.11452C108.883 8.10618 110.024 7.09784 111.166 6.0895C111.707 5.58533 112.247 5.08116 112.848 4.64001C113.209 4.3249 113.569 4.0098 113.929 3.69469C114.29 3.44261 114.65 3.06448 115.011 2.74937C115.371 2.43426 115.371 1.86707 115.191 1.48894C115.071 1.23686 114.831 1.0478 114.59 0.984774C114.29 0.921753 114.17 0.921753 114.11 0.921753C113.929 0.921753 113.749 0.984774 113.629 1.0478C113.148 1.42592 112.728 1.74103 112.247 2.11916C112.067 2.30822 111.887 2.43426 111.707 2.62333C111.166 3.00146 110.625 3.37958 110.024 3.75771C109.364 4.19886 108.703 4.64001 108.042 5.14418C106.6 6.15252 105.098 7.09784 103.656 8.10618C103.176 8.42129 102.695 8.7364 102.214 9.0515C101.373 9.55567 100.532 10.0598 99.7513 10.564C98.8502 11.1312 98.0091 11.6354 97.108 12.2026C96.6874 12.4547 96.2669 12.7067 95.8464 12.9588C94.765 13.589 93.7437 14.1562 92.6022 14.6604C92.1817 14.8495 91.7011 14.9755 91.2805 15.1646L91.3406 15.1015C91.5208 14.9125 91.7011 14.7234 91.8813 14.5344C92.3018 14.0932 92.6623 13.6521 93.0828 13.2109C93.9239 12.3286 94.765 11.5093 95.6061 10.627C96.3871 9.80776 97.1681 9.0515 97.949 8.29525C98.3095 7.98014 98.6099 7.60201 98.9703 7.28691C99.511 6.78274 100.052 6.21554 100.532 5.71137C100.773 5.45929 101.013 5.2072 101.193 4.8921C101.433 4.57699 101.614 4.26188 101.794 3.94678C102.214 3.31656 101.554 2.37124 100.833 2.62333C100.292 2.81239 99.8114 3.00146 99.2707 3.25354C98.9103 3.44261 98.5498 3.69469 98.1893 3.88375C97.6487 4.19886 97.108 4.51397 96.5072 4.82907C95.6661 5.27022 94.8851 5.71137 94.0441 6.21554C93.3231 6.59367 92.6022 7.03482 91.8212 7.41295C90.4395 8.1692 89.0577 8.92546 87.6759 9.55567C87.3755 9.68172 87.0752 9.80776 86.7147 9.9338C86.7748 9.80776 86.8949 9.68172 86.955 9.55567C87.3155 9.0515 87.736 8.54733 88.0965 8.04316C88.517 7.53899 88.8775 7.03482 89.298 6.46763C89.5383 6.15252 89.7786 5.83742 90.0189 5.45929C90.2592 5.2072 90.4395 4.8921 90.6197 4.57699C90.9201 4.19886 91.1003 3.75771 91.2805 3.31656C91.4608 3.00146 91.4608 2.62333 91.2805 2.30822C91.1003 1.93009 90.6197 1.67801 90.1992 1.86707C89.8988 1.99312 89.5984 2.11916 89.298 2.30822C89.0577 2.43426 88.8775 2.62333 88.6372 2.81239C88.3969 3.00146 88.0965 3.19052 87.8562 3.37958C87.3755 3.75771 86.8949 4.07282 86.4143 4.38793C85.393 5.14418 84.4318 5.83742 83.4105 6.53065C82.3892 7.22388 81.3679 7.91712 80.3466 8.61035C79.3854 9.24057 78.3641 9.87078 77.4028 10.501C76.742 10.8791 76.0811 11.2572 75.4203 11.6354C74.7595 12.0135 74.0385 12.4547 73.3777 12.7698C73.3176 12.7698 73.3176 12.7698 73.2575 12.8328C73.3777 12.6437 73.5579 12.4547 73.6781 12.2656C74.0385 11.8244 74.3389 11.3203 74.6994 10.8791C75.2401 10.1859 75.7808 9.49265 76.2614 8.79942C76.6819 8.23223 77.1625 7.66503 77.5831 7.03482C77.9435 6.59367 78.2439 6.15252 78.6044 5.64835C79.085 5.01814 79.5656 4.3249 79.9861 3.63167C80.1664 3.37958 80.1664 3.06448 80.1063 2.74937C80.0462 2.49729 79.866 2.18218 79.6257 2.05614C79.4454 1.99312 79.3253 1.93009 79.1451 1.86707C78.7846 1.80405 78.4842 1.86707 78.1838 2.05614C77.7633 2.30822 77.4629 2.62333 77.1024 2.93844C75.6606 4.0098 74.2188 5.08116 72.7769 6.15252C71.8758 6.78274 70.9746 7.41295 70.0735 8.04316C68.932 8.86244 67.7305 9.61869 66.529 10.375C66.1084 10.627 65.6879 10.8791 65.2673 11.1312C65.5077 10.8791 65.748 10.627 65.9883 10.3119C66.529 9.68172 67.0696 9.11452 67.6704 8.48431C68.0309 8.10618 68.3913 7.72805 68.6917 7.34993C68.9921 7.03482 69.2925 6.65669 69.5929 6.27856C69.8332 5.96346 70.0134 5.58533 70.2537 5.27022C70.494 4.82907 70.4339 4.19886 70.0735 3.82073C69.9533 3.69469 69.7731 3.56865 69.5929 3.50563C69.3526 3.44261 68.932 3.44261 68.7518 3.63167C68.0309 4.19886 67.31 4.76605 66.6491 5.33324C66.0483 5.83742 65.3875 6.34159 64.7267 6.84576C64.186 7.22388 63.7054 7.66503 63.1647 8.04316C62.9244 8.23223 62.6841 8.42129 62.4437 8.61035C61.4825 9.30359 60.5213 9.99682 59.5601 10.627C58.8992 11.0682 58.2384 11.5093 57.5175 11.9505C57.0368 12.2656 56.4962 12.5807 56.0155 12.8328C56.3159 12.4547 56.6163 12.0765 56.9768 11.6984C57.5775 10.9421 58.2384 10.2489 58.8992 9.49265C59.4399 8.86244 60.0407 8.23223 60.5814 7.60201C60.8818 7.22388 61.2422 6.90878 61.5426 6.53065C62.2034 5.77439 62.9844 5.2072 63.5251 4.3249C63.7654 3.88375 63.7054 3.31656 63.3449 2.93844C62.9844 2.56031 62.4437 2.49729 62.0232 2.74937C60.4011 3.88375 58.719 4.95512 57.0969 6.02648C56.2558 6.59367 55.4148 7.09784 54.5737 7.66503C53.6125 8.29525 52.7113 8.86244 51.7501 9.42963C51.2094 9.74474 50.7288 9.99682 50.1881 10.3119C49.6474 10.627 49.1067 10.8791 48.506 11.1312C48.2657 11.2572 48.0253 11.3203 47.785 11.3833C47.4847 11.5093 47.1242 11.5724 46.8238 11.6354C46.7637 11.6354 46.7637 11.6354 46.7037 11.6354C46.8839 11.4463 47.004 11.2572 47.1843 11.0682C47.4246 10.7531 47.6649 10.438 47.9653 10.1229C48.3257 9.68172 48.6862 9.24057 48.9866 8.79942C49.4672 8.1692 49.9478 7.60201 50.4284 6.9718C50.8489 6.40461 51.3296 5.90044 51.8102 5.33324C52.1106 4.95512 52.4109 4.57699 52.7113 4.13584C52.9516 3.75771 53.1919 3.37958 53.4322 3.00146C53.7326 2.56031 53.6125 1.93009 53.252 1.61499C52.8916 1.23686 52.3509 1.17384 51.9303 1.42592C51.6299 1.61499 51.3296 1.80405 51.0292 1.99312C50.8489 2.56031 50.4885 2.81239 50.128 3.1275C49.8276 3.37958 49.5273 3.56865 49.2269 3.82073C48.566 4.3249 47.8451 4.82907 47.1843 5.39627C46.1029 6.21554 45.0215 7.03482 43.8801 7.8541C42.9188 8.54733 41.8975 9.24057 40.9363 9.9338C40.2755 10.375 39.6747 10.8161 39.0138 11.2572C38.6534 11.5093 38.2929 11.6984 37.9925 11.9505C37.7522 12.1395 37.4519 12.2656 37.2115 12.4547C38.8937 10.2489 40.6359 8.10618 42.3781 5.96346C42.5584 5.71137 42.6785 5.45929 42.6785 5.14418C42.6785 4.8921 42.5584 4.57699 42.3781 4.38793C41.9576 3.94678 41.3568 4.0098 40.9363 4.38793C40.5758 4.70303 40.2755 5.08116 39.915 5.33324C39.7348 5.52231 39.4945 5.64835 39.3142 5.83742C38.9538 6.15252 38.6534 6.40461 38.2929 6.71971C37.5119 7.34993 36.791 7.98014 36.01 8.67337C35.0488 9.42963 34.0876 10.1859 33.1263 10.9421C32.3453 11.5724 31.5643 12.1395 30.7233 12.7067C30.0624 13.1479 29.4016 13.526 28.7407 13.9672C28.0799 14.4083 27.4191 14.7864 26.6981 15.1015C27.0586 14.5974 27.4791 14.0302 27.8396 13.526C28.6206 12.4547 29.4617 11.4463 30.2427 10.375C30.8434 9.61869 31.5043 8.86244 32.105 8.10618C32.4054 7.72805 32.7659 7.34993 33.0663 6.9718C33.2465 6.71971 33.4868 6.46763 33.7271 6.27856C33.7872 6.21554 33.9073 6.15252 33.9674 6.0895C34.2077 5.90044 34.3879 5.71137 34.6283 5.52231C34.8686 5.33324 35.0488 5.08116 35.229 4.8921C35.3492 4.76605 35.4693 4.57699 35.4693 4.38793C35.5294 4.13584 35.5294 3.82073 35.3492 3.56865C35.229 3.31656 34.9887 3.1275 34.7484 3.06448C34.5081 3.00146 34.1476 3.00146 33.9674 3.19052C33.7872 3.37958 33.5469 3.50563 33.3666 3.63167C33.0663 3.88375 32.826 4.07282 32.5856 4.3249C32.4054 4.51397 32.2252 4.70303 32.045 4.95512C31.6845 5.27022 31.324 5.52231 31.0236 5.83742C30.3027 6.40461 29.5818 6.9718 28.8609 7.53899C28.2601 7.98014 27.6594 8.42129 27.0586 8.86244C26.2776 9.42963 25.5567 9.99682 24.7757 10.501C23.8145 11.1942 22.8532 11.8244 21.8319 12.4547C21.3513 12.7698 20.8707 13.0218 20.33 13.337C19.7893 13.589 19.3087 13.9041 18.768 14.1562C18.4676 14.2823 18.1672 14.3453 17.9269 14.4713C17.987 14.4083 18.0471 14.3453 18.0471 14.2193C18.4676 13.6521 18.8281 13.1479 19.2486 12.5807C19.549 12.1395 19.8494 11.6984 20.2099 11.2572C20.8707 10.3749 21.4715 9.55567 22.1323 8.67337C22.5528 8.10618 23.0335 7.47597 23.454 6.90878C23.6943 6.59367 23.9346 6.27856 24.1749 5.96346C24.5354 5.45929 24.8958 4.95512 25.1962 4.38793C25.4365 4.0098 25.3164 3.44261 25.016 3.1275C24.7156 2.81239 24.1749 2.68635 23.8145 2.93844C23.454 3.19052 23.1536 3.37958 22.8532 3.69469C22.673 3.88375 22.4928 4.0098 22.2525 4.19886C21.9521 4.45095 21.5916 4.76605 21.2912 5.01814C20.5703 5.58533 19.8494 6.21554 19.1285 6.78274C18.2273 7.47597 17.3862 8.1692 16.4851 8.86244C15.7642 9.42963 14.9832 9.99682 14.2623 10.564C14.022 10.7531 13.7216 10.9421 13.4813 11.1312C13.7216 10.8161 13.9619 10.501 14.1421 10.1859C14.5626 9.55567 15.0433 8.92546 15.4638 8.29525C15.7041 7.91712 16.0045 7.53899 16.2448 7.16086C16.5452 6.78273 16.7855 6.34159 17.0258 5.90044C17.3262 5.39627 17.5064 4.82907 17.6866 4.3249C17.7467 4.13584 17.7467 3.94678 17.6866 3.69469C17.6266 3.50563 17.5665 3.31656 17.3862 3.19052C17.0258 2.81239 16.4851 2.74937 16.0646 3.00146C15.7642 3.19052 15.4037 3.37958 15.1033 3.63167C14.7429 3.94678 14.3824 4.26188 14.022 4.57699C13.7216 4.82907 13.4813 5.08116 13.1809 5.33324C12.7003 5.71137 12.2797 6.15252 11.7991 6.53065C10.1771 7.91712 8.61506 9.36661 6.99299 10.6901C6.4523 11.1312 5.97169 11.5093 5.431 11.9505C5.19069 12.1395 4.95038 12.3286 4.65 12.5177C4.89031 12.1395 5.07054 11.7614 5.31084 11.3833C5.73138 10.627 6.15192 9.87078 6.63253 9.11452C7.05307 8.42129 7.41353 7.72805 7.83406 7.03482C8.07437 6.65669 8.2546 6.27856 8.49491 5.83742C8.73521 5.39627 9.0356 5.01814 9.21583 4.51397C9.2759 4.26188 9.39606 4.0098 9.39606 3.75771C9.39606 3.56865 9.33598 3.37958 9.33598 3.19052C9.2759 2.87541 8.97552 2.56031 8.67514 2.49729C8.37475 2.43426 7.95422 2.49729 7.71391 2.74937C6.81276 3.82073 5.91161 4.95512 5.01046 6.02648C5.01046 5.77439 4.89031 5.77439 4.83023 5.77439C4.58992 5.77439 4.28954 5.90044 4.16939 6.0895C3.6287 6.78273 3.08801 7.41295 2.60739 8.10618C2.00663 8.92546 1.40586 9.80776 0.805094 10.627C0.624864 10.8791 0.624864 11.3833 0.805094 11.6354C0.985324 11.9505 1.28571 12.1395 1.64617 12.1395C1.76632 12.1395 1.94655 12.1395 2.0667 12.0765C2.24693 12.0135 2.42716 11.9505 2.54732 11.8875C2.36709 12.2026 2.12678 12.4547 2.00663 12.8328C1.88647 13.0849 1.8264 13.337 1.76632 13.589C1.70624 13.9041 1.70624 14.2193 1.70624 14.4713C1.70624 15.2276 2.42716 15.7948 3.14808 15.6057C3.68877 15.4167 4.22946 15.2906 4.77015 15.0385C5.19069 14.9125 5.61123 14.5974 6.09184 14.2823Z" fill="#4180EA"/>
</svg>
