<svg width="618" height="38" viewBox="0 0 618 38" fill="none" xmlns="http://www.w3.org/2000/svg">
<path d="M100.011 15.6538C100.011 19.522 98.8632 22.6035 96.568 24.8986C93.9893 27.632 90.5982 28.9989 86.3948 28.9989C82.372 28.9989 78.968 27.6064 76.183 24.8213C73.3979 22.0363 72.0054 18.6064 72.0054 14.532C72.0054 10.4575 73.3979 7.0278 76.183 4.24278C78.968 1.45772 82.372 0.0651855 86.3948 0.0651855C88.432 0.0651855 90.3532 0.426213 92.1584 1.14827C93.9635 1.87031 95.4462 2.88892 96.6067 4.20409L94.0537 6.7571C93.2028 5.72559 92.0939 4.92615 90.7272 4.35882C89.3862 3.76571 87.9421 3.46915 86.3948 3.46915C83.3777 3.46915 80.8247 4.51354 78.7359 6.60233C76.6729 8.71694 75.6414 11.3602 75.6414 14.532C75.6414 17.7039 76.6729 20.3471 78.7359 22.4617C80.8247 24.5506 83.3777 25.595 86.3948 25.595C89.1541 25.595 91.4492 24.8213 93.2802 23.274C95.111 21.7267 96.1684 19.5992 96.452 16.8916H86.3948V13.5649H99.8173C99.9462 14.2871 100.011 14.9834 100.011 15.6538ZM102.444 18.9031C102.444 15.9891 103.359 13.5778 105.19 11.6696C107.047 9.76134 109.381 8.80722 112.191 8.80722C115.002 8.80722 117.323 9.76134 119.154 11.6696C121.011 13.5778 121.939 15.9891 121.939 18.9031C121.939 21.8428 121.011 24.2539 119.154 26.1364C117.323 28.0448 115.002 28.9989 112.191 28.9989C109.381 28.9989 107.047 28.0448 105.19 26.1364C103.359 24.2281 102.444 21.817 102.444 18.9031ZM106.002 18.9031C106.002 20.9403 106.596 22.5906 107.782 23.8542C108.968 25.1178 110.438 25.7496 112.191 25.7496C113.945 25.7496 115.415 25.1178 116.601 23.8542C117.787 22.5906 118.38 20.9403 118.38 18.9031C118.38 16.8916 117.787 15.2541 116.601 13.9904C115.389 12.7011 113.919 12.0564 112.191 12.0564C110.464 12.0564 108.994 12.7011 107.782 13.9904C106.596 15.2541 106.002 16.8916 106.002 18.9031ZM124.089 18.9031C124.089 15.9891 125.004 13.5778 126.835 11.6696C128.692 9.76134 131.025 8.80722 133.836 8.80722C136.647 8.80722 138.968 9.76134 140.799 11.6696C142.656 13.5778 143.584 15.9891 143.584 18.9031C143.584 21.8428 142.656 24.2539 140.799 26.1364C138.968 28.0448 136.647 28.9989 133.836 28.9989C131.025 28.9989 128.692 28.0448 126.835 26.1364C125.004 24.2281 124.089 21.817 124.089 18.9031ZM127.647 18.9031C127.647 20.9403 128.24 22.5906 129.427 23.8542C130.613 25.1178 132.083 25.7496 133.836 25.7496C135.59 25.7496 137.06 25.1178 138.246 23.8542C139.432 22.5906 140.025 20.9403 140.025 18.9031C140.025 16.8916 139.432 15.2541 138.246 13.9904C137.034 12.7011 135.564 12.0564 133.836 12.0564C132.109 12.0564 130.639 12.7011 129.427 13.9904C128.24 15.2541 127.647 16.8916 127.647 18.9031ZM155.327 25.7496C157.08 25.7496 158.511 25.1178 159.62 23.8542C160.781 22.5906 161.361 20.9403 161.361 18.9031C161.361 16.9174 160.781 15.2799 159.62 13.9904C158.486 12.7011 157.054 12.0564 155.327 12.0564C153.625 12.0564 152.193 12.7011 151.033 13.9904C149.873 15.2799 149.292 16.9174 149.292 18.9031C149.292 20.9145 149.873 22.552 151.033 23.8156C152.193 25.1049 153.625 25.7496 155.327 25.7496ZM155.211 37.354C154.153 37.354 153.16 37.2123 152.232 36.9285C151.304 36.6707 150.453 36.2967 149.679 35.8067C148.931 35.3168 148.287 34.7365 147.745 34.0662C147.203 33.3956 146.791 32.6479 146.507 31.8226L149.873 30.4301C150.259 31.539 150.93 32.4286 151.884 33.0991C152.838 33.7695 153.947 34.1048 155.211 34.1048C157.145 34.1048 158.653 33.5246 159.736 32.3641C160.819 31.2036 161.361 29.6049 161.361 27.5677V25.7496H161.206C160.536 26.7553 159.62 27.5548 158.46 28.1478C157.325 28.7151 156.087 28.9989 154.746 28.9989C152.271 28.9989 150.143 28.0319 148.364 26.0978C146.61 24.112 145.734 21.7138 145.734 18.9031C145.734 16.0921 146.61 13.7068 148.364 11.747C150.143 9.78714 152.271 8.80722 154.746 8.80722C156.087 8.80722 157.325 9.10372 158.46 9.69686C159.62 10.2642 160.536 11.0507 161.206 12.0564H161.361V9.42601H164.765V27.5677C164.765 30.6106 163.901 32.996 162.173 34.7236C160.42 36.4773 158.099 37.354 155.211 37.354ZM172.662 0.684091V28.38H169.104V0.684091H172.662ZM185.32 28.9989C182.535 28.9989 180.24 28.0448 178.434 26.1364C176.629 24.2281 175.727 21.817 175.727 18.9031C175.727 16.0147 176.604 13.6165 178.357 11.7083C180.111 9.77424 182.354 8.80722 185.088 8.80722C187.899 8.80722 190.129 9.72265 191.78 11.5535C193.456 13.3587 194.294 15.8988 194.294 19.1738L194.255 19.5605H179.363C179.414 21.4173 180.033 22.913 181.22 24.0477C182.406 25.1823 183.824 25.7496 185.474 25.7496C187.744 25.7496 189.523 24.6149 190.813 22.3457L193.984 23.8929C193.133 25.4918 191.947 26.7424 190.426 27.645C188.93 28.5476 187.228 28.9989 185.32 28.9989ZM179.634 16.6208H190.503C190.4 15.3057 189.858 14.2226 188.878 13.3716C187.924 12.4947 186.635 12.0564 185.01 12.0564C183.669 12.0564 182.509 12.4689 181.529 13.2942C180.575 14.1194 179.943 15.2283 179.634 16.6208ZM206.666 28.38V0.684091H215.137C219.367 0.684091 222.757 1.96058 225.311 4.51354C227.89 7.06649 229.179 10.4061 229.179 14.532C229.179 18.6838 227.89 22.0363 225.311 24.5891C222.757 27.1163 219.367 28.38 215.137 28.38H206.666ZM210.225 4.08806V24.976H215.137C218.361 24.976 220.901 24.0606 222.757 22.2296C224.615 20.3729 225.543 17.8071 225.543 14.532C225.543 11.2828 224.615 8.72983 222.757 6.87317C220.901 5.0164 218.361 4.08806 215.137 4.08806H210.225ZM240.735 28.9989C237.95 28.9989 235.655 28.0448 233.85 26.1364C232.045 24.2281 231.142 21.817 231.142 18.9031C231.142 16.0147 232.019 13.6165 233.772 11.7083C235.526 9.77424 237.77 8.80722 240.503 8.80722C243.313 8.80722 245.544 9.72265 247.195 11.5535C248.872 13.3587 249.71 15.8988 249.71 19.1738L249.67 19.5605H234.778C234.83 21.4173 235.449 22.913 236.636 24.0477C237.821 25.1823 239.24 25.7496 240.89 25.7496C243.16 25.7496 244.939 24.6149 246.228 22.3457L249.4 23.8929C248.549 25.4918 247.362 26.7424 245.841 27.645C244.345 28.5476 242.644 28.9989 240.735 28.9989ZM235.05 16.6208H245.919C245.816 15.3057 245.274 14.2226 244.294 13.3716C243.339 12.4947 242.051 12.0564 240.425 12.0564C239.085 12.0564 237.924 12.4689 236.944 13.2942C235.991 14.1194 235.358 15.2283 235.05 16.6208ZM261.792 28.38H258.233L250.574 9.42601H254.442L260.013 24.1249H260.091L265.738 9.42601H269.528L261.792 28.38ZM279.795 28.9989C277.01 28.9989 274.714 28.0448 272.909 26.1364C271.104 24.2281 270.202 21.817 270.202 18.9031C270.202 16.0147 271.078 13.6165 272.832 11.7083C274.585 9.77424 276.829 8.80722 279.563 8.80722C282.373 8.80722 284.604 9.72265 286.255 11.5535C287.93 13.3587 288.768 15.8988 288.768 19.1738L288.73 19.5605H273.837C273.89 21.4173 274.508 22.913 275.694 24.0477C276.881 25.1823 278.299 25.7496 279.949 25.7496C282.218 25.7496 283.998 24.6149 285.287 22.3457L288.459 23.8929C287.609 25.4918 286.422 26.7424 284.9 27.645C283.405 28.5476 281.702 28.9989 279.795 28.9989ZM274.108 16.6208H284.977C284.874 15.3057 284.334 14.2226 283.353 13.3716C282.399 12.4947 281.109 12.0564 279.485 12.0564C278.144 12.0564 276.984 12.4689 276.004 13.2942C275.049 14.1194 274.418 15.2283 274.108 16.6208ZM295.582 0.684091V28.38H292.023V0.684091H295.582ZM298.646 18.9031C298.646 15.9891 299.561 13.5778 301.392 11.6696C303.249 9.76134 305.583 8.80722 308.394 8.80722C311.204 8.80722 313.525 9.76134 315.356 11.6696C317.214 13.5778 318.141 15.9891 318.141 18.9031C318.141 21.8428 317.214 24.2539 315.356 26.1364C313.525 28.0448 311.204 28.9989 308.394 28.9989C305.583 28.9989 303.249 28.0448 301.392 26.1364C299.561 24.2281 298.646 21.817 298.646 18.9031ZM302.205 18.9031C302.205 20.9403 302.797 22.5906 303.984 23.8542C305.17 25.1178 306.64 25.7496 308.394 25.7496C310.147 25.7496 311.617 25.1178 312.804 23.8542C313.989 22.5906 314.583 20.9403 314.583 18.9031C314.583 16.8916 313.989 15.2541 312.804 13.9904C311.591 12.7011 310.121 12.0564 308.394 12.0564C306.665 12.0564 305.196 12.7011 303.984 13.9904C302.797 15.2541 302.205 16.8916 302.205 18.9031ZM330.469 25.7496C332.17 25.7496 333.601 25.1049 334.762 23.8156C335.923 22.552 336.503 20.9145 336.503 18.9031C336.503 16.9174 335.923 15.2799 334.762 13.9904C333.601 12.7011 332.17 12.0564 330.469 12.0564C328.74 12.0564 327.297 12.7011 326.136 13.9904C325.001 15.2799 324.435 16.9174 324.435 18.9031C324.435 20.9145 325.001 22.5649 326.136 23.8542C327.297 25.1178 328.74 25.7496 330.469 25.7496ZM331.049 28.9989C329.657 28.9989 328.379 28.7023 327.22 28.1092C326.085 27.5161 325.208 26.7295 324.59 25.7496H324.435L324.59 28.38V36.7351H321.031V9.42601H324.435V12.0564H324.59C325.208 11.0765 326.085 10.29 327.22 9.69686C328.379 9.10372 329.657 8.80722 331.049 8.80722C333.551 8.80722 335.665 9.78714 337.392 11.747C339.172 13.7326 340.061 16.1179 340.061 18.9031C340.061 21.7138 339.172 24.0992 337.392 26.0591C335.665 28.019 333.551 28.9989 331.049 28.9989ZM351.83 28.9989C349.047 28.9989 346.751 28.0448 344.945 26.1364C343.141 24.2281 342.238 21.817 342.238 18.9031C342.238 16.0147 343.115 13.6165 344.869 11.7083C346.622 9.77424 348.865 8.80722 351.599 8.80722C354.41 8.80722 356.641 9.72265 358.291 11.5535C359.967 13.3587 360.805 15.8988 360.805 19.1738L360.767 19.5605H345.874C345.925 21.4173 346.544 22.913 347.731 24.0477C348.918 25.1823 350.335 25.7496 351.985 25.7496C354.255 25.7496 356.034 24.6149 357.324 22.3457L360.495 23.8929C359.644 25.4918 358.459 26.7424 356.937 27.645C355.442 28.5476 353.739 28.9989 351.83 28.9989ZM346.145 16.6208H357.014C356.911 15.3057 356.369 14.2226 355.389 13.3716C354.436 12.4947 353.146 12.0564 351.522 12.0564C350.181 12.0564 349.02 12.4689 348.041 13.2942C347.086 14.1194 346.455 15.2283 346.145 16.6208ZM367.619 28.38H364.06V9.42601H367.464V12.5205H367.619C367.979 11.5148 368.714 10.6639 369.824 9.96756C370.958 9.24559 372.067 8.8846 373.149 8.8846C374.181 8.8846 375.058 9.03923 375.78 9.34877L374.697 12.7914C374.258 12.6108 373.562 12.5205 372.607 12.5205C371.267 12.5205 370.094 13.0621 369.088 14.1452C368.108 15.2283 367.619 16.4919 367.619 17.936V28.38ZM403.156 20.9919C403.156 23.4159 402.266 25.3628 400.487 26.8327C398.682 28.2768 396.489 28.9989 393.911 28.9989C391.616 28.9989 389.592 28.3284 387.839 26.9875C386.085 25.6464 384.872 23.8155 384.203 21.4947L387.607 20.1021C387.839 20.9274 388.161 21.6751 388.573 22.3457C388.986 23.0162 389.463 23.5963 390.005 24.0863C390.572 24.5506 391.19 24.9244 391.861 25.208C392.531 25.466 393.24 25.595 393.988 25.595C395.613 25.595 396.941 25.1823 397.973 24.3571C399.004 23.5062 399.52 22.3844 399.52 20.9919C399.52 19.8314 399.095 18.8386 398.243 18.0134C397.444 17.2139 395.949 16.4404 393.756 15.6924C391.539 14.8931 390.159 14.3515 389.618 14.0678C386.678 12.5721 385.208 10.3674 385.208 7.45328C385.208 5.41605 386.021 3.67545 387.645 2.23134C389.296 0.787241 391.319 0.0651855 393.718 0.0651855C395.832 0.0651855 397.664 0.60672 399.21 1.6898C400.758 2.74709 401.79 4.07516 402.305 5.674L398.978 7.06649C398.67 6.03499 398.051 5.18404 397.122 4.51354C396.219 3.81728 395.11 3.46915 393.795 3.46915C392.402 3.46915 391.229 3.85596 390.275 4.62959C389.32 5.3517 388.844 6.29293 388.844 7.45328C388.844 8.40754 389.217 9.23269 389.965 9.92887C390.791 10.6252 392.583 11.4503 395.342 12.4046C398.154 13.3587 400.151 14.532 401.338 15.9246C402.55 17.2913 403.156 18.9804 403.156 20.9919ZM413.342 28.6894C411.795 28.6894 410.506 28.2123 409.474 27.2582C408.469 26.304 407.953 24.976 407.927 23.274V12.6753H404.601V9.42601H407.927V3.62388H411.486V9.42601H416.128V12.6753H411.486V22.1135C411.486 23.3772 411.731 24.241 412.221 24.7052C412.711 25.1436 413.265 25.3628 413.884 25.3628C414.168 25.3628 414.439 25.337 414.696 25.2854C414.98 25.208 415.238 25.1178 415.47 25.0147L416.591 28.1865C415.664 28.5218 414.58 28.6894 413.342 28.6894ZM436.146 28.38H432.742V25.7496H432.587C432.046 26.6779 431.208 27.4516 430.073 28.0706C428.964 28.6894 427.804 28.9989 426.592 28.9989C424.271 28.9989 422.479 28.3413 421.215 27.0262C419.978 25.6851 419.359 23.7898 419.359 21.34V9.42601H422.916V21.1078C422.995 24.2023 424.555 25.7496 427.598 25.7496C429.015 25.7496 430.202 25.1823 431.156 24.0477C432.111 22.8872 432.587 21.5076 432.587 19.9088V9.42601H436.146V28.38ZM448.799 25.7496C450.552 25.7496 451.983 25.1178 453.092 23.8542C454.253 22.5906 454.833 20.9403 454.833 18.9031C454.833 16.9174 454.253 15.2799 453.092 13.9904C451.957 12.7011 450.526 12.0564 448.799 12.0564C447.097 12.0564 445.665 12.7011 444.506 13.9904C443.345 15.2799 442.765 16.9174 442.765 18.9031C442.765 20.9145 443.345 22.552 444.506 23.8156C445.665 25.1049 447.097 25.7496 448.799 25.7496ZM448.218 28.9989C445.743 28.9989 443.615 28.019 441.836 26.0591C440.082 24.0735 439.205 21.688 439.205 18.9031C439.205 16.1179 440.082 13.7326 441.836 11.747C443.615 9.78714 445.743 8.80722 448.218 8.80722C449.611 8.80722 450.875 9.10372 452.009 9.69686C453.17 10.29 454.059 11.0765 454.678 12.0564H454.833L454.678 9.42601V0.684091H458.237V28.38H454.833V25.7496H454.678C454.059 26.7295 453.17 27.5161 452.009 28.1092C450.875 28.7023 449.611 28.9989 448.218 28.9989ZM470.897 28.9989C468.112 28.9989 465.816 28.0448 464.012 26.1364C462.207 24.2281 461.304 21.817 461.304 18.9031C461.304 16.0147 462.18 13.6165 463.934 11.7083C465.687 9.77424 467.932 8.80722 470.665 8.80722C473.475 8.80722 475.706 9.72265 477.357 11.5535C479.033 13.3587 479.872 15.8988 479.872 19.1738L479.832 19.5605H464.94C464.992 21.4173 465.611 22.913 466.797 24.0477C467.983 25.1823 469.402 25.7496 471.052 25.7496C473.322 25.7496 475.101 24.6149 476.389 22.3457L479.562 23.8929C478.711 25.4918 477.524 26.7424 476.003 27.645C474.507 28.5476 472.806 28.9989 470.897 28.9989ZM465.211 16.6208H476.081C475.978 15.3057 475.436 14.2226 474.456 13.3716C473.501 12.4947 472.213 12.0564 470.587 12.0564C469.247 12.0564 468.086 12.4689 467.106 13.2942C466.153 14.1194 465.52 15.2283 465.211 16.6208ZM483.125 9.42601H486.529V12.0564H486.684C487.226 11.128 488.051 10.3545 489.159 9.73555C490.294 9.11661 491.468 8.80722 492.68 8.80722C495.001 8.80722 496.78 9.4776 498.018 10.8186C499.281 12.1338 499.913 14.0162 499.913 16.4662V28.38H496.354V16.6982C496.277 13.6036 494.717 12.0564 491.674 12.0564C490.255 12.0564 489.07 12.6366 488.115 13.7971C487.161 14.9318 486.684 16.2985 486.684 17.8973V28.38H483.125V9.42601ZM510.613 28.6894C509.065 28.6894 507.776 28.2123 506.745 27.2582C505.739 26.304 505.223 24.976 505.197 23.274V12.6753H501.871V9.42601H505.197V3.62388H508.756V9.42601H513.398V12.6753H508.756V22.1135C508.756 23.3772 509 24.241 509.49 24.7052C509.981 25.1436 510.536 25.3628 511.155 25.3628C511.437 25.3628 511.709 25.337 511.967 25.2854C512.249 25.208 512.507 25.1178 512.741 25.0147L513.862 28.1865C512.934 28.5218 511.85 28.6894 510.613 28.6894ZM538.181 28.9989C534.082 28.9989 530.651 27.6193 527.892 24.86C525.159 22.1006 523.791 18.658 523.791 14.532C523.791 10.4061 525.159 6.97621 527.892 4.24278C530.625 1.45772 534.055 0.0651855 538.181 0.0651855C542.359 0.0651855 545.749 1.57376 548.355 4.59091L545.802 7.06649C543.816 4.66827 541.275 3.46915 538.181 3.46915C535.112 3.46915 532.546 4.50065 530.484 6.56364C528.446 8.60086 527.428 11.257 527.428 14.532C527.428 17.8071 528.446 20.4632 530.484 22.5004C532.546 24.5635 535.112 25.595 538.181 25.595C541.404 25.595 544.203 24.241 546.575 21.5334L549.167 24.0477C547.851 25.6206 546.239 26.8456 544.332 27.7223C542.424 28.5734 540.374 28.9989 538.181 28.9989ZM555.888 0.684091V28.38H552.328V0.684091H555.888ZM576.857 28.38H573.453V25.7496H573.299C572.757 26.6779 571.919 27.4516 570.784 28.0706C569.675 28.6894 568.515 28.9989 567.303 28.9989C564.982 28.9989 563.19 28.3413 561.926 27.0262C560.688 25.6851 560.07 23.7898 560.07 21.34V9.42601H563.627V21.1078C563.705 24.2023 565.265 25.7496 568.309 25.7496C569.726 25.7496 570.913 25.1823 571.866 24.0477C572.821 22.8872 573.299 21.5076 573.299 19.9088V9.42601H576.857V28.38ZM591.207 28.9989C589.814 28.9989 588.538 28.7023 587.378 28.1092C586.243 27.5161 585.366 26.7295 584.747 25.7496H584.592V28.38H581.19V0.684091H584.747V9.42601L584.592 12.0564H584.747C585.366 11.0765 586.243 10.29 587.378 9.69686C588.538 9.10372 589.814 8.80722 591.207 8.80722C593.708 8.80722 595.824 9.78714 597.551 11.747C599.331 13.7326 600.22 16.1179 600.22 18.9031C600.22 21.7138 599.331 24.0992 597.551 26.0591C595.824 28.019 593.708 28.9989 591.207 28.9989ZM590.627 25.7496C592.329 25.7496 593.76 25.1049 594.921 23.8156C596.082 22.552 596.661 20.9145 596.661 18.9031C596.661 16.9174 596.082 15.2799 594.921 13.9904C593.76 12.7011 592.329 12.0564 590.627 12.0564C588.899 12.0564 587.456 12.7011 586.295 13.9904C585.16 15.2799 584.592 16.9174 584.592 18.9031C584.592 20.9145 585.16 22.5649 586.295 23.8542C587.456 25.1178 588.899 25.7496 590.627 25.7496ZM617.793 23.1192C617.793 24.7697 617.07 26.1622 615.627 27.2969C614.182 28.4315 612.364 28.9989 610.173 28.9989C608.264 28.9989 606.588 28.5089 605.144 27.529C603.699 26.5233 602.668 25.208 602.049 23.5834L605.221 22.2296C605.685 23.3643 606.356 24.2539 607.232 24.8986C608.135 25.5176 609.115 25.827 610.173 25.827C611.307 25.827 612.249 25.5821 612.996 25.0921C613.77 24.602 614.157 24.0219 614.157 23.3514C614.157 22.1393 613.228 21.2497 611.372 20.6823L608.123 19.8701C604.435 18.9417 602.591 17.1623 602.591 14.532C602.591 12.8043 603.286 11.4247 604.679 10.3932C606.098 9.33587 607.903 8.80722 610.095 8.80722C611.771 8.80722 613.281 9.2069 614.621 10.0063C615.988 10.8057 616.941 11.8759 617.483 13.2169L614.311 14.532C613.95 13.7326 613.357 13.1137 612.531 12.6753C611.733 12.2111 610.83 11.979 609.824 11.979C608.895 11.979 608.058 12.2111 607.309 12.6753C606.588 13.1395 606.227 13.7068 606.227 14.3773C606.227 15.4604 607.246 16.234 609.282 16.6982L612.146 17.4332C615.911 18.3615 617.793 20.2569 617.793 23.1192Z" fill="white"/>
<path d="M14.6873 14.5031L24.3908 8.90388C24.9334 8.59009 25.4088 8.17251 25.7899 7.67499C26.1711 7.17746 26.4505 6.60974 26.6123 6.00423C26.774 5.39872 26.8149 4.76728 26.7326 4.14596C26.6503 3.52465 26.4465 2.92562 26.1327 2.38309C25.8189 1.84056 25.4013 1.36515 24.9038 0.983998C24.4063 0.602847 23.8385 0.323423 23.233 0.161679C22.0101 -0.164978 20.7076 0.00753282 19.6119 0.641261L2.85547 10.3132L14.6873 14.5031Z" fill="#EA4335"/>
<path d="M21.9931 28.8904C23.0436 28.8916 24.065 28.5461 24.8992 27.9076C25.7333 27.2691 26.3335 26.3732 26.6066 25.3589C26.8798 24.3446 26.8107 23.2685 26.41 22.2974C26.0093 21.3264 25.2995 20.5147 24.3905 19.9881L7.62775 10.313C6.53206 9.68013 5.22983 9.50842 4.00754 9.83567C2.78525 10.1629 1.74302 10.9623 1.11014 12.058C0.477247 13.1537 0.305541 14.4559 0.632792 15.6782C0.960043 16.9005 1.75944 17.9427 2.85513 18.5756L19.6084 28.2476C20.3327 28.6684 21.1554 28.8902 21.9931 28.8904Z" fill="#4285F4"/>
<path d="M38.6584 28.8903C39.4942 28.8923 40.3157 28.6738 41.04 28.2569L57.7932 18.585L46.1135 14.3032L36.2674 19.9879C35.3573 20.5135 34.6462 21.3248 34.2443 22.2958C33.8424 23.2669 33.7723 24.3434 34.0448 25.3584C34.3174 26.3734 34.9173 27.27 35.7515 27.9092C36.5856 28.5484 37.6075 28.8944 38.6584 28.8934V28.8903Z" fill="#FBBC04"/>
<path d="M55.4011 19.2156C56.4523 19.218 57.4749 18.8729 58.3098 18.2341C59.1447 17.5954 59.7452 16.6986 60.0178 15.6834C60.2905 14.6681 60.2201 13.5912 59.8177 12.6201C59.4152 11.6489 58.7031 10.838 57.7921 10.3133L41.0389 0.641385C39.9432 0.00849652 38.641 -0.163208 37.4187 0.164042C36.1964 0.491293 35.1542 1.29069 34.5213 2.38638C33.8884 3.48207 33.7167 4.7843 34.0439 6.00659C34.3712 7.22888 35.1706 8.27111 36.2663 8.904L53.0195 18.5759C53.7432 18.9951 54.5648 19.2158 55.4011 19.2156Z" fill="#0F9D58"/>
</svg>
