<svg width="139" height="96" viewBox="0 0 139 96" fill="none" xmlns="http://www.w3.org/2000/svg">
<g clip-path="url(#clip0_571_3259)">
<path d="M4.14844 57.2491H9.46844L22.2684 78.0891H22.5084L22.2684 72.5691V57.2491H26.7084V85.8891H22.0284L8.58844 63.9691H8.34844L8.58844 69.4891V85.8891H4.14844V57.2491ZM38.344 86.5291C36.8774 86.5291 35.5707 86.2491 34.424 85.6891C33.2774 85.1024 32.384 84.2891 31.744 83.2491C31.104 82.1824 30.784 80.9824 30.784 79.6491C30.784 77.5424 31.5707 75.8758 33.144 74.6491C34.744 73.4224 36.7574 72.8091 39.184 72.8091C40.384 72.8091 41.464 72.9291 42.424 73.1691C43.384 73.3824 44.144 73.6224 44.704 73.8891V72.8491C44.704 71.5958 44.2374 70.5824 43.304 69.8091C42.3707 69.0091 41.1707 68.6091 39.704 68.6091C38.664 68.6091 37.6774 68.8358 36.744 69.2891C35.8374 69.7424 35.104 70.3691 34.544 71.1691L31.464 68.8091C32.3707 67.5558 33.544 66.5824 34.984 65.8891C36.424 65.1958 38.024 64.8491 39.784 64.8491C42.744 64.8491 45.024 65.5824 46.624 67.0491C48.224 68.4891 49.024 70.5291 49.024 73.1691V85.8891H44.704V83.4491H44.504C43.9174 84.3291 43.0907 85.0624 42.024 85.6491C40.9574 86.2358 39.7307 86.5291 38.344 86.5291ZM39.104 82.8891C40.1707 82.8891 41.1307 82.6358 41.984 82.1291C42.8374 81.6224 43.504 80.9424 43.984 80.0891C44.464 79.2358 44.704 78.3158 44.704 77.3291C44.0907 76.9824 43.3707 76.7024 42.544 76.4891C41.744 76.2758 40.904 76.1691 40.024 76.1691C38.3707 76.1691 37.1574 76.5024 36.384 77.1691C35.6107 77.8091 35.224 78.6491 35.224 79.6891C35.224 80.6224 35.584 81.3958 36.304 82.0091C37.024 82.5958 37.9574 82.8891 39.104 82.8891ZM62.8237 95.1691C60.317 95.1691 58.237 94.5958 56.5837 93.4491C54.957 92.3024 53.8637 90.9424 53.3037 89.3691L57.4237 87.6491C57.8504 88.7158 58.5304 89.5691 59.4637 90.2091C60.4237 90.8758 61.5437 91.2091 62.8237 91.2091C64.6904 91.2091 66.1437 90.6491 67.1837 89.5291C68.2504 88.4358 68.7837 86.8891 68.7837 84.8891V83.0091H68.5437C67.877 83.9691 66.9837 84.7291 65.8637 85.2891C64.7704 85.8224 63.5037 86.0891 62.0637 86.0891C60.357 86.0891 58.7704 85.6491 57.3037 84.7691C55.837 83.8891 54.6637 82.6491 53.7837 81.0491C52.9304 79.4224 52.5037 77.5691 52.5037 75.4891C52.5037 73.4091 52.9304 71.5691 53.7837 69.9691C54.6637 68.3424 55.837 67.0891 57.3037 66.2091C58.7704 65.3024 60.357 64.8491 62.0637 64.8491C63.477 64.8491 64.7437 65.1291 65.8637 65.6891C66.9837 66.2491 67.877 67.0091 68.5437 67.9691H68.7837V65.4891H72.9837V84.7691C72.9837 86.9824 72.557 88.8624 71.7037 90.4091C70.8504 91.9824 69.6504 93.1691 68.1037 93.9691C66.5837 94.7691 64.8237 95.1691 62.8237 95.1691ZM62.8637 82.0891C63.9304 82.0891 64.917 81.8358 65.8237 81.3291C66.7304 80.7958 67.4504 80.0358 67.9837 79.0491C68.517 78.0358 68.7837 76.8491 68.7837 75.4891C68.7837 73.4091 68.2104 71.7958 67.0637 70.6491C65.9437 69.4758 64.5437 68.8891 62.8637 68.8891C61.7704 68.8891 60.7704 69.1558 59.8637 69.6891C58.957 70.1958 58.237 70.9424 57.7037 71.9291C57.1704 72.9158 56.9037 74.1024 56.9037 75.4891C56.9037 76.8758 57.1704 78.0624 57.7037 79.0491C58.237 80.0358 58.957 80.7958 59.8637 81.3291C60.7704 81.8358 61.7704 82.0891 62.8637 82.0891ZM77.995 65.4891H82.195V68.1691H82.395C82.9816 67.2358 83.8483 66.4491 84.995 65.8091C86.1416 65.1691 87.435 64.8491 88.875 64.8491C90.715 64.8491 92.3816 65.3158 93.875 66.2491C95.3683 67.1824 96.5416 68.4758 97.395 70.1291C98.275 71.7558 98.715 73.6091 98.715 75.6891C98.715 77.7691 98.275 79.6358 97.395 81.2891C96.5416 82.9158 95.3683 84.1958 93.875 85.1291C92.3816 86.0624 90.715 86.5291 88.875 86.5291C87.435 86.5291 86.1416 86.2091 84.995 85.5691C83.8483 84.9291 82.9816 84.1558 82.395 83.2491H82.195L82.395 86.0891V94.5291H77.995V65.4891ZM88.235 82.4891C89.3016 82.4891 90.3016 82.2091 91.235 81.6491C92.1683 81.0891 92.915 80.2891 93.475 79.2491C94.035 78.2091 94.315 77.0224 94.315 75.6891C94.315 74.3558 94.035 73.1824 93.475 72.1691C92.915 71.1291 92.1683 70.3291 91.235 69.7691C90.3016 69.2091 89.3016 68.9291 88.235 68.9291C87.1683 68.9291 86.1683 69.2091 85.235 69.7691C84.3283 70.3291 83.595 71.1291 83.035 72.1691C82.475 73.1824 82.195 74.3558 82.195 75.6891C82.195 77.0224 82.475 78.2091 83.035 79.2491C83.595 80.2891 84.3283 81.0891 85.235 81.6491C86.1683 82.2091 87.1683 82.4891 88.235 82.4891ZM109.97 86.5291C107.49 86.5291 105.596 85.7958 104.29 84.3291C103.01 82.8358 102.37 80.7691 102.37 78.1291V65.4891H106.77V77.5291C106.77 79.1824 107.156 80.4224 107.93 81.2491C108.73 82.0758 109.77 82.4891 111.05 82.4891C112.09 82.4891 113.01 82.2224 113.81 81.6891C114.61 81.1291 115.223 80.3958 115.65 79.4891C116.076 78.5824 116.29 77.6091 116.29 76.5691V65.4891H120.69V85.8891H116.53V83.2491H116.29C115.73 84.2091 114.863 84.9958 113.69 85.6091C112.516 86.2224 111.276 86.5291 109.97 86.5291ZM125.811 65.4891H130.011V68.4891H130.211C130.664 67.4491 131.451 66.5958 132.571 65.9291C133.691 65.2358 134.877 64.8891 136.131 64.8891C137.117 64.8891 137.944 65.0224 138.611 65.2891V69.8491C137.437 69.4224 136.384 69.2091 135.451 69.2091C134.437 69.2091 133.531 69.4758 132.731 70.0091C131.957 70.5424 131.344 71.2624 130.891 72.1691C130.437 73.0491 130.211 74.0224 130.211 75.0891V85.8891H125.811V65.4891Z" fill="#404245"/>
<path fill-rule="evenodd" clip-rule="evenodd" d="M16.2582 47.2879C20.9372 42.4358 31.6481 24.7788 31.6481 16.2792C31.6481 7.77948 24.7578 0.88916 16.2582 0.88916C7.75848 0.88916 0.868164 7.77948 0.868164 16.2792C0.868164 24.7788 10.477 42.3379 16.2582 47.2879ZM16.2582 25.5736C22.1125 25.5736 26.8584 20.8278 26.8584 14.9734C26.8584 9.11902 22.1125 4.37317 16.2582 4.37317C10.4037 4.37317 5.65789 9.11902 5.65789 14.9734C5.65789 20.8278 10.4037 25.5736 16.2582 25.5736Z" fill="white" fill-opacity="0.1"/>
<path d="M24.3301 15.0967C24.3301 19.5549 20.716 23.169 16.2579 23.169C11.7997 23.169 8.18555 19.5549 8.18555 15.0967C8.18555 10.6385 11.7997 7.02441 16.2579 7.02441C20.716 7.02441 24.3301 10.6385 24.3301 15.0967Z" fill="white" fill-opacity="0.1"/>
</g>
<defs>
<clipPath id="clip0_571_3259">
<rect width="138" height="95" fill="white" transform="translate(0.868164 0.88916)"/>
</clipPath>
</defs>
</svg>
