<svg width="732" height="244" viewBox="0 0 732 244" fill="none" xmlns="http://www.w3.org/2000/svg">
<mask id="mask0_344_1104" style="mask-type:alpha" maskUnits="userSpaceOnUse" x="0" y="26" width="252" height="192">
<path d="M233.687 28.9884C245.235 33.1327 251.009 38.6586 251.009 45.566C251.009 47.8103 249.974 52.042 247.905 58.2577L198.269 202.016C197.924 203.225 197.321 204.693 196.459 206.419C195.598 208.147 193.27 210.479 189.48 213.413C185.86 216.176 181.465 217.558 176.294 217.558C171.297 217.558 166.902 216.176 163.11 213.413C159.49 210.479 157.078 207.627 155.87 204.866L125.623 115.503C106.492 172.141 96.7547 200.98 96.4099 202.016C96.0653 203.053 95.2896 204.52 94.0833 206.419C92.8767 208.319 91.4979 210.046 89.9469 211.6C85.9828 215.571 81.2431 217.558 75.7279 217.558C70.2127 217.558 65.6453 216.263 62.026 213.673C58.5791 211.082 56.2523 208.492 55.0459 205.901L53.2363 202.016L3.34083 58.2577C1.445 52.5595 0.49707 48.3289 0.49707 45.566C0.49707 38.6586 6.27078 33.2191 17.8183 29.2475C22.8164 27.5205 27.2976 26.6572 31.2615 26.6572C35.3979 26.6572 38.5002 28.0386 40.5685 30.8015C42.8089 33.5644 44.791 37.7952 46.5146 43.4938L74.9523 130.007L103.132 44.7891C105.544 37.5362 109.939 32.5283 116.316 29.7655C119.074 28.5567 122.608 27.9524 126.916 27.9524C131.397 27.9524 135.534 29.4201 139.325 32.3557C143.117 35.1186 145.53 37.8816 146.563 40.6446L176.294 130.525L204.733 43.4938C206.111 39.5224 207.231 36.5865 208.094 34.6869C208.954 32.7874 210.505 30.9743 212.746 29.2475C215.159 27.3478 218.089 26.3982 221.535 26.3982C224.983 26.3982 229.034 27.2616 233.687 28.9884Z" fill="black"/>
</mask>
<g mask="url(#mask0_344_1104)">
<path d="M197.608 231.227C193.116 244.798 178.492 252.154 164.946 247.655C151.399 243.158 144.06 228.509 148.554 214.938L211.413 25.0734C215.905 11.5022 230.529 4.14716 244.075 8.6454C257.622 13.1436 264.961 27.7917 260.468 41.3629L197.608 231.227Z" fill="#0F9D58" fill-opacity="0.95"/>
<path d="M158.282 215.203C162.042 226.613 174.323 232.809 185.712 229.043C197.1 225.278 203.283 212.976 199.522 201.567L144.503 34.668C140.742 23.2585 128.461 17.0619 117.073 20.8276C105.684 24.593 99.5011 36.8947 103.262 48.3041L158.282 215.203Z" fill="#F4B400" fill-opacity="0.95"/>
<path d="M92.938 213.516C89.1982 224.811 77.0263 230.934 65.7513 227.19C54.4762 223.445 48.3676 211.253 52.1073 199.958L110.185 24.5324C113.925 13.2365 126.097 7.1146 137.372 10.8586C148.648 14.6027 154.756 26.7949 151.015 38.0908L92.938 213.516Z" fill="#DB4437" fill-opacity="0.95"/>
<path d="M56.7448 239.33C61.2169 252.839 75.7726 260.16 89.256 255.683C102.739 251.206 110.044 236.626 105.572 223.117L42.638 33.0244C38.1658 19.5163 23.61 12.1954 10.1268 16.6727C-3.35651 21.15 -10.6615 35.7301 -6.1893 49.2382L56.7448 239.33Z" fill="#4285F4" fill-opacity="0.95"/>
</g>
<mask id="mask1_344_1104" style="mask-type:alpha" maskUnits="userSpaceOnUse" x="481" y="26" width="251" height="192">
<path d="M498.581 28.9884C487.033 33.1327 481.259 38.6586 481.259 45.566C481.259 47.8103 482.293 52.042 484.361 58.2577L533.999 202.016C534.343 203.225 534.946 204.693 535.807 206.419C536.669 208.147 538.996 210.479 542.788 213.413C546.407 216.176 550.801 217.558 555.972 217.558C560.97 217.558 565.366 216.176 569.158 213.413C572.776 210.479 575.189 207.627 576.396 204.866L606.643 115.503C625.775 172.141 635.513 200.98 635.857 202.016C636.202 203.053 636.977 204.52 638.184 206.419C639.39 208.319 640.769 210.046 642.32 211.6C646.284 215.571 651.024 217.558 656.539 217.558C662.054 217.558 666.621 216.263 670.241 213.673C673.688 211.082 676.015 208.492 677.221 205.901L679.03 202.016L728.927 58.2577C730.822 52.5595 731.77 48.3289 731.77 45.566C731.77 38.6586 725.996 33.2191 714.449 29.2475C709.451 27.5205 704.97 26.6572 701.004 26.6572C696.87 26.6572 693.766 28.0386 691.699 30.8015C689.458 33.5644 687.474 37.7952 685.753 43.4938L657.315 130.007L629.136 44.7891C626.722 37.5362 622.327 32.5283 615.951 29.7655C613.192 28.5567 609.659 27.9524 605.351 27.9524C600.869 27.9524 596.733 29.4201 592.941 32.3557C589.15 35.1186 586.737 37.8816 585.703 40.6446L555.972 130.525L527.535 43.4938C526.156 39.5224 525.036 36.5865 524.174 34.6869C523.312 32.7874 521.762 30.9743 519.521 29.2475C517.108 27.3478 514.178 26.3982 510.731 26.3982C507.284 26.3982 503.234 27.2616 498.581 28.9884Z" fill="black"/>
</mask>
<g mask="url(#mask1_344_1104)">
<path d="M534.657 231.227C539.151 244.798 553.775 252.154 567.321 247.655C580.866 243.158 588.206 228.509 583.714 214.938L520.854 25.0734C516.361 11.5022 501.738 4.14716 488.191 8.6454C474.645 13.1436 467.306 27.7917 471.8 41.3629L534.657 231.227Z" fill="#0F9D58" fill-opacity="0.95"/>
<path d="M573.987 215.203C570.226 226.613 557.944 232.809 546.557 229.043C535.168 225.278 528.985 212.976 532.747 201.567L587.765 34.668C591.527 23.2585 603.807 17.0619 615.196 20.8276C626.585 24.593 632.767 36.8947 629.006 48.3041L573.987 215.203Z" fill="#F4B400" fill-opacity="0.95"/>
<path d="M639.331 213.516C643.07 224.811 655.243 230.934 666.517 227.19C677.792 223.445 683.9 211.253 680.161 199.958L622.083 24.5324C618.343 13.2365 606.171 7.1146 594.896 10.8586C583.621 14.6027 577.513 26.7949 581.252 38.0908L639.331 213.516Z" fill="#DB4437" fill-opacity="0.95"/>
<path d="M675.522 239.33C671.05 252.839 656.494 260.16 643.01 255.683C629.527 251.206 622.222 236.626 626.694 223.117L689.628 33.0244C694.1 19.5163 708.656 12.1954 722.139 16.6727C735.622 21.15 742.927 35.7301 738.455 49.2382L675.522 239.33Z" fill="#4285F4" fill-opacity="0.95"/>
</g>
<path fill-rule="evenodd" clip-rule="evenodd" d="M249.152 112.705C242.026 116.826 242.026 127.13 249.152 131.252L300.267 160.819C293.49 149.464 289.594 136.181 289.594 121.987C289.594 107.782 293.495 94.4898 300.284 83.1268L249.152 112.705ZM364.092 46.2159C364.471 46.2106 364.849 46.2073 365.228 46.2073C393.725 46.2073 418.54 61.9977 431.435 85.3208V25.8071C431.435 17.5639 422.529 12.412 415.405 16.5336L364.092 46.2159ZM431.435 158.652C418.54 181.977 393.725 197.767 365.228 197.767C364.861 197.767 364.492 197.764 364.124 197.758L415.405 227.424C422.529 231.546 431.435 226.392 431.435 218.149V158.652Z" fill="#34A853" fill-opacity="0.9"/>
<path fill-rule="evenodd" clip-rule="evenodd" d="M440.85 123.387C440.858 122.92 440.863 122.455 440.863 121.988C440.863 93.505 425.177 68.6912 401.991 55.7456H461.315C469.543 55.7456 474.684 64.6684 470.571 71.8072L440.85 123.387ZM404.237 186.925C392.847 193.807 379.499 197.768 365.229 197.768C351.087 197.768 337.852 193.878 326.53 187.111L356.074 238.381C360.188 245.52 370.472 245.52 374.584 238.381L404.237 186.925ZM289.602 123.025L260.088 71.8072C255.974 64.6684 261.117 55.7456 269.344 55.7456H328.466C305.279 68.6912 289.594 93.505 289.594 121.988C289.594 122.334 289.598 122.681 289.602 123.025Z" fill="#FBBC04" fill-opacity="0.9"/>
<path fill-rule="evenodd" clip-rule="evenodd" d="M481.51 131.252C488.635 127.13 488.635 116.826 481.51 112.705L430.066 82.9461C436.92 94.3489 440.863 107.707 440.863 121.987C440.863 136.257 436.927 149.604 430.083 161L481.51 131.252ZM366.542 197.757C366.105 197.764 365.667 197.767 365.229 197.767C336.881 197.767 312.177 182.142 299.225 159.019V218.149C299.225 226.392 308.132 231.546 315.258 227.424L366.542 197.757ZM366.576 46.2203L315.258 16.5336C308.132 12.412 299.225 17.5639 299.225 25.8071V84.9552C312.177 61.8331 336.881 46.2083 365.229 46.2083C365.68 46.2083 366.128 46.2116 366.576 46.2203Z" fill="#EA4335" fill-opacity="0.9"/>
<path fill-rule="evenodd" clip-rule="evenodd" d="M374.584 5.57469C370.472 -1.56396 360.188 -1.56396 356.073 5.57469L326.513 56.8739C337.837 50.0998 351.08 46.2071 365.228 46.2071C379.506 46.2071 392.86 50.1708 404.252 57.06L374.584 5.57469ZM440.848 120.569C440.858 121.04 440.863 121.514 440.863 121.987C440.863 150.457 425.193 175.26 402.024 188.211H461.316C469.543 188.211 474.684 179.287 470.572 172.148L440.848 120.569ZM328.434 188.211C305.264 175.26 289.595 150.457 289.595 121.987C289.595 121.634 289.597 121.281 289.601 120.931L260.088 172.148C255.974 179.287 261.117 188.211 269.344 188.211H328.434Z" fill="#4285F4" fill-opacity="0.9"/>
<path fill-rule="evenodd" clip-rule="evenodd" d="M408.419 70.9831C380.382 47.1513 338.393 50.5599 314.549 78.5707C319.334 73.0685 327.658 72.4261 333.23 77.1621C338.846 81.9358 339.536 90.3677 334.772 95.9937L334.773 95.9951C349.03 79.1569 374.184 77.0497 391.033 91.2498C391.076 91.2868 391.119 91.3238 391.162 91.3608C396.779 96.136 405.194 95.443 409.959 89.817C414.724 84.1896 414.034 75.7577 408.418 70.9831H408.419Z" fill="url(#paint0_linear_344_1104)"/>
<path fill-rule="evenodd" clip-rule="evenodd" d="M314.429 78.7057C290.656 106.779 294.041 148.816 321.953 172.714L322.138 172.872C316.522 168.097 315.832 159.665 320.597 154.038C325.354 148.42 333.75 147.722 339.366 152.471C322.568 138.166 320.488 112.943 334.704 96.0703C334.726 96.0447 334.748 96.0191 334.769 95.9934C339.536 90.366 338.846 81.9341 333.228 77.1604C327.612 72.386 319.194 73.0782 314.429 78.7057Z" fill="url(#paint1_linear_344_1104)"/>
<path fill-rule="evenodd" clip-rule="evenodd" d="M322.141 172.87V172.872C350.165 196.691 392.121 193.299 415.974 165.329L416.129 165.147C411.363 170.775 402.947 171.466 397.33 166.692C391.714 161.919 391.024 153.487 395.789 147.859C381.509 164.723 356.3 166.812 339.45 152.538C339.433 152.524 339.416 152.508 339.398 152.494C333.782 147.719 325.366 148.411 320.6 154.037C315.837 159.665 316.527 168.097 322.141 172.87Z" fill="url(#paint2_linear_344_1104)"/>
<path fill-rule="evenodd" clip-rule="evenodd" d="M408.605 71.1384L408.474 71.0276C414.042 75.8103 414.712 84.2052 409.962 89.8141C405.213 95.423 396.838 96.1288 391.222 91.4077C408.01 105.732 410.066 130.972 395.81 147.836C395.803 147.843 395.796 147.851 395.789 147.86C391.024 153.487 391.715 161.919 397.331 166.693C402.948 171.467 411.364 170.775 416.127 165.148L416.129 165.149L416.2 165.064C439.895 136.989 436.489 95.0132 408.605 71.1384Z" fill="url(#paint3_linear_344_1104)"/>
<mask id="mask2_344_1104" style="mask-type:alpha" maskUnits="userSpaceOnUse" x="333" y="89" width="65" height="65">
<circle cx="365.463" cy="121.875" r="32.0144" fill="#D9D9D9"/>
</mask>
<g mask="url(#mask2_344_1104)">
<circle cx="365.463" cy="121.875" r="32.0144" fill="url(#paint4_linear_344_1104)"/>
<path fill-rule="evenodd" clip-rule="evenodd" d="M352.65 98.3414C352.256 98.6174 351.74 99.3051 351.504 99.87C351.006 101.061 350.946 105.059 351.396 107.01L351.701 108.335L349.234 111.772C346.459 115.64 346.336 116.13 347.51 118.651C348.82 121.464 351.788 124.122 356.921 127.079C362.005 130.008 364.837 134.06 365.141 138.838L365.302 141.376L364.084 139.52C362.069 136.448 358.314 133.648 352.005 130.515C349.209 129.126 348.054 128.345 346.456 126.761C345.345 125.66 344.076 124.035 343.634 123.149C342.712 121.298 342.529 121.474 342.248 124.484C342.023 126.885 342.778 130.38 343.969 132.454C345.448 135.028 347.255 136.788 350.94 139.241C354.781 141.799 357.001 144.025 358.244 146.563C359.179 148.473 359.869 151.853 359.569 153.051C359.362 153.872 359.325 153.844 358.1 151.948C356.143 148.92 353.156 146.17 348.599 143.202C344.039 140.23 341.456 137.957 339.927 135.569L338.922 133.999L338.831 135.873C338.707 138.457 339.475 141.878 340.772 144.513C341.638 146.273 342.371 147.186 344.354 148.974C345.794 150.273 347.232 151.904 347.759 152.838L348.673 154.453H354.416H360.16L362.2 151.761C367.669 144.545 370.551 138.442 371.387 132.3C372.08 127.217 371.903 127.546 374.008 127.429C376.356 127.3 378.742 127.825 380.154 128.783L381.264 129.537L382.134 127.611C383.143 125.376 383.997 122.937 383.997 122.289C383.997 121.665 383.484 121.725 382.237 122.496C381.331 123.056 380.867 123.129 379.123 122.982C376.546 122.766 373.739 121.733 372.928 120.701C371.95 119.458 372.108 117.975 373.351 116.731C374.614 115.469 375.297 115.429 377.142 116.51C377.916 116.964 379.048 117.419 379.658 117.52C380.732 117.7 380.766 117.747 380.74 119.003C380.724 119.777 380.854 120.3 381.06 120.3C381.251 120.3 382.003 119.694 382.73 118.952C383.722 117.943 384.358 117.564 385.268 117.442C387.339 117.164 388.706 115.909 389.104 113.921C389.29 112.989 389.23 112.924 387.185 111.85L385.074 110.741L387.305 110.864C388.532 110.932 389.535 110.862 389.535 110.71C389.535 109.965 386.444 107.542 383.989 106.363C381.922 105.37 381.171 104.835 380.746 104.055C379.141 101.113 374.381 99.4106 365.95 98.7642C363.607 98.5845 360.236 98.3026 358.46 98.138C354.109 97.735 353.484 97.7568 352.65 98.3414ZM359.69 102.194C358.304 103.411 355.986 104.916 355.499 104.916C354.93 104.916 354.152 104.027 354.152 103.376C354.152 103.061 354.287 102.447 354.452 102.013C354.747 101.239 354.81 101.224 357.76 101.237L360.767 101.249L359.69 102.194ZM364.876 105.954C364.427 108.188 364.832 109.663 366.458 111.72C367.108 112.542 367.72 113.632 367.818 114.142C367.917 114.652 368.075 115.472 368.17 115.964C368.286 116.569 368.187 117.71 368.187 117.71C368.187 117.71 367.531 116.881 367.181 116.335C366.869 115.846 365.889 114.876 365.003 114.178C363.048 112.638 362.455 111.779 362.24 110.178C361.97 108.166 362.391 106.823 363.754 105.344C364.446 104.594 365.06 104.03 365.12 104.09C365.18 104.149 365.07 104.989 364.876 105.954ZM375.552 104.973C377.739 105.852 378.149 106.405 377.431 107.5C376.471 108.964 374.37 108.416 371.13 105.854C370.253 105.161 369.536 104.439 369.536 104.249C369.536 103.686 373.557 104.17 375.552 104.973ZM357.794 114.875C358.547 116.577 360.674 118.707 362.883 119.97C364.917 121.134 367.534 123.869 368.325 125.657C368.655 126.403 369.003 127.684 369.099 128.503L369.272 129.992L368.307 128.85C367.093 127.415 363.62 124.804 360.613 123.068C357.37 121.195 356.323 120.346 355.328 118.779C354.023 116.723 354.106 114.622 355.608 111.65L356.757 109.378L356.964 111.422C357.078 112.547 357.452 114.101 357.794 114.875ZM373.458 133.288C373.636 136.788 373.002 140.73 371.668 144.416C370.568 147.458 369.125 149.799 366.66 152.542C365.703 153.606 364.922 154.506 364.923 154.542C364.93 154.745 373.449 154.564 373.774 154.354C374.373 153.966 375.857 150.849 376.661 148.289C377.676 145.054 377.696 139.292 376.701 136.146C376.002 133.934 374.264 130.735 373.655 130.54C373.414 130.463 373.356 131.272 373.458 133.288ZM381.121 138.915C381.797 142.96 381.076 146.212 378.493 150.761C376.157 154.876 376.047 154.591 380.007 154.697L383.387 154.786L383.7 153.963C384.385 152.161 384.74 147.179 384.358 144.721C383.939 142.027 382.752 139.142 381.63 138.094L380.863 137.377L381.121 138.915ZM388.449 147.578C388.441 149.645 388.296 150.296 387.444 152.114C386.896 153.282 386.495 154.284 386.553 154.342C386.61 154.4 388.101 154.483 389.866 154.527L393.074 154.607L393.025 153.158C392.959 151.203 391.803 148.798 389.972 146.809L388.459 145.164L388.449 147.578ZM336.713 149.365C336.818 150.966 337.099 152.744 337.339 153.317C337.759 154.321 337.847 154.364 339.886 154.557C342.798 154.832 345.845 154.81 345.845 154.515C345.845 154.067 343.568 152.105 341.096 150.422C339.753 149.509 338.299 148.247 337.865 147.619C337.431 146.99 336.951 146.471 336.799 146.465C336.64 146.458 336.603 147.698 336.713 149.365Z" fill="url(#paint5_linear_344_1104)"/>
<path d="M356.921 127.079C351.788 124.122 348.82 121.464 347.51 118.651C346.756 117.032 346.537 116.252 347.211 114.876C349.165 111.651 351.235 109.781 356.757 109.378L355.608 111.65C355.211 112.435 354.913 113.161 354.713 113.84C354.713 113.84 352.835 119.269 354.956 121.224C356.105 122.283 357.624 123.292 359.173 124.322C361.451 125.835 363.796 127.393 365.14 129.224C367.398 132.301 366.852 136.495 365.302 141.376L365.141 138.838C364.837 134.06 362.005 130.008 356.921 127.079Z" fill="url(#paint6_linear_344_1104)"/>
<path d="M371.668 144.416C373.002 140.73 373.636 136.788 373.458 133.288C373.356 131.272 373.414 130.463 373.655 130.54C373.655 130.54 376.187 138.301 374.34 144.3C372.171 151.351 364.923 154.542 364.923 154.542C364.922 154.506 365.703 153.606 366.66 152.542C369.125 149.799 370.568 147.458 371.668 144.416Z" fill="url(#paint7_linear_344_1104)"/>
<path d="M378.493 150.761C381.076 146.212 381.797 142.96 381.121 138.915L380.863 137.377C380.863 137.377 383.46 142.472 382.956 145.838C381.859 153.158 376.917 154.29 376.917 154.29C376.691 153.911 377.137 153.133 378.076 151.492C378.206 151.265 378.345 151.022 378.493 150.761Z" fill="url(#paint8_linear_344_1104)"/>
<path d="M343.969 132.454C342.778 130.38 342.023 126.885 342.248 124.484C342.411 122.733 342.541 121.941 342.803 121.95C342.803 121.95 344.638 130.282 348.599 133.288C350.007 134.357 351.339 135.052 352.743 135.784C354.735 136.822 356.87 137.936 359.572 140.3C363.264 143.531 364.495 148.576 364.495 148.576C363.787 149.615 363.023 150.675 362.2 151.761L360.16 154.453L359.11 154.453L359.569 153.051C359.869 151.853 359.179 148.473 358.244 146.563C357.001 144.025 354.781 141.799 350.94 139.241C347.255 136.788 345.448 135.028 343.969 132.454Z" fill="url(#paint9_linear_344_1104)"/>
<path d="M338.831 135.873L338.922 133.999C338.922 133.999 339.111 140.395 343.969 144.301C345.189 145.282 346.276 146.024 347.321 146.738C348.875 147.8 350.336 148.798 352.005 150.424C353.511 151.89 355.572 154.454 355.572 154.454L354.416 154.453H348.673L347.759 152.838C347.232 151.904 345.794 150.273 344.354 148.974C342.371 147.186 341.638 146.273 340.772 144.513C339.475 141.878 338.707 138.457 338.831 135.873Z" fill="url(#paint10_linear_344_1104)"/>
<path fill-rule="evenodd" clip-rule="evenodd" d="M388.449 147.578C388.441 149.645 388.296 150.296 387.444 152.114C386.896 153.282 386.495 154.284 386.553 154.342C386.553 154.342 389.319 153.684 390.186 150.761C390.92 148.289 388.459 145.164 388.459 145.164L388.449 147.578Z" fill="url(#paint11_linear_344_1104)"/>
<path fill-rule="evenodd" clip-rule="evenodd" d="M365.794 116.149C366.203 116.417 366.877 116.858 368.169 117.686C367.755 117.187 367.531 116.881 367.181 116.335C366.869 115.846 365.889 114.876 365.003 114.178C363.048 112.638 362.455 111.779 362.24 110.178C361.97 108.166 362.391 106.823 363.754 105.344C364.39 104.654 364.961 104.122 365.095 104.087C365.111 104.089 365.12 104.09 365.12 104.09C365.115 104.085 365.106 104.084 365.095 104.087C364.785 104.058 361.641 103.842 360.033 107.224C359.156 109.071 359.487 112.556 362.033 113.993C363.37 114.748 364.076 115.137 364.504 115.373C364.834 115.554 364.999 115.645 365.16 115.742C365.321 115.839 365.479 115.942 365.794 116.149Z" fill="url(#paint12_linear_344_1104)"/>
<path fill-rule="evenodd" clip-rule="evenodd" d="M369.543 104.206C369.543 104.206 367.571 112.147 373.417 113.07C376.533 113.562 378.996 109.852 378.381 107.391C378.211 106.713 377.547 106.107 377.547 106.107C377.844 106.496 377.793 106.947 377.431 107.5C376.471 108.964 374.37 108.416 371.13 105.854C369.507 104.571 369.543 104.206 369.543 104.206Z" fill="url(#paint13_linear_344_1104)"/>
</g>
<defs>
<linearGradient id="paint0_linear_344_1104" x1="375.715" y1="71.3953" x2="325.636" y2="85.6495" gradientUnits="userSpaceOnUse">
<stop stop-color="#4285F4"/>
<stop offset="1" stop-color="#4285F4" stop-opacity="0.7"/>
</linearGradient>
<linearGradient id="paint1_linear_344_1104" x1="314.84" y1="111.471" x2="329.172" y2="161.617" gradientUnits="userSpaceOnUse">
<stop stop-color="#0F9D58"/>
<stop offset="1" stop-color="#0F9D58" stop-opacity="0.7"/>
</linearGradient>
<linearGradient id="paint2_linear_344_1104" x1="354.846" y1="172.459" x2="404.925" y2="158.205" gradientUnits="userSpaceOnUse">
<stop stop-color="#F4B400"/>
<stop offset="1" stop-color="#F4B400" stop-opacity="0.7"/>
</linearGradient>
<linearGradient id="paint3_linear_344_1104" x1="415.735" y1="132.396" x2="401.392" y2="82.2942" gradientUnits="userSpaceOnUse">
<stop stop-color="#DB4437"/>
<stop offset="1" stop-color="#DB4437" stop-opacity="0.7"/>
</linearGradient>
<linearGradient id="paint4_linear_344_1104" x1="388.673" y1="100.266" x2="349.455" y2="141.084" gradientUnits="userSpaceOnUse">
<stop stop-color="#FF7C26"/>
<stop offset="1" stop-color="#DF5A02"/>
</linearGradient>
<linearGradient id="paint5_linear_344_1104" x1="388.673" y1="151.489" x2="351.056" y2="100.266" gradientUnits="userSpaceOnUse">
<stop stop-color="white"/>
<stop offset="1" stop-color="#FFF5EF"/>
</linearGradient>
<linearGradient id="paint6_linear_344_1104" x1="379.632" y1="111.728" x2="370.695" y2="103.37" gradientUnits="userSpaceOnUse">
<stop stop-color="#FFBE8E"/>
<stop offset="1" stop-color="#FFECDE"/>
</linearGradient>
<linearGradient id="paint7_linear_344_1104" x1="379.632" y1="111.728" x2="370.695" y2="103.37" gradientUnits="userSpaceOnUse">
<stop stop-color="#FFBE8E"/>
<stop offset="1" stop-color="#FFECDE"/>
</linearGradient>
<linearGradient id="paint8_linear_344_1104" x1="379.632" y1="111.728" x2="370.695" y2="103.37" gradientUnits="userSpaceOnUse">
<stop stop-color="#FFBE8E"/>
<stop offset="1" stop-color="#FFECDE"/>
</linearGradient>
<linearGradient id="paint9_linear_344_1104" x1="379.632" y1="111.728" x2="370.695" y2="103.37" gradientUnits="userSpaceOnUse">
<stop stop-color="#FFBE8E"/>
<stop offset="1" stop-color="#FFECDE"/>
</linearGradient>
<linearGradient id="paint10_linear_344_1104" x1="379.632" y1="111.728" x2="370.695" y2="103.37" gradientUnits="userSpaceOnUse">
<stop stop-color="#FFBE8E"/>
<stop offset="1" stop-color="#FFECDE"/>
</linearGradient>
<linearGradient id="paint11_linear_344_1104" x1="379.632" y1="111.728" x2="370.695" y2="103.37" gradientUnits="userSpaceOnUse">
<stop stop-color="#FFBE8E"/>
<stop offset="1" stop-color="#FFECDE"/>
</linearGradient>
<linearGradient id="paint12_linear_344_1104" x1="379.632" y1="111.728" x2="370.695" y2="103.37" gradientUnits="userSpaceOnUse">
<stop stop-color="#FFBE8E"/>
<stop offset="1" stop-color="#FFECDE"/>
</linearGradient>
<linearGradient id="paint13_linear_344_1104" x1="379.632" y1="111.728" x2="370.695" y2="103.37" gradientUnits="userSpaceOnUse">
<stop stop-color="#FFBE8E"/>
<stop offset="1" stop-color="#FFECDE"/>
</linearGradient>
</defs>
</svg>
