<svg width="31" height="41" viewBox="0 0 31 41" fill="none" xmlns="http://www.w3.org/2000/svg">
<path d="M0.441826 33.0952C0.304138 33.3427 0.260707 33.665 0.319948 33.9994C0.379189 34.3338 0.536886 34.6567 0.762474 34.9054L5.27929 39.7631C5.74256 40.2609 6.41305 40.3245 6.76497 39.8972L12.6115 32.8717L15.5646 29.3183L18.4782 25.815C20.2647 23.6669 20.1082 20.5087 18.1086 18.357C15.3226 15.3591 10.4394 15.7376 8.50175 19.1018L0.441826 33.0952ZM26.3362 3.73638C24.459 1.71933 22.1436 0.528308 19.8987 0.425098C17.6539 0.321888 15.6634 1.31494 14.3648 3.18597C13.9625 3.76518 13.6486 4.4041 13.4165 5.08591C12.4019 8.06601 14.2085 11.2269 16.4657 13.6555L19.1172 16.5083C21.8086 19.4041 26.37 21.4848 28.5149 18.4043C29.8137 16.5328 30.3138 13.9361 29.9052 11.1853C29.4967 8.43459 28.2128 5.75513 26.3362 3.73638Z" fill="#F4B400"/>
</svg>
