<svg width="43" height="30" viewBox="0 0 43 30" fill="none" xmlns="http://www.w3.org/2000/svg">
<path d="M5.47467 25.1471C6.42186 26.6111 7.8403 27.7107 9.49395 28.2637C11.1767 28.8265 12.9068 29.2721 14.6688 29.5961C15.3362 29.7188 16.006 29.4133 16.3305 28.8174C16.6841 28.1677 17.3941 27.7772 18.1301 27.851C20.5617 28.095 22.9766 28.0959 25.3748 27.8538C26.115 27.779 26.8299 28.1702 27.1898 28.8212C27.518 29.4149 28.1885 29.719 28.8556 29.5964C30.6113 29.2735 32.3353 28.8296 34.0121 28.2689C35.683 27.7101 37.1127 26.5928 38.0642 25.1099C41.2623 20.1256 42.7189 15.2211 42.9742 10.3715C43.14 7.22425 41.3552 4.30836 38.5231 2.92556C36.8155 2.09179 35.1287 1.43439 33.457 0.905695C32.6232 0.641996 31.7125 0.92844 31.2009 1.6377C31.0053 1.90887 30.8159 2.18354 30.6328 2.46154C30.1601 3.17947 30.5268 4.12644 31.3203 4.45709C31.781 4.6491 32.2345 4.85491 32.6798 5.07416C33.0086 5.23601 33.0303 5.69208 32.7339 5.90748C32.5953 6.00818 32.4148 6.03046 32.256 5.96612C25.418 3.19497 18.0189 3.19448 11.26 5.96467C11.1009 6.0299 10.9194 6.00839 10.78 5.90765C10.4825 5.69266 10.5053 5.23669 10.8346 5.07445C11.2793 4.85528 11.7321 4.64957 12.1923 4.45764C12.9904 4.1248 13.3594 3.17188 12.8839 2.44966C12.702 2.17349 12.5142 1.9009 12.3204 1.6321C11.8097 0.923908 10.9004 0.638544 10.0678 0.901505C8.39313 1.43044 6.70339 2.0884 4.99325 2.92349C2.15966 4.30717 0.374115 7.22502 0.542572 10.3739C0.830524 15.7565 2.56516 20.6501 5.47467 25.1471ZM28.8204 9.81587C30.9204 9.81587 32.6426 11.5606 32.6426 13.6852C32.6426 15.8097 30.9571 17.5574 28.8204 17.5574C26.6834 17.5574 24.9614 15.8129 24.9981 13.6852C24.9948 11.5606 26.6834 9.81587 28.8204 9.81587ZM14.6953 9.81587C16.7954 9.81587 18.5174 11.5606 18.5174 13.6852C18.5174 15.8097 16.8321 17.5574 14.6953 17.5574C12.5584 17.5574 10.8364 15.8129 10.8731 13.6852C10.8731 11.5606 12.5584 9.81587 14.6953 9.81587Z" fill="#5865F2"/>
</svg>
