<svg width="1138" height="1090" viewBox="0 0 1138 1090" fill="none" xmlns="http://www.w3.org/2000/svg">
<path d="M16.0137 907.437L151.449 906.769L286.885 906.555L557.756 906.1L828.627 906.528L964.063 906.769L1099.5 907.437L964.063 908.079L828.627 908.32L557.756 908.775L286.885 908.32L151.449 908.079L16.0137 907.437Z" fill="#263238"/>
<path d="M16.7902 907.384C18.7259 862.2 18.217 816.944 15.2657 771.814C8.65978 663.953 -5.40797 521.483 7.64349 491.556C16.6832 470.749 51.7456 442.265 54.7678 436.943C60.7319 426.513 80.9242 366.417 90.686 354.034C107.161 333.2 181.618 333.655 193.573 348.685C215.638 377.008 220.104 426.62 228.957 436.221C237.809 445.822 304.136 471.765 313.096 496.317C322.055 520.868 284.586 576.444 284.104 591.581C283.623 606.719 355.192 776.709 357.626 814.419C360.059 852.129 322.537 906.421 322.537 906.421L16.7902 907.384Z" fill="#EAAD02"/>
<path d="M322.537 906.448H304.859H304.672C304.672 906.448 327.753 850.096 327.753 822.496C327.753 794.895 261.506 620.653 261.853 591.983C262.201 563.312 303.682 526.351 300.473 502.174C297.264 477.996 234.574 455.825 221.95 443.335C209.327 430.845 200.233 358.795 189.001 349.996C177.768 341.197 114.463 341.651 103.417 360.694C92.3718 379.736 83.0913 430.792 73.9981 450.342C64.9049 469.893 24.2795 482.837 22.8621 515.118C21.4446 547.399 97.7474 757.105 87.317 808.99C76.8865 860.875 56.7477 892.567 46.2103 907.303H39.7915C39.7915 907.303 69.8259 833.943 70.5213 802.464C71.1096 777.351 23.0493 644.67 3.65931 591.983C1.46624 543.842 1.65345 505.517 7.75126 491.556C16.791 470.775 51.8267 442.319 54.9023 436.997C60.8396 426.539 81.032 366.417 90.8206 354.088C107.295 333.227 181.753 333.682 193.681 348.739C215.745 377.062 220.212 426.673 229.091 436.274C237.97 445.876 304.244 471.818 313.203 496.37C322.163 520.922 284.56 576.444 284.132 591.581C283.704 606.719 355.193 776.709 357.626 814.419C360.06 852.129 322.537 906.448 322.537 906.448Z" fill="#D24336"/>
<path d="M127.327 372.675C116.923 378.265 103.925 432.824 111.28 435.847C118.635 438.869 135.35 436.622 139.148 429.776C142.946 422.929 138.105 366.845 127.327 372.675Z" fill="#D24336"/>
<path d="M174.424 367.835C184.828 373.451 197.826 427.984 190.471 431.032C183.116 434.081 166.401 431.781 162.603 424.961C158.805 418.141 163.646 362.058 174.424 367.835Z" fill="#D24336"/>
<path d="M499.561 962.612H284.961C266.64 962.612 293.144 910.486 359.846 890.401C426.547 870.315 520.636 943.061 499.561 962.612Z" fill="#37474F"/>
<path d="M415.395 962.612C415.654 956.688 416.697 950.824 418.497 945.174C420.247 939.481 422.68 934.021 425.745 928.913C428.787 923.753 432.603 919.09 437.058 915.086C441.46 911.081 446.517 907.861 452.008 905.565C450.805 906.448 449.601 907.277 448.371 908.106L446.579 909.336L444.894 910.754L441.551 913.428L438.475 916.504C434.478 920.654 430.969 925.248 428.018 930.197C425.055 935.164 422.515 940.371 420.423 945.763C419.371 948.491 418.435 951.245 417.614 954.027C416.705 956.888 416.01 959.75 415.395 962.612Z" fill="#263238"/>
<path d="M440.803 913.027C453.472 917.293 465.467 923.345 476.427 930.999C481.961 934.8 486.985 939.294 491.377 944.372C493.533 946.979 495.398 949.813 496.94 952.823C498.459 955.843 499.368 959.133 499.614 962.505C498.907 959.291 497.63 956.229 495.843 953.465C494.141 950.681 492.141 948.089 489.879 945.736C485.323 941.039 480.315 936.802 474.929 933.086C469.58 929.234 463.964 925.811 458.294 922.388C455.459 920.703 452.57 919.098 449.655 917.52C446.74 915.942 443.745 914.551 440.803 913.027Z" fill="#263238"/>
<path d="M290.71 338.415C248.988 363.743 226.041 416.43 226.041 416.43C226.041 416.43 180.361 464.116 182.126 496.37C182.453 505.478 184.982 514.371 189.495 522.289C194.008 530.207 200.372 536.914 208.042 541.836L208.871 524.399C208.871 524.399 214.514 548.469 248.533 565.8C282.553 583.13 332.993 583.558 360.861 577.006C377.382 573.2 392.633 565.174 405.124 553.711L389.96 575.668C389.96 575.668 425.316 582.916 455.137 550.662C484.957 518.408 438.154 450.369 435.854 437.612C433.554 424.855 447.488 339.164 355.486 332.264C355.512 332.344 319.407 321.031 290.71 338.415Z" fill="#263238"/>
<path d="M195.766 536.648C186.914 529.507 181.083 517.338 178.329 506.48C175.234 495.095 176.053 483.002 180.655 472.139C186.406 459.088 196.488 448.845 206.304 438.815C216.119 428.786 227.352 418.81 237.301 408.273C237.862 407.684 236.98 406.882 236.365 407.31C226.265 414.581 216.594 422.43 207.4 430.819C198.243 438.33 190.002 446.894 182.848 456.333C176.207 465.017 172.188 475.42 171.268 486.314C170.939 495.266 172.774 504.165 176.617 512.256C181.164 521.938 188.197 529.159 194.937 537.263C195.552 537.771 196.274 537.049 195.766 536.648Z" fill="#263238"/>
<path d="M471.906 514.182C468.803 480.644 445.696 454.274 435.292 423.25C429.649 406.401 426.466 388.482 417.587 372.916C417.346 372.515 416.624 372.916 416.865 373.344C423.899 387.144 426.226 402.255 430.237 417.072C434.629 431.882 440.488 446.217 447.728 459.863C460.165 485.164 475.168 515.091 464.016 543.575C458.881 556.706 447.22 569.811 432.243 570.694C431.681 570.694 431.788 571.683 432.377 571.576C438.405 570.701 444.192 568.606 449.383 565.419C454.575 562.232 459.062 558.021 462.572 553.042C470.278 541.643 473.594 527.838 471.906 514.182Z" fill="#263238"/>
<path d="M471.184 522.954C474.969 511.447 475.1 499.049 471.558 487.464C467.867 476.017 460.004 466.496 451.954 457.777C442.674 447.721 432.698 437.906 428.499 424.56C428.312 423.999 427.483 424.346 427.643 424.881C434.142 446.839 453.184 460.933 463.615 480.591C475.543 503.083 468.964 530.069 452.649 548.496C442.309 559.66 429.481 568.228 415.207 573.502C415.157 573.502 415.109 573.522 415.074 573.557C415.039 573.592 415.02 573.64 415.02 573.689C415.02 573.739 415.039 573.787 415.074 573.822C415.109 573.857 415.157 573.876 415.207 573.876C439.678 565.077 463.214 548.469 471.184 522.954Z" fill="#263238"/>
<path d="M287.795 595.165C308.416 684.974 350.164 798.666 382.419 821.587C408.414 840.094 573.136 891.792 580.731 892.621C599.586 894.52 641.041 747.129 621.517 741.727C596.912 734.907 447.462 726.482 440.802 719.635C434.143 712.789 391.351 654.86 343.157 588.105C309.913 541.836 275.011 539.322 287.795 595.165Z" fill="#F7A9A0"/>
<path d="M538.5 879.97C540.987 881.254 576.424 899.066 598.328 905.405C614.669 910.139 662.061 922.521 669.068 905.057C673.855 893.129 646.843 882.565 627.908 874.675C617.932 870.53 605.63 860.072 608.572 853.654C613.707 842.447 639.408 853.654 656.284 863.522C688.966 882.511 732.48 916.664 752.565 900.109C760.081 893.824 751.335 882.431 738.524 871.252C759.305 884.276 781.503 894.974 790.142 888.342C795.09 884.57 795.33 879.382 792.576 873.471C798.994 875.558 804.664 875.156 808.622 870.984C815.362 863.897 812.072 853.466 804.691 842.768C805.959 842.631 807.177 842.192 808.242 841.49C809.307 840.788 810.189 839.842 810.815 838.73C825.124 816.906 753.501 754.27 728.736 748.386C655.856 731.082 578.323 737.394 578.323 737.394C549.573 760.261 538.447 879.917 538.5 879.97Z" fill="#F7A9A0"/>
<path d="M645.668 812.895C663.022 815.607 679.598 821.99 694.29 831.616C712.771 843.812 725.02 858.093 740.532 872.455C740.933 872.856 740.344 873.498 739.943 873.124C732.562 866.277 701.966 840.602 694.049 834.745C679.752 823.979 663.187 816.615 645.614 813.215C645.572 813.208 645.534 813.185 645.509 813.15C645.484 813.114 645.474 813.071 645.481 813.028C645.488 812.986 645.512 812.948 645.547 812.923C645.582 812.898 645.625 812.887 645.668 812.895Z" fill="#263238"/>
<path d="M659.387 781.951C678.536 787.3 698.167 792.488 715.952 801.555C735.395 811.477 750.72 827.631 765.59 843.196C774.594 852.539 783.375 862.078 791.934 871.813C792.308 872.214 791.747 872.856 791.372 872.455C776.181 856.408 760.509 840.798 744.355 825.625C729.436 811.475 711.866 800.413 692.657 793.077C681.692 788.904 670.432 785.561 659.173 782.379C658.959 782.379 659.039 781.897 659.387 781.951Z" fill="#263238"/>
<path d="M679.714 754.912C698.436 758.736 714.482 761.999 731.038 771.975C752.861 785.187 773.829 807.439 781.318 815.302C789.475 824.02 797.365 833.007 805.067 842.046C805.388 842.421 804.746 842.982 804.425 842.608C786.728 822.684 767.762 803.923 747.646 786.444C738.2 777.955 727.49 770.989 715.9 765.797C704.157 761.204 692.041 757.625 679.688 755.099L679.714 754.912Z" fill="#263238"/>
<path d="M439.785 706.424L314.085 701.075C314.085 701.075 291.245 638.759 282.847 583.398C274.449 528.036 321.6 547.934 368.27 607.468C414.939 667.002 439.785 706.424 439.785 706.424Z" fill="#37474F"/>
<path d="M360.997 908.347L353.374 780.72C353.374 780.72 387.715 742.743 380.119 708.51C376.268 691.125 317.028 559.086 311.225 553.657C287.876 531.914 248.508 540.579 232.327 552.801C142.813 620.466 79.7218 765.663 49.4199 908.507L360.997 908.347Z" fill="#FFC727"/>
<path d="M360.997 908.347L353.374 780.72C353.374 780.72 387.715 742.743 380.119 708.51C376.268 691.125 317.028 559.086 311.225 553.657C287.876 531.914 248.508 540.579 232.327 552.801C142.813 620.466 79.7218 765.663 49.4199 908.507L360.997 908.347Z" fill="#FFC727"/>
<path d="M353.374 780.721L360.997 908.347H49.4199C79.695 765.61 142.786 620.412 232.327 552.641C235.83 550.066 239.639 547.936 243.667 546.303C262.763 538.279 292.289 535.845 311.225 553.497C317.028 558.846 376.268 690.965 380.092 708.349C387.715 742.743 353.374 780.721 353.374 780.721Z" fill="#4180EA"/>
<g opacity="0.1">
<path d="M305.1 548.817H238.586C240.238 547.93 241.934 547.126 243.667 546.41C246.953 545.033 250.331 543.889 253.777 542.986H292.637C297.047 544.328 301.244 546.291 305.1 548.817Z" fill="black"/>
<path d="M316.28 562.296H220.48C222.834 560.29 225.188 558.311 227.595 556.439H313.178C313.98 557.91 315.05 559.889 316.28 562.296Z" fill="black"/>
<path d="M322.966 575.749H205.824C207.83 573.743 209.889 571.79 211.949 569.891H320.131L322.966 575.749Z" fill="black"/>
<path d="M329.357 589.201H192.959C194.751 587.222 196.543 585.27 198.308 583.371H326.683L329.357 589.201Z" fill="black"/>
<path d="M335.589 602.654H181.299C182.904 600.675 184.535 598.749 186.193 596.823H332.915C333.771 598.722 334.68 600.675 335.589 602.654Z" fill="black"/>
<path d="M341.74 616.133H170.707L175.2 610.276H339.065L341.74 616.133Z" fill="black"/>
<path d="M347.757 629.586H161.025C162.389 627.607 163.7 625.654 165.144 623.729H345.136C346.019 625.681 346.902 627.633 347.757 629.586Z" fill="black"/>
<path d="M353.696 643.038H152.014C153.271 641.086 154.554 639.134 155.838 637.208H351.075C351.984 639.16 352.867 641.113 353.696 643.038Z" fill="black"/>
<path d="M359.553 656.491H143.615C144.792 654.539 145.996 652.586 147.199 650.661H357.012C357.894 652.613 358.723 654.565 359.553 656.491Z" fill="black"/>
<path d="M365.195 670.051H135.752C136.875 668.098 137.972 666.146 139.122 664.22H362.815C363.671 666.092 364.5 668.045 365.195 670.051Z" fill="black"/>
<path d="M370.919 683.423H128.344C129.414 681.444 130.457 679.492 131.526 677.566H368.485L370.919 683.423Z" fill="black"/>
<path d="M376.214 696.795H121.416C122.379 694.843 123.368 692.891 124.358 690.965H373.967C374.796 693.131 375.545 695.084 376.214 696.795Z" fill="black"/>
<path d="M380.44 710.328H114.838C115.747 708.376 116.683 706.424 117.512 704.498H378.809C379.26 705.797 379.644 707.118 379.959 708.456C380.226 709.071 380.36 709.713 380.44 710.328Z" fill="black"/>
<path d="M381.242 717.951C381.291 719.897 381.219 721.844 381.028 723.781H108.605L111.28 717.951H381.242Z" fill="black"/>
<path d="M379.771 731.403C379.37 733.382 378.861 735.337 378.247 737.26H102.775L105.289 731.403H379.771Z" fill="black"/>
<path d="M375.599 744.936C374.796 746.942 373.941 748.867 372.924 750.766H97.1055C97.8811 748.814 98.6834 746.862 99.4858 744.936H375.599Z" fill="black"/>
<path d="M369.073 758.308C367.923 760.368 366.773 762.32 365.596 764.139H91.7832C92.5321 762.186 93.2809 760.261 94.0565 758.308H369.073Z" fill="black"/>
<path d="M360.435 771.681C358.724 774.061 357.172 776.04 355.996 777.511H86.7559C87.4512 775.559 88.1466 773.606 88.8687 771.681H360.435Z" fill="black"/>
<path d="M353.989 791.098H81.9141C82.6094 789.118 83.278 787.166 84.0002 785.24H353.641L353.989 791.098Z" fill="black"/>
<path d="M354.793 804.55H77.3691C78.011 802.598 78.6529 800.645 79.3215 798.72H354.499L354.793 804.55Z" fill="black"/>
<path d="M355.594 818.003H73.0625C73.6509 816.05 74.266 814.098 74.9079 812.172H355.247L355.594 818.003Z" fill="black"/>
<path d="M356.396 831.455H68.9434C69.505 829.503 70.0934 827.577 70.7085 825.625H356.049L356.396 831.455Z" fill="black"/>
<path d="M357.173 844.935H65.0664C65.6013 842.982 66.1362 841.03 66.7246 839.078H356.852L357.173 844.935Z" fill="black"/>
<path d="M358.001 858.387H61.375C61.8832 856.435 62.3913 854.509 62.9529 852.557H357.654L358.001 858.387Z" fill="black"/>
<path d="M358.804 871.84H57.8984C58.3531 869.888 58.8613 867.962 59.3694 866.01H358.456L358.804 871.84Z" fill="black"/>
<path d="M359.633 885.293H54.7422C55.1968 883.34 55.6515 881.415 56.1329 879.462H359.258L359.633 885.293Z" fill="black"/>
<path d="M360.435 898.772H51.5059C51.9338 896.82 52.3617 894.867 52.8164 892.915H360.087L360.435 898.772Z" fill="black"/>
<path d="M360.997 908.347H49.4199C49.4199 907.705 49.6874 907.036 49.8478 906.394H360.89L360.997 908.347Z" fill="black"/>
</g>
<path d="M272.818 537.45C252.786 540.125 253.508 551.759 265.57 572.833C277.632 593.908 295.658 602.654 305.206 602.654C312.026 602.654 325.345 587.062 322.028 569.892C317.615 547.025 295.123 534.615 272.818 537.45Z" fill="#37474F"/>
<path d="M324.355 556.84C324.355 556.84 316.572 594.791 304.43 594.791C281.804 594.791 261.638 551.999 261.772 546.062C261.772 544.564 274.556 510.572 284.505 484.174C290.897 467.192 296.166 453.365 296.166 453.365L348.639 509.582L326.013 553.604L324.355 556.84Z" fill="#F7A9A0"/>
<path d="M348.64 509.582L326.014 553.604C314.594 545.584 304.995 535.245 297.843 523.263C290.69 511.281 286.146 497.925 284.506 484.067C290.898 467.085 296.167 453.257 296.167 453.257L302.906 459.997L348.64 509.582Z" fill="#263238"/>
<path d="M445.38 471.456C449.23 451.574 438.209 432.719 420.764 429.34C403.319 425.962 386.056 439.34 382.206 459.222C378.356 479.103 389.376 497.959 406.821 501.337C424.267 504.715 441.53 491.337 445.38 471.456Z" fill="#4180EA"/>
<path d="M371.694 458.446C367.414 480.564 379.717 501.532 399.08 505.303C418.444 509.074 437.673 494.177 441.872 472.059C446.071 449.941 433.849 428.973 414.512 425.202C395.176 421.431 375.893 436.328 371.694 458.446Z" fill="#C7C7C7"/>
<path d="M434.169 457.002C419.647 542.585 366.692 543.628 348.238 540.499C331.469 537.61 274.743 525.736 280.333 439.029C285.923 352.323 330.373 332.05 369.046 336.543C407.718 341.036 448.691 371.338 434.169 457.002Z" fill="#F7A9A0"/>
<path d="M424.568 441.196C422.577 441.396 420.577 441.476 418.577 441.436C416.483 441.828 414.317 441.508 412.426 440.527C411.888 440.105 411.504 439.517 411.335 438.854C411.166 438.191 411.22 437.491 411.49 436.863C412.212 435.701 413.234 434.756 414.448 434.125C415.662 433.494 417.024 433.202 418.39 433.279C421.165 432.994 423.947 433.747 426.199 435.392C426.694 435.797 427.06 436.338 427.253 436.948C427.445 437.559 427.455 438.212 427.282 438.828C427.109 439.443 426.76 439.995 426.278 440.416C425.796 440.837 425.202 441.108 424.568 441.196Z" fill="#263238"/>
<path d="M362.307 427.502C363.992 428.652 365.757 429.455 367.656 430.444C369.352 431.739 371.433 432.426 373.566 432.397C374.234 432.266 374.839 431.916 375.285 431.403C375.731 430.889 375.992 430.241 376.027 429.562C375.913 428.203 375.436 426.9 374.646 425.79C373.855 424.679 372.78 423.802 371.534 423.25C369.161 421.712 366.298 421.12 363.51 421.592C362.884 421.725 362.31 422.039 361.859 422.494C361.408 422.948 361.1 423.525 360.972 424.153C360.845 424.78 360.903 425.432 361.14 426.027C361.377 426.622 361.783 427.135 362.307 427.502Z" fill="#263238"/>
<path opacity="0.8" d="M365.756 446.865C354.683 443.549 348.88 465.961 359.15 469.01C369.42 472.059 375.036 449.647 365.756 446.865Z" fill="#E07F69"/>
<path d="M370.25 453.097C370.25 452.883 369.742 453.284 369.715 453.525C368.618 459.329 366.425 465.828 360.782 466.603C360.595 466.603 360.541 466.924 360.782 466.924C367.335 467.432 370.17 458.767 370.25 453.097Z" fill="#263238"/>
<path d="M366.424 445.929C357.278 443.255 352.49 461.682 360.942 464.223C369.393 466.764 374.073 448.229 366.424 445.929Z" fill="#263238"/>
<path d="M362.52 445.983C360.621 446.598 358.562 448.042 356.556 447.721C354.55 447.4 353.052 445.047 352.063 442.747C352.063 442.506 351.769 442.747 351.689 442.88C350.726 446.411 351.154 450.396 354.791 451.893C358.428 453.391 361.45 450.797 363.242 447.454C363.617 446.839 363.296 445.715 362.52 445.983Z" fill="#263238"/>
<path opacity="0.8" d="M411.73 455.397C402.049 453.739 398.866 476.659 407.852 478.184C416.838 479.708 419.861 456.788 411.73 455.397Z" fill="#E07F69"/>
<path d="M404.349 459.65C404.349 459.436 404.724 460.024 404.644 460.265C402.932 465.935 401.969 472.701 406.596 475.991C406.73 475.991 406.596 476.365 406.596 476.285C400.391 473.717 401.809 464.731 404.349 459.65Z" fill="#263238"/>
<path d="M411.036 455.023C420.423 456.788 416.224 475.429 407.532 473.744C398.84 472.059 403.173 453.552 411.036 455.023Z" fill="#263238"/>
<path d="M414.645 457.136C415.902 458.446 416.945 460.586 418.683 461.094C420.422 461.602 422.642 460.024 424.38 458.419C424.567 458.259 424.674 458.419 424.647 458.687C423.925 462.271 421.973 465.721 418.336 465.64C414.698 465.56 413.468 461.976 413.441 458.232C413.334 457.483 414.137 456.601 414.645 457.136Z" fill="#263238"/>
<path d="M359.23 497.6C360.166 499.339 360.969 501.585 362.948 502.388C365.065 503.007 367.291 503.162 369.473 502.842C369.519 502.838 369.564 502.848 369.603 502.871C369.642 502.894 369.672 502.929 369.69 502.971C369.708 503.013 369.712 503.059 369.702 503.103C369.692 503.147 369.668 503.187 369.634 503.217C368.491 504.055 367.147 504.576 365.738 504.727C364.328 504.877 362.904 504.651 361.61 504.073C360.556 503.413 359.717 502.458 359.199 501.327C358.681 500.195 358.506 498.937 358.695 497.707C358.615 497.333 359.096 497.36 359.23 497.6Z" fill="#263238"/>
<path d="M388.357 482.837C388.357 482.837 387.42 491.69 386.431 495.755C386.431 496.129 385.308 496.049 383.917 495.755C383.917 495.755 383.917 495.755 383.756 495.755C380.13 495.537 376.633 494.323 373.651 492.247C370.669 490.171 368.317 487.313 366.854 483.987C366.797 483.888 366.782 483.77 366.812 483.66C366.842 483.549 366.915 483.456 367.014 483.399C367.113 483.342 367.231 483.327 367.342 483.357C367.452 483.387 367.546 483.46 367.603 483.559C371.881 488.367 377.607 491.652 383.917 492.92C384.479 491.877 385.013 477.675 385.655 477.782C388.725 478.844 391.639 480.31 394.321 482.142C396.808 463.715 396.3 445.047 399.054 426.753C399.054 426.604 399.114 426.462 399.219 426.356C399.324 426.251 399.467 426.192 399.616 426.192C399.765 426.192 399.908 426.251 400.013 426.356C400.119 426.462 400.178 426.604 400.178 426.753C402.077 446.277 399.696 467.539 397.503 486.635C397.289 488.962 389.801 483.853 388.357 482.837Z" fill="#263238"/>
<path d="M381.777 492.92C378.986 495.424 375.596 497.166 371.935 497.975C369.925 498.337 367.854 498.076 365.997 497.226C361.959 495.327 362.574 491.396 363.991 488.213C364.744 486.522 365.705 484.931 366.853 483.479C370.696 488.135 375.924 491.442 381.777 492.92Z" fill="#263238"/>
<path d="M371.935 497.975C369.925 498.337 367.854 498.076 365.997 497.226C361.959 495.327 362.574 491.396 363.991 488.213C368.431 489.55 372.363 493.535 371.935 497.975Z" fill="#DD6A57"/>
<path d="M283.462 431.808C292.663 434.028 323.767 416.35 337.781 372.97C337.781 372.97 322.483 411.081 317.803 415.922C313.122 420.763 335.213 405.946 347.008 371.098C347.008 371.098 362.199 391.103 377.39 400.838C392.581 410.573 402.798 413.515 404.349 412.659C405.9 411.803 383.809 396.612 379.53 387.037C379.53 387.037 417.454 421.057 437.352 428.813C439.652 429.722 443.343 391.771 418.122 361.603C392.902 331.435 350.164 328.761 332.78 337.533C332.78 337.533 316.358 334.858 292.128 353.018C267.897 371.178 273.567 429.348 283.462 431.808Z" fill="#263238"/>
<path d="M292.984 448.069C292.984 448.069 281.457 417.045 267.844 420.495C254.231 423.945 258.135 465.56 270.759 474.413C272.299 475.661 274.077 476.584 275.983 477.127C277.89 477.67 279.887 477.821 281.854 477.571C283.821 477.321 285.717 476.675 287.428 475.673C289.138 474.67 290.628 473.332 291.807 471.738L292.984 448.069Z" fill="#F7A9A0"/>
<path d="M269.127 432.263C269.104 432.251 269.079 432.243 269.053 432.24C269.028 432.238 269.001 432.24 268.977 432.248C268.952 432.255 268.929 432.267 268.909 432.284C268.888 432.3 268.872 432.32 268.86 432.343C268.847 432.366 268.84 432.391 268.837 432.417C268.834 432.443 268.837 432.469 268.844 432.493C268.852 432.518 268.864 432.541 268.88 432.561C268.897 432.582 268.917 432.598 268.94 432.611C277.712 439.136 280.52 449.567 281.67 459.944C279.691 455.558 276.321 452.535 270.491 454.728C270.197 454.728 270.33 455.317 270.491 455.317C272.356 455.222 274.204 455.706 275.784 456.702C277.364 457.697 278.598 459.157 279.317 460.88C280.531 463.769 281.428 466.783 281.991 469.866C282.205 470.856 283.917 470.802 283.837 469.706C283.85 469.626 283.85 469.545 283.837 469.465C287.367 457.029 282.285 437.023 269.127 432.263Z" fill="#263238"/>
<path d="M279.611 472.621C279.441 473.192 279.107 473.7 278.65 474.081C278.192 474.463 277.633 474.701 277.041 474.765C276.448 474.83 275.851 474.718 275.322 474.444C274.793 474.169 274.357 473.745 274.069 473.224C273.781 472.703 273.653 472.108 273.701 471.514C273.75 470.921 273.973 470.355 274.342 469.887C274.711 469.42 275.21 469.072 275.777 468.888C276.343 468.703 276.951 468.69 277.525 468.85C278.301 469.073 278.957 469.596 279.348 470.303C279.739 471.011 279.834 471.844 279.611 472.621Z" fill="white"/>
<path d="M272.738 465.186C272.673 465.429 272.561 465.657 272.407 465.857C272.253 466.056 272.061 466.223 271.842 466.347C271.623 466.472 271.381 466.551 271.131 466.582C270.881 466.612 270.627 466.592 270.385 466.523C270.122 466.474 269.872 466.37 269.651 466.219C269.43 466.068 269.243 465.873 269.102 465.645C268.961 465.418 268.869 465.164 268.831 464.899C268.794 464.634 268.812 464.364 268.885 464.106C268.958 463.849 269.084 463.609 269.254 463.403C269.425 463.197 269.636 463.028 269.875 462.908C270.115 462.788 270.376 462.72 270.644 462.707C270.911 462.694 271.178 462.736 271.428 462.832C271.669 462.9 271.894 463.015 272.091 463.17C272.287 463.325 272.451 463.518 272.573 463.736C272.695 463.955 272.772 464.196 272.8 464.444C272.829 464.693 272.808 464.945 272.738 465.186Z" fill="white"/>
<path d="M264.34 437.371L258.269 437.13C257.947 437.116 257.644 436.977 257.424 436.742C257.204 436.507 257.085 436.195 257.092 435.873C257.106 435.552 257.245 435.248 257.48 435.028C257.715 434.808 258.027 434.689 258.349 434.697L264.42 434.937C264.744 434.958 265.048 435.103 265.267 435.342C265.486 435.582 265.604 435.897 265.597 436.221C265.59 436.379 265.552 436.534 265.485 436.678C265.418 436.821 265.324 436.95 265.207 437.057C265.09 437.164 264.954 437.246 264.805 437.3C264.656 437.354 264.498 437.378 264.34 437.371Z" fill="#FFC727"/>
<path d="M264.635 433.359L258.644 432.263C258.487 432.234 258.338 432.174 258.204 432.087C258.071 432 257.956 431.887 257.866 431.755C257.777 431.624 257.714 431.475 257.682 431.319C257.651 431.163 257.65 431.002 257.681 430.845C257.706 430.687 257.764 430.535 257.85 430.4C257.936 430.264 258.049 430.148 258.182 430.058C258.315 429.968 258.465 429.906 258.622 429.875C258.78 429.845 258.942 429.848 259.099 429.883L265.063 430.979C265.378 431.044 265.656 431.227 265.84 431.491C266.024 431.754 266.1 432.079 266.052 432.397C266.023 432.553 265.964 432.703 265.877 432.836C265.789 432.97 265.677 433.085 265.545 433.174C265.413 433.264 265.265 433.326 265.108 433.358C264.952 433.39 264.791 433.39 264.635 433.359Z" fill="#FFC727"/>
<path d="M280.467 423.357C280.467 423.357 283.997 379.174 300.338 356.95C318.551 332.184 378.326 322.689 414.485 357.511C414.485 357.511 353.48 328.68 317.348 361.416C302.13 375.19 294.909 426.673 294.909 426.673L280.467 423.357Z" fill="#C7C7C7"/>
<path d="M318.177 451.466C315.128 473.797 296.781 489.711 277.204 487.036C257.626 484.362 244.227 464.089 247.276 441.784C250.325 419.479 268.672 403.539 288.276 406.213C307.88 408.888 321.252 429.16 318.177 451.466Z" fill="#C7C7C7"/>
<path d="M308.041 448.791C305.366 468.85 288.785 483.158 271.187 480.751C253.589 478.344 241.553 460.131 244.442 440.072C247.33 420.014 263.671 405.705 281.269 408.112C298.867 410.519 310.769 428.733 308.041 448.791Z" fill="#4180EA"/>
<path d="M339.279 517.605L312.428 505.57L291.139 478.21L295.338 474.921L315.824 501.238L341.446 512.738L339.279 517.605Z" fill="#C7C7C7"/>
<path d="M336.443 513.246C339.118 505.437 361.209 508.673 357.037 520.521C352.865 532.369 333.689 521.109 336.443 513.246Z" fill="#37474F"/>
<path d="M206.545 571.576C154.713 627.099 13.0194 828.326 55.4367 864.004C125.16 922.842 202.319 933.193 249.497 939.504C269.85 942.179 312.374 809.525 299.001 792.114C285.629 774.703 195.606 777.645 194.242 764.273C193.493 756.677 226.336 693.854 248.614 613.298C274.262 520.28 229.438 547.025 206.545 571.576Z" fill="#F7A9A0"/>
<path d="M242.81 778.634C242.81 778.634 305.099 774.088 345.965 773.018C368.778 772.43 407.959 774.89 424.916 782.138C450.27 792.836 549.439 854.349 535.051 878.713C522.053 900.778 443.557 837.179 443.557 837.179C443.557 837.179 528.445 894.332 507.744 918.001C487.044 941.671 408.093 858.066 408.093 858.066C408.093 858.066 494.104 918.777 469.045 939.798C450.136 955.712 374.181 884.009 374.181 884.009C374.181 884.009 447.649 936.669 428.874 953.866C408.147 972.882 333.903 911.075 333.903 911.075C278.862 946.779 238.023 941.269 209.46 933.888C202.56 932.149 242.81 778.634 242.81 778.634Z" fill="#F7A9A0"/>
<path d="M415.474 815.542C425.691 821.907 436.068 828.246 445.696 835.494C455.324 842.742 464.658 850.31 473.564 858.414C495.388 878.285 505.925 894.145 505.176 893.182C487.23 871.786 453.238 845.256 443.663 838.008C434.089 830.76 424.942 823.084 415.26 815.836C414.939 815.703 415.233 815.382 415.474 815.542Z" fill="#263238"/>
<path d="M388.703 849.776C401.407 858.441 414.325 866.598 426.627 875.852C438.93 885.106 449.681 894.841 461.396 904.843C462.278 905.619 461.583 905.833 460.647 905.111C448.665 895.563 436.871 887.646 424.782 878.366C412.693 869.085 400.952 859.083 388.596 850.177C388.302 849.936 388.516 849.642 388.703 849.776Z" fill="#263238"/>
<path d="M360.461 875.023C380.519 887.299 398.304 903.238 415.394 919.312C416.223 920.114 415.394 920.302 414.378 919.526C396.379 904.469 382.284 892.514 360.033 875.718C359.685 875.451 360.033 874.782 360.461 875.023Z" fill="#263238"/>
<path d="M453.773 793.558C440.614 785.535 426.6 778.501 411.249 775.826C402.124 774.489 392.923 773.739 383.702 773.58C374.047 773.179 364.365 773.072 354.71 772.697C354.443 772.697 354.47 773.098 354.71 773.125C362.734 773.794 370.971 774.756 379.128 775.372C387.285 775.987 394.827 776.441 402.61 777.458C410.206 778.392 417.671 780.187 424.862 782.807C431.676 785.409 438.253 788.595 444.519 792.328C457.678 799.95 519.993 843.143 533.151 864.539C535.322 867.863 536.136 871.892 535.425 875.798C535.106 877.527 534.296 879.128 533.091 880.409C531.887 881.69 530.338 882.596 528.632 883.019C528.097 883.019 528.632 883.474 529.193 883.394C534.836 882.645 537.217 877.617 537.992 872.295C540.667 851.166 467.76 802.17 453.773 793.558Z" fill="#263238"/>
<path d="M100.422 702.519L226.122 698.347C226.122 698.347 249.551 636.245 258.457 580.99C267.363 525.736 222.111 542.612 174.879 601.771C127.648 660.931 100.422 702.519 100.422 702.519Z" fill="#37474F"/>
<path d="M535.423 917.413H512.021V932.711H535.423V917.413Z" fill="#455A64"/>
<path d="M565.779 916.397H542.377V931.695H565.779V916.397Z" fill="#455A64"/>
<path d="M596.134 915.38H572.732V930.679H596.134V915.38Z" fill="#455A64"/>
<path d="M626.49 914.364H603.088V929.662H626.49V914.364Z" fill="#455A64"/>
<path d="M656.872 913.375H633.471V928.673H656.872V913.375Z" fill="#455A64"/>
<path d="M687.228 912.358H663.826V927.656H687.228V912.358Z" fill="#455A64"/>
<path d="M717.583 911.342H694.182V926.64H717.583V911.342Z" fill="#455A64"/>
<path d="M747.964 910.326H724.562V925.624H747.964V910.326Z" fill="#455A64"/>
<path d="M778.32 909.336H754.918V924.634H778.32V909.336Z" fill="#455A64"/>
<path d="M784.069 941.483H506.271V922.896L784.069 915.14V941.483Z" fill="#37474F"/>
<path d="M1048.04 881.121H590.17L662.969 540.232H1120.84L1048.04 881.121Z" fill="#455A64"/>
<path d="M1064.97 881.121H607.1L679.926 540.232H1137.8L1064.97 881.121Z" fill="#37474F"/>
<path d="M901.447 710.066C913.879 698.578 916.01 680.665 906.206 670.055C896.402 659.445 878.376 660.158 865.944 671.646C853.512 683.134 851.381 701.047 861.185 711.657C870.989 722.267 889.015 721.554 901.447 710.066Z" fill="#263238"/>
<path d="M935.472 970.154H710.281V952.663L935.472 945.361V970.154Z" fill="#455A64"/>
<path d="M996.693 970.127H875.807L802.98 779.116H923.894L996.693 970.127Z" fill="#455A64"/>
<path d="M1016.59 970.127H895.701L822.875 779.116H943.788L1016.59 970.127Z" fill="#263238"/>
<path d="M636.92 564.115C624.083 559.06 611.379 553.738 598.702 548.362C586.025 542.986 573.428 537.45 560.778 531.994C548.128 526.538 535.611 520.788 522.988 514.931L504.266 506.266C498.035 503.27 491.803 500.382 485.545 497.306C491.964 499.82 498.302 502.468 504.694 505.062L523.763 513.086C536.44 518.435 549.037 523.997 561.661 529.453C574.284 534.909 586.827 540.659 599.344 546.41C611.86 552.16 624.618 558.044 636.92 564.115Z" fill="#263238"/>
<path d="M614.803 667.376C603.088 667.938 591.347 668.178 579.633 668.392C567.919 668.606 556.178 668.606 544.464 668.713C532.75 668.82 521.009 668.713 509.294 668.419L491.696 668.045C485.839 667.804 479.982 667.67 474.125 667.376C479.982 667.082 485.839 666.948 491.696 666.734L509.294 666.36C521.009 666.146 532.75 666.146 544.464 666.039C556.178 665.932 567.919 666.039 579.633 666.36C591.347 666.681 603.222 666.734 614.803 667.376Z" fill="#263238"/>
<path d="M523.709 546.864C532.856 548.736 541.895 550.929 550.935 553.149C559.975 555.369 568.988 557.723 577.974 560.13C586.96 562.537 595.92 565.024 604.853 567.698L618.225 571.683C622.665 573.128 627.131 574.358 631.597 575.963C627.024 575.053 622.477 573.957 617.931 572.967L604.371 569.678C595.305 567.484 586.319 565.104 577.332 562.697C568.346 560.29 559.333 557.723 550.4 555.048C541.468 552.374 532.562 549.699 523.709 546.864Z" fill="#263238"/>
<path d="M519.109 421.324C530.957 430.819 542.618 440.527 554.225 450.262C565.832 459.997 577.306 469.919 588.86 479.681C600.414 489.443 611.78 499.553 623.12 509.635L640.076 524.773C645.692 529.881 651.336 534.936 656.872 540.125C650.934 535.391 645.104 530.55 639.22 525.763L621.756 511.187C610.149 501.452 598.675 491.529 587.121 481.767C575.568 472.006 564.228 461.896 552.888 451.813C541.548 441.73 530.235 431.755 519.109 421.324Z" fill="#263238"/>
<path d="M512.021 695.137C521.275 693.452 530.582 692.062 539.89 690.724C549.197 689.387 558.611 688.05 567.838 687.007C577.065 685.964 586.559 684.787 595.866 683.904L609.907 682.567C614.588 682.22 619.268 681.765 623.975 681.497C619.348 682.38 614.695 683.075 610.068 683.851L596.107 685.937C586.8 687.301 577.386 688.478 568.159 689.655C558.932 690.831 549.437 691.848 540.13 692.757C530.823 693.666 521.409 694.549 512.021 695.137Z" fill="#263238"/>
<path d="M496.484 597.305C508.011 598.829 519.458 600.675 530.932 602.52C542.405 604.365 553.772 606.478 565.218 608.457C576.665 610.437 588.032 612.683 599.398 614.983L616.461 618.46C622.131 619.717 627.801 620.867 633.471 622.204C627.694 621.482 621.971 620.573 616.221 619.744L599.051 617.069C587.577 615.224 576.184 613.138 564.737 611.159C553.29 609.18 541.924 606.906 530.557 604.633C519.191 602.36 507.824 599.926 496.484 597.305Z" fill="#263238"/>
<path d="M600.547 464.41C605.388 468.983 610.041 473.717 614.641 478.505C619.241 483.292 623.735 488.186 628.201 493.08C632.667 497.975 637.053 502.976 641.333 508.057L647.725 515.706C649.784 518.381 651.897 520.868 653.903 523.516C651.442 521.269 649.115 518.889 646.735 516.589L639.782 509.448C635.155 504.688 630.688 499.767 626.222 494.872C621.756 489.978 617.369 484.977 613.117 479.895C608.865 474.814 604.452 469.705 600.547 464.41Z" fill="#263238"/>
<path d="M775.085 275.485H407.264V308.648H775.085V275.485Z" fill="#EBEBEB"/>
<path d="M726.437 281.021H413.924V303.62H726.437V281.021Z" fill="#109756"/>
<path d="M381.081 293.939C376.079 303.112 364.098 311.189 364.098 311.189C364.098 311.189 352.089 303.166 347.142 293.939C341.472 283.562 344.601 272.971 352.704 272.971C361.744 272.971 364.098 284.257 364.098 284.257C364.098 284.257 366.478 272.971 375.464 272.971C383.595 272.971 386.724 283.562 381.081 293.939Z" fill="#EBEBEB"/>
<path d="M326.014 293.939C321.013 303.112 309.031 311.189 309.031 311.189C309.031 311.189 297.05 303.166 292.075 293.939C286.432 283.562 289.534 272.971 297.638 272.971C306.678 272.971 309.031 284.257 309.031 284.257C309.031 284.257 311.411 272.971 320.424 272.971C328.528 272.971 331.657 283.562 326.014 293.939Z" fill="#109756"/>
<path d="M270.973 293.939C265.971 303.112 253.963 311.189 253.963 311.189C253.963 311.189 241.981 303.166 237.007 293.939C231.364 283.562 234.466 272.971 242.57 272.971C251.636 272.971 253.963 284.257 253.963 284.257C253.963 284.257 256.343 272.971 265.356 272.971C273.46 272.971 276.616 283.562 270.973 293.939Z" fill="#109756"/>
<path d="M243.585 861.784L232.272 1004.17H153.936L142.623 861.784H243.585Z" fill="#D24336"/>
<path d="M250.351 848.92H135.215V869.674H250.351V848.92Z" fill="#455A64"/>
<path d="M242.436 848.92H143.105L148.909 825.625H236.632L242.436 848.92Z" fill="#37474F"/>
<path d="M220.29 934.236C220.29 952.716 208.121 967.693 193.117 967.693C178.114 967.693 165.918 952.716 165.918 934.236C165.918 915.755 178.087 900.751 193.117 900.751C208.148 900.751 220.29 915.728 220.29 934.236Z" fill="white"/>
<path d="M705.601 1034.5C705.601 1040.95 674.845 1046.16 636.921 1046.16C598.997 1046.16 568.24 1040.95 568.24 1034.5C568.24 1028.06 598.97 1022.84 636.921 1022.84C674.872 1022.84 705.601 1028.06 705.601 1034.5Z" fill="#C7C7C7"/>
<path d="M645.398 1046.16C645.398 1052.61 614.642 1057.82 576.718 1057.82C538.794 1057.82 508.037 1052.61 508.037 1046.16C508.037 1039.72 538.794 1034.5 576.718 1034.5C614.642 1034.5 645.398 1039.72 645.398 1046.16Z" fill="#C7C7C7"/>
<path d="M679.686 942.66L822.048 953.973V1032.31L679.686 1043.62V942.66Z" fill="#FFC727"/>
<path d="M522.693 1044.91H407.557V1065.66H522.693V1044.91Z" fill="#455A64"/>
<path d="M514.804 1044.91H415.447L421.251 1021.58H508.974L514.804 1044.91Z" fill="#37474F"/>
<path d="M752.137 965.955C770.617 965.955 785.595 978.124 785.595 993.128C785.595 1008.13 770.617 1020.41 752.137 1020.41C733.656 1020.41 718.652 1008.24 718.652 993.208C718.652 978.177 733.629 965.955 752.137 965.955Z" fill="white"/>
<path d="M989.148 953.037C997.974 951.753 1009.31 951.753 1009.96 956.808C1010.6 961.863 1006.59 964.591 1007.84 967.105C1009.1 969.619 1016.27 974.246 1019.64 977.616C1022.43 980.584 1024.45 984.193 1025.52 988.126C1025.52 989.383 1027.61 991.496 1025.52 994.01C1023.44 996.524 1022.23 1000.32 1020.49 1002.22C1018.75 1004.12 1018.03 1006.21 1020.49 1009.58C1022.95 1012.95 1020.87 1022.6 1017.07 1025.97C1013.27 1029.34 1002.36 1021.34 998.991 1022.17C995.621 1023 995.22 1024.69 992.278 1026.8C989.336 1028.91 982.195 1033.97 974.626 1033.97C967.057 1033.97 963.259 1027.23 958.579 1024.29C953.899 1021.34 949.753 1020.92 945.554 1019.23C941.775 1017.71 938.444 1015.25 935.873 1012.09C935.044 1010.4 932.102 1010 933.359 1005.38C934.616 1000.75 936.729 999.493 936.729 995.695C936.729 991.897 936.729 991.256 936.729 986.95C936.729 982.644 933.332 975.102 936.274 971.732C939.216 968.362 941.329 963.334 945.956 963.334C950.582 963.334 965.292 965.848 965.292 965.848C966.845 964.191 968.25 962.401 969.491 960.499C970.55 958.733 972.041 957.266 973.824 956.237C975.606 955.208 977.622 954.649 979.681 954.615C982.899 954.58 986.093 954.047 989.148 953.037Z" fill="white"/>
<path d="M936.809 995.695C942.826 998.37 948.924 1001.04 955.075 1003.37C961.227 1005.7 967.298 1008.37 973.476 1010.65C979.507 1013 985.668 1015 991.93 1016.64C993.188 1016.96 994.483 1017.11 995.781 1017.09L999.498 1015.22C1002.3 1013.79 1004.99 1012.14 1007.52 1010.27C1009.96 1008.61 1012.04 1006.48 1013.65 1004.01C1013.99 1003.44 1014.28 1002.84 1014.53 1002.22L1014.8 1001.31L1014.93 1000.88C1014.58 999.887 1014.03 998.975 1013.3 998.209C1009.01 993.523 1004.23 989.309 999.044 985.639C993.695 981.734 988.346 978.07 982.756 974.594C980.082 972.802 977.193 971.063 974.332 969.432C972.887 968.629 971.443 967.854 969.972 967.132C969.243 966.75 968.493 966.411 967.726 966.115C967.03 965.928 966.067 965.313 965.506 965.955C965.987 965.179 967.11 965.634 967.859 965.714C968.681 965.887 969.493 966.102 970.293 966.356C971.871 966.864 973.422 967.479 974.973 968.121C978.049 969.378 981.071 970.796 984.067 972.24C990.004 975.262 995.781 978.552 1001.45 982.136C1007.34 985.644 1012.74 989.926 1017.5 994.866C1019.05 996.459 1020.07 998.497 1020.41 1000.7C1020.47 1001.11 1020.47 1001.54 1020.41 1001.95L1020.23 1002.73L1019.8 1004.2C1019.44 1005.12 1019.02 1006.01 1018.54 1006.87C1016.6 1010.03 1014.04 1012.76 1011.03 1014.9C1008.21 1016.92 1005.24 1018.71 1002.15 1020.25L999.9 1021.37L998.75 1021.91L998.134 1022.2L996.904 1022.57C994.895 1022.74 992.874 1022.53 990.94 1021.96C984.456 1020.08 978.133 1017.68 972.031 1014.79C959.806 1009.36 948.028 1002.98 936.809 995.695Z" fill="#C7C7C7"/>
<path d="M961.895 1007.03C965.124 1001.9 968.774 997.043 972.806 992.512C974.759 990.186 976.925 988.046 979.091 985.88C980.188 984.783 981.365 983.794 982.568 982.777C983.903 981.594 985.398 980.603 987.008 979.835C987.277 979.717 987.554 979.619 987.837 979.541C988.422 979.447 989.018 979.447 989.602 979.541C990.475 979.71 991.277 980.139 991.902 980.771C992.541 981.425 993.122 982.132 993.641 982.884C994.557 984.176 995.405 985.515 996.181 986.896C997.626 989.571 999.07 992.245 1000.25 995.107C1002.87 1000.6 1004.81 1006.41 1006 1012.38L996.369 997.113C994.737 994.625 993.266 992.058 991.608 989.624C990.806 988.42 990.03 987.164 989.228 986.12C988.874 985.641 988.49 985.186 988.078 984.757C988.078 984.757 988.078 984.756 988.479 984.944C988.695 985.024 988.932 985.024 989.147 984.944H988.934C987.838 985.497 986.806 986.17 985.858 986.95L982.515 989.624L975.775 995.428C971.335 999.546 966.789 1003.45 961.895 1007.03Z" fill="#C7C7C7"/>
<path d="M904.529 1055.34C899.742 1056.49 893.537 1057.05 892.922 1054.32C892.307 1051.59 894.366 1049.88 893.537 1048.57C891.338 1046.68 889.005 1044.96 886.557 1043.41C884.887 1041.96 883.593 1040.12 882.786 1038.06C882.786 1037.39 881.475 1036.35 882.492 1034.85C883.508 1033.35 883.963 1031.21 884.819 1030.09C885.081 1029.81 885.282 1029.48 885.407 1029.12C885.532 1028.76 885.578 1028.38 885.543 1028C885.507 1027.62 885.391 1027.25 885.201 1026.92C885.012 1026.59 884.754 1026.3 884.444 1026.08C882.893 1024.34 883.562 1018.94 885.46 1016.9C887.359 1014.87 893.751 1018.7 895.57 1018.05C897.389 1017.41 897.496 1016.48 898.993 1015.17C901.558 1012.68 904.794 1011.01 908.3 1010.35C912.473 1009.95 914.88 1013.45 917.554 1014.82C919.94 1015.79 922.424 1016.5 924.962 1016.93C927.114 1017.57 929.066 1018.75 930.632 1020.35C931.167 1021.21 932.799 1021.29 932.344 1023.91C931.889 1026.53 930.82 1027.31 931.007 1029.26C931.194 1031.21 931.194 1031.69 931.435 1034.05C931.675 1036.4 933.895 1040.39 932.478 1042.36C931.06 1044.34 930.124 1047.23 927.61 1047.47C925.096 1047.71 916.912 1047.07 916.912 1047.07C916.137 1048.08 915.456 1049.15 914.88 1050.28C914.384 1051.31 913.632 1052.2 912.696 1052.86C911.76 1053.52 910.67 1053.93 909.531 1054.05C907.806 1054.21 906.118 1054.64 904.529 1055.34Z" fill="white"/>
<path d="M886.234 1028.43C888.909 1025.76 891.583 1023.27 894.124 1020.7L896.157 1018.88L897.173 1017.95C897.772 1017.48 898.465 1017.14 899.206 1016.96C901.148 1016.52 903.127 1016.27 905.116 1016.21C908.944 1016.05 912.777 1016.26 916.563 1016.85C918.708 1017.12 920.789 1017.77 922.714 1018.75C924.052 1019.62 925.009 1020.97 925.389 1022.52C925.716 1023.66 925.86 1024.84 925.817 1026.02C925.574 1030.02 924.67 1033.95 923.142 1037.66C922.434 1039.49 921.612 1041.28 920.682 1043.01C920.209 1043.94 919.664 1044.83 919.05 1045.68C918.29 1046.77 917.218 1047.61 915.975 1048.09C912.138 1049.16 908.121 1049.41 904.18 1048.84C900.467 1048.45 896.785 1047.81 893.161 1046.91C896.879 1046.64 900.57 1046.59 904.18 1046.14C907.595 1045.99 910.968 1045.32 914.183 1044.16C914.878 1043.78 914.691 1043.78 915.226 1043.06C915.761 1042.34 916.001 1041.67 916.376 1040.89C917.074 1039.3 917.69 1037.68 918.221 1036.03C919.384 1032.85 920.052 1029.51 920.2 1026.13C920.264 1025.11 920.713 1024.16 921.457 1023.46C919.493 1022.83 917.48 1022.36 915.44 1022.07C911.975 1021.33 908.463 1020.84 904.929 1020.59C903.229 1020.46 901.521 1020.46 899.821 1020.59C899.5 1020.59 899.179 1020.75 899.286 1020.59L898.136 1021.34L895.756 1022.84C892.653 1024.55 889.524 1026.59 886.234 1028.43Z" fill="#C7C7C7"/>
<path d="M897.683 1021.26C897.871 1024.79 897.683 1028.19 898.004 1031.32C898.004 1032.74 898.459 1034.5 898.833 1034.61C898.833 1034.61 898.833 1034.61 899.154 1034.61C899.8 1034.58 900.443 1034.51 901.08 1034.39C904.049 1033.89 907.258 1033 910.521 1032.31C913.864 1031.51 917.261 1030.96 920.684 1030.65C915.298 1035.21 908.866 1038.38 901.963 1039.85C900.922 1039.95 899.874 1039.95 898.833 1039.85C898.1 1039.8 897.378 1039.64 896.694 1039.37C895.861 1038.99 895.162 1038.36 894.688 1037.58C893.642 1035.58 893.339 1033.28 893.832 1031.08C894.406 1027.57 895.719 1024.23 897.683 1021.26Z" fill="#C7C7C7"/>
<path d="M276.589 993.663C274.422 987.164 274.797 979.622 267.469 980.29C260.141 980.959 255.754 971.946 252.465 969.726C249.175 967.506 237.434 969.726 234.867 971.946C232.299 974.166 231.203 978.418 228.635 980.29C226.068 982.162 222.404 985.131 219.114 988.073C215.824 991.015 211.091 995.027 212.508 1002.35C213.926 1009.68 217.269 1012.2 219.488 1015.89C221.708 1019.58 218.017 1026.16 220.933 1034.61C223.848 1043.06 238.156 1046.32 241.82 1044.85C245.484 1043.38 255.193 1037.15 260.542 1037.15C265.891 1037.15 267.362 1041.56 272.149 1039C276.936 1036.43 283.863 1030.97 284.238 1028.72C284.612 1026.48 280.199 1024.61 281.563 1021.18C282.927 1017.76 288.891 1011.31 288.142 1007.01C287.393 1002.7 278.22 998.53 276.589 993.663Z" fill="white"/>
<path d="M263.002 979.515C253.952 982.412 245.114 985.933 236.552 990.052C235.601 990.545 234.705 991.137 233.877 991.817C233.529 991.817 233.315 993.475 233.101 994.492C232.7 996.792 232.433 999.145 232.165 1001.5C231.711 1006.18 231.336 1010.91 231.31 1015.59C231.254 1017.87 231.379 1020.15 231.684 1022.41C231.736 1023.04 231.899 1023.66 232.165 1024.23C233.005 1024.64 233.91 1024.91 234.84 1025.01C239.396 1025.7 244.011 1025.93 248.613 1025.7C250.922 1025.64 253.225 1025.45 255.514 1025.14C257.493 1024.82 260.167 1024.18 262.414 1023.78C267.067 1022.84 271.774 1021.93 276.241 1020.76C277.337 1020.46 278.487 1020.19 279.397 1019.85C279.585 1019.79 279.765 1019.71 279.932 1019.61C280.199 1019.61 279.932 1019.61 279.932 1019.61C279.847 1019.65 279.775 1019.72 279.719 1019.8C279.664 1019.87 279.627 1019.96 279.611 1020.06C279.327 1020.59 279.26 1021.22 279.423 1021.8C279.527 1022.09 279.681 1022.36 279.878 1022.6C279.878 1022.73 280.226 1022.87 280.172 1022.87L279.53 1022.63C277.498 1021.96 275.118 1021.42 272.844 1020.86L258.937 1017.73C254.257 1016.72 249.603 1015.67 244.923 1014.5C242.596 1013.91 240.242 1013.29 237.889 1012.46C236.457 1012.05 235.12 1011.36 233.957 1010.43C233.795 1010.28 233.652 1010.11 233.529 1009.92C233.368 1009.65 233.25 1009.35 233.182 1009.04C233.155 1008.75 233.155 1008.45 233.182 1008.16C233.205 1007.7 233.286 1007.25 233.422 1006.82C233.655 1006.15 233.941 1005.5 234.278 1004.87C236.821 1000.64 239.865 996.734 243.345 993.235C244.201 992.361 245.092 991.469 246.019 990.56C246.501 990.159 246.955 989.731 247.49 989.33L248.266 988.768C248.625 988.49 249.033 988.281 249.469 988.153C249.935 988.074 250.413 988.09 250.872 988.201C251.332 988.311 251.764 988.513 252.144 988.795C252.701 989.173 253.229 989.593 253.722 990.052C254.616 990.898 255.464 991.79 256.262 992.726C262.066 1000.34 267.27 1008.38 271.828 1016.8C266.532 1008.9 260.734 1001.35 254.471 994.197C253.697 993.357 252.876 992.562 252.01 991.817C251.47 991.298 250.834 990.889 250.138 990.614L249.79 990.854L249.175 991.363C248.746 991.725 248.335 992.108 247.945 992.513C247.116 993.315 246.34 994.171 245.565 995.027C242.449 998.436 239.755 1002.21 237.541 1006.26C237.331 1006.69 237.161 1007.14 237.033 1007.6C237.033 1007.76 237.033 1008.08 237.033 1008.02C236.994 1007.86 236.931 1007.69 236.846 1007.54C236.815 1007.48 236.769 1007.42 236.712 1007.38C237.521 1007.78 238.362 1008.1 239.226 1008.35C241.392 1009.01 243.692 1009.6 245.966 1010.16C250.566 1011.23 255.219 1012.2 259.9 1013.16L277.792 1016.58C280.146 1017.12 278.594 1017.06 281.108 1017.84L282.151 1018.21C282.402 1018.33 282.644 1018.46 282.874 1018.62C283.112 1018.75 283.329 1018.92 283.515 1019.12C283.771 1019.41 283.971 1019.75 284.104 1020.11C284.291 1020.76 284.224 1021.46 283.917 1022.07C283.644 1022.47 283.31 1022.83 282.927 1023.14C282.712 1023.29 282.488 1023.43 282.258 1023.56L281.162 1024.04C279.954 1024.5 278.722 1024.88 277.471 1025.19C272.71 1026.34 268.003 1027.17 263.296 1028.06C260.836 1028.46 258.883 1028.94 256.155 1029.37C253.705 1029.66 251.241 1029.82 248.774 1029.85C243.841 1030.01 238.905 1029.68 234.038 1028.86C232.573 1028.63 231.167 1028.12 229.892 1027.36C229.079 1026.73 228.496 1025.84 228.234 1024.85C228.002 1024.16 227.858 1023.45 227.806 1022.73C227.606 1020.24 227.606 1017.74 227.806 1015.25C228.073 1010.4 228.635 1005.62 229.357 1000.86C229.732 998.477 230.106 996.123 230.641 993.716C231.096 992.512 230.801 991.416 232.246 989.785C233.279 988.947 234.422 988.254 235.642 987.725C240.083 985.86 244.629 984.252 249.255 982.911C253.722 981.788 258.215 980.504 263.002 979.515Z" fill="#C7C7C7"/>
</svg>
