<svg width="37" height="35" viewBox="0 0 37 35" fill="none" xmlns="http://www.w3.org/2000/svg">
<path d="M12.9122 0.267931C12.483 0.252424 12.0604 0.372944 11.7103 0.610731C11.3602 0.848517 11.1021 1.19023 10.9764 1.58267L0.813528 32.3323C0.705458 32.6588 0.693273 33.0073 0.778302 33.34C0.86333 33.6726 1.04231 33.9765 1.29572 34.2187C1.54914 34.4608 1.86726 34.6318 2.21541 34.713C2.56356 34.7943 2.92837 34.7826 3.27007 34.6794L35.4537 24.9694C35.8645 24.8501 36.2222 24.604 36.4709 24.2696C36.7195 23.9352 36.8451 23.5315 36.8278 23.1216C36.0879 10.8251 25.7802 0.976732 12.9122 0.267931ZM13.382 26.4113C12.8678 26.4112 12.3586 26.3143 11.8836 26.1261C11.4086 25.938 10.977 25.6623 10.6134 25.3148C10.2499 24.9673 9.96158 24.5548 9.76491 24.1008C9.56824 23.6469 9.46709 23.1603 9.46721 22.669C9.46734 22.1777 9.56876 21.6912 9.76566 21.2374C9.96257 20.7835 10.2511 20.3711 10.6148 20.0238C10.9785 19.6765 11.4103 19.401 11.8854 19.2131C12.3605 19.0252 12.8698 18.9285 13.384 18.9287C14.4225 18.9289 15.4184 19.3233 16.1526 20.0251C16.8867 20.7269 17.2991 21.6786 17.2988 22.6709C17.2985 23.6632 16.8857 24.6147 16.1512 25.3161C15.4167 26.0176 14.4206 26.4115 13.382 26.4113ZM25.1265 22.6709C24.6122 22.6708 24.1031 22.5739 23.628 22.3858C23.153 22.1976 22.7214 21.9219 22.3579 21.5744C21.9943 21.2269 21.706 20.8144 21.5093 20.3605C21.3127 19.9065 21.2115 19.42 21.2116 18.9287C21.2118 18.4373 21.3132 17.9509 21.5101 17.497C21.707 17.0431 21.9955 16.6308 22.3592 16.2834C22.7229 15.9361 23.1547 15.6606 23.6298 15.4727C24.105 15.2848 24.6142 15.1882 25.1284 15.1883C26.1669 15.1885 27.1628 15.5829 27.897 16.2847C28.6312 16.9866 29.0435 17.9383 29.0432 18.9305C29.043 19.9228 28.6302 20.8743 27.8956 21.5758C27.1611 22.2772 26.165 22.6712 25.1265 22.6709Z" fill="#ff0000"/>
</svg>
