<svg width="48" height="50" viewBox="0 0 48 50" fill="none" xmlns="http://www.w3.org/2000/svg">
<path d="M0.687744 3.33333C0.687744 2.6141 0.936596 1.92432 1.37955 1.41575C1.82251 0.907174 2.42329 0.62146 3.04973 0.62146H45.5655C46.1919 0.62146 46.7927 0.907174 47.2357 1.41575C47.6786 1.92432 47.9275 2.6141 47.9275 3.33333V13.4801C47.9275 16.1137 45.4818 18.2484 43.752 20.2343V20.2343C42.6447 21.5058 42.0225 23.2302 42.0225 25.0283C42.0225 26.8264 42.6447 28.5508 43.752 29.8222V29.8222C45.4818 31.8082 47.9275 33.9429 47.9275 36.5765V46.7232C47.9275 47.4424 47.6786 48.1322 47.2357 48.6408C46.7927 49.1494 46.1919 49.4351 45.5655 49.4351H3.04973C2.42329 49.4351 1.82251 49.1494 1.37955 48.6408C0.936596 48.1322 0.687744 47.4424 0.687744 46.7232V3.33333ZM12.6692 44.0113C14.0902 44.0113 15.2523 42.9383 16.3548 42.0417V42.0417C16.9535 41.5549 17.669 41.2934 18.4026 41.2934C19.1363 41.2934 19.8518 41.5549 20.4505 42.0417V42.0417C21.553 42.9383 22.7151 44.0113 24.1361 44.0113H38.1143C40.925 44.0113 43.2035 41.7328 43.2035 38.9221V38.9221C43.2035 37.0925 42.1519 35.463 40.87 34.1575C40.1041 33.3775 39.4367 32.4707 38.8917 31.4623C37.8476 29.5303 37.2944 27.3019 37.2944 25.0283C37.2944 22.7546 37.8476 20.5262 38.8917 18.5943C39.4367 17.5858 40.1041 16.6791 40.87 15.899C42.1519 14.5935 43.2035 12.964 43.2035 11.1344V11.1344C43.2035 8.32372 40.925 6.0452 38.1143 6.0452H24.1361C22.7151 6.0452 21.553 7.11825 20.4505 8.0148V8.0148C19.8518 8.50164 19.1363 8.76311 18.4026 8.76311C17.669 8.76311 16.9535 8.50164 16.3548 8.0148V8.0148C15.2523 7.11825 14.0902 6.0452 12.6692 6.0452H10.9586C7.89514 6.0452 5.41172 8.52861 5.41172 11.5921V38.4645C5.41172 41.5279 7.89513 44.0113 10.9586 44.0113H12.6692ZM18.4026 22.3164C17.463 22.3164 16.5618 21.8878 15.8974 21.125C15.2329 20.3621 14.8597 19.3275 14.8597 18.2486C14.8597 17.1698 15.2329 16.1351 15.8974 15.3722C16.5618 14.6094 17.463 14.1808 18.4026 14.1808C19.3423 14.1808 20.2435 14.6094 20.9079 15.3722C21.5724 16.1351 21.9456 17.1698 21.9456 18.2486C21.9456 19.3275 21.5724 20.3621 20.9079 21.125C20.2435 21.8878 19.3423 22.3164 18.4026 22.3164ZM18.4026 35.8757C17.463 35.8757 16.5618 35.4472 15.8974 34.6843C15.2329 33.9215 14.8597 32.8868 14.8597 31.8079C14.8597 30.7291 15.2329 29.6944 15.8974 28.9316C16.5618 28.1687 17.463 27.7401 18.4026 27.7401C19.3423 27.7401 20.2435 28.1687 20.9079 28.9316C21.5724 29.6944 21.9456 30.7291 21.9456 31.8079C21.9456 32.8868 21.5724 33.9215 20.9079 34.6843C20.2435 35.4472 19.3423 35.8757 18.4026 35.8757Z" fill="white"/>
</svg>
