<svg width="37" height="33" viewBox="0 0 37 33" fill="none" xmlns="http://www.w3.org/2000/svg">
<path d="M36.3316 4.63119L31.9013 2.00827C28.2721 -0.140396 22.9945 1.30924 18.7769 1.30924C14.5593 1.30924 9.28172 -0.140398 5.65249 2.00827L1.22222 4.63119C0.776579 4.90072 0.596068 5.5476 0.816065 6.07992L4.0427 13.7952C4.26834 14.3275 4.80987 14.5432 5.25551 14.2804L8.4483 12.4139C9.04624 12.0635 9.74572 12.5823 9.74572 13.3842V30.4724C9.74572 31.665 10.5524 32.6286 11.5508 32.6286H25.9917C26.9902 32.6286 27.7968 31.665 27.7968 30.4724V13.3774C27.7968 12.5823 28.4963 12.0567 29.0942 12.4071L32.287 14.2736C32.7327 14.5432 33.2742 14.3275 33.4998 13.7885L36.7321 6.07992C36.9578 5.5476 36.7772 4.89399 36.3316 4.63119Z" fill="#4285F4"/>
</svg>
