<svg width="230" height="178" viewBox="0 0 230 178" fill="none" xmlns="http://www.w3.org/2000/svg">
<path d="M25.7636 163.447C22.9156 163.447 20.3556 162.615 18.0836 160.951C15.8116 159.287 14.2436 156.951 13.3796 153.943L18.4676 151.879C18.9796 153.767 19.8756 155.319 21.1556 156.535C22.4676 157.719 24.0356 158.311 25.8596 158.311C27.5556 158.311 28.9956 157.879 30.1796 157.015C31.3636 156.119 31.9556 154.903 31.9556 153.367C31.9556 151.959 31.4276 150.807 30.3716 149.911C29.3476 148.983 27.5396 148.055 24.9476 147.127L22.7876 146.359C20.4836 145.559 18.5476 144.407 16.9796 142.903C15.4116 141.399 14.6276 139.415 14.6276 136.951C14.6276 135.255 15.0916 133.687 16.0196 132.247C16.9476 130.807 18.2276 129.671 19.8596 128.839C21.5236 127.975 23.3956 127.543 25.4756 127.543C28.4836 127.543 30.8836 128.279 32.6756 129.751C34.4676 131.191 35.6676 132.823 36.2756 134.647L31.4276 136.711C31.0756 135.623 30.4036 134.663 29.4116 133.831C28.4196 132.999 27.1396 132.583 25.5716 132.583C24.0036 132.583 22.6756 132.983 21.5876 133.783C20.5316 134.583 20.0036 135.607 20.0036 136.855C20.0036 138.039 20.4836 139.015 21.4436 139.783C22.4036 140.551 23.9076 141.287 25.9556 141.991L28.1156 142.711C31.0596 143.735 33.3316 145.079 34.9316 146.743C36.5636 148.375 37.3796 150.567 37.3796 153.319C37.3796 155.559 36.8036 157.447 35.6516 158.983C34.4996 160.487 33.0276 161.607 31.2356 162.343C29.4756 163.079 27.6516 163.447 25.7636 163.447ZM42.4747 138.199H47.5147V141.415H47.7547C48.4587 140.295 49.4987 139.351 50.8747 138.583C52.2507 137.815 53.8027 137.431 55.5307 137.431C57.7387 137.431 59.7387 137.991 61.5307 139.111C63.3227 140.231 64.7307 141.783 65.7547 143.767C66.8107 145.719 67.3387 147.943 67.3387 150.439C67.3387 152.935 66.8107 155.175 65.7547 157.159C64.7307 159.111 63.3227 160.647 61.5307 161.767C59.7387 162.887 57.7387 163.447 55.5307 163.447C53.8027 163.447 52.2507 163.063 50.8747 162.295C49.4987 161.527 48.4587 160.599 47.7547 159.511H47.5147L47.7547 162.919V173.047H42.4747V138.199ZM54.7627 158.599C56.0427 158.599 57.2427 158.263 58.3627 157.591C59.4827 156.919 60.3787 155.959 61.0507 154.711C61.7227 153.463 62.0587 152.039 62.0587 150.439C62.0587 148.839 61.7227 147.431 61.0507 146.215C60.3787 144.967 59.4827 144.007 58.3627 143.335C57.2427 142.663 56.0427 142.327 54.7627 142.327C53.4827 142.327 52.2827 142.663 51.1627 143.335C50.0747 144.007 49.1947 144.967 48.5227 146.215C47.8507 147.431 47.5147 148.839 47.5147 150.439C47.5147 152.039 47.8507 153.463 48.5227 154.711C49.1947 155.959 50.0747 156.919 51.1627 157.591C52.2827 158.263 53.4827 158.599 54.7627 158.599ZM83.3351 163.447C80.9351 163.447 78.7751 162.887 76.8551 161.767C74.9671 160.647 73.4791 159.111 72.3911 157.159C71.3351 155.175 70.8071 152.951 70.8071 150.487C70.8071 148.151 71.3191 145.991 72.3431 144.007C73.3991 141.991 74.8551 140.391 76.7111 139.207C78.5671 138.023 80.6791 137.431 83.0471 137.431C85.5111 137.431 87.6391 137.975 89.4311 139.063C91.2551 140.151 92.6311 141.639 93.5591 143.527C94.5191 145.415 94.9991 147.543 94.9991 149.911C94.9991 150.359 94.9511 150.919 94.8551 151.591H76.0871C76.2791 153.863 77.0791 155.623 78.4871 156.871C79.9271 158.087 81.5911 158.695 83.4791 158.695C84.9831 158.695 86.2791 158.359 87.3671 157.687C88.4871 156.983 89.3831 156.039 90.0551 154.855L94.5191 156.967C93.3671 158.983 91.8631 160.567 90.0071 161.719C88.1511 162.871 85.9271 163.447 83.3351 163.447ZM89.6231 147.559C89.5591 146.695 89.2871 145.847 88.8071 145.015C88.3271 144.151 87.5911 143.431 86.5991 142.855C85.6391 142.279 84.4551 141.991 83.0471 141.991C81.3511 141.991 79.9111 142.503 78.7271 143.527C77.5751 144.519 76.7751 145.863 76.3271 147.559H89.6231ZM107.722 163.447C105.962 163.447 104.394 163.111 103.018 162.439C101.642 161.735 100.57 160.759 99.8017 159.511C99.0337 158.231 98.6497 156.791 98.6497 155.191C98.6497 152.663 99.5937 150.663 101.482 149.191C103.402 147.719 105.818 146.983 108.73 146.983C110.17 146.983 111.466 147.127 112.618 147.415C113.77 147.671 114.682 147.959 115.354 148.279V147.031C115.354 145.527 114.794 144.311 113.674 143.383C112.554 142.423 111.114 141.943 109.354 141.943C108.106 141.943 106.922 142.215 105.802 142.759C104.714 143.303 103.834 144.055 103.162 145.015L99.4657 142.183C100.554 140.679 101.962 139.511 103.69 138.679C105.418 137.847 107.338 137.431 109.45 137.431C113.002 137.431 115.738 138.311 117.658 140.071C119.578 141.799 120.538 144.247 120.538 147.415V162.679H115.354V159.751H115.114C114.41 160.807 113.418 161.687 112.138 162.391C110.858 163.095 109.386 163.447 107.722 163.447ZM108.634 159.079C109.914 159.079 111.066 158.775 112.09 158.167C113.114 157.559 113.914 156.743 114.49 155.719C115.066 154.695 115.354 153.591 115.354 152.407C114.618 151.991 113.754 151.655 112.762 151.399C111.802 151.143 110.794 151.015 109.738 151.015C107.754 151.015 106.298 151.415 105.37 152.215C104.442 152.983 103.978 153.991 103.978 155.239C103.978 156.359 104.41 157.287 105.274 158.023C106.138 158.727 107.258 159.079 108.634 159.079ZM126.292 128.311H131.572V148.327H131.716L141.748 138.199H148.372V138.487L138.868 147.943L148.66 162.391V162.679H142.372L135.172 151.591L131.572 155.095V162.679H126.292V128.311ZM162.413 163.447C160.013 163.447 157.853 162.887 155.933 161.767C154.045 160.647 152.557 159.111 151.469 157.159C150.413 155.175 149.885 152.951 149.885 150.487C149.885 148.151 150.397 145.991 151.421 144.007C152.477 141.991 153.933 140.391 155.789 139.207C157.645 138.023 159.757 137.431 162.125 137.431C164.589 137.431 166.717 137.975 168.509 139.063C170.333 140.151 171.709 141.639 172.637 143.527C173.597 145.415 174.077 147.543 174.077 149.911C174.077 150.359 174.029 150.919 173.933 151.591H155.165C155.357 153.863 156.157 155.623 157.565 156.871C159.005 158.087 160.669 158.695 162.557 158.695C164.061 158.695 165.357 158.359 166.445 157.687C167.565 156.983 168.461 156.039 169.133 154.855L173.597 156.967C172.445 158.983 170.941 160.567 169.085 161.719C167.229 162.871 165.005 163.447 162.413 163.447ZM168.701 147.559C168.637 146.695 168.365 145.847 167.885 145.015C167.405 144.151 166.669 143.431 165.677 142.855C164.717 142.279 163.533 141.991 162.125 141.991C160.429 141.991 158.989 142.503 157.805 143.527C156.653 144.519 155.853 145.863 155.405 147.559H168.701ZM178.885 138.199H183.925V141.799H184.165C184.709 140.551 185.653 139.527 186.997 138.727C188.341 137.895 189.765 137.479 191.269 137.479C192.453 137.479 193.445 137.639 194.245 137.959V143.431C192.837 142.919 191.573 142.663 190.453 142.663C189.237 142.663 188.149 142.983 187.189 143.623C186.261 144.263 185.525 145.127 184.981 146.215C184.437 147.271 184.165 148.439 184.165 149.719V162.679H178.885V138.199ZM206.282 163.447C203.466 163.447 201.162 162.839 199.37 161.623C197.578 160.375 196.314 158.791 195.578 156.871L200.282 154.807C200.858 156.087 201.658 157.063 202.682 157.735C203.738 158.407 204.938 158.743 206.282 158.743C207.594 158.743 208.698 158.519 209.594 158.071C210.49 157.591 210.938 156.887 210.938 155.959C210.938 155.063 210.554 154.359 209.786 153.847C209.018 153.335 207.834 152.887 206.234 152.503L203.306 151.783C201.354 151.303 199.738 150.455 198.458 149.239C197.178 148.023 196.538 146.487 196.538 144.631C196.538 143.191 196.954 141.927 197.786 140.839C198.65 139.751 199.802 138.919 201.242 138.343C202.682 137.735 204.25 137.431 205.946 137.431C208.218 137.431 210.218 137.895 211.946 138.823C213.674 139.719 214.922 141.031 215.69 142.759L211.082 144.775C210.154 142.887 208.458 141.943 205.994 141.943C204.81 141.943 203.818 142.183 203.018 142.663C202.218 143.143 201.818 143.767 201.818 144.535C201.818 145.271 202.122 145.879 202.73 146.359C203.338 146.807 204.234 147.191 205.418 147.511L209.018 148.423C211.418 149.031 213.226 149.959 214.442 151.207C215.69 152.423 216.314 153.927 216.314 155.719C216.314 157.255 215.866 158.615 214.97 159.799C214.106 160.951 212.906 161.847 211.37 162.487C209.834 163.127 208.138 163.447 206.282 163.447Z" fill="white"/>
<mask id="mask0_1095_1904" style="mask-type:alpha" maskUnits="userSpaceOnUse" x="0" y="0" width="230" height="107">
<path d="M25.4556 24.6989L8.79167 36.7505L0.459717 24.1038L30.3655 2.52998H41.8219V104.299H25.4556V24.6989Z" fill="white"/>
<path d="M104.179 106.679C95.8471 106.679 88.5071 104.348 82.1589 99.6865C75.8107 94.9254 70.9008 88.5277 67.4292 80.4933C64.0567 72.3597 62.3705 63.3334 62.3705 53.4144C62.3705 43.3962 64.0567 34.3699 67.4292 26.3356C70.9008 18.202 75.8107 11.8042 82.1589 7.1423C88.5071 2.48038 95.8471 0.149414 104.179 0.149414C112.511 0.149414 119.801 2.48038 126.05 7.1423C132.399 11.8042 137.259 18.202 140.631 26.3356C144.103 34.3699 145.839 43.3962 145.839 53.4144C145.839 63.3334 144.103 72.3597 140.631 80.4933C137.259 88.5277 132.399 94.9254 126.05 99.6865C119.702 104.348 112.412 106.679 104.179 106.679ZM104.179 91.2058C109.238 91.2058 113.652 89.5691 117.421 86.2959C121.289 82.9234 124.215 78.4103 126.199 72.7565C128.282 67.0034 129.324 60.5561 129.324 53.4144C129.324 46.2727 128.282 39.8254 126.199 34.0724C124.215 28.3194 121.289 23.8062 117.421 20.5329C113.652 17.2597 109.238 15.623 104.179 15.623C99.0212 15.623 94.5576 17.2597 90.7884 20.5329C87.0192 23.8062 84.0931 28.3194 82.0101 34.0724C80.0263 39.8254 79.0344 46.2727 79.0344 53.4144C79.0344 60.5561 80.0263 67.0034 82.0101 72.7565C84.0931 78.4103 87.0192 82.9234 90.7884 86.2959C94.5576 89.5691 99.0212 91.2058 104.179 91.2058Z" fill="white"/>
<path d="M229.323 70.971H203.137V97.1572H189.003V70.971H162.817V56.9853H189.003V30.7991H203.137V56.9853H229.323V70.971Z" fill="white"/>
</mask>
<g mask="url(#mask0_1095_1904)">
<path d="M-598.746 -4.69287L-614.669 29.4617C-616.201 32.7471 -617.24 36.24 -617.754 39.8282L-620.165 56.6566C-632.285 141.258 -572.185 219.176 -487.279 228.938L-386.654 240.508C-342.546 245.579 -299.553 224.364 -276.744 186.271C-269.681 174.476 -264.78 161.508 -262.628 147.929C-257.959 118.474 -252.983 80.1964 -256.134 72.6339C-261.098 60.7215 -288.893 -22.1687 -290.878 -23.6578C-292.864 -25.1468 -317.681 21.51 -320.659 21.51C-322.481 21.51 -338.643 -4.693 -354.152 -29.1994C-361.79 -41.269 -379.572 -39.1605 -384.441 -25.7323L-387.769 -16.5523C-392.603 -3.21996 -411.741 -4.08082 -415.359 -17.7933C-418.73 -30.5739 -436.063 -32.5124 -442.175 -20.7924L-450.21 -5.38364C-457.731 9.03918 -478.025 9.96331 -486.825 -3.71623L-492.461 -12.4759C-501.458 -26.4611 -522.232 -25.4248 -529.793 -10.6136L-532.501 -5.30822C-539.372 8.14984 -558.6 8.15585 -565.478 -5.29792C-572.496 -19.0232 -592.232 -18.6643 -598.746 -4.69287Z" fill="#4285F4"/>
<path d="M-594.929 8.73397L-618.412 46.8935C-619.715 49.0113 -620.749 51.2832 -621.491 53.6567L-625.286 65.8009C-647.751 137.69 -605.486 213.855 -532.306 231.673C-459.568 249.383 -391.391 264.848 -384.727 262.627C-374.539 259.231 -321.968 161.969 -290.799 101.993C-285.827 92.4253 -284.997 81.2815 -288.407 71.0525L-304.183 23.7236C-307.095 14.9893 -318.422 12.7706 -324.413 19.7609C-330.51 26.8734 -342.06 24.4287 -344.752 15.456L-345.965 11.4112C-348.948 1.46632 -361.27 -1.98694 -368.987 4.95878L-384.222 18.6702C-391.718 25.4168 -403.488 23.7618 -408.833 15.2097L-409.919 13.4725C-415.527 4.49949 -428.452 4.10093 -434.602 12.7114L-439.556 19.6469C-442.298 23.4855 -447.831 23.9434 -451.166 20.6078C-454.851 16.9233 -461.062 17.9312 -463.392 22.5918L-463.904 23.6149C-467.198 30.202 -476.752 29.7255 -479.374 22.8433L-492.633 -11.9611C-497.445 -24.5934 -515.808 -22.9755 -518.337 -9.69641L-521.391 6.33378C-523.156 15.6015 -536.089 16.4662 -539.072 7.51602C-541.704 -0.378962 -552.651 -0.953549 -556.095 6.62255L-558.681 12.3137C-562.449 20.602 -574.478 19.7878 -577.095 11.0674C-579.54 2.91709 -590.469 1.48708 -594.929 8.73397Z" fill="#0F9D56"/>
<path d="M-594.721 26.955L-615.863 38.231C-631.021 46.315 -641.821 60.6952 -645.36 77.5051L-646.064 80.8527C-652.987 113.733 -633.865 146.509 -601.835 156.665L-519.472 182.78C-486.907 193.106 -451.645 190.761 -420.734 176.214L-351.233 143.508C-328.695 132.902 -317.652 107.115 -325.529 83.4841L-326.431 80.7785C-333.838 58.5559 -356.77 45.4569 -379.675 50.365L-390.388 52.6607C-398.956 54.4967 -407.871 51.8641 -414.067 45.6681C-421.929 37.8058 -433.94 35.8567 -443.885 40.8292L-460.722 49.2474C-468.139 52.9559 -477.138 50.9792 -482.318 44.504C-487.817 37.6306 -497.551 35.8813 -505.098 40.41L-514.279 45.9183C-527.711 53.9777 -545.089 50.2769 -554.072 37.444L-554.707 36.5377C-563.703 23.6856 -580.878 19.5724 -594.721 26.955Z" fill="#F4B400"/>
<path d="M-608.183 56.3556L-618.297 66.4701C-620.281 68.4543 -621.92 70.756 -623.146 73.2801L-629.804 86.9865C-664.293 157.993 -619.188 241.94 -540.941 252.373L-511.137 256.347C-428.24 267.4 -355.061 201.813 -357.006 118.205L-357.742 86.5531C-357.861 81.4289 -359.434 76.4441 -362.277 72.1794L-362.553 71.7659C-370.335 60.093 -385.896 56.4423 -398.24 63.1086C-405.193 66.864 -412.361 70.6735 -418.584 73.9581C-428.409 79.144 -437.898 80.6325 -442.643 70.5866C-447.045 61.2653 -463.287 54.2417 -469.005 62.819L-472.907 68.6723C-478.127 76.5012 -488.982 78.0756 -496.211 72.052L-501.095 67.9817C-506.205 63.7238 -513.815 64.4924 -517.97 69.6861C-523.206 76.2318 -533.393 75.4376 -537.552 68.1595L-538.664 66.2144C-543.046 58.5446 -553.522 57.1417 -559.769 63.3881L-560.826 64.445C-567.843 71.462 -579.672 69.5423 -584.11 60.6664L-584.33 60.2263C-588.876 51.1338 -600.994 49.1673 -608.183 56.3556Z" fill="#DB4437"/>
<path d="M-634.489 75.1438L-657.971 113.303C-659.275 115.421 -660.309 117.693 -661.051 120.067L-664.846 132.211C-687.311 204.1 -645.045 280.265 -571.866 298.082C-499.127 315.793 -430.951 331.258 -424.287 329.037C-414.099 325.641 -361.528 228.379 -330.358 168.403C-325.386 158.835 -324.557 147.691 -327.967 137.462L-343.743 90.1335C-346.655 81.3992 -357.981 79.1804 -363.973 86.1707C-370.069 93.2832 -381.619 90.8385 -384.311 81.8658L-385.525 77.8211C-388.508 67.8762 -400.829 64.4229 -408.547 71.3686L-423.782 85.0801C-431.278 91.8266 -443.048 90.1717 -448.393 81.6195L-449.479 79.8824C-455.087 70.9093 -468.012 70.5108 -474.162 79.1213L-479.116 86.0567C-481.858 89.8954 -487.39 90.3533 -490.726 87.0176C-494.41 83.3331 -500.622 84.3411 -502.952 89.0016L-503.464 90.0247C-506.757 96.6119 -516.312 96.1353 -518.933 89.2531L-532.192 54.4487C-537.005 41.8164 -555.368 43.4343 -557.897 56.7134L-560.95 72.7436C-562.716 82.0113 -575.648 82.876 -578.632 73.9259C-581.263 66.0309 -592.211 65.4563 -595.654 73.0324L-598.241 78.7236C-602.009 87.0119 -614.038 86.1976 -616.654 77.4772C-619.099 69.3269 -630.029 67.8969 -634.489 75.1438Z" fill="#4285F4"/>
<path d="M-605.637 80.091L-626.78 91.367C-641.937 99.451 -652.737 113.831 -656.276 130.641L-656.981 133.989C-663.903 166.869 -644.782 199.645 -612.752 209.801L-530.389 235.916C-497.824 246.242 -462.562 243.897 -431.651 229.35L-362.149 196.644C-339.611 186.038 -328.568 160.251 -336.445 136.62L-337.347 133.915C-344.755 111.692 -367.687 98.5929 -390.592 103.501L-401.305 105.797C-409.873 107.633 -418.787 105 -424.983 98.8041C-432.846 90.9418 -444.857 88.9927 -454.802 93.9652L-471.638 102.383C-479.055 106.092 -488.055 104.115 -493.235 97.64C-498.734 90.7666 -508.467 89.0173 -516.015 93.546L-525.196 99.0543C-538.628 107.114 -556.006 103.413 -564.989 90.58L-565.623 89.6737C-574.62 76.8216 -591.795 72.7084 -605.637 80.091Z" fill="#0F9D56"/>
<path d="M-561.895 99.6646L-572.009 109.779C-573.993 111.763 -575.632 114.065 -576.858 116.589L-583.516 130.296C-618.005 201.302 -572.9 285.249 -494.653 295.682L-464.849 299.656C-381.952 310.709 -308.774 245.122 -310.718 161.514L-311.454 129.862C-311.573 124.738 -313.146 119.753 -315.989 115.488L-316.265 115.075C-324.047 103.402 -339.608 99.7513 -351.952 106.418C-358.905 110.173 -366.073 113.983 -372.296 117.267C-382.121 122.453 -391.61 123.942 -396.355 113.896C-400.757 104.574 -416.999 97.5508 -422.717 106.128L-426.62 111.981C-431.839 119.81 -442.695 121.385 -449.923 115.361L-454.807 111.291C-459.917 107.033 -467.527 107.801 -471.682 112.995C-476.918 119.541 -487.105 118.747 -491.264 111.469L-492.376 109.523C-496.758 101.854 -507.234 100.451 -513.481 106.697L-514.538 107.754C-521.555 114.771 -533.384 112.851 -537.822 103.975L-538.042 103.535C-542.588 94.4429 -554.706 92.4764 -561.895 99.6646Z" fill="#F4B400"/>
<path d="M-598.746 123.153L-614.669 157.308C-616.201 160.593 -617.24 164.086 -617.754 167.674L-620.165 184.503C-632.285 269.104 -572.185 347.022 -487.279 356.785L-386.654 368.354C-342.546 373.426 -299.553 352.21 -276.744 314.118C-269.681 302.322 -264.78 289.354 -262.628 275.775C-257.959 246.32 -252.983 208.043 -256.134 200.48C-261.098 188.568 -288.893 105.678 -290.878 104.188C-292.864 102.699 -317.681 149.356 -320.659 149.356C-322.481 149.356 -338.643 123.153 -354.152 98.6469C-361.79 86.5773 -379.572 88.6858 -384.441 102.114L-387.769 111.294C-392.603 124.626 -411.741 123.765 -415.359 110.053C-418.73 97.2724 -436.063 95.3339 -442.175 107.054L-450.21 122.463C-457.731 136.885 -478.025 137.81 -486.825 124.13L-492.461 115.37C-501.458 101.385 -522.232 102.421 -529.793 117.233L-532.501 122.538C-539.372 135.996 -558.6 136.002 -565.478 122.548C-572.496 108.823 -592.232 109.182 -598.746 123.153Z" fill="#DB4437"/>
<path d="M-341.326 -4.69287L-357.249 29.4617C-358.781 32.7471 -359.82 36.24 -360.334 39.8282L-362.745 56.6566C-374.865 141.258 -314.765 219.176 -229.859 228.938L-129.234 240.508C-85.126 245.579 -42.1326 224.364 -19.3243 186.271C-12.2613 174.476 -7.36032 161.508 -5.20778 147.929C-0.538694 118.474 4.43702 80.1964 1.28596 72.6339C-3.67752 60.7215 -31.473 -22.1687 -33.4584 -23.6578C-35.4438 -25.1468 -60.2613 21.51 -63.2394 21.51C-65.061 21.51 -81.2226 -4.693 -96.7316 -29.1994C-104.37 -41.269 -122.152 -39.1605 -127.021 -25.7323L-130.349 -16.5523C-135.183 -3.21996 -154.321 -4.08082 -157.939 -17.7933C-161.31 -30.5739 -178.643 -32.5124 -184.755 -20.7924L-192.79 -5.38364C-200.311 9.03918 -220.605 9.96331 -229.405 -3.71623L-235.041 -12.4759C-244.038 -26.4611 -264.812 -25.4248 -272.373 -10.6136L-275.081 -5.30822C-281.952 8.14984 -301.18 8.15585 -308.058 -5.29792C-315.076 -19.0232 -334.812 -18.6643 -341.326 -4.69287Z" fill="#4285F4"/>
<path d="M-337.509 8.73397L-360.992 46.8935C-362.295 49.0113 -363.329 51.2832 -364.071 53.6567L-367.866 65.8009C-390.331 137.69 -348.066 213.855 -274.886 231.673C-202.148 249.383 -133.971 264.848 -127.307 262.627C-117.119 259.231 -64.5483 161.969 -33.3786 101.993C-28.4065 92.4253 -27.5775 81.2815 -30.9872 71.0525L-46.7635 23.7236C-49.6749 14.9893 -61.0017 12.7706 -66.9933 19.7609C-73.0898 26.8734 -84.6398 24.4287 -87.3315 15.456L-88.545 11.4112C-91.5285 1.46632 -103.85 -1.98694 -111.567 4.95878L-126.802 18.6702C-134.298 25.4168 -146.068 23.7618 -151.413 15.2097L-152.499 13.4725C-158.107 4.49949 -171.032 4.10093 -177.182 12.7114L-182.136 19.6469C-184.878 23.4855 -190.411 23.9434 -193.746 20.6078C-197.431 16.9233 -203.642 17.9312 -205.972 22.5918L-206.484 23.6149C-209.778 30.202 -219.332 29.7255 -221.954 22.8433L-235.213 -11.9611C-240.025 -24.5934 -258.388 -22.9755 -260.917 -9.69641L-263.971 6.33378C-265.736 15.6015 -278.669 16.4662 -281.652 7.51602C-284.284 -0.378962 -295.231 -0.953549 -298.675 6.62255L-301.261 12.3137C-305.029 20.602 -317.058 19.7878 -319.675 11.0674C-322.12 2.91709 -333.049 1.48708 -337.509 8.73397Z" fill="#0F9D56"/>
<path d="M-337.3 26.955L-358.443 38.231C-373.601 46.315 -384.401 60.6952 -387.94 77.5051L-388.644 80.8527C-395.567 113.733 -376.445 146.509 -344.415 156.665L-262.052 182.78C-229.487 193.106 -194.225 190.761 -163.314 176.214L-93.8125 143.508C-71.2747 132.902 -60.2318 107.115 -68.1087 83.4841L-69.0105 80.7785C-76.418 58.5559 -99.3504 45.4569 -122.255 50.365L-132.968 52.6607C-141.536 54.4967 -150.451 51.8641 -156.647 45.6681C-164.509 37.8058 -176.52 35.8567 -186.465 40.8292L-203.302 49.2474C-210.719 52.9559 -219.718 50.9792 -224.898 44.504C-230.397 37.6306 -240.131 35.8813 -247.678 40.41L-256.859 45.9183C-270.291 53.9777 -287.669 50.2769 -296.652 37.444L-297.286 36.5377C-306.283 23.6856 -323.458 19.5724 -337.3 26.955Z" fill="#F4B400"/>
<path d="M-350.763 56.3556L-360.877 66.4701C-362.861 68.4543 -364.5 70.756 -365.726 73.2801L-372.384 86.9865C-406.873 157.993 -361.768 241.94 -283.521 252.373L-253.717 256.347C-170.82 267.4 -97.6414 201.813 -99.5858 118.205L-100.322 86.5531C-100.441 81.4289 -102.014 76.4441 -104.857 72.1794L-105.133 71.7659C-112.915 60.093 -128.475 56.4423 -140.819 63.1086C-147.773 66.864 -154.941 70.6735 -161.164 73.9581C-170.989 79.144 -180.478 80.6325 -185.223 70.5866C-189.625 61.2653 -205.867 54.2417 -211.585 62.819L-215.487 68.6723C-220.707 76.5012 -231.562 78.0756 -238.791 72.052L-243.675 67.9817C-248.785 63.7238 -256.395 64.4924 -260.55 69.6861C-265.786 76.2318 -275.973 75.4376 -280.132 68.1595L-281.243 66.2144C-285.626 58.5446 -296.102 57.1417 -302.349 63.3881L-303.406 64.445C-310.423 71.462 -322.252 69.5423 -326.69 60.6664L-326.91 60.2263C-331.456 51.1338 -343.574 49.1673 -350.763 56.3556Z" fill="#DB4437"/>
<path d="M-377.069 75.1438L-400.551 113.303C-401.855 115.421 -402.889 117.693 -403.631 120.067L-407.426 132.211C-429.891 204.1 -387.625 280.265 -314.446 298.082C-241.707 315.793 -173.531 331.258 -166.867 329.037C-156.679 325.641 -104.108 228.379 -72.9383 168.403C-67.9661 158.835 -67.1371 147.691 -70.5468 137.462L-86.3231 90.1335C-89.2345 81.3992 -100.561 79.1804 -106.553 86.1707C-112.649 93.2832 -124.199 90.8385 -126.891 81.8658L-128.105 77.8211C-131.088 67.8762 -143.409 64.4229 -151.127 71.3686L-166.362 85.0801C-173.858 91.8266 -185.628 90.1717 -190.973 81.6195L-192.059 79.8824C-197.667 70.9093 -210.592 70.5108 -216.742 79.1213L-221.696 86.0567C-224.438 89.8954 -229.97 90.3533 -233.306 87.0176C-236.99 83.3331 -243.202 84.3411 -245.532 89.0016L-246.044 90.0247C-249.337 96.6119 -258.892 96.1353 -261.513 89.2531L-274.772 54.4487C-279.585 41.8164 -297.948 43.4343 -300.477 56.7134L-303.53 72.7436C-305.296 82.0113 -318.228 82.876 -321.212 73.9259C-323.843 66.0309 -334.791 65.4563 -338.234 73.0324L-340.821 78.7236C-344.589 87.0119 -356.618 86.1976 -359.234 77.4772C-361.679 69.3269 -372.609 67.8969 -377.069 75.1438Z" fill="#4285F4"/>
<path d="M-348.217 80.091L-369.36 91.367C-384.517 99.451 -395.317 113.831 -398.856 130.641L-399.561 133.989C-406.483 166.869 -387.362 199.645 -355.332 209.801L-272.969 235.916C-240.404 246.242 -205.142 243.897 -174.231 229.35L-104.729 196.644C-82.1913 186.038 -71.1484 160.251 -79.0253 136.62L-79.9271 133.915C-87.3346 111.692 -110.267 98.5929 -133.172 103.501L-143.885 105.797C-152.453 107.633 -161.367 105 -167.563 98.8041C-175.426 90.9418 -187.437 88.9927 -197.382 93.9652L-214.218 102.383C-221.635 106.092 -230.635 104.115 -235.815 97.64C-241.314 90.7666 -251.047 89.0173 -258.595 93.546L-267.776 99.0543C-281.208 107.114 -298.586 103.413 -307.569 90.58L-308.203 89.6737C-317.2 76.8216 -334.375 72.7084 -348.217 80.091Z" fill="#0F9D56"/>
<path d="M-304.475 99.6646L-314.589 109.779C-316.573 111.763 -318.212 114.065 -319.438 116.589L-326.096 130.296C-360.585 201.302 -315.48 285.249 -237.233 295.682L-207.429 299.656C-124.532 310.709 -51.3535 245.122 -53.2978 161.514L-54.0339 129.862C-54.1531 124.738 -55.7259 119.753 -58.5691 115.488L-58.8447 115.075C-66.6266 103.402 -82.1876 99.7513 -94.5316 106.418C-101.485 110.173 -108.653 113.983 -114.876 117.267C-124.701 122.453 -134.19 123.942 -138.935 113.896C-143.337 104.574 -159.579 97.5508 -165.297 106.128L-169.2 111.981C-174.419 119.81 -185.275 121.385 -192.503 115.361L-197.387 111.291C-202.497 107.033 -210.107 107.801 -214.262 112.995C-219.498 119.541 -229.685 118.747 -233.844 111.469L-234.956 109.523C-239.338 101.854 -249.814 100.451 -256.061 106.697L-257.118 107.754C-264.135 114.771 -275.964 112.851 -280.402 103.975L-280.622 103.535C-285.168 94.4429 -297.286 92.4764 -304.475 99.6646Z" fill="#F4B400"/>
<path d="M-341.326 123.153L-357.249 157.308C-358.781 160.593 -359.82 164.086 -360.334 167.674L-362.745 184.503C-374.865 269.104 -314.765 347.022 -229.859 356.785L-129.234 368.354C-85.126 373.426 -42.1326 352.21 -19.3243 314.118C-12.2613 302.322 -7.36032 289.354 -5.20778 275.775C-0.538694 246.32 4.43702 208.043 1.28596 200.48C-3.67752 188.568 -31.473 105.678 -33.4584 104.188C-35.4438 102.699 -60.2613 149.356 -63.2394 149.356C-65.061 149.356 -81.2226 123.153 -96.7316 98.6469C-104.37 86.5773 -122.152 88.6858 -127.021 102.114L-130.349 111.294C-135.183 124.626 -154.321 123.765 -157.939 110.053C-161.31 97.2724 -178.643 95.3339 -184.755 107.054L-192.79 122.463C-200.311 136.885 -220.605 137.81 -229.405 124.13L-235.041 115.37C-244.038 101.385 -264.812 102.421 -272.373 117.233L-275.081 122.538C-281.952 135.996 -301.18 136.002 -308.058 122.548C-315.076 108.823 -334.812 109.182 -341.326 123.153Z" fill="#DB4437"/>
<path d="M-65.3757 -4.69287L-81.2991 29.4617C-82.8307 32.7471 -83.8703 36.24 -84.3844 39.8282L-86.7952 56.6566C-98.9154 141.258 -38.8146 219.176 46.091 228.938L146.716 240.508C190.824 245.579 233.817 224.364 256.626 186.271C263.689 174.476 268.59 161.508 270.742 147.929C275.411 118.474 280.387 80.1964 277.236 72.6339C272.273 60.7215 244.477 -22.1687 242.492 -23.6578C240.506 -25.1468 215.689 21.51 212.711 21.51C210.889 21.51 194.727 -4.693 179.218 -29.1994C171.58 -41.269 153.798 -39.1605 148.929 -25.7323L145.601 -16.5523C140.767 -3.21996 121.629 -4.08082 118.011 -17.7933C114.64 -30.5739 97.3067 -32.5124 91.1951 -20.7924L83.1599 -5.38364C75.6389 9.03918 55.3455 9.96331 46.5447 -3.71623L40.9091 -12.4759C31.9116 -26.4611 11.1379 -25.4248 3.5769 -10.6136L0.868571 -5.30822C-6.00164 8.14984 -25.2298 8.15585 -32.1084 -5.29792C-39.1258 -19.0232 -58.862 -18.6643 -65.3757 -4.69287Z" fill="#4285F4"/>
<path d="M-61.5589 8.73397L-85.0417 46.8935C-86.3449 49.0113 -87.3794 51.2832 -88.1211 53.6567L-91.9161 65.8009C-114.381 137.69 -72.1157 213.855 1.06373 231.673C73.8023 249.383 141.979 264.848 148.643 262.627C158.831 259.231 211.402 161.969 242.571 101.993C247.544 92.4253 248.373 81.2815 244.963 71.0525L229.187 23.7236C226.275 14.9893 214.948 12.7706 208.957 19.7609C202.86 26.8734 191.31 24.4287 188.618 15.456L187.405 11.4112C184.422 1.46632 172.1 -1.98694 164.383 4.95878L149.148 18.6702C141.652 25.4168 129.882 23.7618 124.537 15.2097L123.451 13.4725C117.843 4.49949 104.918 4.10093 98.7677 12.7114L93.8137 19.6469C91.0719 23.4855 85.5394 23.9434 82.2037 20.6078C78.5192 16.9233 72.3078 17.9312 69.9776 22.5918L69.466 23.6149C66.1724 30.202 56.618 29.7255 53.9962 22.8433L40.7374 -11.9611C35.9251 -24.5934 17.562 -22.9755 15.0326 -9.69641L11.9793 6.33378C10.214 15.6015 -2.71874 16.4662 -5.70213 7.51602C-8.33378 -0.378962 -19.2809 -0.953549 -22.7245 6.62255L-25.3114 12.3137C-29.0789 20.602 -41.1083 19.7878 -43.7245 11.0674C-46.1696 2.91709 -57.0993 1.48708 -61.5589 8.73397Z" fill="#0F9D56"/>
<path d="M-61.3505 26.955L-82.4931 38.231C-97.6505 46.315 -108.451 60.6952 -111.99 77.5051L-112.694 80.8527C-119.617 113.733 -100.495 146.509 -68.4652 156.665L13.8976 182.78C46.4627 193.106 81.725 190.761 112.636 176.214L182.138 143.508C204.675 132.902 215.718 107.115 207.841 83.4841L206.939 80.7785C199.532 58.5559 176.6 45.4569 153.695 50.365L142.982 52.6607C134.414 54.4967 125.499 51.8641 119.303 45.6681C111.441 37.8058 99.4299 35.8567 89.4848 40.8292L72.6484 49.2474C65.2315 52.9559 56.2318 50.9792 51.0516 44.504C45.5529 37.6306 35.8194 35.8813 28.2716 40.41L19.0911 45.9183C5.6588 53.9777 -11.719 50.2769 -20.702 37.444L-21.3365 36.5377C-30.333 23.6856 -47.5081 19.5724 -61.3505 26.955Z" fill="#F4B400"/>
<path d="M-74.8125 56.3556L-84.9271 66.4701C-86.9113 68.4543 -88.5502 70.756 -89.7762 73.2801L-96.4336 86.9865C-130.923 157.993 -85.8177 241.94 -7.57048 252.373L22.2335 256.347C105.13 267.4 178.309 201.813 176.364 118.205L175.628 86.5531C175.509 81.4289 173.936 76.4441 171.093 72.1794L170.817 71.7659C163.036 60.093 147.475 56.4423 135.131 63.1086C128.177 66.864 121.009 70.6735 114.786 73.9581C104.961 79.144 95.4721 80.6325 90.7275 70.5866C86.3251 61.2653 70.083 54.2417 64.3648 62.819L60.4626 68.6723C55.2433 76.5012 44.3876 78.0756 37.1593 72.052L32.2749 67.9817C27.1654 63.7238 19.5554 64.4924 15.4005 69.6861C10.1639 76.2318 -0.0230439 75.4376 -4.18198 68.1595L-5.29346 66.2144C-9.67623 58.5446 -20.1523 57.1417 -26.3987 63.3881L-27.4556 64.445C-34.4727 71.462 -46.3021 69.5423 -50.74 60.6664L-50.9601 60.2263C-55.5063 51.1338 -67.6243 49.1673 -74.8125 56.3556Z" fill="#DB4437"/>
<path d="M-101.119 75.1438L-124.601 113.303C-125.905 115.421 -126.939 117.693 -127.681 120.067L-131.476 132.211C-153.941 204.1 -111.675 280.265 -38.4959 298.082C34.2427 315.793 102.419 331.258 109.083 329.037C119.271 325.641 171.842 228.379 203.012 168.403C207.984 158.835 208.813 147.691 205.403 137.462L189.627 90.1335C186.716 81.3992 175.389 79.1804 169.397 86.1707C163.301 93.2832 151.751 90.8385 149.059 81.8658L147.845 77.8211C144.862 67.8762 132.541 64.4229 124.823 71.3686L109.588 85.0801C102.092 91.8266 90.3223 90.1717 84.9773 81.6195L83.8915 79.8824C78.2834 70.9093 65.3584 70.5108 59.208 79.1213L54.2541 86.0567C51.5122 89.8954 45.9797 90.3533 42.6441 87.0176C38.9596 83.3331 32.7482 84.3411 30.4179 89.0016L29.9064 90.0247C26.6128 96.6119 17.0584 96.1353 14.4366 89.2531L1.17774 54.4487C-3.63453 41.8164 -21.9976 43.4343 -24.527 56.7134L-27.5803 72.7436C-29.3456 82.0113 -42.2784 82.876 -45.2618 73.9259C-47.8934 66.0309 -58.8405 65.4563 -62.2842 73.0324L-64.8711 78.7236C-68.6385 87.0119 -80.668 86.1976 -83.2841 77.4772C-85.7292 69.3269 -96.6589 67.8969 -101.119 75.1438Z" fill="#4285F4"/>
<path d="M-72.2671 80.091L-93.4097 91.367C-108.567 99.451 -119.367 113.831 -122.906 130.641L-123.611 133.989C-130.533 166.869 -111.412 199.645 -79.3818 209.801L2.98099 235.916C35.546 246.242 70.8083 243.897 101.72 229.35L171.221 196.644C193.759 186.038 204.802 160.251 196.925 136.62L196.023 133.915C188.615 111.692 165.683 98.5929 142.778 103.501L132.065 105.797C123.497 107.633 114.583 105 108.387 98.8041C100.524 90.9418 88.5133 88.9927 78.5682 93.9652L61.7318 102.383C54.3148 106.092 45.3152 104.115 40.135 97.64C34.6363 90.7666 24.9028 89.0173 17.3549 93.546L8.17451 99.0543C-5.25782 107.114 -22.6356 103.413 -31.6187 90.58L-32.2531 89.6737C-41.2496 76.8216 -58.4247 72.7084 -72.2671 80.091Z" fill="#0F9D56"/>
<path d="M-28.5246 99.6646L-38.6392 109.779C-40.6234 111.763 -42.2623 114.065 -43.4883 116.589L-50.1457 130.296C-84.6347 201.302 -39.5297 285.249 38.7174 295.682L68.5215 299.656C151.418 310.709 224.597 245.122 222.652 161.514L221.916 129.862C221.797 124.738 220.224 119.753 217.381 115.488L217.105 115.075C209.323 103.402 193.762 99.7513 181.418 106.418C174.465 110.173 167.297 113.983 161.074 117.267C151.249 122.453 141.76 123.942 137.015 113.896C132.613 104.574 116.371 97.5508 110.653 106.128L106.751 111.981C101.531 119.81 90.6755 121.385 83.4472 115.361L78.5628 111.291C73.4534 107.033 65.8433 107.801 61.6884 112.995C56.4519 119.541 46.2649 118.747 42.1059 111.469L40.9945 109.523C36.6117 101.854 26.1356 100.451 19.8892 106.697L18.8323 107.754C11.8153 114.771 -0.014156 112.851 -4.45212 103.975L-4.67219 103.535C-9.21842 94.4429 -21.3364 92.4764 -28.5246 99.6646Z" fill="#F4B400"/>
<path d="M-65.3757 123.153L-81.2991 157.308C-82.8307 160.593 -83.8703 164.086 -84.3844 167.674L-86.7952 184.503C-98.9154 269.104 -38.8146 347.022 46.091 356.785L146.716 368.354C190.824 373.426 233.817 352.21 256.626 314.118C263.689 302.322 268.59 289.354 270.742 275.775C275.411 246.32 280.387 208.043 277.236 200.48C272.273 188.568 244.477 105.678 242.492 104.188C240.506 102.699 215.689 149.356 212.711 149.356C210.889 149.356 194.727 123.153 179.218 98.6469C171.58 86.5773 153.798 88.6858 148.929 102.114L145.601 111.294C140.767 124.626 121.629 123.765 118.011 110.053C114.64 97.2724 97.3067 95.3339 91.1951 107.054L83.1599 122.463C75.6389 136.885 55.3455 137.81 46.5447 124.13L40.9091 115.37C31.9116 101.385 11.1379 102.421 3.5769 117.233L0.868571 122.538C-6.00164 135.996 -25.2298 136.002 -32.1084 122.548C-39.1258 108.823 -58.862 109.182 -65.3757 123.153Z" fill="#DB4437"/>
</g>
</svg>
