<svg width="223" height="178" viewBox="0 0 223 178" fill="none" xmlns="http://www.w3.org/2000/svg">
<path d="M27.8193 163.447C24.9713 163.447 22.4113 162.615 20.1393 160.951C17.8673 159.287 16.2993 156.951 15.4353 153.943L20.5233 151.879C21.0353 153.767 21.9313 155.319 23.2113 156.535C24.5233 157.719 26.0913 158.311 27.9153 158.311C29.6113 158.311 31.0513 157.879 32.2353 157.015C33.4193 156.119 34.0113 154.903 34.0113 153.367C34.0113 151.959 33.4833 150.807 32.4273 149.911C31.4033 148.983 29.5953 148.055 27.0033 147.127L24.8433 146.359C22.5393 145.559 20.6033 144.407 19.0353 142.903C17.4673 141.399 16.6833 139.415 16.6833 136.951C16.6833 135.255 17.1473 133.687 18.0753 132.247C19.0033 130.807 20.2833 129.671 21.9153 128.839C23.5793 127.975 25.4513 127.543 27.5313 127.543C30.5393 127.543 32.9393 128.279 34.7313 129.751C36.5233 131.191 37.7233 132.823 38.3313 134.647L33.4833 136.711C33.1313 135.623 32.4593 134.663 31.4673 133.831C30.4753 132.999 29.1953 132.583 27.6273 132.583C26.0593 132.583 24.7313 132.983 23.6433 133.783C22.5873 134.583 22.0593 135.607 22.0593 136.855C22.0593 138.039 22.5393 139.015 23.4993 139.783C24.4593 140.551 25.9633 141.287 28.0113 141.991L30.1713 142.711C33.1153 143.735 35.3873 145.079 36.9873 146.743C38.6193 148.375 39.4353 150.567 39.4353 153.319C39.4353 155.559 38.8593 157.447 37.7073 158.983C36.5553 160.487 35.0833 161.607 33.2913 162.343C31.5313 163.079 29.7073 163.447 27.8193 163.447ZM55.9064 163.447C53.5064 163.447 51.3464 162.887 49.4264 161.767C47.5384 160.647 46.0504 159.111 44.9624 157.159C43.9064 155.175 43.3784 152.951 43.3784 150.487C43.3784 148.151 43.8904 145.991 44.9144 144.007C45.9704 141.991 47.4264 140.391 49.2824 139.207C51.1384 138.023 53.2504 137.431 55.6184 137.431C58.0824 137.431 60.2104 137.975 62.0024 139.063C63.8264 140.151 65.2024 141.639 66.1304 143.527C67.0904 145.415 67.5704 147.543 67.5704 149.911C67.5704 150.359 67.5224 150.919 67.4264 151.591H48.6584C48.8504 153.863 49.6504 155.623 51.0584 156.871C52.4984 158.087 54.1624 158.695 56.0504 158.695C57.5544 158.695 58.8504 158.359 59.9384 157.687C61.0584 156.983 61.9544 156.039 62.6264 154.855L67.0904 156.967C65.9384 158.983 64.4344 160.567 62.5784 161.719C60.7224 162.871 58.4984 163.447 55.9064 163.447ZM62.1944 147.559C62.1304 146.695 61.8584 145.847 61.3784 145.015C60.8984 144.151 60.1624 143.431 59.1704 142.855C58.2104 142.279 57.0264 141.991 55.6184 141.991C53.9224 141.991 52.4824 142.503 51.2984 143.527C50.1464 144.519 49.3464 145.863 48.8984 147.559H62.1944ZM81.541 163.447C78.725 163.447 76.421 162.839 74.629 161.623C72.837 160.375 71.573 158.791 70.837 156.871L75.541 154.807C76.117 156.087 76.917 157.063 77.941 157.735C78.997 158.407 80.197 158.743 81.541 158.743C82.853 158.743 83.957 158.519 84.853 158.071C85.749 157.591 86.197 156.887 86.197 155.959C86.197 155.063 85.813 154.359 85.045 153.847C84.277 153.335 83.093 152.887 81.493 152.503L78.565 151.783C76.613 151.303 74.997 150.455 73.717 149.239C72.437 148.023 71.797 146.487 71.797 144.631C71.797 143.191 72.213 141.927 73.045 140.839C73.909 139.751 75.061 138.919 76.501 138.343C77.941 137.735 79.509 137.431 81.205 137.431C83.477 137.431 85.477 137.895 87.205 138.823C88.933 139.719 90.181 141.031 90.949 142.759L86.341 144.775C85.413 142.887 83.717 141.943 81.253 141.943C80.069 141.943 79.077 142.183 78.277 142.663C77.477 143.143 77.077 143.767 77.077 144.535C77.077 145.271 77.381 145.879 77.989 146.359C78.597 146.807 79.493 147.191 80.677 147.511L84.277 148.423C86.677 149.031 88.485 149.959 89.701 151.207C90.949 152.423 91.573 153.927 91.573 155.719C91.573 157.255 91.125 158.615 90.229 159.799C89.365 160.951 88.165 161.847 86.629 162.487C85.093 163.127 83.397 163.447 81.541 163.447ZM105.072 163.447C102.256 163.447 99.9523 162.839 98.1603 161.623C96.3683 160.375 95.1043 158.791 94.3683 156.871L99.0723 154.807C99.6483 156.087 100.448 157.063 101.472 157.735C102.528 158.407 103.728 158.743 105.072 158.743C106.384 158.743 107.488 158.519 108.384 158.071C109.28 157.591 109.728 156.887 109.728 155.959C109.728 155.063 109.344 154.359 108.576 153.847C107.808 153.335 106.624 152.887 105.024 152.503L102.096 151.783C100.144 151.303 98.5283 150.455 97.2483 149.239C95.9683 148.023 95.3283 146.487 95.3283 144.631C95.3283 143.191 95.7443 141.927 96.5763 140.839C97.4403 139.751 98.5923 138.919 100.032 138.343C101.472 137.735 103.04 137.431 104.736 137.431C107.008 137.431 109.008 137.895 110.736 138.823C112.464 139.719 113.712 141.031 114.48 142.759L109.872 144.775C108.944 142.887 107.248 141.943 104.784 141.943C103.6 141.943 102.608 142.183 101.808 142.663C101.008 143.143 100.608 143.767 100.608 144.535C100.608 145.271 100.912 145.879 101.52 146.359C102.128 146.807 103.024 147.191 104.208 147.511L107.808 148.423C110.208 149.031 112.016 149.959 113.232 151.207C114.48 152.423 115.104 153.927 115.104 155.719C115.104 157.255 114.656 158.615 113.76 159.799C112.896 160.951 111.696 161.847 110.16 162.487C108.624 163.127 106.928 163.447 105.072 163.447ZM122.465 134.647C121.473 134.647 120.625 134.311 119.921 133.639C119.249 132.935 118.913 132.087 118.913 131.095C118.913 130.103 119.249 129.271 119.921 128.599C120.625 127.895 121.473 127.543 122.465 127.543C123.457 127.543 124.289 127.895 124.961 128.599C125.665 129.271 126.017 130.103 126.017 131.095C126.017 132.087 125.665 132.935 124.961 133.639C124.289 134.311 123.457 134.647 122.465 134.647ZM119.825 138.199H125.105V162.679H119.825V138.199ZM142.913 163.447C140.449 163.447 138.241 162.887 136.289 161.767C134.337 160.615 132.817 159.047 131.729 157.063C130.641 155.079 130.097 152.871 130.097 150.439C130.097 148.007 130.641 145.799 131.729 143.815C132.817 141.831 134.337 140.279 136.289 139.159C138.241 138.007 140.449 137.431 142.913 137.431C145.377 137.431 147.585 138.007 149.537 139.159C151.489 140.311 153.009 141.879 154.097 143.863C155.185 145.847 155.729 148.039 155.729 150.439C155.729 152.871 155.185 155.079 154.097 157.063C153.009 159.047 151.489 160.615 149.537 161.767C147.585 162.887 145.377 163.447 142.913 163.447ZM142.913 158.599C144.257 158.599 145.505 158.279 146.657 157.639C147.809 156.967 148.721 156.023 149.393 154.807C150.097 153.559 150.449 152.103 150.449 150.439C150.449 148.775 150.097 147.335 149.393 146.119C148.721 144.903 147.809 143.975 146.657 143.335C145.505 142.663 144.257 142.327 142.913 142.327C141.569 142.327 140.321 142.663 139.169 143.335C138.017 143.975 137.089 144.903 136.385 146.119C135.713 147.335 135.377 148.775 135.377 150.439C135.377 152.103 135.713 153.559 136.385 154.807C137.089 156.023 138.017 156.967 139.169 157.639C140.321 158.279 141.569 158.599 142.913 158.599ZM160.129 138.199H165.169V141.415H165.409C166.113 140.263 167.153 139.319 168.529 138.583C169.937 137.815 171.425 137.431 172.993 137.431C175.969 137.431 178.225 138.311 179.761 140.071C181.329 141.799 182.113 144.167 182.113 147.175V162.679H176.833V147.895C176.833 145.975 176.353 144.567 175.393 143.671C174.465 142.775 173.169 142.327 171.505 142.327C170.321 142.327 169.265 142.663 168.337 143.335C167.409 143.975 166.689 144.839 166.177 145.927C165.665 147.015 165.409 148.183 165.409 149.431V162.679H160.129V138.199ZM196.76 163.447C193.944 163.447 191.64 162.839 189.848 161.623C188.056 160.375 186.792 158.791 186.056 156.871L190.76 154.807C191.336 156.087 192.136 157.063 193.16 157.735C194.216 158.407 195.416 158.743 196.76 158.743C198.072 158.743 199.176 158.519 200.072 158.071C200.968 157.591 201.416 156.887 201.416 155.959C201.416 155.063 201.032 154.359 200.264 153.847C199.496 153.335 198.312 152.887 196.712 152.503L193.784 151.783C191.832 151.303 190.216 150.455 188.936 149.239C187.656 148.023 187.016 146.487 187.016 144.631C187.016 143.191 187.432 141.927 188.264 140.839C189.128 139.751 190.28 138.919 191.72 138.343C193.16 137.735 194.728 137.431 196.424 137.431C198.696 137.431 200.696 137.895 202.424 138.823C204.152 139.719 205.4 141.031 206.168 142.759L201.56 144.775C200.632 142.887 198.936 141.943 196.472 141.943C195.288 141.943 194.296 142.183 193.496 142.663C192.696 143.143 192.296 143.767 192.296 144.535C192.296 145.271 192.6 145.879 193.208 146.359C193.816 146.807 194.712 147.191 195.896 147.511L199.496 148.423C201.896 149.031 203.704 149.959 204.92 151.207C206.168 152.423 206.792 153.927 206.792 155.719C206.792 157.255 206.344 158.615 205.448 159.799C204.584 160.951 203.384 161.847 201.848 162.487C200.312 163.127 198.616 163.447 196.76 163.447Z" fill="white"/>
<mask id="mask0_1095_1903" style="mask-type:alpha" maskUnits="userSpaceOnUse" x="0" y="0" width="223" height="107">
<path d="M25.7632 22.8251L8.71844 35.1521L0.196045 22.2163L30.7854 0.149414H42.5037V104.244H25.7632V22.8251Z" fill="white"/>
<path d="M100.315 106.679C95.2424 106.679 90.2202 105.665 85.2488 103.636C80.3789 101.505 76.067 98.3599 72.313 94.2002C68.5591 89.939 65.9212 84.7139 64.3994 78.525L79.4658 72.5898C80.7847 78.0685 83.2197 82.4819 86.7707 85.83C90.4231 89.1781 94.8873 90.8521 100.163 90.8521C105.845 90.8521 110.562 89.0766 114.316 85.5256C118.07 81.8731 119.947 77.2061 119.947 71.5245C119.947 65.8429 118.07 61.1759 114.316 57.5234C110.664 53.7695 105.946 51.8926 100.163 51.8926C96.9164 51.8926 93.8727 52.6028 91.0319 54.0232C88.1911 55.4436 85.8576 57.422 84.0313 59.9584L67.4431 52.6535L73.8349 0.149414H130.448V15.368H87.836L84.0313 42.7614L84.9445 42.9136C90.2202 38.7538 96.3584 36.674 103.359 36.674C109.243 36.674 114.722 38.1451 119.795 41.0874C124.969 44.0296 129.078 48.1386 132.122 53.4144C135.166 58.6902 136.688 64.6762 136.688 71.3723C136.688 78.0685 135.115 84.1052 131.97 89.4824C128.825 94.8597 124.462 99.0701 118.882 102.114C113.403 105.158 107.214 106.679 100.315 106.679Z" fill="white"/>
<path d="M222.699 70.1548H195.914V96.9395H181.456V70.1548H154.672V55.8494H181.456V29.0647H195.914V55.8494H222.699V70.1548Z" fill="white"/>
</mask>
<g mask="url(#mask0_1095_1903)">
<path d="M-125.852 -7.5154L-140.389 23.666C-141.787 26.6653 -142.736 29.8542 -143.205 33.13L-145.406 48.4934C-156.472 125.73 -101.603 196.865 -24.0883 205.778L67.777 216.34C108.045 220.97 147.296 201.601 168.119 166.825C174.567 156.056 179.041 144.217 181.007 131.82C185.269 104.929 189.812 69.9841 186.935 63.0799C182.404 52.2045 157.028 -23.4699 155.215 -24.8294C153.403 -26.1888 130.746 16.4064 128.027 16.4064C126.364 16.4064 111.609 -7.51551 97.45 -29.8885C90.4766 -40.9075 74.2423 -38.9825 69.7975 -26.7233L66.7589 -18.3424C62.3458 -6.1707 44.8737 -6.95662 41.5713 -19.4754C38.4932 -31.1434 22.669 -32.9132 17.0894 -22.2134L9.75366 -8.14603C2.88734 5.02124 -15.6394 5.86493 -23.6741 -6.62377L-28.8191 -14.6209C-37.0333 -27.3887 -55.9986 -26.4426 -62.9014 -12.9207L-65.374 -8.07718C-71.6461 4.20932 -89.2004 4.21481 -95.4802 -8.06777C-101.887 -20.5982 -119.905 -20.2705 -125.852 -7.5154Z" fill="#4285F4"/>
<path d="M-122.367 4.74261L-143.806 39.5803C-144.995 41.5137 -145.94 43.5878 -146.617 45.7547L-150.082 56.8417C-170.591 122.473 -132.005 192.007 -65.1958 208.274C1.21068 224.443 63.4523 238.561 69.536 236.533C78.8374 233.433 126.832 144.638 155.288 89.883C159.827 81.1484 160.584 70.9747 157.471 61.6362L143.068 18.4274C140.41 10.4534 130.07 8.42781 124.6 14.8096C119.034 21.3029 108.489 19.071 106.032 10.8795L104.924 7.18681C102.2 -1.89238 90.9518 -5.04502 83.9061 1.29606L69.9974 13.8139C63.1538 19.9731 52.4084 18.4622 47.5287 10.6546L46.5375 9.06867C41.4175 0.876747 29.6177 0.512886 24.0027 8.37381L19.4801 14.7055C16.9769 18.21 11.926 18.628 8.88068 15.5828C5.51694 12.219 -0.153687 13.1392 -2.28111 17.3941L-2.74812 18.3281C-5.75499 24.3418 -14.4777 23.9068 -16.8712 17.6237L-28.9759 -14.1509C-33.3692 -25.6835 -50.1338 -24.2065 -52.4429 -12.0834L-55.2305 2.55136C-56.8421 11.0123 -68.649 11.8017 -71.3727 3.63068C-73.7753 -3.57702 -83.7694 -4.10159 -86.9133 2.81499L-89.275 8.01075C-92.7144 15.5775 -103.697 14.8342 -106.085 6.87288C-108.317 -0.567902 -118.296 -1.87342 -122.367 4.74261Z" fill="#0F9D56"/>
<path d="M-122.177 21.3774L-141.479 31.6719C-155.317 39.0521 -165.177 52.1805 -168.408 67.5271L-169.051 70.5833C-175.371 100.602 -157.914 130.524 -128.672 139.796L-53.4792 163.638C-23.749 173.064 8.44365 170.924 36.6639 157.643L100.115 127.784C120.691 118.101 130.772 94.5589 123.581 72.9855L122.758 70.5155C115.995 50.2274 95.0593 38.2687 74.1485 42.7496L64.368 44.8454C56.5459 46.5216 48.4074 44.1181 42.7507 38.4615C35.5729 31.2837 24.6073 29.5042 15.528 34.0439L0.157196 41.7293C-6.61406 45.1149 -14.8303 43.3103 -19.5596 37.3987C-24.5796 31.1237 -33.4657 29.5267 -40.3565 33.6612L-48.7378 38.6899C-61.0008 46.0478 -76.8658 42.6691 -85.0668 30.9533L-85.646 30.1259C-93.8593 18.3926 -109.539 14.6375 -122.177 21.3774Z" fill="#F4B400"/>
<path d="M-134.467 48.2186L-143.701 57.4527C-145.512 59.2641 -147.009 61.3654 -148.128 63.6698L-154.206 76.1831C-185.693 141.009 -144.514 217.647 -73.0784 227.172L-45.8689 230.8C29.8116 240.891 96.6195 181.013 94.8444 104.684L94.1724 75.7874C94.0635 71.1093 92.6277 66.5584 90.032 62.6649L89.7804 62.2874C82.6759 51.6307 68.4696 48.2978 57.2001 54.3837C50.8516 57.8122 44.308 61.2901 38.6267 64.2888C29.6566 69.0233 20.994 70.3822 16.6624 61.2108C12.6433 52.701 -2.18491 46.2888 -7.40529 54.1194L-10.9678 59.4632C-15.7327 66.6105 -25.6434 68.0479 -32.2425 62.5487L-36.7017 58.8327C-41.3663 54.9455 -48.3139 55.6472 -52.1071 60.3887C-56.8878 66.3646 -66.188 65.6396 -69.9849 58.995L-70.9996 57.2192C-75.0009 50.2171 -84.565 48.9363 -90.2676 54.6389L-91.2325 55.6038C-97.6387 62.01 -108.438 60.2574 -112.49 52.1542L-112.691 51.7524C-116.841 43.4514 -127.904 41.6561 -134.467 48.2186Z" fill="#DB4437"/>
<path d="M-158.483 65.3713L-179.921 100.209C-181.111 102.142 -182.056 104.217 -182.733 106.383L-186.197 117.47C-206.707 183.101 -168.121 252.636 -101.312 268.903C-34.9052 285.071 27.3364 299.19 33.4202 297.162C42.7215 294.062 90.7159 205.267 119.172 150.512C123.711 141.777 124.468 131.603 121.355 122.265L106.953 79.0561C104.294 71.0821 93.9537 69.0565 88.4836 75.4383C82.9179 81.9316 72.3734 79.6997 69.9159 71.5082L68.8081 67.8155C66.0844 58.7363 54.8359 55.5837 47.7903 61.9248L33.8815 74.4426C27.0379 80.6018 16.2926 79.0909 11.4128 71.2833L10.4216 69.6974C5.30164 61.5054 -6.49818 61.1416 -12.1131 69.0025L-16.6358 75.3342C-19.139 78.8387 -24.1899 79.2567 -27.2352 76.2115C-30.5989 72.8477 -36.2696 73.7679 -38.397 78.0228L-38.864 78.9568C-41.8709 84.9705 -50.5936 84.5355 -52.9871 78.2524L-65.0917 46.4778C-69.4851 34.9452 -86.2496 36.4222 -88.5588 48.5453L-91.3464 63.18C-92.958 71.6409 -104.765 72.4304 -107.489 64.2594C-109.891 57.0517 -119.885 56.5271 -123.029 63.4437L-125.391 68.6394C-128.83 76.2062 -139.813 75.4628 -142.201 67.5016C-144.433 60.0608 -154.411 58.7553 -158.483 65.3713Z" fill="#4285F4"/>
<path d="M-132.143 69.8878L-151.445 80.1823C-165.283 87.5625 -175.143 100.691 -178.374 116.037L-179.017 119.094C-185.337 149.112 -167.88 179.035 -138.638 188.306L-63.4455 212.148C-33.7153 221.575 -1.52266 219.434 26.6976 206.154L90.1487 176.294C110.725 166.612 120.806 143.069 113.615 121.496L112.792 119.026C106.029 98.7378 85.093 86.7791 64.1822 91.26L54.4017 93.3558C46.5796 95.032 38.4411 92.6286 32.7844 86.9719C25.6066 79.7941 14.641 78.0146 5.56168 82.5543L-9.8091 90.2397C-16.5804 93.6253 -24.7966 91.8207 -29.5258 85.9091C-34.5459 79.6341 -43.432 78.0371 -50.3228 82.1716L-58.7041 87.2003C-70.9671 94.5582 -86.8321 91.1795 -95.0331 79.4637L-95.6123 78.6363C-103.826 66.903 -119.506 63.1479 -132.143 69.8878Z" fill="#0F9D56"/>
<path d="M-92.2085 87.7575L-101.442 96.9915C-103.254 98.803 -104.75 100.904 -105.87 103.209L-111.947 115.722C-143.434 180.548 -102.256 257.186 -30.82 266.711L-3.61047 270.339C72.07 280.43 138.878 220.552 137.103 144.222L136.431 115.326C136.322 110.648 134.886 106.097 132.29 102.204L132.039 101.826C124.934 91.1696 110.728 87.8367 99.4586 93.9226C93.11 97.3511 86.5665 100.829 80.8851 103.828C71.915 108.562 63.2525 109.921 58.9209 100.75C54.9018 92.2399 40.0735 85.8277 34.8531 93.6583L31.2906 99.0021C26.5257 106.149 16.615 107.587 10.0159 102.088L5.55678 98.3716C0.89209 94.4843 -6.05545 95.1861 -9.84866 99.9276C-14.6294 105.903 -23.9296 105.178 -27.7265 98.5339L-28.7412 96.7581C-32.7424 89.756 -42.3065 88.4752 -48.0092 94.1778L-48.9741 95.1427C-55.3802 101.549 -66.1799 99.7963 -70.2315 91.6931L-70.4324 91.2912C-74.5829 82.9903 -85.646 81.195 -92.2085 87.7575Z" fill="#F4B400"/>
<path d="M-125.852 109.202L-140.389 140.383C-141.787 143.382 -142.736 146.571 -143.205 149.847L-145.406 165.21C-156.472 242.447 -101.603 313.582 -24.0883 322.495L67.777 333.057C108.045 337.687 147.296 318.318 168.119 283.542C174.567 272.773 179.041 260.934 181.007 248.537C185.269 221.646 189.812 186.701 186.935 179.797C182.404 168.921 157.028 93.247 155.215 91.8876C153.403 90.5282 130.746 133.123 128.027 133.123C126.364 133.123 111.609 109.201 97.45 86.8284C90.4766 75.8095 74.2423 77.7344 69.7975 89.9936L66.7589 98.3745C62.3458 110.546 44.8737 109.76 41.5713 97.2416C38.4932 85.5735 22.669 83.8038 17.0894 94.5036L9.75366 108.571C2.88734 121.738 -15.6394 122.582 -23.6741 110.093L-28.8191 102.096C-37.0333 89.3283 -55.9986 90.2743 -62.9014 103.796L-65.374 108.64C-71.6461 120.926 -89.2004 120.932 -95.4802 108.649C-101.887 96.1187 -119.905 96.4464 -125.852 109.202Z" fill="#DB4437"/>
<path d="M109.159 -7.5154L94.6222 23.666C93.2239 26.6653 92.2748 29.8542 91.8055 33.13L89.6045 48.4934C78.5394 125.73 133.408 196.865 210.923 205.778L302.788 216.34C343.056 220.97 382.307 201.601 403.13 166.825C409.578 156.056 414.052 144.217 416.018 131.82C420.28 104.929 424.823 69.9841 421.946 63.0799C417.415 52.2045 392.039 -23.4699 390.226 -24.8294C388.414 -26.1888 365.757 16.4064 363.038 16.4064C361.375 16.4064 346.62 -7.51551 332.461 -29.8885C325.488 -40.9075 309.253 -38.9825 304.809 -26.7233L301.77 -18.3424C297.357 -6.1707 279.885 -6.95662 276.582 -19.4754C273.504 -31.1434 257.68 -32.9132 252.1 -22.2134L244.765 -8.14603C237.898 5.02124 219.372 5.86493 211.337 -6.62377L206.192 -14.6209C197.978 -27.3887 179.012 -26.4426 172.11 -12.9207L169.637 -8.07718C163.365 4.20932 145.811 4.21481 139.531 -8.06777C133.124 -20.5982 115.106 -20.2705 109.159 -7.5154Z" fill="#4285F4"/>
<path d="M112.644 4.74261L91.2054 39.5803C90.0156 41.5137 89.0713 43.5878 88.3941 45.7547L84.9294 56.8417C64.4198 122.473 103.006 192.007 169.815 208.274C236.222 224.443 298.463 238.561 304.547 236.533C313.848 233.433 361.843 144.638 390.299 89.883C394.838 81.1484 395.595 70.9747 392.482 61.6362L378.079 18.4274C375.421 10.4534 365.081 8.42781 359.611 14.8096C354.045 21.3029 343.5 19.071 341.043 10.8795L339.935 7.18681C337.211 -1.89238 325.963 -5.04502 318.917 1.29606L305.008 13.8139C298.165 19.9731 287.419 18.4622 282.54 10.6546L281.548 9.06867C276.428 0.876747 264.629 0.512886 259.014 8.37381L254.491 14.7055C251.988 18.21 246.937 18.628 243.892 15.5828C240.528 12.219 234.857 13.1392 232.73 17.3941L232.263 18.3281C229.256 24.3418 220.533 23.9068 218.14 17.6237L206.035 -14.1509C201.642 -25.6835 184.877 -24.2065 182.568 -12.0834L179.78 2.55136C178.169 11.0123 166.362 11.8017 163.638 3.63068C161.236 -3.57702 151.242 -4.10159 148.098 2.81499L145.736 8.01075C142.297 15.5775 131.314 14.8342 128.926 6.87288C126.694 -0.567902 116.715 -1.87342 112.644 4.74261Z" fill="#0F9D56"/>
<path d="M112.834 21.3774L93.5322 31.6719C79.6943 39.0521 69.8343 52.1805 66.6034 67.5271L65.96 70.5833C59.6404 100.602 77.0973 130.524 106.339 139.796L181.532 163.638C211.262 173.064 243.455 170.924 271.675 157.643L335.126 127.784C355.702 118.101 365.783 94.5589 358.592 72.9855L357.769 70.5155C351.006 50.2274 330.07 38.2687 309.159 42.7496L299.379 44.8454C291.557 46.5216 283.418 44.1181 277.762 38.4615C270.584 31.2837 259.618 29.5042 250.539 34.0439L235.168 41.7293C228.397 45.1149 220.181 43.3103 215.451 37.3987C210.431 31.1237 201.545 29.5267 194.654 33.6612L186.273 38.6899C174.01 46.0478 158.145 42.6691 149.944 30.9533L149.365 30.1259C141.152 18.3926 125.472 14.6375 112.834 21.3774Z" fill="#F4B400"/>
<path d="M100.544 48.2186L91.3101 57.4527C89.4986 59.2641 88.0023 61.3654 86.883 63.6698L80.8052 76.1831C49.3185 141.009 90.497 217.647 161.933 227.172L189.142 230.8C264.823 240.891 331.63 181.013 329.855 104.684L329.183 75.7874C329.075 71.1093 327.639 66.5584 325.043 62.6649L324.791 62.2874C317.687 51.6307 303.481 48.2978 292.211 54.3837C285.863 57.8122 279.319 61.2901 273.638 64.2888C264.668 69.0233 256.005 70.3822 251.673 61.2108C247.654 52.701 232.826 46.2888 227.606 54.1194L224.043 59.4632C219.278 66.6105 209.368 68.0479 202.768 62.5487L198.309 58.8327C193.645 54.9455 186.697 55.6472 182.904 60.3887C178.123 66.3646 168.823 65.6396 165.026 58.995L164.011 57.2192C160.01 50.2171 150.446 48.9363 144.743 54.6389L143.778 55.6038C137.372 62.01 126.573 60.2574 122.521 52.1542L122.32 51.7524C118.17 43.4514 107.107 41.6561 100.544 48.2186Z" fill="#DB4437"/>
<path d="M76.5281 65.3713L55.0896 100.209C53.8998 102.142 52.9554 104.217 52.2782 106.383L48.8135 117.47C28.3039 183.101 66.8903 252.636 133.699 268.903C200.106 285.071 262.347 299.19 268.431 297.162C277.733 294.062 325.727 205.267 354.183 150.512C358.722 141.777 359.479 131.603 356.366 122.265L341.964 79.0561C339.305 71.0821 328.965 69.0565 323.495 75.4383C317.929 81.9316 307.384 79.6997 304.927 71.5082L303.819 67.8155C301.095 58.7363 289.847 55.5837 282.801 61.9248L268.893 74.4426C262.049 80.6018 251.304 79.0909 246.424 71.2833L245.433 69.6974C240.313 61.5054 228.513 61.1416 222.898 69.0025L218.375 75.3342C215.872 78.8387 210.821 79.2567 207.776 76.2115C204.412 72.8477 198.741 73.7679 196.614 78.0228L196.147 78.9568C193.14 84.9705 184.417 84.5355 182.024 78.2524L169.919 46.4778C165.526 34.9452 148.761 36.4222 146.452 48.5453L143.665 63.18C142.053 71.6409 130.246 72.4304 127.522 64.2594C125.12 57.0517 115.126 56.5271 111.982 63.4437L109.62 68.6394C106.181 76.2062 95.1984 75.4628 92.81 67.5016C90.5778 60.0608 80.5995 58.7553 76.5281 65.3713Z" fill="#4285F4"/>
<path d="M102.868 69.8878L83.5659 80.1823C69.728 87.5625 59.868 100.691 56.6371 116.037L55.9937 119.094C49.6741 149.112 67.131 179.035 96.3726 188.306L171.565 212.148C201.296 221.575 233.488 219.434 261.709 206.154L325.16 176.294C345.736 166.612 355.817 143.069 348.626 121.496L347.803 119.026C341.04 98.7378 320.104 86.7791 299.193 91.26L289.413 93.3558C281.591 95.032 273.452 92.6286 267.795 86.9719C260.618 79.7941 249.652 78.0146 240.573 82.5543L225.202 90.2397C218.431 93.6253 210.214 91.8207 205.485 85.9091C200.465 79.6341 191.579 78.0371 184.688 82.1716L176.307 87.2003C164.044 94.5582 148.179 91.1795 139.978 79.4637L139.399 78.6363C131.185 66.903 115.505 63.1479 102.868 69.8878Z" fill="#0F9D56"/>
<path d="M142.803 87.7575L133.569 96.9915C131.757 98.803 130.261 100.904 129.141 103.209L123.064 115.722C91.5769 180.548 132.755 257.186 204.191 266.711L231.401 270.339C307.081 280.43 373.889 220.552 372.114 144.222L371.442 115.326C371.333 110.648 369.897 106.097 367.301 102.204L367.05 101.826C359.945 91.1696 345.739 87.8367 334.47 93.9226C328.121 97.3511 321.578 100.829 315.896 103.828C306.926 108.562 298.263 109.921 293.932 100.75C289.913 92.2399 275.085 85.8277 269.864 93.6583L266.302 99.0021C261.537 106.149 251.626 107.587 245.027 102.088L240.568 98.3716C235.903 94.4843 228.956 95.1861 225.162 99.9276C220.382 105.903 211.081 105.178 207.285 98.5339L206.27 96.7581C202.269 89.756 192.704 88.4752 187.002 94.1778L186.037 95.1427C179.631 101.549 168.831 99.7963 164.779 91.6931L164.579 91.2912C160.428 82.9903 149.365 81.195 142.803 87.7575Z" fill="#F4B400"/>
<path d="M109.159 109.202L94.6222 140.383C93.2239 143.382 92.2748 146.571 91.8055 149.847L89.6045 165.21C78.5394 242.447 133.408 313.582 210.923 322.495L302.788 333.057C343.056 337.687 382.307 318.318 403.13 283.542C409.578 272.773 414.052 260.934 416.018 248.537C420.28 221.646 424.823 186.701 421.946 179.797C417.415 168.921 392.039 93.247 390.226 91.8876C388.414 90.5282 365.757 133.123 363.038 133.123C361.375 133.123 346.62 109.201 332.461 86.8284C325.488 75.8095 309.253 77.7344 304.809 89.9936L301.77 98.3745C297.357 110.546 279.885 109.76 276.582 97.2416C273.504 85.5735 257.68 83.8038 252.1 94.5036L244.765 108.571C237.898 121.738 219.372 122.582 211.337 110.093L206.192 102.096C197.978 89.3283 179.012 90.2743 172.11 103.796L169.637 108.64C163.365 120.926 145.811 120.932 139.531 108.649C133.124 96.1187 115.106 96.4464 109.159 109.202Z" fill="#DB4437"/>
<path d="M361.087 -7.5154L346.55 23.666C345.152 26.6653 344.203 29.8542 343.733 33.13L341.532 48.4934C330.467 125.73 385.336 196.865 462.851 205.778L554.716 216.34C594.984 220.97 634.235 201.601 655.058 166.825C661.506 156.056 665.98 144.217 667.945 131.82C672.208 104.929 676.751 69.9841 673.874 63.0799C669.342 52.2045 643.967 -23.4699 642.154 -24.8294C640.342 -26.1888 617.684 16.4064 614.966 16.4064C613.303 16.4064 598.548 -7.51551 584.389 -29.8885C577.416 -40.9075 561.181 -38.9825 556.736 -26.7233L553.698 -18.3424C549.285 -6.1707 531.813 -6.95662 528.51 -19.4754C525.432 -31.1434 509.608 -32.9132 504.028 -22.2134L496.693 -8.14603C489.826 5.02124 471.299 5.86493 463.265 -6.62377L458.12 -14.6209C449.906 -27.3887 430.94 -26.4426 424.037 -12.9207L421.565 -8.07718C415.293 4.20932 397.738 4.21481 391.459 -8.06777C385.052 -20.5982 367.034 -20.2705 361.087 -7.5154Z" fill="#4285F4"/>
<path d="M364.572 4.74261L343.133 39.5803C341.944 41.5137 340.999 43.5878 340.322 45.7547L336.857 56.8417C316.348 122.473 354.934 192.007 421.743 208.274C488.15 224.443 550.391 238.561 556.475 236.533C565.776 233.433 613.771 144.638 642.227 89.883C646.766 81.1484 647.523 70.9747 644.41 61.6362L630.007 18.4274C627.349 10.4534 617.009 8.42781 611.538 14.8096C605.973 21.3029 595.428 19.071 592.971 10.8795L591.863 7.18681C589.139 -1.89238 577.891 -5.04502 570.845 1.29606L556.936 13.8139C550.093 19.9731 539.347 18.4622 534.468 10.6546L533.476 9.06867C528.356 0.876747 516.557 0.512886 510.942 8.37381L506.419 14.7055C503.916 18.21 498.865 18.628 495.82 15.5828C492.456 12.219 486.785 13.1392 484.658 17.3941L484.191 18.3281C481.184 24.3418 472.461 23.9068 470.068 17.6237L457.963 -14.1509C453.57 -25.6835 436.805 -24.2065 434.496 -12.0834L431.708 2.55136C430.097 11.0123 418.29 11.8017 415.566 3.63068C413.164 -3.57702 403.17 -4.10159 400.026 2.81499L397.664 8.01075C394.224 15.5775 383.242 14.8342 380.854 6.87288C378.622 -0.567902 368.643 -1.87342 364.572 4.74261Z" fill="#0F9D56"/>
<path d="M364.762 21.3774L345.46 31.6719C331.622 39.0521 321.762 52.1805 318.531 67.5271L317.888 70.5833C311.568 100.602 329.025 130.524 358.267 139.796L433.46 163.638C463.19 173.064 495.383 170.924 523.603 157.643L587.054 127.784C607.63 118.101 617.711 94.5589 610.52 72.9855L609.697 70.5155C602.934 50.2274 581.998 38.2687 561.087 42.7496L551.307 44.8454C543.485 46.5216 535.346 44.1181 529.69 38.4615C522.512 31.2837 511.546 29.5042 502.467 34.0439L487.096 41.7293C480.325 45.1149 472.109 43.3103 467.379 37.3987C462.359 31.1237 453.473 29.5267 446.582 33.6612L438.201 38.6899C425.938 46.0478 410.073 42.6691 401.872 30.9533L401.293 30.1259C393.08 18.3926 377.4 14.6375 364.762 21.3774Z" fill="#F4B400"/>
<path d="M352.472 48.2186L343.238 57.4527C341.426 59.2641 339.93 61.3654 338.811 63.6698L332.733 76.1831C301.246 141.009 342.425 217.647 413.86 227.172L441.07 230.8C516.75 240.891 583.558 181.013 581.783 104.684L581.111 75.7874C581.003 71.1093 579.567 66.5584 576.971 62.6649L576.719 62.2874C569.615 51.6307 555.408 48.2978 544.139 54.3837C537.79 57.8122 531.247 61.2901 525.566 64.2888C516.596 69.0233 507.933 70.3822 503.601 61.2108C499.582 52.701 484.754 46.2888 479.534 54.1194L475.971 59.4632C471.206 66.6105 461.295 68.0479 454.696 62.5487L450.237 58.8327C445.573 54.9455 438.625 55.6472 434.832 60.3887C430.051 66.3646 420.751 65.6396 416.954 58.995L415.939 57.2192C411.938 50.2171 402.374 48.9363 396.671 54.6389L395.706 55.6038C389.3 62.01 378.501 60.2574 374.449 52.1542L374.248 51.7524C370.098 43.4514 359.034 41.6561 352.472 48.2186Z" fill="#DB4437"/>
<path d="M328.456 65.3713L307.017 100.209C305.828 102.142 304.883 104.217 304.206 106.383L300.741 117.47C280.232 183.101 318.818 252.636 385.627 268.903C452.034 285.071 514.275 299.19 520.359 297.162C529.66 294.062 577.655 205.267 606.111 150.512C610.65 141.777 611.407 131.603 608.294 122.265L593.891 79.0561C591.233 71.0821 580.893 69.0565 575.423 75.4383C569.857 81.9316 559.312 79.6997 556.855 71.5082L555.747 67.8155C553.023 58.7363 541.775 55.5837 534.729 61.9248L520.82 74.4426C513.977 80.6018 503.232 79.0909 498.352 71.2833L497.36 69.6974C492.241 61.5054 480.441 61.1416 474.826 69.0025L470.303 75.3342C467.8 78.8387 462.749 79.2567 459.704 76.2115C456.34 72.8477 450.669 73.7679 448.542 78.0228L448.075 78.9568C445.068 84.9705 436.345 84.5355 433.952 78.2524L421.847 46.4778C417.454 34.9452 400.689 36.4222 398.38 48.5453L395.593 63.18C393.981 71.6409 382.174 72.4304 379.45 64.2594C377.048 57.0517 367.054 56.5271 363.91 63.4437L361.548 68.6394C358.109 76.2062 347.126 75.4628 344.738 67.5016C342.506 60.0608 332.527 58.7553 328.456 65.3713Z" fill="#4285F4"/>
<path d="M354.796 69.8878L335.494 80.1823C321.656 87.5625 311.796 100.691 308.565 116.037L307.922 119.094C301.602 149.112 319.059 179.035 348.301 188.306L423.493 212.148C453.224 221.575 485.416 219.434 513.637 206.154L577.088 176.294C597.664 166.612 607.745 143.069 600.554 121.496L599.731 119.026C592.968 98.7378 572.032 86.7791 551.121 91.26L541.341 93.3558C533.519 95.032 525.38 92.6286 519.723 86.9719C512.545 79.7941 501.58 78.0146 492.501 82.5543L477.13 90.2397C470.359 93.6253 462.142 91.8207 457.413 85.9091C452.393 79.6341 443.507 78.0371 436.616 82.1716L428.235 87.2003C415.972 94.5582 400.107 91.1795 391.906 79.4637L391.327 78.6363C383.113 66.903 367.433 63.1479 354.796 69.8878Z" fill="#0F9D56"/>
<path d="M394.73 87.7575L385.496 96.9915C383.685 98.803 382.189 100.904 381.069 103.209L374.992 115.722C343.505 180.548 384.683 257.186 456.119 266.711L483.328 270.339C559.009 280.43 625.817 220.552 624.042 144.222L623.37 115.326C623.261 110.648 621.825 106.097 619.229 102.204L618.978 101.826C611.873 91.1696 597.667 87.8367 586.397 93.9226C580.049 97.3511 573.505 100.829 567.824 103.828C558.854 108.562 550.191 109.921 545.86 100.75C541.841 92.2399 527.012 85.8277 521.792 93.6583L518.23 99.0021C513.465 106.149 503.554 107.587 496.955 102.088L492.496 98.3716C487.831 94.4843 480.883 95.1861 477.09 99.9276C472.31 105.903 463.009 105.178 459.212 98.5339L458.198 96.7581C454.196 89.756 444.632 88.4752 438.93 94.1778L437.965 95.1427C431.559 101.549 420.759 99.7963 416.707 91.6931L416.506 91.2912C412.356 82.9903 401.293 81.195 394.73 87.7575Z" fill="#F4B400"/>
<path d="M361.087 109.202L346.55 140.383C345.152 143.382 344.203 146.571 343.733 149.847L341.532 165.21C330.467 242.447 385.336 313.582 462.851 322.495L554.716 333.057C594.984 337.687 634.235 318.318 655.058 283.542C661.506 272.773 665.98 260.934 667.945 248.537C672.208 221.646 676.751 186.701 673.874 179.797C669.342 168.921 643.967 93.247 642.154 91.8876C640.342 90.5282 617.684 133.123 614.966 133.123C613.303 133.123 598.548 109.201 584.389 86.8284C577.416 75.8095 561.181 77.7344 556.736 89.9936L553.698 98.3745C549.285 110.546 531.813 109.76 528.51 97.2416C525.432 85.5735 509.608 83.8038 504.028 94.5036L496.693 108.571C489.826 121.738 471.299 122.582 463.265 110.093L458.12 102.096C449.906 89.3283 430.94 90.2743 424.037 103.796L421.565 108.64C415.293 120.926 397.738 120.932 391.459 108.649C385.052 96.1187 367.034 96.4464 361.087 109.202Z" fill="#DB4437"/>
</g>
</svg>
