<svg width="325" height="179" viewBox="0 0 325 179" fill="none" xmlns="http://www.w3.org/2000/svg">
<path d="M60.7906 128.949H66.9346L79.8466 163.317H73.8946L70.8226 154.533H56.9506L53.8306 163.317H47.8786L60.7906 128.949ZM68.9986 149.541L65.3506 139.317L64.0066 135.333H63.7186L62.3746 139.317L58.7266 149.541H68.9986ZM91.9969 163.701C90.9089 163.701 89.8849 163.525 88.9249 163.173C87.9649 162.821 87.1809 162.357 86.5729 161.781C85.1969 160.405 84.5089 158.533 84.5089 156.165V143.493H80.2369V138.837H84.5089V131.925H89.7889V138.837H100.109V131.925H105.389V138.837H111.341V143.493H105.389V155.013C105.389 156.325 105.645 157.253 106.157 157.797C106.637 158.437 107.469 158.757 108.653 158.757C109.197 158.757 109.677 158.693 110.093 158.565C110.509 158.405 110.957 158.165 111.437 157.845V162.981C110.349 163.461 109.069 163.701 107.597 163.701C106.509 163.701 105.485 163.525 104.525 163.173C103.565 162.821 102.781 162.357 102.173 161.781C100.797 160.405 100.109 158.533 100.109 156.165V143.493H89.7889V155.013C89.7889 156.325 90.0449 157.253 90.5569 157.797C91.0369 158.437 91.8529 158.757 93.0049 158.757C93.8369 158.757 94.6849 158.485 95.5489 157.941V163.077C95.0369 163.301 94.5089 163.461 93.9649 163.557C93.4529 163.653 92.7969 163.701 91.9969 163.701ZM126.618 164.085C124.218 164.085 122.058 163.525 120.138 162.405C118.25 161.285 116.762 159.749 115.674 157.797C114.618 155.813 114.09 153.589 114.09 151.125C114.09 148.789 114.602 146.629 115.626 144.645C116.682 142.629 118.138 141.029 119.994 139.845C121.85 138.661 123.962 138.069 126.33 138.069C128.794 138.069 130.922 138.613 132.714 139.701C134.538 140.789 135.914 142.277 136.842 144.165C137.802 146.053 138.282 148.181 138.282 150.549C138.282 150.997 138.234 151.557 138.138 152.229H119.37C119.562 154.501 120.362 156.261 121.77 157.509C123.21 158.725 124.874 159.333 126.762 159.333C128.266 159.333 129.562 158.997 130.65 158.325C131.77 157.621 132.666 156.677 133.338 155.493L137.802 157.605C136.65 159.621 135.146 161.205 133.29 162.357C131.434 163.509 129.21 164.085 126.618 164.085ZM132.906 148.197C132.842 147.333 132.57 146.485 132.09 145.653C131.61 144.789 130.874 144.069 129.882 143.493C128.922 142.917 127.738 142.629 126.33 142.629C124.634 142.629 123.194 143.141 122.01 144.165C120.858 145.157 120.058 146.501 119.61 148.197H132.906ZM143.09 138.837H148.13V142.053H148.37C149.074 140.901 150.114 139.957 151.49 139.221C152.898 138.453 154.386 138.069 155.954 138.069C158.93 138.069 161.186 138.949 162.722 140.709C164.29 142.437 165.074 144.805 165.074 147.813V163.317H159.794V148.533C159.794 146.613 159.314 145.205 158.354 144.309C157.426 143.413 156.13 142.965 154.466 142.965C153.282 142.965 152.226 143.301 151.298 143.973C150.37 144.613 149.65 145.477 149.138 146.565C148.626 147.653 148.37 148.821 148.37 150.069V163.317H143.09V138.837ZM181.491 164.085C179.283 164.085 177.283 163.525 175.491 162.405C173.699 161.285 172.275 159.749 171.219 157.797C170.195 155.813 169.683 153.573 169.683 151.077C169.683 148.581 170.195 146.357 171.219 144.405C172.275 142.421 173.699 140.869 175.491 139.749C177.283 138.629 179.283 138.069 181.491 138.069C183.219 138.069 184.771 138.453 186.147 139.221C187.523 139.989 188.563 140.933 189.267 142.053H189.507L189.267 138.597V128.949H194.547V163.317H189.507V160.149H189.267C188.563 161.237 187.523 162.165 186.147 162.933C184.771 163.701 183.219 164.085 181.491 164.085ZM182.259 159.237C183.539 159.237 184.723 158.901 185.811 158.229C186.931 157.557 187.827 156.597 188.499 155.349C189.171 154.101 189.507 152.677 189.507 151.077C189.507 149.477 189.171 148.069 188.499 146.853C187.827 145.605 186.931 144.645 185.811 143.973C184.723 143.301 183.539 142.965 182.259 142.965C180.979 142.965 179.779 143.301 178.659 143.973C177.539 144.645 176.643 145.605 175.971 146.853C175.299 148.069 174.963 149.477 174.963 151.077C174.963 152.677 175.299 154.101 175.971 155.349C176.643 156.597 177.539 157.557 178.659 158.229C179.779 158.901 180.979 159.237 182.259 159.237ZM211.649 164.085C209.249 164.085 207.089 163.525 205.169 162.405C203.281 161.285 201.793 159.749 200.705 157.797C199.649 155.813 199.121 153.589 199.121 151.125C199.121 148.789 199.633 146.629 200.657 144.645C201.713 142.629 203.169 141.029 205.025 139.845C206.881 138.661 208.993 138.069 211.361 138.069C213.825 138.069 215.953 138.613 217.745 139.701C219.569 140.789 220.945 142.277 221.873 144.165C222.833 146.053 223.313 148.181 223.313 150.549C223.313 150.997 223.265 151.557 223.169 152.229H204.401C204.593 154.501 205.393 156.261 206.801 157.509C208.241 158.725 209.905 159.333 211.793 159.333C213.297 159.333 214.593 158.997 215.681 158.325C216.801 157.621 217.697 156.677 218.369 155.493L222.833 157.605C221.681 159.621 220.177 161.205 218.321 162.357C216.465 163.509 214.241 164.085 211.649 164.085ZM217.937 148.197C217.873 147.333 217.601 146.485 217.121 145.653C216.641 144.789 215.905 144.069 214.913 143.493C213.953 142.917 212.769 142.629 211.361 142.629C209.665 142.629 208.225 143.141 207.041 144.165C205.889 145.157 205.089 146.501 204.641 148.197H217.937ZM239.54 164.085C237.14 164.085 234.98 163.525 233.06 162.405C231.172 161.285 229.684 159.749 228.596 157.797C227.54 155.813 227.012 153.589 227.012 151.125C227.012 148.789 227.524 146.629 228.548 144.645C229.604 142.629 231.06 141.029 232.916 139.845C234.772 138.661 236.884 138.069 239.252 138.069C241.716 138.069 243.844 138.613 245.636 139.701C247.46 140.789 248.836 142.277 249.764 144.165C250.724 146.053 251.204 148.181 251.204 150.549C251.204 150.997 251.156 151.557 251.06 152.229H232.292C232.484 154.501 233.284 156.261 234.692 157.509C236.132 158.725 237.796 159.333 239.684 159.333C241.188 159.333 242.484 158.997 243.572 158.325C244.692 157.621 245.588 156.677 246.26 155.493L250.724 157.605C249.572 159.621 248.068 161.205 246.212 162.357C244.356 163.509 242.132 164.085 239.54 164.085ZM245.828 148.197C245.764 147.333 245.492 146.485 245.012 145.653C244.532 144.789 243.796 144.069 242.804 143.493C241.844 142.917 240.66 142.629 239.252 142.629C237.556 142.629 236.116 143.141 234.932 144.165C233.78 145.157 232.98 146.501 232.532 148.197H245.828ZM265.174 164.085C262.358 164.085 260.054 163.477 258.262 162.261C256.47 161.013 255.206 159.429 254.47 157.509L259.174 155.445C259.75 156.725 260.55 157.701 261.574 158.373C262.63 159.045 263.83 159.381 265.174 159.381C266.486 159.381 267.59 159.157 268.486 158.709C269.382 158.229 269.83 157.525 269.83 156.597C269.83 155.701 269.446 154.997 268.678 154.485C267.91 153.973 266.726 153.525 265.126 153.141L262.198 152.421C260.246 151.941 258.63 151.093 257.35 149.877C256.07 148.661 255.43 147.125 255.43 145.269C255.43 143.829 255.846 142.565 256.678 141.477C257.542 140.389 258.694 139.557 260.134 138.981C261.574 138.373 263.142 138.069 264.838 138.069C267.11 138.069 269.11 138.533 270.838 139.461C272.566 140.357 273.814 141.669 274.582 143.397L269.974 145.413C269.046 143.525 267.35 142.581 264.886 142.581C263.702 142.581 262.71 142.821 261.91 143.301C261.11 143.781 260.71 144.405 260.71 145.173C260.71 145.909 261.014 146.517 261.622 146.997C262.23 147.445 263.126 147.829 264.31 148.149L267.91 149.061C270.31 149.669 272.118 150.597 273.334 151.845C274.582 153.061 275.206 154.565 275.206 156.357C275.206 157.893 274.758 159.253 273.862 160.437C272.998 161.589 271.798 162.485 270.262 163.125C268.726 163.765 267.03 164.085 265.174 164.085Z" fill="white"/>
<mask id="mask0_1095_1902" style="mask-type:alpha" maskUnits="userSpaceOnUse" x="0" y="0" width="325" height="108">
<path d="M32.9415 107.317C28.1048 107.317 23.4472 106.325 18.9688 104.341C14.4903 102.258 10.5493 99.1834 7.1457 95.1166C3.83166 90.9506 1.54766 85.8424 0.293701 79.7918L16.1473 72.9477C17.2222 78.0064 19.1927 82.0236 22.0589 84.9993C24.9251 87.8758 28.5078 89.314 32.8071 89.314C37.1064 89.314 40.6892 87.727 43.5554 84.5529C46.4215 81.3788 47.8546 77.3616 47.8546 72.5013C47.8546 67.7402 46.4215 63.7726 43.5554 60.5985C40.7787 57.3253 37.196 55.6886 32.8071 55.6886C30.1201 55.6886 27.6569 56.3334 25.4177 57.6228C23.2681 58.8131 21.4319 60.4497 19.9092 62.5327L2.84641 54.052L8.08617 3.16755H59.9464V20.2778H22.7306L19.3718 44.0834L20.4466 44.381C24.9251 40.3142 30.2544 38.2808 36.4346 38.2808C41.5401 38.2808 46.2872 39.719 50.6761 42.5955C55.1545 45.4721 58.7372 49.5388 61.4243 54.7959C64.1114 59.9538 65.4549 65.8556 65.4549 72.5013C65.4549 79.2462 64.0666 85.2472 61.2899 90.5043C58.5133 95.7614 54.6619 99.8777 49.7356 102.853C44.8093 105.829 39.2113 107.317 32.9415 107.317Z" fill="white"/>
<path d="M118.113 107.317C110.41 107.317 103.648 105.036 97.8255 100.473C92.0036 95.811 87.4804 89.4628 84.2559 81.4284C81.121 73.2948 79.5535 64.1694 79.5535 54.052C79.5535 43.9346 81.121 34.8587 84.2559 26.8243C87.4804 18.6908 92.0036 12.3426 97.8255 7.77988C103.648 3.11795 110.41 0.786987 118.113 0.786987C125.816 0.786987 132.578 3.11795 138.4 7.77988C144.222 12.3426 148.701 18.6908 151.835 26.8243C155.06 34.8587 156.672 43.9346 156.672 54.052C156.672 64.1694 155.06 73.2948 151.835 81.4284C148.701 89.4628 144.222 95.811 138.4 100.473C132.578 105.036 125.816 107.317 118.113 107.317ZM118.113 89.0164C122.412 89.0164 126.129 87.5286 129.264 84.5529C132.489 81.478 134.907 77.312 136.519 72.055C138.221 66.6987 139.072 60.6977 139.072 54.052C139.072 43.7362 137.191 35.3547 133.429 28.9073C129.667 22.3608 124.562 19.0875 118.113 19.0875C111.753 19.0875 106.693 22.3608 102.931 28.9073C99.1691 35.4539 97.2881 43.8354 97.2881 54.052C97.2881 60.6977 98.0942 66.6987 99.7065 72.055C101.408 77.312 103.827 81.478 106.962 84.5529C110.186 87.5286 113.903 89.0164 118.113 89.0164Z" fill="white"/>
<path d="M208.775 107.317C201.072 107.317 194.31 105.036 188.488 100.473C182.666 95.811 178.142 89.4628 174.918 81.4284C171.783 73.2948 170.216 64.1694 170.216 54.052C170.216 43.9346 171.783 34.8587 174.918 26.8243C178.142 18.6908 182.666 12.3426 188.488 7.77988C194.31 3.11795 201.072 0.786987 208.775 0.786987C216.478 0.786987 223.24 3.11795 229.062 7.77988C234.884 12.3426 239.363 18.6908 242.497 26.8243C245.722 34.8587 247.334 43.9346 247.334 54.052C247.334 64.1694 245.722 73.2948 242.497 81.4284C239.363 89.4628 234.884 95.811 229.062 100.473C223.24 105.036 216.478 107.317 208.775 107.317ZM208.775 89.0164C213.074 89.0164 216.791 87.5286 219.926 84.5529C223.151 81.478 225.569 77.312 227.181 72.055C228.883 66.6987 229.734 60.6977 229.734 54.052C229.734 43.7362 227.853 35.3547 224.091 28.9073C220.329 22.3608 215.224 19.0875 208.775 19.0875C202.415 19.0875 197.355 22.3608 193.593 28.9073C189.831 35.4539 187.95 43.8354 187.95 54.052C187.95 60.6977 188.756 66.6987 190.368 72.055C192.07 77.312 194.489 81.478 197.624 84.5529C200.848 87.5286 204.565 89.0164 208.775 89.0164Z" fill="white"/>
<path d="M324.023 73.2452H301.049V98.5387H285.464V73.2452H262.624V55.9862H285.464V30.6928H301.049V55.9862H324.023V73.2452Z" fill="white"/>
</mask>
<g mask="url(#mask0_1095_1902)">
<path d="M-264.511 -43.0304L-282.764 -3.87947C-284.52 -0.113555 -285.712 3.89035 -286.301 8.00344L-289.064 27.2935C-302.958 124.271 -234.065 213.587 -136.739 224.778L-21.3941 238.04C29.1664 243.853 78.449 219.534 104.594 175.869C112.69 162.348 118.308 147.483 120.775 131.918C126.128 98.1539 131.831 54.2769 128.219 45.6081C122.53 31.9531 90.6679 -63.0627 88.3921 -64.7696C86.1163 -66.4764 57.6684 -12.9945 54.2547 -12.9945C52.1666 -12.9945 33.6408 -43.0305 15.863 -71.1218C7.10727 -84.957 -13.2763 -82.5401 -18.8571 -67.1476L-22.6724 -56.6246C-28.2134 -41.342 -50.1511 -42.3288 -54.2976 -58.0472C-58.1624 -72.6974 -78.0311 -74.9195 -85.0368 -61.485L-94.2474 -43.8222C-102.869 -27.2895 -126.131 -26.2302 -136.219 -41.9109L-142.679 -51.9519C-152.993 -67.983 -176.805 -66.7951 -185.472 -49.8172L-188.577 -43.7358C-196.452 -28.309 -218.493 -28.3021 -226.378 -43.7239C-234.422 -59.457 -257.045 -59.0456 -264.511 -43.0304Z" fill="#4285F4"/>
<path d="M-260.136 -27.6394L-287.054 16.1023C-288.548 18.5299 -289.734 21.1341 -290.584 23.8548L-294.934 37.7755C-320.686 120.181 -272.237 207.487 -188.353 227.912C-104.974 248.213 -26.8241 265.94 -19.1854 263.394C-7.50676 259.501 52.7543 148.012 88.4836 79.2618C94.1831 68.2947 95.1334 55.5208 91.2249 43.7954L73.1408 -10.457C69.8034 -20.469 56.8197 -23.0123 49.9515 -14.9994C42.9633 -6.84648 29.7237 -9.64883 26.6382 -19.934L25.2472 -24.5705C21.8273 -35.9702 7.70385 -39.9286 -1.14255 -31.9668L-18.6061 -16.2496C-27.1989 -8.51616 -40.6906 -10.4132 -46.8176 -20.2164L-48.0621 -22.2076C-54.4907 -32.4933 -69.3064 -32.9502 -76.3565 -23.0801L-82.035 -15.1301C-85.178 -10.7299 -91.5199 -10.205 -95.3435 -14.0286C-99.567 -18.2521 -106.687 -17.0967 -109.358 -11.7544L-109.944 -10.5816C-113.72 -3.03088 -124.672 -3.57714 -127.677 -11.4661L-142.876 -51.3619C-148.392 -65.842 -169.441 -63.9875 -172.341 -48.7659L-175.841 -30.3907C-177.864 -19.7673 -192.689 -18.7761 -196.109 -29.0355C-199.125 -38.0854 -211.674 -38.7441 -215.621 -30.0597L-218.586 -23.536C-222.905 -14.0352 -236.694 -14.9686 -239.693 -24.9646C-242.496 -34.3072 -255.024 -35.9464 -260.136 -27.6394Z" fill="#0F9D56"/>
<path d="M-259.897 -6.75296L-284.133 6.17262C-301.508 15.4391 -313.888 31.923 -317.944 51.1919L-318.752 55.0293C-326.687 92.7199 -304.768 130.29 -268.053 141.932L-173.642 171.867C-136.313 183.703 -95.8922 181.015 -60.4592 164.341L19.2091 126.85C45.044 114.692 57.7022 85.1328 48.6731 58.0455L47.6393 54.9441C39.1482 29.4708 12.8612 14.4555 -13.3941 20.0817L-25.6743 22.7131C-35.4957 24.8177 -45.7143 21.8 -52.8167 14.6976C-61.8291 5.6852 -75.5973 3.45093 -86.9972 9.15086L-106.297 18.8006C-114.798 23.0515 -125.115 20.7857 -131.053 13.3632C-137.356 5.48436 -148.513 3.47921 -157.165 8.67038L-167.688 14.9844C-183.086 24.2228 -203.006 19.9807 -213.303 5.27041L-214.03 4.23156C-224.342 -10.5006 -244.03 -15.2155 -259.897 -6.75296Z" fill="#F4B400"/>
<path d="M-275.329 26.9485L-286.923 38.5426C-289.197 40.8171 -291.076 43.4555 -292.481 46.3488L-300.113 62.0603C-339.647 143.454 -287.944 239.681 -198.25 251.64L-164.086 256.195C-69.0629 268.865 14.8202 193.684 12.5913 97.8451L11.7476 61.5635C11.611 55.6897 9.80814 49.9757 6.54905 45.0871L6.23309 44.6131C-2.68718 31.2327 -20.5245 27.0479 -34.6742 34.6894C-42.6454 38.9941 -50.8614 43.3609 -57.9948 47.126C-69.2575 53.0705 -80.1341 54.7768 -85.5728 43.2613C-90.6192 32.5765 -109.237 24.5255 -115.792 34.3574L-120.265 41.067C-126.248 50.0412 -138.691 51.8459 -146.977 44.9411L-152.576 40.2754C-158.433 35.3946 -167.156 36.2757 -171.919 42.229C-177.922 49.7323 -189.599 48.822 -194.366 40.4792L-195.64 38.2496C-200.664 29.4577 -212.673 27.8496 -219.833 35.0098L-221.044 36.2213C-229.088 44.2648 -242.648 42.0643 -247.735 31.89L-247.987 31.3854C-253.198 20.9629 -267.089 18.7088 -275.329 26.9485Z" fill="#DB4437"/>
<path d="M-305.483 48.4852L-332.401 92.2269C-333.895 94.6545 -335.081 97.2587 -335.931 99.9794L-340.281 113.9C-366.033 196.305 -317.584 283.612 -233.7 304.036C-150.32 324.338 -72.1707 342.065 -64.532 339.519C-52.8534 335.626 7.40766 224.136 43.137 155.386C48.8365 144.419 49.7868 131.645 45.8783 119.92L27.7942 65.6676C24.4568 55.6556 11.4731 53.1123 4.60494 61.1251C-2.3833 69.2781 -15.6229 66.4758 -18.7084 56.1905L-20.0994 51.5541C-23.5193 40.1544 -37.6428 36.196 -46.4892 44.1577L-63.9527 59.875C-72.5455 67.6084 -86.0372 65.7114 -92.1642 55.9082L-93.4087 53.9169C-99.8373 43.6313 -114.653 43.1744 -121.703 53.0445L-127.382 60.9945C-130.525 65.3947 -136.866 65.9196 -140.69 62.0959C-144.914 57.8725 -152.034 59.0279 -154.705 64.3702L-155.291 65.543C-159.066 73.0937 -170.019 72.5474 -173.024 64.6585L-188.222 24.7627C-193.739 10.2825 -214.788 12.1371 -217.687 27.3587L-221.187 45.7339C-223.211 56.3573 -238.035 57.3485 -241.455 47.0891C-244.472 38.0392 -257.02 37.3805 -260.968 46.0649L-263.933 52.5886C-268.252 62.0894 -282.041 61.156 -285.04 51.1599C-287.842 41.8174 -300.371 40.1782 -305.483 48.4852Z" fill="#4285F4"/>
<path d="M-272.411 54.1561L-296.646 67.0816C-314.021 76.3481 -326.401 92.832 -330.458 112.101L-331.266 115.938C-339.201 153.629 -317.282 191.199 -280.566 202.841L-186.155 232.776C-148.826 244.612 -108.406 241.924 -72.9728 225.25L6.69559 187.759C32.5304 175.601 45.1886 146.042 36.1595 118.955L35.1257 115.853C26.6346 90.3798 0.347624 75.3645 -25.9076 80.9907L-38.1879 83.6221C-48.0092 85.7267 -58.2279 82.709 -65.3303 75.6066C-74.3427 66.5942 -88.1109 64.3599 -99.5108 70.0599L-118.81 79.7096C-127.312 83.9605 -137.628 81.6947 -143.566 74.2722C-149.869 66.3934 -161.027 64.3882 -169.679 69.5794L-180.202 75.8934C-195.599 85.1318 -215.519 80.8897 -225.816 66.1794L-226.544 65.1406C-236.856 50.4084 -256.544 45.6935 -272.411 54.1561Z" fill="#0F9D56"/>
<path d="M-222.27 76.593L-233.864 88.1871C-236.138 90.4616 -238.017 93.1 -239.422 95.9933L-247.054 111.705C-286.588 193.099 -234.885 289.325 -145.191 301.285L-111.027 305.84C-16.0038 318.51 67.8793 243.328 65.6505 147.49L64.8067 111.208C64.6701 105.334 62.8673 99.6202 59.6082 94.7316L59.2922 94.2576C50.372 80.8772 32.5347 76.6924 18.3849 84.3339C10.4138 88.6386 2.19778 93.0054 -4.93566 96.7705C-16.1984 102.715 -27.075 104.421 -32.5137 92.9058C-37.56 82.221 -56.1782 74.17 -62.7328 84.0019L-67.2059 90.7115C-73.1886 99.6857 -85.6323 101.49 -93.9181 94.5856L-99.5169 89.9199C-105.374 85.0391 -114.097 85.9202 -118.86 91.8735C-124.862 99.3768 -136.54 98.4665 -141.307 90.1237L-142.581 87.8941C-147.605 79.1023 -159.613 77.4941 -166.774 84.6543L-167.985 85.8658C-176.029 93.9093 -189.589 91.7088 -194.676 81.5345L-194.928 81.0299C-200.139 70.6074 -214.03 68.3533 -222.27 76.593Z" fill="#F4B400"/>
<path d="M-264.511 103.518L-282.764 142.669C-284.52 146.435 -285.712 150.439 -286.301 154.552L-289.064 173.842C-302.958 270.819 -234.065 360.135 -136.739 371.326L-21.3941 384.588C29.1664 390.401 78.449 366.082 104.594 322.417C112.69 308.896 118.308 294.031 120.775 278.466C126.128 244.702 131.831 200.825 128.219 192.156C122.53 178.501 90.6679 83.4855 88.3921 81.7787C86.1163 80.0718 57.6684 133.554 54.2547 133.554C52.1666 133.554 33.6408 103.518 15.863 75.4264C7.10727 61.5912 -13.2763 64.0081 -18.8571 79.4007L-22.6724 89.9236C-28.2134 105.206 -50.1511 104.219 -54.2976 88.5011C-58.1624 73.8508 -78.0311 71.6288 -85.0368 85.0633L-94.2474 102.726C-102.869 119.259 -126.131 120.318 -136.219 104.637L-142.679 94.5963C-152.993 78.5653 -176.805 79.7531 -185.472 96.731L-188.577 102.812C-196.452 118.239 -218.493 118.246 -226.378 102.824C-234.422 87.0912 -257.045 87.5027 -264.511 103.518Z" fill="#DB4437"/>
<path d="M30.5652 -43.0304L12.3124 -3.87947C10.5567 -0.113555 9.36506 3.89035 8.77581 8.00344L6.01225 27.2935C-7.88093 124.271 61.0117 213.587 158.338 224.778L273.683 238.04C324.243 243.853 373.526 219.534 399.671 175.869C407.767 162.348 413.385 147.483 415.852 131.918C421.204 98.1539 426.908 54.2769 423.296 45.6081C417.606 31.9531 385.745 -63.0627 383.469 -64.7696C381.193 -66.4764 352.745 -12.9945 349.331 -12.9945C347.243 -12.9945 328.717 -43.0305 310.94 -71.1218C302.184 -84.957 281.8 -82.5401 276.22 -67.1476L272.404 -56.6246C266.863 -41.342 244.926 -42.3288 240.779 -58.0472C236.914 -72.6974 217.046 -74.9195 210.04 -61.485L200.829 -43.8222C192.208 -27.2895 168.946 -26.2302 158.858 -41.9109L152.398 -51.9519C142.084 -67.983 118.272 -66.7951 109.604 -49.8172L106.5 -43.7358C98.6248 -28.309 76.5839 -28.3021 68.699 -43.7239C60.655 -59.457 38.0318 -59.0456 30.5652 -43.0304Z" fill="#4285F4"/>
<path d="M34.9403 -27.6394L8.02238 16.1023C6.52847 18.5299 5.34272 21.1341 4.49251 23.8548L0.142273 37.7755C-25.6094 120.181 22.8392 207.487 106.724 227.912C190.103 248.213 268.253 265.94 275.891 263.394C287.57 259.501 347.831 148.012 383.56 79.2618C389.26 68.2947 390.21 55.5208 386.302 43.7954L368.217 -10.457C364.88 -20.469 351.896 -23.0123 345.028 -14.9994C338.04 -6.84648 324.8 -9.64883 321.715 -19.934L320.324 -24.5705C316.904 -35.9702 302.781 -39.9286 293.934 -31.9668L276.471 -16.2496C267.878 -8.51616 254.386 -10.4132 248.259 -20.2164L247.015 -22.2076C240.586 -32.4933 225.77 -32.9502 218.72 -23.0801L213.042 -15.1301C209.899 -10.7299 203.557 -10.205 199.733 -14.0286C195.51 -18.2521 188.39 -17.0967 185.719 -11.7544L185.132 -10.5816C181.357 -3.03088 170.405 -3.57714 167.399 -11.4661L152.201 -51.3619C146.685 -65.842 125.635 -63.9875 122.736 -48.7659L119.236 -30.3907C117.212 -19.7673 102.388 -18.7761 98.9681 -29.0355C95.9514 -38.0854 83.403 -38.7441 79.4555 -30.0597L76.4902 -23.536C72.1717 -14.0352 58.3825 -14.9686 55.3837 -24.9646C52.5809 -34.3072 40.0523 -35.9464 34.9403 -27.6394Z" fill="#0F9D56"/>
<path d="M35.1792 -6.75296L10.9438 6.17262C-6.43091 15.4391 -18.811 31.923 -22.8676 51.1919L-23.6754 55.0293C-31.6103 92.7199 -9.69162 130.29 27.0238 141.932L121.435 171.867C158.764 183.703 199.184 181.015 234.617 164.341L314.286 126.85C340.121 114.692 352.779 85.1328 343.75 58.0455L342.716 54.9441C334.225 29.4708 307.938 14.4555 281.683 20.0817L269.402 22.7131C259.581 24.8177 249.362 21.8 242.26 14.6976C233.248 5.6852 219.479 3.45093 208.079 9.15086L188.78 18.8006C180.278 23.0515 169.962 20.7857 164.024 13.3632C157.721 5.48436 146.564 3.47921 137.912 8.67038L127.388 14.9844C111.991 24.2228 92.0711 19.9807 81.7739 5.27041L81.0467 4.23156C70.7342 -10.5006 51.0465 -15.2155 35.1792 -6.75296Z" fill="#F4B400"/>
<path d="M19.7479 26.9485L8.15374 38.5426C5.87926 40.8171 4.00056 43.4555 2.59521 46.3488L-5.03607 62.0603C-44.5703 143.454 7.13286 239.681 96.8264 251.64L130.99 256.195C226.014 268.865 309.897 193.684 307.668 97.8451L306.824 61.5635C306.688 55.6897 304.885 49.9757 301.626 45.0871L301.31 44.6131C292.389 31.2327 274.552 27.0479 260.402 34.6894C252.431 38.9941 244.215 43.3609 237.082 47.126C225.819 53.0705 214.943 54.7768 209.504 43.2613C204.458 32.5765 185.839 24.5255 179.285 34.3574L174.812 41.067C168.829 50.0412 156.385 51.8459 148.099 44.9411L142.501 40.2754C136.644 35.3946 127.92 36.2757 123.158 42.229C117.155 49.7323 105.478 48.822 100.711 40.4792L99.4365 38.2496C94.4126 29.4577 82.404 27.8496 75.2439 35.0098L74.0324 36.2213C65.9889 44.2648 52.429 42.0643 47.3418 31.89L47.0896 31.3854C41.8783 20.9629 27.9876 18.7088 19.7479 26.9485Z" fill="#DB4437"/>
<path d="M-10.4063 48.4852L-37.3242 92.2269C-38.8181 94.6545 -40.0039 97.2587 -40.8541 99.9794L-45.2043 113.9C-70.956 196.305 -22.5074 283.612 61.3771 304.036C144.756 324.338 222.906 342.065 230.545 339.519C242.223 335.626 302.484 224.136 338.214 155.386C343.913 144.419 344.863 131.645 340.955 119.92L322.871 65.6676C319.533 55.6556 306.55 53.1123 299.682 61.1251C292.693 69.2781 279.454 66.4758 276.368 56.1905L274.977 51.5541C271.557 40.1544 257.434 36.196 248.588 44.1577L231.124 59.875C222.531 67.6084 209.039 65.7114 202.913 55.9082L201.668 53.9169C195.239 43.6313 180.424 43.1744 173.374 53.0445L167.695 60.9945C164.552 65.3947 158.21 65.9196 154.387 62.0959C150.163 57.8725 143.043 59.0279 140.372 64.3702L139.786 65.543C136.01 73.0937 125.058 72.5474 122.053 64.6585L106.854 24.7627C101.338 10.2825 80.2888 12.1371 77.3894 27.3587L73.8894 45.7339C71.8659 56.3573 57.0413 57.3485 53.6214 47.0891C50.6048 38.0392 38.0564 37.3805 34.1089 46.0649L31.1436 52.5886C26.8251 62.0894 13.0359 61.156 10.037 51.1599C7.23428 41.8174 -5.29427 40.1782 -10.4063 48.4852Z" fill="#4285F4"/>
<path d="M22.6657 54.1561L-1.56979 67.0816C-18.9445 76.3481 -31.3245 92.832 -35.3812 112.101L-36.189 115.938C-44.1239 153.629 -22.2052 191.199 14.5102 202.841L108.921 232.776C146.25 244.612 186.671 241.924 222.104 225.25L301.772 187.759C327.607 175.601 340.265 146.042 331.236 118.955L330.202 115.853C321.711 90.3798 295.424 75.3645 269.169 80.9907L256.889 83.6221C247.067 85.7267 236.849 82.709 229.746 75.6066C220.734 66.5942 206.966 64.3599 195.566 70.0599L176.267 79.7096C167.765 83.9605 157.448 81.6947 151.51 74.2722C145.207 66.3934 134.05 64.3882 125.398 69.5794L114.875 75.8934C99.4774 85.1318 79.5575 80.8897 69.2604 66.1794L68.5331 65.1406C58.2206 50.4084 38.533 45.6935 22.6657 54.1561Z" fill="#0F9D56"/>
<path d="M72.807 76.593L61.2129 88.1871C58.9384 90.4616 57.0597 93.1 55.6544 95.9933L48.0231 111.705C8.48879 193.099 60.192 289.325 149.886 301.285L184.049 305.84C279.073 318.51 362.956 243.328 360.727 147.49L359.883 111.208C359.747 105.334 357.944 99.6202 354.685 94.7316L354.369 94.2576C345.449 80.8772 327.611 76.6924 313.462 84.3339C305.49 88.6386 297.274 93.0054 290.141 96.7705C278.878 102.715 268.002 104.421 262.563 92.9058C257.517 82.221 238.899 74.17 232.344 84.0019L227.871 90.7115C221.888 99.6857 209.444 101.49 201.159 94.5856L195.56 89.9199C189.703 85.0391 180.98 85.9202 176.217 91.8735C170.214 99.3768 158.537 98.4665 153.77 90.1237L152.496 87.8941C147.472 79.1023 135.463 77.4941 128.303 84.6543L127.092 85.8658C119.048 93.9093 105.488 91.7088 100.401 81.5345L100.149 81.0299C94.9374 70.6074 81.0468 68.3533 72.807 76.593Z" fill="#F4B400"/>
<path d="M30.5652 103.518L12.3124 142.669C10.5567 146.435 9.36506 150.439 8.77581 154.552L6.01225 173.842C-7.88093 270.819 61.0117 360.135 158.338 371.326L273.683 384.588C324.243 390.401 373.526 366.082 399.671 322.417C407.767 308.896 413.385 294.031 415.852 278.466C421.204 244.702 426.908 200.825 423.296 192.156C417.606 178.501 385.745 83.4855 383.469 81.7787C381.193 80.0718 352.745 133.554 349.331 133.554C347.243 133.554 328.717 103.518 310.94 75.4264C302.184 61.5912 281.8 64.0081 276.22 79.4007L272.404 89.9236C266.863 105.206 244.926 104.219 240.779 88.5011C236.914 73.8508 217.046 71.6288 210.04 85.0633L200.829 102.726C192.208 119.259 168.946 120.318 158.858 104.637L152.398 94.5963C142.084 78.5653 118.272 79.7531 109.604 96.731L106.5 102.812C98.6248 118.239 76.5839 118.246 68.699 102.824C60.655 87.0912 38.0318 87.5027 30.5652 103.518Z" fill="#DB4437"/>
<path d="M346.883 -43.0304L328.63 -3.87947C326.874 -0.113555 325.682 3.89035 325.093 8.00344L322.33 27.2935C308.436 124.271 377.329 213.587 474.655 224.778L590 238.04C640.56 243.853 689.843 219.534 715.988 175.869C724.084 162.348 729.702 147.483 732.169 131.918C737.522 98.1539 743.225 54.2769 739.613 45.6081C733.924 31.9531 702.062 -63.0627 699.786 -64.7696C697.51 -66.4764 669.062 -12.9945 665.649 -12.9945C663.561 -12.9945 645.035 -43.0305 627.257 -71.1218C618.501 -84.957 598.118 -82.5401 592.537 -67.1476L588.722 -56.6246C583.181 -41.342 561.243 -42.3288 557.096 -58.0472C553.232 -72.6974 533.363 -74.9195 526.357 -61.485L517.147 -43.8222C508.525 -27.2895 485.263 -26.2302 475.175 -41.9109L468.715 -51.9519C458.401 -67.983 434.589 -66.7951 425.922 -49.8172L422.817 -43.7358C414.942 -28.309 392.901 -28.3021 385.016 -43.7239C376.972 -59.457 354.349 -59.0456 346.883 -43.0304Z" fill="#4285F4"/>
<path d="M351.258 -27.6394L324.34 16.1023C322.846 18.5299 321.66 21.1341 320.81 23.8548L316.46 37.7755C290.708 120.181 339.156 207.487 423.041 227.912C506.42 248.213 584.57 265.94 592.209 263.394C603.887 259.501 664.148 148.012 699.878 79.2618C705.577 68.2947 706.527 55.5208 702.619 43.7954L684.535 -10.457C681.197 -20.469 668.214 -23.0123 661.346 -14.9994C654.357 -6.84648 641.118 -9.64883 638.032 -19.934L636.641 -24.5705C633.221 -35.9702 619.098 -39.9286 610.251 -31.9668L592.788 -16.2496C584.195 -8.51616 570.703 -10.4132 564.576 -20.2164L563.332 -22.2076C556.903 -32.4933 542.088 -32.9502 535.038 -23.0801L529.359 -15.1301C526.216 -10.7299 519.874 -10.205 516.051 -14.0286C511.827 -18.2521 504.707 -17.0967 502.036 -11.7544L501.45 -10.5816C497.674 -3.03088 486.722 -3.57714 483.717 -11.4661L468.518 -51.3619C463.002 -65.842 441.953 -63.9875 439.053 -48.7659L435.553 -30.3907C433.53 -19.7673 418.705 -18.7761 415.285 -29.0355C412.269 -38.0854 399.72 -38.7441 395.773 -30.0597L392.808 -23.536C388.489 -14.0352 374.7 -14.9686 371.701 -24.9646C368.898 -34.3072 356.37 -35.9464 351.258 -27.6394Z" fill="#0F9D56"/>
<path d="M351.497 -6.75296L327.261 6.17262C309.886 15.4391 297.506 31.923 293.45 51.1919L292.642 55.0293C284.707 92.7199 306.626 130.29 343.341 141.932L437.752 171.867C475.081 183.703 515.502 181.015 550.935 164.341L630.603 126.85C656.438 114.692 669.096 85.1328 660.067 58.0455L659.033 54.9441C650.542 29.4708 624.255 14.4555 598 20.0817L585.72 22.7131C575.898 24.8177 565.68 21.8 558.577 14.6976C549.565 5.6852 535.797 3.45093 524.397 9.15086L505.097 18.8006C496.596 23.0515 486.279 20.7857 480.341 13.3632C474.038 5.48436 462.881 3.47921 454.229 8.67038L443.706 14.9844C428.308 24.2228 408.388 19.9807 398.091 5.27041L397.364 4.23156C387.051 -10.5006 367.364 -15.2155 351.497 -6.75296Z" fill="#F4B400"/>
<path d="M336.065 26.9485L324.471 38.5426C322.197 40.8171 320.318 43.4555 318.913 46.3488L311.281 62.0603C271.747 143.454 323.45 239.681 413.144 251.64L447.308 256.195C542.331 268.865 626.214 193.684 623.985 97.8451L623.142 61.5635C623.005 55.6897 621.202 49.9757 617.943 45.0871L617.627 44.6131C608.707 31.2327 590.87 27.0479 576.72 34.6894C568.749 38.9941 560.533 43.3609 553.399 47.126C542.136 53.0705 531.26 54.7768 525.821 43.2613C520.775 32.5765 502.157 24.5255 495.602 34.3574L491.129 41.067C485.146 50.0412 472.703 51.8459 464.417 44.9411L458.818 40.2754C452.961 35.3946 444.238 36.2757 439.475 42.229C433.472 49.7323 421.795 48.822 417.028 40.4792L415.754 38.2496C410.73 29.4577 398.721 27.8496 391.561 35.0098L390.35 36.2213C382.306 44.2648 368.746 42.0643 363.659 31.89L363.407 31.3854C358.196 20.9629 344.305 18.7088 336.065 26.9485Z" fill="#DB4437"/>
<path d="M305.911 48.4852L278.993 92.2269C277.499 94.6545 276.313 97.2587 275.463 99.9794L271.113 113.9C245.361 196.305 293.81 283.612 377.694 304.036C461.074 324.338 539.223 342.065 546.862 339.519C558.541 335.626 618.802 224.136 654.531 155.386C660.231 144.419 661.181 131.645 657.272 119.92L639.188 65.6676C635.851 55.6556 622.867 53.1123 615.999 61.1251C609.011 69.2781 595.771 66.4758 592.686 56.1905L591.295 51.5541C587.875 40.1544 573.751 36.196 564.905 44.1577L547.441 59.875C538.849 67.6084 525.357 65.7114 519.23 55.9082L517.985 53.9169C511.557 43.6313 496.741 43.1744 489.691 53.0445L484.012 60.9945C480.869 65.3947 474.528 65.9196 470.704 62.0959C466.48 57.8725 459.36 59.0279 456.689 64.3702L456.103 65.543C452.328 73.0937 441.375 72.5474 438.37 64.6585L423.172 24.7627C417.655 10.2825 396.606 12.1371 393.707 27.3587L390.207 45.7339C388.183 56.3573 373.359 57.3485 369.939 47.0891C366.922 38.0392 354.374 37.3805 350.426 46.0649L347.461 52.5886C343.142 62.0894 329.353 61.156 326.354 51.1599C323.552 41.8174 311.023 40.1782 305.911 48.4852Z" fill="#4285F4"/>
<path d="M338.983 54.1561L314.748 67.0816C297.373 76.3481 284.993 92.832 280.936 112.101L280.128 115.938C272.193 153.629 294.112 191.199 330.828 202.841L425.239 232.776C462.568 244.612 502.988 241.924 538.421 225.25L618.09 187.759C643.924 175.601 656.583 146.042 647.553 118.955L646.52 115.853C638.029 90.3798 611.742 75.3645 585.486 80.9907L573.206 83.6221C563.385 85.7267 553.166 82.709 546.064 75.6066C537.051 66.5942 523.283 64.3599 511.883 70.0599L492.584 79.7096C484.082 83.9605 473.766 81.6947 467.828 74.2722C461.525 66.3934 450.367 64.3882 441.715 69.5794L431.192 75.8934C415.795 85.1318 395.875 80.8897 385.578 66.1794L384.85 65.1406C374.538 50.4084 354.85 45.6935 338.983 54.1561Z" fill="#0F9D56"/>
<path d="M389.124 76.593L377.53 88.1871C375.256 90.4616 373.377 93.1 371.972 95.9933L364.34 111.705C324.806 193.099 376.509 289.325 466.203 301.285L500.367 305.84C595.39 318.51 679.273 243.328 677.045 147.49L676.201 111.208C676.064 105.334 674.261 99.6202 671.002 94.7316L670.686 94.2576C661.766 80.8772 643.929 76.6924 629.779 84.3339C621.808 88.6386 613.592 93.0054 606.458 96.7705C595.196 102.715 584.319 104.421 578.88 92.9058C573.834 82.221 555.216 74.17 548.661 84.0019L544.188 90.7115C538.205 99.6857 525.762 101.49 517.476 94.5856L511.877 89.9199C506.02 85.0391 497.297 85.9202 492.534 91.8735C486.532 99.3768 474.854 98.4665 470.087 90.1237L468.813 87.8941C463.789 79.1023 451.781 77.4941 444.62 84.6543L443.409 85.8658C435.365 93.9093 421.805 91.7088 416.718 81.5345L416.466 81.0299C411.255 70.6074 397.364 68.3533 389.124 76.593Z" fill="#F4B400"/>
<path d="M346.883 103.518L328.63 142.669C326.874 146.435 325.682 150.439 325.093 154.552L322.33 173.842C308.436 270.819 377.329 360.135 474.655 371.326L590 384.588C640.56 390.401 689.843 366.082 715.988 322.417C724.084 308.896 729.702 294.031 732.169 278.466C737.522 244.702 743.225 200.825 739.613 192.156C733.924 178.501 702.062 83.4855 699.786 81.7787C697.51 80.0718 669.062 133.554 665.649 133.554C663.561 133.554 645.035 103.518 627.257 75.4264C618.501 61.5912 598.118 64.0081 592.537 79.4007L588.722 89.9236C583.181 105.206 561.243 104.219 557.096 88.5011C553.232 73.8508 533.363 71.6288 526.357 85.0633L517.147 102.726C508.525 119.259 485.263 120.318 475.175 104.637L468.715 94.5963C458.401 78.5653 434.589 79.7531 425.922 96.731L422.817 102.812C414.942 118.239 392.901 118.246 385.016 102.824C376.972 87.0912 354.349 87.5027 346.883 103.518Z" fill="#DB4437"/>
</g>
</svg>
