<svg width="429" height="168" viewBox="0 0 429 168" fill="none" xmlns="http://www.w3.org/2000/svg">
<path d="M417.355 2.23242H11.724C6.3536 2.23242 2 6.43539 2 11.62V156.457C2 161.642 6.3536 165.845 11.724 165.845H417.355C422.725 165.845 427.079 161.642 427.079 156.457V11.62C427.079 6.43539 422.725 2.23242 417.355 2.23242Z" fill="#EFEFEF" stroke="url(#paint0_linear_703_2374)" stroke-width="3.2"/>
<path d="M50.7405 100.321C49.2002 100.321 47.7806 99.9627 46.482 99.2492C45.1833 98.5344 44.1488 97.5581 43.3787 96.3189C42.6237 95.065 42.2461 93.6729 42.2461 92.1414C42.2461 90.6112 42.6237 89.2259 43.3787 87.9868C44.1488 86.7328 45.1833 85.7485 46.482 85.035C47.7806 84.3202 49.2002 83.9635 50.7405 83.9635C51.9636 83.9635 53.1038 84.174 54.1608 84.5965C55.2178 85.0203 56.1013 85.6104 56.811 86.3681L55.0442 88.0739C54.5157 87.5053 53.8815 87.0681 53.1415 86.7624C52.4166 86.4566 51.6088 86.3023 50.7178 86.3023C49.6758 86.3023 48.7017 86.5438 47.7957 87.0239C46.8897 87.5053 46.1649 88.1906 45.6212 89.0797C45.0776 89.9689 44.8057 90.9894 44.8057 92.1414C44.8057 93.2934 45.0776 94.314 45.6212 95.2032C46.1649 96.0923 46.8897 96.7776 47.7957 97.259C48.7017 97.7391 49.6833 97.9805 50.7405 97.9805C51.7069 97.9805 52.5148 97.8424 53.1641 97.5648C53.8135 97.2872 54.3949 96.9157 54.9083 96.449C55.2406 96.1285 55.52 95.7275 55.7464 95.2474C55.9881 94.7659 56.1466 94.2402 56.2222 93.6729H50.7178V91.4857H58.6232C58.6986 91.8933 58.7364 92.3171 58.7364 92.7543C58.7364 93.7454 58.5779 94.7002 58.2607 95.6189C57.9436 96.5228 57.4377 97.31 56.7431 97.9805C55.2178 99.5402 53.217 100.321 50.7405 100.321ZM66.5603 100.321C65.3976 100.321 64.3556 100.065 63.4345 99.555C62.5133 99.0293 61.796 98.3158 61.2826 97.4119C60.7691 96.508 60.5124 95.5022 60.5124 94.3944C60.5124 93.2854 60.7691 92.2796 61.2826 91.3757C61.796 90.4718 62.5133 89.7651 63.4345 89.2554C64.3556 88.7297 65.3976 88.4682 66.5603 88.4682C67.7232 88.4682 68.7651 88.7297 69.6863 89.2554C70.6075 89.7798 71.3247 90.4946 71.8381 91.3985C72.3516 92.3024 72.6083 93.3001 72.6083 94.3944C72.6083 95.5022 72.3516 96.508 71.8381 97.4119C71.3247 98.3158 70.6075 99.0293 69.6863 99.555C68.7651 100.065 67.7232 100.321 66.5603 100.321ZM66.5603 98.1119C67.1946 98.1119 67.7836 97.9658 68.3272 97.6748C68.8708 97.3676 69.3013 96.9385 69.6183 96.3833C69.9506 95.8147 70.1167 95.1522 70.1167 94.3944C70.1167 93.6354 69.9506 92.9796 69.6183 92.4257C69.3013 91.8719 68.8708 91.4495 68.3272 91.1571C67.7836 90.8513 67.1946 90.6984 66.5603 90.6984C65.9262 90.6984 65.3372 90.8513 64.7936 91.1571C64.2499 91.4495 63.8121 91.8719 63.4798 92.4257C63.1626 92.9796 63.0041 93.6354 63.0041 94.3944C63.0041 95.1522 63.1626 95.8147 63.4798 96.3833C63.8121 96.9385 64.2499 97.3676 64.7936 97.6748C65.3372 97.9658 65.9262 98.1119 66.5603 98.1119ZM80.3194 100.321C79.1566 100.321 78.1146 100.065 77.1934 99.555C76.2723 99.0293 75.5551 98.3158 75.0416 97.4119C74.5282 96.508 74.2715 95.5022 74.2715 94.3944C74.2715 93.2854 74.5282 92.2796 75.0416 91.3757C75.5551 90.4718 76.2723 89.7651 77.1934 89.2554C78.1146 88.7297 79.1566 88.4682 80.3194 88.4682C81.4821 88.4682 82.5241 88.7297 83.4453 89.2554C84.3664 89.7798 85.0838 90.4946 85.5972 91.3985C86.1106 92.3024 86.3674 93.3001 86.3674 94.3944C86.3674 95.5022 86.1106 96.508 85.5972 97.4119C85.0838 98.3158 84.3664 99.0293 83.4453 99.555C82.5241 100.065 81.4821 100.321 80.3194 100.321ZM80.3194 98.1119C80.9536 98.1119 81.5426 97.9658 82.0861 97.6748C82.6299 97.3676 83.0602 96.9385 83.3774 96.3833C83.7095 95.8147 83.8756 95.1522 83.8756 94.3944C83.8756 93.6354 83.7095 92.9796 83.3774 92.4257C83.0602 91.8719 82.6299 91.4495 82.0861 91.1571C81.5426 90.8513 80.9536 90.6984 80.3194 90.6984C79.6851 90.6984 79.0961 90.8513 78.5526 91.1571C78.0089 91.4495 77.571 91.8719 77.2387 92.4257C76.9217 92.9796 76.7631 93.6354 76.7631 94.3944C76.7631 95.1522 76.9217 95.8147 77.2387 96.3833C77.571 96.9385 78.0089 97.3676 78.5526 97.6748C79.0961 97.9658 79.6851 98.1119 80.3194 98.1119ZM93.8745 105.044C92.455 105.044 91.2772 104.73 90.3409 104.103C89.4197 103.476 88.8006 102.733 88.4834 101.872L90.8165 100.932C91.0582 101.516 91.4433 101.982 91.9717 102.332C92.5154 102.696 93.1497 102.878 93.8745 102.878C94.9316 102.878 95.7545 102.572 96.3435 101.96C96.9475 101.363 97.2495 100.516 97.2495 99.4235V98.3963H97.1137C96.7361 98.9206 96.2303 99.3364 95.596 99.6421C94.9769 99.9332 94.2597 100.079 93.4441 100.079C92.4777 100.079 91.5792 99.8393 90.7486 99.3578C89.918 98.8764 89.2536 98.1991 88.7553 97.3247C88.272 96.4343 88.0304 95.4218 88.0304 94.2845C88.0304 93.1473 88.272 92.1415 88.7553 91.2671C89.2536 90.3779 89.918 89.6926 90.7486 89.2112C91.5792 88.715 92.4777 88.4682 93.4441 88.4682C94.2445 88.4682 94.9617 88.6211 95.596 88.9268C96.2303 89.2326 96.7361 89.6484 97.1137 90.1741H97.2495V88.8182H99.628V99.3578C99.628 100.567 99.3864 101.596 98.9032 102.441C98.4199 103.302 97.7403 103.95 96.8644 104.387C96.0037 104.825 95.0072 105.044 93.8745 105.044ZM93.8972 97.8933C94.5012 97.8933 95.06 97.7539 95.5734 97.4776C96.0868 97.1853 96.4945 96.7709 96.7965 96.2304C97.0985 95.6765 97.2495 95.0275 97.2495 94.2845C97.2495 93.1473 96.9249 92.2648 96.2756 91.6385C95.6413 90.9975 94.8485 90.677 93.8972 90.677C93.2781 90.677 92.7117 90.8218 92.1983 91.1142C91.6849 91.3904 91.2772 91.7995 90.9752 92.3386C90.6732 92.8777 90.5222 93.5268 90.5222 94.2845C90.5222 95.0422 90.6732 95.6913 90.9752 96.2304C91.2772 96.7709 91.6849 97.1853 92.1983 97.4776C92.7117 97.7539 93.2781 97.8933 93.8972 97.8933ZM102.556 84.3135H105.048V99.9707H102.556V84.3135ZM113.143 100.321C112.011 100.321 110.991 100.065 110.085 99.555C109.194 99.044 108.492 98.3453 107.979 97.4548C107.48 96.5509 107.231 95.5384 107.231 94.4159C107.231 93.3511 107.473 92.3681 107.956 91.4642C108.454 90.5455 109.141 89.816 110.017 89.2769C110.893 88.7378 111.89 88.4682 113.007 88.4682C114.17 88.4682 115.174 88.715 116.02 89.2112C116.881 89.7074 117.53 90.3846 117.968 91.2456C118.421 92.1052 118.647 93.0748 118.647 94.1531C118.647 94.3569 118.625 94.6131 118.579 94.9188H109.723C109.813 95.9542 110.191 96.7561 110.855 97.3247C111.535 97.8786 112.32 98.1549 113.211 98.1549C113.921 98.1549 114.532 98.002 115.046 97.6962C115.574 97.3757 115.997 96.9452 116.314 96.4061L118.421 97.3676C117.877 98.2863 117.168 99.0078 116.292 99.5335C115.416 100.058 114.366 100.321 113.143 100.321ZM116.111 93.0816C116.08 92.6886 115.952 92.3024 115.725 91.9228C115.499 91.5299 115.152 91.2013 114.683 90.9385C114.23 90.677 113.672 90.5455 113.007 90.5455C112.207 90.5455 111.527 90.7789 110.969 91.2456C110.425 91.6975 110.047 92.3091 109.836 93.0816H116.111ZM126.633 84.3135H131.82C133.497 84.3135 134.961 84.6407 136.215 85.2965C137.468 85.9523 138.427 86.879 139.091 88.0739C139.771 89.2554 140.111 90.6112 140.111 92.1414C140.111 93.6729 139.771 95.0355 139.091 96.2304C138.427 97.4119 137.468 98.3305 136.215 98.9863C134.961 99.6421 133.497 99.9707 131.82 99.9707H126.633V84.3135ZM131.775 97.6305C133.587 97.6305 134.999 97.149 136.011 96.1875C137.038 95.2098 137.551 93.862 137.551 92.1414C137.551 90.4356 137.038 89.0945 136.011 88.1182C134.999 87.1405 133.587 86.6524 131.775 86.6524H129.17V97.6305H131.775ZM147.54 100.321C146.408 100.321 145.388 100.065 144.483 99.555C143.592 99.044 142.889 98.3453 142.375 97.4548C141.878 96.5509 141.628 95.5384 141.628 94.4159C141.628 93.3511 141.87 92.3681 142.353 91.4642C142.852 90.5455 143.54 89.816 144.415 89.2769C145.291 88.7378 146.287 88.4682 147.404 88.4682C148.567 88.4682 149.571 88.715 150.417 89.2112C151.278 89.7074 151.927 90.3846 152.365 91.2456C152.819 92.1052 153.045 93.0748 153.045 94.1531C153.045 94.3569 153.022 94.6131 152.977 94.9188H144.12C144.21 95.9542 144.588 96.7561 145.252 97.3247C145.933 97.8786 146.718 98.1549 147.608 98.1549C148.318 98.1549 148.929 98.002 149.443 97.6962C149.971 97.3757 150.395 96.9452 150.712 96.4061L152.819 97.3676C152.274 98.2863 151.565 99.0078 150.689 99.5335C149.813 100.058 148.764 100.321 147.54 100.321ZM150.507 93.0816C150.478 92.6886 150.349 92.3024 150.123 91.9228C149.896 91.5299 149.549 91.2013 149.081 90.9385C148.628 90.677 148.07 90.5455 147.404 90.5455C146.604 90.5455 145.925 90.7789 145.366 91.2456C144.823 91.6975 144.445 92.3091 144.234 93.0816H150.507ZM153.801 88.8182H156.588L159.781 96.8647H159.872L163.133 88.8182H165.852L161.05 99.9707H158.559L153.801 88.8182ZM172.405 100.321C171.271 100.321 170.253 100.065 169.346 99.555C168.455 99.044 167.754 98.3453 167.24 97.4548C166.741 96.5509 166.492 95.5384 166.492 94.4159C166.492 93.3511 166.734 92.3681 167.218 91.4642C167.715 90.5455 168.402 89.816 169.278 89.2769C170.154 88.7378 171.15 88.4682 172.268 88.4682C173.431 88.4682 174.436 88.715 175.282 89.2112C176.141 89.7074 176.792 90.3846 177.229 91.2456C177.682 92.1052 177.908 93.0748 177.908 94.1531C177.908 94.3569 177.886 94.6131 177.84 94.9188H168.983C169.075 95.9542 169.451 96.7561 170.117 97.3247C170.796 97.8786 171.581 98.1549 172.473 98.1549C173.183 98.1549 173.794 98.002 174.306 97.6962C174.836 97.3757 175.258 96.9452 175.576 96.4061L177.682 97.3676C177.139 98.2863 176.429 99.0078 175.552 99.5335C174.677 100.058 173.627 100.321 172.405 100.321ZM175.372 93.0816C175.341 92.6886 175.213 92.3024 174.987 91.9228C174.761 91.5299 174.412 91.2013 173.944 90.9385C173.491 90.677 172.932 90.5455 172.268 90.5455C171.468 90.5455 170.789 90.7789 170.229 91.2456C169.686 91.6975 169.308 92.3091 169.097 93.0816H175.372ZM180.177 84.3135H182.669V99.9707H180.177V84.3135ZM190.9 100.321C189.737 100.321 188.695 100.065 187.774 99.555C186.853 99.0293 186.136 98.3158 185.622 97.4119C185.108 96.508 184.853 95.5022 184.853 94.3944C184.853 93.2854 185.108 92.2796 185.622 91.3757C186.136 90.4718 186.853 89.7651 187.774 89.2554C188.695 88.7297 189.737 88.4682 190.9 88.4682C192.062 88.4682 193.104 88.7297 194.027 89.2554C194.948 89.7798 195.665 90.4946 196.178 91.3985C196.691 92.3024 196.948 93.3001 196.948 94.3944C196.948 95.5022 196.691 96.508 196.178 97.4119C195.665 98.3158 194.948 99.0293 194.027 99.555C193.104 100.065 192.062 100.321 190.9 100.321ZM190.9 98.1119C191.535 98.1119 192.124 97.9658 192.667 97.6748C193.211 97.3676 193.641 96.9385 193.959 96.3833C194.291 95.8147 194.456 95.1522 194.456 94.3944C194.456 93.6354 194.291 92.9796 193.959 92.4257C193.641 91.8719 193.211 91.4495 192.667 91.1571C192.124 90.8513 191.535 90.6984 190.9 90.6984C190.266 90.6984 189.677 90.8513 189.133 91.1571C188.59 91.4495 188.152 91.8719 187.82 92.4257C187.502 92.9796 187.344 93.6354 187.344 94.3944C187.344 95.1522 187.502 95.8147 187.82 96.3833C188.152 96.9385 188.59 97.3676 189.133 97.6748C189.677 97.9658 190.266 98.1119 190.9 98.1119ZM199.044 88.8182H201.423V90.2827H201.536C201.868 89.7731 202.359 89.3426 203.009 88.9926C203.658 88.6425 204.39 88.4682 205.205 88.4682C206.247 88.4682 207.192 88.723 208.036 89.2326C208.882 89.7436 209.548 90.4503 210.03 91.3542C210.528 92.2433 210.778 93.2572 210.778 94.3944C210.778 95.5317 210.528 96.5509 210.03 97.4548C209.548 98.3453 208.882 99.044 208.036 99.555C207.192 100.065 206.247 100.321 205.205 100.321C204.39 100.321 203.658 100.145 203.009 99.795C202.359 99.445 201.868 99.0226 201.536 98.5264H201.423L201.536 100.079V104.694H199.044V88.8182ZM204.843 98.1119C205.447 98.1119 206.014 97.9577 206.542 97.652C207.071 97.3462 207.493 96.909 207.81 96.3404C208.128 95.7718 208.286 95.1227 208.286 94.3944C208.286 93.6649 208.128 93.0239 207.81 92.47C207.493 91.9014 207.071 91.4642 206.542 91.1571C206.014 90.8513 205.447 90.6984 204.843 90.6984C204.24 90.6984 203.673 90.8513 203.144 91.1571C202.631 91.4642 202.216 91.9014 201.899 92.47C201.581 93.0239 201.423 93.6649 201.423 94.3944C201.423 95.1227 201.581 95.7718 201.899 96.3404C202.216 96.909 202.631 97.3462 203.144 97.652C203.673 97.9577 204.24 98.1119 204.843 98.1119ZM218.327 100.321C217.194 100.321 216.175 100.065 215.268 99.555C214.378 99.044 213.675 98.3453 213.162 97.4548C212.663 96.5509 212.415 95.5384 212.415 94.4159C212.415 93.3511 212.657 92.3681 213.14 91.4642C213.637 90.5455 214.325 89.816 215.2 89.2769C216.077 88.7378 217.073 88.4682 218.191 88.4682C219.354 88.4682 220.358 88.715 221.203 89.2112C222.064 89.7074 222.714 90.3846 223.152 91.2456C223.604 92.1052 223.831 93.0748 223.831 94.1531C223.831 94.3569 223.809 94.6131 223.763 94.9188H214.906C214.997 95.9542 215.374 96.7561 216.039 97.3247C216.718 97.8786 217.503 98.1549 218.395 98.1549C219.104 98.1549 219.716 98.002 220.229 97.6962C220.758 97.3757 221.18 96.9452 221.497 96.4061L223.604 97.3676C223.061 98.2863 222.351 99.0078 221.475 99.5335C220.6 100.058 219.55 100.321 218.327 100.321ZM221.294 93.0816C221.264 92.6886 221.136 92.3024 220.909 91.9228C220.682 91.5299 220.334 91.2013 219.866 90.9385C219.413 90.677 218.855 90.5455 218.191 90.5455C217.391 90.5455 216.71 90.7789 216.152 91.2456C215.608 91.6975 215.231 92.3091 215.019 93.0816H221.294ZM226.099 88.8182H228.479V90.4584H228.591C228.848 89.8897 229.294 89.4231 229.928 89.0583C230.563 88.6788 231.234 88.4897 231.943 88.4897C232.503 88.4897 232.971 88.5621 233.348 88.7083V91.2013C232.684 90.968 232.088 90.8513 231.559 90.8513C230.985 90.8513 230.471 90.9975 230.018 91.2885C229.581 91.5809 229.233 91.9738 228.976 92.47C228.719 92.9501 228.591 93.4825 228.591 94.0659V99.9707H226.099V88.8182ZM244.978 100.321C243.633 100.321 242.426 99.9412 241.354 99.1835C240.281 98.4244 239.541 97.3609 239.134 95.9903L241.534 95.0502C241.776 95.9099 242.2 96.6166 242.802 97.1705C243.422 97.711 244.162 97.9805 245.022 97.9805C245.824 97.9805 246.503 97.7834 247.062 97.3904C247.62 96.9814 247.899 96.4276 247.899 95.7275C247.899 95.0865 247.651 94.5621 247.152 94.1531C246.668 93.7306 245.815 93.3082 244.593 92.8844L243.573 92.5357C242.486 92.1709 241.572 91.6452 240.833 90.9613C240.092 90.276 239.723 89.3721 239.723 88.2496C239.723 87.4758 239.941 86.7623 240.38 86.1065C240.817 85.4494 241.422 84.9331 242.191 84.5536C242.976 84.1593 243.86 83.9635 244.842 83.9635C246.261 83.9635 247.394 84.2988 248.24 84.9693C249.086 85.6251 249.651 86.3681 249.938 87.1995L247.651 88.1397C247.484 87.6435 247.167 87.2062 246.699 86.828C246.231 86.4485 245.627 86.2594 244.888 86.2594C244.147 86.2594 243.521 86.4418 243.007 86.8052C242.508 87.17 242.259 87.6367 242.259 88.2053C242.259 88.7445 242.486 89.1897 242.939 89.5397C243.391 89.8897 244.101 90.225 245.068 90.5455L246.088 90.8728C247.477 91.3395 248.549 91.9523 249.304 92.7101C250.075 93.453 250.459 94.4521 250.459 95.7061C250.459 96.7266 250.187 97.5862 249.644 98.2863C249.101 98.9716 248.405 99.4812 247.56 99.8165C246.73 100.153 245.868 100.321 244.978 100.321ZM257.113 100.145C256.599 100.145 256.116 100.065 255.663 99.905C255.21 99.744 254.841 99.5335 254.553 99.2706C253.904 98.643 253.579 97.7901 253.579 96.7119V90.9385H251.564V88.8182H253.579V85.668H256.072V88.8182H258.88V90.9385H256.072V96.1875C256.072 96.7843 256.192 97.2081 256.434 97.4548C256.661 97.7472 257.052 97.8933 257.612 97.8933C257.868 97.8933 258.094 97.8639 258.291 97.8049C258.487 97.7324 258.698 97.6224 258.925 97.4776V99.8165C258.428 100.036 257.823 100.145 257.113 100.145ZM265.462 100.321C264.058 100.321 262.987 99.9197 262.246 99.1177C261.521 98.301 261.159 97.1705 261.159 95.7275V88.8182H263.651V95.4003C263.651 96.3041 263.869 96.9814 264.308 97.4334C264.761 97.8853 265.35 98.1119 266.075 98.1119C266.664 98.1119 267.185 97.9658 267.638 97.6748C268.09 97.3676 268.438 96.9667 268.679 96.4718C268.921 95.9756 269.042 95.4432 269.042 94.8746V88.8182H271.533V99.9707H269.178V98.5264H269.042C268.724 99.0521 268.234 99.4812 267.57 99.8165C266.904 100.153 266.203 100.321 265.462 100.321ZM279.261 100.321C278.219 100.321 277.275 100.065 276.429 99.555C275.584 99.044 274.911 98.3453 274.414 97.4548C273.93 96.5509 273.689 95.5317 273.689 94.3944C273.689 93.2572 273.93 92.2433 274.414 91.3542C274.911 90.4503 275.584 89.7436 276.429 89.2326C277.275 88.723 278.219 88.4682 279.261 88.4682C280.076 88.4682 280.808 88.6425 281.458 88.9926C282.107 89.3426 282.599 89.7731 282.931 90.2827H283.043L282.931 88.7083V84.3135H285.421V99.9707H283.043V98.5264H282.931C282.599 99.0226 282.107 99.445 281.458 99.795C280.808 100.145 280.076 100.321 279.261 100.321ZM279.623 98.1119C280.227 98.1119 280.786 97.9577 281.3 97.652C281.828 97.3462 282.251 96.909 282.568 96.3404C282.885 95.7718 283.043 95.1227 283.043 94.3944C283.043 93.6649 282.885 93.0239 282.568 92.47C282.251 91.9014 281.828 91.4642 281.3 91.1571C280.786 90.8513 280.227 90.6984 279.623 90.6984C279.019 90.6984 278.453 90.8513 277.924 91.1571C277.396 91.4642 276.973 91.9014 276.656 92.47C276.339 93.0239 276.181 93.6649 276.181 94.3944C276.181 95.1227 276.339 95.7718 276.656 96.3404C276.973 96.909 277.396 97.3462 277.924 97.652C278.453 97.9577 279.019 98.1119 279.623 98.1119ZM293.492 100.321C292.36 100.321 291.341 100.065 290.435 99.555C289.543 99.044 288.842 98.3453 288.328 97.4548C287.829 96.5509 287.58 95.5384 287.58 94.4159C287.58 93.3511 287.822 92.3681 288.305 91.4642C288.804 90.5455 289.49 89.816 290.367 89.2769C291.242 88.7378 292.239 88.4682 293.356 88.4682C294.519 88.4682 295.523 88.715 296.369 89.2112C297.229 89.7074 297.879 90.3846 298.317 91.2456C298.77 92.1052 298.996 93.0748 298.996 94.1531C298.996 94.3569 298.974 94.6131 298.928 94.9188H290.072C290.163 95.9542 290.54 96.7561 291.204 97.3247C291.884 97.8786 292.669 98.1549 293.56 98.1549C294.27 98.1549 294.882 98.002 295.396 97.6962C295.923 97.3757 296.346 96.9452 296.664 96.4061L298.77 97.3676C298.227 98.2863 297.517 99.0078 296.64 99.5335C295.765 100.058 294.715 100.321 293.492 100.321ZM296.46 93.0816C296.429 92.6886 296.301 92.3024 296.075 91.9228C295.848 91.5299 295.501 91.2013 295.033 90.9385C294.58 90.677 294.02 90.5455 293.356 90.5455C292.556 90.5455 291.877 90.7789 291.318 91.2456C290.774 91.6975 290.396 92.3091 290.185 93.0816H296.46ZM301.266 88.8182H303.644V90.2827H303.757C304.089 89.7583 304.581 89.3278 305.229 88.9926C305.895 88.6425 306.596 88.4682 307.337 88.4682C308.741 88.4682 309.805 88.8692 310.53 89.6698C311.269 90.4584 311.64 91.5366 311.64 92.9072V99.9707H309.148V93.2344C309.148 92.36 308.922 91.719 308.469 91.31C308.031 90.9023 307.419 90.6984 306.634 90.6984C306.075 90.6984 305.577 90.8513 305.139 91.1571C304.701 91.4495 304.361 91.8424 304.119 92.3386C303.878 92.8334 303.757 93.3658 303.757 93.9345V99.9707H301.266V88.8182ZM318.608 100.145C318.096 100.145 317.612 100.065 317.159 99.905C316.706 99.744 316.336 99.5335 316.049 99.2706C315.399 98.643 315.074 97.7901 315.074 96.7119V90.9385H313.059V88.8182H315.074V85.668H317.566V88.8182H320.375V90.9385H317.566V96.1875C317.566 96.7843 317.687 97.2081 317.929 97.4548C318.155 97.7472 318.548 97.8933 319.107 97.8933C319.364 97.8933 319.59 97.8639 319.786 97.8049C319.982 97.7324 320.195 97.6224 320.421 97.4776V99.8165C319.922 100.036 319.318 100.145 318.608 100.145ZM335.675 100.321C334.104 100.321 332.671 99.9627 331.372 99.2492C330.073 98.5344 329.053 97.5501 328.313 96.2961C327.574 95.0422 327.203 93.6582 327.203 92.1414C327.203 90.626 327.574 89.2407 328.313 87.9868C329.053 86.7328 330.073 85.7485 331.372 85.035C332.671 84.3202 334.104 83.9635 335.675 83.9635C336.898 83.9635 338.008 84.1821 339.005 84.6193C340.016 85.0565 340.908 85.6908 341.678 86.521L339.866 88.2053C339.306 87.5643 338.688 87.0896 338.008 86.7838C337.328 86.4633 336.55 86.3023 335.675 86.3023C334.588 86.3023 333.592 86.5438 332.686 87.0239C331.794 87.5053 331.084 88.1906 330.556 89.0797C330.027 89.9541 329.763 90.9747 329.763 92.1414C329.763 93.3082 330.027 94.3355 330.556 95.2246C331.084 96.099 331.794 96.7776 332.686 97.259C333.592 97.7391 334.588 97.9805 335.675 97.9805C337.487 97.9805 339.027 97.251 340.296 95.7932L342.131 97.4991C341.346 98.3882 340.401 99.0816 339.3 99.5764C338.197 100.073 336.989 100.321 335.675 100.321ZM344.334 84.3135H346.826V99.9707H344.334V84.3135ZM353.968 100.321C352.563 100.321 351.491 99.9197 350.75 99.1177C350.025 98.301 349.664 97.1705 349.664 95.7275V88.8182H352.155V95.4003C352.155 96.3041 352.374 96.9814 352.812 97.4334C353.265 97.8853 353.854 98.1119 354.579 98.1119C355.168 98.1119 355.689 97.9658 356.142 97.6748C356.594 97.3676 356.942 96.9667 357.183 96.4718C357.425 95.9756 357.546 95.4432 357.546 94.8746V88.8182H360.038V99.9707H357.682V98.5264H357.546C357.229 99.0521 356.738 99.4812 356.073 99.8165C355.409 100.153 354.707 100.321 353.968 100.321ZM369.1 100.321C368.284 100.321 367.551 100.145 366.902 99.795C366.252 99.445 365.761 99.0226 365.429 98.5264H365.317V99.9707H362.937V84.3135H365.429V88.7083L365.317 90.2827H365.429C365.761 89.7731 366.252 89.3426 366.902 88.9926C367.551 88.6425 368.284 88.4682 369.1 88.4682C370.141 88.4682 371.085 88.723 371.931 89.2326C372.777 89.7436 373.441 90.4503 373.924 91.3542C374.423 92.2433 374.671 93.2572 374.671 94.3944C374.671 95.5317 374.423 96.5509 373.924 97.4548C373.441 98.3453 372.777 99.044 371.931 99.555C371.085 100.065 370.141 100.321 369.1 100.321ZM368.737 98.1119C369.341 98.1119 369.907 97.9577 370.436 97.652C370.964 97.3462 371.387 96.909 371.704 96.3404C372.021 95.7718 372.179 95.1227 372.179 94.3944C372.179 93.6649 372.021 93.0239 371.704 92.47C371.387 91.9014 370.964 91.4642 370.436 91.1571C369.907 90.8513 369.341 90.6984 368.737 90.6984C368.133 90.6984 367.566 90.8513 367.038 91.1571C366.524 91.4642 366.109 91.9014 365.792 92.47C365.475 93.0239 365.317 93.6649 365.317 94.3944C365.317 95.1227 365.475 95.7718 365.792 96.3404C366.109 96.909 366.524 97.3462 367.038 97.652C367.566 97.9577 368.133 98.1119 368.737 98.1119ZM381.042 100.321C379.714 100.321 378.626 100.043 377.78 99.4892C376.936 98.9206 376.338 98.1991 375.991 97.3247L378.211 96.3833C378.483 96.9666 378.861 97.4119 379.344 97.7177C379.842 98.0235 380.409 98.1777 381.042 98.1777C381.662 98.1777 382.183 98.0744 382.606 97.8705C383.028 97.652 383.24 97.3314 383.24 96.909C383.24 96.4999 383.059 96.1794 382.696 95.9461C382.334 95.7127 381.775 95.5089 381.02 95.3346L379.638 95.006C378.717 94.7874 377.954 94.4012 377.351 93.8473C376.747 93.2934 376.444 92.5934 376.444 91.7485C376.444 91.0914 376.641 90.516 377.033 90.0198C377.441 89.525 377.985 89.1455 378.664 88.8826C379.344 88.6063 380.084 88.4682 380.884 88.4682C381.956 88.4682 382.901 88.6788 383.716 89.1025C384.532 89.5102 385.121 90.1084 385.482 90.8956L383.308 91.8129C382.87 90.9532 382.07 90.5227 380.907 90.5227C380.347 90.5227 379.879 90.6327 379.503 90.8513C379.125 91.0699 378.936 91.3542 378.936 91.7042C378.936 92.0395 379.079 92.3171 379.367 92.5357C379.653 92.7396 380.077 92.9139 380.635 93.0601L382.334 93.4758C383.466 93.7521 384.319 94.1759 384.893 94.7431C385.482 95.2983 385.776 95.9837 385.776 96.799C385.776 97.4991 385.565 98.1187 385.143 98.6578C384.734 99.1835 384.169 99.5912 383.444 99.8822C382.719 100.175 381.919 100.321 381.042 100.321Z" fill="#242424"/>
<path d="M222.46 49.8261L241.097 39.4378C243.695 37.99 247.017 38.8492 248.516 41.3569C250.016 43.8645 249.126 47.0711 246.528 48.5189L227.89 58.9073C225.293 60.3551 221.971 59.4959 220.472 56.9882C218.972 54.4805 219.862 51.274 222.46 49.8261Z" fill="#FBBC04"/>
<path d="M209.224 38.074L190.586 48.4624C187.989 49.9102 184.667 49.051 183.167 46.5433C181.668 44.0356 182.558 40.829 185.155 39.3812L203.793 28.9929C206.391 27.545 209.712 28.4042 211.212 30.9119C212.712 33.4196 211.822 36.6262 209.224 38.074Z" fill="#EA4335"/>
<path d="M208.765 49.8249L190.127 39.4366C187.53 37.9888 184.208 38.848 182.708 41.3557C181.209 43.8634 182.099 47.0699 184.696 48.5177L203.334 58.9061C205.932 60.3539 209.253 59.4947 210.753 56.987C212.253 54.4793 211.363 51.2727 208.765 49.8249Z" fill="#4285F4"/>
<path d="M222.143 37.8979L241.414 48.639C243.837 49.9894 246.935 49.188 248.334 46.849L248.699 46.238C250.098 43.8991 249.268 40.9082 246.845 39.5578L227.574 28.8167C225.151 27.4663 222.053 28.2677 220.654 30.6067L220.289 31.2177C218.89 33.5566 219.72 36.5475 222.143 37.8979Z" fill="#0F9D58"/>
<path d="M51.1357 129.37C50.0132 129.37 48.9797 129.107 48.0351 128.581C47.0905 128.055 46.3403 127.331 45.7847 126.409C45.229 125.486 44.9512 124.467 44.9512 123.351C44.9512 122.235 45.229 121.216 45.7847 120.293C46.3403 119.371 47.0905 118.646 48.0351 118.121C48.9797 117.595 50.0132 117.332 51.1357 117.332C52.0136 117.332 52.836 117.482 53.6028 117.783C54.3807 118.083 55.0197 118.507 55.5198 119.054L54.5029 120.036C54.1251 119.585 53.6417 119.242 53.0527 119.006C52.4637 118.759 51.8302 118.636 51.1523 118.636C50.3077 118.636 49.5187 118.834 48.7852 119.231C48.0629 119.617 47.4794 120.17 47.0349 120.889C46.6015 121.597 46.3848 122.418 46.3848 123.351C46.3848 124.284 46.6015 125.11 47.0349 125.829C47.4794 126.537 48.0684 127.09 48.8019 127.487C49.5354 127.873 50.3188 128.066 51.1523 128.066C51.9525 128.066 52.6193 127.948 53.1527 127.712C53.6972 127.465 54.164 127.144 54.553 126.747C54.8419 126.446 55.0753 126.087 55.2531 125.668C55.4309 125.239 55.542 124.767 55.5865 124.252H51.169V122.981H56.9034C56.959 123.281 56.9867 123.56 56.9867 123.818C56.9867 124.526 56.8701 125.218 56.6367 125.894C56.4033 126.559 56.031 127.144 55.5198 127.648C54.4196 128.796 52.9582 129.37 51.1357 129.37ZM62.6477 129.37C61.8142 129.37 61.064 129.177 60.3972 128.79C59.7304 128.404 59.2081 127.878 58.8303 127.213C58.4635 126.548 58.2802 125.813 58.2802 125.009C58.2802 124.204 58.4635 123.469 58.8303 122.804C59.2081 122.139 59.7304 121.613 60.3972 121.227C61.064 120.84 61.8142 120.647 62.6477 120.647C63.4811 120.647 64.2313 120.84 64.8981 121.227C65.5649 121.613 66.0816 122.139 66.4484 122.804C66.8262 123.469 67.0151 124.204 67.0151 125.009C67.0151 125.813 66.8262 126.548 66.4484 127.213C66.0816 127.878 65.5649 128.404 64.8981 128.79C64.2313 129.177 63.4811 129.37 62.6477 129.37ZM62.6477 128.131C63.17 128.131 63.6534 128.007 64.0979 127.76C64.5536 127.503 64.9147 127.138 65.1815 126.666C65.4593 126.194 65.5982 125.642 65.5982 125.009C65.5982 124.376 65.4593 123.823 65.1815 123.351C64.9147 122.879 64.5536 122.519 64.0979 122.273C63.6534 122.015 63.17 121.886 62.6477 121.886C62.1253 121.886 61.6364 122.015 61.1807 122.273C60.7251 122.519 60.3583 122.879 60.0805 123.351C59.8138 123.823 59.6804 124.376 59.6804 125.009C59.6804 125.642 59.8138 126.194 60.0805 126.666C60.3583 127.138 60.7251 127.503 61.1807 127.76C61.6364 128.007 62.1253 128.131 62.6477 128.131ZM67.4829 120.905H68.9998L71.6336 127.503H71.667L74.3341 120.905H75.8177L72.3504 129.112H70.9168L67.4829 120.905ZM80.519 129.37C79.7078 129.37 78.9799 129.182 78.3353 128.806C77.6907 128.431 77.1851 127.916 76.8183 127.262C76.4627 126.596 76.2849 125.851 76.2849 125.025C76.2849 124.231 76.4516 123.501 76.785 122.836C77.1295 122.171 77.6129 121.64 78.2353 121.243C78.8576 120.846 79.58 120.647 80.4023 120.647C81.2358 120.647 81.9582 120.83 82.5694 121.194C83.1806 121.549 83.6474 122.042 83.9697 122.675C84.3031 123.308 84.4698 124.032 84.4698 124.848C84.4698 125.009 84.4531 125.148 84.4198 125.266H77.7018C77.7352 125.888 77.8908 126.414 78.1686 126.843C78.4464 127.272 78.7965 127.594 79.2188 127.809C79.6522 128.023 80.1023 128.131 80.569 128.131C81.6581 128.131 82.4972 127.637 83.0862 126.65L84.2864 127.213C83.9197 127.878 83.4196 128.404 82.7861 128.79C82.1638 129.177 81.4081 129.37 80.519 129.37ZM82.9695 124.14C82.9473 123.796 82.8472 123.453 82.6694 123.11C82.4916 122.766 82.2082 122.477 81.8193 122.241C81.4414 122.004 80.9636 121.886 80.3857 121.886C79.7189 121.886 79.1521 122.096 78.6854 122.514C78.2297 122.922 77.9297 123.464 77.7852 124.14H82.9695ZM86.128 120.905H87.4782V122.224H87.5449C87.7116 121.774 88.0339 121.404 88.5118 121.114C88.9896 120.814 89.4897 120.663 90.012 120.663C90.401 120.663 90.7344 120.717 91.0122 120.824V122.305C90.6566 122.133 90.2565 122.047 89.812 122.047C89.4008 122.047 89.023 122.16 88.6785 122.385C88.334 122.611 88.0561 122.916 87.845 123.303C87.6449 123.678 87.5449 124.086 87.5449 124.526V129.112H86.128V120.905ZM92.3792 120.905H93.7294V122.112H93.7961C94.0295 121.704 94.4018 121.361 94.913 121.082C95.4242 120.792 95.9687 120.647 96.5466 120.647C97.569 120.647 98.3469 120.937 98.8804 121.516C99.4249 122.085 99.6972 122.863 99.6972 123.85V129.112H98.2803V124.059C98.2803 123.297 98.0913 122.745 97.7135 122.401C97.3356 122.058 96.8189 121.886 96.1632 121.886C95.7076 121.886 95.2964 122.01 94.9296 122.257C94.574 122.503 94.2962 122.831 94.0961 123.238C93.8961 123.635 93.7961 124.054 93.7961 124.494V129.112H92.3792V120.905ZM101.723 120.905H103.074V122.112H103.14C103.385 121.693 103.752 121.345 104.241 121.066C104.73 120.787 105.246 120.647 105.791 120.647C106.413 120.647 106.952 120.792 107.408 121.082C107.875 121.372 108.208 121.758 108.408 122.241C108.708 121.758 109.103 121.372 109.592 121.082C110.092 120.792 110.67 120.647 111.325 120.647C112.303 120.647 113.037 120.937 113.526 121.516C114.026 122.085 114.276 122.863 114.276 123.85V129.112H112.875V124.059C112.875 123.297 112.714 122.745 112.392 122.401C112.07 122.058 111.592 121.886 110.958 121.886C110.536 121.886 110.153 122.004 109.808 122.241C109.464 122.477 109.191 122.793 108.991 123.19C108.802 123.587 108.708 124.016 108.708 124.477V129.112H107.291V124.075C107.291 123.303 107.13 122.745 106.808 122.401C106.485 122.058 106.013 121.886 105.391 121.886C104.968 121.886 104.585 122.01 104.241 122.257C103.896 122.493 103.624 122.815 103.424 123.222C103.235 123.619 103.14 124.048 103.14 124.51V129.112H101.723V120.905ZM120.093 129.37C119.282 129.37 118.554 129.182 117.91 128.806C117.265 128.431 116.76 127.916 116.393 127.262C116.037 126.596 115.859 125.851 115.859 125.025C115.859 124.231 116.026 123.501 116.359 122.836C116.704 122.171 117.187 121.64 117.81 121.243C118.432 120.846 119.154 120.647 119.977 120.647C120.81 120.647 121.533 120.83 122.144 121.194C122.755 121.549 123.222 122.042 123.544 122.675C123.878 123.308 124.044 124.032 124.044 124.848C124.044 125.009 124.028 125.148 123.994 125.266H117.276C117.31 125.888 117.465 126.414 117.743 126.843C118.021 127.272 118.371 127.594 118.793 127.809C119.227 128.023 119.677 128.131 120.143 128.131C121.233 128.131 122.072 127.637 122.661 126.65L123.861 127.213C123.494 127.878 122.994 128.404 122.361 128.79C121.738 129.177 120.983 129.37 120.093 129.37ZM122.544 124.14C122.522 123.796 122.422 123.453 122.244 123.11C122.066 122.766 121.783 122.477 121.394 122.241C121.016 122.004 120.538 121.886 119.96 121.886C119.293 121.886 118.727 122.096 118.26 122.514C117.804 122.922 117.504 123.464 117.36 124.14H122.544ZM125.702 120.905H127.053V122.112H127.119C127.353 121.704 127.725 121.361 128.236 121.082C128.747 120.792 129.292 120.647 129.87 120.647C130.892 120.647 131.67 120.937 132.204 121.516C132.748 122.085 133.02 122.863 133.02 123.85V129.112H131.604V124.059C131.604 123.297 131.415 122.745 131.037 122.401C130.659 122.058 130.142 121.886 129.486 121.886C129.031 121.886 128.62 122.01 128.253 122.257C127.897 122.503 127.619 122.831 127.419 123.238C127.219 123.635 127.119 124.054 127.119 124.494V129.112H125.702V120.905ZM137.891 129.241C137.546 129.241 137.224 129.187 136.924 129.08C136.635 128.973 136.39 128.828 136.19 128.646C135.968 128.442 135.801 128.206 135.69 127.937C135.579 127.669 135.523 127.342 135.523 126.956V122.144H134.04V120.905H135.523V118.587H136.94V120.905H139.007V122.144H136.94V126.618C136.94 127.068 137.029 127.401 137.207 127.616C137.418 127.852 137.724 127.97 138.124 127.97C138.446 127.97 138.757 127.878 139.057 127.696V129.032C138.891 129.107 138.718 129.161 138.541 129.193C138.374 129.225 138.157 129.241 137.891 129.241ZM150.161 129.37C149.005 129.37 147.955 129.107 147.011 128.581C146.066 128.055 145.321 127.337 144.777 126.425C144.243 125.502 143.977 124.477 143.977 123.351C143.977 122.224 144.243 121.205 144.777 120.293C145.321 119.371 146.066 118.646 147.011 118.121C147.955 117.595 149.005 117.332 150.161 117.332C151.05 117.332 151.861 117.498 152.595 117.831C153.34 118.153 153.984 118.614 154.529 119.215L153.512 120.165C153.056 119.639 152.556 119.253 152.011 119.006C151.478 118.759 150.861 118.636 150.161 118.636C149.294 118.636 148.5 118.834 147.777 119.231C147.055 119.617 146.477 120.17 146.044 120.889C145.621 121.597 145.41 122.418 145.41 123.351C145.41 124.284 145.621 125.11 146.044 125.829C146.477 126.537 147.055 127.09 147.777 127.487C148.5 127.873 149.294 128.066 150.161 128.066C151.606 128.066 152.834 127.492 153.845 126.344L154.879 127.31C154.323 127.943 153.64 128.447 152.828 128.823C152.017 129.187 151.128 129.37 150.161 129.37ZM160.224 129.37C159.391 129.37 158.641 129.177 157.974 128.79C157.307 128.404 156.785 127.878 156.407 127.213C156.04 126.548 155.857 125.813 155.857 125.009C155.857 124.204 156.04 123.469 156.407 122.804C156.785 122.139 157.307 121.613 157.974 121.227C158.641 120.84 159.391 120.647 160.224 120.647C161.058 120.647 161.808 120.84 162.475 121.227C163.141 121.613 163.658 122.139 164.025 122.804C164.403 123.469 164.592 124.204 164.592 125.009C164.592 125.813 164.403 126.548 164.025 127.213C163.658 127.878 163.141 128.404 162.475 128.79C161.808 129.177 161.058 129.37 160.224 129.37ZM160.224 128.131C160.746 128.131 161.23 128.007 161.674 127.76C162.13 127.503 162.491 127.138 162.758 126.666C163.036 126.194 163.175 125.642 163.175 125.009C163.175 124.376 163.036 123.823 162.758 123.351C162.491 122.879 162.13 122.519 161.674 122.273C161.23 122.015 160.746 121.886 160.224 121.886C159.702 121.886 159.213 122.015 158.757 122.273C158.302 122.519 157.935 122.879 157.657 123.351C157.39 123.823 157.257 124.376 157.257 125.009C157.257 125.642 157.39 126.194 157.657 126.666C157.935 127.138 158.302 127.503 158.757 127.76C159.213 128.007 159.702 128.131 160.224 128.131ZM166.156 117.59H167.573V129.112H166.156V117.59ZM169.672 117.59H171.089V129.112H169.672V117.59ZM176.891 129.37C176.08 129.37 175.352 129.182 174.707 128.806C174.063 128.431 173.557 127.916 173.19 127.262C172.835 126.596 172.657 125.851 172.657 125.025C172.657 124.231 172.824 123.501 173.157 122.836C173.502 122.171 173.985 121.64 174.607 121.243C175.23 120.846 175.952 120.647 176.774 120.647C177.608 120.647 178.33 120.83 178.941 121.194C179.553 121.549 180.019 122.042 180.342 122.675C180.675 123.308 180.842 124.032 180.842 124.848C180.842 125.009 180.825 125.148 180.792 125.266H174.074C174.107 125.888 174.263 126.414 174.541 126.843C174.819 127.272 175.169 127.594 175.591 127.809C176.024 128.023 176.474 128.131 176.941 128.131C178.03 128.131 178.869 127.637 179.458 126.65L180.658 127.213C180.292 127.878 179.792 128.404 179.158 128.79C178.536 129.177 177.78 129.37 176.891 129.37ZM179.342 124.14C179.319 123.796 179.219 123.453 179.042 123.11C178.864 122.766 178.58 122.477 178.191 122.241C177.814 122.004 177.336 121.886 176.758 121.886C176.091 121.886 175.524 122.096 175.057 122.514C174.602 122.922 174.302 123.464 174.157 124.14H179.342ZM186.315 132.846C185.315 132.846 184.487 132.621 183.831 132.17C183.187 131.719 182.753 131.178 182.531 130.545L183.815 130.013C184.004 130.486 184.315 130.866 184.748 131.156C185.193 131.456 185.715 131.607 186.315 131.607C187.193 131.607 187.871 131.36 188.349 130.866C188.838 130.373 189.082 129.676 189.082 128.774V127.857H189.016C188.738 128.275 188.343 128.619 187.832 128.887C187.332 129.144 186.76 129.273 186.115 129.273C185.382 129.273 184.709 129.091 184.098 128.726C183.498 128.361 183.02 127.852 182.664 127.197C182.309 126.543 182.131 125.797 182.131 124.96C182.131 124.134 182.309 123.394 182.664 122.739C183.02 122.074 183.498 121.559 184.098 121.194C184.709 120.83 185.382 120.647 186.115 120.647C186.76 120.647 187.332 120.781 187.832 121.05C188.343 121.307 188.738 121.65 189.016 122.08H189.082V120.905H190.433V128.79C190.433 130.11 190.055 131.113 189.299 131.8C188.543 132.497 187.549 132.846 186.315 132.846ZM186.315 128.034C186.826 128.034 187.287 127.911 187.699 127.664C188.121 127.417 188.454 127.063 188.699 126.602C188.954 126.14 189.082 125.593 189.082 124.96C189.082 124.317 188.954 123.764 188.699 123.303C188.454 122.841 188.121 122.493 187.699 122.257C187.287 122.01 186.826 121.886 186.315 121.886C185.804 121.886 185.337 122.01 184.915 122.257C184.493 122.503 184.154 122.857 183.898 123.319C183.653 123.78 183.531 124.327 183.531 124.96C183.531 125.593 183.653 126.146 183.898 126.618C184.154 127.079 184.493 127.433 184.915 127.68C185.337 127.916 185.804 128.034 186.315 128.034ZM196.231 129.37C195.42 129.37 194.692 129.182 194.047 128.806C193.403 128.431 192.897 127.916 192.53 127.262C192.175 126.596 191.997 125.851 191.997 125.025C191.997 124.231 192.163 123.501 192.497 122.836C192.841 122.171 193.325 121.64 193.947 121.243C194.569 120.846 195.292 120.647 196.114 120.647C196.948 120.647 197.67 120.83 198.281 121.194C198.892 121.549 199.359 122.042 199.681 122.675C200.015 123.308 200.182 124.032 200.182 124.848C200.182 125.009 200.165 125.148 200.132 125.266H193.414C193.447 125.888 193.603 126.414 193.88 126.843C194.158 127.272 194.508 127.594 194.931 127.809C195.364 128.023 195.814 128.131 196.281 128.131C197.37 128.131 198.209 127.637 198.798 126.65L199.998 127.213C199.631 127.878 199.131 128.404 198.498 128.79C197.876 129.177 197.12 129.37 196.231 129.37ZM198.681 124.14C198.659 123.796 198.559 123.453 198.381 123.11C198.203 122.766 197.92 122.477 197.531 122.241C197.153 122.004 196.675 121.886 196.097 121.886C195.431 121.886 194.864 122.096 194.397 122.514C193.942 122.922 193.641 123.464 193.497 124.14H198.681ZM211.206 129.37C210.061 129.37 209.022 129.102 208.089 128.565C207.155 128.029 206.422 127.304 205.888 126.393C205.355 125.47 205.088 124.456 205.088 123.351C205.088 122.257 205.355 121.248 205.888 120.325C206.422 119.403 207.155 118.673 208.089 118.137C209.022 117.6 210.061 117.332 211.206 117.332C212.35 117.332 213.39 117.6 214.323 118.137C215.257 118.673 215.99 119.403 216.523 120.325C217.068 121.248 217.34 122.257 217.34 123.351C217.34 124.456 217.074 125.47 216.54 126.393C216.007 127.304 215.268 128.029 214.323 128.565C213.39 129.102 212.35 129.37 211.206 129.37ZM211.206 128.066C212.062 128.066 212.845 127.868 213.556 127.471C214.279 127.063 214.845 126.505 215.257 125.797C215.679 125.078 215.89 124.263 215.89 123.351C215.89 122.439 215.679 121.629 215.257 120.921C214.845 120.202 214.279 119.644 213.556 119.247C212.845 118.84 212.062 118.636 211.206 118.636C210.35 118.636 209.567 118.84 208.855 119.247C208.144 119.644 207.577 120.202 207.155 120.921C206.733 121.64 206.522 122.45 206.522 123.351C206.522 124.252 206.733 125.062 207.155 125.781C207.577 126.5 208.144 127.063 208.855 127.471C209.567 127.868 210.35 128.066 211.206 128.066ZM220.128 122.144H218.561V120.905H220.128V120.02C220.128 119.505 220.251 119.054 220.495 118.668C220.74 118.282 221.067 117.987 221.479 117.783C221.89 117.568 222.345 117.461 222.846 117.461C223.323 117.461 223.74 117.525 224.096 117.654V118.99C223.896 118.915 223.707 118.856 223.529 118.813C223.351 118.759 223.14 118.732 222.896 118.732C222.529 118.732 222.212 118.861 221.945 119.118C221.679 119.365 221.545 119.714 221.545 120.165V120.905H223.729V122.144H221.545V129.112H220.128V122.144ZM229.619 117.59H236.52V118.893H231.019V122.707H235.987V123.995H231.019V127.809H236.52V129.112H229.619V117.59ZM238.354 120.905H239.704V122.112H239.771C240.004 121.704 240.377 121.361 240.888 121.082C241.399 120.792 241.943 120.647 242.521 120.647C243.544 120.647 244.322 120.937 244.855 121.516C245.4 122.085 245.672 122.863 245.672 123.85V129.112H244.255V124.059C244.255 123.297 244.066 122.745 243.688 122.401C243.31 122.058 242.794 121.886 242.138 121.886C241.682 121.886 241.271 122.01 240.904 122.257C240.549 122.503 240.271 122.831 240.071 123.238C239.871 123.635 239.771 124.054 239.771 124.494V129.112H238.354V120.905ZM251.351 132.846C250.351 132.846 249.523 132.621 248.867 132.17C248.222 131.719 247.789 131.178 247.567 130.545L248.85 130.013C249.039 130.486 249.35 130.866 249.784 131.156C250.228 131.456 250.751 131.607 251.351 131.607C252.229 131.607 252.907 131.36 253.385 130.866C253.873 130.373 254.118 129.676 254.118 128.774V127.857H254.051C253.773 128.275 253.379 128.619 252.868 128.887C252.368 129.144 251.795 129.273 251.151 129.273C250.417 129.273 249.745 129.091 249.134 128.726C248.534 128.361 248.056 127.852 247.7 127.197C247.344 126.543 247.167 125.797 247.167 124.96C247.167 124.134 247.344 123.394 247.7 122.739C248.056 122.074 248.534 121.559 249.134 121.194C249.745 120.83 250.417 120.647 251.151 120.647C251.795 120.647 252.368 120.781 252.868 121.05C253.379 121.307 253.773 121.65 254.051 122.08H254.118V120.905H255.468V128.79C255.468 130.11 255.09 131.113 254.335 131.8C253.579 132.497 252.584 132.846 251.351 132.846ZM251.351 128.034C251.862 128.034 252.323 127.911 252.734 127.664C253.157 127.417 253.49 127.063 253.735 126.602C253.99 126.14 254.118 125.593 254.118 124.96C254.118 124.317 253.99 123.764 253.735 123.303C253.49 122.841 253.157 122.493 252.734 122.257C252.323 122.01 251.862 121.886 251.351 121.886C250.84 121.886 250.373 122.01 249.951 122.257C249.528 122.503 249.189 122.857 248.934 123.319C248.689 123.78 248.567 124.327 248.567 124.96C248.567 125.593 248.689 126.146 248.934 126.618C249.189 127.079 249.528 127.433 249.951 127.68C250.373 127.916 250.84 128.034 251.351 128.034ZM258.397 119.392C258.119 119.392 257.88 119.296 257.68 119.102C257.48 118.909 257.38 118.679 257.38 118.41C257.38 118.142 257.48 117.917 257.68 117.735C257.88 117.541 258.119 117.445 258.397 117.445C258.674 117.445 258.913 117.541 259.113 117.735C259.313 117.917 259.413 118.142 259.413 118.41C259.413 118.679 259.313 118.909 259.113 119.102C258.924 119.296 258.685 119.392 258.397 119.392ZM257.696 120.905H259.097V129.112H257.696V120.905ZM261.323 120.905H262.674V122.112H262.74C262.974 121.704 263.346 121.361 263.857 121.082C264.368 120.792 264.913 120.647 265.491 120.647C266.513 120.647 267.291 120.937 267.825 121.516C268.369 122.085 268.642 122.863 268.642 123.85V129.112H267.225V124.059C267.225 123.297 267.036 122.745 266.658 122.401C266.28 122.058 265.763 121.886 265.108 121.886C264.652 121.886 264.241 122.01 263.874 122.257C263.518 122.503 263.241 122.831 263.04 123.238C262.84 123.635 262.74 124.054 262.74 124.494V129.112H261.323V120.905ZM274.451 129.37C273.64 129.37 272.912 129.182 272.267 128.806C271.623 128.431 271.117 127.916 270.75 127.262C270.395 126.596 270.217 125.851 270.217 125.025C270.217 124.231 270.384 123.501 270.717 122.836C271.061 122.171 271.545 121.64 272.167 121.243C272.789 120.846 273.512 120.647 274.334 120.647C275.168 120.647 275.89 120.83 276.501 121.194C277.113 121.549 277.579 122.042 277.902 122.675C278.235 123.308 278.402 124.032 278.402 124.848C278.402 125.009 278.385 125.148 278.352 125.266H271.634C271.667 125.888 271.823 126.414 272.1 126.843C272.378 127.272 272.728 127.594 273.151 127.809C273.584 128.023 274.034 128.131 274.501 128.131C275.59 128.131 276.429 127.637 277.018 126.65L278.218 127.213C277.852 127.878 277.351 128.404 276.718 128.79C276.096 129.177 275.34 129.37 274.451 129.37ZM276.901 124.14C276.879 123.796 276.779 123.453 276.601 123.11C276.424 122.766 276.14 122.477 275.751 122.241C275.373 122.004 274.895 121.886 274.318 121.886C273.651 121.886 273.084 122.096 272.617 122.514C272.162 122.922 271.862 123.464 271.717 124.14H276.901ZM283.926 129.37C283.115 129.37 282.387 129.182 281.743 128.806C281.098 128.431 280.592 127.916 280.226 127.262C279.87 126.596 279.692 125.851 279.692 125.025C279.692 124.231 279.859 123.501 280.192 122.836C280.537 122.171 281.02 121.64 281.643 121.243C282.265 120.846 282.987 120.647 283.81 120.647C284.643 120.647 285.365 120.83 285.977 121.194C286.588 121.549 287.055 122.042 287.377 122.675C287.71 123.308 287.877 124.032 287.877 124.848C287.877 125.009 287.86 125.148 287.827 125.266H281.109C281.142 125.888 281.298 126.414 281.576 126.843C281.854 127.272 282.204 127.594 282.626 127.809C283.059 128.023 283.51 128.131 283.976 128.131C285.065 128.131 285.904 127.637 286.493 126.65L287.694 127.213C287.327 127.878 286.827 128.404 286.193 128.79C285.571 129.177 284.815 129.37 283.926 129.37ZM286.377 124.14C286.355 123.796 286.255 123.453 286.077 123.11C285.899 122.766 285.615 122.477 285.227 122.241C284.849 122.004 284.371 121.886 283.793 121.886C283.126 121.886 282.559 122.096 282.093 122.514C281.637 122.922 281.337 123.464 281.192 124.14H286.377ZM289.534 120.905H290.885V122.224H290.951C291.118 121.774 291.44 121.404 291.918 121.114C292.396 120.814 292.896 120.663 293.418 120.663C293.807 120.663 294.141 120.717 294.419 120.824V122.305C294.063 122.133 293.663 122.047 293.218 122.047C292.807 122.047 292.429 122.16 292.085 122.385C291.74 122.611 291.462 122.916 291.251 123.303C291.051 123.678 290.951 124.086 290.951 124.526V129.112H289.534V120.905ZM296.619 119.392C296.341 119.392 296.102 119.296 295.902 119.102C295.702 118.909 295.602 118.679 295.602 118.41C295.602 118.142 295.702 117.917 295.902 117.735C296.102 117.541 296.341 117.445 296.619 117.445C296.897 117.445 297.136 117.541 297.336 117.735C297.536 117.917 297.636 118.142 297.636 118.41C297.636 118.679 297.536 118.909 297.336 119.102C297.147 119.296 296.908 119.392 296.619 119.392ZM295.919 120.905H297.319V129.112H295.919V120.905ZM299.547 120.905H300.898V122.112H300.964C301.198 121.704 301.57 121.361 302.081 121.082C302.592 120.792 303.137 120.647 303.715 120.647C304.737 120.647 305.515 120.937 306.048 121.516C306.593 122.085 306.865 122.863 306.865 123.85V129.112H305.448V124.059C305.448 123.297 305.259 122.745 304.882 122.401C304.504 122.058 303.987 121.886 303.331 121.886C302.876 121.886 302.464 122.01 302.098 122.257C301.742 122.503 301.464 122.831 301.264 123.238C301.064 123.635 300.964 124.054 300.964 124.494V129.112H299.547V120.905ZM312.543 132.846C311.543 132.846 310.715 132.621 310.059 132.17C309.414 131.719 308.981 131.178 308.759 130.545L310.042 130.013C310.231 130.486 310.542 130.866 310.976 131.156C311.42 131.456 311.943 131.607 312.543 131.607C313.421 131.607 314.099 131.36 314.576 130.866C315.065 130.373 315.31 129.676 315.31 128.774V127.857H315.243C314.965 128.275 314.571 128.619 314.06 128.887C313.56 129.144 312.987 129.273 312.343 129.273C311.609 129.273 310.937 129.091 310.326 128.726C309.726 128.361 309.248 127.852 308.892 127.197C308.536 126.543 308.359 125.797 308.359 124.96C308.359 124.134 308.536 123.394 308.892 122.739C309.248 122.074 309.726 121.559 310.326 121.194C310.937 120.83 311.609 120.647 312.343 120.647C312.987 120.647 313.56 120.781 314.06 121.05C314.571 121.307 314.965 121.65 315.243 122.08H315.31V120.905H316.66V128.79C316.66 130.11 316.282 131.113 315.527 131.8C314.771 132.497 313.776 132.846 312.543 132.846ZM312.543 128.034C313.054 128.034 313.515 127.911 313.926 127.664C314.349 127.417 314.682 127.063 314.927 126.602C315.182 126.14 315.31 125.593 315.31 124.96C315.31 124.317 315.182 123.764 314.927 123.303C314.682 122.841 314.349 122.493 313.926 122.257C313.515 122.01 313.054 121.886 312.543 121.886C312.032 121.886 311.565 122.01 311.142 122.257C310.72 122.503 310.381 122.857 310.126 123.319C309.881 123.78 309.759 124.327 309.759 124.96C309.759 125.593 309.881 126.146 310.126 126.618C310.381 127.079 310.72 127.433 311.142 127.68C311.565 127.916 312.032 128.034 312.543 128.034ZM325.842 117.59H327.443L331.977 129.112H330.427L329.226 125.942H324.075L322.875 129.112H321.325L325.842 117.59ZM328.743 124.655L327.159 120.502L326.676 119.263H326.609L326.142 120.502L324.559 124.655H328.743ZM333.277 120.905H334.627V122.112H334.694C334.939 121.693 335.305 121.345 335.794 121.066C336.283 120.787 336.8 120.647 337.345 120.647C337.967 120.647 338.506 120.792 338.962 121.082C339.428 121.372 339.762 121.758 339.962 122.241C340.262 121.758 340.656 121.372 341.145 121.082C341.645 120.792 342.223 120.647 342.879 120.647C343.857 120.647 344.59 120.937 345.079 121.516C345.579 122.085 345.829 122.863 345.829 123.85V129.112H344.429V124.059C344.429 123.297 344.268 122.745 343.946 122.401C343.624 122.058 343.146 121.886 342.512 121.886C342.09 121.886 341.706 122.004 341.362 122.241C341.017 122.477 340.745 122.793 340.545 123.19C340.356 123.587 340.262 124.016 340.262 124.477V129.112H338.845V124.075C338.845 123.303 338.684 122.745 338.361 122.401C338.039 122.058 337.567 121.886 336.944 121.886C336.522 121.886 336.139 122.01 335.794 122.257C335.45 122.493 335.178 122.815 334.977 123.222C334.789 123.619 334.694 124.048 334.694 124.51V129.112H333.277V120.905ZM347.863 120.905H349.213V122.224H349.28C349.447 121.774 349.769 121.404 350.247 121.114C350.725 120.814 351.225 120.663 351.747 120.663C352.136 120.663 352.47 120.717 352.747 120.824V122.305C352.392 122.133 351.992 122.047 351.547 122.047C351.136 122.047 350.758 122.16 350.414 122.385C350.069 122.611 349.791 122.916 349.58 123.303C349.38 123.678 349.28 124.086 349.28 124.526V129.112H347.863V120.905ZM356.505 129.37C355.883 129.37 355.327 129.252 354.838 129.016C354.349 128.78 353.971 128.458 353.705 128.05C353.438 127.632 353.304 127.16 353.304 126.634C353.304 125.765 353.643 125.089 354.321 124.606C354.999 124.113 355.855 123.866 356.888 123.866C357.4 123.866 357.872 123.92 358.305 124.027C358.75 124.134 359.089 124.258 359.322 124.397V123.898C359.322 123.287 359.1 122.798 358.655 122.434C358.211 122.058 357.65 121.87 356.972 121.87C356.494 121.87 356.055 121.972 355.655 122.176C355.255 122.369 354.938 122.643 354.705 122.997L353.638 122.224C353.971 121.731 354.427 121.345 355.005 121.066C355.594 120.787 356.244 120.647 356.955 120.647C358.111 120.647 359.017 120.942 359.672 121.532C360.339 122.112 360.673 122.906 360.673 123.914V129.112H359.322V127.937H359.256C359.011 128.334 358.644 128.672 358.155 128.951C357.666 129.23 357.116 129.37 356.505 129.37ZM356.638 128.163C357.116 128.163 357.561 128.045 357.972 127.809C358.383 127.573 358.711 127.256 358.956 126.859C359.2 126.462 359.322 126.028 359.322 125.556C359.056 125.384 358.728 125.245 358.339 125.137C357.95 125.03 357.539 124.976 357.105 124.976C356.327 124.976 355.738 125.132 355.338 125.443C354.949 125.754 354.755 126.156 354.755 126.65C354.755 127.101 354.933 127.465 355.288 127.744C355.644 128.023 356.094 128.163 356.638 128.163ZM361.548 120.905H363.065L365.698 127.503H365.732L368.399 120.905H369.883L366.415 129.112H364.982L361.548 120.905ZM373.599 129.37C372.976 129.37 372.421 129.252 371.932 129.016C371.443 128.78 371.065 128.458 370.798 128.05C370.531 127.632 370.398 127.16 370.398 126.634C370.398 125.765 370.737 125.089 371.415 124.606C372.093 124.113 372.948 123.866 373.982 123.866C374.493 123.866 374.965 123.92 375.399 124.027C375.843 124.134 376.182 124.258 376.416 124.397V123.898C376.416 123.287 376.193 122.798 375.749 122.434C375.304 122.058 374.743 121.87 374.065 121.87C373.587 121.87 373.148 121.972 372.748 122.176C372.348 122.369 372.032 122.643 371.798 122.997L370.731 122.224C371.065 121.731 371.52 121.345 372.098 121.066C372.687 120.787 373.337 120.647 374.049 120.647C375.204 120.647 376.11 120.942 376.766 121.532C377.433 122.112 377.766 122.906 377.766 123.914V129.112H376.416V127.937H376.349C376.105 128.334 375.738 128.672 375.249 128.951C374.76 129.23 374.21 129.37 373.599 129.37ZM373.732 128.163C374.21 128.163 374.654 128.045 375.065 127.809C375.477 127.573 375.805 127.256 376.049 126.859C376.293 126.462 376.416 126.028 376.416 125.556C376.149 125.384 375.821 125.245 375.432 125.137C375.043 125.03 374.632 124.976 374.199 124.976C373.421 124.976 372.832 125.132 372.432 125.443C372.043 125.754 371.848 126.156 371.848 126.65C371.848 127.101 372.026 127.465 372.382 127.744C372.737 128.023 373.187 128.163 373.732 128.163ZM382.842 129.241C382.497 129.241 382.175 129.187 381.875 129.08C381.586 128.973 381.342 128.828 381.142 128.646C380.919 128.442 380.753 128.206 380.642 127.937C380.53 127.669 380.475 127.342 380.475 126.956V122.144H378.991V120.905H380.475V118.587H381.892V120.905H383.959V122.144H381.892V126.618C381.892 127.068 381.981 127.401 382.158 127.616C382.37 127.852 382.675 127.97 383.075 127.97C383.398 127.97 383.709 127.878 384.009 127.696V129.032C383.842 129.107 383.67 129.161 383.492 129.193C383.325 129.225 383.109 129.241 382.842 129.241ZM386.594 119.392C386.316 119.392 386.077 119.296 385.877 119.102C385.677 118.909 385.577 118.679 385.577 118.41C385.577 118.142 385.677 117.917 385.877 117.735C386.077 117.541 386.316 117.445 386.594 117.445C386.872 117.445 387.111 117.541 387.311 117.735C387.511 117.917 387.611 118.142 387.611 118.41C387.611 118.679 387.511 118.909 387.311 119.102C387.122 119.296 386.883 119.392 386.594 119.392ZM385.894 120.905H387.294V129.112H385.894V120.905Z" fill="#242424"/>
<defs>
<linearGradient id="paint0_linear_703_2374" x1="425.69" y1="131.344" x2="9.16829" y2="131.344" gradientUnits="userSpaceOnUse">
<stop stop-color="#348BCA"/>
<stop offset="0.404875" stop-color="#59A43A"/>
<stop offset="0.711571" stop-color="#F3B002"/>
<stop offset="1" stop-color="#DF572E"/>
</linearGradient>
</defs>
</svg>
