<svg width="429" height="168" viewBox="0 0 429 168" fill="none" xmlns="http://www.w3.org/2000/svg">
<path d="M416.996 1.99976H11.3647C5.99422 1.99976 1.64062 6.20273 1.64062 11.3874V156.225C1.64062 161.409 5.99422 165.612 11.3647 165.612H416.996C422.366 165.612 426.72 161.409 426.72 156.225V11.3874C426.72 6.20273 422.366 1.99976 416.996 1.99976Z" fill="#EFEFEF" stroke="url(#paint0_linear_703_2368)" stroke-width="3.2"/>
<path d="M50.3814 104.111C48.8408 104.111 47.4211 103.753 46.1236 103.04C44.8248 102.325 43.7899 101.348 43.0203 100.109C42.2646 98.8554 41.8867 97.4634 41.8867 95.9319C41.8867 94.4017 42.2646 93.0163 43.0203 91.7772C43.7899 90.5232 44.8248 89.5389 46.1236 88.8254C47.4211 88.1106 48.8408 87.7539 50.3814 87.7539C51.6052 87.7539 52.7443 87.9645 53.8015 88.3869C54.8586 88.8107 55.7421 89.4008 56.452 90.1585L54.685 91.8643C54.1571 91.2957 53.5223 90.8585 52.7832 90.5528C52.0581 90.247 51.2496 90.0928 50.3592 90.0928C49.3173 90.0928 48.3435 90.3342 47.4364 90.8143C46.5307 91.2957 45.8055 91.981 45.2624 92.8701C44.7192 93.7593 44.4469 94.7799 44.4469 95.9319C44.4469 97.0838 44.7192 98.1044 45.2624 98.9935C45.8055 99.8827 46.5307 100.568 47.4364 101.049C48.3435 101.53 49.3242 101.771 50.3814 101.771C51.3482 101.771 52.1553 101.633 52.8054 101.355C53.4542 101.078 54.0362 100.706 54.5488 100.239C54.8822 99.9189 55.1614 99.5179 55.3879 99.0378C55.6296 98.5563 55.7879 98.0306 55.8629 97.4634H50.3592V95.276H58.2648C58.3398 95.6837 58.3773 96.1075 58.3773 96.5447C58.3773 97.5358 58.219 98.4906 57.9022 99.4093C57.5841 100.313 57.0784 101.1 56.3839 101.771C54.8586 103.331 52.8582 104.111 50.3814 104.111ZM66.201 104.111C65.0383 104.111 63.9964 103.855 63.0754 103.345C62.1544 102.82 61.4376 102.106 60.9236 101.202C60.4096 100.298 60.154 99.2926 60.154 98.1849C60.154 97.0758 60.4096 96.07 60.9236 95.1661C61.4376 94.2622 62.1544 93.5554 63.0754 93.0458C63.9964 92.5201 65.0383 92.2586 66.201 92.2586C67.3637 92.2586 68.4056 92.5201 69.328 93.0458C70.249 93.5702 70.9658 94.285 71.4797 95.1889C71.9923 96.0928 72.2493 97.0905 72.2493 98.1849C72.2493 99.2926 71.9923 100.298 71.4797 101.202C70.9658 102.106 70.249 102.82 69.328 103.345C68.4056 103.855 67.3637 104.111 66.201 104.111ZM66.201 101.902C66.8358 101.902 67.4248 101.756 67.968 101.465C68.5125 101.158 68.9418 100.729 69.2599 100.174C69.5919 99.6051 69.7572 98.9426 69.7572 98.1849C69.7572 97.4258 69.5919 96.77 69.2599 96.2162C68.9418 95.6623 68.5125 95.2398 67.968 94.9475C67.4248 94.6417 66.8358 94.4888 66.201 94.4888C65.5675 94.4888 64.9785 94.6417 64.434 94.9475C63.8908 95.2398 63.4532 95.6623 63.1212 96.2162C62.8031 96.77 62.6448 97.4258 62.6448 98.1849C62.6448 98.9426 62.8031 99.6051 63.1212 100.174C63.4532 100.729 63.8908 101.158 64.434 101.465C64.9785 101.756 65.5675 101.902 66.201 101.902ZM79.9605 104.111C78.7978 104.111 77.7559 103.855 76.8349 103.345C75.9139 102.82 75.1957 102.106 74.6831 101.202C74.1691 100.298 73.9121 99.2926 73.9121 98.1849C73.9121 97.0758 74.1691 96.07 74.6831 95.1661C75.1957 94.2622 75.9139 93.5554 76.8349 93.0458C77.7559 92.5201 78.7978 92.2586 79.9605 92.2586C81.1232 92.2586 82.1651 92.5201 83.0861 93.0458C84.0071 93.5702 84.7252 94.285 85.2378 95.1889C85.7518 96.0928 86.0088 97.0905 86.0088 98.1849C86.0088 99.2926 85.7518 100.298 85.2378 101.202C84.7252 102.106 84.0071 102.82 83.0861 103.345C82.1651 103.855 81.1232 104.111 79.9605 104.111ZM79.9605 101.902C80.5953 101.902 81.1829 101.756 81.7275 101.465C82.2707 101.158 82.7013 100.729 83.018 100.174C83.35 99.6051 83.5167 98.9426 83.5167 98.1849C83.5167 97.4258 83.35 96.77 83.018 96.2162C82.7013 95.6623 82.2707 95.2398 81.7275 94.9475C81.1829 94.6417 80.5953 94.4888 79.9605 94.4888C79.3257 94.4888 78.7367 94.6417 78.1935 94.9475C77.6503 95.2398 77.2113 95.6623 76.8793 96.2162C76.5626 96.77 76.4043 97.4258 76.4043 98.1849C76.4043 98.9426 76.5626 99.6051 76.8793 100.174C77.2113 100.729 77.6503 101.158 78.1935 101.465C78.7367 101.756 79.3257 101.902 79.9605 101.902ZM93.5158 108.834C92.0961 108.834 90.9181 108.521 89.9818 107.893C89.0608 107.267 88.4412 106.524 88.1245 105.663L90.4583 104.723C90.6986 105.306 91.0848 105.773 91.6127 106.123C92.1558 106.486 92.7907 106.669 93.5158 106.669C94.5729 106.669 95.3953 106.363 95.9843 105.75C96.5886 105.153 96.89 104.307 96.89 103.214V102.187H96.7553C96.3774 102.711 95.8718 103.127 95.237 103.433C94.6174 103.724 93.9006 103.87 93.0852 103.87C92.1183 103.87 91.2209 103.63 90.3902 103.148C89.5595 102.667 88.8941 101.99 88.3968 101.115C87.9134 100.225 87.6716 99.2121 87.6716 98.0749C87.6716 96.9377 87.9134 95.9318 88.3968 95.0575C88.8941 94.1683 89.5595 93.483 90.3902 93.0016C91.2209 92.5054 92.1183 92.2586 93.0852 92.2586C93.8853 92.2586 94.6035 92.4115 95.237 92.7173C95.8718 93.023 96.3774 93.4388 96.7553 93.9645H96.89V92.6086H99.2696V103.148C99.2696 104.358 99.0279 105.386 98.5445 106.231C98.0611 107.092 97.3818 107.74 96.5052 108.177C95.6454 108.616 94.6479 108.834 93.5158 108.834ZM93.538 101.684C94.1423 101.684 94.7007 101.544 95.2147 101.268C95.7273 100.976 96.1357 100.561 96.4372 100.021C96.74 99.4669 96.89 98.8179 96.89 98.0749C96.89 96.9377 96.5664 96.0552 95.9162 95.4289C95.2828 94.7879 94.4896 94.4674 93.538 94.4674C92.9184 94.4674 92.3531 94.6122 91.8391 94.9046C91.3265 95.1808 90.9181 95.5899 90.6166 96.129C90.3138 96.6681 90.1638 97.3172 90.1638 98.0749C90.1638 98.8326 90.3138 99.4817 90.6166 100.021C90.9181 100.561 91.3265 100.976 91.8391 101.268C92.3531 101.544 92.9184 101.684 93.538 101.684ZM102.198 88.1039H104.689V103.761H102.198V88.1039ZM112.785 104.111C111.651 104.111 110.633 103.855 109.726 103.345C108.835 102.834 108.134 102.136 107.62 101.245C107.121 100.341 106.872 99.3288 106.872 98.2063C106.872 97.1415 107.114 96.1585 107.598 95.2546C108.095 94.336 108.783 93.6064 109.658 93.0673C110.534 92.5282 111.53 92.2586 112.649 92.2586C113.811 92.2586 114.816 92.5054 115.662 93.0016C116.521 93.4978 117.172 94.175 117.609 95.036C118.062 95.8956 118.288 96.8652 118.288 97.9435C118.288 98.1473 118.266 98.4035 118.22 98.7092H109.363C109.455 99.7446 109.831 100.547 110.497 101.115C111.176 101.669 111.961 101.945 112.853 101.945C113.563 101.945 114.174 101.792 114.686 101.487C115.216 101.166 115.638 100.736 115.956 100.196L118.062 101.158C117.519 102.077 116.809 102.798 115.932 103.324C115.057 103.848 114.007 104.111 112.785 104.111ZM115.752 96.8719C115.721 96.479 115.594 96.0928 115.367 95.7132C115.141 95.3203 114.792 94.9917 114.324 94.7289C113.871 94.4674 113.313 94.336 112.649 94.336C111.848 94.336 111.169 94.5693 110.609 95.036C110.066 95.4879 109.688 96.0995 109.477 96.8719H115.752ZM126.275 88.1039H131.462C133.137 88.1039 134.603 88.4312 135.856 89.0869C137.109 89.7427 138.069 90.6694 138.733 91.8643C139.412 93.0458 139.752 94.4017 139.752 95.9319C139.752 97.4634 139.412 98.8259 138.733 100.021C138.069 101.202 137.109 102.121 135.856 102.777C134.603 103.433 133.137 103.761 131.462 103.761H126.275V88.1039ZM131.416 101.421C133.229 101.421 134.64 100.939 135.651 99.9779C136.679 99.0003 137.192 97.6525 137.192 95.9319C137.192 94.226 136.679 92.8849 135.651 91.9086C134.64 90.9309 133.229 90.4428 131.416 90.4428H128.811V101.421H131.416ZM147.181 104.111C146.049 104.111 145.03 103.855 144.124 103.345C143.233 102.834 142.53 102.136 142.016 101.245C141.519 100.341 141.269 99.3288 141.269 98.2063C141.269 97.1415 141.511 96.1585 141.994 95.2546C142.493 94.336 143.181 93.6064 144.056 93.0673C144.932 92.5282 145.928 92.2586 147.045 92.2586C148.208 92.2586 149.212 92.5054 150.058 93.0016C150.92 93.4978 151.568 94.175 152.006 95.036C152.46 95.8956 152.687 96.8652 152.687 97.9435C152.687 98.1473 152.663 98.4035 152.618 98.7092H143.761C143.852 99.7446 144.229 100.547 144.893 101.115C145.574 101.669 146.359 101.945 147.249 101.945C147.959 101.945 148.57 101.792 149.084 101.487C149.612 101.166 150.036 100.736 150.353 100.196L152.46 101.158C151.916 102.077 151.206 102.798 150.331 103.324C149.454 103.848 148.405 104.111 147.181 104.111ZM150.149 96.8719C150.119 96.479 149.99 96.0928 149.764 95.7132C149.537 95.3203 149.19 94.9917 148.722 94.7289C148.269 94.4674 147.711 94.336 147.045 94.336C146.245 94.336 145.566 94.5693 145.007 95.036C144.464 95.4879 144.086 96.0995 143.875 96.8719H150.149ZM153.442 92.6086H156.229L159.422 100.655H159.513L162.774 92.6086H165.493L160.691 103.761H158.2L153.442 92.6086ZM172.046 104.111C170.912 104.111 169.894 103.855 168.987 103.345C168.096 102.834 167.395 102.136 166.881 101.245C166.382 100.341 166.133 99.3288 166.133 98.2063C166.133 97.1415 166.375 96.1585 166.859 95.2546C167.356 94.336 168.044 93.6064 168.919 93.0673C169.795 92.5282 170.791 92.2586 171.91 92.2586C173.072 92.2586 174.077 92.5054 174.923 93.0016C175.782 93.4978 176.433 94.175 176.87 95.036C177.323 95.8956 177.549 96.8652 177.549 97.9435C177.549 98.1473 177.527 98.4035 177.481 98.7092H168.624C168.716 99.7446 169.092 100.547 169.758 101.115C170.437 101.669 171.222 101.945 172.114 101.945C172.824 101.945 173.435 101.792 173.947 101.487C174.477 101.166 174.899 100.736 175.217 100.196L177.323 101.158C176.78 102.077 176.07 102.798 175.193 103.324C174.318 103.848 173.268 104.111 172.046 104.111ZM175.013 96.8719C174.982 96.479 174.855 96.0928 174.628 95.7132C174.402 95.3203 174.053 94.9917 173.585 94.7289C173.132 94.4674 172.574 94.336 171.91 94.336C171.109 94.336 170.43 94.5693 169.87 95.036C169.327 95.4879 168.949 96.0995 168.738 96.8719H175.013ZM179.818 88.1039H182.31V103.761H179.818V88.1039ZM190.541 104.111C189.378 104.111 188.336 103.855 187.415 103.345C186.494 102.82 185.777 102.106 185.263 101.202C184.749 100.298 184.494 99.2926 184.494 98.1849C184.494 97.0758 184.749 96.07 185.263 95.1661C185.777 94.2622 186.494 93.5554 187.415 93.0458C188.336 92.5201 189.378 92.2586 190.541 92.2586C191.703 92.2586 192.745 92.5201 193.668 93.0458C194.589 93.5702 195.306 94.285 195.82 95.1889C196.332 96.0928 196.589 97.0905 196.589 98.1849C196.589 99.2926 196.332 100.298 195.82 101.202C195.306 102.106 194.589 102.82 193.668 103.345C192.745 103.855 191.703 104.111 190.541 104.111ZM190.541 101.902C191.176 101.902 191.765 101.756 192.308 101.465C192.852 101.158 193.282 100.729 193.6 100.174C193.932 99.6051 194.097 98.9426 194.097 98.1849C194.097 97.4258 193.932 96.77 193.6 96.2162C193.282 95.6623 192.852 95.2398 192.308 94.9475C191.765 94.6417 191.176 94.4888 190.541 94.4888C189.907 94.4888 189.318 94.6417 188.774 94.9475C188.231 95.2398 187.793 95.6623 187.461 96.2162C187.143 96.77 186.985 97.4258 186.985 98.1849C186.985 98.9426 187.143 99.6051 187.461 100.174C187.793 100.729 188.231 101.158 188.774 101.465C189.318 101.756 189.907 101.902 190.541 101.902ZM198.685 92.6086H201.064V94.0731H201.178C201.51 93.5635 202 93.133 202.65 92.783C203.299 92.433 204.031 92.2586 204.846 92.2586C205.888 92.2586 206.833 92.5134 207.677 93.023C208.523 93.534 209.189 94.2407 209.671 95.1446C210.169 96.0338 210.419 97.0476 210.419 98.1849C210.419 99.3221 210.169 100.341 209.671 101.245C209.189 102.136 208.523 102.834 207.677 103.345C206.833 103.855 205.888 104.111 204.846 104.111C204.031 104.111 203.299 103.935 202.65 103.585C202 103.235 201.51 102.813 201.178 102.317H201.064L201.178 103.87V108.484H198.685V92.6086ZM204.484 101.902C205.088 101.902 205.655 101.748 206.183 101.442C206.712 101.137 207.134 100.699 207.451 100.131C207.769 99.5622 207.927 98.9131 207.927 98.1849C207.927 97.4553 207.769 96.8143 207.451 96.2604C207.134 95.6918 206.712 95.2546 206.183 94.9475C205.655 94.6417 205.088 94.4888 204.484 94.4888C203.881 94.4888 203.314 94.6417 202.785 94.9475C202.272 95.2546 201.857 95.6918 201.54 96.2604C201.222 96.8143 201.064 97.4553 201.064 98.1849C201.064 98.9131 201.222 99.5622 201.54 100.131C201.857 100.699 202.272 101.137 202.785 101.442C203.314 101.748 203.881 101.902 204.484 101.902ZM217.968 104.111C216.835 104.111 215.816 103.855 214.909 103.345C214.019 102.834 213.316 102.136 212.803 101.245C212.305 100.341 212.056 99.3288 212.056 98.2063C212.056 97.1415 212.298 96.1585 212.781 95.2546C213.278 94.336 213.966 93.6064 214.841 93.0673C215.718 92.5282 216.714 92.2586 217.832 92.2586C218.995 92.2586 219.999 92.5054 220.844 93.0016C221.705 93.4978 222.355 94.175 222.793 95.036C223.245 95.8956 223.472 96.8652 223.472 97.9435C223.472 98.1473 223.45 98.4035 223.404 98.7092H214.547C214.638 99.7446 215.015 100.547 215.68 101.115C216.359 101.669 217.144 101.945 218.036 101.945C218.745 101.945 219.357 101.792 219.87 101.487C220.399 101.166 220.821 100.736 221.138 100.196L223.245 101.158C222.702 102.077 221.992 102.798 221.116 103.324C220.241 103.848 219.191 104.111 217.968 104.111ZM220.935 96.8719C220.905 96.479 220.777 96.0928 220.551 95.7132C220.323 95.3203 219.975 94.9917 219.507 94.7289C219.054 94.4674 218.496 94.336 217.832 94.336C217.032 94.336 216.351 94.5693 215.793 95.036C215.25 95.4879 214.872 96.0995 214.661 96.8719H220.935ZM225.74 92.6086H228.12V94.2488H228.233C228.49 93.6802 228.935 93.2135 229.569 92.8487C230.204 92.4692 230.875 92.2801 231.585 92.2801C232.144 92.2801 232.613 92.3525 232.989 92.4987V94.9917C232.325 94.7584 231.729 94.6417 231.2 94.6417C230.626 94.6417 230.112 94.7879 229.659 95.0789C229.222 95.3713 228.874 95.7642 228.617 96.2604C228.36 96.7405 228.233 97.2729 228.233 97.8563V103.761H225.74V92.6086ZM244.619 104.111C243.274 104.111 242.067 103.732 240.995 102.974C239.922 102.215 239.182 101.151 238.775 99.7808L241.175 98.8407C241.417 99.7003 241.841 100.407 242.444 100.961C243.063 101.501 243.803 101.771 244.663 101.771C245.465 101.771 246.144 101.574 246.703 101.181C247.261 100.772 247.54 100.218 247.54 99.5179C247.54 98.8769 247.292 98.3525 246.793 97.9435C246.309 97.521 245.457 97.0986 244.234 96.6748L243.214 96.3261C242.127 95.9613 241.213 95.4356 240.474 94.7517C239.733 94.0664 239.364 93.1625 239.364 92.04C239.364 91.2662 239.582 90.5528 240.021 89.897C240.458 89.2398 241.063 88.7235 241.832 88.344C242.617 87.9497 243.501 87.7539 244.483 87.7539C245.902 87.7539 247.035 88.0892 247.881 88.7597C248.727 89.4155 249.292 90.1585 249.58 90.9899L247.292 91.93C247.125 91.4338 246.808 90.9967 246.34 90.6185C245.872 90.2389 245.268 90.0499 244.529 90.0499C243.788 90.0499 243.162 90.2322 242.648 90.5957C242.149 90.9604 241.9 91.4271 241.9 91.9958C241.9 92.5349 242.127 92.9801 242.58 93.3301C243.032 93.6802 243.742 94.0154 244.709 94.336L245.729 94.6632C247.118 95.1299 248.19 95.7428 248.945 96.5005C249.716 97.2434 250.1 98.2425 250.1 99.4964C250.1 100.517 249.828 101.377 249.285 102.077C248.742 102.762 248.046 103.272 247.201 103.607C246.371 103.943 245.509 104.111 244.619 104.111ZM256.754 103.935C256.241 103.935 255.757 103.855 255.304 103.695C254.851 103.534 254.482 103.324 254.194 103.061C253.546 102.433 253.22 101.58 253.22 100.502V94.7289H251.205V92.6086H253.22V89.4584H255.713V92.6086H258.521V94.7289H255.713V99.9779C255.713 100.575 255.833 100.998 256.075 101.245C256.302 101.538 256.693 101.684 257.253 101.684C257.509 101.684 257.735 101.654 257.932 101.595C258.128 101.523 258.34 101.413 258.566 101.268V103.607C258.069 103.827 257.464 103.935 256.754 103.935ZM265.103 104.111C263.699 104.111 262.628 103.71 261.887 102.908C261.162 102.091 260.8 100.961 260.8 99.5179V92.6086H263.292V99.1907C263.292 100.095 263.51 100.772 263.949 101.224C264.402 101.676 264.991 101.902 265.716 101.902C266.305 101.902 266.826 101.756 267.279 101.465C267.732 101.158 268.079 100.757 268.321 100.262C268.562 99.766 268.683 99.2336 268.683 98.665V92.6086H271.174V103.761H268.819V102.317H268.683C268.365 102.842 267.875 103.272 267.211 103.607C266.545 103.943 265.844 104.111 265.103 104.111ZM278.902 104.111C277.86 104.111 276.917 103.855 276.071 103.345C275.225 102.834 274.552 102.136 274.055 101.245C273.571 100.341 273.33 99.3221 273.33 98.1849C273.33 97.0476 273.571 96.0338 274.055 95.1446C274.552 94.2407 275.225 93.534 276.071 93.023C276.917 92.5134 277.86 92.2586 278.902 92.2586C279.717 92.2586 280.449 92.433 281.099 92.783C281.748 93.133 282.24 93.5635 282.572 94.0731H282.684L282.572 92.4987V88.1039H285.063V103.761H282.684V102.317H282.572C282.24 102.813 281.748 103.235 281.099 103.585C280.449 103.935 279.717 104.111 278.902 104.111ZM279.264 101.902C279.868 101.902 280.427 101.748 280.941 101.442C281.469 101.137 281.892 100.699 282.209 100.131C282.526 99.5622 282.684 98.9131 282.684 98.1849C282.684 97.4553 282.526 96.8143 282.209 96.2604C281.892 95.6918 281.469 95.2546 280.941 94.9475C280.427 94.6417 279.868 94.4888 279.264 94.4888C278.66 94.4888 278.095 94.6417 277.565 94.9475C277.037 95.2546 276.614 95.6918 276.297 96.2604C275.98 96.8143 275.822 97.4553 275.822 98.1849C275.822 98.9131 275.98 99.5622 276.297 100.131C276.614 100.699 277.037 101.137 277.565 101.442C278.095 101.748 278.66 101.902 279.264 101.902ZM293.133 104.111C292.001 104.111 290.982 103.855 290.076 103.345C289.184 102.834 288.483 102.136 287.969 101.245C287.47 100.341 287.221 99.3288 287.221 98.2063C287.221 97.1415 287.463 96.1585 287.946 95.2546C288.445 94.336 289.131 93.6064 290.008 93.0673C290.883 92.5282 291.88 92.2586 292.997 92.2586C294.16 92.2586 295.164 92.5054 296.01 93.0016C296.87 93.4978 297.52 94.175 297.958 95.036C298.411 95.8956 298.637 96.8652 298.637 97.9435C298.637 98.1473 298.615 98.4035 298.569 98.7092H289.713C289.804 99.7446 290.182 100.547 290.846 101.115C291.525 101.669 292.31 101.945 293.202 101.945C293.911 101.945 294.523 101.792 295.037 101.487C295.564 101.166 295.987 100.736 296.305 100.196L298.411 101.158C297.868 102.077 297.158 102.798 296.281 103.324C295.406 103.848 294.356 104.111 293.133 104.111ZM296.101 96.8719C296.07 96.479 295.942 96.0928 295.716 95.7132C295.489 95.3203 295.142 94.9917 294.674 94.7289C294.221 94.4674 293.661 94.336 292.997 94.336C292.197 94.336 291.518 94.5693 290.959 95.036C290.415 95.4879 290.037 96.0995 289.826 96.8719H296.101ZM300.907 92.6086H303.285V94.0731H303.398C303.73 93.5487 304.222 93.1182 304.87 92.783C305.536 92.433 306.237 92.2586 306.978 92.2586C308.382 92.2586 309.446 92.6596 310.171 93.4602C310.91 94.2488 311.281 95.327 311.281 96.6976V103.761H308.789V97.0248C308.789 96.1504 308.563 95.5094 308.11 95.1004C307.672 94.6927 307.06 94.4888 306.275 94.4888C305.716 94.4888 305.218 94.6417 304.78 94.9475C304.342 95.2398 304.002 95.6328 303.76 96.129C303.519 96.6238 303.398 97.1563 303.398 97.7249V103.761H300.907V92.6086ZM318.249 103.935C317.737 103.935 317.253 103.855 316.8 103.695C316.347 103.534 315.977 103.324 315.69 103.061C315.04 102.433 314.715 101.58 314.715 100.502V94.7289H312.7V92.6086H314.715V89.4584H317.207V92.6086H320.016V94.7289H317.207V99.9779C317.207 100.575 317.328 100.998 317.57 101.245C317.796 101.538 318.19 101.684 318.748 101.684C319.005 101.684 319.231 101.654 319.427 101.595C319.623 101.523 319.836 101.413 320.062 101.268V103.607C319.563 103.827 318.959 103.935 318.249 103.935ZM335.316 104.111C333.745 104.111 332.312 103.753 331.013 103.04C329.714 102.325 328.694 101.34 327.954 100.087C327.215 98.8326 326.844 97.4486 326.844 95.9319C326.844 94.4164 327.215 93.0311 327.954 91.7772C328.694 90.5232 329.714 89.5389 331.013 88.8254C332.312 88.1106 333.745 87.7539 335.316 87.7539C336.539 87.7539 337.649 87.9725 338.646 88.4097C339.657 88.8469 340.549 89.4812 341.319 90.3114L339.507 91.9958C338.948 91.3547 338.329 90.88 337.649 90.5742C336.969 90.2537 336.192 90.0928 335.316 90.0928C334.229 90.0928 333.233 90.3342 332.327 90.8143C331.435 91.2957 330.725 91.981 330.197 92.8701C329.668 93.7445 329.404 94.7651 329.404 95.9319C329.404 97.0986 329.668 98.1259 330.197 99.015C330.725 99.8894 331.435 100.568 332.327 101.049C333.233 101.53 334.229 101.771 335.316 101.771C337.128 101.771 338.668 101.041 339.937 99.5836L341.772 101.289C340.987 102.179 340.042 102.872 338.941 103.367C337.838 103.863 336.63 104.111 335.316 104.111ZM343.975 88.1039H346.467V103.761H343.975V88.1039ZM353.609 104.111C352.204 104.111 351.132 103.71 350.391 102.908C349.666 102.091 349.305 100.961 349.305 99.5179V92.6086H351.796V99.1907C351.796 100.095 352.015 100.772 352.453 101.224C352.906 101.676 353.495 101.902 354.22 101.902C354.809 101.902 355.33 101.756 355.783 101.465C356.235 101.158 356.583 100.757 356.824 100.262C357.066 99.766 357.187 99.2336 357.187 98.665V92.6086H359.679V103.761H357.323V102.317H357.187C356.87 102.842 356.379 103.272 355.715 103.607C355.051 103.943 354.348 104.111 353.609 104.111ZM368.741 104.111C367.925 104.111 367.192 103.935 366.543 103.585C365.893 103.235 365.402 102.813 365.07 102.317H364.958V103.761H362.578V88.1039H365.07V92.4987L364.958 94.0731H365.07C365.402 93.5635 365.893 93.133 366.543 92.783C367.192 92.433 367.925 92.2586 368.741 92.2586C369.782 92.2586 370.726 92.5134 371.572 93.023C372.418 93.534 373.082 94.2407 373.565 95.1446C374.064 96.0338 374.312 97.0476 374.312 98.1849C374.312 99.3221 374.064 100.341 373.565 101.245C373.082 102.136 372.418 102.834 371.572 103.345C370.726 103.855 369.782 104.111 368.741 104.111ZM368.378 101.902C368.982 101.902 369.548 101.748 370.077 101.442C370.605 101.137 371.029 100.699 371.345 100.131C371.662 99.5622 371.82 98.9131 371.82 98.1849C371.82 97.4553 371.662 96.8143 371.345 96.2604C371.029 95.6918 370.605 95.2546 370.077 94.9475C369.548 94.6417 368.982 94.4888 368.378 94.4888C367.774 94.4888 367.207 94.6417 366.679 94.9475C366.165 95.2546 365.75 95.6918 365.433 96.2604C365.116 96.8143 364.958 97.4553 364.958 98.1849C364.958 98.9131 365.116 99.5622 365.433 100.131C365.75 100.699 366.165 101.137 366.679 101.442C367.207 101.748 367.774 101.902 368.378 101.902ZM380.683 104.111C379.355 104.111 378.267 103.834 377.421 103.28C376.577 102.711 375.979 101.99 375.632 101.115L377.852 100.174C378.124 100.757 378.502 101.202 378.986 101.508C379.483 101.814 380.05 101.968 380.683 101.968C381.303 101.968 381.824 101.865 382.247 101.661C382.67 101.442 382.881 101.122 382.881 100.699C382.881 100.29 382.7 99.9698 382.338 99.7365C381.975 99.5032 381.417 99.2993 380.661 99.125L379.279 98.7964C378.358 98.5778 377.595 98.1916 376.992 97.6377C376.388 97.0838 376.085 96.3838 376.085 95.5389C376.085 94.8818 376.282 94.3065 376.674 93.8103C377.082 93.3154 377.626 92.9359 378.305 92.673C378.986 92.3967 379.725 92.2586 380.525 92.2586C381.597 92.2586 382.542 92.4692 383.357 92.8929C384.173 93.3006 384.762 93.8988 385.123 94.686L382.949 95.6033C382.511 94.7436 381.711 94.3132 380.548 94.3132C379.989 94.3132 379.52 94.4231 379.144 94.6417C378.766 94.8603 378.577 95.1446 378.577 95.4947C378.577 95.8299 378.72 96.1075 379.008 96.3261C379.294 96.53 379.718 96.7043 380.276 96.8505L381.975 97.2662C383.107 97.5425 383.96 97.9663 384.534 98.5335C385.123 99.0888 385.417 99.7741 385.417 100.589C385.417 101.289 385.206 101.909 384.784 102.448C384.375 102.974 383.81 103.382 383.085 103.673C382.36 103.965 381.56 104.111 380.683 104.111Z" fill="#242424"/>
<path d="M222.1 53.6167L240.738 43.2283C243.336 41.7805 246.657 42.6397 248.157 45.1474C249.657 47.6551 248.767 50.8616 246.169 52.3095L227.531 62.6978C224.933 64.1456 221.612 63.2864 220.112 60.7787C218.613 58.2711 219.503 55.0645 222.1 53.6167Z" fill="#FBBC04"/>
<path d="M208.865 41.8648L190.227 52.2531C187.629 53.7009 184.308 52.8417 182.808 50.3341C181.308 47.8264 182.198 44.6198 184.796 43.172L203.434 32.7836C206.031 31.3358 209.353 32.195 210.853 34.7027C212.352 37.2104 211.462 40.417 208.865 41.8648Z" fill="#EA4335"/>
<path d="M208.406 53.6156L189.768 43.2272C187.17 41.7794 183.849 42.6386 182.349 45.1463C180.849 47.654 181.739 50.8606 184.337 52.3084L202.975 62.6967C205.572 64.1445 208.894 63.2853 210.394 60.7777C211.893 58.27 211.003 55.0634 208.406 53.6156Z" fill="#4285F4"/>
<path d="M221.784 41.6882L241.055 52.4293C243.477 53.7797 246.575 52.9783 247.974 50.6393L248.34 50.0283C249.738 47.6894 248.908 44.6985 246.485 43.3481L227.215 32.607C224.792 31.2566 221.694 32.058 220.295 34.397L219.93 35.008C218.531 37.3469 219.361 40.3378 221.784 41.6882Z" fill="#0F9D58"/>
<path d="M195.352 133.16C194.23 133.16 193.196 132.897 192.252 132.372C191.307 131.846 190.557 131.122 190.001 130.199C189.446 129.276 189.168 128.257 189.168 127.141C189.168 126.026 189.446 125.006 190.001 124.084C190.557 123.161 191.307 122.437 192.252 121.911C193.196 121.386 194.23 121.123 195.352 121.123C196.23 121.123 197.053 121.273 197.82 121.573C198.597 121.874 199.237 122.297 199.737 122.845L198.72 123.826C198.342 123.376 197.858 123.032 197.269 122.796C196.68 122.55 196.047 122.426 195.369 122.426C194.525 122.426 193.735 122.625 193.002 123.022C192.28 123.408 191.696 123.96 191.252 124.679C190.818 125.387 190.602 126.208 190.602 127.141C190.602 128.075 190.818 128.901 191.252 129.62C191.696 130.328 192.285 130.88 193.019 131.277C193.752 131.664 194.536 131.857 195.369 131.857C196.169 131.857 196.836 131.739 197.369 131.503C197.914 131.256 198.381 130.934 198.77 130.537C199.059 130.237 199.292 129.877 199.47 129.459C199.648 129.03 199.759 128.558 199.803 128.043H195.386V126.771H201.12C201.176 127.072 201.204 127.351 201.204 127.608C201.204 128.316 201.087 129.008 200.854 129.684C200.62 130.349 200.248 130.934 199.737 131.438C198.636 132.586 197.175 133.16 195.352 133.16ZM203.312 121.38H204.713V126.369H210.88V121.38H212.281V132.903H210.88V127.656H204.713V132.903H203.312V121.38ZM214.952 121.38H218.986C219.642 121.38 220.253 121.525 220.82 121.815C221.386 122.104 221.837 122.512 222.17 123.038C222.514 123.553 222.687 124.137 222.687 124.792C222.687 125.328 222.559 125.827 222.303 126.289C222.059 126.75 221.714 127.136 221.27 127.447C220.836 127.758 220.353 127.968 219.82 128.075L219.786 128.123L223.153 132.838V132.903H221.487L218.236 128.204H216.352V132.903H214.952V121.38ZM218.903 126.932C219.314 126.932 219.697 126.841 220.053 126.659C220.42 126.476 220.709 126.224 220.92 125.902C221.142 125.57 221.253 125.2 221.253 124.792C221.253 124.438 221.159 124.1 220.97 123.778C220.781 123.456 220.514 123.193 220.17 122.989C219.836 122.786 219.447 122.684 219.003 122.684H216.352V126.932H218.903ZM230.32 133.16C229.164 133.16 228.114 132.897 227.17 132.372C226.225 131.846 225.48 131.127 224.936 130.215C224.402 129.293 224.136 128.268 224.136 127.141C224.136 126.015 224.402 124.996 224.936 124.084C225.48 123.161 226.225 122.437 227.17 121.911C228.114 121.386 229.164 121.123 230.32 121.123C231.209 121.123 232.02 121.289 232.754 121.622C233.498 121.943 234.143 122.405 234.688 123.006L233.671 123.955C233.215 123.429 232.715 123.043 232.17 122.796C231.637 122.55 231.02 122.426 230.32 122.426C229.453 122.426 228.659 122.625 227.936 123.022C227.214 123.408 226.636 123.96 226.203 124.679C225.78 125.387 225.569 126.208 225.569 127.141C225.569 128.075 225.78 128.901 226.203 129.62C226.636 130.328 227.214 130.88 227.936 131.277C228.659 131.664 229.453 131.857 230.32 131.857C231.765 131.857 232.993 131.283 234.004 130.135L235.038 131.1C234.482 131.733 233.799 132.238 232.987 132.613C232.176 132.978 231.287 133.16 230.32 133.16ZM237.074 121.38H243.975V122.684H238.474V126.498H243.442V127.785H238.474V131.599H243.975V132.903H237.074V121.38Z" fill="#242424"/>
<defs>
<linearGradient id="paint0_linear_703_2368" x1="425.331" y1="131.111" x2="8.80862" y2="131.111" gradientUnits="userSpaceOnUse">
<stop stop-color="#348BCA"/>
<stop offset="0.404875" stop-color="#59A43A"/>
<stop offset="0.711571" stop-color="#F3B002"/>
<stop offset="1" stop-color="#DF572E"/>
</linearGradient>
</defs>
</svg>
