<svg width="429" height="168" viewBox="0 0 429 168" fill="none" xmlns="http://www.w3.org/2000/svg">
<path d="M416.996 2.11609H11.3647C5.99422 2.11609 1.64062 6.31906 1.64062 11.5037V156.341C1.64062 161.526 5.99422 165.729 11.3647 165.729H416.996C422.366 165.729 426.72 161.526 426.72 156.341V11.5037C426.72 6.31906 422.366 2.11609 416.996 2.11609Z" fill="#EFEFEF" stroke="url(#paint0_linear_703_2369)" stroke-width="3.2"/>
<path d="M60.106 104.228C58.5654 104.228 57.1457 103.87 55.8483 103.156C54.5494 102.441 53.5145 101.465 52.7449 100.226C51.9892 98.972 51.6113 97.5799 51.6113 96.0484C51.6113 94.5182 51.9892 93.1329 52.7449 91.8937C53.5145 90.6398 54.5494 89.6555 55.8483 88.942C57.1457 88.2272 58.5654 87.8705 60.106 87.8705C61.3298 87.8705 62.4689 88.081 63.5261 88.5035C64.5832 88.9272 65.4667 89.5173 66.1766 90.275L64.4096 91.9809C63.8817 91.4123 63.2469 90.9751 62.5078 90.6693C61.7827 90.3636 60.9742 90.2093 60.0838 90.2093C59.0419 90.2093 58.0681 90.4507 57.161 90.9309C56.2553 91.4123 55.5301 92.0976 54.987 92.9867C54.4438 93.8759 54.1716 94.8964 54.1716 96.0484C54.1716 97.2004 54.4438 98.221 54.987 99.1101C55.5301 99.9993 56.2553 100.685 57.161 101.166C58.0681 101.646 59.0489 101.888 60.106 101.888C61.0728 101.888 61.8799 101.749 62.53 101.472C63.1788 101.194 63.7608 100.823 64.2734 100.356C64.6068 100.035 64.8861 99.6345 65.1125 99.1544C65.3542 98.6729 65.5125 98.1472 65.5875 97.5799H60.0838V95.3926H67.9894C68.0644 95.8003 68.1019 96.2241 68.1019 96.6613C68.1019 97.6523 67.9436 98.6072 67.6268 99.5259C67.3087 100.43 66.803 101.217 66.1085 101.888C64.5832 103.447 62.5828 104.228 60.106 104.228ZM75.9256 104.228C74.7629 104.228 73.721 103.972 72.8 103.462C71.879 102.936 71.1622 102.223 70.6482 101.319C70.1342 100.415 69.8786 99.4092 69.8786 98.3014C69.8786 97.1923 70.1342 96.1866 70.6482 95.2827C71.1622 94.3788 71.879 93.672 72.8 93.1624C73.721 92.6367 74.7629 92.3752 75.9256 92.3752C77.0883 92.3752 78.1302 92.6367 79.0526 93.1624C79.9736 93.6868 80.6904 94.4016 81.2043 95.3055C81.7169 96.2094 81.974 97.2071 81.974 98.3014C81.974 99.4092 81.7169 100.415 81.2043 101.319C80.6904 102.223 79.9736 102.936 79.0526 103.462C78.1302 103.972 77.0883 104.228 75.9256 104.228ZM75.9256 102.019C76.5604 102.019 77.1494 101.873 77.6926 101.582C78.2371 101.275 78.6664 100.845 78.9845 100.29C79.3165 99.7216 79.4818 99.0591 79.4818 98.3014C79.4818 97.5424 79.3165 96.8866 78.9845 96.3327C78.6664 95.7789 78.2371 95.3564 77.6926 95.0641C77.1494 94.7583 76.5604 94.6054 75.9256 94.6054C75.2922 94.6054 74.7031 94.7583 74.1586 95.0641C73.6154 95.3564 73.1779 95.7789 72.8458 96.3327C72.5277 96.8866 72.3694 97.5424 72.3694 98.3014C72.3694 99.0591 72.5277 99.7216 72.8458 100.29C73.1779 100.845 73.6154 101.275 74.1586 101.582C74.7031 101.873 75.2922 102.019 75.9256 102.019ZM89.6851 104.228C88.5224 104.228 87.4805 103.972 86.5595 103.462C85.6385 102.936 84.9203 102.223 84.4077 101.319C83.8937 100.415 83.6368 99.4092 83.6368 98.3014C83.6368 97.1923 83.8937 96.1866 84.4077 95.2827C84.9203 94.3788 85.6385 93.672 86.5595 93.1624C87.4805 92.6367 88.5224 92.3752 89.6851 92.3752C90.8478 92.3752 91.8897 92.6367 92.8107 93.1624C93.7317 93.6868 94.4499 94.4016 94.9624 95.3055C95.4764 96.2094 95.7335 97.2071 95.7335 98.3014C95.7335 99.4092 95.4764 100.415 94.9624 101.319C94.4499 102.223 93.7317 102.936 92.8107 103.462C91.8897 103.972 90.8478 104.228 89.6851 104.228ZM89.6851 102.019C90.3199 102.019 90.9076 101.873 91.4521 101.582C91.9953 101.275 92.4259 100.845 92.7426 100.29C93.0746 99.7216 93.2413 99.0591 93.2413 98.3014C93.2413 97.5424 93.0746 96.8866 92.7426 96.3327C92.4259 95.7789 91.9953 95.3564 91.4521 95.0641C90.9076 94.7583 90.3199 94.6054 89.6851 94.6054C89.0503 94.6054 88.4613 94.7583 87.9181 95.0641C87.3749 95.3564 86.936 95.7789 86.604 96.3327C86.2872 96.8866 86.1289 97.5424 86.1289 98.3014C86.1289 99.0591 86.2872 99.7216 86.604 100.29C86.936 100.845 87.3749 101.275 87.9181 101.582C88.4613 101.873 89.0503 102.019 89.6851 102.019ZM103.24 108.951C101.821 108.951 100.643 108.637 99.7064 108.01C98.7854 107.383 98.1658 106.64 97.8491 105.779L100.183 104.839C100.423 105.423 100.809 105.889 101.337 106.239C101.88 106.603 102.515 106.785 103.24 106.785C104.298 106.785 105.12 106.479 105.709 105.867C106.313 105.27 106.615 104.423 106.615 103.33V102.303H106.48C106.102 102.828 105.596 103.243 104.962 103.549C104.342 103.84 103.625 103.986 102.81 103.986C101.843 103.986 100.946 103.746 100.115 103.265C99.2841 102.783 98.6187 102.106 98.1214 101.232C97.638 100.341 97.3963 99.3287 97.3963 98.1915C97.3963 97.0543 97.638 96.0484 98.1214 95.1741C98.6187 94.2849 99.2841 93.5996 100.115 93.1181C100.946 92.6219 101.843 92.3752 102.81 92.3752C103.61 92.3752 104.328 92.5281 104.962 92.8338C105.596 93.1396 106.102 93.5554 106.48 94.0811H106.615V92.7252H108.994V103.265C108.994 104.474 108.753 105.503 108.269 106.348C107.786 107.209 107.106 107.857 106.23 108.294C105.37 108.732 104.373 108.951 103.24 108.951ZM103.263 101.8C103.867 101.8 104.425 101.661 104.939 101.385C105.452 101.092 105.86 100.678 106.162 100.137C106.465 99.5835 106.615 98.9345 106.615 98.1915C106.615 97.0543 106.291 96.1718 105.641 95.5455C105.007 94.9045 104.214 94.584 103.263 94.584C102.643 94.584 102.078 94.7288 101.564 95.0212C101.051 95.2974 100.643 95.7064 100.341 96.2456C100.038 96.7847 99.8884 97.4338 99.8884 98.1915C99.8884 98.9492 100.038 99.5983 100.341 100.137C100.643 100.678 101.051 101.092 101.564 101.385C102.078 101.661 102.643 101.8 103.263 101.8ZM111.923 88.2205H114.413V103.878H111.923V88.2205ZM122.509 104.228C121.376 104.228 120.357 103.972 119.45 103.462C118.56 102.951 117.858 102.252 117.344 101.362C116.846 100.458 116.597 99.4454 116.597 98.3229C116.597 97.2581 116.839 96.275 117.322 95.3712C117.819 94.4525 118.507 93.723 119.382 93.1839C120.259 92.6448 121.255 92.3752 122.373 92.3752C123.536 92.3752 124.54 92.6219 125.386 93.1181C126.246 93.6143 126.896 94.2916 127.334 95.1526C127.787 96.0122 128.013 96.9818 128.013 98.06C128.013 98.2639 127.991 98.52 127.945 98.8258H119.088C119.179 99.8611 119.556 100.663 120.221 101.232C120.901 101.786 121.686 102.062 122.577 102.062C123.287 102.062 123.898 101.909 124.411 101.603C124.94 101.283 125.363 100.852 125.681 100.313L127.787 101.275C127.243 102.193 126.534 102.915 125.657 103.44C124.782 103.965 123.732 104.228 122.509 104.228ZM125.476 96.9885C125.446 96.5956 125.318 96.2093 125.092 95.8298C124.865 95.4369 124.517 95.1083 124.048 94.8455C123.596 94.5839 123.037 94.4525 122.373 94.4525C121.573 94.4525 120.894 94.6859 120.334 95.1526C119.791 95.6045 119.413 96.2161 119.202 96.9885H125.476ZM135.999 88.2205H141.186C142.862 88.2205 144.327 88.5477 145.58 89.2035C146.833 89.8593 147.793 90.786 148.457 91.9809C149.136 93.1624 149.477 94.5182 149.477 96.0484C149.477 97.5799 149.136 98.9425 148.457 100.137C147.793 101.319 146.833 102.238 145.58 102.893C144.327 103.549 142.862 103.878 141.186 103.878H135.999V88.2205ZM141.14 101.537C142.953 101.537 144.365 101.056 145.376 100.094C146.404 99.1168 146.917 97.769 146.917 96.0484C146.917 94.3425 146.404 93.0015 145.376 92.0252C144.365 91.0475 142.953 90.5594 141.14 90.5594H138.536V101.537H141.14ZM156.906 104.228C155.774 104.228 154.754 103.972 153.848 103.462C152.958 102.951 152.255 102.252 151.741 101.362C151.244 100.458 150.994 99.4454 150.994 98.3229C150.994 97.2581 151.235 96.275 151.719 95.3712C152.218 94.4525 152.905 93.723 153.78 93.1839C154.657 92.6448 155.653 92.3752 156.77 92.3752C157.933 92.3752 158.937 92.6219 159.783 93.1181C160.644 93.6143 161.293 94.2916 161.73 95.1526C162.185 96.0122 162.411 96.9818 162.411 98.06C162.411 98.2639 162.387 98.52 162.343 98.8258H153.486C153.576 99.8611 153.954 100.663 154.618 101.232C155.299 101.786 156.084 102.062 156.974 102.062C157.684 102.062 158.295 101.909 158.809 101.603C159.337 101.283 159.761 100.852 160.077 100.313L162.185 101.275C161.64 102.193 160.93 102.915 160.055 103.44C159.179 103.965 158.13 104.228 156.906 104.228ZM159.873 96.9885C159.844 96.5956 159.715 96.2093 159.488 95.8298C159.262 95.4369 158.915 95.1083 158.446 94.8455C157.994 94.5839 157.435 94.4525 156.77 94.4525C155.97 94.4525 155.29 94.6859 154.732 95.1526C154.189 95.6045 153.811 96.2161 153.6 96.9885H159.873ZM163.167 92.7252H165.953L169.147 100.772H169.237L172.499 92.7252H175.218L170.415 103.878H167.925L163.167 92.7252ZM181.77 104.228C180.637 104.228 179.619 103.972 178.711 103.462C177.821 102.951 177.119 102.252 176.605 101.362C176.107 100.458 175.858 99.4454 175.858 98.3229C175.858 97.2581 176.1 96.275 176.583 95.3712C177.081 94.4525 177.768 93.723 178.643 93.1839C179.52 92.6448 180.516 92.3752 181.634 92.3752C182.797 92.3752 183.801 92.6219 184.647 93.1181C185.507 93.6143 186.157 94.2916 186.595 95.1526C187.048 96.0122 187.274 96.9818 187.274 98.06C187.274 98.2639 187.252 98.52 187.206 98.8258H178.349C178.44 99.8611 178.817 100.663 179.482 101.232C180.162 101.786 180.946 102.062 181.838 102.062C182.548 102.062 183.159 101.909 183.672 101.603C184.201 101.283 184.624 100.852 184.942 100.313L187.048 101.275C186.504 102.193 185.795 102.915 184.918 103.44C184.043 103.965 182.993 104.228 181.77 104.228ZM184.737 96.9885C184.707 96.5956 184.579 96.2093 184.353 95.8298C184.126 95.4369 183.778 95.1083 183.309 94.8455C182.857 94.5839 182.298 94.4525 181.634 94.4525C180.834 94.4525 180.155 94.6859 179.595 95.1526C179.052 95.6045 178.674 96.2161 178.463 96.9885H184.737ZM189.543 88.2205H192.035V103.878H189.543V88.2205ZM200.265 104.228C199.103 104.228 198.061 103.972 197.14 103.462C196.219 102.936 195.502 102.223 194.988 101.319C194.474 100.415 194.218 99.4092 194.218 98.3014C194.218 97.1923 194.474 96.1866 194.988 95.2827C195.502 94.3788 196.219 93.672 197.14 93.1624C198.061 92.6367 199.103 92.3752 200.265 92.3752C201.428 92.3752 202.47 92.6367 203.392 93.1624C204.313 93.6868 205.03 94.4016 205.544 95.3055C206.057 96.2094 206.314 97.2071 206.314 98.3014C206.314 99.4092 206.057 100.415 205.544 101.319C205.03 102.223 204.313 102.936 203.392 103.462C202.47 103.972 201.428 104.228 200.265 104.228ZM200.265 102.019C200.9 102.019 201.489 101.873 202.032 101.582C202.577 101.275 203.006 100.845 203.324 100.29C203.656 99.7216 203.822 99.0591 203.822 98.3014C203.822 97.5424 203.656 96.8866 203.324 96.3327C203.006 95.7789 202.577 95.3564 202.032 95.0641C201.489 94.7583 200.9 94.6054 200.265 94.6054C199.632 94.6054 199.043 94.7583 198.498 95.0641C197.955 95.3564 197.518 95.7789 197.186 96.3327C196.868 96.8866 196.709 97.5424 196.709 98.3014C196.709 99.0591 196.868 99.7216 197.186 100.29C197.518 100.845 197.955 101.275 198.498 101.582C199.043 101.873 199.632 102.019 200.265 102.019ZM208.41 92.7252H210.788V94.1897H210.902C211.234 93.6801 211.724 93.2496 212.375 92.8996C213.023 92.5495 213.755 92.3752 214.571 92.3752C215.613 92.3752 216.557 92.63 217.402 93.1396C218.248 93.6505 218.913 94.3573 219.395 95.2612C219.894 96.1503 220.144 97.1642 220.144 98.3014C220.144 99.4387 219.894 100.458 219.395 101.362C218.913 102.252 218.248 102.951 217.402 103.462C216.557 103.972 215.613 104.228 214.571 104.228C213.755 104.228 213.023 104.052 212.375 103.702C211.724 103.352 211.234 102.93 210.902 102.433H210.788L210.902 103.986V108.601H208.41V92.7252ZM214.208 102.019C214.813 102.019 215.379 101.865 215.907 101.559C216.436 101.253 216.859 100.816 217.175 100.247C217.494 99.6787 217.652 99.0296 217.652 98.3014C217.652 97.5719 217.494 96.9308 217.175 96.377C216.859 95.8083 216.436 95.3712 215.907 95.0641C215.379 94.7583 214.813 94.6054 214.208 94.6054C213.605 94.6054 213.039 94.7583 212.509 95.0641C211.997 95.3712 211.581 95.8083 211.265 96.377C210.947 96.9308 210.788 97.5719 210.788 98.3014C210.788 99.0296 210.947 99.6787 211.265 100.247C211.581 100.816 211.997 101.253 212.509 101.559C213.039 101.865 213.605 102.019 214.208 102.019ZM227.693 104.228C226.559 104.228 225.541 103.972 224.634 103.462C223.743 102.951 223.04 102.252 222.528 101.362C222.029 100.458 221.781 99.4454 221.781 98.3229C221.781 97.2581 222.022 96.275 222.506 95.3712C223.003 94.4525 223.691 93.723 224.566 93.1839C225.442 92.6448 226.438 92.3752 227.557 92.3752C228.719 92.3752 229.724 92.6219 230.568 93.1181C231.43 93.6143 232.08 94.2916 232.517 95.1526C232.97 96.0122 233.197 96.9818 233.197 98.06C233.197 98.2639 233.174 98.52 233.128 98.8258H224.271C224.363 99.8611 224.739 100.663 225.405 101.232C226.084 101.786 226.869 102.062 227.761 102.062C228.469 102.062 229.082 101.909 229.594 101.603C230.124 101.283 230.546 100.852 230.863 100.313L232.97 101.275C232.427 102.193 231.717 102.915 230.841 103.44C229.965 103.965 228.915 104.228 227.693 104.228ZM230.66 96.9885C230.629 96.5956 230.502 96.2093 230.275 95.8298C230.047 95.4369 229.7 95.1083 229.232 94.8455C228.779 94.5839 228.221 94.4525 227.557 94.4525C226.756 94.4525 226.076 94.6859 225.517 95.1526C224.974 95.6045 224.596 96.2161 224.385 96.9885H230.66ZM235.465 92.7252H237.845V94.3653H237.957C238.214 93.7967 238.66 93.3301 239.293 92.9653C239.928 92.5858 240.599 92.3966 241.309 92.3966C241.869 92.3966 242.337 92.4691 242.714 92.6152V95.1083C242.05 94.875 241.454 94.7583 240.924 94.7583C240.351 94.7583 239.837 94.9045 239.384 95.1955C238.946 95.4879 238.599 95.8808 238.342 96.377C238.085 96.8571 237.957 97.3895 237.957 97.9729V103.878H235.465V92.7252ZM254.343 104.228C252.999 104.228 251.792 103.848 250.719 103.09C249.647 102.331 248.906 101.268 248.499 99.8973L250.9 98.9572C251.142 99.8169 251.565 100.524 252.168 101.077C252.788 101.618 253.528 101.888 254.388 101.888C255.189 101.888 255.869 101.69 256.427 101.297C256.986 100.888 257.265 100.335 257.265 99.6345C257.265 98.9934 257.016 98.4691 256.518 98.06C256.034 97.6376 255.181 97.2152 253.959 96.7914L252.939 96.4427C251.851 96.0779 250.937 95.5522 250.198 94.8682C249.458 94.183 249.088 93.2791 249.088 92.1566C249.088 91.3828 249.306 90.6693 249.745 90.0135C250.183 89.3564 250.787 88.8401 251.557 88.4606C252.342 88.0663 253.225 87.8705 254.207 87.8705C255.627 87.8705 256.759 88.2058 257.605 88.8763C258.451 89.5321 259.017 90.275 259.304 91.1065L257.016 92.0466C256.85 91.5504 256.533 91.1132 256.065 90.735C255.597 90.3555 254.992 90.1664 254.253 90.1664C253.513 90.1664 252.886 90.3488 252.372 90.7122C251.874 91.077 251.625 91.5437 251.625 92.1123C251.625 92.6514 251.851 93.0967 252.304 93.4467C252.757 93.7967 253.467 94.132 254.434 94.4525L255.453 94.7798C256.843 95.2465 257.915 95.8593 258.669 96.617C259.44 97.36 259.825 98.3591 259.825 99.613C259.825 100.634 259.553 101.493 259.01 102.193C258.466 102.879 257.771 103.388 256.926 103.723C256.095 104.06 255.234 104.228 254.343 104.228ZM266.479 104.052C265.965 104.052 265.482 103.972 265.029 103.812C264.576 103.651 264.206 103.44 263.919 103.178C263.27 102.55 262.945 101.697 262.945 100.619V94.8455H260.929V92.7252H262.945V89.575H265.437V92.7252H268.246V94.8455H265.437V100.094C265.437 100.691 265.558 101.115 265.8 101.362C266.026 101.654 266.418 101.8 266.978 101.8C267.233 101.8 267.46 101.771 267.657 101.712C267.853 101.639 268.064 101.529 268.291 101.385V103.723C267.793 103.943 267.189 104.052 266.479 104.052ZM274.828 104.228C273.423 104.228 272.352 103.827 271.612 103.025C270.887 102.208 270.524 101.077 270.524 99.6345V92.7252H273.016V99.3072C273.016 100.211 273.235 100.888 273.674 101.34C274.126 101.792 274.715 102.019 275.44 102.019C276.029 102.019 276.55 101.873 277.003 101.582C277.456 101.275 277.803 100.874 278.045 100.379C278.287 99.8826 278.408 99.3502 278.408 98.7815V92.7252H280.898V103.878H278.544V102.433H278.408C278.09 102.959 277.599 103.388 276.935 103.723C276.27 104.06 275.568 104.228 274.828 104.228ZM288.626 104.228C287.584 104.228 286.641 103.972 285.795 103.462C284.949 102.951 284.277 102.252 283.78 101.362C283.296 100.458 283.054 99.4387 283.054 98.3014C283.054 97.1642 283.296 96.1503 283.78 95.2612C284.277 94.3573 284.949 93.6505 285.795 93.1396C286.641 92.63 287.584 92.3752 288.626 92.3752C289.442 92.3752 290.174 92.5495 290.824 92.8996C291.473 93.2496 291.964 93.6801 292.296 94.1897H292.409L292.296 92.6152V88.2205H294.787V103.878H292.409V102.433H292.296C291.964 102.93 291.473 103.352 290.824 103.702C290.174 104.052 289.442 104.228 288.626 104.228ZM288.989 102.019C289.593 102.019 290.152 101.865 290.666 101.559C291.193 101.253 291.617 100.816 291.934 100.247C292.251 99.6787 292.409 99.0296 292.409 98.3014C292.409 97.5719 292.251 96.9308 291.934 96.377C291.617 95.8083 291.193 95.3712 290.666 95.0641C290.152 94.7583 289.593 94.6054 288.989 94.6054C288.385 94.6054 287.819 94.7583 287.29 95.0641C286.762 95.3712 286.338 95.8083 286.022 96.377C285.705 96.9308 285.547 97.5719 285.547 98.3014C285.547 99.0296 285.705 99.6787 286.022 100.247C286.338 100.816 286.762 101.253 287.29 101.559C287.819 101.865 288.385 102.019 288.989 102.019ZM302.858 104.228C301.726 104.228 300.706 103.972 299.801 103.462C298.909 102.951 298.207 102.252 297.693 101.362C297.195 100.458 296.946 99.4454 296.946 98.3229C296.946 97.2581 297.188 96.275 297.671 95.3712C298.17 94.4525 298.856 93.723 299.732 93.1839C300.608 92.6448 301.605 92.3752 302.722 92.3752C303.885 92.3752 304.889 92.6219 305.735 93.1181C306.595 93.6143 307.245 94.2916 307.683 95.1526C308.135 96.0122 308.362 96.9818 308.362 98.06C308.362 98.2639 308.34 98.52 308.294 98.8258H299.438C299.528 99.8611 299.906 100.663 300.57 101.232C301.249 101.786 302.034 102.062 302.926 102.062C303.636 102.062 304.247 101.909 304.761 101.603C305.289 101.283 305.711 100.852 306.03 100.313L308.135 101.275C307.592 102.193 306.882 102.915 306.006 103.44C305.131 103.965 304.081 104.228 302.858 104.228ZM305.825 96.9885C305.795 96.5956 305.667 96.2093 305.441 95.8298C305.214 95.4369 304.867 95.1083 304.399 94.8455C303.946 94.5839 303.386 94.4525 302.722 94.4525C301.922 94.4525 301.242 94.6859 300.684 95.1526C300.14 95.6045 299.762 96.2161 299.551 96.9885H305.825ZM310.632 92.7252H313.01V94.1897H313.122C313.454 93.6653 313.946 93.2348 314.595 92.8996C315.26 92.5495 315.962 92.3752 316.702 92.3752C318.107 92.3752 319.171 92.7762 319.896 93.5768C320.635 94.3654 321.006 95.4436 321.006 96.8142V103.878H318.514V97.1414C318.514 96.267 318.287 95.626 317.834 95.2169C317.397 94.8093 316.784 94.6054 315.999 94.6054C315.441 94.6054 314.942 94.7583 314.505 95.0641C314.067 95.3564 313.727 95.7494 313.485 96.2456C313.243 96.7404 313.122 97.2728 313.122 97.8414V103.878H310.632V92.7252ZM327.974 104.052C327.461 104.052 326.978 103.972 326.525 103.812C326.072 103.651 325.701 103.44 325.415 103.178C324.765 102.55 324.44 101.697 324.44 100.619V94.8455H322.424V92.7252H324.44V89.575H326.932V92.7252H329.741V94.8455H326.932V100.094C326.932 100.691 327.053 101.115 327.295 101.362C327.521 101.654 327.914 101.8 328.473 101.8C328.73 101.8 328.956 101.771 329.152 101.712C329.348 101.639 329.56 101.529 329.787 101.385V103.723C329.288 103.943 328.684 104.052 327.974 104.052ZM345.041 104.228C343.47 104.228 342.036 103.87 340.737 103.156C339.439 102.441 338.419 101.457 337.678 100.203C336.939 98.9492 336.569 97.5652 336.569 96.0484C336.569 94.533 336.939 93.1477 337.678 91.8937C338.419 90.6398 339.439 89.6555 340.737 88.942C342.036 88.2272 343.47 87.8705 345.041 87.8705C346.263 87.8705 347.373 88.0891 348.371 88.5263C349.382 88.9635 350.274 89.5978 351.043 90.428L349.232 92.1123C348.672 91.4713 348.054 90.9965 347.373 90.6908C346.694 90.3703 345.916 90.2093 345.041 90.2093C343.953 90.2093 342.957 90.4507 342.051 90.9309C341.16 91.4123 340.45 92.0976 339.922 92.9867C339.393 93.8611 339.129 94.8817 339.129 96.0484C339.129 97.2152 339.393 98.2424 339.922 99.1316C340.45 100.006 341.16 100.685 342.051 101.166C342.957 101.646 343.953 101.888 345.041 101.888C346.852 101.888 348.393 101.158 349.661 99.7002L351.496 101.406C350.711 102.295 349.767 102.989 348.665 103.483C347.562 103.98 346.355 104.228 345.041 104.228ZM353.699 88.2205H356.192V103.878H353.699V88.2205ZM363.333 104.228C361.929 104.228 360.856 103.827 360.116 103.025C359.391 102.208 359.03 101.077 359.03 99.6345V92.7252H361.52V99.3072C361.52 100.211 361.74 100.888 362.177 101.34C362.63 101.792 363.219 102.019 363.944 102.019C364.533 102.019 365.054 101.873 365.507 101.582C365.96 101.275 366.307 100.874 366.549 100.379C366.791 99.8826 366.912 99.3502 366.912 98.7815V92.7252H369.404V103.878H367.048V102.433H366.912C366.595 102.959 366.103 103.388 365.439 103.723C364.775 104.06 364.072 104.228 363.333 104.228ZM378.465 104.228C377.65 104.228 376.916 104.052 376.268 103.702C375.617 103.352 375.127 102.93 374.795 102.433H374.683V103.878H372.303V88.2205H374.795V92.6152L374.683 94.1897H374.795C375.127 93.6801 375.617 93.2496 376.268 92.8996C376.916 92.5495 377.65 92.3752 378.465 92.3752C379.507 92.3752 380.45 92.63 381.296 93.1396C382.142 93.6505 382.806 94.3573 383.29 95.2612C383.788 96.1503 384.037 97.1642 384.037 98.3014C384.037 99.4387 383.788 100.458 383.29 101.362C382.806 102.252 382.142 102.951 381.296 103.462C380.45 103.972 379.507 104.228 378.465 104.228ZM378.103 102.019C378.707 102.019 379.272 101.865 379.802 101.559C380.329 101.253 380.753 100.816 381.07 100.247C381.387 99.6787 381.545 99.0296 381.545 98.3014C381.545 97.5719 381.387 96.9308 381.07 96.377C380.753 95.8083 380.329 95.3712 379.802 95.0641C379.272 94.7583 378.707 94.6054 378.103 94.6054C377.498 94.6054 376.932 94.7583 376.404 95.0641C375.89 95.3712 375.474 95.8083 375.158 96.377C374.841 96.9308 374.683 97.5719 374.683 98.3014C374.683 99.0296 374.841 99.6787 375.158 100.247C375.474 100.816 375.89 101.253 376.404 101.559C376.932 101.865 377.498 102.019 378.103 102.019ZM390.408 104.228C389.08 104.228 387.992 103.95 387.146 103.396C386.301 102.828 385.704 102.106 385.357 101.232L387.577 100.29C387.849 100.874 388.227 101.319 388.71 101.625C389.207 101.93 389.774 102.085 390.408 102.085C391.027 102.085 391.548 101.981 391.972 101.778C392.394 101.559 392.605 101.238 392.605 100.816C392.605 100.407 392.425 100.086 392.062 99.8531C391.7 99.6197 391.141 99.4159 390.385 99.2416L389.003 98.913C388.082 98.6944 387.32 98.3081 386.717 97.7543C386.112 97.2004 385.81 96.5004 385.81 95.6555C385.81 94.9983 386.007 94.423 386.399 93.9268C386.807 93.432 387.35 93.0524 388.029 92.7896C388.71 92.5133 389.449 92.3752 390.249 92.3752C391.322 92.3752 392.266 92.5857 393.082 93.0095C393.897 93.4172 394.486 94.0153 394.847 94.8026L392.673 95.7199C392.236 94.8602 391.436 94.4297 390.273 94.4297C389.713 94.4297 389.245 94.5397 388.869 94.7583C388.491 94.9769 388.302 95.2612 388.302 95.6112C388.302 95.9465 388.445 96.2241 388.732 96.4427C389.019 96.6465 389.442 96.8209 390.001 96.9671L391.7 97.3828C392.832 97.659 393.685 98.0828 394.258 98.6501C394.847 99.2053 395.142 99.8906 395.142 100.706C395.142 101.406 394.931 102.026 394.508 102.565C394.1 103.09 393.535 103.498 392.81 103.789C392.084 104.082 391.284 104.228 390.408 104.228Z" fill="#242424"/>
<path d="M231.825 53.7331L250.463 43.3448C253.06 41.897 256.382 42.7562 257.881 45.2638C259.381 47.7715 258.491 50.9781 255.894 52.4259L237.256 62.8143C234.658 64.2621 231.337 63.4029 229.837 60.8952C228.337 58.3875 229.227 55.1809 231.825 53.7331Z" fill="#FBBC04"/>
<path d="M218.587 41.9811L199.949 52.3695C197.352 53.8173 194.03 52.9581 192.531 50.4504C191.031 47.9427 191.921 44.7361 194.518 43.2883L213.156 32.9C215.754 31.4522 219.076 32.3113 220.575 34.819C222.075 37.3267 221.185 40.5333 218.587 41.9811Z" fill="#EA4335"/>
<path d="M218.13 53.7319L199.492 43.3436C196.895 41.8957 193.573 42.755 192.074 45.2626C190.574 47.7703 191.464 50.9769 194.061 52.4247L212.699 62.8131C215.297 64.2609 218.619 63.4017 220.118 60.894C221.618 58.3863 220.728 55.1797 218.13 53.7319Z" fill="#4285F4"/>
<path d="M231.508 41.8047L250.779 52.5459C253.202 53.8963 256.3 53.0949 257.699 50.7559L258.064 50.1449C259.463 47.8059 258.633 44.8151 256.21 43.4647L236.939 32.7236C234.516 31.3732 231.418 32.1746 230.02 34.5135L229.654 35.1245C228.255 37.4635 229.085 40.4543 231.508 41.8047Z" fill="#0F9D58"/>
<path d="M55.5 121.497H57.0669L60.0175 129.849L60.4176 130.992H60.4842L60.901 129.849L63.9849 121.497H65.5519L61.1844 133.019H59.7175L55.5 121.497ZM67.3244 123.299C67.0466 123.299 66.8077 123.202 66.6076 123.009C66.4076 122.816 66.3076 122.586 66.3076 122.317C66.3076 122.049 66.4076 121.824 66.6076 121.641C66.8077 121.448 67.0466 121.352 67.3244 121.352C67.6022 121.352 67.8412 121.448 68.0412 121.641C68.2412 121.824 68.3413 122.049 68.3413 122.317C68.3413 122.586 68.2412 122.816 68.0412 123.009C67.8523 123.202 67.6134 123.299 67.3244 123.299ZM66.6243 124.812H68.0245V133.019H66.6243V124.812ZM73.2186 133.277C72.3073 133.277 71.546 133.073 70.9348 132.665C70.3236 132.247 69.8902 131.716 69.6346 131.072L70.9015 130.525C71.1126 131.018 71.4238 131.399 71.835 131.667C72.2573 131.936 72.7185 132.07 73.2186 132.07C73.752 132.07 74.2076 131.968 74.5855 131.764C74.9633 131.549 75.1523 131.249 75.1523 130.863C75.1523 130.519 75.0022 130.246 74.7022 130.042C74.4021 129.827 73.9298 129.645 73.2853 129.495L72.2517 129.237C71.5738 129.076 71.0182 128.803 70.5848 128.417C70.1513 128.03 69.9346 127.532 69.9346 126.92C69.9346 126.448 70.0791 126.035 70.368 125.681C70.6681 125.316 71.0626 125.037 71.5516 124.844C72.0406 124.651 72.5685 124.554 73.1352 124.554C73.8798 124.554 74.541 124.71 75.1189 125.021C75.7079 125.332 76.1247 125.767 76.3692 126.325L75.1356 126.872C74.7578 126.142 74.0854 125.777 73.1185 125.777C72.6518 125.777 72.2406 125.885 71.885 126.099C71.5405 126.303 71.3682 126.566 71.3682 126.888C71.3682 127.188 71.4905 127.435 71.735 127.628C71.9795 127.81 72.3462 127.961 72.8352 128.079L74.0687 128.384C74.9022 128.588 75.5301 128.894 75.9524 129.302C76.3747 129.699 76.5858 130.187 76.5858 130.766C76.5858 131.27 76.4359 131.716 76.1358 132.102C75.8357 132.477 75.4301 132.767 74.9189 132.971C74.4077 133.175 73.8409 133.277 73.2186 133.277ZM77.1971 124.812H78.714L81.3479 131.41H81.3812L84.0484 124.812H85.532L82.0646 133.019H80.6311L77.1971 124.812ZM90.2328 133.277C89.4216 133.277 88.6937 133.089 88.0491 132.713C87.4045 132.338 86.8989 131.823 86.5321 131.169C86.1765 130.503 85.9987 129.758 85.9987 128.932C85.9987 128.138 86.1654 127.408 86.4988 126.743C86.8433 126.078 87.3268 125.547 87.9491 125.15C88.5714 124.753 89.2938 124.554 90.1162 124.554C90.9497 124.554 91.672 124.737 92.2832 125.101C92.8945 125.456 93.3612 125.949 93.6835 126.582C94.0169 127.215 94.1836 127.939 94.1836 128.755C94.1836 128.916 94.1669 129.055 94.1336 129.173H87.4157C87.449 129.795 87.6046 130.321 87.8824 130.75C88.1602 131.179 88.5103 131.501 88.9326 131.716C89.366 131.93 89.8161 132.038 90.2829 132.038C91.372 132.038 92.211 131.544 92.8 130.557L94.0002 131.12C93.6335 131.785 93.1334 132.311 92.5 132.697C91.8776 133.084 91.1219 133.277 90.2328 133.277ZM92.6833 128.047C92.6611 127.703 92.5611 127.36 92.3832 127.017C92.2054 126.673 91.922 126.384 91.5331 126.148C91.1552 125.911 90.6774 125.793 90.0995 125.793C89.4327 125.793 88.8659 126.003 88.3992 126.421C87.9435 126.829 87.6435 127.371 87.499 128.047H92.6833ZM98.89 133.277C97.9787 133.277 97.2175 133.073 96.6063 132.665C95.995 132.247 95.5616 131.716 95.306 131.072L96.5729 130.525C96.784 131.018 97.0952 131.399 97.5064 131.667C97.9287 131.936 98.3899 132.07 98.89 132.07C99.4234 132.07 99.8791 131.968 100.257 131.764C100.635 131.549 100.824 131.249 100.824 130.863C100.824 130.519 100.674 130.246 100.374 130.042C100.074 129.827 99.6012 129.645 98.9567 129.495L97.9232 129.237C97.2453 129.076 96.6896 128.803 96.2562 128.417C95.8228 128.03 95.6061 127.532 95.6061 126.92C95.6061 126.448 95.7505 126.035 96.0395 125.681C96.3395 125.316 96.7341 125.037 97.223 124.844C97.712 124.651 98.2399 124.554 98.8066 124.554C99.5512 124.554 100.212 124.71 100.79 125.021C101.379 125.332 101.796 125.767 102.041 126.325L100.807 126.872C100.429 126.142 99.7568 125.777 98.79 125.777C98.3232 125.777 97.912 125.885 97.5564 126.099C97.2119 126.303 97.0396 126.566 97.0396 126.888C97.0396 127.188 97.1619 127.435 97.4064 127.628C97.6509 127.81 98.0176 127.961 98.5066 128.079L99.7402 128.384C100.574 128.588 101.202 128.894 101.624 129.302C102.046 129.699 102.257 130.187 102.257 130.766C102.257 131.27 102.107 131.716 101.807 132.102C101.507 132.477 101.102 132.767 100.59 132.971C100.079 133.175 99.5123 133.277 98.89 133.277ZM102.869 124.812H104.385L107.019 131.41H107.053L109.72 124.812H111.203L107.736 133.019H106.302L102.869 124.812ZM114.919 133.277C114.297 133.277 113.741 133.159 113.252 132.923C112.763 132.687 112.386 132.365 112.119 131.957C111.852 131.539 111.719 131.067 111.719 130.541C111.719 129.672 112.058 128.996 112.736 128.513C113.414 128.02 114.269 127.773 115.303 127.773C115.814 127.773 116.286 127.827 116.72 127.934C117.164 128.041 117.503 128.165 117.737 128.304V127.805C117.737 127.194 117.514 126.705 117.07 126.341C116.625 125.965 116.064 125.777 115.386 125.777C114.908 125.777 114.469 125.879 114.069 126.083C113.669 126.276 113.352 126.55 113.119 126.904L112.052 126.131C112.386 125.638 112.841 125.252 113.419 124.973C114.008 124.694 114.658 124.554 115.369 124.554C116.525 124.554 117.431 124.849 118.087 125.439C118.753 126.019 119.087 126.813 119.087 127.821V133.019H117.737V131.844H117.67C117.425 132.241 117.059 132.579 116.57 132.858C116.081 133.137 115.531 133.277 114.919 133.277ZM115.053 132.07C115.531 132.07 115.975 131.952 116.386 131.716C116.797 131.48 117.125 131.163 117.37 130.766C117.614 130.369 117.737 129.935 117.737 129.463C117.47 129.291 117.142 129.152 116.753 129.044C116.364 128.937 115.953 128.883 115.519 128.883C114.742 128.883 114.153 129.039 113.752 129.35C113.364 129.661 113.169 130.063 113.169 130.557C113.169 131.008 113.347 131.372 113.703 131.651C114.058 131.93 114.508 132.07 115.053 132.07ZM121.058 124.812H122.408V126.131H122.475C122.642 125.681 122.964 125.311 123.442 125.021C123.92 124.721 124.42 124.57 124.942 124.57C125.331 124.57 125.664 124.624 125.942 124.731V126.212C125.587 126.04 125.187 125.954 124.742 125.954C124.331 125.954 123.953 126.067 123.608 126.292C123.264 126.518 122.986 126.823 122.775 127.21C122.575 127.585 122.475 127.993 122.475 128.433V133.019H121.058V124.812ZM129.701 133.277C129.079 133.277 128.523 133.159 128.034 132.923C127.545 132.687 127.167 132.365 126.901 131.957C126.634 131.539 126.501 131.067 126.501 130.541C126.501 129.672 126.84 128.996 127.518 128.513C128.195 128.02 129.051 127.773 130.085 127.773C130.596 127.773 131.068 127.827 131.502 127.934C131.946 128.041 132.285 128.165 132.518 128.304V127.805C132.518 127.194 132.296 126.705 131.852 126.341C131.407 125.965 130.846 125.777 130.168 125.777C129.69 125.777 129.251 125.879 128.851 126.083C128.451 126.276 128.134 126.55 127.901 126.904L126.834 126.131C127.167 125.638 127.623 125.252 128.201 124.973C128.79 124.694 129.44 124.554 130.151 124.554C131.307 124.554 132.213 124.849 132.869 125.439C133.535 126.019 133.869 126.813 133.869 127.821V133.019H132.518V131.844H132.452C132.207 132.241 131.841 132.579 131.352 132.858C130.863 133.137 130.313 133.277 129.701 133.277ZM129.835 132.07C130.313 132.07 130.757 131.952 131.168 131.716C131.579 131.48 131.907 131.163 132.152 130.766C132.396 130.369 132.518 129.935 132.518 129.463C132.252 129.291 131.924 129.152 131.535 129.044C131.146 128.937 130.735 128.883 130.301 128.883C129.523 128.883 128.934 129.039 128.534 129.35C128.145 129.661 127.951 130.063 127.951 130.557C127.951 131.008 128.129 131.372 128.484 131.651C128.84 131.93 129.29 132.07 129.835 132.07ZM138.276 132.504L134.759 124.812H136.293L138.96 130.911H138.993L141.56 124.812H143.094L137.843 136.495H136.376L138.276 132.504ZM146.566 133.277C145.943 133.277 145.388 133.159 144.899 132.923C144.41 132.687 144.032 132.365 143.765 131.957C143.498 131.539 143.365 131.067 143.365 130.541C143.365 129.672 143.704 128.996 144.382 128.513C145.06 128.02 145.915 127.773 146.949 127.773C147.46 127.773 147.932 127.827 148.366 127.934C148.81 128.041 149.149 128.165 149.383 128.304V127.805C149.383 127.194 149.16 126.705 148.716 126.341C148.271 125.965 147.71 125.777 147.032 125.777C146.554 125.777 146.115 125.879 145.715 126.083C145.315 126.276 144.999 126.55 144.765 126.904L143.698 126.131C144.032 125.638 144.487 125.252 145.065 124.973C145.654 124.694 146.304 124.554 147.016 124.554C148.171 124.554 149.077 124.849 149.733 125.439C150.4 126.019 150.733 126.813 150.733 127.821V133.019H149.383V131.844H149.316C149.072 132.241 148.705 132.579 148.216 132.858C147.727 133.137 147.177 133.277 146.566 133.277ZM146.699 132.07C147.177 132.07 147.621 131.952 148.032 131.716C148.444 131.48 148.772 131.163 149.016 130.766C149.26 130.369 149.383 129.935 149.383 129.463C149.116 129.291 148.788 129.152 148.399 129.044C148.01 128.937 147.599 128.883 147.166 128.883C146.388 128.883 145.799 129.039 145.399 129.35C145.01 129.661 144.815 130.063 144.815 130.557C144.815 131.008 144.993 131.372 145.349 131.651C145.704 131.93 146.154 132.07 146.699 132.07ZM156.862 121.497H158.596L164.58 130.67H164.647L164.58 128.449V121.497H165.997V133.019H164.53L158.262 123.412H158.195L158.262 125.633V133.019H156.862V121.497ZM170.855 133.277C170.232 133.277 169.677 133.159 169.188 132.923C168.699 132.687 168.321 132.365 168.054 131.957C167.788 131.539 167.654 131.067 167.654 130.541C167.654 129.672 167.993 128.996 168.671 128.513C169.349 128.02 170.205 127.773 171.238 127.773C171.749 127.773 172.222 127.827 172.655 127.934C173.1 128.041 173.439 128.165 173.672 128.304V127.805C173.672 127.194 173.45 126.705 173.005 126.341C172.561 125.965 171.999 125.777 171.322 125.777C170.844 125.777 170.405 125.879 170.005 126.083C169.605 126.276 169.288 126.55 169.054 126.904L167.988 126.131C168.321 125.638 168.777 125.252 169.354 124.973C169.943 124.694 170.594 124.554 171.305 124.554C172.461 124.554 173.366 124.849 174.022 125.439C174.689 126.019 175.022 126.813 175.022 127.821V133.019H173.672V131.844H173.605C173.361 132.241 172.994 132.579 172.505 132.858C172.016 133.137 171.466 133.277 170.855 133.277ZM170.988 132.07C171.466 132.07 171.911 131.952 172.322 131.716C172.733 131.48 173.061 131.163 173.305 130.766C173.55 130.369 173.672 129.935 173.672 129.463C173.405 129.291 173.077 129.152 172.688 129.044C172.299 128.937 171.888 128.883 171.455 128.883C170.677 128.883 170.088 129.039 169.688 129.35C169.299 129.661 169.104 130.063 169.104 130.557C169.104 131.008 169.282 131.372 169.638 131.651C169.994 131.93 170.444 132.07 170.988 132.07ZM180.097 133.148C179.752 133.148 179.43 133.094 179.13 132.987C178.841 132.88 178.596 132.735 178.396 132.553C178.174 132.349 178.008 132.113 177.896 131.844C177.785 131.576 177.73 131.249 177.73 130.863V126.051H176.246V124.812H177.73V122.494H179.147V124.812H181.214V126.051H179.147V130.525C179.147 130.975 179.236 131.308 179.413 131.523C179.624 131.759 179.93 131.877 180.33 131.877C180.652 131.877 180.964 131.785 181.264 131.603V132.939C181.097 133.014 180.925 133.068 180.747 133.1C180.58 133.132 180.363 133.148 180.097 133.148ZM183.85 123.299C183.572 123.299 183.333 123.202 183.133 123.009C182.933 122.816 182.833 122.586 182.833 122.317C182.833 122.049 182.933 121.824 183.133 121.641C183.333 121.448 183.572 121.352 183.85 121.352C184.128 121.352 184.367 121.448 184.567 121.641C184.767 121.824 184.867 122.049 184.867 122.317C184.867 122.586 184.767 122.816 184.567 123.009C184.378 123.202 184.139 123.299 183.85 123.299ZM183.15 124.812H184.55V133.019H183.15V124.812ZM190.613 133.277C189.779 133.277 189.029 133.084 188.362 132.697C187.695 132.311 187.173 131.785 186.795 131.12C186.428 130.455 186.245 129.72 186.245 128.916C186.245 128.111 186.428 127.376 186.795 126.711C187.173 126.046 187.695 125.52 188.362 125.134C189.029 124.747 189.779 124.554 190.613 124.554C191.446 124.554 192.196 124.747 192.863 125.134C193.53 125.52 194.047 126.046 194.413 126.711C194.791 127.376 194.98 128.111 194.98 128.916C194.98 129.72 194.791 130.455 194.413 131.12C194.047 131.785 193.53 132.311 192.863 132.697C192.196 133.084 191.446 133.277 190.613 133.277ZM190.613 132.038C191.135 132.038 191.618 131.914 192.063 131.667C192.519 131.41 192.88 131.045 193.146 130.573C193.424 130.101 193.563 129.548 193.563 128.916C193.563 128.283 193.424 127.73 193.146 127.258C192.88 126.786 192.519 126.426 192.063 126.18C191.618 125.922 191.135 125.793 190.613 125.793C190.09 125.793 189.601 125.922 189.146 126.18C188.69 126.426 188.323 126.786 188.045 127.258C187.779 127.73 187.645 128.283 187.645 128.916C187.645 129.548 187.779 130.101 188.045 130.573C188.323 131.045 188.69 131.41 189.146 131.667C189.601 131.914 190.09 132.038 190.613 132.038ZM196.462 124.812H197.813V126.019H197.879C198.113 125.611 198.485 125.268 198.996 124.989C199.507 124.699 200.052 124.554 200.63 124.554C201.652 124.554 202.43 124.844 202.964 125.423C203.508 125.992 203.78 126.77 203.78 127.757V133.019H202.363V127.966C202.363 127.204 202.174 126.652 201.797 126.308C201.419 125.965 200.902 125.793 200.246 125.793C199.791 125.793 199.38 125.917 199.013 126.164C198.657 126.41 198.379 126.738 198.179 127.145C197.979 127.542 197.879 127.961 197.879 128.401V133.019H196.462V124.812ZM208.442 133.277C207.82 133.277 207.264 133.159 206.775 132.923C206.286 132.687 205.909 132.365 205.642 131.957C205.375 131.539 205.242 131.067 205.242 130.541C205.242 129.672 205.581 128.996 206.259 128.513C206.937 128.02 207.792 127.773 208.826 127.773C209.337 127.773 209.809 127.827 210.243 127.934C210.687 128.041 211.026 128.165 211.26 128.304V127.805C211.26 127.194 211.037 126.705 210.593 126.341C210.148 125.965 209.587 125.777 208.909 125.777C208.431 125.777 207.992 125.879 207.592 126.083C207.192 126.276 206.875 126.55 206.642 126.904L205.575 126.131C205.909 125.638 206.364 125.252 206.942 124.973C207.531 124.694 208.181 124.554 208.892 124.554C210.048 124.554 210.954 124.849 211.61 125.439C212.276 126.019 212.61 126.813 212.61 127.821V133.019H211.26V131.844H211.193C210.948 132.241 210.582 132.579 210.093 132.858C209.604 133.137 209.054 133.277 208.442 133.277ZM208.576 132.07C209.054 132.07 209.498 131.952 209.909 131.716C210.32 131.48 210.648 131.163 210.893 130.766C211.137 130.369 211.26 129.935 211.26 129.463C210.993 129.291 210.665 129.152 210.276 129.044C209.887 128.937 209.476 128.883 209.042 128.883C208.265 128.883 207.676 129.039 207.275 129.35C206.886 129.661 206.692 130.063 206.692 130.557C206.692 131.008 206.87 131.372 207.225 131.651C207.581 131.93 208.031 132.07 208.576 132.07ZM214.581 121.497H215.998V133.019H214.581V121.497ZM222.256 121.497H223.656V133.019H222.256V121.497ZM226.041 124.812H227.392V126.019H227.458C227.692 125.611 228.064 125.268 228.575 124.989C229.086 124.699 229.631 124.554 230.209 124.554C231.231 124.554 232.009 124.844 232.543 125.423C233.087 125.992 233.359 126.77 233.359 127.757V133.019H231.943V127.966C231.943 127.204 231.754 126.652 231.376 126.308C230.998 125.965 230.481 125.793 229.825 125.793C229.37 125.793 228.959 125.917 228.592 126.164C228.236 126.41 227.958 126.738 227.758 127.145C227.558 127.542 227.458 127.961 227.458 128.401V133.019H226.041V124.812ZM238.271 133.277C237.36 133.277 236.599 133.073 235.988 132.665C235.377 132.247 234.943 131.716 234.687 131.072L235.954 130.525C236.166 131.018 236.477 131.399 236.888 131.667C237.31 131.936 237.771 132.07 238.271 132.07C238.805 132.07 239.261 131.968 239.638 131.764C240.016 131.549 240.205 131.249 240.205 130.863C240.205 130.519 240.055 130.246 239.755 130.042C239.455 129.827 238.983 129.645 238.338 129.495L237.305 129.237C236.627 129.076 236.071 128.803 235.638 128.417C235.204 128.03 234.988 127.532 234.988 126.92C234.988 126.448 235.132 126.035 235.421 125.681C235.721 125.316 236.116 125.037 236.605 124.844C237.094 124.651 237.621 124.554 238.188 124.554C238.933 124.554 239.594 124.71 240.172 125.021C240.761 125.332 241.178 125.767 241.422 126.325L240.189 126.872C239.811 126.142 239.138 125.777 238.171 125.777C237.705 125.777 237.294 125.885 236.938 126.099C236.593 126.303 236.421 126.566 236.421 126.888C236.421 127.188 236.543 127.435 236.788 127.628C237.032 127.81 237.399 127.961 237.888 128.079L239.122 128.384C239.955 128.588 240.583 128.894 241.005 129.302C241.428 129.699 241.639 130.187 241.639 130.766C241.639 131.27 241.489 131.716 241.189 132.102C240.889 132.477 240.483 132.767 239.972 132.971C239.461 133.175 238.894 133.277 238.271 133.277ZM246.369 133.148C246.024 133.148 245.702 133.094 245.402 132.987C245.113 132.88 244.869 132.735 244.669 132.553C244.446 132.349 244.28 132.113 244.168 131.844C244.057 131.576 244.002 131.249 244.002 130.863V126.051H242.518V124.812H244.002V122.494H245.419V124.812H247.486V126.051H245.419V130.525C245.419 130.975 245.508 131.308 245.685 131.523C245.897 131.759 246.202 131.877 246.602 131.877C246.924 131.877 247.236 131.785 247.536 131.603V132.939C247.369 133.014 247.197 133.068 247.019 133.1C246.852 133.132 246.636 133.148 246.369 133.148ZM250.122 123.299C249.844 123.299 249.606 123.202 249.406 123.009C249.205 122.816 249.105 122.586 249.105 122.317C249.105 122.049 249.205 121.824 249.406 121.641C249.606 121.448 249.844 121.352 250.122 121.352C250.4 121.352 250.639 121.448 250.839 121.641C251.039 121.824 251.139 122.049 251.139 122.317C251.139 122.586 251.039 122.816 250.839 123.009C250.65 123.202 250.411 123.299 250.122 123.299ZM249.422 124.812H250.822V133.019H249.422V124.812ZM256.235 133.148C255.89 133.148 255.568 133.094 255.268 132.987C254.979 132.88 254.734 132.735 254.534 132.553C254.312 132.349 254.145 132.113 254.034 131.844C253.923 131.576 253.867 131.249 253.867 130.863V126.051H252.384V124.812H253.867V122.494H255.284V124.812H257.351V126.051H255.284V130.525C255.284 130.975 255.373 131.308 255.551 131.523C255.762 131.759 256.068 131.877 256.468 131.877C256.79 131.877 257.101 131.785 257.401 131.603V132.939C257.235 133.014 257.062 133.068 256.885 133.1C256.718 133.132 256.501 133.148 256.235 133.148ZM262.156 133.277C261.134 133.277 260.351 132.987 259.806 132.408C259.273 131.828 259.006 131.018 259.006 129.978V124.812H260.423V129.768C260.423 130.552 260.606 131.126 260.973 131.49C261.34 131.855 261.834 132.038 262.457 132.038C262.934 132.038 263.357 131.914 263.723 131.667C264.101 131.421 264.39 131.099 264.59 130.702C264.801 130.305 264.907 129.886 264.907 129.447V124.812H266.324V133.019H264.974V131.828H264.907C264.674 132.236 264.301 132.579 263.79 132.858C263.279 133.137 262.734 133.277 262.156 133.277ZM271.765 133.148C271.421 133.148 271.098 133.094 270.798 132.987C270.509 132.88 270.265 132.735 270.065 132.553C269.843 132.349 269.676 132.113 269.565 131.844C269.454 131.576 269.398 131.249 269.398 130.863V126.051H267.915V124.812H269.398V122.494H270.815V124.812H272.882V126.051H270.815V130.525C270.815 130.975 270.904 131.308 271.082 131.523C271.293 131.759 271.599 131.877 271.999 131.877C272.321 131.877 272.632 131.785 272.932 131.603V132.939C272.765 133.014 272.593 133.068 272.415 133.1C272.249 133.132 272.032 133.148 271.765 133.148ZM278.012 133.277C277.201 133.277 276.473 133.089 275.829 132.713C275.184 132.338 274.678 131.823 274.312 131.169C273.956 130.503 273.778 129.758 273.778 128.932C273.778 128.138 273.945 127.408 274.278 126.743C274.623 126.078 275.106 125.547 275.728 125.15C276.351 124.753 277.073 124.554 277.896 124.554C278.729 124.554 279.451 124.737 280.063 125.101C280.674 125.456 281.141 125.949 281.463 126.582C281.796 127.215 281.963 127.939 281.963 128.755C281.963 128.916 281.946 129.055 281.913 129.173H275.195C275.228 129.795 275.384 130.321 275.662 130.75C275.94 131.179 276.29 131.501 276.712 131.716C277.145 131.93 277.595 132.038 278.062 132.038C279.151 132.038 279.99 131.544 280.579 130.557L281.78 131.12C281.413 131.785 280.913 132.311 280.279 132.697C279.657 133.084 278.901 133.277 278.012 133.277ZM280.463 128.047C280.44 127.703 280.34 127.36 280.163 127.017C279.985 126.673 279.701 126.384 279.312 126.148C278.935 125.911 278.457 125.793 277.879 125.793C277.212 125.793 276.645 126.003 276.179 126.421C275.723 126.829 275.423 127.371 275.278 128.047H280.463ZM292.987 133.277C291.843 133.277 290.803 133.009 289.87 132.472C288.936 131.936 288.203 131.211 287.67 130.3C287.136 129.377 286.869 128.363 286.869 127.258C286.869 126.164 287.136 125.155 287.67 124.232C288.203 123.31 288.936 122.58 289.87 122.044C290.803 121.507 291.843 121.239 292.987 121.239C294.132 121.239 295.171 121.507 296.104 122.044C297.038 122.58 297.771 123.31 298.305 124.232C298.849 125.155 299.122 126.164 299.122 127.258C299.122 128.363 298.855 129.377 298.322 130.3C297.788 131.211 297.049 131.936 296.104 132.472C295.171 133.009 294.132 133.277 292.987 133.277ZM292.987 131.973C293.843 131.973 294.626 131.775 295.338 131.378C296.06 130.97 296.627 130.412 297.038 129.704C297.46 128.985 297.671 128.17 297.671 127.258C297.671 126.346 297.46 125.536 297.038 124.828C296.627 124.109 296.06 123.551 295.338 123.154C294.626 122.747 293.843 122.543 292.987 122.543C292.132 122.543 291.348 122.747 290.637 123.154C289.926 123.551 289.359 124.109 288.936 124.828C288.514 125.547 288.303 126.357 288.303 127.258C288.303 128.159 288.514 128.969 288.936 129.688C289.359 130.407 289.926 130.97 290.637 131.378C291.348 131.775 292.132 131.973 292.987 131.973ZM301.908 126.051H300.341V124.812H301.908V123.927C301.908 123.412 302.031 122.961 302.275 122.575C302.52 122.189 302.847 121.894 303.259 121.69C303.67 121.475 304.125 121.368 304.626 121.368C305.103 121.368 305.52 121.432 305.876 121.561V122.897C305.676 122.822 305.487 122.763 305.309 122.72C305.131 122.666 304.92 122.639 304.676 122.639C304.309 122.639 303.992 122.768 303.725 123.025C303.459 123.272 303.325 123.621 303.325 124.072V124.812H305.509V126.051H303.325V133.019H301.908V126.051ZM313.183 122.8H309.832V121.497H317.934V122.8H314.6V133.019H313.183V122.8ZM321.884 133.277C321.073 133.277 320.345 133.089 319.701 132.713C319.056 132.338 318.55 131.823 318.184 131.169C317.828 130.503 317.65 129.758 317.65 128.932C317.65 128.138 317.817 127.408 318.15 126.743C318.495 126.078 318.978 125.547 319.6 125.15C320.223 124.753 320.945 124.554 321.768 124.554C322.601 124.554 323.323 124.737 323.935 125.101C324.546 125.456 325.013 125.949 325.335 126.582C325.668 127.215 325.835 127.939 325.835 128.755C325.835 128.916 325.818 129.055 325.785 129.173H319.067C319.1 129.795 319.256 130.321 319.534 130.75C319.812 131.179 320.162 131.501 320.584 131.716C321.017 131.93 321.467 132.038 321.934 132.038C323.023 132.038 323.862 131.544 324.451 130.557L325.652 131.12C325.285 131.785 324.785 132.311 324.151 132.697C323.529 133.084 322.773 133.277 321.884 133.277ZM324.335 128.047C324.312 127.703 324.212 127.36 324.035 127.017C323.857 126.673 323.573 126.384 323.185 126.148C322.807 125.911 322.329 125.793 321.751 125.793C321.084 125.793 320.517 126.003 320.051 126.421C319.595 126.829 319.295 127.371 319.15 128.047H324.335ZM331.425 133.277C330.603 133.277 329.864 133.089 329.208 132.713C328.552 132.327 328.041 131.807 327.674 131.152C327.307 130.487 327.124 129.742 327.124 128.916C327.124 128.089 327.307 127.344 327.674 126.679C328.041 126.013 328.552 125.493 329.208 125.118C329.864 124.742 330.603 124.554 331.425 124.554C332.347 124.554 333.12 124.764 333.742 125.182C334.375 125.59 334.826 126.137 335.092 126.823L333.809 127.338C333.598 126.834 333.281 126.453 332.859 126.196C332.447 125.928 331.947 125.793 331.358 125.793C330.858 125.793 330.391 125.928 329.958 126.196C329.525 126.453 329.174 126.818 328.908 127.29C328.652 127.762 328.524 128.304 328.524 128.916C328.524 129.527 328.652 130.069 328.908 130.541C329.174 131.013 329.525 131.383 329.958 131.651C330.391 131.909 330.858 132.038 331.358 132.038C331.958 132.038 332.475 131.903 332.909 131.635C333.342 131.367 333.664 130.986 333.875 130.493L335.142 131.008C334.853 131.684 334.387 132.231 333.742 132.649C333.109 133.068 332.336 133.277 331.425 133.277ZM336.675 121.497H338.091V124.892L338.025 126.019H338.091C338.325 125.6 338.692 125.252 339.192 124.973C339.703 124.694 340.259 124.554 340.859 124.554C341.892 124.554 342.681 124.849 343.226 125.439C343.77 126.019 344.043 126.791 344.043 127.757V133.019H342.626V127.966C342.626 127.226 342.431 126.679 342.042 126.325C341.653 125.971 341.148 125.793 340.525 125.793C340.081 125.793 339.67 125.922 339.292 126.18C338.925 126.437 338.63 126.77 338.408 127.177C338.197 127.585 338.091 128.009 338.091 128.449V133.019H336.675V121.497ZM346.083 124.812H347.433V126.019H347.5C347.734 125.611 348.106 125.268 348.617 124.989C349.128 124.699 349.673 124.554 350.251 124.554C351.273 124.554 352.051 124.844 352.584 125.423C353.129 125.992 353.401 126.77 353.401 127.757V133.019H351.984V127.966C351.984 127.204 351.795 126.652 351.418 126.308C351.04 125.965 350.523 125.793 349.867 125.793C349.412 125.793 349 125.917 348.634 126.164C348.278 126.41 348 126.738 347.8 127.145C347.6 127.542 347.5 127.961 347.5 128.401V133.019H346.083V124.812ZM359.345 133.277C358.512 133.277 357.762 133.084 357.095 132.697C356.428 132.311 355.906 131.785 355.528 131.12C355.161 130.455 354.978 129.72 354.978 128.916C354.978 128.111 355.161 127.376 355.528 126.711C355.906 126.046 356.428 125.52 357.095 125.134C357.762 124.747 358.512 124.554 359.345 124.554C360.179 124.554 360.929 124.747 361.596 125.134C362.263 125.52 362.779 126.046 363.146 126.711C363.524 127.376 363.713 128.111 363.713 128.916C363.713 129.72 363.524 130.455 363.146 131.12C362.779 131.785 362.263 132.311 361.596 132.697C360.929 133.084 360.179 133.277 359.345 133.277ZM359.345 132.038C359.868 132.038 360.351 131.914 360.796 131.667C361.251 131.41 361.612 131.045 361.879 130.573C362.157 130.101 362.296 129.548 362.296 128.916C362.296 128.283 362.157 127.73 361.879 127.258C361.612 126.786 361.251 126.426 360.796 126.18C360.351 125.922 359.868 125.793 359.345 125.793C358.823 125.793 358.334 125.922 357.878 126.18C357.423 126.426 357.056 126.786 356.778 127.258C356.512 127.73 356.378 128.283 356.378 128.916C356.378 129.548 356.512 130.101 356.778 130.573C357.056 131.045 357.423 131.41 357.878 131.667C358.334 131.914 358.823 132.038 359.345 132.038ZM365.277 121.497H366.694V133.019H365.277V121.497ZM372.628 133.277C371.795 133.277 371.045 133.084 370.378 132.697C369.711 132.311 369.189 131.785 368.811 131.12C368.444 130.455 368.261 129.72 368.261 128.916C368.261 128.111 368.444 127.376 368.811 126.711C369.189 126.046 369.711 125.52 370.378 125.134C371.045 124.747 371.795 124.554 372.628 124.554C373.462 124.554 374.212 124.747 374.879 125.134C375.546 125.52 376.062 126.046 376.429 126.711C376.807 127.376 376.996 128.111 376.996 128.916C376.996 129.72 376.807 130.455 376.429 131.12C376.062 131.785 375.546 132.311 374.879 132.697C374.212 133.084 373.462 133.277 372.628 133.277ZM372.628 132.038C373.151 132.038 373.634 131.914 374.079 131.667C374.534 131.41 374.895 131.045 375.162 130.573C375.44 130.101 375.579 129.548 375.579 128.916C375.579 128.283 375.44 127.73 375.162 127.258C374.895 126.786 374.534 126.426 374.079 126.18C373.634 125.922 373.151 125.793 372.628 125.793C372.106 125.793 371.617 125.922 371.161 126.18C370.706 126.426 370.339 126.786 370.061 127.258C369.795 127.73 369.661 128.283 369.661 128.916C369.661 129.548 369.795 130.101 370.061 130.573C370.339 131.045 370.706 131.41 371.161 131.667C371.617 131.914 372.106 132.038 372.628 132.038ZM382.376 136.753C381.376 136.753 380.548 136.528 379.892 136.077C379.248 135.626 378.814 135.085 378.592 134.452L379.876 133.92C380.065 134.393 380.376 134.773 380.809 135.063C381.254 135.363 381.776 135.514 382.376 135.514C383.254 135.514 383.932 135.267 384.41 134.773C384.899 134.28 385.143 133.583 385.143 132.681V131.764H385.077C384.799 132.182 384.404 132.526 383.893 132.794C383.393 133.051 382.821 133.18 382.176 133.18C381.443 133.18 380.77 132.998 380.159 132.633C379.559 132.268 379.081 131.759 378.725 131.104C378.37 130.45 378.192 129.704 378.192 128.867C378.192 128.041 378.37 127.301 378.725 126.646C379.081 125.981 379.559 125.466 380.159 125.101C380.77 124.737 381.443 124.554 382.176 124.554C382.821 124.554 383.393 124.688 383.893 124.957C384.404 125.214 384.799 125.557 385.077 125.987H385.143V124.812H386.494V132.697C386.494 134.017 386.116 135.02 385.36 135.707C384.604 136.404 383.61 136.753 382.376 136.753ZM382.376 131.941C382.887 131.941 383.348 131.818 383.76 131.571C384.182 131.324 384.515 130.97 384.76 130.509C385.015 130.047 385.143 129.5 385.143 128.867C385.143 128.224 385.015 127.671 384.76 127.21C384.515 126.748 384.182 126.4 383.76 126.164C383.348 125.917 382.887 125.793 382.376 125.793C381.865 125.793 381.398 125.917 380.976 126.164C380.553 126.41 380.215 126.764 379.959 127.226C379.714 127.687 379.592 128.234 379.592 128.867C379.592 129.5 379.714 130.053 379.959 130.525C380.215 130.986 380.553 131.34 380.976 131.587C381.398 131.823 381.865 131.941 382.376 131.941ZM391.189 132.504L387.671 124.812H389.205L391.872 130.911H391.906L394.473 124.812H396.006L390.755 136.495H389.288L391.189 132.504Z" fill="#242424"/>
<defs>
<linearGradient id="paint0_linear_703_2369" x1="425.331" y1="131.228" x2="8.80862" y2="131.228" gradientUnits="userSpaceOnUse">
<stop stop-color="#348BCA"/>
<stop offset="0.404875" stop-color="#59A43A"/>
<stop offset="0.711571" stop-color="#F3B002"/>
<stop offset="1" stop-color="#DF572E"/>
</linearGradient>
</defs>
</svg>
