<svg width="429" height="168" viewBox="0 0 429 168" fill="none" xmlns="http://www.w3.org/2000/svg">
<path d="M416.996 2.2323H11.3647C5.99422 2.2323 1.64062 6.43527 1.64062 11.6199V156.457C1.64062 161.642 5.99422 165.845 11.3647 165.845H416.996C422.366 165.845 426.72 161.642 426.72 156.457V11.6199C426.72 6.43527 422.366 2.2323 416.996 2.2323Z" fill="#EFEFEF" stroke="url(#paint0_linear_703_2373)" stroke-width="3.2"/>
<path d="M50.3814 105.685C48.8408 105.685 47.4211 105.327 46.1236 104.613C44.8248 103.898 43.7899 102.922 43.0203 101.683C42.2646 100.429 41.8867 99.037 41.8867 97.5054C41.8867 95.9753 42.2646 94.5899 43.0203 93.3508C43.7899 92.0969 44.8248 91.1125 46.1236 90.3991C47.4211 89.6843 48.8408 89.3275 50.3814 89.3275C51.6052 89.3275 52.7443 89.538 53.8015 89.9605C54.8586 90.3843 55.7421 90.9744 56.452 91.7321L54.685 93.4379C54.1571 92.8693 53.5223 92.4321 52.7832 92.1264C52.0581 91.8206 51.2496 91.6664 50.3592 91.6664C49.3173 91.6664 48.3435 91.9078 47.4364 92.3879C46.5307 92.8693 45.8055 93.5546 45.2624 94.4438C44.7192 95.3329 44.4469 96.3534 44.4469 97.5054C44.4469 98.6574 44.7192 99.678 45.2624 100.567C45.8055 101.456 46.5307 102.142 47.4364 102.623C48.3435 103.103 49.3242 103.345 50.3814 103.345C51.3482 103.345 52.1553 103.206 52.8054 102.929C53.4542 102.651 54.0362 102.28 54.5488 101.813C54.8822 101.492 55.1614 101.092 55.3879 100.611C55.6296 100.13 55.7879 99.6042 55.8629 99.037H50.3592V96.8497H58.2648C58.3398 97.2574 58.3773 97.6811 58.3773 98.1183C58.3773 99.1094 58.219 100.064 57.9022 100.983C57.5841 101.887 57.0784 102.674 56.3839 103.345C54.8586 104.904 52.8582 105.685 50.3814 105.685ZM66.201 105.685C65.0383 105.685 63.9964 105.429 63.0754 104.919C62.1544 104.393 61.4376 103.68 60.9236 102.776C60.4096 101.872 60.154 100.866 60.154 99.7585C60.154 98.6494 60.4096 97.6436 60.9236 96.7397C61.4376 95.8358 62.1544 95.1291 63.0754 94.6195C63.9964 94.0938 65.0383 93.8322 66.201 93.8322C67.3637 93.8322 68.4056 94.0938 69.328 94.6195C70.249 95.1438 70.9658 95.8586 71.4797 96.7625C71.9923 97.6664 72.2493 98.6641 72.2493 99.7585C72.2493 100.866 71.9923 101.872 71.4797 102.776C70.9658 103.68 70.249 104.393 69.328 104.919C68.4056 105.429 67.3637 105.685 66.201 105.685ZM66.201 103.476C66.8358 103.476 67.4248 103.33 67.968 103.039C68.5125 102.732 68.9418 102.302 69.2599 101.747C69.5919 101.179 69.7572 100.516 69.7572 99.7585C69.7572 98.9994 69.5919 98.3436 69.2599 97.7898C68.9418 97.2359 68.5125 96.8135 67.968 96.5211C67.4248 96.2153 66.8358 96.0624 66.201 96.0624C65.5675 96.0624 64.9785 96.2153 64.434 96.5211C63.8908 96.8135 63.4532 97.2359 63.1212 97.7898C62.8031 98.3436 62.6448 98.9994 62.6448 99.7585C62.6448 100.516 62.8031 101.179 63.1212 101.747C63.4532 102.302 63.8908 102.732 64.434 103.039C64.9785 103.33 65.5675 103.476 66.201 103.476ZM79.9605 105.685C78.7978 105.685 77.7559 105.429 76.8349 104.919C75.9139 104.393 75.1957 103.68 74.6831 102.776C74.1691 101.872 73.9121 100.866 73.9121 99.7585C73.9121 98.6494 74.1691 97.6436 74.6831 96.7397C75.1957 95.8358 75.9139 95.1291 76.8349 94.6195C77.7559 94.0938 78.7978 93.8322 79.9605 93.8322C81.1232 93.8322 82.1651 94.0938 83.0861 94.6195C84.0071 95.1438 84.7252 95.8586 85.2378 96.7625C85.7518 97.6664 86.0088 98.6641 86.0088 99.7585C86.0088 100.866 85.7518 101.872 85.2378 102.776C84.7252 103.68 84.0071 104.393 83.0861 104.919C82.1651 105.429 81.1232 105.685 79.9605 105.685ZM79.9605 103.476C80.5953 103.476 81.1829 103.33 81.7275 103.039C82.2707 102.732 82.7013 102.302 83.018 101.747C83.35 101.179 83.5167 100.516 83.5167 99.7585C83.5167 98.9994 83.35 98.3436 83.018 97.7898C82.7013 97.2359 82.2707 96.8135 81.7275 96.5211C81.1829 96.2153 80.5953 96.0624 79.9605 96.0624C79.3257 96.0624 78.7367 96.2153 78.1935 96.5211C77.6503 96.8135 77.2113 97.2359 76.8793 97.7898C76.5626 98.3436 76.4043 98.9994 76.4043 99.7585C76.4043 100.516 76.5626 101.179 76.8793 101.747C77.2113 102.302 77.6503 102.732 78.1935 103.039C78.7367 103.33 79.3257 103.476 79.9605 103.476ZM93.5158 110.408C92.0961 110.408 90.9181 110.094 89.9818 109.467C89.0608 108.84 88.4412 108.097 88.1245 107.236L90.4583 106.296C90.6986 106.88 91.0848 107.346 91.6127 107.696C92.1558 108.06 92.7907 108.242 93.5158 108.242C94.5729 108.242 95.3953 107.936 95.9843 107.324C96.5886 106.727 96.89 105.881 96.89 104.788V103.76H96.7553C96.3774 104.285 95.8718 104.7 95.237 105.006C94.6174 105.297 93.9006 105.443 93.0852 105.443C92.1183 105.443 91.2209 105.203 90.3902 104.722C89.5595 104.24 88.8941 103.563 88.3968 102.689C87.9134 101.798 87.6716 100.786 87.6716 99.6485C87.6716 98.5113 87.9134 97.5055 88.3968 96.6311C88.8941 95.7419 89.5595 95.0566 90.3902 94.5752C91.2209 94.079 92.1183 93.8322 93.0852 93.8322C93.8853 93.8322 94.6035 93.9851 95.237 94.2909C95.8718 94.5966 96.3774 95.0124 96.7553 95.5381H96.89V94.1822H99.2696V104.722C99.2696 105.931 99.0279 106.96 98.5445 107.805C98.0611 108.666 97.3818 109.314 96.5052 109.751C95.6454 110.189 94.6479 110.408 93.5158 110.408ZM93.538 103.257C94.1423 103.257 94.7007 103.118 95.2147 102.842C95.7273 102.549 96.1357 102.135 96.4372 101.594C96.74 101.041 96.89 100.391 96.89 99.6485C96.89 98.5113 96.5664 97.6288 95.9162 97.0025C95.2828 96.3615 94.4896 96.041 93.538 96.041C92.9184 96.041 92.3531 96.1858 91.8391 96.4782C91.3265 96.7544 90.9181 97.1635 90.6166 97.7026C90.3138 98.2417 90.1638 98.8908 90.1638 99.6485C90.1638 100.406 90.3138 101.055 90.6166 101.594C90.9181 102.135 91.3265 102.549 91.8391 102.842C92.3531 103.118 92.9184 103.257 93.538 103.257ZM102.198 89.6775H104.689V105.335H102.198V89.6775ZM112.785 105.685C111.651 105.685 110.633 105.429 109.726 104.919C108.835 104.408 108.134 103.709 107.62 102.819C107.121 101.915 106.872 100.902 106.872 99.7799C106.872 98.7151 107.114 97.7321 107.598 96.8282C108.095 95.9095 108.783 95.18 109.658 94.6409C110.534 94.1018 111.53 93.8322 112.649 93.8322C113.811 93.8322 114.816 94.079 115.662 94.5752C116.521 95.0714 117.172 95.7486 117.609 96.6096C118.062 97.4692 118.288 98.4388 118.288 99.5171C118.288 99.7209 118.266 99.9771 118.22 100.283H109.363C109.455 101.318 109.831 102.12 110.497 102.689C111.176 103.243 111.961 103.519 112.853 103.519C113.563 103.519 114.174 103.366 114.686 103.06C115.216 102.74 115.638 102.309 115.956 101.77L118.062 102.732C117.519 103.65 116.809 104.372 115.932 104.897C115.057 105.422 114.007 105.685 112.785 105.685ZM115.752 98.4456C115.721 98.0526 115.594 97.6664 115.367 97.2869C115.141 96.8939 114.792 96.5653 114.324 96.3025C113.871 96.041 113.313 95.9095 112.649 95.9095C111.848 95.9095 111.169 96.1429 110.609 96.6096C110.066 97.0615 109.688 97.6731 109.477 98.4456H115.752ZM126.275 89.6775H131.462C133.137 89.6775 134.603 90.0047 135.856 90.6605C137.109 91.3163 138.069 92.243 138.733 93.4379C139.412 94.6194 139.752 95.9753 139.752 97.5054C139.752 99.037 139.412 100.4 138.733 101.594C138.069 102.776 137.109 103.695 135.856 104.35C134.603 105.006 133.137 105.335 131.462 105.335H126.275V89.6775ZM131.416 102.995C133.229 102.995 134.64 102.513 135.651 101.551C136.679 100.574 137.192 99.2261 137.192 97.5054C137.192 95.7996 136.679 94.4585 135.651 93.4822C134.64 92.5045 133.229 92.0164 131.416 92.0164H128.811V102.995H131.416ZM147.181 105.685C146.049 105.685 145.03 105.429 144.124 104.919C143.233 104.408 142.53 103.709 142.016 102.819C141.519 101.915 141.269 100.902 141.269 99.7799C141.269 98.7151 141.511 97.7321 141.994 96.8282C142.493 95.9095 143.181 95.18 144.056 94.6409C144.932 94.1018 145.928 93.8322 147.045 93.8322C148.208 93.8322 149.212 94.079 150.058 94.5752C150.92 95.0714 151.568 95.7486 152.006 96.6096C152.46 97.4692 152.687 98.4388 152.687 99.5171C152.687 99.7209 152.663 99.9771 152.618 100.283H143.761C143.852 101.318 144.229 102.12 144.893 102.689C145.574 103.243 146.359 103.519 147.249 103.519C147.959 103.519 148.57 103.366 149.084 103.06C149.612 102.74 150.036 102.309 150.353 101.77L152.46 102.732C151.916 103.65 151.206 104.372 150.331 104.897C149.454 105.422 148.405 105.685 147.181 105.685ZM150.149 98.4456C150.119 98.0526 149.99 97.6664 149.764 97.2869C149.537 96.8939 149.19 96.5653 148.722 96.3025C148.269 96.041 147.711 95.9095 147.045 95.9095C146.245 95.9095 145.566 96.1429 145.007 96.6096C144.464 97.0615 144.086 97.6731 143.875 98.4456H150.149ZM153.442 94.1822H156.229L159.422 102.229H159.513L162.774 94.1822H165.493L160.691 105.335H158.2L153.442 94.1822ZM172.046 105.685C170.912 105.685 169.894 105.429 168.987 104.919C168.096 104.408 167.395 103.709 166.881 102.819C166.382 101.915 166.133 100.902 166.133 99.7799C166.133 98.7151 166.375 97.7321 166.859 96.8282C167.356 95.9095 168.044 95.18 168.919 94.6409C169.795 94.1018 170.791 93.8322 171.91 93.8322C173.072 93.8322 174.077 94.079 174.923 94.5752C175.782 95.0714 176.433 95.7486 176.87 96.6096C177.323 97.4692 177.549 98.4388 177.549 99.5171C177.549 99.7209 177.527 99.9771 177.481 100.283H168.624C168.716 101.318 169.092 102.12 169.758 102.689C170.437 103.243 171.222 103.519 172.114 103.519C172.824 103.519 173.435 103.366 173.947 103.06C174.477 102.74 174.899 102.309 175.217 101.77L177.323 102.732C176.78 103.65 176.07 104.372 175.193 104.897C174.318 105.422 173.268 105.685 172.046 105.685ZM175.013 98.4456C174.982 98.0526 174.855 97.6664 174.628 97.2869C174.402 96.8939 174.053 96.5653 173.585 96.3025C173.132 96.041 172.574 95.9095 171.91 95.9095C171.109 95.9095 170.43 96.1429 169.87 96.6096C169.327 97.0615 168.949 97.6731 168.738 98.4456H175.013ZM179.818 89.6775H182.31V105.335H179.818V89.6775ZM190.541 105.685C189.378 105.685 188.336 105.429 187.415 104.919C186.494 104.393 185.777 103.68 185.263 102.776C184.749 101.872 184.494 100.866 184.494 99.7585C184.494 98.6494 184.749 97.6436 185.263 96.7397C185.777 95.8358 186.494 95.1291 187.415 94.6195C188.336 94.0938 189.378 93.8322 190.541 93.8322C191.703 93.8322 192.745 94.0938 193.668 94.6195C194.589 95.1438 195.306 95.8586 195.82 96.7625C196.332 97.6664 196.589 98.6641 196.589 99.7585C196.589 100.866 196.332 101.872 195.82 102.776C195.306 103.68 194.589 104.393 193.668 104.919C192.745 105.429 191.703 105.685 190.541 105.685ZM190.541 103.476C191.176 103.476 191.765 103.33 192.308 103.039C192.852 102.732 193.282 102.302 193.6 101.747C193.932 101.179 194.097 100.516 194.097 99.7585C194.097 98.9994 193.932 98.3436 193.6 97.7898C193.282 97.2359 192.852 96.8135 192.308 96.5211C191.765 96.2153 191.176 96.0624 190.541 96.0624C189.907 96.0624 189.318 96.2153 188.774 96.5211C188.231 96.8135 187.793 97.2359 187.461 97.7898C187.143 98.3436 186.985 98.9994 186.985 99.7585C186.985 100.516 187.143 101.179 187.461 101.747C187.793 102.302 188.231 102.732 188.774 103.039C189.318 103.33 189.907 103.476 190.541 103.476ZM198.685 94.1822H201.064V95.6467H201.178C201.51 95.1371 202 94.7066 202.65 94.3566C203.299 94.0066 204.031 93.8322 204.846 93.8322C205.888 93.8322 206.833 94.087 207.677 94.5966C208.523 95.1076 209.189 95.8143 209.671 96.7182C210.169 97.6074 210.419 98.6212 210.419 99.7585C210.419 100.896 210.169 101.915 209.671 102.819C209.189 103.709 208.523 104.408 207.677 104.919C206.833 105.429 205.888 105.685 204.846 105.685C204.031 105.685 203.299 105.509 202.65 105.159C202 104.809 201.51 104.387 201.178 103.89H201.064L201.178 105.443V110.058H198.685V94.1822ZM204.484 103.476C205.088 103.476 205.655 103.322 206.183 103.016C206.712 102.71 207.134 102.273 207.451 101.704C207.769 101.136 207.927 100.487 207.927 99.7585C207.927 99.0289 207.769 98.3879 207.451 97.834C207.134 97.2654 206.712 96.8282 206.183 96.5211C205.655 96.2153 205.088 96.0624 204.484 96.0624C203.881 96.0624 203.314 96.2153 202.785 96.5211C202.272 96.8282 201.857 97.2654 201.54 97.834C201.222 98.3879 201.064 99.0289 201.064 99.7585C201.064 100.487 201.222 101.136 201.54 101.704C201.857 102.273 202.272 102.71 202.785 103.016C203.314 103.322 203.881 103.476 204.484 103.476ZM217.968 105.685C216.835 105.685 215.816 105.429 214.909 104.919C214.019 104.408 213.316 103.709 212.803 102.819C212.305 101.915 212.056 100.902 212.056 99.7799C212.056 98.7151 212.298 97.7321 212.781 96.8282C213.278 95.9095 213.966 95.18 214.841 94.6409C215.718 94.1018 216.714 93.8322 217.832 93.8322C218.995 93.8322 219.999 94.079 220.844 94.5752C221.705 95.0714 222.355 95.7486 222.793 96.6096C223.245 97.4692 223.472 98.4388 223.472 99.5171C223.472 99.7209 223.45 99.9771 223.404 100.283H214.547C214.638 101.318 215.015 102.12 215.68 102.689C216.359 103.243 217.144 103.519 218.036 103.519C218.745 103.519 219.357 103.366 219.87 103.06C220.399 102.74 220.821 102.309 221.138 101.77L223.245 102.732C222.702 103.65 221.992 104.372 221.116 104.897C220.241 105.422 219.191 105.685 217.968 105.685ZM220.935 98.4456C220.905 98.0526 220.777 97.6664 220.551 97.2869C220.323 96.8939 219.975 96.5653 219.507 96.3025C219.054 96.041 218.496 95.9095 217.832 95.9095C217.032 95.9095 216.351 96.1429 215.793 96.6096C215.25 97.0615 214.872 97.6731 214.661 98.4456H220.935ZM225.74 94.1822H228.12V95.8224H228.233C228.49 95.2538 228.935 94.7871 229.569 94.4223C230.204 94.0428 230.875 93.8537 231.585 93.8537C232.144 93.8537 232.613 93.9261 232.989 94.0723V96.5654C232.325 96.332 231.729 96.2153 231.2 96.2153C230.626 96.2153 230.112 96.3615 229.659 96.6525C229.222 96.9449 228.874 97.3378 228.617 97.834C228.36 98.3141 228.233 98.8465 228.233 99.4299V105.335H225.74V94.1822ZM244.619 105.685C243.274 105.685 242.067 105.305 240.995 104.547C239.922 103.788 239.182 102.725 238.775 101.354L241.175 100.414C241.417 101.274 241.841 101.981 242.444 102.535C243.063 103.075 243.803 103.345 244.663 103.345C245.465 103.345 246.144 103.147 246.703 102.754C247.261 102.345 247.54 101.792 247.54 101.092C247.54 100.45 247.292 99.9261 246.793 99.5171C246.309 99.0946 245.457 98.6722 244.234 98.2484L243.214 97.8997C242.127 97.535 241.213 97.0092 240.474 96.3253C239.733 95.64 239.364 94.7361 239.364 93.6136C239.364 92.8398 239.582 92.1263 240.021 91.4706C240.458 90.8134 241.063 90.2971 241.832 89.9176C242.617 89.5233 243.501 89.3275 244.483 89.3275C245.902 89.3275 247.035 89.6628 247.881 90.3333C248.727 90.9891 249.292 91.7321 249.58 92.5635L247.292 93.5037C247.125 93.0075 246.808 92.5702 246.34 92.1921C245.872 91.8125 245.268 91.6235 244.529 91.6235C243.788 91.6235 243.162 91.8058 242.648 92.1693C242.149 92.534 241.9 93.0007 241.9 93.5694C241.9 94.1085 242.127 94.5537 242.58 94.9037C243.032 95.2538 243.742 95.589 244.709 95.9095L245.729 96.2368C247.118 96.7035 248.19 97.3164 248.945 98.0741C249.716 98.817 250.1 99.8162 250.1 101.07C250.1 102.091 249.828 102.95 249.285 103.65C248.742 104.336 248.046 104.845 247.201 105.181C246.371 105.517 245.509 105.685 244.619 105.685ZM256.754 105.509C256.241 105.509 255.757 105.429 255.304 105.269C254.851 105.108 254.482 104.898 254.194 104.635C253.546 104.007 253.22 103.154 253.22 102.076V96.3025H251.205V94.1822H253.22V91.032H255.713V94.1822H258.521V96.3025H255.713V101.551C255.713 102.148 255.833 102.572 256.075 102.819C256.302 103.111 256.693 103.257 257.253 103.257C257.509 103.257 257.735 103.228 257.932 103.169C258.128 103.096 258.34 102.986 258.566 102.842V105.181C258.069 105.4 257.464 105.509 256.754 105.509ZM265.103 105.685C263.699 105.685 262.628 105.284 261.887 104.482C261.162 103.665 260.8 102.535 260.8 101.092V94.1822H263.292V100.764C263.292 101.668 263.51 102.345 263.949 102.797C264.402 103.249 264.991 103.476 265.716 103.476C266.305 103.476 266.826 103.33 267.279 103.039C267.732 102.732 268.079 102.331 268.321 101.836C268.562 101.34 268.683 100.807 268.683 100.239V94.1822H271.174V105.335H268.819V103.89H268.683C268.365 104.416 267.875 104.845 267.211 105.181C266.545 105.517 265.844 105.685 265.103 105.685ZM278.902 105.685C277.86 105.685 276.917 105.429 276.071 104.919C275.225 104.408 274.552 103.709 274.055 102.819C273.571 101.915 273.33 100.896 273.33 99.7585C273.33 98.6212 273.571 97.6074 274.055 96.7182C274.552 95.8143 275.225 95.1076 276.071 94.5966C276.917 94.087 277.86 93.8322 278.902 93.8322C279.717 93.8322 280.449 94.0066 281.099 94.3566C281.748 94.7066 282.24 95.1371 282.572 95.6467H282.684L282.572 94.0723V89.6775H285.063V105.335H282.684V103.89H282.572C282.24 104.387 281.748 104.809 281.099 105.159C280.449 105.509 279.717 105.685 278.902 105.685ZM279.264 103.476C279.868 103.476 280.427 103.322 280.941 103.016C281.469 102.71 281.892 102.273 282.209 101.704C282.526 101.136 282.684 100.487 282.684 99.7585C282.684 99.0289 282.526 98.3879 282.209 97.834C281.892 97.2654 281.469 96.8282 280.941 96.5211C280.427 96.2153 279.868 96.0624 279.264 96.0624C278.66 96.0624 278.095 96.2153 277.565 96.5211C277.037 96.8282 276.614 97.2654 276.297 97.834C275.98 98.3879 275.822 99.0289 275.822 99.7585C275.822 100.487 275.98 101.136 276.297 101.704C276.614 102.273 277.037 102.71 277.565 103.016C278.095 103.322 278.66 103.476 279.264 103.476ZM293.133 105.685C292.001 105.685 290.982 105.429 290.076 104.919C289.184 104.408 288.483 103.709 287.969 102.819C287.47 101.915 287.221 100.902 287.221 99.7799C287.221 98.7151 287.463 97.7321 287.946 96.8282C288.445 95.9095 289.131 95.18 290.008 94.6409C290.883 94.1018 291.88 93.8322 292.997 93.8322C294.16 93.8322 295.164 94.079 296.01 94.5752C296.87 95.0714 297.52 95.7486 297.958 96.6096C298.411 97.4692 298.637 98.4388 298.637 99.5171C298.637 99.7209 298.615 99.9771 298.569 100.283H289.713C289.804 101.318 290.182 102.12 290.846 102.689C291.525 103.243 292.31 103.519 293.202 103.519C293.911 103.519 294.523 103.366 295.037 103.06C295.564 102.74 295.987 102.309 296.305 101.77L298.411 102.732C297.868 103.65 297.158 104.372 296.281 104.897C295.406 105.422 294.356 105.685 293.133 105.685ZM296.101 98.4456C296.07 98.0526 295.942 97.6664 295.716 97.2869C295.489 96.8939 295.142 96.5653 294.674 96.3025C294.221 96.041 293.661 95.9095 292.997 95.9095C292.197 95.9095 291.518 96.1429 290.959 96.6096C290.415 97.0615 290.037 97.6731 289.826 98.4456H296.101ZM300.907 94.1822H303.285V95.6467H303.398C303.73 95.1224 304.222 94.6919 304.87 94.3566C305.536 94.0066 306.237 93.8322 306.978 93.8322C308.382 93.8322 309.446 94.2332 310.171 95.0338C310.91 95.8224 311.281 96.9006 311.281 98.2712V105.335H308.789V98.5984C308.789 97.724 308.563 97.083 308.11 96.674C307.672 96.2663 307.06 96.0624 306.275 96.0624C305.716 96.0624 305.218 96.2153 304.78 96.5211C304.342 96.8135 304.002 97.2064 303.76 97.7026C303.519 98.1974 303.398 98.7299 303.398 99.2985V105.335H300.907V94.1822ZM318.249 105.509C317.737 105.509 317.253 105.429 316.8 105.269C316.347 105.108 315.977 104.898 315.69 104.635C315.04 104.007 314.715 103.154 314.715 102.076V96.3025H312.7V94.1822H314.715V91.032H317.207V94.1822H320.016V96.3025H317.207V101.551C317.207 102.148 317.328 102.572 317.57 102.819C317.796 103.111 318.19 103.257 318.748 103.257C319.005 103.257 319.231 103.228 319.427 103.169C319.623 103.096 319.836 102.986 320.062 102.842V105.181C319.563 105.4 318.959 105.509 318.249 105.509ZM335.316 105.685C333.745 105.685 332.312 105.327 331.013 104.613C329.714 103.898 328.694 102.914 327.954 101.66C327.215 100.406 326.844 99.0222 326.844 97.5054C326.844 95.99 327.215 94.6047 327.954 93.3508C328.694 92.0969 329.714 91.1125 331.013 90.3991C332.312 89.6843 333.745 89.3275 335.316 89.3275C336.539 89.3275 337.649 89.5461 338.646 89.9833C339.657 90.4205 340.549 91.0548 341.319 91.885L339.507 93.5694C338.948 92.9283 338.329 92.4536 337.649 92.1478C336.969 91.8273 336.192 91.6664 335.316 91.6664C334.229 91.6664 333.233 91.9078 332.327 92.3879C331.435 92.8693 330.725 93.5546 330.197 94.4438C329.668 95.3181 329.404 96.3387 329.404 97.5054C329.404 98.6722 329.668 99.6995 330.197 100.589C330.725 101.463 331.435 102.142 332.327 102.623C333.233 103.103 334.229 103.345 335.316 103.345C337.128 103.345 338.668 102.615 339.937 101.157L341.772 102.863C340.987 103.752 340.042 104.446 338.941 104.94C337.838 105.437 336.63 105.685 335.316 105.685ZM343.975 89.6775H346.467V105.335H343.975V89.6775ZM353.609 105.685C352.204 105.685 351.132 105.284 350.391 104.482C349.666 103.665 349.305 102.535 349.305 101.092V94.1822H351.796V100.764C351.796 101.668 352.015 102.345 352.453 102.797C352.906 103.249 353.495 103.476 354.22 103.476C354.809 103.476 355.33 103.33 355.783 103.039C356.235 102.732 356.583 102.331 356.824 101.836C357.066 101.34 357.187 100.807 357.187 100.239V94.1822H359.679V105.335H357.323V103.89H357.187C356.87 104.416 356.379 104.845 355.715 105.181C355.051 105.517 354.348 105.685 353.609 105.685ZM368.741 105.685C367.925 105.685 367.192 105.509 366.543 105.159C365.893 104.809 365.402 104.387 365.07 103.89H364.958V105.335H362.578V89.6775H365.07V94.0723L364.958 95.6467H365.07C365.402 95.1371 365.893 94.7066 366.543 94.3566C367.192 94.0066 367.925 93.8322 368.741 93.8322C369.782 93.8322 370.726 94.087 371.572 94.5966C372.418 95.1076 373.082 95.8143 373.565 96.7182C374.064 97.6074 374.312 98.6212 374.312 99.7585C374.312 100.896 374.064 101.915 373.565 102.819C373.082 103.709 372.418 104.408 371.572 104.919C370.726 105.429 369.782 105.685 368.741 105.685ZM368.378 103.476C368.982 103.476 369.548 103.322 370.077 103.016C370.605 102.71 371.029 102.273 371.345 101.704C371.662 101.136 371.82 100.487 371.82 99.7585C371.82 99.0289 371.662 98.3879 371.345 97.834C371.029 97.2654 370.605 96.8282 370.077 96.5211C369.548 96.2153 368.982 96.0624 368.378 96.0624C367.774 96.0624 367.207 96.2153 366.679 96.5211C366.165 96.8282 365.75 97.2654 365.433 97.834C365.116 98.3879 364.958 99.0289 364.958 99.7585C364.958 100.487 365.116 101.136 365.433 101.704C365.75 102.273 366.165 102.71 366.679 103.016C367.207 103.322 367.774 103.476 368.378 103.476ZM380.683 105.685C379.355 105.685 378.267 105.407 377.421 104.853C376.577 104.285 375.979 103.563 375.632 102.689L377.852 101.747C378.124 102.331 378.502 102.776 378.986 103.082C379.483 103.387 380.05 103.542 380.683 103.542C381.303 103.542 381.824 103.438 382.247 103.235C382.67 103.016 382.881 102.695 382.881 102.273C382.881 101.864 382.7 101.543 382.338 101.31C381.975 101.077 381.417 100.873 380.661 100.699L379.279 100.37C378.358 100.151 377.595 99.7652 376.992 99.2113C376.388 98.6574 376.085 97.9574 376.085 97.1125C376.085 96.4554 376.282 95.88 376.674 95.3838C377.082 94.889 377.626 94.5095 378.305 94.2466C378.986 93.9704 379.725 93.8322 380.525 93.8322C381.597 93.8322 382.542 94.0428 383.357 94.4666C384.173 94.8742 384.762 95.4724 385.123 96.2596L382.949 97.1769C382.511 96.3172 381.711 95.8868 380.548 95.8868C379.989 95.8868 379.52 95.9967 379.144 96.2153C378.766 96.4339 378.577 96.7182 378.577 97.0683C378.577 97.4035 378.72 97.6811 379.008 97.8997C379.294 98.1036 379.718 98.2779 380.276 98.4241L381.975 98.8398C383.107 99.1161 383.96 99.5399 384.534 100.107C385.123 100.662 385.417 101.348 385.417 102.163C385.417 102.863 385.206 103.483 384.784 104.022C384.375 104.547 383.81 104.955 383.085 105.246C382.36 105.539 381.56 105.685 380.683 105.685Z" fill="#242424"/>
<path d="M222.1 55.1903L240.738 44.8019C243.336 43.3541 246.657 44.2133 248.157 46.721C249.657 49.2287 248.767 52.4353 246.169 53.8831L227.531 64.2714C224.933 65.7192 221.612 64.86 220.112 62.3523C218.613 59.8447 219.503 56.6381 222.1 55.1903Z" fill="#FBBC04"/>
<path d="M208.865 43.4385L190.227 53.8269C187.629 55.2747 184.308 54.4155 182.808 51.9078C181.308 49.4001 182.198 46.1935 184.796 44.7457L203.434 34.3574C206.031 32.9095 209.353 33.7687 210.853 36.2764C212.352 38.7841 211.462 41.9907 208.865 43.4385Z" fill="#EA4335"/>
<path d="M208.406 55.1892L189.768 44.8008C187.17 43.353 183.849 44.2122 182.349 46.7199C180.849 49.2276 181.739 52.4342 184.337 53.882L202.975 64.2703C205.572 65.7182 208.894 64.859 210.394 62.3513C211.893 59.8436 211.003 56.637 208.406 55.1892Z" fill="#4285F4"/>
<path d="M221.784 43.2619L241.055 54.003C243.477 55.3534 246.575 54.552 247.974 52.213L248.34 51.602C249.738 49.2631 248.908 46.2722 246.485 44.9218L227.215 34.1807C224.792 32.8303 221.694 33.6317 220.295 35.9707L219.93 36.5817C218.531 38.9207 219.361 41.9115 221.784 43.2619Z" fill="#0F9D58"/>
<path d="M55.5516 129.15L51.5176 122.954H53.1679L56.2185 127.782H56.2851L59.2857 122.954H60.936L56.9686 129.15V134.477H55.5516V129.15ZM64.3547 134.734C63.5434 134.734 62.8155 134.546 62.171 134.171C61.5264 133.795 61.0207 133.281 60.654 132.626C60.2984 131.961 60.1206 131.215 60.1206 130.389C60.1206 129.595 60.2873 128.866 60.6207 128.2C60.9652 127.535 61.4486 127.004 62.071 126.607C62.6933 126.21 63.4156 126.012 64.238 126.012C65.0715 126.012 65.7939 126.194 66.4051 126.559C67.0163 126.913 67.4831 127.407 67.8053 128.04C68.1387 128.673 68.3054 129.397 68.3054 130.212C68.3054 130.373 68.2888 130.513 68.2554 130.631H61.5375C61.5709 131.253 61.7264 131.778 62.0043 132.208C62.2821 132.637 62.6321 132.959 63.0544 133.173C63.4878 133.388 63.938 133.495 64.4047 133.495C65.4938 133.495 66.3328 133.002 66.9218 132.015L68.1221 132.578C67.7553 133.243 67.2552 133.769 66.6218 134.155C65.9995 134.541 65.2437 134.734 64.3547 134.734ZM66.8051 129.504C66.7829 129.161 66.6829 128.817 66.5051 128.474C66.3273 128.131 66.0439 127.841 65.6549 127.605C65.2771 127.369 64.7992 127.251 64.2213 127.251C63.5545 127.251 62.9878 127.46 62.521 127.879C62.0654 128.286 61.7653 128.828 61.6209 129.504H66.8051ZM73.0118 134.734C72.1006 134.734 71.3393 134.53 70.7281 134.123C70.1169 133.704 69.6835 133.173 69.4279 132.529L70.6947 131.982C70.9059 132.476 71.2171 132.857 71.6282 133.125C72.0505 133.393 72.5117 133.527 73.0118 133.527C73.5453 133.527 74.0009 133.425 74.3788 133.222C74.7566 133.007 74.9455 132.707 74.9455 132.32C74.9455 131.977 74.7955 131.703 74.4955 131.5C74.1954 131.285 73.7231 131.103 73.0785 130.952L72.045 130.695C71.3671 130.534 70.8114 130.26 70.378 129.874C69.9446 129.488 69.7279 128.989 69.7279 128.378C69.7279 127.905 69.8724 127.492 70.1613 127.138C70.4614 126.774 70.8559 126.495 71.3449 126.302C71.8339 126.108 72.3617 126.012 72.9285 126.012C73.6731 126.012 74.3343 126.167 74.9122 126.479C75.5012 126.79 75.9179 127.224 76.1624 127.782L74.9289 128.329C74.551 127.6 73.8787 127.235 72.9118 127.235C72.4451 127.235 72.0339 127.342 71.6783 127.557C71.3338 127.761 71.1615 128.023 71.1615 128.345C71.1615 128.646 71.2838 128.892 71.5282 129.086C71.7727 129.268 72.1395 129.418 72.6284 129.536L73.862 129.842C74.6955 130.046 75.3234 130.352 75.7457 130.759C76.168 131.156 76.3791 131.644 76.3791 132.224C76.3791 132.728 76.2291 133.173 75.9291 133.559C75.629 133.935 75.2234 134.225 74.7122 134.428C74.2009 134.632 73.6342 134.734 73.0118 134.734ZM77.9239 122.954H79.3408V126.35L79.2741 127.476H79.3408C79.5742 127.058 79.9409 126.709 80.441 126.43C80.9522 126.151 81.5079 126.012 82.108 126.012C83.1415 126.012 83.9306 126.307 84.4751 126.897C85.0196 127.476 85.2919 128.249 85.2919 129.214V134.477H83.875V129.424C83.875 128.683 83.6805 128.136 83.2916 127.782C82.9026 127.428 82.3969 127.251 81.7746 127.251C81.3301 127.251 80.9189 127.38 80.541 127.637C80.1743 127.895 79.8798 128.227 79.6575 128.635C79.4464 129.043 79.3408 129.466 79.3408 129.906V134.477H77.9239V122.954ZM86.2365 126.269H87.6868L89.7205 132.755H89.7372L91.8709 126.269H93.3379L95.4883 132.739H95.5049L97.522 126.269H98.9555L96.2051 134.477H94.7714L92.5711 127.927L90.3873 134.477H88.9704L86.2365 126.269ZM102.683 134.734C102.06 134.734 101.505 134.616 101.016 134.38C100.527 134.144 100.149 133.822 99.8821 133.415C99.6154 132.996 99.4821 132.524 99.4821 131.998C99.4821 131.129 99.821 130.454 100.499 129.971C101.177 129.477 102.033 129.23 103.066 129.23C103.577 129.23 104.05 129.284 104.483 129.391C104.927 129.499 105.266 129.622 105.5 129.761V129.263C105.5 128.651 105.278 128.163 104.833 127.798C104.389 127.423 103.827 127.235 103.149 127.235C102.672 127.235 102.233 127.337 101.832 127.541C101.432 127.734 101.116 128.007 100.882 128.361L99.8155 127.589C100.149 127.095 100.605 126.709 101.182 126.43C101.771 126.151 102.421 126.012 103.133 126.012C104.289 126.012 105.194 126.307 105.85 126.897C106.517 127.476 106.85 128.27 106.85 129.279V134.477H105.5V133.302H105.433C105.189 133.699 104.822 134.037 104.333 134.316C103.844 134.595 103.294 134.734 102.683 134.734ZM102.816 133.527C103.294 133.527 103.738 133.409 104.15 133.173C104.561 132.937 104.889 132.621 105.133 132.224C105.378 131.827 105.5 131.392 105.5 130.92C105.233 130.749 104.905 130.609 104.516 130.502C104.127 130.394 103.716 130.341 103.283 130.341C102.505 130.341 101.916 130.496 101.516 130.808C101.127 131.119 100.932 131.521 100.932 132.015C100.932 132.465 101.11 132.83 101.466 133.109C101.821 133.388 102.271 133.527 102.816 133.527ZM108.821 126.269H110.172V127.476H110.238C110.472 127.069 110.844 126.725 111.355 126.446C111.866 126.157 112.411 126.012 112.989 126.012C114.011 126.012 114.789 126.302 115.322 126.881C115.867 127.449 116.139 128.227 116.139 129.214V134.477H114.722V129.424C114.722 128.662 114.533 128.109 114.156 127.766C113.778 127.423 113.261 127.251 112.605 127.251C112.15 127.251 111.739 127.374 111.372 127.621C111.016 127.868 110.738 128.195 110.538 128.603C110.338 129 110.238 129.418 110.238 129.858V134.477H108.821V126.269ZM121.01 134.605C120.665 134.605 120.343 134.552 120.043 134.445C119.754 134.337 119.509 134.192 119.309 134.01C119.087 133.806 118.92 133.57 118.809 133.302C118.698 133.034 118.643 132.707 118.643 132.32V127.508H117.159V126.269H118.643V123.952H120.059V126.269H122.127V127.508H120.059V131.982C120.059 132.433 120.148 132.766 120.326 132.98C120.537 133.216 120.843 133.334 121.243 133.334C121.565 133.334 121.876 133.243 122.177 133.061V134.396C122.01 134.471 121.838 134.525 121.66 134.557C121.493 134.589 121.276 134.605 121.01 134.605ZM123.848 126.269H125.198V127.589H125.265C125.431 127.138 125.754 126.768 126.231 126.479C126.709 126.178 127.209 126.028 127.732 126.028C128.121 126.028 128.454 126.082 128.732 126.189V127.669C128.376 127.498 127.976 127.412 127.532 127.412C127.121 127.412 126.743 127.525 126.398 127.75C126.054 127.975 125.776 128.281 125.565 128.667C125.365 129.043 125.265 129.45 125.265 129.89V134.477H123.848V126.269ZM132.49 134.734C131.867 134.734 131.312 134.616 130.823 134.38C130.334 134.144 129.956 133.822 129.689 133.415C129.422 132.996 129.289 132.524 129.289 131.998C129.289 131.129 129.628 130.454 130.306 129.971C130.984 129.477 131.839 129.23 132.873 129.23C133.384 129.23 133.856 129.284 134.29 129.391C134.734 129.499 135.073 129.622 135.307 129.761V129.263C135.307 128.651 135.085 128.163 134.64 127.798C134.195 127.423 133.634 127.235 132.956 127.235C132.478 127.235 132.039 127.337 131.639 127.541C131.239 127.734 130.923 128.007 130.689 128.361L129.622 127.589C129.956 127.095 130.411 126.709 130.989 126.43C131.578 126.151 132.228 126.012 132.94 126.012C134.095 126.012 135.001 126.307 135.657 126.897C136.324 127.476 136.657 128.27 136.657 129.279V134.477H135.307V133.302H135.24C134.996 133.699 134.629 134.037 134.14 134.316C133.651 134.595 133.101 134.734 132.49 134.734ZM132.623 133.527C133.101 133.527 133.545 133.409 133.957 133.173C134.368 132.937 134.696 132.621 134.94 132.224C135.185 131.827 135.307 131.392 135.307 130.92C135.04 130.749 134.712 130.609 134.323 130.502C133.934 130.394 133.523 130.341 133.09 130.341C132.312 130.341 131.723 130.496 131.323 130.808C130.934 131.119 130.739 131.521 130.739 132.015C130.739 132.465 130.917 132.83 131.273 133.109C131.628 133.388 132.078 133.527 132.623 133.527ZM142.465 134.734C141.632 134.734 140.881 134.541 140.215 134.155C139.548 133.769 139.026 133.243 138.648 132.578C138.281 131.913 138.098 131.178 138.098 130.373C138.098 129.568 138.281 128.833 138.648 128.168C139.026 127.503 139.548 126.977 140.215 126.591C140.881 126.205 141.632 126.012 142.465 126.012C143.299 126.012 144.049 126.205 144.715 126.591C145.382 126.977 145.899 127.503 146.266 128.168C146.644 128.833 146.833 129.568 146.833 130.373C146.833 131.178 146.644 131.913 146.266 132.578C145.899 133.243 145.382 133.769 144.715 134.155C144.049 134.541 143.299 134.734 142.465 134.734ZM142.465 133.495C142.987 133.495 143.471 133.372 143.915 133.125C144.371 132.867 144.732 132.503 144.999 132.031C145.277 131.559 145.416 131.006 145.416 130.373C145.416 129.74 145.277 129.188 144.999 128.715C144.732 128.243 144.371 127.884 143.915 127.637C143.471 127.38 142.987 127.251 142.465 127.251C141.943 127.251 141.454 127.38 140.998 127.637C140.542 127.884 140.176 128.243 139.898 128.715C139.631 129.188 139.498 129.74 139.498 130.373C139.498 131.006 139.631 131.559 139.898 132.031C140.176 132.503 140.542 132.867 140.998 133.125C141.454 133.372 141.943 133.495 142.465 133.495ZM157.911 134.734C156.755 134.734 155.705 134.471 154.76 133.946C153.816 133.42 153.071 132.701 152.527 131.789C151.993 130.867 151.726 129.842 151.726 128.715C151.726 127.589 151.993 126.57 152.527 125.658C153.071 124.735 153.816 124.011 154.76 123.485C155.705 122.96 156.755 122.697 157.911 122.697C158.8 122.697 159.611 122.863 160.345 123.196C161.089 123.517 161.734 123.979 162.278 124.58L161.262 125.529C160.806 125.003 160.306 124.617 159.761 124.37C159.228 124.124 158.611 124 157.911 124C157.044 124 156.25 124.199 155.527 124.596C154.805 124.982 154.227 125.534 153.794 126.253C153.371 126.961 153.16 127.782 153.16 128.715C153.16 129.649 153.371 130.475 153.794 131.194C154.227 131.902 154.805 132.454 155.527 132.851C156.25 133.238 157.044 133.431 157.911 133.431C159.356 133.431 160.584 132.857 161.595 131.709L162.629 132.674C162.073 133.307 161.389 133.812 160.578 134.187C159.767 134.552 158.878 134.734 157.911 134.734ZM164.219 122.954H165.636V126.35L165.569 127.476H165.636C165.869 127.058 166.236 126.709 166.736 126.43C167.247 126.151 167.803 126.012 168.403 126.012C169.437 126.012 170.226 126.307 170.77 126.897C171.315 127.476 171.587 128.249 171.587 129.214V134.477H170.17V129.424C170.17 128.683 169.976 128.136 169.587 127.782C169.198 127.428 168.692 127.251 168.07 127.251C167.625 127.251 167.214 127.38 166.836 127.637C166.47 127.895 166.175 128.227 165.953 128.635C165.742 129.043 165.636 129.466 165.636 129.906V134.477H164.219V122.954ZM176.264 134.734C175.642 134.734 175.086 134.616 174.597 134.38C174.108 134.144 173.731 133.822 173.464 133.415C173.197 132.996 173.064 132.524 173.064 131.998C173.064 131.129 173.403 130.454 174.081 129.971C174.759 129.477 175.614 129.23 176.648 129.23C177.159 129.23 177.631 129.284 178.065 129.391C178.509 129.499 178.848 129.622 179.082 129.761V129.263C179.082 128.651 178.859 128.163 178.415 127.798C177.97 127.423 177.409 127.235 176.731 127.235C176.253 127.235 175.814 127.337 175.414 127.541C175.014 127.734 174.697 128.007 174.464 128.361L173.397 127.589C173.731 127.095 174.186 126.709 174.764 126.43C175.353 126.151 176.003 126.012 176.714 126.012C177.87 126.012 178.776 126.307 179.432 126.897C180.098 127.476 180.432 128.27 180.432 129.279V134.477H179.082V133.302H179.015C178.77 133.699 178.404 134.037 177.915 134.316C177.426 134.595 176.876 134.734 176.264 134.734ZM176.398 133.527C176.876 133.527 177.32 133.409 177.731 133.173C178.143 132.937 178.47 132.621 178.715 132.224C178.959 131.827 179.082 131.392 179.082 130.92C178.815 130.749 178.487 130.609 178.098 130.502C177.709 130.394 177.298 130.341 176.864 130.341C176.087 130.341 175.498 130.496 175.097 130.808C174.709 131.119 174.514 131.521 174.514 132.015C174.514 132.465 174.692 132.83 175.047 133.109C175.403 133.388 175.853 133.527 176.398 133.527ZM181.307 126.269H182.824L185.458 132.867H185.491L188.158 126.269H189.642L186.175 134.477H184.741L181.307 126.269ZM193.358 134.734C192.735 134.734 192.18 134.616 191.691 134.38C191.202 134.144 190.824 133.822 190.557 133.415C190.291 132.996 190.157 132.524 190.157 131.998C190.157 131.129 190.496 130.454 191.174 129.971C191.852 129.477 192.708 129.23 193.741 129.23C194.252 129.23 194.725 129.284 195.158 129.391C195.603 129.499 195.942 129.622 196.175 129.761V129.263C196.175 128.651 195.953 128.163 195.508 127.798C195.064 127.423 194.502 127.235 193.825 127.235C193.347 127.235 192.908 127.337 192.508 127.541C192.108 127.734 191.791 128.007 191.558 128.361L190.491 127.589C190.824 127.095 191.28 126.709 191.858 126.43C192.447 126.151 193.097 126.012 193.808 126.012C194.964 126.012 195.869 126.307 196.525 126.897C197.192 127.476 197.525 128.27 197.525 129.279V134.477H196.175V133.302H196.108C195.864 133.699 195.497 134.037 195.008 134.316C194.519 134.595 193.969 134.734 193.358 134.734ZM193.491 133.527C193.969 133.527 194.414 133.409 194.825 133.173C195.236 132.937 195.564 132.621 195.808 132.224C196.053 131.827 196.175 131.392 196.175 130.92C195.908 130.749 195.58 130.609 195.192 130.502C194.803 130.394 194.391 130.341 193.958 130.341C193.18 130.341 192.591 130.496 192.191 130.808C191.802 131.119 191.608 131.521 191.608 132.015C191.608 132.465 191.785 132.83 192.141 133.109C192.497 133.388 192.947 133.527 193.491 133.527ZM199.496 126.269H200.847V127.476H200.913C201.147 127.069 201.519 126.725 202.03 126.446C202.541 126.157 203.086 126.012 203.664 126.012C204.686 126.012 205.464 126.302 205.998 126.881C206.542 127.449 206.815 128.227 206.815 129.214V134.477H205.398V129.424C205.398 128.662 205.209 128.109 204.831 127.766C204.453 127.423 203.936 127.251 203.281 127.251C202.825 127.251 202.414 127.374 202.047 127.621C201.691 127.868 201.413 128.195 201.213 128.603C201.013 129 200.913 129.418 200.913 129.858V134.477H199.496V126.269ZM218.274 134.734C217.118 134.734 216.068 134.471 215.123 133.946C214.178 133.42 213.434 132.701 212.889 131.789C212.356 130.867 212.089 129.842 212.089 128.715C212.089 127.589 212.356 126.57 212.889 125.658C213.434 124.735 214.178 124.011 215.123 123.485C216.068 122.96 217.118 122.697 218.274 122.697C219.163 122.697 219.974 122.863 220.707 123.196C221.452 123.517 222.097 123.979 222.641 124.58L221.624 125.529C221.169 125.003 220.668 124.617 220.124 124.37C219.59 124.124 218.974 124 218.274 124C217.407 124 216.612 124.199 215.89 124.596C215.167 124.982 214.59 125.534 214.156 126.253C213.734 126.961 213.523 127.782 213.523 128.715C213.523 129.649 213.734 130.475 214.156 131.194C214.59 131.902 215.167 132.454 215.89 132.851C216.612 133.238 217.407 133.431 218.274 133.431C219.718 133.431 220.946 132.857 221.958 131.709L222.991 132.674C222.435 133.307 221.752 133.812 220.941 134.187C220.129 134.552 219.24 134.734 218.274 134.734ZM228.337 134.734C227.503 134.734 226.753 134.541 226.086 134.155C225.419 133.769 224.897 133.243 224.519 132.578C224.152 131.913 223.969 131.178 223.969 130.373C223.969 129.568 224.152 128.833 224.519 128.168C224.897 127.503 225.419 126.977 226.086 126.591C226.753 126.205 227.503 126.012 228.337 126.012C229.17 126.012 229.92 126.205 230.587 126.591C231.254 126.977 231.771 127.503 232.137 128.168C232.515 128.833 232.704 129.568 232.704 130.373C232.704 131.178 232.515 131.913 232.137 132.578C231.771 133.243 231.254 133.769 230.587 134.155C229.92 134.541 229.17 134.734 228.337 134.734ZM228.337 133.495C228.859 133.495 229.342 133.372 229.787 133.125C230.242 132.867 230.604 132.503 230.87 132.031C231.148 131.559 231.287 131.006 231.287 130.373C231.287 129.74 231.148 129.188 230.87 128.715C230.604 128.243 230.242 127.884 229.787 127.637C229.342 127.38 228.859 127.251 228.337 127.251C227.814 127.251 227.325 127.38 226.87 127.637C226.414 127.884 226.047 128.243 225.769 128.715C225.503 129.188 225.369 129.74 225.369 130.373C225.369 131.006 225.503 131.559 225.769 132.031C226.047 132.503 226.414 132.867 226.87 133.125C227.325 133.372 227.814 133.495 228.337 133.495ZM234.268 122.954H235.685V134.477H234.268V122.954ZM237.784 122.954H239.201V134.477H237.784V122.954ZM245.004 134.734C244.192 134.734 243.464 134.546 242.82 134.171C242.175 133.795 241.67 133.281 241.303 132.626C240.947 131.961 240.769 131.215 240.769 130.389C240.769 129.595 240.936 128.866 241.27 128.2C241.614 127.535 242.097 127.004 242.72 126.607C243.342 126.21 244.065 126.012 244.887 126.012C245.72 126.012 246.443 126.194 247.054 126.559C247.665 126.913 248.132 127.407 248.454 128.04C248.788 128.673 248.954 129.397 248.954 130.212C248.954 130.373 248.938 130.513 248.904 130.631H242.186C242.22 131.253 242.375 131.778 242.653 132.208C242.931 132.637 243.281 132.959 243.703 133.173C244.137 133.388 244.587 133.495 245.054 133.495C246.143 133.495 246.982 133.002 247.571 132.015L248.771 132.578C248.404 133.243 247.904 133.769 247.271 134.155C246.648 134.541 245.893 134.734 245.004 134.734ZM247.454 129.504C247.432 129.161 247.332 128.817 247.154 128.474C246.976 128.131 246.693 127.841 246.304 127.605C245.926 127.369 245.448 127.251 244.87 127.251C244.203 127.251 243.637 127.46 243.17 127.879C242.714 128.286 242.414 128.828 242.27 129.504H247.454ZM254.428 138.21C253.427 138.21 252.599 137.985 251.944 137.534C251.299 137.084 250.866 136.542 250.643 135.909L251.927 135.378C252.116 135.85 252.427 136.231 252.861 136.521C253.305 136.821 253.827 136.971 254.428 136.971C255.305 136.971 255.983 136.724 256.461 136.231C256.95 135.737 257.195 135.04 257.195 134.139V133.222H257.128C256.85 133.64 256.456 133.983 255.944 134.251C255.444 134.509 254.872 134.638 254.228 134.638C253.494 134.638 252.822 134.455 252.21 134.091C251.61 133.726 251.132 133.216 250.777 132.562C250.421 131.907 250.243 131.162 250.243 130.325C250.243 129.499 250.421 128.758 250.777 128.104C251.132 127.439 251.61 126.924 252.21 126.559C252.822 126.194 253.494 126.012 254.228 126.012C254.872 126.012 255.444 126.146 255.944 126.414C256.456 126.672 256.85 127.015 257.128 127.444H257.195V126.269H258.545V134.155C258.545 135.475 258.167 136.478 257.411 137.164C256.656 137.862 255.661 138.21 254.428 138.21ZM254.428 133.399C254.939 133.399 255.4 133.275 255.811 133.028C256.233 132.782 256.567 132.428 256.811 131.966C257.067 131.505 257.195 130.958 257.195 130.325C257.195 129.681 257.067 129.129 256.811 128.667C256.567 128.206 256.233 127.857 255.811 127.621C255.4 127.374 254.939 127.251 254.428 127.251C253.916 127.251 253.45 127.374 253.027 127.621C252.605 127.868 252.266 128.222 252.01 128.683C251.766 129.145 251.644 129.692 251.644 130.325C251.644 130.958 251.766 131.51 252.01 131.982C252.266 132.444 252.605 132.798 253.027 133.044C253.45 133.281 253.916 133.399 254.428 133.399ZM264.343 134.734C263.532 134.734 262.804 134.546 262.16 134.171C261.515 133.795 261.009 133.281 260.643 132.626C260.287 131.961 260.109 131.215 260.109 130.389C260.109 129.595 260.276 128.866 260.609 128.2C260.954 127.535 261.437 127.004 262.059 126.607C262.682 126.21 263.404 126.012 264.227 126.012C265.06 126.012 265.782 126.194 266.394 126.559C267.005 126.913 267.472 127.407 267.794 128.04C268.127 128.673 268.294 129.397 268.294 130.212C268.294 130.373 268.277 130.513 268.244 130.631H261.526C261.559 131.253 261.715 131.778 261.993 132.208C262.271 132.637 262.621 132.959 263.043 133.173C263.476 133.388 263.926 133.495 264.393 133.495C265.482 133.495 266.321 133.002 266.91 132.015L268.111 132.578C267.744 133.243 267.244 133.769 266.61 134.155C265.988 134.541 265.232 134.734 264.343 134.734ZM266.794 129.504C266.771 129.161 266.671 128.817 266.494 128.474C266.316 128.131 266.032 127.841 265.643 127.605C265.266 127.369 264.788 127.251 264.21 127.251C263.543 127.251 262.976 127.46 262.51 127.879C262.054 128.286 261.754 128.828 261.609 129.504H266.794ZM277.744 134.734C276.911 134.734 276.161 134.541 275.494 134.155C274.827 133.769 274.305 133.243 273.927 132.578C273.56 131.913 273.377 131.178 273.377 130.373C273.377 129.568 273.56 128.833 273.927 128.168C274.305 127.503 274.827 126.977 275.494 126.591C276.161 126.205 276.911 126.012 277.744 126.012C278.578 126.012 279.328 126.205 279.995 126.591C280.662 126.977 281.178 127.503 281.545 128.168C281.923 128.833 282.112 129.568 282.112 130.373C282.112 131.178 281.923 131.913 281.545 132.578C281.178 133.243 280.662 133.769 279.995 134.155C279.328 134.541 278.578 134.734 277.744 134.734ZM277.744 133.495C278.267 133.495 278.75 133.372 279.195 133.125C279.65 132.867 280.011 132.503 280.278 132.031C280.556 131.559 280.695 131.006 280.695 130.373C280.695 129.74 280.556 129.188 280.278 128.715C280.011 128.243 279.65 127.884 279.195 127.637C278.75 127.38 278.267 127.251 277.744 127.251C277.222 127.251 276.733 127.38 276.277 127.637C275.822 127.884 275.455 128.243 275.177 128.715C274.91 129.188 274.777 129.74 274.777 130.373C274.777 131.006 274.91 131.559 275.177 132.031C275.455 132.503 275.822 132.867 276.277 133.125C276.733 133.372 277.222 133.495 277.744 133.495ZM284.496 127.508H282.929V126.269H284.496V125.384C284.496 124.869 284.618 124.419 284.862 124.032C285.107 123.646 285.435 123.351 285.846 123.147C286.257 122.933 286.713 122.825 287.213 122.825C287.691 122.825 288.107 122.89 288.463 123.019V124.354C288.263 124.279 288.074 124.22 287.896 124.177C287.718 124.124 287.507 124.097 287.263 124.097C286.896 124.097 286.579 124.225 286.313 124.483C286.046 124.73 285.913 125.078 285.913 125.529V126.269H288.096V127.508H285.913V134.477H284.496V127.508ZM293.986 122.954H300.888V124.258H295.387V128.072H300.354V129.359H295.387V133.173H300.888V134.477H293.986V122.954ZM302.721 126.269H304.072V127.476H304.138C304.372 127.069 304.744 126.725 305.255 126.446C305.766 126.157 306.311 126.012 306.889 126.012C307.911 126.012 308.689 126.302 309.222 126.881C309.767 127.449 310.039 128.227 310.039 129.214V134.477H308.622V129.424C308.622 128.662 308.433 128.109 308.056 127.766C307.678 127.423 307.161 127.251 306.505 127.251C306.05 127.251 305.638 127.374 305.272 127.621C304.916 127.868 304.638 128.195 304.438 128.603C304.238 129 304.138 129.418 304.138 129.858V134.477H302.721V126.269ZM315.718 138.21C314.718 138.21 313.89 137.985 313.234 137.534C312.59 137.084 312.156 136.542 311.934 135.909L313.218 135.378C313.407 135.85 313.718 136.231 314.151 136.521C314.596 136.821 315.118 136.971 315.718 136.971C316.596 136.971 317.274 136.724 317.752 136.231C318.241 135.737 318.485 135.04 318.485 134.139V133.222H318.419C318.141 133.64 317.746 133.983 317.235 134.251C316.735 134.509 316.163 134.638 315.518 134.638C314.785 134.638 314.112 134.455 313.501 134.091C312.901 133.726 312.423 133.216 312.067 132.562C311.712 131.907 311.534 131.162 311.534 130.325C311.534 129.499 311.712 128.758 312.067 128.104C312.423 127.439 312.901 126.924 313.501 126.559C314.112 126.194 314.785 126.012 315.518 126.012C316.163 126.012 316.735 126.146 317.235 126.414C317.746 126.672 318.141 127.015 318.419 127.444H318.485V126.269H319.835V134.155C319.835 135.475 319.458 136.478 318.702 137.164C317.946 137.862 316.952 138.21 315.718 138.21ZM315.718 133.399C316.229 133.399 316.691 133.275 317.102 133.028C317.524 132.782 317.857 132.428 318.102 131.966C318.357 131.505 318.485 130.958 318.485 130.325C318.485 129.681 318.357 129.129 318.102 128.667C317.857 128.206 317.524 127.857 317.102 127.621C316.691 127.374 316.229 127.251 315.718 127.251C315.207 127.251 314.74 127.374 314.318 127.621C313.896 127.868 313.557 128.222 313.301 128.683C313.056 129.145 312.934 129.692 312.934 130.325C312.934 130.958 313.056 131.51 313.301 131.982C313.557 132.444 313.896 132.798 314.318 133.044C314.74 133.281 315.207 133.399 315.718 133.399ZM322.765 124.757C322.487 124.757 322.248 124.66 322.048 124.467C321.848 124.274 321.748 124.043 321.748 123.775C321.748 123.507 321.848 123.281 322.048 123.099C322.248 122.906 322.487 122.809 322.765 122.809C323.043 122.809 323.282 122.906 323.482 123.099C323.682 123.281 323.782 123.507 323.782 123.775C323.782 124.043 323.682 124.274 323.482 124.467C323.293 124.66 323.054 124.757 322.765 124.757ZM322.065 126.269H323.465V134.477H322.065V126.269ZM325.692 126.269H327.042V127.476H327.109C327.342 127.069 327.715 126.725 328.226 126.446C328.737 126.157 329.282 126.012 329.86 126.012C330.882 126.012 331.66 126.302 332.193 126.881C332.738 127.449 333.01 128.227 333.01 129.214V134.477H331.593V129.424C331.593 128.662 331.404 128.109 331.027 127.766C330.649 127.423 330.132 127.251 329.476 127.251C329.021 127.251 328.609 127.374 328.243 127.621C327.887 127.868 327.609 128.195 327.409 128.603C327.209 129 327.109 129.418 327.109 129.858V134.477H325.692V126.269ZM338.82 134.734C338.008 134.734 337.28 134.546 336.636 134.171C335.991 133.795 335.486 133.281 335.119 132.626C334.763 131.961 334.586 131.215 334.586 130.389C334.586 129.595 334.752 128.866 335.086 128.2C335.43 127.535 335.914 127.004 336.536 126.607C337.158 126.21 337.881 126.012 338.703 126.012C339.536 126.012 340.259 126.194 340.87 126.559C341.481 126.913 341.948 127.407 342.27 128.04C342.604 128.673 342.77 129.397 342.77 130.212C342.77 130.373 342.754 130.513 342.72 130.631H336.002C336.036 131.253 336.191 131.778 336.469 132.208C336.747 132.637 337.097 132.959 337.519 133.173C337.953 133.388 338.403 133.495 338.87 133.495C339.959 133.495 340.798 133.002 341.387 132.015L342.587 132.578C342.22 133.243 341.72 133.769 341.087 134.155C340.464 134.541 339.709 134.734 338.82 134.734ZM341.27 129.504C341.248 129.161 341.148 128.817 340.97 128.474C340.792 128.131 340.509 127.841 340.12 127.605C339.742 127.369 339.264 127.251 338.686 127.251C338.019 127.251 337.453 127.46 336.986 127.879C336.53 128.286 336.23 128.828 336.086 129.504H341.27ZM348.294 134.734C347.482 134.734 346.754 134.546 346.11 134.171C345.465 133.795 344.96 133.281 344.593 132.626C344.237 131.961 344.059 131.215 344.059 130.389C344.059 129.595 344.226 128.866 344.56 128.2C344.904 127.535 345.388 127.004 346.01 126.607C346.632 126.21 347.355 126.012 348.177 126.012C349.01 126.012 349.733 126.194 350.344 126.559C350.955 126.913 351.422 127.407 351.744 128.04C352.078 128.673 352.244 129.397 352.244 130.212C352.244 130.373 352.228 130.513 352.194 130.631H345.476C345.51 131.253 345.665 131.778 345.943 132.208C346.221 132.637 346.571 132.959 346.993 133.173C347.427 133.388 347.877 133.495 348.344 133.495C349.433 133.495 350.272 133.002 350.861 132.015L352.061 132.578C351.694 133.243 351.194 133.769 350.561 134.155C349.938 134.541 349.183 134.734 348.294 134.734ZM350.744 129.504C350.722 129.161 350.622 128.817 350.444 128.474C350.266 128.131 349.983 127.841 349.594 127.605C349.216 127.369 348.738 127.251 348.16 127.251C347.493 127.251 346.927 127.46 346.46 127.879C346.004 128.286 345.704 128.828 345.56 129.504H350.744ZM353.903 126.269H355.253V127.589H355.32C355.487 127.138 355.809 126.768 356.287 126.479C356.765 126.178 357.265 126.028 357.787 126.028C358.176 126.028 358.509 126.082 358.787 126.189V127.669C358.432 127.498 358.032 127.412 357.587 127.412C357.176 127.412 356.798 127.525 356.453 127.75C356.109 127.975 355.831 128.281 355.62 128.667C355.42 129.043 355.32 129.45 355.32 129.89V134.477H353.903V126.269ZM360.988 124.757C360.71 124.757 360.471 124.66 360.271 124.467C360.071 124.274 359.971 124.043 359.971 123.775C359.971 123.507 360.071 123.281 360.271 123.099C360.471 122.906 360.71 122.809 360.988 122.809C361.265 122.809 361.504 122.906 361.704 123.099C361.904 123.281 362.004 123.507 362.004 123.775C362.004 124.043 361.904 124.274 361.704 124.467C361.515 124.66 361.277 124.757 360.988 124.757ZM360.287 126.269H361.688V134.477H360.287V126.269ZM363.915 126.269H365.265V127.476H365.332C365.565 127.069 365.937 126.725 366.448 126.446C366.96 126.157 367.504 126.012 368.082 126.012C369.104 126.012 369.882 126.302 370.416 126.881C370.96 127.449 371.233 128.227 371.233 129.214V134.477H369.816V129.424C369.816 128.662 369.627 128.109 369.249 127.766C368.871 127.423 368.354 127.251 367.699 127.251C367.243 127.251 366.832 127.374 366.465 127.621C366.109 127.868 365.832 128.195 365.632 128.603C365.432 129 365.332 129.418 365.332 129.858V134.477H363.915V126.269ZM376.911 138.21C375.911 138.21 375.083 137.985 374.428 137.534C373.783 137.084 373.35 136.542 373.127 135.909L374.411 135.378C374.6 135.85 374.911 136.231 375.344 136.521C375.789 136.821 376.311 136.971 376.911 136.971C377.789 136.971 378.467 136.724 378.945 136.231C379.434 135.737 379.679 135.04 379.679 134.139V133.222H379.612C379.334 133.64 378.94 133.983 378.428 134.251C377.928 134.509 377.356 134.638 376.711 134.638C375.978 134.638 375.306 134.455 374.694 134.091C374.094 133.726 373.616 133.216 373.261 132.562C372.905 131.907 372.727 131.162 372.727 130.325C372.727 129.499 372.905 128.758 373.261 128.104C373.616 127.439 374.094 126.924 374.694 126.559C375.306 126.194 375.978 126.012 376.711 126.012C377.356 126.012 377.928 126.146 378.428 126.414C378.94 126.672 379.334 127.015 379.612 127.444H379.679V126.269H381.029V134.155C381.029 135.475 380.651 136.478 379.895 137.164C379.14 137.862 378.145 138.21 376.911 138.21ZM376.911 133.399C377.423 133.399 377.884 133.275 378.295 133.028C378.717 132.782 379.051 132.428 379.295 131.966C379.551 131.505 379.679 130.958 379.679 130.325C379.679 129.681 379.551 129.129 379.295 128.667C379.051 128.206 378.717 127.857 378.295 127.621C377.884 127.374 377.423 127.251 376.911 127.251C376.4 127.251 375.933 127.374 375.511 127.621C375.089 127.868 374.75 128.222 374.494 128.683C374.25 129.145 374.128 129.692 374.128 130.325C374.128 130.958 374.25 131.51 374.494 131.982C374.75 132.444 375.089 132.798 375.511 133.044C375.933 133.281 376.4 133.399 376.911 133.399Z" fill="#242424"/>
<defs>
<linearGradient id="paint0_linear_703_2373" x1="425.331" y1="131.344" x2="8.80862" y2="131.344" gradientUnits="userSpaceOnUse">
<stop stop-color="#348BCA"/>
<stop offset="0.404875" stop-color="#59A43A"/>
<stop offset="0.711571" stop-color="#F3B002"/>
<stop offset="1" stop-color="#DF572E"/>
</linearGradient>
</defs>
</svg>
