<svg width="429" height="168" viewBox="0 0 429 168" fill="none" xmlns="http://www.w3.org/2000/svg">
<path d="M417.355 1.99976H11.724C6.3536 1.99976 2 6.20273 2 11.3874V156.225C2 161.409 6.3536 165.612 11.724 165.612H417.355C422.725 165.612 427.079 161.409 427.079 156.225V11.3874C427.079 6.20273 422.725 1.99976 417.355 1.99976Z" fill="#EFEFEF" stroke="url(#paint0_linear_703_2366)" stroke-width="3.2"/>
<path d="M53.2326 104.111C51.6922 104.111 50.2728 103.753 48.9741 103.04C47.6754 102.325 46.641 101.349 45.8709 100.11C45.1159 98.8557 44.7383 97.4636 44.7383 95.9321C44.7383 94.4019 45.1159 93.0166 45.8709 91.7774C46.641 90.5235 47.6754 89.5391 48.9741 88.8257C50.2728 88.1109 51.6922 87.7542 53.2326 87.7542C54.4558 87.7542 55.5959 87.9647 56.653 88.3871C57.71 88.8109 58.5935 89.401 59.3032 90.1587L57.5364 91.8646C57.0078 91.296 56.3736 90.8588 55.6336 90.553C54.9088 90.2472 54.1009 90.093 53.21 90.093C52.168 90.093 51.1939 90.3344 50.2879 90.8145C49.3818 91.296 48.6569 91.9813 48.1134 92.8704C47.5698 93.7595 47.2979 94.7801 47.2979 95.9321C47.2979 97.0841 47.5698 98.1046 48.1134 98.9938C48.6569 99.8829 49.3818 100.568 50.2879 101.05C51.1939 101.53 52.1755 101.771 53.2326 101.771C54.1991 101.771 55.007 101.633 55.6563 101.355C56.3056 101.078 56.8871 100.706 57.4005 100.24C57.7326 99.9191 58.012 99.5182 58.2386 99.038C58.4801 98.5566 58.6388 98.0309 58.7142 97.4636H53.21V95.2763H61.1154C61.1908 95.684 61.2286 96.1078 61.2286 96.545C61.2286 97.536 61.0699 98.4909 60.7529 99.4095C60.4358 100.313 59.9299 101.101 59.2353 101.771C57.71 103.331 55.7092 104.111 53.2326 104.111ZM69.0525 104.111C67.8898 104.111 66.8478 103.855 65.9267 103.346C65.0054 102.82 64.2882 102.106 63.7747 101.203C63.2613 100.299 63.0046 99.2928 63.0046 98.1851C63.0046 97.076 63.2613 96.0702 63.7747 95.1663C64.2882 94.2624 65.0054 93.5557 65.9267 93.0461C66.8478 92.5204 67.8898 92.2588 69.0525 92.2588C70.2152 92.2588 71.2572 92.5204 72.1784 93.0461C73.0995 93.5704 73.8169 94.2852 74.3303 95.1891C74.8437 96.093 75.1005 97.0908 75.1005 98.1851C75.1005 99.2928 74.8437 100.299 74.3303 101.203C73.8169 102.106 73.0995 102.82 72.1784 103.346C71.2572 103.855 70.2152 104.111 69.0525 104.111ZM69.0525 101.903C69.6868 101.903 70.2757 101.756 70.8194 101.465C71.363 101.158 71.7933 100.729 72.1105 100.174C72.4427 99.6053 72.6087 98.9428 72.6087 98.1851C72.6087 97.4261 72.4427 96.7703 72.1105 96.2164C71.7933 95.6625 71.363 95.2401 70.8194 94.9477C70.2757 94.642 69.6868 94.4891 69.0525 94.4891C68.4182 94.4891 67.8294 94.642 67.2857 94.9477C66.7421 95.2401 66.3041 95.6625 65.972 96.2164C65.6548 96.7703 65.4962 97.4261 65.4962 98.1851C65.4962 98.9428 65.6548 99.6053 65.972 100.174C66.3041 100.729 66.7421 101.158 67.2857 101.465C67.8294 101.756 68.4182 101.903 69.0525 101.903ZM82.8115 104.111C81.6488 104.111 80.6068 103.855 79.6856 103.346C78.7645 102.82 78.0471 102.106 77.5337 101.203C77.0203 100.299 76.7635 99.2928 76.7635 98.1851C76.7635 97.076 77.0203 96.0702 77.5337 95.1663C78.0471 94.2624 78.7645 93.5557 79.6856 93.0461C80.6068 92.5204 81.6488 92.2588 82.8115 92.2588C83.9743 92.2588 85.0163 92.5204 85.9375 93.0461C86.8586 93.5704 87.5758 94.2852 88.0893 95.1891C88.6027 96.093 88.8594 97.0908 88.8594 98.1851C88.8594 99.2928 88.6027 100.299 88.0893 101.203C87.5758 102.106 86.8586 102.82 85.9375 103.346C85.0163 103.855 83.9743 104.111 82.8115 104.111ZM82.8115 101.903C83.4458 101.903 84.0348 101.756 84.5783 101.465C85.1219 101.158 85.5524 100.729 85.8694 100.174C86.2017 99.6053 86.3678 98.9428 86.3678 98.1851C86.3678 97.4261 86.2017 96.7703 85.8694 96.2164C85.5524 95.6625 85.1219 95.2401 84.5783 94.9477C84.0348 94.642 83.4458 94.4891 82.8115 94.4891C82.1773 94.4891 81.5883 94.642 81.0448 94.9477C80.501 95.2401 80.0632 95.6625 79.7309 96.2164C79.4138 96.7703 79.2553 97.4261 79.2553 98.1851C79.2553 98.9428 79.4138 99.6053 79.7309 100.174C80.0632 100.729 80.501 101.158 81.0448 101.465C81.5883 101.756 82.1773 101.903 82.8115 101.903ZM96.3666 108.835C94.9472 108.835 93.7693 108.521 92.8331 107.893C91.9119 107.267 91.2928 106.524 90.9756 105.663L93.3087 104.723C93.5503 105.306 93.9353 105.773 94.4639 106.123C95.0076 106.486 95.6418 106.669 96.3666 106.669C97.4238 106.669 98.2467 106.363 98.8357 105.75C99.4397 105.153 99.7417 104.307 99.7417 103.214V102.187H99.6059C99.2283 102.711 98.7223 103.127 98.0882 103.433C97.4691 103.724 96.7517 103.87 95.9363 103.87C94.9698 103.87 94.0713 103.63 93.2408 103.148C92.4102 102.667 91.7458 101.99 91.2475 101.115C90.7642 100.225 90.5226 99.2124 90.5226 98.0751C90.5226 96.9379 90.7642 95.9321 91.2475 95.0577C91.7458 94.1686 92.4102 93.4833 93.2408 93.0018C94.0713 92.5056 94.9698 92.2588 95.9363 92.2588C96.7366 92.2588 97.4539 92.4117 98.0882 92.7175C98.7223 93.0233 99.2283 93.439 99.6059 93.9647H99.7417V92.6089H102.12V103.148C102.12 104.358 101.878 105.387 101.395 106.232C100.912 107.093 100.232 107.74 99.3566 108.178C98.4959 108.616 97.4992 108.835 96.3666 108.835ZM96.3893 101.684C96.9934 101.684 97.5521 101.545 98.0656 101.268C98.579 100.976 98.9867 100.562 99.2887 100.021C99.5907 99.4672 99.7417 98.8181 99.7417 98.0751C99.7417 96.9379 99.4171 96.0555 98.7678 95.4292C98.1335 94.7882 97.3407 94.4676 96.3893 94.4676C95.7701 94.4676 95.2039 94.6125 94.6905 94.9048C94.1771 95.1811 93.7693 95.5901 93.4672 96.1292C93.1652 96.6683 93.0142 97.3174 93.0142 98.0751C93.0142 98.8329 93.1652 99.4819 93.4672 100.021C93.7693 100.562 94.1771 100.976 94.6905 101.268C95.2039 101.545 95.7701 101.684 96.3893 101.684ZM105.049 88.1042H107.54V103.761H105.049V88.1042ZM115.635 104.111C114.503 104.111 113.483 103.855 112.577 103.346C111.686 102.835 110.984 102.136 110.471 101.245C109.972 100.342 109.723 99.3291 109.723 98.2066C109.723 97.1418 109.965 96.1587 110.448 95.2548C110.946 94.3362 111.633 93.6067 112.509 93.0675C113.385 92.5284 114.382 92.2588 115.499 92.2588C116.662 92.2588 117.666 92.5056 118.512 93.0018C119.373 93.498 120.022 94.1753 120.46 95.0362C120.913 95.8959 121.14 96.8655 121.14 97.9437C121.14 98.1476 121.117 98.4037 121.072 98.7095H112.215C112.306 99.7448 112.683 100.547 113.347 101.115C114.027 101.669 114.812 101.946 115.703 101.946C116.413 101.946 117.025 101.793 117.538 101.487C118.067 101.166 118.489 100.736 118.807 100.197L120.913 101.158C120.369 102.077 119.66 102.798 118.784 103.324C117.908 103.849 116.858 104.111 115.635 104.111ZM118.603 96.8722C118.572 96.4792 118.444 96.093 118.218 95.7135C117.991 95.3205 117.644 94.992 117.176 94.7291C116.723 94.4676 116.164 94.3362 115.499 94.3362C114.699 94.3362 114.019 94.5695 113.461 95.0362C112.917 95.4882 112.54 96.0997 112.328 96.8722H118.603ZM129.125 88.1042H134.312C135.989 88.1042 137.453 88.4314 138.707 89.0872C139.96 89.743 140.92 90.6697 141.584 91.8646C142.263 93.0461 142.603 94.4019 142.603 95.9321C142.603 97.4636 142.263 98.8262 141.584 100.021C140.92 101.203 139.96 102.121 138.707 102.777C137.453 103.433 135.989 103.761 134.312 103.761H129.125V88.1042ZM134.267 101.421C136.079 101.421 137.491 100.94 138.503 99.9781C139.53 99.0005 140.043 97.6527 140.043 95.9321C140.043 94.2262 139.53 92.8852 138.503 91.9088C137.491 90.9312 136.079 90.443 134.267 90.443H131.662V101.421H134.267ZM150.032 104.111C148.9 104.111 147.881 103.855 146.975 103.346C146.084 102.835 145.382 102.136 144.868 101.245C144.37 100.342 144.12 99.3291 144.12 98.2066C144.12 97.1418 144.362 96.1587 144.845 95.2548C145.344 94.3362 146.032 93.6067 146.907 93.0675C147.783 92.5284 148.779 92.2588 149.896 92.2588C151.059 92.2588 152.063 92.5056 152.909 93.0018C153.771 93.498 154.419 94.1753 154.857 95.0362C155.311 95.8959 155.538 96.8655 155.538 97.9437C155.538 98.1476 155.514 98.4037 155.47 98.7095H146.612C146.703 99.7448 147.081 100.547 147.745 101.115C148.425 101.669 149.21 101.946 150.101 101.946C150.81 101.946 151.422 101.793 151.936 101.487C152.463 101.166 152.887 100.736 153.204 100.197L155.311 101.158C154.767 102.077 154.057 102.798 153.182 103.324C152.305 103.849 151.256 104.111 150.032 104.111ZM153 96.8722C152.97 96.4792 152.841 96.093 152.615 95.7135C152.388 95.3205 152.041 94.992 151.573 94.7291C151.12 94.4676 150.562 94.3362 149.896 94.3362C149.096 94.3362 148.417 94.5695 147.858 95.0362C147.315 95.4882 146.937 96.0997 146.726 96.8722H153ZM156.293 92.6089H159.08L162.274 100.655H162.364L165.626 92.6089H168.344L163.542 103.761H161.051L156.293 92.6089ZM174.897 104.111C173.763 104.111 172.745 103.855 171.838 103.346C170.947 102.835 170.245 102.136 169.732 101.245C169.233 100.342 168.985 99.3291 168.985 98.2066C168.985 97.1418 169.226 96.1587 169.71 95.2548C170.207 94.3362 170.895 93.6067 171.77 93.0675C172.646 92.5284 173.642 92.2588 174.761 92.2588C175.923 92.2588 176.928 92.5056 177.774 93.0018C178.634 93.498 179.284 94.1753 179.721 95.0362C180.174 95.8959 180.401 96.8655 180.401 97.9437C180.401 98.1476 180.378 98.4037 180.333 98.7095H171.475C171.567 99.7448 171.943 100.547 172.609 101.115C173.288 101.669 174.073 101.946 174.965 101.946C175.673 101.946 176.286 101.793 176.799 101.487C177.328 101.166 177.75 100.736 178.068 100.197L180.174 101.158C179.631 102.077 178.921 102.798 178.045 103.324C177.169 103.849 176.119 104.111 174.897 104.111ZM177.864 96.8722C177.833 96.4792 177.706 96.093 177.479 95.7135C177.251 95.3205 176.904 94.992 176.436 94.7291C175.983 94.4676 175.425 94.3362 174.761 94.3362C173.961 94.3362 173.28 94.5695 172.721 95.0362C172.178 95.4882 171.8 96.0997 171.589 96.8722H177.864ZM182.669 88.1042H185.161V103.761H182.669V88.1042ZM193.392 104.111C192.229 104.111 191.187 103.855 190.266 103.346C189.345 102.82 188.629 102.106 188.115 101.203C187.601 100.299 187.345 99.2928 187.345 98.1851C187.345 97.076 187.601 96.0702 188.115 95.1663C188.629 94.2624 189.345 93.5557 190.266 93.0461C191.187 92.5204 192.229 92.2588 193.392 92.2588C194.555 92.2588 195.596 92.5204 196.519 93.0461C197.44 93.5704 198.157 94.2852 198.671 95.1891C199.183 96.093 199.44 97.0908 199.44 98.1851C199.44 99.2928 199.183 100.299 198.671 101.203C198.157 102.106 197.44 102.82 196.519 103.346C195.596 103.855 194.555 104.111 193.392 104.111ZM193.392 101.903C194.027 101.903 194.616 101.756 195.159 101.465C195.703 101.158 196.133 100.729 196.451 100.174C196.783 99.6053 196.948 98.9428 196.948 98.1851C196.948 97.4261 196.783 96.7703 196.451 96.2164C196.133 95.6625 195.703 95.2401 195.159 94.9477C194.616 94.642 194.027 94.4891 193.392 94.4891C192.758 94.4891 192.169 94.642 191.625 94.9477C191.082 95.2401 190.644 95.6625 190.312 96.2164C189.994 96.7703 189.836 97.4261 189.836 98.1851C189.836 98.9428 189.994 99.6053 190.312 100.174C190.644 100.729 191.082 101.158 191.625 101.465C192.169 101.756 192.758 101.903 193.392 101.903ZM201.536 92.6089H203.915V94.0734H204.029C204.361 93.5637 204.851 93.1332 205.501 92.7832C206.15 92.4332 206.882 92.2588 207.697 92.2588C208.739 92.2588 209.684 92.5137 210.528 93.0233C211.374 93.5342 212.04 94.241 212.522 95.1449C213.021 96.034 213.269 97.0479 213.269 98.1851C213.269 99.3224 213.021 100.342 212.522 101.245C212.04 102.136 211.374 102.835 210.528 103.346C209.684 103.855 208.739 104.111 207.697 104.111C206.882 104.111 206.15 103.936 205.501 103.586C204.851 103.236 204.361 102.813 204.029 102.317H203.915L204.029 103.87V108.485H201.536V92.6089ZM207.335 101.903C207.939 101.903 208.506 101.748 209.034 101.443C209.563 101.137 209.985 100.7 210.302 100.131C210.62 99.5624 210.778 98.9133 210.778 98.1851C210.778 97.4556 210.62 96.8145 210.302 96.2607C209.985 95.692 209.563 95.2548 209.034 94.9477C208.506 94.642 207.939 94.4891 207.335 94.4891C206.73 94.4891 206.165 94.642 205.636 94.9477C205.123 95.2548 204.708 95.692 204.391 96.2607C204.073 96.8145 203.915 97.4556 203.915 98.1851C203.915 98.9133 204.073 99.5624 204.391 100.131C204.708 100.7 205.123 101.137 205.636 101.443C206.165 101.748 206.73 101.903 207.335 101.903ZM220.819 104.111C219.686 104.111 218.667 103.855 217.76 103.346C216.87 102.835 216.167 102.136 215.654 101.245C215.156 100.342 214.907 99.3291 214.907 98.2066C214.907 97.1418 215.149 96.1587 215.632 95.2548C216.129 94.3362 216.817 93.6067 217.692 93.0675C218.569 92.5284 219.565 92.2588 220.683 92.2588C221.846 92.2588 222.85 92.5056 223.695 93.0018C224.556 93.498 225.206 94.1753 225.644 95.0362C226.097 95.8959 226.323 96.8655 226.323 97.9437C226.323 98.1476 226.301 98.4037 226.255 98.7095H217.398C217.489 99.7448 217.866 100.547 218.531 101.115C219.211 101.669 219.995 101.946 220.887 101.946C221.596 101.946 222.208 101.793 222.721 101.487C223.25 101.166 223.673 100.736 223.989 100.197L226.097 101.158C225.553 102.077 224.844 102.798 223.967 103.324C223.092 103.849 222.042 104.111 220.819 104.111ZM223.786 96.8722C223.756 96.4792 223.628 96.093 223.4 95.7135C223.174 95.3205 222.827 94.992 222.358 94.7291C221.906 94.4676 221.347 94.3362 220.683 94.3362C219.883 94.3362 219.202 94.5695 218.644 95.0362C218.101 95.4882 217.723 96.0997 217.512 96.8722H223.786ZM228.592 92.6089H230.97V94.249H231.084C231.341 93.6804 231.787 93.2137 232.42 92.8489C233.055 92.4694 233.726 92.2803 234.436 92.2803C234.995 92.2803 235.464 92.3527 235.84 92.4989V94.992C235.176 94.7586 234.58 94.642 234.051 94.642C233.477 94.642 232.963 94.7881 232.51 95.0792C232.073 95.3715 231.725 95.7645 231.468 96.2607C231.211 96.7408 231.084 97.2732 231.084 97.8566V103.761H228.592V92.6089ZM247.47 104.111C246.125 104.111 244.918 103.732 243.846 102.974C242.773 102.215 242.033 101.152 241.626 99.781L244.026 98.8409C244.268 99.7005 244.692 100.407 245.295 100.961C245.914 101.502 246.655 101.771 247.514 101.771C248.316 101.771 248.995 101.574 249.554 101.181C250.112 100.772 250.391 100.218 250.391 99.5182C250.391 98.8771 250.143 98.3528 249.644 97.9437C249.161 97.5213 248.308 97.0988 247.085 96.675L246.066 96.3264C244.978 95.9616 244.064 95.4359 243.325 94.7519C242.584 94.0666 242.215 93.1627 242.215 92.0403C242.215 91.2665 242.433 90.553 242.872 89.8972C243.31 89.2401 243.914 88.7238 244.683 88.3442C245.468 87.95 246.352 87.7542 247.334 87.7542C248.754 87.7542 249.886 88.0894 250.732 88.76C251.578 89.4158 252.143 90.1587 252.431 90.9902L250.143 91.9303C249.976 91.4341 249.659 90.9969 249.191 90.6187C248.723 90.2392 248.119 90.0501 247.38 90.0501C246.639 90.0501 246.013 90.2325 245.499 90.5959C245 90.9607 244.751 91.4274 244.751 91.996C244.751 92.5351 244.978 92.9804 245.431 93.3304C245.884 93.6804 246.593 94.0157 247.56 94.3362L248.58 94.6634C249.969 95.1301 251.042 95.743 251.796 96.5007C252.567 97.2437 252.952 98.2428 252.952 99.4967C252.952 100.517 252.679 101.377 252.136 102.077C251.592 102.762 250.897 103.272 250.052 103.607C249.222 103.944 248.36 104.111 247.47 104.111ZM259.606 103.936C259.092 103.936 258.608 103.855 258.155 103.696C257.702 103.535 257.333 103.324 257.045 103.061C256.397 102.434 256.072 101.581 256.072 100.503V94.7291H254.056V92.6089H256.072V89.4587H258.564V92.6089H261.373V94.7291H258.564V99.9781C258.564 100.575 258.685 100.999 258.926 101.245C259.153 101.538 259.544 101.684 260.104 101.684C260.36 101.684 260.586 101.654 260.784 101.595C260.979 101.523 261.191 101.413 261.417 101.268V103.607C260.92 103.827 260.315 103.936 259.606 103.936ZM267.954 104.111C266.55 104.111 265.479 103.71 264.739 102.908C264.013 102.092 263.651 100.961 263.651 99.5182V92.6089H266.143V99.1909C266.143 100.095 266.361 100.772 266.8 101.224C267.253 101.676 267.842 101.903 268.567 101.903C269.156 101.903 269.677 101.756 270.13 101.465C270.583 101.158 270.93 100.757 271.172 100.262C271.413 99.7662 271.534 99.2338 271.534 98.6652V92.6089H274.025V103.761H271.669V102.317H271.534C271.216 102.843 270.726 103.272 270.062 103.607C269.396 103.944 268.695 104.111 267.954 104.111ZM281.753 104.111C280.711 104.111 279.768 103.855 278.922 103.346C278.076 102.835 277.403 102.136 276.906 101.245C276.423 100.342 276.181 99.3224 276.181 98.1851C276.181 97.0479 276.423 96.034 276.906 95.1449C277.403 94.241 278.076 93.5342 278.922 93.0233C279.768 92.5137 280.711 92.2588 281.753 92.2588C282.568 92.2588 283.3 92.4332 283.95 92.7832C284.599 93.1332 285.091 93.5637 285.423 94.0734H285.535L285.423 92.4989V88.1042H287.914V103.761H285.535V102.317H285.423C285.091 102.813 284.599 103.236 283.95 103.586C283.3 103.936 282.568 104.111 281.753 104.111ZM282.115 101.903C282.72 101.903 283.278 101.748 283.792 101.443C284.32 101.137 284.742 100.7 285.06 100.131C285.377 99.5624 285.535 98.9133 285.535 98.1851C285.535 97.4556 285.377 96.8145 285.06 96.2607C284.742 95.692 284.32 95.2548 283.792 94.9477C283.278 94.642 282.72 94.4891 282.115 94.4891C281.511 94.4891 280.946 94.642 280.416 94.9477C279.889 95.2548 279.465 95.692 279.148 96.2607C278.831 96.8145 278.672 97.4556 278.672 98.1851C278.672 98.9133 278.831 99.5624 279.148 100.131C279.465 100.7 279.889 101.137 280.416 101.443C280.946 101.748 281.511 101.903 282.115 101.903ZM295.985 104.111C294.852 104.111 293.833 103.855 292.927 103.346C292.035 102.835 291.334 102.136 290.82 101.245C290.321 100.342 290.072 99.3291 290.072 98.2066C290.072 97.1418 290.314 96.1587 290.798 95.2548C291.296 94.3362 291.982 93.6067 292.859 93.0675C293.734 92.5284 294.732 92.2588 295.848 92.2588C297.011 92.2588 298.016 92.5056 298.862 93.0018C299.721 93.498 300.372 94.1753 300.809 95.0362C301.262 95.8959 301.488 96.8655 301.488 97.9437C301.488 98.1476 301.466 98.4037 301.42 98.7095H292.565C292.655 99.7448 293.033 100.547 293.697 101.115C294.376 101.669 295.161 101.946 296.053 101.946C296.763 101.946 297.374 101.793 297.888 101.487C298.416 101.166 298.838 100.736 299.156 100.197L301.262 101.158C300.719 102.077 300.009 102.798 299.132 103.324C298.257 103.849 297.207 104.111 295.985 104.111ZM298.952 96.8722C298.921 96.4792 298.793 96.093 298.567 95.7135C298.341 95.3205 297.993 94.992 297.525 94.7291C297.072 94.4676 296.512 94.3362 295.848 94.3362C295.048 94.3362 294.369 94.5695 293.809 95.0362C293.266 95.4882 292.888 96.0997 292.677 96.8722H298.952ZM303.758 92.6089H306.136V94.0734H306.249C306.581 93.549 307.073 93.1185 307.722 92.7832C308.386 92.4332 309.088 92.2588 309.829 92.2588C311.233 92.2588 312.297 92.6598 313.022 93.4605C313.762 94.249 314.132 95.3273 314.132 96.6979V103.761H311.64V97.0251C311.64 96.1507 311.414 95.5096 310.961 95.1006C310.523 94.6929 309.911 94.4891 309.126 94.4891C308.567 94.4891 308.069 94.642 307.631 94.9477C307.194 95.2401 306.853 95.633 306.612 96.1292C306.37 96.6241 306.249 97.1565 306.249 97.7251V103.761H303.758V92.6089ZM321.1 103.936C320.588 103.936 320.104 103.855 319.651 103.696C319.197 103.535 318.828 103.324 318.542 103.061C317.891 102.434 317.566 101.581 317.566 100.503V94.7291H315.551V92.6089H317.566V89.4587H320.059V92.6089H322.867V94.7291H320.059V99.9781C320.059 100.575 320.179 100.999 320.421 101.245C320.648 101.538 321.041 101.684 321.599 101.684C321.856 101.684 322.083 101.654 322.278 101.595C322.474 101.523 322.687 101.413 322.913 101.268V103.607C322.415 103.827 321.81 103.936 321.1 103.936ZM338.167 104.111C336.596 104.111 335.163 103.753 333.864 103.04C332.565 102.325 331.545 101.341 330.805 100.087C330.066 98.8329 329.695 97.4489 329.695 95.9321C329.695 94.4167 330.066 93.0313 330.805 91.7774C331.545 90.5235 332.565 89.5391 333.864 88.8257C335.163 88.1109 336.596 87.7542 338.167 87.7542C339.39 87.7542 340.5 87.9727 341.497 88.4099C342.509 88.8471 343.4 89.4815 344.17 90.3116L342.358 91.996C341.799 91.355 341.18 90.8802 340.5 90.5744C339.821 90.2539 339.043 90.093 338.167 90.093C337.08 90.093 336.084 90.3344 335.177 90.8145C334.286 91.296 333.576 91.9813 333.048 92.8704C332.519 93.7448 332.255 94.7654 332.255 95.9321C332.255 97.0988 332.519 98.1261 333.048 99.0152C333.576 99.8896 334.286 100.568 335.177 101.05C336.084 101.53 337.08 101.771 338.167 101.771C339.979 101.771 341.519 101.042 342.788 99.5839L344.623 101.29C343.838 102.179 342.893 102.872 341.792 103.367C340.689 103.863 339.482 104.111 338.167 104.111ZM346.826 88.1042H349.318V103.761H346.826V88.1042ZM356.46 104.111C355.055 104.111 353.983 103.71 353.242 102.908C352.517 102.092 352.156 100.961 352.156 99.5182V92.6089H354.647V99.1909C354.647 100.095 354.866 100.772 355.304 101.224C355.757 101.676 356.346 101.903 357.071 101.903C357.66 101.903 358.181 101.756 358.634 101.465C359.087 101.158 359.434 100.757 359.676 100.262C359.917 99.7662 360.038 99.2338 360.038 98.6652V92.6089H362.53V103.761H360.174V102.317H360.038C359.721 102.843 359.23 103.272 358.566 103.607C357.902 103.944 357.199 104.111 356.46 104.111ZM371.592 104.111C370.776 104.111 370.043 103.936 369.394 103.586C368.744 103.236 368.254 102.813 367.922 102.317H367.808V103.761H365.429V88.1042H367.922V92.4989L367.808 94.0734H367.922C368.254 93.5637 368.744 93.1332 369.394 92.7832C370.043 92.4332 370.776 92.2588 371.592 92.2588C372.634 92.2588 373.577 92.5137 374.423 93.0233C375.269 93.5342 375.933 94.241 376.416 95.1449C376.914 96.034 377.164 97.0479 377.164 98.1851C377.164 99.3224 376.914 100.342 376.416 101.245C375.933 102.136 375.269 102.835 374.423 103.346C373.577 103.855 372.634 104.111 371.592 104.111ZM371.229 101.903C371.833 101.903 372.399 101.748 372.928 101.443C373.456 101.137 373.878 100.7 374.196 100.131C374.513 99.5624 374.671 98.9133 374.671 98.1851C374.671 97.4556 374.513 96.8145 374.196 96.2607C373.878 95.692 373.456 95.2548 372.928 94.9477C372.399 94.642 371.833 94.4891 371.229 94.4891C370.625 94.4891 370.058 94.642 369.53 94.9477C369.016 95.2548 368.601 95.692 368.284 96.2607C367.967 96.8145 367.808 97.4556 367.808 98.1851C367.808 98.9133 367.967 99.5624 368.284 100.131C368.601 100.7 369.016 101.137 369.53 101.443C370.058 101.748 370.625 101.903 371.229 101.903ZM383.534 104.111C382.206 104.111 381.118 103.834 380.272 103.28C379.428 102.711 378.831 101.99 378.483 101.115L380.703 100.174C380.975 100.757 381.353 101.203 381.835 101.508C382.334 101.814 382.901 101.968 383.534 101.968C384.154 101.968 384.675 101.865 385.098 101.661C385.521 101.443 385.732 101.122 385.732 100.7C385.732 100.291 385.551 99.9701 385.189 99.7367C384.826 99.5034 384.268 99.2996 383.512 99.1252L382.13 98.7966C381.209 98.578 380.446 98.1918 379.843 97.6379C379.239 97.0841 378.936 96.384 378.936 95.5391C378.936 94.882 379.133 94.3067 379.525 93.8105C379.934 93.3156 380.477 92.9361 381.156 92.6732C381.835 92.397 382.576 92.2588 383.376 92.2588C384.448 92.2588 385.393 92.4694 386.208 92.8932C387.024 93.3009 387.613 93.899 387.974 94.6862L385.8 95.6035C385.362 94.7439 384.562 94.3134 383.399 94.3134C382.84 94.3134 382.372 94.4234 381.995 94.642C381.617 94.8606 381.428 95.1449 381.428 95.4949C381.428 95.8302 381.571 96.1078 381.859 96.3264C382.145 96.5302 382.569 96.7046 383.127 96.8507L384.826 97.2665C385.958 97.5427 386.811 97.9665 387.385 98.5338C387.974 99.089 388.268 99.7743 388.268 100.59C388.268 101.29 388.057 101.909 387.635 102.448C387.227 102.974 386.661 103.382 385.936 103.673C385.211 103.965 384.411 104.111 383.534 104.111Z" fill="#242424"/>
<path d="M223.18 53.6169L241.818 43.2286C244.416 41.7807 247.737 42.6399 249.237 45.1476C250.737 47.6553 249.847 50.8619 247.249 52.3097L228.611 62.6981C226.014 64.1459 222.692 63.2867 221.192 60.779C219.693 58.2713 220.583 55.0647 223.18 53.6169Z" fill="#FBBC04"/>
<path d="M209.947 41.8648L191.309 52.2531C188.711 53.7009 185.39 52.8417 183.89 50.3341C182.39 47.8264 183.28 44.6198 185.878 43.172L204.516 32.7836C207.113 31.3358 210.435 32.195 211.935 34.7027C213.434 37.2104 212.544 40.417 209.947 41.8648Z" fill="#EA4335"/>
<path d="M209.488 53.6156L190.85 43.2272C188.252 41.7794 184.931 42.6386 183.431 45.1463C181.931 47.654 182.821 50.8606 185.419 52.3084L204.057 62.6967C206.654 64.1445 209.976 63.2853 211.476 60.7776C212.975 58.2699 212.085 55.0634 209.488 53.6156Z" fill="#4285F4"/>
<path d="M222.864 41.6884L242.135 52.4295C244.557 53.7799 247.655 52.9785 249.054 50.6396L249.42 50.0286C250.818 47.6896 249.988 44.6988 247.566 43.3484L228.295 32.6072C225.872 31.2568 222.774 32.0582 221.375 34.3972L221.01 35.0082C219.611 37.3472 220.441 40.338 222.864 41.6884Z" fill="#0F9D58"/>
<path d="M35.9123 131.776C35.1344 131.776 34.4213 131.548 33.773 131.092C33.1247 130.637 32.6802 129.998 32.4395 129.175L33.5647 128.732C33.7221 129.305 34.0138 129.774 34.4398 130.14C34.8659 130.508 35.366 130.69 35.9401 130.69C36.5142 130.69 37.0004 130.543 37.3987 130.248C37.797 129.945 37.996 129.533 37.996 129.014C37.996 128.567 37.8248 128.201 37.4821 127.914C37.1487 127.619 36.5976 127.347 35.829 127.096L35.2039 126.881C34.5 126.64 33.9258 126.324 33.4813 125.929C33.0368 125.536 32.8145 124.991 32.8145 124.293C32.8145 123.837 32.9441 123.417 33.2035 123.033C33.4628 122.64 33.824 122.327 34.287 122.094C34.75 121.862 35.2687 121.745 35.8429 121.745C36.417 121.745 36.9171 121.848 37.3431 122.054C37.7692 122.26 38.1072 122.51 38.3572 122.805C38.6166 123.1 38.7972 123.391 38.899 123.676L37.7877 124.132C37.695 123.802 37.4821 123.502 37.1487 123.234C36.8246 122.966 36.3939 122.831 35.8568 122.831C35.3474 122.831 34.9121 122.971 34.551 123.247C34.1898 123.525 34.0092 123.873 34.0092 124.293C34.0092 124.669 34.162 124.977 34.4676 125.219C34.7732 125.452 35.2362 125.67 35.8568 125.876L36.5097 126.09C37.3525 126.385 38.0099 126.757 38.4822 127.203C38.9546 127.642 39.1907 128.241 39.1907 129C39.1907 129.617 39.024 130.136 38.6906 130.556C38.3665 130.977 37.9544 131.286 37.4543 131.481C36.9542 131.679 36.4402 131.776 35.9123 131.776ZM40.6847 121.96H41.8655V124.789L41.8099 125.728H41.8655C42.06 125.379 42.3656 125.09 42.7823 124.856C43.2083 124.624 43.6714 124.508 44.1715 124.508C45.0328 124.508 45.6903 124.755 46.1441 125.245C46.5978 125.728 46.8248 126.372 46.8248 127.177V131.562H45.644V127.351C45.644 126.734 45.4819 126.278 45.1578 125.983C44.8336 125.688 44.4122 125.54 43.8937 125.54C43.5232 125.54 43.1805 125.648 42.8657 125.862C42.5601 126.077 42.3146 126.354 42.1295 126.694C41.9534 127.034 41.8655 127.387 41.8655 127.753V131.562H40.6847V121.96ZM48.5258 124.722H49.651V125.822H49.7066C49.8455 125.447 50.114 125.138 50.5123 124.897C50.9105 124.647 51.3273 124.521 51.7625 124.521C52.0866 124.521 52.3644 124.567 52.596 124.655V125.889C52.2997 125.747 51.9663 125.675 51.5958 125.675C51.2531 125.675 50.9383 125.768 50.6512 125.956C50.364 126.144 50.1326 126.399 49.9566 126.721C49.7899 127.034 49.7066 127.374 49.7066 127.74V131.562H48.5258V124.722ZM54.4297 123.462C54.1981 123.462 53.999 123.381 53.8323 123.22C53.6656 123.059 53.5823 122.868 53.5823 122.644C53.5823 122.421 53.6656 122.233 53.8323 122.08C53.999 121.919 54.1981 121.839 54.4297 121.839C54.6612 121.839 54.8603 121.919 55.027 122.08C55.1937 122.233 55.277 122.421 55.277 122.644C55.277 122.868 55.1937 123.059 55.027 123.22C54.8696 123.381 54.6704 123.462 54.4297 123.462ZM53.8462 124.722H55.0131V131.562H53.8462V124.722ZM60.3337 121.96H63.6954C64.2418 121.96 64.7512 122.08 65.2235 122.322C65.6958 122.563 66.0708 122.904 66.3487 123.341C66.6357 123.77 66.7793 124.258 66.7793 124.803C66.7793 125.251 66.6728 125.666 66.4598 126.05C66.256 126.435 65.9689 126.757 65.5985 127.016C65.2374 127.276 64.8345 127.45 64.39 127.539L64.3622 127.579L67.1683 131.508V131.562H65.7791L63.0703 127.646H61.5006V131.562H60.3337V121.96ZM63.626 126.586C63.9685 126.586 64.288 126.511 64.5845 126.358C64.8901 126.207 65.1308 125.996 65.3068 125.728C65.492 125.452 65.5846 125.143 65.5846 124.803C65.5846 124.508 65.5059 124.226 65.3485 123.958C65.191 123.69 64.9687 123.471 64.6817 123.301C64.4039 123.132 64.0796 123.046 63.7093 123.046H61.5006V126.586H63.626ZM70.3793 131.776C69.8606 131.776 69.3976 131.679 68.9901 131.481C68.5826 131.286 68.2678 131.017 68.0455 130.677C67.8233 130.328 67.7121 129.935 67.7121 129.497C67.7121 128.772 67.9945 128.209 68.5595 127.807C69.1243 127.396 69.8375 127.19 70.6988 127.19C71.1247 127.19 71.5184 127.236 71.8796 127.324C72.2499 127.414 72.5325 127.517 72.7269 127.632V127.217C72.7269 126.707 72.5416 126.301 72.1713 125.996C71.8008 125.684 71.3331 125.527 70.7683 125.527C70.37 125.527 70.0042 125.613 69.6708 125.782C69.3374 125.943 69.0735 126.171 68.879 126.466L67.99 125.822C68.2678 125.412 68.6474 125.09 69.1291 124.856C69.6198 124.624 70.1616 124.508 70.7544 124.508C71.7175 124.508 72.4722 124.755 73.0187 125.245C73.5743 125.728 73.8522 126.391 73.8522 127.23V131.562H72.7269V130.583H72.6714C72.4676 130.914 72.162 131.196 71.7545 131.428C71.347 131.661 70.8886 131.776 70.3793 131.776ZM70.4904 130.771C70.8886 130.771 71.259 130.673 71.6017 130.476C71.9443 130.28 72.2176 130.016 72.4213 129.684C72.625 129.354 72.7269 128.992 72.7269 128.598C72.5047 128.456 72.2314 128.339 71.9074 128.249C71.5831 128.161 71.2406 128.115 70.8794 128.115C70.2311 128.115 69.7403 128.245 69.4069 128.504C69.0827 128.764 68.9207 129.1 68.9207 129.51C68.9207 129.886 69.0688 130.19 69.3652 130.422C69.6615 130.655 70.0366 130.771 70.4904 130.771ZM75.4948 124.722H76.62V125.728H76.6756C76.8793 125.379 77.1849 125.09 77.5924 124.856C77.9999 124.624 78.4305 124.508 78.8843 124.508C79.4029 124.508 79.852 124.628 80.2318 124.87C80.6208 125.111 80.8986 125.433 81.0653 125.835C81.3154 125.433 81.644 125.111 82.0516 124.87C82.4683 124.628 82.9498 124.508 83.4963 124.508C84.3112 124.508 84.9224 124.749 85.33 125.232C85.7467 125.707 85.9551 126.354 85.9551 127.177V131.562H84.7882V127.351C84.7882 126.717 84.6539 126.257 84.3854 125.97C84.1167 125.684 83.7186 125.54 83.1907 125.54C82.8387 125.54 82.5192 125.64 82.2322 125.835C81.9451 126.033 81.7182 126.297 81.5515 126.627C81.394 126.958 81.3154 127.316 81.3154 127.7V131.562H80.1346V127.364C80.1346 126.721 80.0003 126.257 79.7317 125.97C79.4631 125.684 79.0695 125.54 78.551 125.54C78.1989 125.54 77.8794 125.644 77.5924 125.849C77.3053 126.046 77.0785 126.314 76.9118 126.653C76.7542 126.985 76.6756 127.343 76.6756 127.726V131.562H75.4948V124.722ZM90.6504 131.776C90.0206 131.776 89.4465 131.621 88.9279 131.307C88.4185 130.995 88.0156 130.565 87.7193 130.02C87.4229 129.466 87.2748 128.839 87.2748 128.142C87.2748 127.454 87.4229 126.833 87.7193 126.278C88.0156 125.724 88.4185 125.291 88.9279 124.977C89.4465 124.665 90.0206 124.508 90.6504 124.508C91.1968 124.508 91.683 124.628 92.109 124.87C92.5349 125.103 92.8592 125.393 93.0814 125.742H93.137L93.0814 124.789V121.96H94.2622V131.562H93.137V130.556H93.0814C92.8592 130.897 92.5349 131.186 92.109 131.428C91.683 131.661 91.1968 131.776 90.6504 131.776ZM90.7893 130.744C91.2061 130.744 91.5903 130.637 91.9423 130.422C92.3035 130.207 92.5905 129.904 92.8036 129.51C93.0259 129.117 93.137 128.661 93.137 128.142C93.137 127.624 93.0259 127.168 92.8036 126.774C92.5905 126.381 92.3035 126.077 91.9423 125.862C91.5903 125.648 91.2061 125.54 90.7893 125.54C90.3818 125.54 89.9975 125.648 89.6364 125.862C89.2752 126.077 88.9835 126.385 88.7612 126.788C88.5481 127.182 88.4417 127.632 88.4417 128.142C88.4417 128.652 88.5481 129.108 88.7612 129.51C88.9835 129.904 89.2752 130.207 89.6364 130.422C89.9975 130.637 90.3818 130.744 90.7893 130.744ZM99.092 131.776C98.4159 131.776 97.8093 131.621 97.2722 131.307C96.735 130.995 96.3137 130.565 96.0081 130.02C95.7116 129.466 95.5636 128.845 95.5636 128.156C95.5636 127.494 95.7025 126.887 95.9803 126.332C96.2673 125.778 96.6702 125.335 97.1889 125.004C97.7074 124.674 98.3093 124.508 98.9948 124.508C99.6893 124.508 100.291 124.661 100.801 124.964C101.31 125.259 101.699 125.67 101.968 126.198C102.245 126.726 102.384 127.329 102.384 128.008C102.384 128.142 102.37 128.259 102.343 128.357H96.7443C96.7721 128.876 96.9017 129.314 97.1333 129.671C97.3647 130.029 97.6564 130.297 98.0085 130.476C98.3696 130.655 98.7447 130.744 99.1337 130.744C100.041 130.744 100.74 130.333 101.231 129.51L102.231 129.979C101.926 130.535 101.509 130.972 100.981 131.294C100.463 131.616 99.8328 131.776 99.092 131.776ZM101.134 127.418C101.115 127.132 101.032 126.847 100.884 126.56C100.736 126.274 100.5 126.033 100.176 125.835C99.8606 125.64 99.4623 125.54 98.9809 125.54C98.4252 125.54 97.9529 125.715 97.5639 126.063C97.1841 126.404 96.9341 126.855 96.8138 127.418H101.134ZM107.098 131.776C106.404 131.776 105.779 131.616 105.223 131.294C104.667 130.972 104.232 130.535 103.917 129.979C103.612 129.426 103.459 128.813 103.459 128.142C103.459 127.472 103.612 126.86 103.917 126.305C104.232 125.751 104.667 125.312 105.223 124.991C105.779 124.669 106.404 124.508 107.098 124.508C107.793 124.508 108.418 124.669 108.974 124.991C109.529 125.312 109.96 125.751 110.266 126.305C110.581 126.86 110.738 127.472 110.738 128.142C110.738 128.813 110.581 129.426 110.266 129.979C109.96 130.535 109.529 130.972 108.974 131.294C108.418 131.616 107.793 131.776 107.098 131.776ZM107.098 130.744C107.534 130.744 107.937 130.642 108.307 130.435C108.687 130.221 108.988 129.918 109.21 129.523C109.441 129.13 109.557 128.67 109.557 128.142C109.557 127.615 109.441 127.155 109.21 126.761C108.988 126.368 108.687 126.069 108.307 125.862C107.937 125.648 107.534 125.54 107.098 125.54C106.663 125.54 106.256 125.648 105.876 125.862C105.496 126.069 105.191 126.368 104.959 126.761C104.737 127.155 104.626 127.615 104.626 128.142C104.626 128.67 104.737 129.13 104.959 129.523C105.191 129.918 105.496 130.221 105.876 130.435C106.256 130.642 106.663 130.744 107.098 130.744ZM115.639 131.776C115.102 131.776 114.616 131.661 114.181 131.428C113.755 131.186 113.435 130.897 113.222 130.556H113.167V131.562H112.041V121.96H113.222V124.789L113.167 125.742H113.222C113.435 125.393 113.755 125.103 114.181 124.87C114.616 124.628 115.102 124.508 115.639 124.508C116.269 124.508 116.843 124.665 117.362 124.977C117.88 125.291 118.288 125.724 118.584 126.278C118.881 126.833 119.029 127.454 119.029 128.142C119.029 128.839 118.881 129.466 118.584 130.02C118.288 130.565 117.88 130.995 117.362 131.307C116.843 131.621 116.269 131.776 115.639 131.776ZM115.5 130.744C115.908 130.744 116.292 130.637 116.653 130.422C117.015 130.207 117.301 129.904 117.515 129.51C117.737 129.108 117.848 128.652 117.848 128.142C117.848 127.632 117.737 127.182 117.515 126.788C117.301 126.385 117.015 126.077 116.653 125.862C116.292 125.648 115.908 125.54 115.5 125.54C115.093 125.54 114.709 125.648 114.347 125.862C113.986 126.077 113.699 126.381 113.486 126.774C113.273 127.168 113.167 127.624 113.167 128.142C113.167 128.661 113.273 129.117 113.486 129.51C113.699 129.904 113.986 130.207 114.347 130.422C114.709 130.637 115.093 130.744 115.5 130.744ZM122.662 131.776C122.144 131.776 121.681 131.679 121.273 131.481C120.866 131.286 120.551 131.017 120.328 130.677C120.106 130.328 119.995 129.935 119.995 129.497C119.995 128.772 120.277 128.209 120.842 127.807C121.407 127.396 122.12 127.19 122.982 127.19C123.408 127.19 123.801 127.236 124.162 127.324C124.533 127.414 124.815 127.517 125.01 127.632V127.217C125.01 126.707 124.825 126.301 124.454 125.996C124.084 125.684 123.616 125.527 123.051 125.527C122.653 125.527 122.287 125.613 121.954 125.782C121.62 125.943 121.356 126.171 121.162 126.466L120.273 125.822C120.551 125.412 120.93 125.09 121.412 124.856C121.903 124.624 122.445 124.508 123.037 124.508C124 124.508 124.755 124.755 125.302 125.245C125.857 125.728 126.135 126.391 126.135 127.23V131.562H125.01V130.583H124.954C124.751 130.914 124.445 131.196 124.037 131.428C123.63 131.661 123.172 131.776 122.662 131.776ZM122.773 130.771C123.172 130.771 123.542 130.673 123.885 130.476C124.227 130.28 124.5 130.016 124.704 129.684C124.908 129.354 125.01 128.992 125.01 128.598C124.788 128.456 124.514 128.339 124.19 128.249C123.866 128.161 123.523 128.115 123.162 128.115C122.514 128.115 122.023 128.245 121.69 128.504C121.366 128.764 121.204 129.1 121.204 129.51C121.204 129.886 121.352 130.19 121.648 130.422C121.944 130.655 122.32 130.771 122.773 130.771ZM131.376 131.776C130.838 131.776 130.352 131.661 129.917 131.428C129.491 131.186 129.171 130.897 128.959 130.556H128.903V131.562H127.778V121.96H128.959V124.789L128.903 125.742H128.959C129.171 125.393 129.491 125.103 129.917 124.87C130.352 124.628 130.838 124.508 131.376 124.508C132.005 124.508 132.58 124.665 133.098 124.977C133.617 125.291 134.024 125.724 134.321 126.278C134.617 126.833 134.765 127.454 134.765 128.142C134.765 128.839 134.617 129.466 134.321 130.02C134.024 130.565 133.617 130.995 133.098 131.307C132.58 131.621 132.005 131.776 131.376 131.776ZM131.237 130.744C131.644 130.744 132.029 130.637 132.39 130.422C132.751 130.207 133.038 129.904 133.251 129.51C133.473 129.108 133.584 128.652 133.584 128.142C133.584 127.632 133.473 127.182 133.251 126.788C133.038 126.385 132.751 126.077 132.39 125.862C132.029 125.648 131.644 125.54 131.237 125.54C130.829 125.54 130.445 125.648 130.084 125.862C129.723 126.077 129.435 126.381 129.222 126.774C129.01 127.168 128.903 127.624 128.903 128.142C128.903 128.661 129.01 129.117 129.222 129.51C129.435 129.904 129.723 130.207 130.084 130.422C130.445 130.637 130.829 130.744 131.237 130.744ZM138.399 131.776C137.88 131.776 137.417 131.679 137.009 131.481C136.602 131.286 136.287 131.017 136.065 130.677C135.843 130.328 135.731 129.935 135.731 129.497C135.731 128.772 136.014 128.209 136.579 127.807C137.144 127.396 137.857 127.19 138.718 127.19C139.144 127.19 139.538 127.236 139.899 127.324C140.269 127.414 140.552 127.517 140.747 127.632V127.217C140.747 126.707 140.561 126.301 140.191 125.996C139.82 125.684 139.353 125.527 138.788 125.527C138.389 125.527 138.024 125.613 137.69 125.782C137.357 125.943 137.093 126.171 136.898 126.466L136.009 125.822C136.287 125.412 136.667 125.09 137.148 124.856C137.639 124.624 138.181 124.508 138.774 124.508C139.737 124.508 140.491 124.755 141.038 125.245C141.594 125.728 141.872 126.391 141.872 127.23V131.562H140.747V130.583H140.691C140.487 130.914 140.181 131.196 139.774 131.428C139.366 131.661 138.908 131.776 138.399 131.776ZM138.51 130.771C138.908 130.771 139.278 130.673 139.621 130.476C139.963 130.28 140.237 130.016 140.441 129.684C140.644 129.354 140.747 128.992 140.747 128.598C140.524 128.456 140.251 128.339 139.927 128.249C139.602 128.161 139.26 128.115 138.899 128.115C138.25 128.115 137.76 128.245 137.426 128.504C137.102 128.764 136.94 129.1 136.94 129.51C136.94 129.886 137.088 130.19 137.385 130.422C137.681 130.655 138.056 130.771 138.51 130.771ZM151.375 131.776C150.412 131.776 149.537 131.558 148.75 131.119C147.962 130.682 147.342 130.083 146.888 129.322C146.444 128.554 146.221 127.7 146.221 126.761C146.221 125.822 146.444 124.973 146.888 124.213C147.342 123.444 147.962 122.841 148.75 122.402C149.537 121.965 150.412 121.745 151.375 121.745C152.115 121.745 152.792 121.885 153.403 122.161C154.024 122.429 154.56 122.814 155.015 123.314L154.167 124.105C153.788 123.668 153.371 123.346 152.917 123.14C152.472 122.935 151.958 122.831 151.375 122.831C150.653 122.831 149.99 122.998 149.389 123.328C148.787 123.649 148.305 124.111 147.944 124.709C147.592 125.299 147.416 125.983 147.416 126.761C147.416 127.539 147.592 128.228 147.944 128.826C148.305 129.416 148.787 129.877 149.389 130.207C149.99 130.529 150.653 130.69 151.375 130.69C152.579 130.69 153.602 130.213 154.445 129.255L155.306 130.06C154.844 130.588 154.274 131.008 153.598 131.32C152.921 131.625 152.181 131.776 151.375 131.776ZM159.761 131.776C159.067 131.776 158.442 131.616 157.886 131.294C157.33 130.972 156.896 130.535 156.58 129.979C156.275 129.426 156.122 128.813 156.122 128.142C156.122 127.472 156.275 126.86 156.58 126.305C156.896 125.751 157.33 125.312 157.886 124.991C158.442 124.669 159.067 124.508 159.761 124.508C160.456 124.508 161.081 124.669 161.637 124.991C162.192 125.312 162.623 125.751 162.929 126.305C163.244 126.86 163.401 127.472 163.401 128.142C163.401 128.813 163.244 129.426 162.929 129.979C162.623 130.535 162.192 130.972 161.637 131.294C161.081 131.616 160.456 131.776 159.761 131.776ZM159.761 130.744C160.196 130.744 160.599 130.642 160.97 130.435C161.349 130.221 161.651 129.918 161.873 129.523C162.105 129.13 162.22 128.67 162.22 128.142C162.22 127.615 162.105 127.155 161.873 126.761C161.651 126.368 161.349 126.069 160.97 125.862C160.599 125.648 160.196 125.54 159.761 125.54C159.327 125.54 158.918 125.648 158.539 125.862C158.16 126.069 157.854 126.368 157.622 126.761C157.4 127.155 157.289 127.615 157.289 128.142C157.289 128.67 157.4 129.13 157.622 129.523C157.854 129.918 158.16 130.221 158.539 130.435C158.918 130.642 159.327 130.744 159.761 130.744ZM164.704 121.96H165.885V131.562H164.704V121.96ZM167.634 121.96H168.814V131.562H167.634V121.96ZM173.65 131.776C172.974 131.776 172.368 131.621 171.83 131.307C171.293 130.995 170.872 130.565 170.566 130.02C170.27 129.466 170.122 128.845 170.122 128.156C170.122 127.494 170.261 126.887 170.538 126.332C170.826 125.778 171.229 125.335 171.747 125.004C172.265 124.674 172.868 124.508 173.553 124.508C174.247 124.508 174.849 124.661 175.359 124.964C175.869 125.259 176.257 125.67 176.526 126.198C176.803 126.726 176.942 127.329 176.942 128.008C176.942 128.142 176.928 128.259 176.901 128.357H171.302C171.33 128.876 171.459 129.314 171.691 129.671C171.923 130.029 172.215 130.297 172.567 130.476C172.928 130.655 173.303 130.744 173.692 130.744C174.599 130.744 175.299 130.333 175.789 129.51L176.79 129.979C176.484 130.535 176.067 130.972 175.539 131.294C175.021 131.616 174.39 131.776 173.65 131.776ZM175.692 127.418C175.674 127.132 175.591 126.847 175.442 126.56C175.293 126.274 175.057 126.033 174.734 125.835C174.418 125.64 174.021 125.54 173.539 125.54C172.983 125.54 172.511 125.715 172.122 126.063C171.743 126.404 171.493 126.855 171.372 127.418H175.692ZM181.504 134.673C180.671 134.673 179.98 134.485 179.434 134.11C178.897 133.734 178.536 133.284 178.351 132.755L179.421 132.313C179.578 132.707 179.837 133.024 180.198 133.265C180.568 133.516 181.004 133.641 181.504 133.641C182.235 133.641 182.8 133.435 183.199 133.024C183.606 132.613 183.81 132.031 183.81 131.28V130.516H183.755C183.523 130.865 183.193 131.151 182.768 131.374C182.352 131.589 181.874 131.696 181.338 131.696C180.726 131.696 180.165 131.544 179.657 131.24C179.157 130.937 178.758 130.512 178.462 129.966C178.165 129.421 178.018 128.799 178.018 128.102C178.018 127.414 178.165 126.797 178.462 126.251C178.758 125.697 179.157 125.268 179.657 124.964C180.165 124.661 180.726 124.508 181.338 124.508C181.874 124.508 182.352 124.62 182.768 124.843C183.193 125.058 183.523 125.345 183.755 125.701H183.81V124.722H184.935V131.294C184.935 132.393 184.62 133.23 183.991 133.801C183.36 134.384 182.532 134.673 181.504 134.673ZM181.504 130.663C181.929 130.663 182.314 130.561 182.657 130.355C183.009 130.15 183.287 129.855 183.491 129.47C183.703 129.086 183.81 128.63 183.81 128.102C183.81 127.565 183.703 127.105 183.491 126.721C183.287 126.337 183.009 126.046 182.657 125.849C182.314 125.644 181.929 125.54 181.504 125.54C181.078 125.54 180.689 125.644 180.337 125.849C179.985 126.055 179.703 126.35 179.49 126.734C179.286 127.119 179.184 127.575 179.184 128.102C179.184 128.63 179.286 129.09 179.49 129.483C179.703 129.868 179.985 130.163 180.337 130.368C180.689 130.565 181.078 130.663 181.504 130.663ZM189.767 131.776C189.09 131.776 188.483 131.621 187.947 131.307C187.41 130.995 186.989 130.565 186.683 130.02C186.386 129.466 186.238 128.845 186.238 128.156C186.238 127.494 186.377 126.887 186.655 126.332C186.941 125.778 187.344 125.335 187.864 125.004C188.382 124.674 188.983 124.508 189.67 124.508C190.364 124.508 190.966 124.661 191.476 124.964C191.984 125.259 192.373 125.67 192.642 126.198C192.92 126.726 193.059 127.329 193.059 128.008C193.059 128.142 193.045 128.259 193.018 128.357H187.419C187.447 128.876 187.576 129.314 187.808 129.671C188.039 130.029 188.331 130.297 188.683 130.476C189.045 130.655 189.42 130.744 189.809 130.744C190.716 130.744 191.414 130.333 191.906 129.51L192.906 129.979C192.601 130.535 192.184 130.972 191.656 131.294C191.137 131.616 190.507 131.776 189.767 131.776ZM191.809 127.418C191.79 127.132 191.706 126.847 191.559 126.56C191.41 126.274 191.174 126.033 190.85 125.835C190.535 125.64 190.136 125.54 189.656 125.54C189.1 125.54 188.628 125.715 188.239 126.063C187.858 126.404 187.608 126.855 187.489 127.418H191.809ZM200.934 131.776C200.24 131.776 199.615 131.616 199.059 131.294C198.503 130.972 198.067 130.535 197.753 129.979C197.448 129.426 197.295 128.813 197.295 128.142C197.295 127.472 197.448 126.86 197.753 126.305C198.067 125.751 198.503 125.312 199.059 124.991C199.615 124.669 200.24 124.508 200.934 124.508C201.629 124.508 202.254 124.669 202.81 124.991C203.365 125.312 203.796 125.751 204.102 126.305C204.415 126.86 204.574 127.472 204.574 128.142C204.574 128.813 204.415 129.426 204.102 129.979C203.796 130.535 203.365 130.972 202.81 131.294C202.254 131.616 201.629 131.776 200.934 131.776ZM200.934 130.744C201.369 130.744 201.772 130.642 202.143 130.435C202.522 130.221 202.824 129.918 203.046 129.523C203.276 129.13 203.393 128.67 203.393 128.142C203.393 127.615 203.276 127.155 203.046 126.761C202.824 126.368 202.522 126.069 202.143 125.862C201.772 125.648 201.369 125.54 200.934 125.54C200.498 125.54 200.091 125.648 199.712 125.862C199.331 126.069 199.026 126.368 198.795 126.761C198.573 127.155 198.462 127.615 198.462 128.142C198.462 128.67 198.573 129.13 198.795 129.523C199.026 129.918 199.331 130.221 199.712 130.435C200.091 130.642 200.498 130.744 200.934 130.744ZM206.56 125.755H205.255V124.722H206.56V123.985C206.56 123.556 206.662 123.18 206.866 122.858C207.07 122.536 207.342 122.291 207.686 122.121C208.029 121.942 208.408 121.852 208.825 121.852C209.223 121.852 209.571 121.906 209.867 122.013V123.126C209.7 123.065 209.543 123.015 209.394 122.979C209.246 122.935 209.071 122.912 208.866 122.912C208.561 122.912 208.297 123.019 208.074 123.234C207.852 123.44 207.741 123.73 207.741 124.105V124.722H209.561V125.755H207.741V131.562H206.56V125.755ZM214.469 121.96H220.22V123.046H215.636V126.224H219.775V127.297H215.636V130.476H220.22V131.562H214.469V121.96ZM221.749 124.722H222.874V125.728H222.93C223.125 125.389 223.434 125.103 223.861 124.87C224.286 124.628 224.74 124.508 225.222 124.508C226.074 124.508 226.722 124.749 227.167 125.232C227.62 125.707 227.848 126.354 227.848 127.177V131.562H226.667V127.351C226.667 126.717 226.508 126.257 226.195 125.97C225.879 125.684 225.449 125.54 224.903 125.54C224.522 125.54 224.18 125.644 223.875 125.849C223.577 126.055 223.347 126.328 223.18 126.667C223.013 126.998 222.93 127.347 222.93 127.713V131.562H221.749V124.722ZM232.579 134.673C231.746 134.673 231.057 134.485 230.509 134.11C229.973 133.734 229.612 133.284 229.426 132.755L230.495 132.313C230.654 132.707 230.912 133.024 231.273 133.265C231.644 133.516 232.079 133.641 232.579 133.641C233.311 133.641 233.877 133.435 234.274 133.024C234.682 132.613 234.885 132.031 234.885 131.28V130.516H234.829C234.599 130.865 234.27 131.151 233.843 131.374C233.426 131.589 232.95 131.696 232.412 131.696C231.801 131.696 231.241 131.544 230.732 131.24C230.231 130.937 229.834 130.512 229.537 129.966C229.241 129.421 229.092 128.799 229.092 128.102C229.092 127.414 229.241 126.797 229.537 126.251C229.834 125.697 230.231 125.268 230.732 124.964C231.241 124.661 231.801 124.508 232.412 124.508C232.95 124.508 233.426 124.62 233.843 124.843C234.27 125.058 234.599 125.345 234.829 125.701H234.885V124.722H236.01V131.294C236.01 132.393 235.696 133.23 235.066 133.801C234.436 134.384 233.607 134.673 232.579 134.673ZM232.579 130.663C233.006 130.663 233.39 130.561 233.732 130.355C234.085 130.15 234.363 129.855 234.566 129.47C234.779 129.086 234.885 128.63 234.885 128.102C234.885 127.565 234.779 127.105 234.566 126.721C234.363 126.337 234.085 126.046 233.732 125.849C233.39 125.644 233.006 125.54 232.579 125.54C232.154 125.54 231.765 125.644 231.412 125.849C231.061 126.055 230.779 126.35 230.565 126.734C230.362 127.119 230.259 127.575 230.259 128.102C230.259 128.63 230.362 129.09 230.565 129.483C230.779 129.868 231.061 130.163 231.412 130.368C231.765 130.565 232.154 130.663 232.579 130.663ZM238.451 123.462C238.219 123.462 238.02 123.381 237.854 123.22C237.687 123.059 237.604 122.868 237.604 122.644C237.604 122.421 237.687 122.233 237.854 122.08C238.02 121.919 238.219 121.839 238.451 121.839C238.683 121.839 238.882 121.919 239.048 122.08C239.215 122.233 239.298 122.421 239.298 122.644C239.298 122.868 239.215 123.059 239.048 123.22C238.891 123.381 238.691 123.462 238.451 123.462ZM237.868 124.722H239.034V131.562H237.868V124.722ZM240.89 124.722H242.016V125.728H242.071C242.266 125.389 242.575 125.103 243.002 124.87C243.428 124.628 243.881 124.508 244.363 124.508C245.215 124.508 245.863 124.749 246.308 125.232C246.762 125.707 246.989 126.354 246.989 127.177V131.562H245.808V127.351C245.808 126.717 245.651 126.257 245.336 125.97C245.02 125.684 244.59 125.54 244.044 125.54C243.664 125.54 243.321 125.644 243.016 125.849C242.72 126.055 242.488 126.328 242.321 126.667C242.154 126.998 242.071 127.347 242.071 127.713V131.562H240.89V124.722ZM251.83 131.776C251.155 131.776 250.548 131.621 250.01 131.307C249.474 130.995 249.052 130.565 248.746 130.02C248.45 129.466 248.301 128.845 248.301 128.156C248.301 127.494 248.44 126.887 248.718 126.332C249.006 125.778 249.409 125.335 249.927 125.004C250.446 124.674 251.048 124.508 251.733 124.508C252.427 124.508 253.03 124.661 253.539 124.964C254.048 125.259 254.437 125.67 254.705 126.198C254.983 126.726 255.122 127.329 255.122 128.008C255.122 128.142 255.108 128.259 255.08 128.357H249.482C249.51 128.876 249.641 129.314 249.871 129.671C250.103 130.029 250.395 130.297 250.746 130.476C251.108 130.655 251.483 130.744 251.872 130.744C252.78 130.744 253.479 130.333 253.969 129.51L254.969 129.979C254.664 130.535 254.247 130.972 253.719 131.294C253.201 131.616 252.572 131.776 251.83 131.776ZM253.872 127.418C253.854 127.132 253.771 126.847 253.622 126.56C253.475 126.274 253.238 126.033 252.913 125.835C252.599 125.64 252.201 125.54 251.719 125.54C251.163 125.54 250.691 125.715 250.302 126.063C249.923 126.404 249.672 126.855 249.552 127.418H253.872ZM259.726 131.776C259.049 131.776 258.444 131.621 257.906 131.307C257.368 130.995 256.947 130.565 256.642 130.02C256.346 129.466 256.197 128.845 256.197 128.156C256.197 127.494 256.336 126.887 256.614 126.332C256.902 125.778 257.304 125.335 257.823 125.004C258.341 124.674 258.944 124.508 259.629 124.508C260.323 124.508 260.925 124.661 261.434 124.964C261.944 125.259 262.333 125.67 262.601 126.198C262.879 126.726 263.018 127.329 263.018 128.008C263.018 128.142 263.004 128.259 262.976 128.357H257.378C257.406 128.876 257.535 129.314 257.767 129.671C257.999 130.029 258.291 130.297 258.642 130.476C259.003 130.655 259.378 130.744 259.767 130.744C260.675 130.744 261.375 130.333 261.865 129.51L262.865 129.979C262.56 130.535 262.143 130.972 261.615 131.294C261.097 131.616 260.466 131.776 259.726 131.776ZM261.768 127.418C261.75 127.132 261.666 126.847 261.518 126.56C261.369 126.274 261.133 126.033 260.809 125.835C260.494 125.64 260.097 125.54 259.615 125.54C259.059 125.54 258.587 125.715 258.198 126.063C257.818 126.404 257.568 126.855 257.448 127.418H261.768ZM264.4 124.722H265.525V125.822H265.581C265.72 125.447 265.988 125.138 266.387 124.897C266.784 124.647 267.201 124.521 267.637 124.521C267.961 124.521 268.238 124.567 268.47 124.655V125.889C268.173 125.747 267.84 125.675 267.47 125.675C267.127 125.675 266.812 125.768 266.526 125.956C266.238 126.144 266.006 126.399 265.831 126.721C265.664 127.034 265.581 127.374 265.581 127.74V131.562H264.4V124.722ZM270.304 123.462C270.072 123.462 269.873 123.381 269.707 123.22C269.54 123.059 269.457 122.868 269.457 122.644C269.457 122.421 269.54 122.233 269.707 122.08C269.873 121.919 270.072 121.839 270.304 121.839C270.535 121.839 270.735 121.919 270.901 122.08C271.068 122.233 271.152 122.421 271.152 122.644C271.152 122.868 271.068 123.059 270.901 123.22C270.743 123.381 270.544 123.462 270.304 123.462ZM269.721 124.722H270.888V131.562H269.721V124.722ZM272.743 124.722H273.869V125.728H273.924C274.119 125.389 274.429 125.103 274.855 124.87C275.28 124.628 275.734 124.508 276.216 124.508C277.068 124.508 277.717 124.749 278.161 125.232C278.614 125.707 278.842 126.354 278.842 127.177V131.562H277.661V127.351C277.661 126.717 277.503 126.257 277.189 125.97C276.873 125.684 276.443 125.54 275.897 125.54C275.516 125.54 275.174 125.644 274.869 125.849C274.572 126.055 274.341 126.328 274.174 126.667C274.008 126.998 273.924 127.347 273.924 127.713V131.562H272.743V124.722ZM283.573 134.673C282.74 134.673 282.051 134.485 281.503 134.11C280.967 133.734 280.606 133.284 280.42 132.755L281.49 132.313C281.648 132.707 281.906 133.024 282.267 133.265C282.638 133.516 283.073 133.641 283.573 133.641C284.305 133.641 284.871 133.435 285.268 133.024C285.676 132.613 285.879 132.031 285.879 131.28V130.516H285.824C285.593 130.865 285.264 131.151 284.837 131.374C284.421 131.589 283.944 131.696 283.407 131.696C282.795 131.696 282.236 131.544 281.726 131.24C281.226 130.937 280.828 130.512 280.531 129.966C280.235 129.421 280.087 128.799 280.087 128.102C280.087 127.414 280.235 126.797 280.531 126.251C280.828 125.697 281.226 125.268 281.726 124.964C282.236 124.661 282.795 124.508 283.407 124.508C283.944 124.508 284.421 124.62 284.837 124.843C285.264 125.058 285.593 125.345 285.824 125.701H285.879V124.722H287.004V131.294C287.004 132.393 286.691 133.23 286.06 133.801C285.431 134.384 284.601 134.673 283.573 134.673ZM283.573 130.663C284 130.663 284.385 130.561 284.726 130.355C285.079 130.15 285.357 129.855 285.56 129.47C285.774 129.086 285.879 128.63 285.879 128.102C285.879 127.565 285.774 127.105 285.56 126.721C285.357 126.337 285.079 126.046 284.726 125.849C284.385 125.644 284 125.54 283.573 125.54C283.148 125.54 282.759 125.644 282.406 125.849C282.055 126.055 281.773 126.35 281.559 126.734C281.356 127.119 281.253 127.575 281.253 128.102C281.253 128.63 281.356 129.09 281.559 129.483C281.773 129.868 282.055 130.163 282.406 130.368C282.759 130.565 283.148 130.663 283.573 130.663ZM294.243 131.776C293.725 131.776 293.263 131.679 292.854 131.481C292.447 131.286 292.132 131.017 291.91 130.677C291.687 130.328 291.576 129.935 291.576 129.497C291.576 128.772 291.86 128.209 292.424 127.807C292.989 127.396 293.702 127.19 294.563 127.19C294.989 127.19 295.382 127.236 295.744 127.324C296.114 127.414 296.396 127.517 296.591 127.632V127.217C296.591 126.707 296.406 126.301 296.035 125.996C295.666 125.684 295.198 125.527 294.632 125.527C294.235 125.527 293.868 125.613 293.535 125.782C293.201 125.943 292.938 126.171 292.743 126.466L291.854 125.822C292.132 125.412 292.512 125.09 292.993 124.856C293.485 124.624 294.027 124.508 294.618 124.508C295.582 124.508 296.337 124.755 296.883 125.245C297.438 125.728 297.716 126.391 297.716 127.23V131.562H296.591V130.583H296.535C296.333 130.914 296.027 131.196 295.619 131.428C295.212 131.661 294.753 131.776 294.243 131.776ZM294.354 130.771C294.753 130.771 295.124 130.673 295.466 130.476C295.809 130.28 296.083 130.016 296.285 129.684C296.49 129.354 296.591 128.992 296.591 128.598C296.369 128.456 296.096 128.339 295.771 128.249C295.448 128.161 295.105 128.115 294.743 128.115C294.096 128.115 293.604 128.245 293.271 128.504C292.947 128.764 292.785 129.1 292.785 129.51C292.785 129.886 292.933 130.19 293.229 130.422C293.527 130.655 293.902 130.771 294.354 130.771ZM299.36 124.722H300.485V125.728H300.54C300.735 125.389 301.045 125.103 301.471 124.87C301.896 124.628 302.35 124.508 302.832 124.508C303.684 124.508 304.333 124.749 304.777 125.232C305.23 125.707 305.458 126.354 305.458 127.177V131.562H304.277V127.351C304.277 126.717 304.119 126.257 303.805 125.97C303.489 125.684 303.059 125.54 302.513 125.54C302.132 125.54 301.791 125.644 301.485 125.849C301.188 126.055 300.957 126.328 300.79 126.667C300.624 126.998 300.54 127.347 300.54 127.713V131.562H299.36V124.722ZM310.146 131.776C309.517 131.776 308.943 131.621 308.424 131.307C307.915 130.995 307.512 130.565 307.215 130.02C306.919 129.466 306.771 128.839 306.771 128.142C306.771 127.454 306.919 126.833 307.215 126.278C307.512 125.724 307.915 125.291 308.424 124.977C308.943 124.665 309.517 124.508 310.146 124.508C310.694 124.508 311.18 124.628 311.605 124.87C312.031 125.103 312.355 125.393 312.577 125.742H312.633L312.577 124.789V121.96H313.758V131.562H312.633V130.556H312.577C312.355 130.897 312.031 131.186 311.605 131.428C311.18 131.661 310.694 131.776 310.146 131.776ZM310.285 130.744C310.702 130.744 311.087 130.637 311.438 130.422C311.799 130.207 312.087 129.904 312.299 129.51C312.522 129.117 312.633 128.661 312.633 128.142C312.633 127.624 312.522 127.168 312.299 126.774C312.087 126.381 311.799 126.077 311.438 125.862C311.087 125.648 310.702 125.54 310.285 125.54C309.878 125.54 309.493 125.648 309.132 125.862C308.771 126.077 308.479 126.385 308.257 126.788C308.044 127.182 307.938 127.632 307.938 128.142C307.938 128.652 308.044 129.108 308.257 129.51C308.479 129.904 308.771 130.207 309.132 130.422C309.493 130.637 309.878 130.744 310.285 130.744ZM318.967 121.96H320.676L323.843 129.832H323.899L327.066 121.96H328.775V131.562H327.608V125.46L327.663 123.636H327.608L324.357 131.562H323.385L320.134 123.636H320.079L320.134 125.46V131.562H318.967V121.96ZM332.825 131.776C332.306 131.776 331.843 131.679 331.436 131.481C331.028 131.286 330.714 131.017 330.492 130.677C330.269 130.328 330.158 129.935 330.158 129.497C330.158 128.772 330.44 128.209 331.006 127.807C331.57 127.396 332.284 127.19 333.145 127.19C333.57 127.19 333.965 127.236 334.326 127.324C334.695 127.414 334.979 127.517 335.173 127.632V127.217C335.173 126.707 334.987 126.301 334.618 125.996C334.247 125.684 333.778 125.527 333.214 125.527C332.816 125.527 332.45 125.613 332.117 125.782C331.784 125.943 331.52 126.171 331.325 126.466L330.436 125.822C330.714 125.412 331.093 125.09 331.575 124.856C332.066 124.624 332.607 124.508 333.201 124.508C334.163 124.508 334.918 124.755 335.465 125.245C336.021 125.728 336.298 126.391 336.298 127.23V131.562H335.173V130.583H335.118C334.913 130.914 334.608 131.196 334.201 131.428C333.792 131.661 333.334 131.776 332.825 131.776ZM332.937 130.771C333.334 130.771 333.705 130.673 334.048 130.476C334.39 130.28 334.663 130.016 334.868 129.684C335.07 129.354 335.173 128.992 335.173 128.598C334.951 128.456 334.677 128.339 334.354 128.249C334.029 128.161 333.687 128.115 333.326 128.115C332.677 128.115 332.186 128.245 331.853 128.504C331.528 128.764 331.367 129.1 331.367 129.51C331.367 129.886 331.514 130.19 331.811 130.422C332.107 130.655 332.482 130.771 332.937 130.771ZM337.94 124.722H339.066V125.728H339.121C339.316 125.389 339.625 125.103 340.052 124.87C340.478 124.628 340.931 124.508 341.413 124.508C342.265 124.508 342.913 124.749 343.358 125.232C343.812 125.707 344.039 126.354 344.039 127.177V131.562H342.858V127.351C342.858 126.717 342.701 126.257 342.386 125.97C342.07 125.684 341.64 125.54 341.094 125.54C340.714 125.54 340.371 125.644 340.066 125.849C339.77 126.055 339.538 126.328 339.371 126.667C339.204 126.998 339.121 127.347 339.121 127.713V131.562H337.94V124.722ZM347.924 131.776C347.405 131.776 346.942 131.679 346.535 131.481C346.127 131.286 345.813 131.017 345.59 130.677C345.368 130.328 345.257 129.935 345.257 129.497C345.257 128.772 345.539 128.209 346.104 127.807C346.668 127.396 347.382 127.19 348.244 127.19C348.669 127.19 349.063 127.236 349.424 127.324C349.794 127.414 350.077 127.517 350.272 127.632V127.217C350.272 126.707 350.086 126.301 349.716 125.996C349.345 125.684 348.877 125.527 348.313 125.527C347.914 125.527 347.549 125.613 347.216 125.782C346.882 125.943 346.618 126.171 346.424 126.466L345.535 125.822C345.813 125.412 346.192 125.09 346.674 124.856C347.164 124.624 347.706 124.508 348.299 124.508C349.262 124.508 350.016 124.755 350.564 125.245C351.119 125.728 351.397 126.391 351.397 127.23V131.562H350.272V130.583H350.216C350.012 130.914 349.706 131.196 349.299 131.428C348.891 131.661 348.433 131.776 347.924 131.776ZM348.035 130.771C348.433 130.771 348.803 130.673 349.147 130.476C349.488 130.28 349.762 130.016 349.966 129.684C350.169 129.354 350.272 128.992 350.272 128.598C350.05 128.456 349.776 128.339 349.452 128.249C349.127 128.161 348.785 128.115 348.424 128.115C347.776 128.115 347.285 128.245 346.952 128.504C346.627 128.764 346.466 129.1 346.466 129.51C346.466 129.886 346.613 130.19 346.91 130.422C347.206 130.655 347.581 130.771 348.035 130.771ZM356.083 134.673C355.249 134.673 354.56 134.485 354.013 134.11C353.477 133.734 353.115 133.284 352.929 132.755L353.999 132.313C354.157 132.707 354.416 133.024 354.777 133.265C355.148 133.516 355.583 133.641 356.083 133.641C356.815 133.641 357.38 133.435 357.777 133.024C358.186 132.613 358.389 132.031 358.389 131.28V130.516H358.333C358.102 130.865 357.773 131.151 357.347 131.374C356.93 131.589 356.454 131.696 355.916 131.696C355.305 131.696 354.745 131.544 354.235 131.24C353.735 130.937 353.338 130.512 353.04 129.966C352.744 129.421 352.596 128.799 352.596 128.102C352.596 127.414 352.744 126.797 353.04 126.251C353.338 125.697 353.735 125.268 354.235 124.964C354.745 124.661 355.305 124.508 355.916 124.508C356.454 124.508 356.93 124.62 357.347 124.843C357.773 125.058 358.102 125.345 358.333 125.701H358.389V124.722H359.514V131.294C359.514 132.393 359.2 133.23 358.569 133.801C357.94 134.384 357.111 134.673 356.083 134.673ZM356.083 130.663C356.509 130.663 356.894 130.561 357.236 130.355C357.588 130.15 357.866 129.855 358.069 129.47C358.283 129.086 358.389 128.63 358.389 128.102C358.389 127.565 358.283 127.105 358.069 126.721C357.866 126.337 357.588 126.046 357.236 125.849C356.894 125.644 356.509 125.54 356.083 125.54C355.658 125.54 355.269 125.644 354.916 125.849C354.564 126.055 354.282 126.35 354.068 126.734C353.866 127.119 353.763 127.575 353.763 128.102C353.763 128.63 353.866 129.09 354.068 129.483C354.282 129.868 354.564 130.163 354.916 130.368C355.269 130.565 355.658 130.663 356.083 130.663ZM364.345 131.776C363.67 131.776 363.063 131.621 362.525 131.307C361.989 130.995 361.567 130.565 361.261 130.02C360.965 129.466 360.817 128.845 360.817 128.156C360.817 127.494 360.956 126.887 361.234 126.332C361.521 125.778 361.924 125.335 362.442 125.004C362.962 124.674 363.563 124.508 364.248 124.508C364.943 124.508 365.545 124.661 366.054 124.964C366.564 125.259 366.953 125.67 367.221 126.198C367.499 126.726 367.638 127.329 367.638 128.008C367.638 128.142 367.624 128.259 367.596 128.357H361.998C362.025 128.876 362.156 129.314 362.387 129.671C362.619 130.029 362.91 130.297 363.262 130.476C363.623 130.655 363.998 130.744 364.387 130.744C365.295 130.744 365.994 130.333 366.485 129.51L367.485 129.979C367.179 130.535 366.762 130.972 366.235 131.294C365.716 131.616 365.087 131.776 364.345 131.776ZM366.387 127.418C366.369 127.132 366.286 126.847 366.137 126.56C365.99 126.274 365.754 126.033 365.429 125.835C365.115 125.64 364.716 125.54 364.234 125.54C363.678 125.54 363.206 125.715 362.817 126.063C362.438 126.404 362.188 126.855 362.067 127.418H366.387ZM369.02 124.722H370.145V125.728H370.201C370.405 125.379 370.71 125.09 371.117 124.856C371.526 124.624 371.956 124.508 372.409 124.508C372.929 124.508 373.377 124.628 373.757 124.87C374.146 125.111 374.424 125.433 374.59 125.835C374.84 125.433 375.169 125.111 375.576 124.87C375.993 124.628 376.475 124.508 377.021 124.508C377.837 124.508 378.448 124.749 378.855 125.232C379.272 125.707 379.48 126.354 379.48 127.177V131.562H378.313V127.351C378.313 126.717 378.18 126.257 377.91 125.97C377.642 125.684 377.243 125.54 376.716 125.54C376.364 125.54 376.045 125.64 375.757 125.835C375.471 126.033 375.243 126.297 375.076 126.627C374.919 126.958 374.84 127.316 374.84 127.7V131.562H373.66V127.364C373.66 126.721 373.526 126.257 373.257 125.97C372.989 125.684 372.595 125.54 372.076 125.54C371.724 125.54 371.405 125.644 371.117 125.849C370.831 126.046 370.603 126.314 370.437 126.653C370.28 126.985 370.201 127.343 370.201 127.726V131.562H369.02V124.722ZM384.328 131.776C383.653 131.776 383.046 131.621 382.508 131.307C381.972 130.995 381.55 130.565 381.244 130.02C380.948 129.466 380.8 128.845 380.8 128.156C380.8 127.494 380.939 126.887 381.216 126.332C381.504 125.778 381.907 125.335 382.425 125.004C382.945 124.674 383.546 124.508 384.231 124.508C384.925 124.508 385.528 124.661 386.037 124.964C386.547 125.259 386.936 125.67 387.204 126.198C387.482 126.726 387.62 127.329 387.62 128.008C387.62 128.142 387.607 128.259 387.579 128.357H381.98C382.008 128.876 382.139 129.314 382.369 129.671C382.601 130.029 382.893 130.297 383.245 130.476C383.606 130.655 383.981 130.744 384.37 130.744C385.278 130.744 385.977 130.333 386.467 129.51L387.468 129.979C387.162 130.535 386.745 130.972 386.217 131.294C385.699 131.616 385.07 131.776 384.328 131.776ZM386.37 127.418C386.352 127.132 386.269 126.847 386.12 126.56C385.973 126.274 385.737 126.033 385.412 125.835C385.098 125.64 384.699 125.54 384.217 125.54C383.661 125.54 383.189 125.715 382.8 126.063C382.421 126.404 382.171 126.855 382.05 127.418H386.37ZM389.003 124.722H390.128V125.728H390.183C390.378 125.389 390.688 125.103 391.114 124.87C391.541 124.628 391.993 124.508 392.475 124.508C393.327 124.508 393.976 124.749 394.42 125.232C394.875 125.707 395.101 126.354 395.101 127.177V131.562H393.92V127.351C393.92 126.717 393.763 126.257 393.448 125.97C393.133 125.684 392.702 125.54 392.156 125.54C391.777 125.54 391.434 125.644 391.128 125.849C390.832 126.055 390.6 126.328 390.433 126.667C390.267 126.998 390.183 127.347 390.183 127.713V131.562H389.003V124.722ZM399.16 131.669C398.873 131.669 398.604 131.625 398.354 131.535C398.113 131.447 397.91 131.326 397.743 131.173C397.557 131.004 397.418 130.807 397.326 130.583C397.233 130.36 397.187 130.087 397.187 129.765V125.755H395.951V124.722H397.187V122.791H398.368V124.722H400.091V125.755H398.368V129.483C398.368 129.859 398.442 130.136 398.591 130.315C398.766 130.512 399.021 130.61 399.355 130.61C399.623 130.61 399.882 130.535 400.132 130.382V131.495C399.994 131.558 399.849 131.602 399.702 131.629C399.563 131.656 399.382 131.669 399.16 131.669Z" fill="#242424"/>
<defs>
<linearGradient id="paint0_linear_703_2366" x1="425.69" y1="131.111" x2="9.16829" y2="131.111" gradientUnits="userSpaceOnUse">
<stop stop-color="#348BCA"/>
<stop offset="0.404875" stop-color="#59A43A"/>
<stop offset="0.711571" stop-color="#F3B002"/>
<stop offset="1" stop-color="#DF572E"/>
</linearGradient>
</defs>
</svg>
