<svg width="429" height="168" viewBox="0 0 429 168" fill="none" xmlns="http://www.w3.org/2000/svg">
<path d="M417.634 1.99976H12.0033C6.63289 1.99976 2.2793 6.20273 2.2793 11.3874V156.225C2.2793 161.409 6.63289 165.612 12.0033 165.612H417.634C423.005 165.612 427.358 161.409 427.358 156.225V11.3874C427.358 6.20273 423.005 1.99976 417.634 1.99976Z" fill="#EFEFEF" stroke="url(#paint0_linear_703_2370)" stroke-width="3.2"/>
<path d="M51.022 104.111C49.4814 104.111 48.0617 103.753 46.7642 103.04C45.4654 102.325 44.4305 101.349 43.6609 100.11C42.9052 98.8557 42.5273 97.4636 42.5273 95.9321C42.5273 94.4019 42.9052 93.0166 43.6609 91.7774C44.4305 90.5235 45.4654 89.5391 46.7642 88.8257C48.0617 88.1109 49.4814 87.7542 51.022 87.7542C52.2458 87.7542 53.385 87.9647 54.4421 88.3871C55.4992 88.8109 56.3827 89.401 57.0925 90.1587L55.3256 91.8646C54.7977 91.296 54.1628 90.8588 53.4238 90.553C52.6987 90.2472 51.8902 90.093 50.9998 90.093C49.9579 90.093 48.9841 90.3344 48.077 90.8145C47.1713 91.296 46.4461 91.9813 45.903 92.8704C45.3598 93.7595 45.0876 94.7801 45.0876 95.9321C45.0876 97.0841 45.3598 98.1046 45.903 98.9938C46.4461 99.8829 47.1713 100.568 48.077 101.05C48.9841 101.53 49.9648 101.771 51.022 101.771C51.9888 101.771 52.7959 101.633 53.446 101.355C54.0948 101.078 54.6768 100.706 55.1894 100.24C55.5228 99.9191 55.802 99.5182 56.0285 99.038C56.2702 98.5566 56.4286 98.0309 56.5036 97.4636H50.9998V95.2763H58.9054C58.9805 95.684 59.018 96.1078 59.018 96.545C59.018 97.536 58.8595 98.4909 58.5428 99.4095C58.2247 100.313 57.7191 101.101 57.0245 101.771C55.4992 103.331 53.4988 104.111 51.022 104.111ZM66.8416 104.111C65.6789 104.111 64.637 103.855 63.716 103.346C62.795 102.82 62.0783 102.106 61.5643 101.203C61.0503 100.299 60.7947 99.2928 60.7947 98.1851C60.7947 97.076 61.0503 96.0702 61.5643 95.1663C62.0783 94.2624 62.795 93.5557 63.716 93.0461C64.637 92.5204 65.6789 92.2588 66.8416 92.2588C68.0043 92.2588 69.0462 92.5204 69.9686 93.0461C70.8896 93.5704 71.6064 94.2852 72.1204 95.1891C72.633 96.093 72.8899 97.0908 72.8899 98.1851C72.8899 99.2928 72.633 100.299 72.1204 101.203C71.6064 102.106 70.8896 102.82 69.9686 103.346C69.0462 103.855 68.0043 104.111 66.8416 104.111ZM66.8416 101.903C67.4764 101.903 68.0655 101.756 68.6086 101.465C69.1532 101.158 69.5824 100.729 69.9005 100.174C70.2325 99.6053 70.3978 98.9428 70.3978 98.1851C70.3978 97.4261 70.2325 96.7703 69.9005 96.2164C69.5824 95.6625 69.1532 95.2401 68.6086 94.9477C68.0655 94.642 67.4764 94.4891 66.8416 94.4891C66.2081 94.4891 65.6192 94.642 65.0746 94.9477C64.5315 95.2401 64.0939 95.6625 63.7619 96.2164C63.4437 96.7703 63.2854 97.4261 63.2854 98.1851C63.2854 98.9428 63.4437 99.6053 63.7619 100.174C64.0939 100.729 64.5315 101.158 65.0746 101.465C65.6192 101.756 66.2081 101.903 66.8416 101.903ZM80.6011 104.111C79.4384 104.111 78.3965 103.855 77.4755 103.346C76.5545 102.82 75.8363 102.106 75.3237 101.203C74.8097 100.299 74.5528 99.2928 74.5528 98.1851C74.5528 97.076 74.8097 96.0702 75.3237 95.1663C75.8363 94.2624 76.5545 93.5557 77.4755 93.0461C78.3965 92.5204 79.4384 92.2588 80.6011 92.2588C81.7638 92.2588 82.8057 92.5204 83.7267 93.0461C84.6477 93.5704 85.3659 94.2852 85.8785 95.1891C86.3925 96.093 86.6495 97.0908 86.6495 98.1851C86.6495 99.2928 86.3925 100.299 85.8785 101.203C85.3659 102.106 84.6477 102.82 83.7267 103.346C82.8057 103.855 81.7638 104.111 80.6011 104.111ZM80.6011 101.903C81.236 101.903 81.8235 101.756 82.3681 101.465C82.9112 101.158 83.3419 100.729 83.6586 100.174C83.9906 99.6053 84.1573 98.9428 84.1573 98.1851C84.1573 97.4261 83.9906 96.7703 83.6586 96.2164C83.3419 95.6625 82.9112 95.2401 82.3681 94.9477C81.8235 94.642 81.236 94.4891 80.6011 94.4891C79.9663 94.4891 79.3772 94.642 78.8341 94.9477C78.2909 95.2401 77.852 95.6625 77.52 96.2164C77.2032 96.7703 77.0449 97.4261 77.0449 98.1851C77.0449 98.9428 77.2032 99.6053 77.52 100.174C77.852 100.729 78.2909 101.158 78.8341 101.465C79.3772 101.756 79.9663 101.903 80.6011 101.903ZM94.1564 108.835C92.7367 108.835 91.5587 108.521 90.6224 107.893C89.7014 107.267 89.0819 106.524 88.7652 105.663L91.0989 104.723C91.3392 105.306 91.7254 105.773 92.2533 106.123C92.7964 106.486 93.4313 106.669 94.1564 106.669C95.2136 106.669 96.0359 106.363 96.6249 105.75C97.2292 105.153 97.5307 104.307 97.5307 103.214V102.187H97.3959C97.018 102.711 96.5124 103.127 95.8776 103.433C95.258 103.724 94.5412 103.87 93.7258 103.87C92.7589 103.87 91.8615 103.63 91.0308 103.148C90.2001 102.667 89.5347 101.99 89.0374 101.115C88.554 100.225 88.3123 99.2124 88.3123 98.0751C88.3123 96.9379 88.554 95.9321 89.0374 95.0577C89.5347 94.1686 90.2001 93.4833 91.0308 93.0018C91.8615 92.5056 92.7589 92.2588 93.7258 92.2588C94.5259 92.2588 95.2441 92.4117 95.8776 92.7175C96.5124 93.0233 97.018 93.439 97.3959 93.9647H97.5307V92.6089H99.9103V103.148C99.9103 104.358 99.6685 105.387 99.1851 106.232C98.7017 107.093 98.0224 107.74 97.1458 108.178C96.2859 108.616 95.2886 108.835 94.1564 108.835ZM94.1786 101.684C94.7829 101.684 95.3414 101.545 95.8554 101.268C96.368 100.976 96.7764 100.562 97.0778 100.021C97.3807 99.4672 97.5307 98.8181 97.5307 98.0751C97.5307 96.9379 97.207 96.0555 96.5569 95.4292C95.9234 94.7882 95.1302 94.4676 94.1786 94.4676C93.5591 94.4676 92.9937 94.6125 92.4798 94.9048C91.9672 95.1811 91.5587 95.5901 91.2573 96.1292C90.9545 96.6683 90.8044 97.3174 90.8044 98.0751C90.8044 98.8329 90.9545 99.4819 91.2573 100.021C91.5587 100.562 91.9672 100.976 92.4798 101.268C92.9937 101.545 93.5591 101.684 94.1786 101.684ZM102.839 88.1042H105.329V103.761H102.839V88.1042ZM113.425 104.111C112.292 104.111 111.273 103.855 110.366 103.346C109.476 102.835 108.774 102.136 108.26 101.245C107.762 100.342 107.513 99.3291 107.513 98.2066C107.513 97.1418 107.755 96.1587 108.238 95.2548C108.736 94.3362 109.423 93.6067 110.298 93.0675C111.175 92.5284 112.171 92.2588 113.289 92.2588C114.452 92.2588 115.456 92.5056 116.302 93.0018C117.162 93.498 117.812 94.1753 118.25 95.0362C118.703 95.8959 118.929 96.8655 118.929 97.9437C118.929 98.1476 118.907 98.4037 118.861 98.7095H110.004C110.096 99.7448 110.472 100.547 111.137 101.115C111.817 101.669 112.601 101.946 113.493 101.946C114.203 101.946 114.814 101.793 115.327 101.487C115.856 101.166 116.279 100.736 116.597 100.197L118.703 101.158C118.159 102.077 117.45 102.798 116.573 103.324C115.698 103.849 114.648 104.111 113.425 104.111ZM116.393 96.8722C116.362 96.4792 116.234 96.093 116.008 95.7135C115.781 95.3205 115.433 94.992 114.964 94.7291C114.512 94.4676 113.953 94.3362 113.289 94.3362C112.489 94.3362 111.81 94.5695 111.25 95.0362C110.707 95.4882 110.329 96.0997 110.118 96.8722H116.393ZM126.915 88.1042H132.102C133.778 88.1042 135.243 88.4314 136.496 89.0872C137.749 89.743 138.709 90.6697 139.373 91.8646C140.052 93.0461 140.393 94.4019 140.393 95.9321C140.393 97.4636 140.052 98.8262 139.373 100.021C138.709 101.203 137.749 102.121 136.496 102.777C135.243 103.433 133.778 103.761 132.102 103.761H126.915V88.1042ZM132.057 101.421C133.869 101.421 135.281 100.94 136.292 99.9781C137.32 99.0005 137.833 97.6527 137.833 95.9321C137.833 94.2262 137.32 92.8852 136.292 91.9088C135.281 90.9312 133.869 90.443 132.057 90.443H129.452V101.421H132.057ZM147.822 104.111C146.69 104.111 145.67 103.855 144.764 103.346C143.874 102.835 143.171 102.136 142.657 101.245C142.16 100.342 141.91 99.3291 141.91 98.2066C141.91 97.1418 142.151 96.1587 142.635 95.2548C143.134 94.3362 143.821 93.6067 144.696 93.0675C145.573 92.5284 146.569 92.2588 147.686 92.2588C148.849 92.2588 149.853 92.5056 150.699 93.0018C151.56 93.498 152.209 94.1753 152.646 95.0362C153.101 95.8959 153.327 96.8655 153.327 97.9437C153.327 98.1476 153.304 98.4037 153.259 98.7095H144.402C144.492 99.7448 144.87 100.547 145.534 101.115C146.215 101.669 147 101.946 147.89 101.946C148.6 101.946 149.211 101.793 149.725 101.487C150.253 101.166 150.677 100.736 150.993 100.197L153.101 101.158C152.556 102.077 151.846 102.798 150.971 103.324C150.095 103.849 149.046 104.111 147.822 104.111ZM150.789 96.8722C150.76 96.4792 150.631 96.093 150.404 95.7135C150.178 95.3205 149.831 94.992 149.363 94.7291C148.91 94.4676 148.351 94.3362 147.686 94.3362C146.886 94.3362 146.206 94.5695 145.648 95.0362C145.105 95.4882 144.727 96.0997 144.516 96.8722H150.789ZM154.083 92.6089H156.869L160.063 100.655H160.153L163.415 92.6089H166.134L161.331 103.761H158.841L154.083 92.6089ZM172.686 104.111C171.553 104.111 170.534 103.855 169.627 103.346C168.737 102.835 168.035 102.136 167.521 101.245C167.023 100.342 166.774 99.3291 166.774 98.2066C166.774 97.1418 167.016 96.1587 167.499 95.2548C167.997 94.3362 168.684 93.6067 169.559 93.0675C170.436 92.5284 171.432 92.2588 172.55 92.2588C173.713 92.2588 174.717 92.5056 175.563 93.0018C176.423 93.498 177.073 94.1753 177.511 95.0362C177.964 95.8959 178.19 96.8655 178.19 97.9437C178.19 98.1476 178.168 98.4037 178.122 98.7095H169.265C169.357 99.7448 169.733 100.547 170.398 101.115C171.078 101.669 171.863 101.946 172.754 101.946C173.464 101.946 174.075 101.793 174.588 101.487C175.117 101.166 175.54 100.736 175.858 100.197L177.964 101.158C177.421 102.077 176.711 102.798 175.834 103.324C174.959 103.849 173.909 104.111 172.686 104.111ZM175.654 96.8722C175.623 96.4792 175.495 96.093 175.269 95.7135C175.042 95.3205 174.694 94.992 174.225 94.7291C173.773 94.4676 173.214 94.3362 172.55 94.3362C171.75 94.3362 171.071 94.5695 170.511 95.0362C169.968 95.4882 169.59 96.0997 169.379 96.8722H175.654ZM180.459 88.1042H182.951V103.761H180.459V88.1042ZM191.181 104.111C190.019 104.111 188.977 103.855 188.056 103.346C187.135 102.82 186.418 102.106 185.904 101.203C185.39 100.299 185.134 99.2928 185.134 98.1851C185.134 97.076 185.39 96.0702 185.904 95.1663C186.418 94.2624 187.135 93.5557 188.056 93.0461C188.977 92.5204 190.019 92.2588 191.181 92.2588C192.344 92.2588 193.386 92.5204 194.308 93.0461C195.229 93.5704 195.946 94.2852 196.46 95.1891C196.973 96.093 197.23 97.0908 197.23 98.1851C197.23 99.2928 196.973 100.299 196.46 101.203C195.946 102.106 195.229 102.82 194.308 103.346C193.386 103.855 192.344 104.111 191.181 104.111ZM191.181 101.903C191.816 101.903 192.405 101.756 192.948 101.465C193.493 101.158 193.922 100.729 194.24 100.174C194.572 99.6053 194.738 98.9428 194.738 98.1851C194.738 97.4261 194.572 96.7703 194.24 96.2164C193.922 95.6625 193.493 95.2401 192.948 94.9477C192.405 94.642 191.816 94.4891 191.181 94.4891C190.548 94.4891 189.959 94.642 189.414 94.9477C188.871 95.2401 188.434 95.6625 188.102 96.2164C187.784 96.7703 187.625 97.4261 187.625 98.1851C187.625 98.9428 187.784 99.6053 188.102 100.174C188.434 100.729 188.871 101.158 189.414 101.465C189.959 101.756 190.548 101.903 191.181 101.903ZM199.326 92.6089H201.704V94.0734H201.818C202.15 93.5637 202.64 93.1332 203.291 92.7832C203.939 92.4332 204.671 92.2588 205.487 92.2588C206.529 92.2588 207.473 92.5137 208.318 93.0233C209.164 93.5342 209.829 94.241 210.311 95.1449C210.81 96.034 211.06 97.0479 211.06 98.1851C211.06 99.3224 210.81 100.342 210.311 101.245C209.829 102.136 209.164 102.835 208.318 103.346C207.473 103.855 206.529 104.111 205.487 104.111C204.671 104.111 203.939 103.936 203.291 103.586C202.64 103.236 202.15 102.813 201.818 102.317H201.704L201.818 103.87V108.485H199.326V92.6089ZM205.124 101.903C205.729 101.903 206.295 101.748 206.823 101.443C207.352 101.137 207.775 100.7 208.092 100.131C208.41 99.5624 208.568 98.9133 208.568 98.1851C208.568 97.4556 208.41 96.8145 208.092 96.2607C207.775 95.692 207.352 95.2548 206.823 94.9477C206.295 94.642 205.729 94.4891 205.124 94.4891C204.521 94.4891 203.955 94.642 203.425 94.9477C202.913 95.2548 202.497 95.692 202.181 96.2607C201.863 96.8145 201.704 97.4556 201.704 98.1851C201.704 98.9133 201.863 99.5624 202.181 100.131C202.497 100.7 202.913 101.137 203.425 101.443C203.955 101.748 204.521 101.903 205.124 101.903ZM218.609 104.111C217.475 104.111 216.457 103.855 215.55 103.346C214.659 102.835 213.956 102.136 213.444 101.245C212.945 100.342 212.697 99.3291 212.697 98.2066C212.697 97.1418 212.938 96.1587 213.422 95.2548C213.919 94.3362 214.607 93.6067 215.482 93.0675C216.358 92.5284 217.354 92.2588 218.473 92.2588C219.635 92.2588 220.64 92.5056 221.484 93.0018C222.346 93.498 222.996 94.1753 223.433 95.0362C223.886 95.8959 224.113 96.8655 224.113 97.9437C224.113 98.1476 224.09 98.4037 224.044 98.7095H215.187C215.279 99.7448 215.655 100.547 216.321 101.115C217 101.669 217.785 101.946 218.677 101.946C219.385 101.946 219.998 101.793 220.51 101.487C221.04 101.166 221.462 100.736 221.779 100.197L223.886 101.158C223.343 102.077 222.633 102.798 221.757 103.324C220.881 103.849 219.831 104.111 218.609 104.111ZM221.576 96.8722C221.545 96.4792 221.418 96.093 221.191 95.7135C220.963 95.3205 220.616 94.992 220.148 94.7291C219.695 94.4676 219.137 94.3362 218.473 94.3362C217.672 94.3362 216.992 94.5695 216.433 95.0362C215.89 95.4882 215.512 96.0997 215.301 96.8722H221.576ZM226.381 92.6089H228.761V94.249H228.873C229.13 93.6804 229.576 93.2137 230.21 92.8489C230.844 92.4694 231.515 92.2803 232.225 92.2803C232.785 92.2803 233.253 92.3527 233.63 92.4989V94.992C232.966 94.7586 232.37 94.642 231.84 94.642C231.267 94.642 230.753 94.7881 230.3 95.0792C229.862 95.3715 229.515 95.7645 229.258 96.2607C229.001 96.7408 228.873 97.2732 228.873 97.8566V103.761H226.381V92.6089ZM245.26 104.111C243.915 104.111 242.708 103.732 241.635 102.974C240.563 102.215 239.822 101.152 239.415 99.781L241.816 98.8409C242.058 99.7005 242.481 100.407 243.084 100.961C243.704 101.502 244.444 101.771 245.304 101.771C246.105 101.771 246.785 101.574 247.343 101.181C247.902 100.772 248.181 100.218 248.181 99.5182C248.181 98.8771 247.932 98.3528 247.434 97.9437C246.95 97.5213 246.097 97.0988 244.875 96.675L243.855 96.3264C242.767 95.9616 241.853 95.4359 241.114 94.7519C240.374 94.0666 240.004 93.1627 240.004 92.0403C240.004 91.2665 240.222 90.553 240.661 89.8972C241.099 89.2401 241.703 88.7238 242.473 88.3442C243.258 87.95 244.141 87.7542 245.123 87.7542C246.543 87.7542 247.675 88.0894 248.521 88.76C249.367 89.4158 249.933 90.1587 250.22 90.9902L247.932 91.9303C247.766 91.4341 247.449 90.9969 246.981 90.6187C246.513 90.2392 245.908 90.0501 245.169 90.0501C244.429 90.0501 243.802 90.2325 243.288 90.5959C242.79 90.9607 242.541 91.4274 242.541 91.996C242.541 92.5351 242.767 92.9804 243.22 93.3304C243.673 93.6804 244.383 94.0157 245.35 94.3362L246.369 94.6634C247.759 95.1301 248.831 95.743 249.585 96.5007C250.356 97.2437 250.741 98.2428 250.741 99.4967C250.741 100.517 250.469 101.377 249.926 102.077C249.383 102.762 248.687 103.272 247.842 103.607C247.011 103.944 246.15 104.111 245.26 104.111ZM257.395 103.936C256.881 103.936 256.398 103.855 255.945 103.696C255.492 103.535 255.122 103.324 254.835 103.061C254.186 102.434 253.861 101.581 253.861 100.503V94.7291H251.845V92.6089H253.861V89.4587H256.353V92.6089H259.162V94.7291H256.353V99.9781C256.353 100.575 256.474 100.999 256.716 101.245C256.942 101.538 257.334 101.684 257.894 101.684C258.149 101.684 258.376 101.654 258.573 101.595C258.769 101.523 258.98 101.413 259.207 101.268V103.607C258.709 103.827 258.105 103.936 257.395 103.936ZM265.744 104.111C264.339 104.111 263.268 103.71 262.528 102.908C261.803 102.092 261.44 100.961 261.44 99.5182V92.6089H263.932V99.1909C263.932 100.095 264.151 100.772 264.59 101.224C265.042 101.676 265.631 101.903 266.356 101.903C266.945 101.903 267.466 101.756 267.919 101.465C268.372 101.158 268.719 100.757 268.961 100.262C269.203 99.7662 269.324 99.2338 269.324 98.6652V92.6089H271.814V103.761H269.46V102.317H269.324C269.006 102.843 268.515 103.272 267.851 103.607C267.186 103.944 266.484 104.111 265.744 104.111ZM279.542 104.111C278.5 104.111 277.557 103.855 276.711 103.346C275.865 102.835 275.193 102.136 274.696 101.245C274.212 100.342 273.97 99.3224 273.97 98.1851C273.97 97.0479 274.212 96.034 274.696 95.1449C275.193 94.241 275.865 93.5342 276.711 93.0233C277.557 92.5137 278.5 92.2588 279.542 92.2588C280.358 92.2588 281.09 92.4332 281.74 92.7832C282.389 93.1332 282.88 93.5637 283.212 94.0734H283.325L283.212 92.4989V88.1042H285.703V103.761H283.325V102.317H283.212C282.88 102.813 282.389 103.236 281.74 103.586C281.09 103.936 280.358 104.111 279.542 104.111ZM279.905 101.903C280.509 101.903 281.068 101.748 281.582 101.443C282.109 101.137 282.533 100.7 282.85 100.131C283.167 99.5624 283.325 98.9133 283.325 98.1851C283.325 97.4556 283.167 96.8145 282.85 96.2607C282.533 95.692 282.109 95.2548 281.582 94.9477C281.068 94.642 280.509 94.4891 279.905 94.4891C279.301 94.4891 278.735 94.642 278.206 94.9477C277.678 95.2548 277.254 95.692 276.938 96.2607C276.621 96.8145 276.463 97.4556 276.463 98.1851C276.463 98.9133 276.621 99.5624 276.938 100.131C277.254 100.7 277.678 101.137 278.206 101.443C278.735 101.748 279.301 101.903 279.905 101.903ZM293.774 104.111C292.642 104.111 291.622 103.855 290.717 103.346C289.825 102.835 289.123 102.136 288.609 101.245C288.111 100.342 287.862 99.3291 287.862 98.2066C287.862 97.1418 288.104 96.1587 288.587 95.2548C289.086 94.3362 289.772 93.6067 290.649 93.0675C291.524 92.5284 292.521 92.2588 293.638 92.2588C294.801 92.2588 295.805 92.5056 296.651 93.0018C297.511 93.498 298.161 94.1753 298.599 95.0362C299.051 95.8959 299.278 96.8655 299.278 97.9437C299.278 98.1476 299.256 98.4037 299.21 98.7095H290.354C290.444 99.7448 290.822 100.547 291.486 101.115C292.166 101.669 292.95 101.946 293.842 101.946C294.552 101.946 295.163 101.793 295.677 101.487C296.205 101.166 296.627 100.736 296.946 100.197L299.051 101.158C298.508 102.077 297.798 102.798 296.922 103.324C296.047 103.849 294.997 104.111 293.774 104.111ZM296.741 96.8722C296.711 96.4792 296.583 96.093 296.357 95.7135C296.13 95.3205 295.783 94.992 295.315 94.7291C294.862 94.4676 294.302 94.3362 293.638 94.3362C292.838 94.3362 292.159 94.5695 291.6 95.0362C291.056 95.4882 290.678 96.0997 290.467 96.8722H296.741ZM301.548 92.6089H303.926V94.0734H304.038C304.37 93.549 304.862 93.1185 305.511 92.7832C306.176 92.4332 306.878 92.2588 307.618 92.2588C309.023 92.2588 310.087 92.6598 310.812 93.4605C311.551 94.249 311.922 95.3273 311.922 96.6979V103.761H309.43V97.0251C309.43 96.1507 309.203 95.5096 308.751 95.1006C308.313 94.6929 307.7 94.4891 306.915 94.4891C306.357 94.4891 305.858 94.642 305.421 94.9477C304.983 95.2401 304.643 95.633 304.401 96.1292C304.159 96.6241 304.038 97.1565 304.038 97.7251V103.761H301.548V92.6089ZM318.89 103.936C318.377 103.936 317.894 103.855 317.441 103.696C316.988 103.535 316.617 103.324 316.331 103.061C315.681 102.434 315.356 101.581 315.356 100.503V94.7291H313.34V92.6089H315.356V89.4587H317.848V92.6089H320.657V94.7291H317.848V99.9781C317.848 100.575 317.969 100.999 318.211 101.245C318.437 101.538 318.83 101.684 319.389 101.684C319.646 101.684 319.872 101.654 320.068 101.595C320.264 101.523 320.476 101.413 320.703 101.268V103.607C320.204 103.827 319.6 103.936 318.89 103.936ZM335.957 104.111C334.386 104.111 332.952 103.753 331.653 103.04C330.355 102.325 329.335 101.341 328.594 100.087C327.855 98.8329 327.485 97.4489 327.485 95.9321C327.485 94.4167 327.855 93.0313 328.594 91.7774C329.335 90.5235 330.355 89.5391 331.653 88.8257C332.952 88.1109 334.386 87.7542 335.957 87.7542C337.179 87.7542 338.289 87.9727 339.287 88.4099C340.298 88.8471 341.19 89.4815 341.959 90.3116L340.148 91.996C339.588 91.355 338.97 90.8802 338.289 90.5744C337.61 90.2539 336.832 90.093 335.957 90.093C334.869 90.093 333.873 90.3344 332.967 90.8145C332.076 91.296 331.366 91.9813 330.838 92.8704C330.309 93.7448 330.045 94.7654 330.045 95.9321C330.045 97.0988 330.309 98.1261 330.838 99.0152C331.366 99.8896 332.076 100.568 332.967 101.05C333.873 101.53 334.869 101.771 335.957 101.771C337.768 101.771 339.309 101.042 340.577 99.5839L342.412 101.29C341.627 102.179 340.683 102.872 339.581 103.367C338.478 103.863 337.271 104.111 335.957 104.111ZM344.615 88.1042H347.108V103.761H344.615V88.1042ZM354.249 104.111C352.845 104.111 351.772 103.71 351.032 102.908C350.307 102.092 349.946 100.961 349.946 99.5182V92.6089H352.436V99.1909C352.436 100.095 352.656 100.772 353.094 101.224C353.546 101.676 354.135 101.903 354.86 101.903C355.449 101.903 355.97 101.756 356.423 101.465C356.876 101.158 357.223 100.757 357.465 100.262C357.707 99.7662 357.828 99.2338 357.828 98.6652V92.6089H360.32V103.761H357.964V102.317H357.828C357.511 102.843 357.019 103.272 356.355 103.607C355.691 103.944 354.988 104.111 354.249 104.111ZM369.381 104.111C368.566 104.111 367.832 103.936 367.184 103.586C366.534 103.236 366.043 102.813 365.711 102.317H365.599V103.761H363.219V88.1042H365.711V92.4989L365.599 94.0734H365.711C366.043 93.5637 366.534 93.1332 367.184 92.7832C367.832 92.4332 368.566 92.2588 369.381 92.2588C370.423 92.2588 371.366 92.5137 372.212 93.0233C373.058 93.5342 373.722 94.241 374.206 95.1449C374.704 96.034 374.953 97.0479 374.953 98.1851C374.953 99.3224 374.704 100.342 374.206 101.245C373.722 102.136 373.058 102.835 372.212 103.346C371.366 103.855 370.423 104.111 369.381 104.111ZM369.019 101.903C369.623 101.903 370.188 101.748 370.718 101.443C371.245 101.137 371.669 100.7 371.986 100.131C372.303 99.5624 372.461 98.9133 372.461 98.1851C372.461 97.4556 372.303 96.8145 371.986 96.2607C371.669 95.692 371.245 95.2548 370.718 94.9477C370.188 94.642 369.623 94.4891 369.019 94.4891C368.414 94.4891 367.848 94.642 367.32 94.9477C366.806 95.2548 366.39 95.692 366.074 96.2607C365.757 96.8145 365.599 97.4556 365.599 98.1851C365.599 98.9133 365.757 99.5624 366.074 100.131C366.39 100.7 366.806 101.137 367.32 101.443C367.848 101.748 368.414 101.903 369.019 101.903ZM381.324 104.111C379.996 104.111 378.908 103.834 378.062 103.28C377.217 102.711 376.62 101.99 376.273 101.115L378.493 100.174C378.765 100.757 379.143 101.203 379.626 101.508C380.123 101.814 380.69 101.968 381.324 101.968C381.943 101.968 382.464 101.865 382.888 101.661C383.31 101.443 383.521 101.122 383.521 100.7C383.521 100.291 383.341 99.9701 382.978 99.7367C382.616 99.5034 382.057 99.2996 381.301 99.1252L379.919 98.7966C378.998 98.578 378.236 98.1918 377.633 97.6379C377.028 97.0841 376.726 96.384 376.726 95.5391C376.726 94.882 376.923 94.3067 377.315 93.8105C377.723 93.3156 378.266 92.9361 378.946 92.6732C379.626 92.397 380.365 92.2588 381.165 92.2588C382.238 92.2588 383.182 92.4694 383.998 92.8932C384.813 93.3009 385.402 93.899 385.763 94.6862L383.589 95.6035C383.152 94.7439 382.352 94.3134 381.189 94.3134C380.629 94.3134 380.161 94.4234 379.785 94.642C379.407 94.8606 379.218 95.1449 379.218 95.4949C379.218 95.8302 379.361 96.1078 379.648 96.3264C379.935 96.5302 380.358 96.7046 380.917 96.8507L382.616 97.2665C383.748 97.5427 384.601 97.9665 385.174 98.5338C385.763 99.089 386.058 99.7743 386.058 100.59C386.058 101.29 385.847 101.909 385.424 102.448C385.016 102.974 384.451 103.382 383.726 103.673C383 103.965 382.2 104.111 381.324 104.111Z" fill="#242424"/>
<path d="M222.741 53.6167L241.379 43.2283C243.976 41.7805 247.298 42.6397 248.797 45.1474C250.297 47.6551 249.407 50.8616 246.81 52.3095L228.172 62.6978C225.574 64.1456 222.253 63.2864 220.753 60.7787C219.253 58.2711 220.143 55.0645 222.741 53.6167Z" fill="#FBBC04"/>
<path d="M209.505 41.8648L190.867 52.2531C188.27 53.7009 184.948 52.8417 183.449 50.3341C181.949 47.8264 182.839 44.6198 185.436 43.172L204.074 32.7836C206.672 31.3358 209.993 32.195 211.493 34.7027C212.993 37.2104 212.103 40.417 209.505 41.8648Z" fill="#EA4335"/>
<path d="M209.046 53.6153L190.408 43.2269C187.811 41.7791 184.489 42.6384 182.99 45.146C181.49 47.6537 182.38 50.8603 184.977 52.3081L203.615 62.6965C206.213 64.1443 209.534 63.2851 211.034 60.7774C212.534 58.2697 211.644 55.0631 209.046 53.6153Z" fill="#4285F4"/>
<path d="M222.422 41.6884L241.693 52.4296C244.116 53.78 247.214 52.9785 248.613 50.6396L248.978 50.0286C250.377 47.6896 249.547 44.6988 247.124 43.3484L227.853 32.6073C225.43 31.2569 222.332 32.0583 220.934 34.3972L220.568 35.0082C219.169 37.3472 220 40.338 222.422 41.6884Z" fill="#0F9D58"/>
<path d="M80.6777 121.38H84.9618C85.562 121.38 86.1232 121.514 86.6455 121.783C87.179 122.051 87.6013 122.421 87.9124 122.893C88.2236 123.365 88.3792 123.896 88.3792 124.486C88.3792 125.044 88.2292 125.532 87.9291 125.951C87.6402 126.369 87.2456 126.691 86.7455 126.916V126.981C87.3456 127.174 87.8346 127.506 88.2125 127.978C88.5903 128.45 88.7793 129.003 88.7793 129.636C88.7793 130.258 88.6125 130.821 88.2791 131.326C87.9568 131.819 87.5179 132.205 86.9622 132.484C86.4177 132.763 85.8287 132.903 85.1953 132.903H80.6777V121.38ZM84.9618 126.369C85.3619 126.369 85.712 126.278 86.0121 126.095C86.3233 125.913 86.5622 125.682 86.7289 125.403C86.8956 125.114 86.9789 124.819 86.9789 124.518C86.9789 124.229 86.8956 123.944 86.7289 123.665C86.5733 123.376 86.3455 123.14 86.0454 122.957C85.7565 122.775 85.4175 122.684 85.0286 122.684H82.078V126.369H84.9618ZM85.2786 131.599C85.6787 131.599 86.0343 131.503 86.3455 131.31C86.6678 131.116 86.9123 130.87 87.079 130.569C87.2568 130.258 87.3456 129.942 87.3456 129.62C87.3456 129.298 87.2568 128.987 87.079 128.686C86.9012 128.375 86.6511 128.129 86.3288 127.946C86.0065 127.753 85.6342 127.656 85.2119 127.656H82.078V131.599H85.2786ZM93.2203 133.16C92.598 133.16 92.0423 133.042 91.5533 132.806C91.0644 132.57 90.6865 132.248 90.4198 131.841C90.1531 131.422 90.0197 130.95 90.0197 130.424C90.0197 129.555 90.3587 128.88 91.0366 128.397C91.7146 127.903 92.5702 127.656 93.6037 127.656C94.1149 127.656 94.5873 127.71 95.0207 127.817C95.4652 127.925 95.8042 128.048 96.0375 128.188V127.689C96.0375 127.077 95.8153 126.589 95.3708 126.224C94.9263 125.849 94.365 125.661 93.6871 125.661C93.2092 125.661 92.7703 125.763 92.3702 125.967C91.9701 126.16 91.6534 126.433 91.4201 126.787L90.3532 126.015C90.6866 125.521 91.1421 125.135 91.72 124.856C92.309 124.577 92.9592 124.438 93.6705 124.438C94.8262 124.438 95.732 124.733 96.3876 125.323C97.0544 125.902 97.3878 126.696 97.3878 127.705V132.903H96.0375V131.728H95.9708C95.7263 132.125 95.3596 132.463 94.8706 132.742C94.3816 133.021 93.8316 133.16 93.2203 133.16ZM93.3537 131.953C93.8316 131.953 94.2761 131.835 94.6873 131.599C95.0985 131.363 95.4264 131.047 95.6708 130.65C95.9153 130.253 96.0375 129.818 96.0375 129.346C95.7708 129.175 95.443 129.035 95.054 128.928C94.6651 128.821 94.2539 128.767 93.8205 128.767C93.0425 128.767 92.4536 128.922 92.0535 129.234C91.6645 129.545 91.47 129.947 91.47 130.441C91.47 130.891 91.6479 131.256 92.0035 131.535C92.3591 131.814 92.8092 131.953 93.3537 131.953ZM100.192 123.183C99.9146 123.183 99.6757 123.086 99.4757 122.893C99.2756 122.7 99.1756 122.469 99.1756 122.201C99.1756 121.933 99.2756 121.707 99.4757 121.525C99.6757 121.332 99.9146 121.235 100.192 121.235C100.47 121.235 100.709 121.332 100.909 121.525C101.109 121.707 101.209 121.933 101.209 122.201C101.209 122.469 101.109 122.7 100.909 122.893C100.72 123.086 100.481 123.183 100.192 123.183ZM98.5589 136.54C98.2921 136.54 98.0421 136.502 97.8087 136.427V135.124C97.8976 135.177 98.0088 135.22 98.1421 135.252C98.2755 135.285 98.3977 135.301 98.5088 135.301C98.8533 135.301 99.1034 135.193 99.2589 134.979C99.4145 134.775 99.4924 134.469 99.4924 134.061V124.695H100.893V134.061C100.893 134.888 100.687 135.504 100.276 135.912C99.8647 136.331 99.2923 136.54 98.5589 136.54ZM105.755 133.16C105.132 133.16 104.577 133.042 104.088 132.806C103.599 132.57 103.221 132.248 102.954 131.841C102.687 131.422 102.554 130.95 102.554 130.424C102.554 129.555 102.893 128.88 103.571 128.397C104.249 127.903 105.105 127.656 106.138 127.656C106.649 127.656 107.122 127.71 107.555 127.817C108 127.925 108.338 128.048 108.572 128.188V127.689C108.572 127.077 108.35 126.589 107.905 126.224C107.46 125.849 106.899 125.661 106.221 125.661C105.744 125.661 105.305 125.763 104.904 125.967C104.504 126.16 104.188 126.433 103.954 126.787L102.887 126.015C103.221 125.521 103.676 125.135 104.254 124.856C104.843 124.577 105.493 124.438 106.205 124.438C107.36 124.438 108.266 124.733 108.922 125.323C109.589 125.902 109.922 126.696 109.922 127.705V132.903H108.572V131.728H108.505C108.261 132.125 107.894 132.463 107.405 132.742C106.916 133.021 106.366 133.16 105.755 133.16ZM105.888 131.953C106.366 131.953 106.81 131.835 107.222 131.599C107.633 131.363 107.961 131.047 108.205 130.65C108.45 130.253 108.572 129.818 108.572 129.346C108.305 129.175 107.977 129.035 107.588 128.928C107.199 128.821 106.788 128.767 106.355 128.767C105.577 128.767 104.988 128.922 104.588 129.234C104.199 129.545 104.004 129.947 104.004 130.441C104.004 130.891 104.182 131.256 104.538 131.535C104.893 131.814 105.343 131.953 105.888 131.953ZM112.727 123.183C112.449 123.183 112.21 123.086 112.01 122.893C111.81 122.7 111.71 122.469 111.71 122.201C111.71 121.933 111.81 121.707 112.01 121.525C112.21 121.332 112.449 121.235 112.727 121.235C113.005 121.235 113.243 121.332 113.444 121.525C113.644 121.707 113.744 121.933 113.744 122.201C113.744 122.469 113.644 122.7 113.444 122.893C113.255 123.086 113.016 123.183 112.727 123.183ZM111.093 136.54C110.826 136.54 110.576 136.502 110.343 136.427V135.124C110.432 135.177 110.543 135.22 110.676 135.252C110.81 135.285 110.932 135.301 111.043 135.301C111.388 135.301 111.638 135.193 111.793 134.979C111.949 134.775 112.027 134.469 112.027 134.061V124.695H113.427V134.061C113.427 134.888 113.221 135.504 112.81 135.912C112.399 136.331 111.827 136.54 111.093 136.54ZM119.811 121.38H121.212V132.903H119.811V121.38ZM123.598 124.695H124.948V125.902H125.015C125.249 125.495 125.621 125.151 126.132 124.872C126.643 124.583 127.188 124.438 127.766 124.438C128.788 124.438 129.566 124.728 130.099 125.307C130.644 125.876 130.916 126.653 130.916 127.64V132.903H129.499V127.85C129.499 127.088 129.31 126.535 128.933 126.192C128.555 125.849 128.038 125.677 127.382 125.677C126.927 125.677 126.515 125.8 126.149 126.047C125.793 126.294 125.515 126.621 125.315 127.029C125.115 127.426 125.015 127.844 125.015 128.284V132.903H123.598V124.695ZM135.828 133.16C134.917 133.16 134.156 132.956 133.545 132.549C132.933 132.13 132.5 131.599 132.244 130.956L133.511 130.408C133.722 130.902 134.034 131.283 134.445 131.551C134.867 131.819 135.328 131.953 135.828 131.953C136.362 131.953 136.817 131.851 137.195 131.648C137.573 131.433 137.762 131.133 137.762 130.746C137.762 130.403 137.612 130.129 137.312 129.926C137.012 129.711 136.54 129.529 135.895 129.378L134.861 129.121C134.184 128.96 133.628 128.686 133.194 128.3C132.761 127.914 132.544 127.415 132.544 126.804C132.544 126.331 132.689 125.918 132.978 125.564C133.278 125.2 133.672 124.921 134.161 124.728C134.65 124.534 135.178 124.438 135.745 124.438C136.489 124.438 137.151 124.593 137.729 124.905C138.318 125.216 138.734 125.65 138.979 126.208L137.745 126.755C137.367 126.026 136.695 125.661 135.728 125.661C135.262 125.661 134.85 125.768 134.495 125.983C134.15 126.187 133.978 126.449 133.978 126.771C133.978 127.072 134.1 127.319 134.345 127.512C134.589 127.694 134.956 127.844 135.445 127.962L136.678 128.268C137.512 128.472 138.14 128.778 138.562 129.185C138.984 129.582 139.196 130.07 139.196 130.65C139.196 131.154 139.046 131.599 138.746 131.985C138.445 132.361 138.04 132.651 137.529 132.855C137.017 133.058 136.451 133.16 135.828 133.16ZM143.926 133.032C143.581 133.032 143.259 132.978 142.959 132.871C142.67 132.763 142.425 132.618 142.225 132.436C142.003 132.232 141.836 131.996 141.725 131.728C141.614 131.46 141.558 131.133 141.558 130.746V125.935H140.075V124.695H141.558V122.378H142.975V124.695H145.042V125.935H142.975V130.408C142.975 130.859 143.064 131.192 143.242 131.406C143.453 131.642 143.759 131.76 144.159 131.76C144.481 131.76 144.792 131.669 145.092 131.487V132.822C144.926 132.897 144.754 132.951 144.576 132.983C144.409 133.015 144.192 133.032 143.926 133.032ZM147.679 123.183C147.401 123.183 147.162 123.086 146.962 122.893C146.762 122.7 146.662 122.469 146.662 122.201C146.662 121.933 146.762 121.707 146.962 121.525C147.162 121.332 147.401 121.235 147.679 121.235C147.957 121.235 148.196 121.332 148.396 121.525C148.596 121.707 148.696 121.933 148.696 122.201C148.696 122.469 148.596 122.7 148.396 122.893C148.207 123.086 147.968 123.183 147.679 123.183ZM146.979 124.695H148.379V132.903H146.979V124.695ZM153.791 133.032C153.447 133.032 153.125 132.978 152.824 132.871C152.536 132.763 152.291 132.618 152.091 132.436C151.869 132.232 151.702 131.996 151.591 131.728C151.48 131.46 151.424 131.133 151.424 130.746V125.935H149.941V124.695H151.424V122.378H152.841V124.695H154.908V125.935H152.841V130.408C152.841 130.859 152.93 131.192 153.108 131.406C153.319 131.642 153.625 131.76 154.025 131.76C154.347 131.76 154.658 131.669 154.958 131.487V132.822C154.791 132.897 154.619 132.951 154.441 132.983C154.275 133.015 154.058 133.032 153.791 133.032ZM159.713 133.16C158.691 133.16 157.907 132.871 157.363 132.291C156.829 131.712 156.563 130.902 156.563 129.861V124.695H157.98V129.652C157.98 130.435 158.163 131.009 158.53 131.374C158.896 131.739 159.391 131.921 160.013 131.921C160.491 131.921 160.914 131.798 161.28 131.551C161.658 131.304 161.947 130.982 162.147 130.585C162.358 130.188 162.464 129.77 162.464 129.33V124.695H163.881V132.903H162.53V131.712H162.464C162.23 132.12 161.858 132.463 161.347 132.742C160.836 133.021 160.291 133.16 159.713 133.16ZM169.322 133.032C168.978 133.032 168.655 132.978 168.355 132.871C168.066 132.763 167.822 132.618 167.622 132.436C167.399 132.232 167.233 131.996 167.122 131.728C167.01 131.46 166.955 131.133 166.955 130.746V125.935H165.471V124.695H166.955V122.378H168.372V124.695H170.439V125.935H168.372V130.408C168.372 130.859 168.461 131.192 168.639 131.406C168.85 131.642 169.155 131.76 169.555 131.76C169.878 131.76 170.189 131.669 170.489 131.487V132.822C170.322 132.897 170.15 132.951 169.972 132.983C169.805 133.015 169.589 133.032 169.322 133.032ZM175.569 133.16C174.758 133.16 174.03 132.973 173.385 132.597C172.741 132.222 172.235 131.707 171.868 131.052C171.513 130.387 171.335 129.641 171.335 128.815C171.335 128.021 171.502 127.292 171.835 126.626C172.18 125.961 172.663 125.43 173.285 125.033C173.908 124.636 174.63 124.438 175.452 124.438C176.286 124.438 177.008 124.62 177.619 124.985C178.231 125.339 178.697 125.833 179.02 126.466C179.353 127.099 179.52 127.823 179.52 128.638C179.52 128.799 179.503 128.939 179.47 129.057H172.752C172.785 129.679 172.941 130.205 173.219 130.634C173.496 131.063 173.846 131.385 174.269 131.599C174.702 131.814 175.152 131.921 175.619 131.921C176.708 131.921 177.547 131.428 178.136 130.441L179.336 131.004C178.97 131.669 178.47 132.195 177.836 132.581C177.214 132.967 176.458 133.16 175.569 133.16ZM178.019 127.93C177.997 127.587 177.897 127.243 177.719 126.9C177.542 126.557 177.258 126.267 176.869 126.031C176.491 125.795 176.014 125.677 175.436 125.677C174.769 125.677 174.202 125.886 173.735 126.305C173.28 126.712 172.98 127.254 172.835 127.93H178.019ZM188.969 133.16C188.135 133.16 187.385 132.967 186.718 132.581C186.052 132.195 185.529 131.669 185.151 131.004C184.785 130.339 184.601 129.604 184.601 128.799C184.601 127.994 184.785 127.26 185.151 126.594C185.529 125.929 186.052 125.403 186.718 125.017C187.385 124.631 188.135 124.438 188.969 124.438C189.802 124.438 190.552 124.631 191.219 125.017C191.886 125.403 192.403 125.929 192.769 126.594C193.147 127.26 193.336 127.994 193.336 128.799C193.336 129.604 193.147 130.339 192.769 131.004C192.403 131.669 191.886 132.195 191.219 132.581C190.552 132.967 189.802 133.16 188.969 133.16ZM188.969 131.921C189.491 131.921 189.974 131.798 190.419 131.551C190.875 131.293 191.236 130.929 191.503 130.457C191.78 129.985 191.919 129.432 191.919 128.799C191.919 128.166 191.78 127.614 191.503 127.141C191.236 126.669 190.875 126.31 190.419 126.063C189.974 125.806 189.491 125.677 188.969 125.677C188.446 125.677 187.957 125.806 187.502 126.063C187.046 126.31 186.679 126.669 186.402 127.141C186.135 127.614 186.002 128.166 186.002 128.799C186.002 129.432 186.135 129.985 186.402 130.457C186.679 130.929 187.046 131.293 187.502 131.551C187.957 131.798 188.446 131.921 188.969 131.921ZM195.721 125.935H194.154V124.695H195.721V123.81C195.721 123.295 195.844 122.845 196.088 122.458C196.333 122.072 196.66 121.777 197.072 121.573C197.483 121.359 197.938 121.251 198.438 121.251C198.916 121.251 199.333 121.316 199.689 121.445V122.78C199.489 122.705 199.3 122.646 199.122 122.603C198.944 122.55 198.733 122.523 198.489 122.523C198.122 122.523 197.805 122.652 197.538 122.909C197.272 123.156 197.138 123.504 197.138 123.955V124.695H199.322V125.935H197.138V132.903H195.721V125.935ZM206.996 122.684H203.645V121.38H211.747V122.684H208.413V132.903H206.996V122.684ZM215.696 133.16C214.885 133.16 214.157 132.973 213.512 132.597C212.868 132.222 212.362 131.707 211.995 131.052C211.64 130.387 211.462 129.641 211.462 128.815C211.462 128.021 211.629 127.292 211.962 126.626C212.306 125.961 212.79 125.43 213.412 125.033C214.035 124.636 214.757 124.438 215.579 124.438C216.413 124.438 217.135 124.62 217.746 124.985C218.358 125.339 218.824 125.833 219.147 126.466C219.48 127.099 219.647 127.823 219.647 128.638C219.647 128.799 219.63 128.939 219.597 129.057H212.879C212.912 129.679 213.068 130.205 213.345 130.634C213.623 131.063 213.973 131.385 214.396 131.599C214.829 131.814 215.279 131.921 215.746 131.921C216.835 131.921 217.674 131.428 218.263 130.441L219.463 131.004C219.097 131.669 218.596 132.195 217.963 132.581C217.341 132.967 216.585 133.16 215.696 133.16ZM218.146 127.93C218.124 127.587 218.024 127.243 217.846 126.9C217.668 126.557 217.385 126.267 216.996 126.031C216.618 125.795 216.14 125.677 215.563 125.677C214.896 125.677 214.329 125.886 213.862 126.305C213.407 126.712 213.107 127.254 212.962 127.93H218.146ZM225.238 133.16C224.416 133.16 223.677 132.973 223.021 132.597C222.365 132.211 221.854 131.69 221.487 131.036C221.121 130.371 220.937 129.625 220.937 128.799C220.937 127.973 221.121 127.227 221.487 126.562C221.854 125.897 222.365 125.377 223.021 125.001C223.677 124.626 224.416 124.438 225.238 124.438C226.16 124.438 226.933 124.647 227.555 125.065C228.188 125.473 228.639 126.02 228.905 126.707L227.622 127.222C227.411 126.718 227.094 126.337 226.672 126.079C226.26 125.811 225.76 125.677 225.171 125.677C224.671 125.677 224.204 125.811 223.771 126.079C223.338 126.337 222.988 126.702 222.721 127.174C222.465 127.646 222.337 128.188 222.337 128.799C222.337 129.411 222.465 129.952 222.721 130.424C222.988 130.897 223.338 131.267 223.771 131.535C224.204 131.792 224.671 131.921 225.171 131.921C225.771 131.921 226.288 131.787 226.722 131.519C227.155 131.251 227.477 130.87 227.688 130.376L228.955 130.891C228.666 131.567 228.2 132.114 227.555 132.533C226.922 132.951 226.149 133.16 225.238 133.16ZM230.486 121.38H231.903V124.776L231.836 125.902H231.903C232.136 125.484 232.503 125.135 233.003 124.856C233.514 124.577 234.07 124.438 234.67 124.438C235.704 124.438 236.493 124.733 237.037 125.323C237.582 125.902 237.854 126.675 237.854 127.64V132.903H236.437V127.85C236.437 127.109 236.243 126.562 235.854 126.208C235.465 125.854 234.959 125.677 234.337 125.677C233.892 125.677 233.481 125.806 233.103 126.063C232.737 126.321 232.442 126.653 232.22 127.061C232.009 127.469 231.903 127.892 231.903 128.332V132.903H230.486V121.38ZM239.896 124.695H241.247V125.902H241.313C241.547 125.495 241.919 125.151 242.43 124.872C242.941 124.583 243.486 124.438 244.064 124.438C245.086 124.438 245.864 124.728 246.397 125.307C246.942 125.876 247.214 126.653 247.214 127.64V132.903H245.797V127.85C245.797 127.088 245.608 126.535 245.231 126.192C244.853 125.849 244.336 125.677 243.68 125.677C243.225 125.677 242.813 125.8 242.447 126.047C242.091 126.294 241.813 126.621 241.613 127.029C241.413 127.426 241.313 127.844 241.313 128.284V132.903H239.896V124.695ZM253.157 133.16C252.324 133.16 251.573 132.967 250.907 132.581C250.24 132.195 249.718 131.669 249.34 131.004C248.973 130.339 248.79 129.604 248.79 128.799C248.79 127.994 248.973 127.26 249.34 126.594C249.718 125.929 250.24 125.403 250.907 125.017C251.573 124.631 252.324 124.438 253.157 124.438C253.991 124.438 254.741 124.631 255.407 125.017C256.074 125.403 256.591 125.929 256.958 126.594C257.336 127.26 257.525 127.994 257.525 128.799C257.525 129.604 257.336 130.339 256.958 131.004C256.591 131.669 256.074 132.195 255.407 132.581C254.741 132.967 253.991 133.16 253.157 133.16ZM253.157 131.921C253.679 131.921 254.163 131.798 254.607 131.551C255.063 131.293 255.424 130.929 255.691 130.457C255.969 129.985 256.108 129.432 256.108 128.799C256.108 128.166 255.969 127.614 255.691 127.141C255.424 126.669 255.063 126.31 254.607 126.063C254.163 125.806 253.679 125.677 253.157 125.677C252.635 125.677 252.146 125.806 251.69 126.063C251.234 126.31 250.868 126.669 250.59 127.141C250.323 127.614 250.19 128.166 250.19 128.799C250.19 129.432 250.323 129.985 250.59 130.457C250.868 130.929 251.234 131.293 251.69 131.551C252.146 131.798 252.635 131.921 253.157 131.921ZM259.089 121.38H260.506V132.903H259.089V121.38ZM266.441 133.16C265.608 133.16 264.858 132.967 264.191 132.581C263.524 132.195 263.002 131.669 262.624 131.004C262.257 130.339 262.074 129.604 262.074 128.799C262.074 127.994 262.257 127.26 262.624 126.594C263.002 125.929 263.524 125.403 264.191 125.017C264.858 124.631 265.608 124.438 266.441 124.438C267.275 124.438 268.025 124.631 268.692 125.017C269.359 125.403 269.875 125.929 270.242 126.594C270.62 127.26 270.809 127.994 270.809 128.799C270.809 129.604 270.62 130.339 270.242 131.004C269.875 131.669 269.359 132.195 268.692 132.581C268.025 132.967 267.275 133.16 266.441 133.16ZM266.441 131.921C266.964 131.921 267.447 131.798 267.892 131.551C268.347 131.293 268.709 130.929 268.975 130.457C269.253 129.985 269.392 129.432 269.392 128.799C269.392 128.166 269.253 127.614 268.975 127.141C268.709 126.669 268.347 126.31 267.892 126.063C267.447 125.806 266.964 125.677 266.441 125.677C265.919 125.677 265.43 125.806 264.975 126.063C264.519 126.31 264.152 126.669 263.874 127.141C263.608 127.614 263.474 128.166 263.474 128.799C263.474 129.432 263.608 129.985 263.874 130.457C264.152 130.929 264.519 131.293 264.975 131.551C265.43 131.798 265.919 131.921 266.441 131.921ZM276.188 136.636C275.188 136.636 274.36 136.411 273.704 135.96C273.059 135.51 272.626 134.968 272.404 134.335L273.687 133.804C273.876 134.276 274.187 134.657 274.621 134.947C275.065 135.247 275.588 135.397 276.188 135.397C277.066 135.397 277.744 135.15 278.221 134.657C278.71 134.163 278.955 133.466 278.955 132.565V131.648H278.888C278.61 132.066 278.216 132.409 277.705 132.677C277.205 132.935 276.632 133.064 275.988 133.064C275.254 133.064 274.582 132.881 273.971 132.517C273.371 132.152 272.893 131.642 272.537 130.988C272.181 130.333 272.004 129.588 272.004 128.751C272.004 127.925 272.181 127.184 272.537 126.53C272.893 125.865 273.371 125.35 273.971 124.985C274.582 124.62 275.254 124.438 275.988 124.438C276.632 124.438 277.205 124.572 277.705 124.84C278.216 125.098 278.61 125.441 278.888 125.87H278.955V124.695H280.305V132.581C280.305 133.901 279.927 134.904 279.172 135.59C278.416 136.288 277.421 136.636 276.188 136.636ZM276.188 131.825C276.699 131.825 277.16 131.701 277.571 131.454C277.994 131.208 278.327 130.854 278.572 130.392C278.827 129.931 278.955 129.384 278.955 128.751C278.955 128.107 278.827 127.555 278.572 127.093C278.327 126.632 277.994 126.283 277.571 126.047C277.16 125.8 276.699 125.677 276.188 125.677C275.677 125.677 275.21 125.8 274.787 126.047C274.365 126.294 274.026 126.648 273.771 127.109C273.526 127.571 273.404 128.118 273.404 128.751C273.404 129.384 273.526 129.936 273.771 130.408C274.026 130.87 274.365 131.224 274.787 131.471C275.21 131.707 275.677 131.825 276.188 131.825ZM285.002 132.388L281.485 124.695H283.018L285.685 130.795H285.719L288.286 124.695H289.819L284.568 136.379H283.102L285.002 132.388ZM289.624 134.239L290.507 132.903C290.307 132.871 290.129 132.769 289.974 132.597C289.818 132.425 289.74 132.216 289.74 131.969C289.74 131.69 289.84 131.454 290.04 131.261C290.251 131.057 290.507 130.956 290.807 130.956C291.107 130.956 291.357 131.057 291.557 131.261C291.768 131.454 291.874 131.69 291.874 131.969C291.874 132.152 291.835 132.329 291.757 132.5C291.679 132.661 291.563 132.849 291.407 133.064L290.307 134.673L289.624 134.239ZM296.285 121.38H297.851L300.019 129.845L300.219 130.634H300.285L300.535 129.845L303.202 121.38H304.669L307.22 129.845L307.47 130.634H307.537L309.887 121.38H311.454L308.237 132.903H306.77L304.236 124.567L303.969 123.665H303.903L303.619 124.567L300.985 132.903H299.518L296.285 121.38ZM314.844 133.16C314.221 133.16 313.665 133.042 313.177 132.806C312.688 132.57 312.31 132.248 312.043 131.841C311.776 131.422 311.643 130.95 311.643 130.424C311.643 129.555 311.982 128.88 312.66 128.397C313.338 127.903 314.193 127.656 315.227 127.656C315.738 127.656 316.21 127.71 316.644 127.817C317.088 127.925 317.427 128.048 317.661 128.188V127.689C317.661 127.077 317.438 126.589 316.994 126.224C316.549 125.849 315.988 125.661 315.31 125.661C314.832 125.661 314.393 125.763 313.993 125.967C313.593 126.16 313.277 126.433 313.043 126.787L311.976 126.015C312.31 125.521 312.765 125.135 313.343 124.856C313.932 124.577 314.582 124.438 315.294 124.438C316.449 124.438 317.355 124.733 318.011 125.323C318.678 125.902 319.011 126.696 319.011 127.705V132.903H317.661V131.728H317.594C317.349 132.125 316.983 132.463 316.494 132.742C316.005 133.021 315.455 133.16 314.844 133.16ZM314.977 131.953C315.455 131.953 315.899 131.835 316.31 131.599C316.722 131.363 317.05 131.047 317.294 130.65C317.539 130.253 317.661 129.818 317.661 129.346C317.394 129.175 317.066 129.035 316.677 128.928C316.288 128.821 315.877 128.767 315.444 128.767C314.666 128.767 314.077 128.922 313.677 129.234C313.288 129.545 313.093 129.947 313.093 130.441C313.093 130.891 313.271 131.256 313.627 131.535C313.982 131.814 314.432 131.953 314.977 131.953ZM320.982 124.695H322.332V126.015H322.399C322.566 125.564 322.888 125.194 323.366 124.905C323.844 124.604 324.344 124.454 324.866 124.454C325.255 124.454 325.589 124.508 325.866 124.615V126.095C325.511 125.924 325.111 125.838 324.666 125.838C324.255 125.838 323.877 125.951 323.533 126.176C323.188 126.401 322.91 126.707 322.699 127.093C322.499 127.469 322.399 127.876 322.399 128.316V132.903H320.982V124.695ZM330.33 133.16C329.574 133.16 328.885 132.973 328.263 132.597C327.651 132.222 327.168 131.707 326.812 131.052C326.457 130.387 326.279 129.636 326.279 128.799C326.279 127.973 326.457 127.227 326.812 126.562C327.168 125.897 327.651 125.377 328.263 125.001C328.885 124.626 329.574 124.438 330.33 124.438C330.985 124.438 331.569 124.583 332.08 124.872C332.591 125.151 332.98 125.5 333.247 125.918H333.314L333.247 124.776V121.38H334.664V132.903H333.314V131.696H333.247C332.98 132.104 332.591 132.452 332.08 132.742C331.569 133.021 330.985 133.16 330.33 133.16ZM330.496 131.921C330.997 131.921 331.458 131.792 331.88 131.535C332.313 131.277 332.658 130.913 332.914 130.441C333.18 129.968 333.314 129.421 333.314 128.799C333.314 128.177 333.18 127.63 332.914 127.158C332.658 126.686 332.313 126.321 331.88 126.063C331.458 125.806 330.997 125.677 330.496 125.677C330.007 125.677 329.546 125.806 329.113 126.063C328.679 126.321 328.329 126.691 328.063 127.174C327.807 127.646 327.679 128.188 327.679 128.799C327.679 129.411 327.807 129.958 328.063 130.441C328.329 130.913 328.679 131.277 329.113 131.535C329.546 131.792 330.007 131.921 330.496 131.921ZM336.756 121.38H338.173V124.776L338.106 125.902H338.173C338.406 125.484 338.773 125.135 339.273 124.856C339.784 124.577 340.34 124.438 340.94 124.438C341.974 124.438 342.763 124.733 343.307 125.323C343.852 125.902 344.124 126.675 344.124 127.64V132.903H342.707V127.85C342.707 127.109 342.513 126.562 342.124 126.208C341.735 125.854 341.229 125.677 340.607 125.677C340.162 125.677 339.751 125.806 339.373 126.063C339.006 126.321 338.712 126.653 338.49 127.061C338.278 127.469 338.173 127.892 338.173 128.332V132.903H336.756V121.38ZM348.801 133.16C348.179 133.16 347.623 133.042 347.134 132.806C346.645 132.57 346.267 132.248 346.001 131.841C345.734 131.422 345.601 130.95 345.601 130.424C345.601 129.555 345.94 128.88 346.617 128.397C347.295 127.903 348.151 127.656 349.185 127.656C349.696 127.656 350.168 127.71 350.602 127.817C351.046 127.925 351.385 128.048 351.618 128.188V127.689C351.618 127.077 351.396 126.589 350.952 126.224C350.507 125.849 349.946 125.661 349.268 125.661C348.79 125.661 348.351 125.763 347.951 125.967C347.551 126.16 347.234 126.433 347.001 126.787L345.934 126.015C346.267 125.521 346.723 125.135 347.301 124.856C347.89 124.577 348.54 124.438 349.251 124.438C350.407 124.438 351.313 124.733 351.969 125.323C352.635 125.902 352.969 126.696 352.969 127.705V132.903H351.618V131.728H351.552C351.307 132.125 350.94 132.463 350.452 132.742C349.963 133.021 349.412 133.16 348.801 133.16ZM348.935 131.953C349.412 131.953 349.857 131.835 350.268 131.599C350.679 131.363 351.007 131.047 351.252 130.65C351.496 130.253 351.618 129.818 351.618 129.346C351.352 129.175 351.024 129.035 350.635 128.928C350.246 128.821 349.835 128.767 349.401 128.767C348.623 128.767 348.034 128.922 347.634 129.234C347.245 129.545 347.051 129.947 347.051 130.441C347.051 130.891 347.229 131.256 347.584 131.535C347.94 131.814 348.39 131.953 348.935 131.953Z" fill="#242424"/>
<defs>
<linearGradient id="paint0_linear_703_2370" x1="425.969" y1="131.111" x2="9.44729" y2="131.111" gradientUnits="userSpaceOnUse">
<stop stop-color="#348BCA"/>
<stop offset="0.404875" stop-color="#59A43A"/>
<stop offset="0.711571" stop-color="#F3B002"/>
<stop offset="1" stop-color="#DF572E"/>
</linearGradient>
</defs>
</svg>
