<svg width="429" height="168" viewBox="0 0 429 168" fill="none" xmlns="http://www.w3.org/2000/svg">
<path d="M417.277 1.99976H11.6459C6.27547 1.99976 1.92188 6.20273 1.92188 11.3874V156.225C1.92188 161.409 6.27547 165.612 11.6459 165.612H417.277C422.647 165.612 427.001 161.409 427.001 156.225V11.3874C427.001 6.20273 422.647 1.99976 417.277 1.99976Z" fill="#EFEFEF" stroke="url(#paint0_linear_703_2371)" stroke-width="3.2"/>
<path d="M50.6657 104.111C49.1238 104.111 47.7068 103.753 46.401 103.04C45.1091 102.325 44.0672 101.348 43.3032 100.109C42.5391 98.8554 42.1641 97.4634 42.1641 95.9319C42.1641 94.4017 42.5391 93.0163 43.3032 91.7772C44.0672 90.5232 45.1091 89.5389 46.401 88.8254C47.7068 88.1106 49.1238 87.7539 50.6657 87.7539C51.8882 87.7539 53.0272 87.9645 54.083 88.3869C55.1387 88.8107 56.0277 89.4008 56.7362 90.1585L54.972 91.8643C54.4303 91.2957 53.8052 90.8585 53.0689 90.5528C52.3327 90.247 51.527 90.0928 50.6379 90.0928C49.5961 90.0928 48.6236 90.3342 47.7207 90.8143C46.8177 91.2957 46.0815 91.981 45.5398 92.8701C44.998 93.7593 44.7201 94.7799 44.7201 95.9319C44.7201 97.0838 44.998 98.1044 45.5398 98.9935C46.0815 99.8827 46.8177 100.568 47.7207 101.049C48.6236 101.53 49.61 101.771 50.6657 101.771C51.6242 101.771 52.4299 101.633 53.0828 101.355C53.7357 101.078 54.3192 100.706 54.8332 100.239C55.1666 99.9189 55.4444 99.5179 55.6666 99.0378C55.9028 98.5563 56.0695 98.0306 56.139 97.4634H50.6379V95.276H58.5422C58.6255 95.6837 58.6532 96.1075 58.6532 96.5447C58.6532 97.5358 58.5005 98.4906 58.181 99.4093C57.8615 100.313 57.3614 101.1 56.6668 101.771C55.1388 103.331 53.1384 104.111 50.6657 104.111ZM66.488 104.111C65.3212 104.111 64.2793 103.855 63.3625 103.345C62.4317 102.82 61.7234 102.106 61.2094 101.202C60.6954 100.298 60.4314 99.2926 60.4314 98.1849C60.4314 97.0758 60.6954 96.07 61.2094 95.1661C61.7234 94.2622 62.4317 93.5554 63.3625 93.0458C64.2793 92.5201 65.3212 92.2586 66.488 92.2586C67.641 92.2586 68.6829 92.5201 69.6136 93.0458C70.5305 93.5702 71.2529 94.285 71.753 95.1889C72.267 96.0928 72.5308 97.0905 72.5308 98.1849C72.5308 99.2926 72.267 100.298 71.753 101.202C71.2529 102.106 70.5305 102.82 69.6136 103.345C68.6829 103.855 67.641 104.111 66.488 104.111ZM66.488 101.902C67.1132 101.902 67.7105 101.756 68.2523 101.465C68.7941 101.158 69.2248 100.729 69.5443 100.174C69.8777 99.6051 70.0443 98.9426 70.0443 98.1849C70.0443 97.4258 69.8777 96.77 69.5443 96.2162C69.2248 95.6623 68.7941 95.2398 68.2523 94.9475C67.7105 94.6417 67.1132 94.4888 66.488 94.4888C65.849 94.4888 65.2517 94.6417 64.7099 94.9475C64.1681 95.2398 63.7376 95.6623 63.4042 96.2162C63.0847 96.77 62.9319 97.4258 62.9319 98.1849C62.9319 98.9426 63.0847 99.6051 63.4042 100.174C63.7376 100.729 64.1681 101.158 64.7099 101.465C65.2517 101.756 65.849 101.902 66.488 101.902ZM80.2406 104.111C79.0738 104.111 78.0319 103.855 77.1151 103.345C76.1982 102.82 75.4758 102.106 74.9618 101.202C74.4478 100.298 74.1979 99.2926 74.1979 98.1849C74.1979 97.0758 74.4478 96.07 74.9618 95.1661C75.4758 94.2622 76.1982 93.5554 77.1151 93.0458C78.0319 92.5201 79.0738 92.2586 80.2406 92.2586C81.4075 92.2586 82.4494 92.5201 83.3662 93.0458C84.2831 93.5702 85.0055 94.285 85.5195 95.1889C86.0334 96.0928 86.2834 97.0905 86.2834 98.1849C86.2834 99.2926 86.0334 100.298 85.5195 101.202C85.0055 102.106 84.2831 102.82 83.3662 103.345C82.4494 103.855 81.4075 104.111 80.2406 104.111ZM80.2406 101.902C80.8796 101.902 81.4631 101.756 82.0049 101.465C82.5466 101.158 82.9772 100.729 83.2967 100.174C83.6301 99.6051 83.7968 98.9426 83.7968 98.1849C83.7968 97.4258 83.6301 96.77 83.2967 96.2162C82.9772 95.6623 82.5466 95.2398 82.0049 94.9475C81.4631 94.6417 80.8796 94.4888 80.2406 94.4888C79.6016 94.4888 79.0182 94.6417 78.4764 94.9475C77.9346 95.2398 77.4902 95.6623 77.1568 96.2162C76.8373 96.77 76.6843 97.4258 76.6843 98.1849C76.6843 98.9426 76.8373 99.6051 77.1568 100.174C77.4902 100.729 77.9346 101.158 78.4764 101.465C79.0182 101.756 79.6016 101.902 80.2406 101.902ZM93.7987 108.834C92.3818 108.834 91.201 108.521 90.2563 107.893C89.3395 107.267 88.7283 106.524 88.4088 105.663L90.7425 104.723C90.9787 105.306 91.3677 105.773 91.8956 106.123C92.4374 106.486 93.0764 106.669 93.7987 106.669C94.8545 106.669 95.6741 106.363 96.2715 105.75C96.8688 105.153 97.1743 104.307 97.1743 103.214V102.187H97.0354C96.6603 102.711 96.1464 103.127 95.5213 103.433C94.8961 103.724 94.1876 103.87 93.368 103.87C92.3956 103.87 91.5066 103.63 90.6731 103.148C89.8397 102.667 89.1728 101.99 88.6727 101.115C88.1865 100.225 87.9505 99.2121 87.9505 98.0749C87.9505 96.9377 88.1865 95.9318 88.6727 95.0575C89.1728 94.1683 89.8397 93.483 90.6731 93.0016C91.5066 92.5054 92.3956 92.2586 93.368 92.2586C94.1598 92.2586 94.8822 92.4115 95.5213 92.7173C96.1464 93.023 96.6603 93.4388 97.0354 93.9645H97.1743V92.6086H99.5498V103.148C99.5498 104.358 99.3136 105.386 98.8274 106.231C98.3412 107.092 97.6606 107.74 96.7854 108.177C95.9242 108.616 94.9239 108.834 93.7987 108.834ZM93.8126 101.684C94.4239 101.684 94.9795 101.544 95.4934 101.268C96.0074 100.976 96.4103 100.561 96.7159 100.021C97.0215 99.4669 97.1743 98.8179 97.1743 98.0749C97.1743 96.9377 96.8409 96.0552 96.2019 95.4289C95.5629 94.7879 94.7711 94.4674 93.8126 94.4674C93.2014 94.4674 92.6319 94.6122 92.1179 94.9046C91.6039 95.1808 91.2011 95.5899 90.8955 96.129C90.5898 96.6681 90.4369 97.3172 90.4369 98.0749C90.4369 98.8326 90.5898 99.4817 90.8955 100.021C91.2011 100.561 91.6039 100.976 92.1179 101.268C92.6319 101.544 93.2014 101.684 93.8126 101.684ZM102.481 88.1039H104.968V103.761H102.481V88.1039ZM113.066 104.111C111.927 104.111 110.913 103.855 110.01 103.345C109.121 102.834 108.413 102.136 107.899 101.245C107.399 100.341 107.148 99.3288 107.148 98.2063C107.148 97.1415 107.398 96.1585 107.871 95.2546C108.371 94.336 109.065 93.6064 109.941 93.0673C110.816 92.5282 111.816 92.2586 112.927 92.2586C114.094 92.2586 115.094 92.5054 115.942 93.0016C116.803 93.4978 117.456 94.175 117.886 95.036C118.345 95.8956 118.567 96.8652 118.567 97.9435C118.567 98.1473 118.539 98.4035 118.498 98.7092H109.649C109.732 99.7446 110.107 100.547 110.774 101.115C111.455 101.669 112.247 101.945 113.136 101.945C113.844 101.945 114.455 101.792 114.969 101.487C115.497 101.166 115.914 100.736 116.233 100.196L118.345 101.158C117.803 102.077 117.095 102.798 116.22 103.324C115.331 103.848 114.289 104.111 113.066 104.111ZM116.025 96.8719C115.997 96.479 115.872 96.0928 115.65 95.7132C115.414 95.3203 115.067 94.9917 114.608 94.7289C114.15 94.4674 113.594 94.336 112.927 94.336C112.122 94.336 111.455 94.5693 110.885 95.036C110.343 95.4879 109.968 96.0995 109.76 96.8719H116.025ZM126.555 88.1039H131.736C133.417 88.1039 134.876 88.4312 136.14 89.0869C137.39 89.7427 138.349 90.6694 139.015 91.8643C139.696 93.0458 140.03 94.4017 140.03 95.9319C140.03 97.4634 139.696 98.8259 139.015 100.021C138.349 101.202 137.39 102.121 136.14 102.777C134.876 103.433 133.417 103.761 131.736 103.761H126.555V88.1039ZM131.695 101.421C133.514 101.421 134.917 100.939 135.932 99.9779C136.959 99.0003 137.473 97.6525 137.473 95.9319C137.473 94.226 136.959 92.8849 135.932 91.9086C134.917 90.9309 133.514 90.4428 131.695 90.4428H129.097V101.421H131.695ZM147.461 104.111C146.322 104.111 145.308 103.855 144.405 103.345C143.516 102.834 142.808 102.136 142.294 101.245C141.794 100.341 141.544 99.3288 141.544 98.2063C141.544 97.1415 141.794 96.1585 142.28 95.2546C142.766 94.336 143.461 93.6064 144.336 93.0673C145.211 92.5282 146.211 92.2586 147.323 92.2586C148.489 92.2586 149.49 92.5054 150.337 93.0016C151.198 93.4978 151.851 94.175 152.282 95.036C152.74 95.8956 152.962 96.8652 152.962 97.9435C152.962 98.1473 152.949 98.4035 152.893 98.7092H144.044C144.128 99.7446 144.516 100.547 145.169 101.115C145.85 101.669 146.642 101.945 147.531 101.945C148.239 101.945 148.851 101.792 149.365 101.487C149.892 101.166 150.309 100.736 150.629 100.196L152.74 101.158C152.198 102.077 151.49 102.798 150.615 103.324C149.74 103.848 148.684 104.111 147.461 104.111ZM150.434 96.8719C150.393 96.479 150.268 96.0928 150.045 95.7132C149.823 95.3203 149.476 94.9917 149.003 94.7289C148.545 94.4674 147.989 94.336 147.323 94.336C146.531 94.336 145.85 94.5693 145.28 95.036C144.739 95.4879 144.364 96.0995 144.155 96.8719H150.434ZM153.727 92.6086H156.505L159.7 100.655H159.797L163.062 92.6086H165.77L160.978 103.761H158.477L153.727 92.6086ZM172.327 104.111C171.188 104.111 170.174 103.855 169.271 103.345C168.382 102.834 167.673 102.136 167.16 101.245C166.659 100.341 166.409 99.3288 166.409 98.2063C166.409 97.1415 166.66 96.1585 167.132 95.2546C167.632 94.336 168.327 93.6064 169.202 93.0673C170.077 92.5282 171.077 92.2586 172.188 92.2586C173.355 92.2586 174.355 92.5054 175.203 93.0016C176.064 93.4978 176.717 94.175 177.148 95.036C177.606 95.8956 177.828 96.8652 177.828 97.9435C177.828 98.1473 177.8 98.4035 177.759 98.7092H168.91C168.993 99.7446 169.368 100.547 170.035 101.115C170.716 101.669 171.508 101.945 172.397 101.945C173.105 101.945 173.716 101.792 174.23 101.487C174.758 101.166 175.175 100.736 175.494 100.196L177.606 101.158C177.064 102.077 176.356 102.798 175.48 103.324C174.591 103.848 173.55 104.111 172.327 104.111ZM175.286 96.8719C175.258 96.479 175.133 96.0928 174.911 95.7132C174.675 95.3203 174.328 94.9917 173.869 94.7289C173.411 94.4674 172.855 94.336 172.188 94.336C171.383 94.336 170.716 94.5693 170.146 95.036C169.604 95.4879 169.229 96.0995 169.021 96.8719H175.286ZM180.093 88.1039H182.593V103.761H180.093V88.1039ZM190.817 104.111C189.664 104.111 188.622 103.855 187.691 103.345C186.774 102.82 186.052 102.106 185.538 101.202C185.024 100.298 184.774 99.2926 184.774 98.1849C184.774 97.0758 185.024 96.07 185.538 95.1661C186.052 94.2622 186.774 93.5554 187.691 93.0458C188.622 92.5201 189.664 92.2586 190.817 92.2586C191.984 92.2586 193.025 92.5201 193.942 93.0458C194.873 93.5702 195.582 94.285 196.096 95.1889C196.61 96.0928 196.873 97.0905 196.873 98.1849C196.873 99.2926 196.61 100.298 196.096 101.202C195.582 102.106 194.873 102.82 193.942 103.345C193.025 103.855 191.984 104.111 190.817 104.111ZM190.817 101.902C191.456 101.902 192.039 101.756 192.595 101.465C193.137 101.158 193.567 100.729 193.873 100.174C194.206 99.6051 194.373 98.9426 194.373 98.1849C194.373 97.4258 194.206 96.77 193.873 96.2162C193.567 95.6623 193.137 95.2398 192.595 94.9475C192.039 94.6417 191.456 94.4888 190.817 94.4888C190.192 94.4888 189.594 94.6417 189.052 94.9475C188.511 95.2398 188.066 95.6623 187.747 96.2162C187.427 96.77 187.261 97.4258 187.261 98.1849C187.261 98.9426 187.427 99.6051 187.747 100.174C188.066 100.729 188.511 101.158 189.052 101.465C189.594 101.756 190.192 101.902 190.817 101.902ZM198.971 92.6086H201.347V94.0731H201.458C201.791 93.5635 202.277 93.133 202.93 92.783C203.583 92.433 204.305 92.2586 205.125 92.2586C206.167 92.2586 207.111 92.5134 207.959 93.023C208.806 93.534 209.473 94.2407 209.945 95.1446C210.445 96.0338 210.696 97.0476 210.696 98.1849C210.696 99.3221 210.445 100.341 209.945 101.245C209.473 102.136 208.806 102.834 207.959 103.345C207.111 103.855 206.167 104.111 205.125 104.111C204.305 104.111 203.583 103.935 202.93 103.585C202.277 103.235 201.791 102.813 201.458 102.317H201.347L201.458 103.87V108.484H198.971V92.6086ZM204.764 101.902C205.375 101.902 205.931 101.748 206.459 101.442C206.986 101.137 207.417 100.699 207.737 100.131C208.042 99.5622 208.209 98.9131 208.209 98.1849C208.209 97.4553 208.042 96.8143 207.737 96.2604C207.417 95.6918 206.986 95.2546 206.459 94.9475C205.931 94.6417 205.375 94.4888 204.764 94.4888C204.166 94.4888 203.597 94.6417 203.069 94.9475C202.555 95.2546 202.138 95.6918 201.819 96.2604C201.499 96.8143 201.347 97.4553 201.347 98.1849C201.347 98.9131 201.499 99.5622 201.819 100.131C202.138 100.699 202.555 101.137 203.069 101.442C203.597 101.748 204.166 101.902 204.764 101.902ZM218.252 104.111C217.113 104.111 216.099 103.855 215.196 103.345C214.293 102.834 213.599 102.136 213.085 101.245C212.585 100.341 212.335 99.3288 212.335 98.2063C212.335 97.1415 212.571 96.1585 213.057 95.2546C213.557 94.336 214.252 93.6064 215.127 93.0673C216.002 92.5282 216.988 92.2586 218.114 92.2586C219.28 92.2586 220.281 92.5054 221.128 93.0016C221.989 93.4978 222.628 94.175 223.073 95.036C223.531 95.8956 223.753 96.8652 223.753 97.9435C223.753 98.1473 223.726 98.4035 223.684 98.7092H214.821C214.918 99.7446 215.293 100.547 215.96 101.115C216.641 101.669 217.419 101.945 218.322 101.945C219.03 101.945 219.642 101.792 220.156 101.487C220.683 101.166 221.1 100.736 221.42 100.196L223.531 101.158C222.976 102.077 222.267 102.798 221.392 103.324C220.517 103.848 219.475 104.111 218.252 104.111ZM221.211 96.8719C221.183 96.479 221.058 96.0928 220.836 95.7132C220.6 95.3203 220.253 94.9917 219.794 94.7289C219.336 94.4674 218.78 94.336 218.114 94.336C217.308 94.336 216.627 94.5693 216.071 95.036C215.53 95.4879 215.155 96.0995 214.946 96.8719H221.211ZM226.018 92.6086H228.393V94.2488H228.518C228.768 93.6802 229.213 93.2135 229.852 92.8487C230.477 92.4692 231.158 92.2801 231.866 92.2801C232.422 92.2801 232.894 92.3525 233.269 92.4987V94.9917C232.602 94.7584 232.005 94.6417 231.477 94.6417C230.908 94.6417 230.394 94.7879 229.935 95.0789C229.505 95.3713 229.157 95.7642 228.893 96.2604C228.643 96.7405 228.518 97.2729 228.518 97.8563V103.761H226.018V92.6086ZM244.896 104.111C243.549 104.111 242.34 103.732 241.271 102.974C240.201 102.215 239.465 101.151 239.048 99.7808L241.451 98.8407C241.701 99.7003 242.118 100.407 242.729 100.961C243.34 101.501 244.077 101.771 244.938 101.771C245.744 101.771 246.424 101.574 246.98 101.181C247.536 100.772 247.827 100.218 247.827 99.5179C247.827 98.8769 247.577 98.3525 247.077 97.9435C246.591 97.521 245.744 97.0986 244.507 96.6748L243.493 96.3261C242.41 95.9613 241.493 95.4356 240.757 94.7517C240.02 94.0664 239.645 93.1625 239.645 92.04C239.645 91.2662 239.868 90.5528 240.298 89.897C240.743 89.2398 241.34 88.7235 242.118 88.344C242.896 87.9497 243.785 87.7539 244.757 87.7539C246.188 87.7539 247.313 88.0892 248.161 88.7597C249.008 89.4155 249.578 90.1585 249.855 90.9899L247.577 91.93C247.411 91.4338 247.091 90.9967 246.619 90.6185C246.147 90.2389 245.549 90.0499 244.813 90.0499C244.063 90.0499 243.438 90.2322 242.924 90.5957C242.424 90.9604 242.187 91.4271 242.187 91.9958C242.187 92.5349 242.41 92.9801 242.854 93.3301C243.313 93.6802 244.021 94.0154 244.993 94.336L246.008 94.6632C247.397 95.1299 248.466 95.7428 249.23 96.5005C249.994 97.2434 250.383 98.2425 250.383 99.4964C250.383 100.517 250.106 101.377 249.564 102.077C249.022 102.762 248.327 103.272 247.48 103.607C246.647 103.943 245.785 104.111 244.896 104.111ZM257.037 103.935C256.523 103.935 256.037 103.855 255.579 103.695C255.134 103.534 254.759 103.324 254.481 103.061C253.829 102.433 253.495 101.58 253.495 100.502V94.7289H251.481V92.6086H253.495V89.4584H255.996V92.6086H258.802V94.7289H255.996V99.9779C255.996 100.575 256.107 100.998 256.357 101.245C256.579 101.538 256.968 101.684 257.538 101.684C257.788 101.684 258.01 101.654 258.218 101.595C258.413 101.523 258.621 101.413 258.843 101.268V103.607C258.343 103.827 257.746 103.935 257.037 103.935ZM265.386 104.111C263.983 104.111 262.913 103.71 262.163 102.908C261.441 102.091 261.08 100.961 261.08 99.5179V92.6086H263.566V99.1907C263.566 100.095 263.789 100.772 264.233 101.224C264.678 101.676 265.275 101.902 265.997 101.902C266.581 101.902 267.109 101.756 267.553 101.465C268.012 101.158 268.359 100.757 268.595 100.262C268.845 99.766 268.956 99.2336 268.956 98.665V92.6086H271.457V103.761H269.095V102.317H268.956C268.651 102.842 268.151 103.272 267.484 103.607C266.831 103.943 266.122 104.111 265.386 104.111ZM279.18 104.111C278.139 104.111 277.194 103.855 276.347 103.345C275.499 102.834 274.832 102.136 274.332 101.245C273.846 100.341 273.61 99.3221 273.61 98.1849C273.61 97.0476 273.846 96.0338 274.332 95.1446C274.832 94.2407 275.499 93.534 276.347 93.023C277.194 92.5134 278.139 92.2586 279.18 92.2586C280 92.2586 280.736 92.433 281.375 92.783C282.028 93.133 282.514 93.5635 282.848 94.0731H282.959L282.848 92.4987V88.1039H285.348V103.761H282.959V102.317H282.848C282.514 102.813 282.028 103.235 281.375 103.585C280.736 103.935 280 104.111 279.18 104.111ZM279.542 101.902C280.153 101.902 280.709 101.748 281.223 101.442C281.75 101.137 282.167 100.699 282.487 100.131C282.806 99.5622 282.959 98.9131 282.959 98.1849C282.959 97.4553 282.806 96.8143 282.487 96.2604C282.167 95.6918 281.75 95.2546 281.223 94.9475C280.709 94.6417 280.153 94.4888 279.542 94.4888C278.944 94.4888 278.375 94.6417 277.847 94.9475C277.319 95.2546 276.888 95.6918 276.583 96.2604C276.263 96.8143 276.096 97.4553 276.096 98.1849C276.096 98.9131 276.263 99.5622 276.583 100.131C276.888 100.699 277.319 101.137 277.847 101.442C278.375 101.748 278.944 101.902 279.542 101.902ZM293.419 104.111C292.28 104.111 291.266 103.855 290.349 103.345C289.46 102.834 288.766 102.136 288.252 101.245C287.751 100.341 287.501 99.3288 287.501 98.2063C287.501 97.1415 287.738 96.1585 288.224 95.2546C288.724 94.336 289.418 93.6064 290.294 93.0673C291.169 92.5282 292.155 92.2586 293.28 92.2586C294.447 92.2586 295.447 92.5054 296.295 93.0016C297.156 93.4978 297.795 94.175 298.24 95.036C298.698 95.8956 298.92 96.8652 298.92 97.9435C298.92 98.1473 298.892 98.4035 298.851 98.7092H289.988C290.085 99.7446 290.46 100.547 291.127 101.115C291.808 101.669 292.586 101.945 293.475 101.945C294.197 101.945 294.808 101.792 295.322 101.487C295.85 101.166 296.267 100.736 296.586 100.196L298.698 101.158C298.142 102.077 297.434 102.798 296.559 103.324C295.683 103.848 294.642 104.111 293.419 104.111ZM296.378 96.8719C296.35 96.479 296.225 96.0928 295.989 95.7132C295.767 95.3203 295.419 94.9917 294.947 94.7289C294.503 94.4674 293.947 94.336 293.28 94.336C292.475 94.336 291.794 94.5693 291.238 95.036C290.696 95.4879 290.321 96.0995 290.113 96.8719H296.378ZM301.185 92.6086H303.56V94.0731H303.685C304.004 93.5487 304.505 93.1182 305.158 92.783C305.81 92.433 306.519 92.2586 307.255 92.2586C308.658 92.2586 309.728 92.6596 310.45 93.4602C311.186 94.2488 311.561 95.327 311.561 96.6976V103.761H309.075V97.0248C309.075 96.1504 308.839 95.5094 308.394 95.1004C307.95 94.6927 307.338 94.4888 306.561 94.4888C305.991 94.4888 305.505 94.6417 305.06 94.9475C304.616 95.2398 304.282 95.6328 304.046 96.129C303.796 96.6238 303.685 97.1563 303.685 97.7249V103.761H301.185V92.6086ZM318.535 103.935C318.021 103.935 317.535 103.855 317.076 103.695C316.632 103.534 316.257 103.324 315.965 103.061C315.326 102.433 314.993 101.58 314.993 100.502V94.7289H312.978V92.6086H314.993V89.4584H317.493V92.6086H320.299V94.7289H317.493V99.9779C317.493 100.575 317.604 100.998 317.854 101.245C318.077 101.538 318.466 101.684 319.021 101.684C319.285 101.684 319.507 101.654 319.702 101.595C319.91 101.523 320.119 101.413 320.341 101.268V103.607C319.841 103.827 319.243 103.935 318.535 103.935ZM335.594 104.111C334.024 104.111 332.593 103.753 331.287 103.04C329.995 102.325 328.981 101.34 328.231 100.087C327.495 98.8326 327.12 97.4486 327.12 95.9319C327.12 94.4164 327.495 93.0311 328.231 91.7772C328.981 90.5232 329.995 89.5389 331.287 88.8254C332.593 88.1106 334.024 87.7539 335.594 87.7539C336.816 87.7539 337.927 87.9725 338.928 88.4097C339.942 88.8469 340.831 89.4812 341.595 90.3114L339.789 91.9958C339.233 91.3547 338.608 90.88 337.927 90.5742C337.247 90.2537 336.469 90.0928 335.594 90.0928C334.51 90.0928 333.51 90.3342 332.607 90.8143C331.718 91.2957 331.01 91.981 330.482 92.8701C329.954 93.7445 329.69 94.7651 329.69 95.9319C329.69 97.0986 329.954 98.1259 330.482 99.015C331.01 99.8894 331.718 100.568 332.607 101.049C333.51 101.53 334.51 101.771 335.594 101.771C337.413 101.771 338.955 101.041 340.22 99.5836L342.053 101.289C341.261 102.179 340.317 102.872 339.219 103.367C338.122 103.863 336.913 104.111 335.594 104.111ZM344.262 88.1039H346.749V103.761H344.262V88.1039ZM353.889 104.111C352.486 104.111 351.416 103.71 350.666 102.908C349.944 102.091 349.582 100.961 349.582 99.5179V92.6086H352.083V99.1907C352.083 100.095 352.291 100.772 352.736 101.224C353.18 101.676 353.778 101.902 354.5 101.902C355.084 101.902 355.611 101.756 356.07 101.465C356.514 101.158 356.861 100.757 357.111 100.262C357.348 99.766 357.473 99.2336 357.473 98.665V92.6086H359.959V103.761H357.598V102.317H357.473C357.153 102.842 356.653 103.272 356 103.607C355.333 103.943 354.625 104.111 353.889 104.111ZM369.017 104.111C368.211 104.111 367.475 103.935 366.822 103.585C366.169 103.235 365.683 102.813 365.349 102.317H365.238V103.761H362.863V88.1039H365.349V92.4987L365.238 94.0731H365.349C365.683 93.5635 366.169 93.133 366.822 92.783C367.475 92.433 368.211 92.2586 369.017 92.2586C370.058 92.2586 371.003 92.5134 371.85 93.023C372.698 93.534 373.365 94.2407 373.851 95.1446C374.337 96.0338 374.587 97.0476 374.587 98.1849C374.587 99.3221 374.337 100.341 373.851 101.245C373.365 102.136 372.698 102.834 371.85 103.345C371.003 103.855 370.058 104.111 369.017 104.111ZM368.655 101.902C369.267 101.902 369.822 101.748 370.35 101.442C370.892 101.137 371.309 100.699 371.628 100.131C371.948 99.5622 372.1 98.9131 372.1 98.1849C372.1 97.4553 371.948 96.8143 371.628 96.2604C371.309 95.6918 370.892 95.2546 370.35 94.9475C369.822 94.6417 369.267 94.4888 368.655 94.4888C368.058 94.4888 367.489 94.6417 366.961 94.9475C366.447 95.2546 366.03 95.6918 365.71 96.2604C365.391 96.8143 365.238 97.4553 365.238 98.1849C365.238 98.9131 365.391 99.5622 365.71 100.131C366.03 100.699 366.447 101.137 366.961 101.442C367.489 101.748 368.058 101.902 368.655 101.902ZM380.963 104.111C379.63 104.111 378.546 103.834 377.699 103.28C376.851 102.711 376.254 101.99 375.907 101.115L378.129 100.174C378.407 100.757 378.782 101.202 379.268 101.508C379.769 101.814 380.324 101.968 380.963 101.968C381.588 101.968 382.102 101.865 382.533 101.661C382.95 101.442 383.158 101.122 383.158 100.699C383.158 100.29 382.978 99.9698 382.616 99.7365C382.255 99.5032 381.699 99.2993 380.935 99.125L379.56 98.7964C378.643 98.5778 377.879 98.1916 377.268 97.6377C376.671 97.0838 376.365 96.3838 376.365 95.5389C376.365 94.8818 376.56 94.3065 376.949 93.8103C377.365 93.3154 377.907 92.9359 378.588 92.673C379.269 92.3967 380.005 92.2586 380.81 92.2586C381.88 92.2586 382.825 92.4692 383.63 92.8929C384.45 93.3006 385.047 93.8988 385.409 94.686L383.228 95.6033C382.797 94.7436 381.991 94.3132 380.824 94.3132C380.269 94.3132 379.796 94.4231 379.421 94.6417C379.046 94.8603 378.852 95.1446 378.852 95.4947C378.852 95.8299 379.005 96.1075 379.282 96.3261C379.574 96.53 379.991 96.7043 380.56 96.8505L382.255 97.2662C383.394 97.5425 384.242 97.9663 384.811 98.5335C385.409 99.0888 385.7 99.7741 385.7 100.589C385.7 101.289 385.492 101.909 385.061 102.448C384.658 102.974 384.089 103.382 383.366 103.673C382.644 103.965 381.838 104.111 380.963 104.111Z" fill="#242424"/>
<path d="M222.376 53.6169L241.013 43.2286C243.611 41.7807 246.933 42.6399 248.432 45.1476C249.932 47.6553 249.042 50.8619 246.444 52.3097L227.806 62.6981C225.209 64.1459 221.887 63.2867 220.388 60.779C218.888 58.2713 219.778 55.0647 222.376 53.6169Z" fill="#FBBC04"/>
<path d="M209.144 41.8645L190.506 52.2529C187.908 53.7007 184.587 52.8415 183.087 50.3338C181.588 47.8261 182.478 44.6196 185.075 43.1717L203.713 32.7834C206.311 31.3356 209.632 32.1948 211.132 34.7025C212.632 37.2102 211.742 40.4167 209.144 41.8645Z" fill="#EA4335"/>
<path d="M208.685 53.6153L190.047 43.227C187.45 41.7792 184.128 42.6384 182.628 45.146C181.129 47.6537 182.019 50.8603 184.616 52.3081L203.254 62.6965C205.852 64.1443 209.173 63.285 210.673 60.7773C212.172 58.2696 211.283 55.0631 208.685 53.6153Z" fill="#4285F4"/>
<path d="M222.059 41.6884L241.33 52.4295C243.753 53.7799 246.851 52.9785 248.25 50.6396L248.615 50.0286C250.014 47.6896 249.184 44.6988 246.761 43.3484L227.49 32.6072C225.067 31.2568 221.969 32.0582 220.57 34.3972L220.205 35.0082C218.806 37.3472 219.636 40.338 222.059 41.6884Z" fill="#0F9D58"/>
<path d="M44.2346 131.777C43.4567 131.777 42.7481 131.549 42.0952 131.093C41.4562 130.637 41.0118 129.998 40.7617 129.175L41.8869 128.732C42.0536 129.305 42.3453 129.774 42.7621 130.141C43.1927 130.508 43.6928 130.69 44.2623 130.69C44.8458 130.69 45.332 130.543 45.721 130.248C46.1238 129.945 46.3183 129.533 46.3183 129.014C46.3183 128.567 46.1516 128.201 45.8043 127.914C45.4709 127.619 44.9292 127.347 44.1512 127.096L43.5261 126.882C42.8315 126.64 42.2481 126.324 41.8036 125.93C41.3591 125.537 41.1367 124.991 41.1367 124.293C41.1367 123.837 41.2757 123.418 41.5257 123.033C41.7897 122.64 42.1508 122.327 42.6092 122.094C43.0815 121.862 43.5955 121.745 44.1651 121.745C44.7485 121.745 45.2486 121.849 45.6654 122.054C46.096 122.26 46.4294 122.51 46.6794 122.805C46.9434 123.1 47.124 123.391 47.2212 123.677L46.1099 124.133C46.0266 123.803 45.8043 123.502 45.4709 123.234C45.1514 122.966 44.7207 122.832 44.179 122.832C43.6789 122.832 43.2343 122.971 42.8732 123.247C42.512 123.525 42.3315 123.874 42.3315 124.293C42.3315 124.669 42.4842 124.977 42.7898 125.219C43.0954 125.452 43.5677 125.671 44.179 125.876L44.8319 126.09C45.6793 126.386 46.3322 126.757 46.8045 127.204C47.2768 127.642 47.513 128.242 47.513 129.001C47.513 129.618 47.3463 130.137 47.0129 130.556C46.6934 130.977 46.2766 131.286 45.7765 131.482C45.2764 131.679 44.7625 131.777 44.2346 131.777ZM51.3886 131.669C51.0969 131.669 50.833 131.625 50.583 131.535C50.333 131.447 50.1385 131.326 49.9718 131.173C49.7773 131.004 49.6383 130.807 49.555 130.583C49.4577 130.361 49.4161 130.087 49.4161 129.765V125.755H48.1797V124.723H49.4161V122.791H50.5968V124.723H52.3194V125.755H50.5968V129.483C50.5968 129.859 50.6663 130.137 50.8191 130.315C50.9858 130.512 51.2497 130.61 51.5831 130.61C51.8471 130.61 52.111 130.535 52.3611 130.382V131.495C52.2221 131.558 52.0693 131.602 51.9304 131.629C51.7915 131.656 51.6109 131.669 51.3886 131.669ZM54.5281 131.643C54.2781 131.643 54.0558 131.562 53.8891 131.401C53.7224 131.232 53.6391 131.026 53.6391 130.784C53.6391 130.552 53.7224 130.355 53.8891 130.194C54.0558 130.025 54.2781 129.939 54.5281 129.939C54.7643 129.939 54.9727 130.025 55.1394 130.194C55.3061 130.355 55.4033 130.552 55.4033 130.784C55.4033 131.026 55.3061 131.232 55.1394 131.401C54.9727 131.562 54.7643 131.643 54.5281 131.643ZM59.0429 121.96H60.3487L62.8074 128.92L63.1408 129.872H63.1964L63.5437 128.92L66.1136 121.96H67.4195L63.7799 131.562H62.5574L59.0429 121.96ZM68.9058 123.462C68.6696 123.462 68.4752 123.381 68.3085 123.221C68.1418 123.06 68.0584 122.868 68.0584 122.644C68.0584 122.421 68.1418 122.234 68.3085 122.081C68.4752 121.92 68.6696 121.839 68.9058 121.839C69.128 121.839 69.3365 121.92 69.5032 122.081C69.6699 122.234 69.7531 122.421 69.7531 122.644C69.7531 122.868 69.6699 123.06 69.5032 123.221C69.3365 123.381 69.1419 123.462 68.9058 123.462ZM68.3224 124.723H69.4893V131.562H68.3224V124.723ZM71.3368 124.723H72.4621V125.728H72.5175C72.712 125.389 73.0316 125.103 73.4483 124.87C73.8789 124.629 74.3373 124.508 74.8096 124.508C75.6709 124.508 76.31 124.749 76.7545 125.232C77.2129 125.707 77.4352 126.355 77.4352 127.177V131.562H76.2544V127.351C76.2544 126.717 76.1017 126.257 75.7821 125.97C75.4765 125.684 75.0458 125.541 74.4902 125.541C74.1151 125.541 73.7678 125.644 73.4622 125.849C73.1705 126.056 72.9343 126.328 72.7676 126.667C72.6009 126.998 72.5175 127.347 72.5175 127.713V131.562H71.3368V124.723ZM82.3389 131.777C81.6582 131.777 81.0331 131.621 80.4914 131.307C79.9496 130.985 79.5189 130.552 79.2133 130.006C78.9077 129.453 78.7549 128.832 78.7549 128.142C78.7549 127.454 78.9077 126.833 79.2133 126.278C79.5189 125.724 79.9496 125.291 80.4914 124.977C81.0331 124.665 81.6582 124.508 82.3389 124.508C83.1029 124.508 83.7558 124.682 84.2698 125.031C84.7977 125.372 85.1727 125.828 85.3949 126.399L84.3253 126.828C84.1447 126.408 83.8808 126.09 83.5335 125.876C83.1862 125.653 82.7695 125.541 82.2833 125.541C81.8665 125.541 81.4776 125.653 81.1164 125.876C80.7552 126.09 80.4635 126.395 80.2413 126.788C80.0329 127.182 79.9218 127.633 79.9218 128.142C79.9218 128.652 80.0329 129.104 80.2413 129.497C80.4635 129.891 80.7552 130.2 81.1164 130.422C81.4776 130.637 81.8665 130.744 82.2833 130.744C82.7834 130.744 83.2141 130.633 83.5752 130.409C83.9364 130.186 84.2003 129.868 84.3809 129.457L85.4367 129.886C85.2005 130.449 84.8116 130.905 84.2698 131.254C83.7419 131.602 83.1029 131.777 82.3389 131.777ZM89.7986 131.777C89.1179 131.777 88.5205 131.621 87.9787 131.307C87.437 130.995 87.0203 130.566 86.7147 130.02C86.423 129.466 86.2701 128.845 86.2701 128.156C86.2701 127.495 86.4091 126.887 86.6869 126.332C86.9786 125.778 87.3815 125.335 87.8955 125.004C88.4095 124.674 89.0206 124.508 89.7013 124.508C90.3958 124.508 90.9932 124.661 91.5072 124.964C92.0212 125.259 92.4101 125.671 92.6741 126.198C92.9519 126.726 93.0909 127.33 93.0909 128.008C93.0909 128.142 93.0769 128.259 93.0492 128.357H87.4508C87.4786 128.876 87.6037 129.314 87.8399 129.671C88.076 130.029 88.3677 130.297 88.715 130.476C89.0762 130.656 89.4514 130.744 89.8403 130.744C90.7433 130.744 91.4517 130.334 91.9379 129.51L92.9381 129.98C92.6325 130.535 92.2157 130.972 91.6878 131.294C91.1738 131.616 90.5348 131.777 89.7986 131.777ZM91.8406 127.418C91.8267 127.133 91.7435 126.847 91.5907 126.56C91.4378 126.274 91.2017 126.033 90.8822 125.836C90.5627 125.64 90.1737 125.541 89.6875 125.541C89.1319 125.541 88.6595 125.715 88.2706 126.064C87.8955 126.404 87.6454 126.855 87.5204 127.418H91.8406ZM94.4661 124.723H95.5914V125.728H95.6469C95.8413 125.389 96.1609 125.103 96.5776 124.87C97.0083 124.629 97.4667 124.508 97.939 124.508C98.8002 124.508 99.4393 124.749 99.8838 125.232C100.342 125.707 100.564 126.355 100.564 127.177V131.562H99.3837V127.351C99.3837 126.717 99.2308 126.257 98.9113 125.97C98.6057 125.684 98.1752 125.541 97.6195 125.541C97.2444 125.541 96.8972 125.644 96.5915 125.849C96.2998 126.056 96.0637 126.328 95.897 126.667C95.7303 126.998 95.6469 127.347 95.6469 127.713V131.562H94.4661V124.723ZM104.635 131.669C104.343 131.669 104.079 131.625 103.829 131.535C103.579 131.447 103.385 131.326 103.218 131.173C103.023 131.004 102.884 130.807 102.801 130.583C102.704 130.361 102.662 130.087 102.662 129.765V125.755H101.426V124.723H102.662V122.791H103.843V124.723H105.565V125.755H103.843V129.483C103.843 129.859 103.912 130.137 104.065 130.315C104.232 130.512 104.496 130.61 104.829 130.61C105.093 130.61 105.357 130.535 105.607 130.382V131.495C105.468 131.558 105.315 131.602 105.176 131.629C105.037 131.656 104.857 131.669 104.635 131.669ZM110.455 121.96H113.803C114.359 121.96 114.873 122.081 115.345 122.322C115.817 122.563 116.192 122.904 116.47 123.341C116.762 123.77 116.901 124.259 116.901 124.803C116.901 125.349 116.762 125.841 116.47 126.278C116.192 126.707 115.817 127.043 115.345 127.284C114.873 127.525 114.359 127.646 113.803 127.646H111.622V131.562H110.455V121.96ZM113.831 126.56C114.206 126.56 114.525 126.475 114.803 126.305C115.095 126.136 115.317 125.916 115.47 125.648C115.637 125.38 115.706 125.098 115.706 124.803C115.706 124.508 115.637 124.226 115.47 123.958C115.317 123.69 115.095 123.471 114.803 123.301C114.525 123.132 114.206 123.046 113.831 123.046H111.622V126.56H113.831ZM120.221 131.777C119.707 131.777 119.235 131.679 118.832 131.482C118.429 131.286 118.109 131.018 117.887 130.677C117.665 130.328 117.554 129.935 117.554 129.497C117.554 128.773 117.832 128.209 118.401 127.807C118.971 127.397 119.679 127.19 120.54 127.19C120.971 127.19 121.36 127.236 121.721 127.324C122.096 127.414 122.374 127.517 122.569 127.633V127.217C122.569 126.707 122.388 126.301 122.013 125.997C121.638 125.684 121.179 125.527 120.61 125.527C120.207 125.527 119.846 125.613 119.512 125.782C119.179 125.943 118.915 126.171 118.721 126.466L117.831 125.822C118.109 125.412 118.484 125.09 118.971 124.857C119.457 124.625 119.999 124.508 120.596 124.508C121.555 124.508 122.319 124.755 122.86 125.246C123.416 125.728 123.694 126.391 123.694 127.23V131.562H122.569V130.583H122.513C122.305 130.914 121.999 131.196 121.596 131.428C121.193 131.661 120.735 131.777 120.221 131.777ZM120.332 130.771C120.735 130.771 121.096 130.673 121.443 130.476C121.791 130.28 122.055 130.016 122.263 129.685C122.471 129.355 122.569 128.993 122.569 128.598C122.346 128.456 122.068 128.339 121.749 128.25C121.429 128.161 121.082 128.116 120.721 128.116C120.068 128.116 119.582 128.246 119.248 128.504C118.929 128.765 118.762 129.1 118.762 129.51C118.762 129.886 118.915 130.19 119.207 130.422C119.499 130.656 119.874 130.771 120.332 130.771ZM125.333 121.96H126.514V131.562H125.333V121.96ZM128.264 121.96H129.445V131.562H128.264V121.96ZM134.39 131.777C133.696 131.777 133.071 131.616 132.515 131.294C131.959 130.972 131.528 130.535 131.209 129.98C130.903 129.426 130.751 128.813 130.751 128.142C130.751 127.472 130.903 126.86 131.209 126.305C131.528 125.751 131.959 125.313 132.515 124.991C133.071 124.669 133.696 124.508 134.39 124.508C135.085 124.508 135.71 124.669 136.266 124.991C136.821 125.313 137.252 125.751 137.557 126.305C137.877 126.86 138.03 127.472 138.03 128.142C138.03 128.813 137.877 129.426 137.557 129.98C137.252 130.535 136.821 130.972 136.266 131.294C135.71 131.616 135.085 131.777 134.39 131.777ZM134.39 130.744C134.821 130.744 135.224 130.642 135.599 130.436C135.974 130.221 136.279 129.918 136.502 129.524C136.738 129.131 136.849 128.671 136.849 128.142C136.849 127.615 136.738 127.155 136.502 126.761C136.279 126.368 135.974 126.069 135.599 125.863C135.224 125.648 134.821 125.541 134.39 125.541C133.96 125.541 133.543 125.648 133.168 125.863C132.793 126.069 132.487 126.368 132.251 126.761C132.029 127.155 131.917 127.615 131.917 128.142C131.917 128.671 132.029 129.131 132.251 129.524C132.487 129.918 132.793 130.221 133.168 130.436C133.543 130.642 133.96 130.744 134.39 130.744ZM141.919 131.669C141.628 131.669 141.364 131.625 141.114 131.535C140.877 131.447 140.669 131.326 140.502 131.173C140.322 131.004 140.183 130.807 140.086 130.583C139.988 130.361 139.947 130.087 139.947 129.765V125.755H138.71V124.723H139.947V122.791H141.128V124.723H142.85V125.755H141.128V129.483C141.128 129.859 141.197 130.137 141.35 130.315C141.53 130.512 141.781 130.61 142.114 130.61C142.378 130.61 142.642 130.535 142.892 130.382V131.495C142.753 131.558 142.614 131.602 142.461 131.629C142.322 131.656 142.142 131.669 141.919 131.669ZM145.045 123.462C144.823 123.462 144.614 123.381 144.448 123.221C144.281 123.06 144.198 122.868 144.198 122.644C144.198 122.421 144.281 122.234 144.448 122.081C144.614 121.92 144.823 121.839 145.045 121.839C145.281 121.839 145.476 121.92 145.642 122.081C145.809 122.234 145.892 122.421 145.892 122.644C145.892 122.868 145.809 123.06 145.642 123.221C145.489 123.381 145.295 123.462 145.045 123.462ZM144.462 124.723H145.628V131.562H144.462V124.723ZM155.352 131.777C154.38 131.777 153.505 131.558 152.727 131.12C151.935 130.682 151.31 130.083 150.865 129.323C150.421 128.554 150.199 127.7 150.199 126.761C150.199 125.822 150.421 124.973 150.865 124.213C151.31 123.445 151.935 122.841 152.727 122.403C153.505 121.965 154.38 121.745 155.352 121.745C156.089 121.745 156.769 121.885 157.381 122.161C157.992 122.429 158.534 122.814 158.992 123.314L158.145 124.106C157.756 123.668 157.339 123.347 156.894 123.14C156.45 122.935 155.936 122.832 155.352 122.832C154.63 122.832 153.963 122.998 153.366 123.328C152.755 123.65 152.282 124.111 151.921 124.709C151.56 125.299 151.393 125.983 151.393 126.761C151.393 127.539 151.56 128.228 151.921 128.826C152.282 129.416 152.755 129.878 153.366 130.208C153.963 130.529 154.63 130.69 155.352 130.69C156.547 130.69 157.575 130.213 158.423 129.255L159.284 130.06C158.811 130.588 158.242 131.008 157.575 131.321C156.894 131.625 156.158 131.777 155.352 131.777ZM163.729 131.777C163.034 131.777 162.409 131.616 161.854 131.294C161.298 130.972 160.867 130.535 160.548 129.98C160.242 129.426 160.089 128.813 160.089 128.142C160.089 127.472 160.242 126.86 160.548 126.305C160.867 125.751 161.298 125.313 161.854 124.991C162.409 124.669 163.034 124.508 163.729 124.508C164.424 124.508 165.049 124.669 165.604 124.991C166.16 125.313 166.591 125.751 166.896 126.305C167.216 126.86 167.369 127.472 167.369 128.142C167.369 128.813 167.216 129.426 166.896 129.98C166.591 130.535 166.16 130.972 165.604 131.294C165.049 131.616 164.424 131.777 163.729 131.777ZM163.729 130.744C164.173 130.744 164.576 130.642 164.938 130.436C165.326 130.221 165.618 129.918 165.84 129.524C166.077 129.131 166.188 128.671 166.188 128.142C166.188 127.615 166.077 127.155 165.84 126.761C165.618 126.368 165.326 126.069 164.938 125.863C164.576 125.648 164.173 125.541 163.729 125.541C163.298 125.541 162.895 125.648 162.507 125.863C162.131 126.069 161.826 126.368 161.59 126.761C161.367 127.155 161.256 127.615 161.256 128.142C161.256 128.671 161.367 129.131 161.59 129.524C161.826 129.918 162.131 130.221 162.507 130.436C162.895 130.642 163.298 130.744 163.729 130.744ZM168.674 121.96H169.855V131.562H168.674V121.96ZM171.605 121.96H172.786V131.562H171.605V121.96ZM177.62 131.777C176.954 131.777 176.343 131.621 175.801 131.307C175.273 130.995 174.842 130.566 174.537 130.02C174.245 129.466 174.092 128.845 174.092 128.156C174.092 127.495 174.231 126.887 174.509 126.332C174.8 125.778 175.203 125.335 175.717 125.004C176.245 124.674 176.843 124.508 177.523 124.508C178.218 124.508 178.829 124.661 179.329 124.964C179.843 125.259 180.232 125.671 180.496 126.198C180.774 126.726 180.913 127.33 180.913 128.008C180.913 128.142 180.899 128.259 180.871 128.357H175.273C175.301 128.876 175.439 129.314 175.662 129.671C175.898 130.029 176.19 130.297 176.537 130.476C176.898 130.656 177.273 130.744 177.662 130.744C178.579 130.744 179.274 130.334 179.76 129.51L180.76 129.98C180.454 130.535 180.038 130.972 179.51 131.294C178.996 131.616 178.371 131.777 177.62 131.777ZM179.662 127.418C179.649 127.133 179.565 126.847 179.412 126.56C179.274 126.274 179.037 126.033 178.704 125.836C178.398 125.64 177.996 125.541 177.509 125.541C176.954 125.541 176.481 125.715 176.092 126.064C175.717 126.404 175.467 126.855 175.342 127.418H179.662ZM185.483 134.673C184.65 134.673 183.955 134.486 183.413 134.11C182.871 133.735 182.51 133.284 182.33 132.756L183.399 132.313C183.552 132.707 183.816 133.024 184.177 133.265C184.538 133.516 184.983 133.641 185.483 133.641C186.205 133.641 186.775 133.436 187.178 133.024C187.581 132.614 187.789 132.031 187.789 131.28V130.516H187.733C187.497 130.865 187.164 131.152 186.747 131.374C186.33 131.589 185.844 131.696 185.316 131.696C184.705 131.696 184.136 131.545 183.636 131.24C183.135 130.937 182.732 130.512 182.441 129.966C182.135 129.422 181.996 128.799 181.996 128.102C181.996 127.414 182.135 126.797 182.441 126.251C182.732 125.698 183.135 125.268 183.636 124.964C184.136 124.661 184.705 124.508 185.316 124.508C185.844 124.508 186.33 124.621 186.747 124.843C187.164 125.058 187.497 125.345 187.733 125.702H187.789V124.723H188.914V131.294C188.914 132.394 188.595 133.23 187.97 133.802C187.331 134.384 186.511 134.673 185.483 134.673ZM185.483 130.664C185.9 130.664 186.289 130.562 186.636 130.355C186.983 130.15 187.261 129.855 187.469 129.47C187.678 129.086 187.789 128.631 187.789 128.102C187.789 127.566 187.678 127.106 187.469 126.721C187.261 126.337 186.983 126.046 186.636 125.849C186.289 125.644 185.9 125.541 185.483 125.541C185.052 125.541 184.664 125.644 184.316 125.849C183.955 126.056 183.677 126.351 183.469 126.734C183.26 127.119 183.163 127.575 183.163 128.102C183.163 128.631 183.26 129.09 183.469 129.483C183.677 129.868 183.955 130.163 184.316 130.369C184.664 130.566 185.052 130.664 185.483 130.664ZM193.735 131.777C193.068 131.777 192.457 131.621 191.915 131.307C191.387 130.995 190.956 130.566 190.651 130.02C190.359 129.466 190.206 128.845 190.206 128.156C190.206 127.495 190.345 126.887 190.623 126.332C190.915 125.778 191.317 125.335 191.831 125.004C192.359 124.674 192.957 124.508 193.637 124.508C194.332 124.508 194.943 124.661 195.443 124.964C195.957 125.259 196.346 125.671 196.61 126.198C196.888 126.726 197.027 127.33 197.027 128.008C197.027 128.142 197.013 128.259 196.985 128.357H191.387C191.415 128.876 191.554 129.314 191.776 129.671C192.012 130.029 192.304 130.297 192.651 130.476C193.012 130.656 193.387 130.744 193.776 130.744C194.693 130.744 195.388 130.334 195.874 129.51L196.874 129.98C196.568 130.535 196.152 130.972 195.624 131.294C195.11 131.616 194.485 131.777 193.735 131.777ZM195.777 127.418C195.763 127.133 195.679 126.847 195.527 126.56C195.388 126.274 195.151 126.033 194.818 125.836C194.512 125.64 194.11 125.541 193.623 125.541C193.068 125.541 192.595 125.715 192.206 126.064C191.831 126.404 191.581 126.855 191.456 127.418H195.777ZM204.903 131.777C204.209 131.777 203.584 131.616 203.028 131.294C202.472 130.972 202.042 130.535 201.722 129.98C201.416 129.426 201.264 128.813 201.264 128.142C201.264 127.472 201.416 126.86 201.722 126.305C202.042 125.751 202.472 125.313 203.028 124.991C203.584 124.669 204.209 124.508 204.903 124.508C205.598 124.508 206.223 124.669 206.779 124.991C207.334 125.313 207.765 125.751 208.071 126.305C208.39 126.86 208.543 127.472 208.543 128.142C208.543 128.813 208.39 129.426 208.071 129.98C207.765 130.535 207.334 130.972 206.779 131.294C206.223 131.616 205.598 131.777 204.903 131.777ZM204.903 130.744C205.348 130.744 205.751 130.642 206.112 130.436C206.501 130.221 206.793 129.918 207.015 129.524C207.251 129.131 207.362 128.671 207.362 128.142C207.362 127.615 207.251 127.155 207.015 126.761C206.793 126.368 206.501 126.069 206.112 125.863C205.751 125.648 205.348 125.541 204.903 125.541C204.473 125.541 204.07 125.648 203.681 125.863C203.306 126.069 203 126.368 202.764 126.761C202.542 127.155 202.431 127.615 202.431 128.142C202.431 128.671 202.542 129.131 202.764 129.524C203 129.918 203.306 130.221 203.681 130.436C204.07 130.642 204.473 130.744 204.903 130.744ZM210.529 125.755H209.224V124.723H210.529V123.985C210.529 123.556 210.641 123.18 210.835 122.858C211.043 122.537 211.321 122.291 211.655 122.121C212.002 121.943 212.377 121.853 212.794 121.853C213.197 121.853 213.544 121.906 213.836 122.014V123.127C213.669 123.065 213.516 123.015 213.363 122.979C213.224 122.935 213.044 122.912 212.835 122.912C212.53 122.912 212.266 123.019 212.044 123.234C211.821 123.44 211.71 123.73 211.71 124.106V124.723H213.53V125.755H211.71V131.562H210.529V125.755ZM218.447 121.96H224.199V123.046H219.614V126.225H223.754V127.297H219.614V130.476H224.199V131.562H218.447V121.96ZM225.727 124.723H226.852V125.728H226.907C227.102 125.389 227.408 125.103 227.838 124.87C228.255 124.629 228.713 124.508 229.199 124.508C230.047 124.508 230.7 124.749 231.144 125.232C231.589 125.707 231.825 126.355 231.825 127.177V131.562H230.644V127.351C230.644 126.717 230.478 126.257 230.172 125.97C229.852 125.684 229.422 125.541 228.88 125.541C228.491 125.541 228.158 125.644 227.852 125.849C227.546 126.056 227.324 126.328 227.157 126.667C226.991 126.998 226.907 127.347 226.907 127.713V131.562H225.727V124.723ZM236.548 134.673C235.715 134.673 235.034 134.486 234.478 134.11C233.95 133.735 233.589 133.284 233.395 132.756L234.464 132.313C234.631 132.707 234.881 133.024 235.242 133.265C235.617 133.516 236.048 133.641 236.548 133.641C237.284 133.641 237.854 133.436 238.243 133.024C238.66 132.614 238.854 132.031 238.854 131.28V130.516H238.799C238.576 130.865 238.243 131.152 237.812 131.374C237.396 131.589 236.923 131.696 236.381 131.696C235.77 131.696 235.214 131.545 234.7 131.24C234.2 130.937 233.811 130.512 233.506 129.966C233.214 129.422 233.061 128.799 233.061 128.102C233.061 127.414 233.214 126.797 233.506 126.251C233.811 125.698 234.2 125.268 234.7 124.964C235.214 124.661 235.77 124.508 236.381 124.508C236.923 124.508 237.396 124.621 237.812 124.843C238.243 125.058 238.576 125.345 238.799 125.702H238.854V124.723H239.979V131.294C239.979 132.394 239.674 133.23 239.035 133.802C238.409 134.384 237.576 134.673 236.548 134.673ZM236.548 130.664C236.979 130.664 237.368 130.562 237.701 130.355C238.062 130.15 238.34 129.855 238.535 129.47C238.757 129.086 238.854 128.631 238.854 128.102C238.854 127.566 238.757 127.106 238.535 126.721C238.34 126.337 238.062 126.046 237.701 125.849C237.368 125.644 236.979 125.541 236.548 125.541C236.131 125.541 235.742 125.644 235.381 125.849C235.034 126.056 234.756 126.351 234.534 126.734C234.339 127.119 234.228 127.575 234.228 128.102C234.228 128.631 234.339 129.09 234.534 129.483C234.756 129.868 235.034 130.163 235.381 130.369C235.742 130.566 236.131 130.664 236.548 130.664ZM242.424 123.462C242.188 123.462 241.993 123.381 241.827 123.221C241.66 123.06 241.577 122.868 241.577 122.644C241.577 122.421 241.66 122.234 241.827 122.081C241.993 121.92 242.188 121.839 242.424 121.839C242.66 121.839 242.855 121.92 243.022 122.081C243.188 122.234 243.272 122.421 243.272 122.644C243.272 122.868 243.188 123.06 243.022 123.221C242.869 123.381 242.66 123.462 242.424 123.462ZM241.841 124.723H243.008V131.562H241.841V124.723ZM244.869 124.723H245.994V125.728H246.05C246.244 125.389 246.55 125.103 246.981 124.87C247.397 124.629 247.856 124.508 248.342 124.508C249.189 124.508 249.842 124.749 250.287 125.232C250.731 125.707 250.967 126.355 250.967 127.177V131.562H249.787V127.351C249.787 126.717 249.62 126.257 249.314 125.97C248.995 125.684 248.564 125.541 248.022 125.541C247.634 125.541 247.3 125.644 246.995 125.849C246.689 126.056 246.467 126.328 246.3 126.667C246.133 126.998 246.05 127.347 246.05 127.713V131.562H244.869V124.723ZM255.802 131.777C255.121 131.777 254.524 131.621 253.982 131.307C253.44 130.995 253.023 130.566 252.718 130.02C252.426 129.466 252.273 128.845 252.273 128.156C252.273 127.495 252.412 126.887 252.69 126.332C252.982 125.778 253.385 125.335 253.899 125.004C254.413 124.674 255.024 124.508 255.704 124.508C256.399 124.508 256.996 124.661 257.51 124.964C258.024 125.259 258.413 125.671 258.677 126.198C258.955 126.726 259.094 127.33 259.094 128.008C259.094 128.142 259.08 128.259 259.052 128.357H253.454C253.482 128.876 253.607 129.314 253.843 129.671C254.079 130.029 254.371 130.297 254.718 130.476C255.079 130.656 255.454 130.744 255.843 130.744C256.746 130.744 257.455 130.334 257.941 129.51L258.941 129.98C258.636 130.535 258.219 130.972 257.691 131.294C257.177 131.616 256.538 131.777 255.802 131.777ZM257.844 127.418C257.83 127.133 257.747 126.847 257.594 126.56C257.441 126.274 257.205 126.033 256.885 125.836C256.566 125.64 256.177 125.541 255.691 125.541C255.135 125.541 254.663 125.715 254.274 126.064C253.899 126.404 253.648 126.855 253.523 127.418H257.844ZM263.692 131.777C263.025 131.777 262.414 131.621 261.872 131.307C261.344 130.995 260.914 130.566 260.608 130.02C260.316 129.466 260.164 128.845 260.164 128.156C260.164 127.495 260.302 126.887 260.58 126.332C260.872 125.778 261.275 125.335 261.789 125.004C262.317 124.674 262.914 124.508 263.595 124.508C264.289 124.508 264.901 124.661 265.401 124.964C265.915 125.259 266.304 125.671 266.568 126.198C266.845 126.726 266.984 127.33 266.984 128.008C266.984 128.142 266.97 128.259 266.943 128.357H261.344C261.372 128.876 261.511 129.314 261.733 129.671C261.97 130.029 262.261 130.297 262.609 130.476C262.97 130.656 263.345 130.744 263.734 130.744C264.65 130.744 265.345 130.334 265.831 129.51L266.831 129.98C266.526 130.535 266.109 130.972 265.581 131.294C265.067 131.616 264.442 131.777 263.692 131.777ZM265.734 127.418C265.72 127.133 265.637 126.847 265.484 126.56C265.345 126.274 265.109 126.033 264.776 125.836C264.47 125.64 264.067 125.541 263.581 125.541C263.025 125.541 262.553 125.715 262.164 126.064C261.789 126.404 261.539 126.855 261.414 127.418H265.734ZM268.374 124.723H269.499V125.822H269.554C269.693 125.447 269.957 125.138 270.36 124.897C270.763 124.647 271.18 124.521 271.61 124.521C271.93 124.521 272.207 124.567 272.444 124.656V125.889C272.152 125.747 271.819 125.675 271.443 125.675C271.096 125.675 270.791 125.769 270.499 125.956C270.207 126.144 269.985 126.399 269.804 126.721C269.638 127.035 269.554 127.374 269.554 127.74V131.562H268.374V124.723ZM274.277 123.462C274.041 123.462 273.847 123.381 273.68 123.221C273.513 123.06 273.43 122.868 273.43 122.644C273.43 122.421 273.513 122.234 273.68 122.081C273.847 121.92 274.041 121.839 274.277 121.839C274.514 121.839 274.708 121.92 274.875 122.081C275.041 122.234 275.125 122.421 275.125 122.644C275.125 122.868 275.041 123.06 274.875 123.221C274.722 123.381 274.514 123.462 274.277 123.462ZM273.694 124.723H274.861V131.562H273.694V124.723ZM276.722 124.723H277.847V125.728H277.903C278.098 125.389 278.403 125.103 278.834 124.87C279.25 124.629 279.709 124.508 280.195 124.508C281.042 124.508 281.695 124.749 282.14 125.232C282.584 125.707 282.821 126.355 282.821 127.177V131.562H281.64V127.351C281.64 126.717 281.473 126.257 281.168 125.97C280.848 125.684 280.417 125.541 279.876 125.541C279.487 125.541 279.153 125.644 278.848 125.849C278.542 126.056 278.32 126.328 278.153 126.667C277.986 126.998 277.903 127.347 277.903 127.713V131.562H276.722V124.723ZM287.544 134.673C286.71 134.673 286.03 134.486 285.474 134.11C284.946 133.735 284.585 133.284 284.39 132.756L285.46 132.313C285.627 132.707 285.877 133.024 286.238 133.265C286.613 133.516 287.044 133.641 287.544 133.641C288.28 133.641 288.849 133.436 289.238 133.024C289.655 132.614 289.85 132.031 289.85 131.28V130.516H289.794C289.572 130.865 289.238 131.152 288.808 131.374C288.391 131.589 287.919 131.696 287.377 131.696C286.766 131.696 286.21 131.545 285.696 131.24C285.196 130.937 284.807 130.512 284.502 129.966C284.21 129.422 284.057 128.799 284.057 128.102C284.057 127.414 284.21 126.797 284.502 126.251C284.807 125.698 285.196 125.268 285.696 124.964C286.21 124.661 286.766 124.508 287.377 124.508C287.919 124.508 288.391 124.621 288.808 124.843C289.238 125.058 289.572 125.345 289.794 125.702H289.85V124.723H290.975V131.294C290.975 132.394 290.669 133.23 290.03 133.802C289.405 134.384 288.572 134.673 287.544 134.673ZM287.544 130.664C287.974 130.664 288.363 130.562 288.697 130.355C289.058 130.15 289.336 129.855 289.53 129.47C289.752 129.086 289.85 128.631 289.85 128.102C289.85 127.566 289.752 127.106 289.53 126.721C289.336 126.337 289.058 126.046 288.697 125.849C288.363 125.644 287.974 125.541 287.544 125.541C287.127 125.541 286.738 125.644 286.377 125.849C286.03 126.056 285.752 126.351 285.529 126.734C285.335 127.119 285.224 127.575 285.224 128.102C285.224 128.631 285.335 129.09 285.529 129.483C285.752 129.868 286.03 130.163 286.377 130.369C286.738 130.566 287.127 130.664 287.544 130.664ZM298.212 131.777C297.698 131.777 297.24 131.679 296.823 131.482C296.42 131.286 296.101 131.018 295.879 130.677C295.656 130.328 295.545 129.935 295.545 129.497C295.545 128.773 295.837 128.209 296.393 127.807C296.962 127.397 297.671 127.19 298.532 127.19C298.962 127.19 299.351 127.236 299.713 127.324C300.088 127.414 300.365 127.517 300.56 127.633V127.217C300.56 126.707 300.379 126.301 300.004 125.997C299.643 125.684 299.171 125.527 298.601 125.527C298.212 125.527 297.837 125.613 297.504 125.782C297.171 125.943 296.906 126.171 296.712 126.466L295.823 125.822C296.101 125.412 296.49 125.09 296.962 124.857C297.462 124.625 298.004 124.508 298.587 124.508C299.56 124.508 300.31 124.755 300.852 125.246C301.407 125.728 301.685 126.391 301.685 127.23V131.562H300.56V130.583H300.504C300.31 130.914 300.004 131.196 299.588 131.428C299.185 131.661 298.726 131.777 298.212 131.777ZM298.323 130.771C298.726 130.771 299.101 130.673 299.435 130.476C299.782 130.28 300.06 130.016 300.254 129.685C300.463 129.355 300.56 128.993 300.56 128.598C300.338 128.456 300.074 128.339 299.74 128.25C299.421 128.161 299.074 128.116 298.712 128.116C298.073 128.116 297.573 128.246 297.24 128.504C296.92 128.765 296.754 129.1 296.754 129.51C296.754 129.886 296.907 130.19 297.198 130.422C297.504 130.656 297.879 130.771 298.323 130.771ZM303.338 124.723H304.464V125.728H304.519C304.713 125.389 305.019 125.103 305.45 124.87C305.867 124.629 306.325 124.508 306.811 124.508C307.659 124.508 308.311 124.749 308.756 125.232C309.2 125.707 309.437 126.355 309.437 127.177V131.562H308.256V127.351C308.256 126.717 308.089 126.257 307.784 125.97C307.464 125.684 307.033 125.541 306.492 125.541C306.103 125.541 305.769 125.644 305.464 125.849C305.158 126.056 304.936 126.328 304.769 126.667C304.602 126.998 304.519 127.347 304.519 127.713V131.562H303.338V124.723ZM314.118 131.777C313.493 131.777 312.91 131.621 312.396 131.307C311.882 130.995 311.479 130.566 311.187 130.02C310.895 129.466 310.743 128.84 310.743 128.142C310.743 127.454 310.895 126.833 311.187 126.278C311.479 125.724 311.882 125.291 312.396 124.977C312.91 124.665 313.493 124.508 314.118 124.508C314.66 124.508 315.146 124.629 315.577 124.87C316.007 125.103 316.327 125.393 316.549 125.742H316.605L316.549 124.79V121.96H317.73V131.562H316.605V130.556H316.549C316.327 130.897 316.007 131.187 315.577 131.428C315.146 131.661 314.66 131.777 314.118 131.777ZM314.257 130.744C314.674 130.744 315.063 130.637 315.41 130.422C315.771 130.208 316.063 129.905 316.271 129.51C316.494 129.117 316.605 128.661 316.605 128.142C316.605 127.625 316.494 127.169 316.271 126.774C316.063 126.381 315.771 126.077 315.41 125.863C315.063 125.648 314.674 125.541 314.257 125.541C313.854 125.541 313.465 125.648 313.104 125.863C312.743 126.077 312.451 126.386 312.229 126.788C312.02 127.182 311.909 127.633 311.909 128.142C311.909 128.652 312.02 129.108 312.229 129.51C312.451 129.905 312.743 130.208 313.104 130.422C313.465 130.637 313.854 130.744 314.257 130.744ZM324.426 123.046H321.633V121.96H328.385V123.046H325.606V131.562H324.426V123.046ZM331.677 131.777C330.996 131.777 330.399 131.621 329.857 131.307C329.315 130.995 328.899 130.566 328.593 130.02C328.301 129.466 328.148 128.845 328.148 128.156C328.148 127.495 328.287 126.887 328.565 126.332C328.857 125.778 329.26 125.335 329.774 125.004C330.288 124.674 330.899 124.508 331.58 124.508C332.274 124.508 332.872 124.661 333.386 124.964C333.9 125.259 334.288 125.671 334.552 126.198C334.83 126.726 334.969 127.33 334.969 128.008C334.969 128.142 334.955 128.259 334.927 128.357H329.329C329.357 128.876 329.482 129.314 329.718 129.671C329.954 130.029 330.246 130.297 330.593 130.476C330.954 130.656 331.33 130.744 331.719 130.744C332.622 130.744 333.33 130.334 333.816 129.51L334.816 129.98C334.511 130.535 334.094 130.972 333.566 131.294C333.052 131.616 332.413 131.777 331.677 131.777ZM333.719 127.418C333.705 127.133 333.622 126.847 333.469 126.56C333.316 126.274 333.08 126.033 332.76 125.836C332.441 125.64 332.052 125.541 331.566 125.541C331.01 125.541 330.538 125.715 330.149 126.064C329.774 126.404 329.524 126.855 329.399 127.418H333.719ZM339.623 131.777C338.942 131.777 338.331 131.621 337.775 131.307C337.234 130.985 336.803 130.552 336.497 130.006C336.192 129.453 336.039 128.832 336.039 128.142C336.039 127.454 336.192 126.833 336.497 126.278C336.803 125.724 337.234 125.291 337.775 124.977C338.331 124.665 338.942 124.508 339.623 124.508C340.401 124.508 341.04 124.682 341.554 125.031C342.082 125.372 342.457 125.828 342.679 126.399L341.609 126.828C341.443 126.408 341.179 126.09 340.817 125.876C340.484 125.653 340.067 125.541 339.567 125.541C339.151 125.541 338.761 125.653 338.4 125.876C338.039 126.09 337.747 126.395 337.525 126.788C337.317 127.182 337.206 127.633 337.206 128.142C337.206 128.652 337.317 129.104 337.525 129.497C337.747 129.891 338.039 130.2 338.4 130.422C338.761 130.637 339.151 130.744 339.567 130.744C340.067 130.744 340.498 130.633 340.859 130.409C341.22 130.186 341.498 129.868 341.665 129.457L342.721 129.886C342.484 130.449 342.095 130.905 341.554 131.254C341.026 131.602 340.387 131.777 339.623 131.777ZM343.999 121.96H345.179V124.79L345.124 125.728H345.179C345.374 125.38 345.68 125.09 346.096 124.857C346.527 124.625 346.985 124.508 347.485 124.508C348.347 124.508 349.014 124.755 349.458 125.246C349.916 125.728 350.139 126.372 350.139 127.177V131.562H348.958V127.351C348.958 126.734 348.805 126.278 348.472 125.983C348.152 125.688 347.736 125.541 347.208 125.541C346.846 125.541 346.499 125.648 346.18 125.863C345.874 126.077 345.638 126.355 345.443 126.694C345.277 127.035 345.179 127.387 345.179 127.753V131.562H343.999V121.96ZM351.847 124.723H352.972V125.728H353.028C353.223 125.389 353.528 125.103 353.959 124.87C354.376 124.629 354.834 124.508 355.32 124.508C356.168 124.508 356.821 124.749 357.265 125.232C357.71 125.707 357.946 126.355 357.946 127.177V131.562H356.765V127.351C356.765 126.717 356.598 126.257 356.293 125.97C355.973 125.684 355.542 125.541 355.001 125.541C354.612 125.541 354.278 125.644 353.973 125.849C353.667 126.056 353.445 126.328 353.278 126.667C353.112 126.998 353.028 127.347 353.028 127.713V131.562H351.847V124.723ZM362.891 131.777C362.196 131.777 361.571 131.616 361.016 131.294C360.46 130.972 360.029 130.535 359.71 129.98C359.404 129.426 359.251 128.813 359.251 128.142C359.251 127.472 359.404 126.86 359.71 126.305C360.029 125.751 360.46 125.313 361.016 124.991C361.571 124.669 362.196 124.508 362.891 124.508C363.586 124.508 364.211 124.669 364.766 124.991C365.322 125.313 365.753 125.751 366.058 126.305C366.378 126.86 366.531 127.472 366.531 128.142C366.531 128.813 366.378 129.426 366.058 129.98C365.753 130.535 365.322 130.972 364.766 131.294C364.211 131.616 363.586 131.777 362.891 131.777ZM362.891 130.744C363.336 130.744 363.738 130.642 364.1 130.436C364.489 130.221 364.78 129.918 365.003 129.524C365.239 129.131 365.35 128.671 365.35 128.142C365.35 127.615 365.239 127.155 365.003 126.761C364.78 126.368 364.489 126.069 364.1 125.863C363.738 125.648 363.336 125.541 362.891 125.541C362.46 125.541 362.057 125.648 361.669 125.863C361.293 126.069 360.988 126.368 360.752 126.761C360.53 127.155 360.418 127.615 360.418 128.142C360.418 128.671 360.53 129.131 360.752 129.524C360.988 129.918 361.293 130.221 361.669 130.436C362.057 130.642 362.46 130.744 362.891 130.744ZM367.836 121.96H369.017V131.562H367.836V121.96ZM373.962 131.777C373.268 131.777 372.643 131.616 372.087 131.294C371.531 130.972 371.101 130.535 370.781 129.98C370.476 129.426 370.323 128.813 370.323 128.142C370.323 127.472 370.476 126.86 370.781 126.305C371.101 125.751 371.531 125.313 372.087 124.991C372.643 124.669 373.268 124.508 373.962 124.508C374.657 124.508 375.282 124.669 375.838 124.991C376.394 125.313 376.824 125.751 377.13 126.305C377.449 126.86 377.602 127.472 377.602 128.142C377.602 128.813 377.449 129.426 377.13 129.98C376.824 130.535 376.394 130.972 375.838 131.294C375.282 131.616 374.657 131.777 373.962 131.777ZM373.962 130.744C374.407 130.744 374.81 130.642 375.171 130.436C375.56 130.221 375.852 129.918 376.074 129.524C376.31 129.131 376.421 128.671 376.421 128.142C376.421 127.615 376.31 127.155 376.074 126.761C375.852 126.368 375.56 126.069 375.171 125.863C374.81 125.648 374.407 125.541 373.962 125.541C373.532 125.541 373.129 125.648 372.74 125.863C372.365 126.069 372.059 126.368 371.823 126.761C371.601 127.155 371.49 127.615 371.49 128.142C371.49 128.671 371.601 129.131 371.823 129.524C372.059 129.918 372.365 130.221 372.74 130.436C373.129 130.642 373.532 130.744 373.962 130.744ZM382.089 134.673C381.256 134.673 380.561 134.486 380.019 134.11C379.478 133.735 379.116 133.284 378.936 132.756L380.005 132.313C380.158 132.707 380.422 133.024 380.783 133.265C381.158 133.516 381.589 133.641 382.089 133.641C382.825 133.641 383.381 133.436 383.784 133.024C384.187 132.614 384.395 132.031 384.395 131.28V130.516H384.34C384.103 130.865 383.784 131.152 383.353 131.374C382.936 131.589 382.464 131.696 381.922 131.696C381.311 131.696 380.755 131.545 380.241 131.24C379.741 130.937 379.338 130.512 379.047 129.966C378.755 129.422 378.602 128.799 378.602 128.102C378.602 127.414 378.755 126.797 379.047 126.251C379.338 125.698 379.741 125.268 380.241 124.964C380.755 124.661 381.311 124.508 381.922 124.508C382.464 124.508 382.936 124.621 383.353 124.843C383.784 125.058 384.103 125.345 384.34 125.702H384.395V124.723H385.52V131.294C385.52 132.394 385.201 133.23 384.576 133.802C383.95 134.384 383.117 134.673 382.089 134.673ZM382.089 130.664C382.52 130.664 382.895 130.562 383.242 130.355C383.589 130.15 383.867 129.855 384.075 129.47C384.284 129.086 384.395 128.631 384.395 128.102C384.395 127.566 384.284 127.106 384.075 126.721C383.867 126.337 383.589 126.046 383.242 125.849C382.895 125.644 382.52 125.541 382.089 125.541C381.658 125.541 381.269 125.644 380.922 125.849C380.575 126.056 380.283 126.351 380.075 126.734C379.866 127.119 379.769 127.575 379.769 128.102C379.769 128.631 379.866 129.09 380.075 129.483C380.283 129.868 380.575 130.163 380.922 130.369C381.269 130.566 381.658 130.664 382.089 130.664ZM389.438 131.133L386.506 124.723H387.785L390.007 129.805H390.035L392.174 124.723H393.452L389.076 134.459H387.854L389.438 131.133Z" fill="#242424"/>
<defs>
<linearGradient id="paint0_linear_703_2371" x1="425.612" y1="131.111" x2="9.08987" y2="131.111" gradientUnits="userSpaceOnUse">
<stop stop-color="#348BCA"/>
<stop offset="0.404875" stop-color="#59A43A"/>
<stop offset="0.711571" stop-color="#F3B002"/>
<stop offset="1" stop-color="#DF572E"/>
</linearGradient>
</defs>
</svg>
