<svg width="429" height="168" viewBox="0 0 429 168" fill="none" xmlns="http://www.w3.org/2000/svg">
<path d="M417.277 2.11609H11.6459C6.27547 2.11609 1.92188 6.31906 1.92188 11.5037V156.341C1.92188 161.526 6.27547 165.729 11.6459 165.729H417.277C422.647 165.729 427.001 161.526 427.001 156.341V11.5037C427.001 6.31906 422.647 2.11609 417.277 2.11609Z" fill="#EFEFEF" stroke="url(#paint0_linear_703_2376)" stroke-width="3.2"/>
<path d="M50.6657 104.227C49.1238 104.227 47.7068 103.869 46.401 103.156C45.1091 102.441 44.0672 101.465 43.3032 100.226C42.5391 98.9718 42.1641 97.5797 42.1641 96.0482C42.1641 94.518 42.5391 93.1327 43.3032 91.8935C44.0672 90.6396 45.1091 89.6552 46.401 88.9418C47.7068 88.227 49.1238 87.8702 50.6657 87.8702C51.8882 87.8702 53.0272 88.0808 54.083 88.5032C55.1387 88.927 56.0277 89.5171 56.7362 90.2748L54.972 91.9807C54.4303 91.412 53.8052 90.9749 53.0689 90.6691C52.3327 90.3633 51.527 90.2091 50.6379 90.2091C49.5961 90.2091 48.6236 90.4505 47.7207 90.9306C46.8177 91.4121 46.0815 92.0973 45.5398 92.9865C44.998 93.8756 44.7201 94.8962 44.7201 96.0482C44.7201 97.2002 44.998 98.2208 45.5398 99.1099C46.0815 99.999 46.8177 100.684 47.7207 101.166C48.6236 101.646 49.61 101.887 50.6657 101.887C51.6242 101.887 52.4299 101.749 53.0828 101.472C53.7357 101.194 54.3192 100.822 54.8332 100.356C55.1666 100.035 55.4444 99.6342 55.6666 99.1541C55.9028 98.6727 56.0695 98.147 56.139 97.5797H50.6379V95.3924H58.5422C58.6255 95.8001 58.6532 96.2238 58.6532 96.661C58.6532 97.6521 58.5005 98.607 58.181 99.5256C57.8615 100.43 57.3614 101.217 56.6668 101.887C55.1388 103.447 53.1384 104.227 50.6657 104.227ZM66.488 104.227C65.3212 104.227 64.2793 103.971 63.3625 103.462C62.4317 102.936 61.7234 102.223 61.2094 101.319C60.6954 100.415 60.4314 99.4089 60.4314 98.3012C60.4314 97.1921 60.6954 96.1863 61.2094 95.2824C61.7234 94.3785 62.4317 93.6718 63.3625 93.1622C64.2793 92.6365 65.3212 92.375 66.488 92.375C67.641 92.375 68.6829 92.6365 69.6136 93.1622C70.5305 93.6865 71.2529 94.4013 71.753 95.3052C72.267 96.2091 72.5308 97.2069 72.5308 98.3012C72.5308 99.4089 72.267 100.415 71.753 101.319C71.2529 102.223 70.5305 102.936 69.6136 103.462C68.6829 103.971 67.641 104.227 66.488 104.227ZM66.488 102.019C67.1132 102.019 67.7105 101.873 68.2523 101.581C68.7941 101.274 69.2248 100.845 69.5443 100.29C69.8777 99.7214 70.0443 99.0589 70.0443 98.3012C70.0443 97.5421 69.8777 96.8864 69.5443 96.3325C69.2248 95.7786 68.7941 95.3562 68.2523 95.0638C67.7105 94.7581 67.1132 94.6052 66.488 94.6052C65.849 94.6052 65.2517 94.7581 64.7099 95.0638C64.1681 95.3562 63.7376 95.7786 63.4042 96.3325C63.0847 96.8864 62.9319 97.5421 62.9319 98.3012C62.9319 99.0589 63.0847 99.7214 63.4042 100.29C63.7376 100.845 64.1681 101.274 64.7099 101.581C65.2517 101.873 65.849 102.019 66.488 102.019ZM80.2406 104.227C79.0738 104.227 78.0319 103.971 77.1151 103.462C76.1982 102.936 75.4758 102.223 74.9618 101.319C74.4478 100.415 74.1979 99.4089 74.1979 98.3012C74.1979 97.1921 74.4478 96.1863 74.9618 95.2824C75.4758 94.3785 76.1982 93.6718 77.1151 93.1622C78.0319 92.6365 79.0738 92.375 80.2406 92.375C81.4075 92.375 82.4494 92.6365 83.3662 93.1622C84.2831 93.6865 85.0055 94.4013 85.5195 95.3052C86.0334 96.2091 86.2834 97.2069 86.2834 98.3012C86.2834 99.4089 86.0334 100.415 85.5195 101.319C85.0055 102.223 84.2831 102.936 83.3662 103.462C82.4494 103.971 81.4075 104.227 80.2406 104.227ZM80.2406 102.019C80.8796 102.019 81.4631 101.873 82.0049 101.581C82.5466 101.274 82.9772 100.845 83.2967 100.29C83.6301 99.7214 83.7968 99.0589 83.7968 98.3012C83.7968 97.5421 83.6301 96.8864 83.2967 96.3325C82.9772 95.7786 82.5466 95.3562 82.0049 95.0638C81.4631 94.7581 80.8796 94.6052 80.2406 94.6052C79.6016 94.6052 79.0182 94.7581 78.4764 95.0638C77.9346 95.3562 77.4902 95.7786 77.1568 96.3325C76.8373 96.8864 76.6843 97.5421 76.6843 98.3012C76.6843 99.0589 76.8373 99.7214 77.1568 100.29C77.4902 100.845 77.9346 101.274 78.4764 101.581C79.0182 101.873 79.6016 102.019 80.2406 102.019ZM93.7987 108.951C92.3818 108.951 91.201 108.637 90.2563 108.009C89.3395 107.383 88.7283 106.64 88.4088 105.779L90.7425 104.839C90.9787 105.422 91.3677 105.889 91.8956 106.239C92.4374 106.603 93.0764 106.785 93.7987 106.785C94.8545 106.785 95.6741 106.479 96.2715 105.866C96.8688 105.269 97.1743 104.423 97.1743 103.33V102.303H97.0354C96.6603 102.827 96.1464 103.243 95.5213 103.549C94.8961 103.84 94.1876 103.986 93.368 103.986C92.3956 103.986 91.5066 103.746 90.6731 103.265C89.8397 102.783 89.1728 102.106 88.6727 101.231C88.1865 100.341 87.9505 99.3285 87.9505 98.1913C87.9505 97.054 88.1865 96.0482 88.6727 95.1738C89.1728 94.2847 89.8397 93.5993 90.6731 93.1179C91.5066 92.6217 92.3956 92.375 93.368 92.375C94.1598 92.375 94.8822 92.5278 95.5213 92.8336C96.1464 93.1393 96.6603 93.5551 97.0354 94.0808H97.1743V92.725H99.5498V103.265C99.5498 104.474 99.3136 105.503 98.8274 106.348C98.3412 107.209 97.6606 107.856 96.7854 108.294C95.9242 108.732 94.9239 108.951 93.7987 108.951ZM93.8126 101.8C94.4239 101.8 94.9795 101.661 95.4934 101.384C96.0074 101.092 96.4103 100.678 96.7159 100.137C97.0215 99.5833 97.1743 98.9342 97.1743 98.1913C97.1743 97.054 96.8409 96.1715 96.2019 95.5453C95.5629 94.9042 94.7711 94.5837 93.8126 94.5837C93.2014 94.5837 92.6319 94.7285 92.1179 95.0209C91.6039 95.2972 91.2011 95.7062 90.8955 96.2453C90.5898 96.7844 90.4369 97.4335 90.4369 98.1913C90.4369 98.949 90.5898 99.598 90.8955 100.137C91.2011 100.678 91.6039 101.092 92.1179 101.384C92.6319 101.661 93.2014 101.8 93.8126 101.8ZM102.481 88.2202H104.968V103.877H102.481V88.2202ZM113.066 104.227C111.927 104.227 110.913 103.971 110.01 103.462C109.121 102.951 108.413 102.252 107.899 101.362C107.399 100.458 107.148 99.4452 107.148 98.3227C107.148 97.2578 107.398 96.2748 107.871 95.3709C108.371 94.4523 109.065 93.7227 109.941 93.1836C110.816 92.6445 111.816 92.375 112.927 92.375C114.094 92.375 115.094 92.6217 115.942 93.1179C116.803 93.6141 117.456 94.2913 117.886 95.1523C118.345 96.012 118.567 96.9816 118.567 98.0598C118.567 98.2636 118.539 98.5198 118.498 98.8256H109.649C109.732 99.8609 110.107 100.663 110.774 101.231C111.455 101.785 112.247 102.062 113.136 102.062C113.844 102.062 114.455 101.909 114.969 101.603C115.497 101.282 115.914 100.852 116.233 100.313L118.345 101.274C117.803 102.193 117.095 102.915 116.22 103.44C115.331 103.965 114.289 104.227 113.066 104.227ZM116.025 96.9883C115.997 96.5954 115.872 96.2091 115.65 95.8296C115.414 95.4366 115.067 95.1081 114.608 94.8452C114.15 94.5837 113.594 94.4523 112.927 94.4523C112.122 94.4523 111.455 94.6856 110.885 95.1523C110.343 95.6043 109.968 96.2158 109.76 96.9883H116.025ZM126.555 88.2202H131.736C133.417 88.2202 134.876 88.5475 136.14 89.2033C137.39 89.8591 138.349 90.7858 139.015 91.9807C139.696 93.1622 140.03 94.518 140.03 96.0482C140.03 97.5797 139.696 98.9422 139.015 100.137C138.349 101.319 137.39 102.237 136.14 102.893C134.876 103.549 133.417 103.877 131.736 103.877H126.555V88.2202ZM131.695 101.537C133.514 101.537 134.917 101.056 135.932 100.094C136.959 99.1166 137.473 97.7688 137.473 96.0482C137.473 94.3423 136.959 93.0012 135.932 92.0249C134.917 91.0473 133.514 90.5591 131.695 90.5591H129.097V101.537H131.695ZM147.461 104.227C146.322 104.227 145.308 103.971 144.405 103.462C143.516 102.951 142.808 102.252 142.294 101.362C141.794 100.458 141.544 99.4452 141.544 98.3227C141.544 97.2578 141.794 96.2748 142.28 95.3709C142.766 94.4523 143.461 93.7227 144.336 93.1836C145.211 92.6445 146.211 92.375 147.323 92.375C148.489 92.375 149.49 92.6217 150.337 93.1179C151.198 93.6141 151.851 94.2913 152.282 95.1523C152.74 96.012 152.962 96.9816 152.962 98.0598C152.962 98.2636 152.949 98.5198 152.893 98.8256H144.044C144.128 99.8609 144.516 100.663 145.169 101.231C145.85 101.785 146.642 102.062 147.531 102.062C148.239 102.062 148.851 101.909 149.365 101.603C149.892 101.282 150.309 100.852 150.629 100.313L152.74 101.274C152.198 102.193 151.49 102.915 150.615 103.44C149.74 103.965 148.684 104.227 147.461 104.227ZM150.434 96.9883C150.393 96.5954 150.268 96.2091 150.045 95.8296C149.823 95.4366 149.476 95.1081 149.003 94.8452C148.545 94.5837 147.989 94.4523 147.323 94.4523C146.531 94.4523 145.85 94.6856 145.28 95.1523C144.739 95.6043 144.364 96.2158 144.155 96.9883H150.434ZM153.727 92.725H156.505L159.7 100.771H159.797L163.062 92.725H165.77L160.978 103.877H158.477L153.727 92.725ZM172.327 104.227C171.188 104.227 170.174 103.971 169.271 103.462C168.382 102.951 167.673 102.252 167.16 101.362C166.659 100.458 166.409 99.4452 166.409 98.3227C166.409 97.2578 166.66 96.2748 167.132 95.3709C167.632 94.4523 168.327 93.7227 169.202 93.1836C170.077 92.6445 171.077 92.375 172.188 92.375C173.355 92.375 174.355 92.6217 175.203 93.1179C176.064 93.6141 176.717 94.2913 177.148 95.1523C177.606 96.012 177.828 96.9816 177.828 98.0598C177.828 98.2636 177.8 98.5198 177.759 98.8256H168.91C168.993 99.8609 169.368 100.663 170.035 101.231C170.716 101.785 171.508 102.062 172.397 102.062C173.105 102.062 173.716 101.909 174.23 101.603C174.758 101.282 175.175 100.852 175.494 100.313L177.606 101.274C177.064 102.193 176.356 102.915 175.48 103.44C174.591 103.965 173.55 104.227 172.327 104.227ZM175.286 96.9883C175.258 96.5954 175.133 96.2091 174.911 95.8296C174.675 95.4366 174.328 95.1081 173.869 94.8452C173.411 94.5837 172.855 94.4523 172.188 94.4523C171.383 94.4523 170.716 94.6856 170.146 95.1523C169.604 95.6043 169.229 96.2158 169.021 96.9883H175.286ZM180.093 88.2202H182.593V103.877H180.093V88.2202ZM190.817 104.227C189.664 104.227 188.622 103.971 187.691 103.462C186.774 102.936 186.052 102.223 185.538 101.319C185.024 100.415 184.774 99.4089 184.774 98.3012C184.774 97.1921 185.024 96.1863 185.538 95.2824C186.052 94.3785 186.774 93.6718 187.691 93.1622C188.622 92.6365 189.664 92.375 190.817 92.375C191.984 92.375 193.025 92.6365 193.942 93.1622C194.873 93.6865 195.582 94.4013 196.096 95.3052C196.61 96.2091 196.873 97.2069 196.873 98.3012C196.873 99.4089 196.61 100.415 196.096 101.319C195.582 102.223 194.873 102.936 193.942 103.462C193.025 103.971 191.984 104.227 190.817 104.227ZM190.817 102.019C191.456 102.019 192.039 101.873 192.595 101.581C193.137 101.274 193.567 100.845 193.873 100.29C194.206 99.7214 194.373 99.0589 194.373 98.3012C194.373 97.5421 194.206 96.8864 193.873 96.3325C193.567 95.7786 193.137 95.3562 192.595 95.0638C192.039 94.7581 191.456 94.6052 190.817 94.6052C190.192 94.6052 189.594 94.7581 189.052 95.0638C188.511 95.3562 188.066 95.7786 187.747 96.3325C187.427 96.8864 187.261 97.5421 187.261 98.3012C187.261 99.0589 187.427 99.7214 187.747 100.29C188.066 100.845 188.511 101.274 189.052 101.581C189.594 101.873 190.192 102.019 190.817 102.019ZM198.971 92.725H201.347V94.1894H201.458C201.791 93.6798 202.277 93.2493 202.93 92.8993C203.583 92.5493 204.305 92.375 205.125 92.375C206.167 92.375 207.111 92.6297 207.959 93.1393C208.806 93.6503 209.473 94.357 209.945 95.2609C210.445 96.1501 210.696 97.1639 210.696 98.3012C210.696 99.4384 210.445 100.458 209.945 101.362C209.473 102.252 208.806 102.951 207.959 103.462C207.111 103.971 206.167 104.227 205.125 104.227C204.305 104.227 203.583 104.052 202.93 103.702C202.277 103.352 201.791 102.929 201.458 102.433H201.347L201.458 103.986V108.601H198.971V92.725ZM204.764 102.019C205.375 102.019 205.931 101.864 206.459 101.559C206.986 101.253 207.417 100.816 207.737 100.247C208.042 99.6785 208.209 99.0294 208.209 98.3012C208.209 97.5716 208.042 96.9306 207.737 96.3767C207.417 95.8081 206.986 95.3709 206.459 95.0638C205.931 94.7581 205.375 94.6052 204.764 94.6052C204.166 94.6052 203.597 94.7581 203.069 95.0638C202.555 95.3709 202.138 95.8081 201.819 96.3767C201.499 96.9306 201.347 97.5716 201.347 98.3012C201.347 99.0294 201.499 99.6785 201.819 100.247C202.138 100.816 202.555 101.253 203.069 101.559C203.597 101.864 204.166 102.019 204.764 102.019ZM218.252 104.227C217.113 104.227 216.099 103.971 215.196 103.462C214.293 102.951 213.599 102.252 213.085 101.362C212.585 100.458 212.335 99.4452 212.335 98.3227C212.335 97.2578 212.571 96.2748 213.057 95.3709C213.557 94.4523 214.252 93.7227 215.127 93.1836C216.002 92.6445 216.988 92.375 218.114 92.375C219.28 92.375 220.281 92.6217 221.128 93.1179C221.989 93.6141 222.628 94.2913 223.073 95.1523C223.531 96.012 223.753 96.9816 223.753 98.0598C223.753 98.2636 223.726 98.5198 223.684 98.8256H214.821C214.918 99.8609 215.293 100.663 215.96 101.231C216.641 101.785 217.419 102.062 218.322 102.062C219.03 102.062 219.642 101.909 220.156 101.603C220.683 101.282 221.1 100.852 221.42 100.313L223.531 101.274C222.976 102.193 222.267 102.915 221.392 103.44C220.517 103.965 219.475 104.227 218.252 104.227ZM221.211 96.9883C221.183 96.5954 221.058 96.2091 220.836 95.8296C220.6 95.4366 220.253 95.1081 219.794 94.8452C219.336 94.5837 218.78 94.4523 218.114 94.4523C217.308 94.4523 216.627 94.6856 216.071 95.1523C215.53 95.6043 215.155 96.2158 214.946 96.9883H221.211ZM226.018 92.725H228.393V94.3651H228.518C228.768 93.7965 229.213 93.3298 229.852 92.965C230.477 92.5855 231.158 92.3964 231.866 92.3964C232.422 92.3964 232.894 92.4688 233.269 92.615V95.1081C232.602 94.8747 232.005 94.758 231.477 94.758C230.908 94.758 230.394 94.9042 229.935 95.1953C229.505 95.4876 229.157 95.8805 228.893 96.3767C228.643 96.8568 228.518 97.3892 228.518 97.9726V103.877H226.018V92.725ZM244.896 104.227C243.549 104.227 242.34 103.848 241.271 103.09C240.201 102.331 239.465 101.268 239.048 99.8971L241.451 98.957C241.701 99.8166 242.118 100.523 242.729 101.077C243.34 101.618 244.077 101.887 244.938 101.887C245.744 101.887 246.424 101.69 246.98 101.297C247.536 100.888 247.827 100.334 247.827 99.6342C247.827 98.9932 247.577 98.4688 247.077 98.0598C246.591 97.6374 245.744 97.2149 244.507 96.7911L243.493 96.4425C242.41 96.0777 241.493 95.552 240.757 94.868C240.02 94.1827 239.645 93.2789 239.645 92.1564C239.645 91.3826 239.868 90.6691 240.298 90.0133C240.743 89.3562 241.34 88.8398 242.118 88.4603C242.896 88.066 243.785 87.8702 244.757 87.8702C246.188 87.8702 247.313 88.2055 248.161 88.8761C249.008 89.5318 249.578 90.2748 249.855 91.1063L247.577 92.0464C247.411 91.5502 247.091 91.113 246.619 90.7348C246.147 90.3553 245.549 90.1662 244.813 90.1662C244.063 90.1662 243.438 90.3485 242.924 90.712C242.424 91.0768 242.187 91.5435 242.187 92.1121C242.187 92.6512 242.41 93.0964 242.854 93.4465C243.313 93.7965 244.021 94.1318 244.993 94.4523L246.008 94.7795C247.397 95.2462 248.466 95.8591 249.23 96.6168C249.994 97.3598 250.383 98.3589 250.383 99.6128C250.383 100.633 250.106 101.493 249.564 102.193C249.022 102.878 248.327 103.388 247.48 103.723C246.647 104.06 245.785 104.227 244.896 104.227ZM257.037 104.052C256.523 104.052 256.037 103.971 255.579 103.812C255.134 103.651 254.759 103.44 254.481 103.177C253.829 102.55 253.495 101.697 253.495 100.619V94.8452H251.481V92.725H253.495V89.5748H255.996V92.725H258.802V94.8452H255.996V100.094C255.996 100.691 256.107 101.115 256.357 101.362C256.579 101.654 256.968 101.8 257.538 101.8C257.788 101.8 258.01 101.771 258.218 101.712C258.413 101.639 258.621 101.529 258.843 101.384V103.723C258.343 103.943 257.746 104.052 257.037 104.052ZM265.386 104.227C263.983 104.227 262.913 103.826 262.163 103.024C261.441 102.208 261.08 101.077 261.08 99.6342V92.725H263.566V99.307C263.566 100.211 263.789 100.888 264.233 101.34C264.678 101.792 265.275 102.019 265.997 102.019C266.581 102.019 267.109 101.873 267.553 101.581C268.012 101.274 268.359 100.873 268.595 100.379C268.845 99.8823 268.956 99.3499 268.956 98.7813V92.725H271.457V103.877H269.095V102.433H268.956C268.651 102.959 268.151 103.388 267.484 103.723C266.831 104.06 266.122 104.227 265.386 104.227ZM279.18 104.227C278.139 104.227 277.194 103.971 276.347 103.462C275.499 102.951 274.832 102.252 274.332 101.362C273.846 100.458 273.61 99.4384 273.61 98.3012C273.61 97.1639 273.846 96.1501 274.332 95.2609C274.832 94.357 275.499 93.6503 276.347 93.1393C277.194 92.6297 278.139 92.375 279.18 92.375C280 92.375 280.736 92.5493 281.375 92.8993C282.028 93.2493 282.514 93.6798 282.848 94.1894H282.959L282.848 92.615V88.2202H285.348V103.877H282.959V102.433H282.848C282.514 102.929 282.028 103.352 281.375 103.702C280.736 104.052 280 104.227 279.18 104.227ZM279.542 102.019C280.153 102.019 280.709 101.864 281.223 101.559C281.75 101.253 282.167 100.816 282.487 100.247C282.806 99.6785 282.959 99.0294 282.959 98.3012C282.959 97.5716 282.806 96.9306 282.487 96.3767C282.167 95.8081 281.75 95.3709 281.223 95.0638C280.709 94.7581 280.153 94.6052 279.542 94.6052C278.944 94.6052 278.375 94.7581 277.847 95.0638C277.319 95.3709 276.888 95.8081 276.583 96.3767C276.263 96.9306 276.096 97.5716 276.096 98.3012C276.096 99.0294 276.263 99.6785 276.583 100.247C276.888 100.816 277.319 101.253 277.847 101.559C278.375 101.864 278.944 102.019 279.542 102.019ZM293.419 104.227C292.28 104.227 291.266 103.971 290.349 103.462C289.46 102.951 288.766 102.252 288.252 101.362C287.751 100.458 287.501 99.4452 287.501 98.3227C287.501 97.2578 287.738 96.2748 288.224 95.3709C288.724 94.4523 289.418 93.7227 290.294 93.1836C291.169 92.6445 292.155 92.375 293.28 92.375C294.447 92.375 295.447 92.6217 296.295 93.1179C297.156 93.6141 297.795 94.2913 298.24 95.1523C298.698 96.012 298.92 96.9816 298.92 98.0598C298.92 98.2636 298.892 98.5198 298.851 98.8256H289.988C290.085 99.8609 290.46 100.663 291.127 101.231C291.808 101.785 292.586 102.062 293.475 102.062C294.197 102.062 294.808 101.909 295.322 101.603C295.85 101.282 296.267 100.852 296.586 100.313L298.698 101.274C298.142 102.193 297.434 102.915 296.559 103.44C295.683 103.965 294.642 104.227 293.419 104.227ZM296.378 96.9883C296.35 96.5954 296.225 96.2091 295.989 95.8296C295.767 95.4366 295.419 95.1081 294.947 94.8452C294.503 94.5837 293.947 94.4523 293.28 94.4523C292.475 94.4523 291.794 94.6856 291.238 95.1523C290.696 95.6043 290.321 96.2158 290.113 96.9883H296.378ZM301.185 92.725H303.56V94.1894H303.685C304.004 93.6651 304.505 93.2346 305.158 92.8993C305.81 92.5493 306.519 92.375 307.255 92.375C308.658 92.375 309.728 92.7759 310.45 93.5766C311.186 94.3651 311.561 95.4434 311.561 96.8139V103.877H309.075V97.1412C309.075 96.2668 308.839 95.6257 308.394 95.2167C307.95 94.809 307.338 94.6052 306.561 94.6052C305.991 94.6052 305.505 94.7581 305.06 95.0638C304.616 95.3562 304.282 95.7491 304.046 96.2453C303.796 96.7402 303.685 97.2726 303.685 97.8412V103.877H301.185V92.725ZM318.535 104.052C318.021 104.052 317.535 103.971 317.076 103.812C316.632 103.651 316.257 103.44 315.965 103.177C315.326 102.55 314.993 101.697 314.993 100.619V94.8452H312.978V92.725H314.993V89.5748H317.493V92.725H320.299V94.8452H317.493V100.094C317.493 100.691 317.604 101.115 317.854 101.362C318.077 101.654 318.466 101.8 319.021 101.8C319.285 101.8 319.507 101.771 319.702 101.712C319.91 101.639 320.119 101.529 320.341 101.384V103.723C319.841 103.943 319.243 104.052 318.535 104.052ZM335.594 104.227C334.024 104.227 332.593 103.869 331.287 103.156C329.995 102.441 328.981 101.457 328.231 100.203C327.495 98.949 327.12 97.5649 327.12 96.0482C327.12 94.5327 327.495 93.1474 328.231 91.8935C328.981 90.6396 329.995 89.6552 331.287 88.9418C332.593 88.227 334.024 87.8702 335.594 87.8702C336.816 87.8702 337.927 88.0889 338.928 88.526C339.942 88.9632 340.831 89.5976 341.595 90.4277L339.789 92.1121C339.233 91.471 338.608 90.9963 337.927 90.6905C337.247 90.37 336.469 90.2091 335.594 90.2091C334.51 90.2091 333.51 90.4505 332.607 90.9306C331.718 91.4121 331.01 92.0973 330.482 92.9865C329.954 93.8609 329.69 94.8814 329.69 96.0482C329.69 97.2149 329.954 98.2422 330.482 99.1313C331.01 100.006 331.718 100.684 332.607 101.166C333.51 101.646 334.51 101.887 335.594 101.887C337.413 101.887 338.955 101.158 340.22 99.7L342.053 101.406C341.261 102.295 340.317 102.988 339.219 103.483C338.122 103.979 336.913 104.227 335.594 104.227ZM344.262 88.2202H346.749V103.877H344.262V88.2202ZM353.889 104.227C352.486 104.227 351.416 103.826 350.666 103.024C349.944 102.208 349.582 101.077 349.582 99.6342V92.725H352.083V99.307C352.083 100.211 352.291 100.888 352.736 101.34C353.18 101.792 353.778 102.019 354.5 102.019C355.084 102.019 355.611 101.873 356.07 101.581C356.514 101.274 356.861 100.873 357.111 100.379C357.348 99.8823 357.473 99.3499 357.473 98.7813V92.725H359.959V103.877H357.598V102.433H357.473C357.153 102.959 356.653 103.388 356 103.723C355.333 104.06 354.625 104.227 353.889 104.227ZM369.017 104.227C368.211 104.227 367.475 104.052 366.822 103.702C366.169 103.352 365.683 102.929 365.349 102.433H365.238V103.877H362.863V88.2202H365.349V92.615L365.238 94.1894H365.349C365.683 93.6798 366.169 93.2493 366.822 92.8993C367.475 92.5493 368.211 92.375 369.017 92.375C370.058 92.375 371.003 92.6297 371.85 93.1393C372.698 93.6503 373.365 94.357 373.851 95.2609C374.337 96.1501 374.587 97.1639 374.587 98.3012C374.587 99.4384 374.337 100.458 373.851 101.362C373.365 102.252 372.698 102.951 371.85 103.462C371.003 103.971 370.058 104.227 369.017 104.227ZM368.655 102.019C369.267 102.019 369.822 101.864 370.35 101.559C370.892 101.253 371.309 100.816 371.628 100.247C371.948 99.6785 372.1 99.0294 372.1 98.3012C372.1 97.5716 371.948 96.9306 371.628 96.3767C371.309 95.8081 370.892 95.3709 370.35 95.0638C369.822 94.7581 369.267 94.6052 368.655 94.6052C368.058 94.6052 367.489 94.7581 366.961 95.0638C366.447 95.3709 366.03 95.8081 365.71 96.3767C365.391 96.9306 365.238 97.5716 365.238 98.3012C365.238 99.0294 365.391 99.6785 365.71 100.247C366.03 100.816 366.447 101.253 366.961 101.559C367.489 101.864 368.058 102.019 368.655 102.019ZM380.963 104.227C379.63 104.227 378.546 103.95 377.699 103.396C376.851 102.827 376.254 102.106 375.907 101.231L378.129 100.29C378.407 100.873 378.782 101.319 379.268 101.624C379.769 101.93 380.324 102.084 380.963 102.084C381.588 102.084 382.102 101.981 382.533 101.777C382.95 101.559 383.158 101.238 383.158 100.816C383.158 100.407 382.978 100.086 382.616 99.8528C382.255 99.6195 381.699 99.4156 380.935 99.2413L379.56 98.9127C378.643 98.6941 377.879 98.3079 377.268 97.754C376.671 97.2002 376.365 96.5001 376.365 95.6552C376.365 94.9981 376.56 94.4228 376.949 93.9266C377.365 93.4317 377.907 93.0522 378.588 92.7893C379.269 92.5131 380.005 92.375 380.81 92.375C381.88 92.375 382.825 92.5855 383.63 93.0093C384.45 93.417 385.047 94.0151 385.409 94.8023L383.228 95.7196C382.797 94.86 381.991 94.4295 380.824 94.4295C380.269 94.4295 379.796 94.5394 379.421 94.758C379.046 94.9766 378.852 95.261 378.852 95.611C378.852 95.9463 379.005 96.2239 379.282 96.4425C379.574 96.6463 379.991 96.8206 380.56 96.9668L382.255 97.3825C383.394 97.6588 384.242 98.0826 384.811 98.6499C385.409 99.2051 385.7 99.8904 385.7 100.706C385.7 101.406 385.492 102.025 385.061 102.565C384.658 103.09 384.089 103.498 383.366 103.789C382.644 104.081 381.838 104.227 380.963 104.227Z" fill="#242424"/>
<path d="M222.376 53.7331L241.013 43.3448C243.611 41.897 246.933 42.7562 248.432 45.2638C249.932 47.7715 249.042 50.9781 246.444 52.4259L227.806 62.8143C225.209 64.2621 221.887 63.4029 220.388 60.8952C218.888 58.3875 219.778 55.1809 222.376 53.7331Z" fill="#FBBC04"/>
<path d="M209.144 41.9809L190.506 52.3692C187.908 53.817 184.587 52.9578 183.087 50.4501C181.588 47.9425 182.478 44.7359 185.075 43.2881L203.713 32.8997C206.311 31.4519 209.632 32.3111 211.132 34.8188C212.632 37.3265 211.742 40.5331 209.144 41.9809Z" fill="#EA4335"/>
<path d="M208.685 53.7317L190.047 43.3433C187.45 41.8955 184.128 42.7547 182.628 45.2624C181.129 47.7701 182.019 50.9767 184.616 52.4245L203.254 62.8128C205.852 64.2606 209.173 63.4014 210.673 60.8937C212.172 58.386 211.283 55.1795 208.685 53.7317Z" fill="#4285F4"/>
<path d="M222.059 41.8047L241.33 52.5458C243.753 53.8962 246.851 53.0949 248.25 50.7559L248.615 50.1449C250.014 47.8059 249.184 44.8151 246.761 43.4647L227.49 32.7236C225.067 31.3732 221.969 32.1745 220.57 34.5135L220.205 35.1245C218.806 37.4635 219.636 40.4543 222.059 41.8047Z" fill="#0F9D58"/>
<path d="M55.2925 133.277C54.4174 133.277 53.6395 133.046 52.9866 132.585C52.3337 132.113 51.8753 131.453 51.6113 130.605L52.9449 130.074C53.3338 131.34 54.1256 131.973 55.2925 131.973C55.9454 131.973 56.4734 131.753 56.8623 131.313C57.2513 130.874 57.4596 130.294 57.4596 129.575V121.497H58.8765V129.463C58.8765 130.267 58.7238 130.959 58.4043 131.539C58.1126 132.107 57.6819 132.542 57.1401 132.842C56.6122 133.132 55.9871 133.277 55.2925 133.277ZM61.3493 121.497H64.9471C66.1696 121.497 67.2393 121.743 68.1422 122.237C69.0591 122.72 69.7536 123.396 70.2398 124.265C70.7399 125.134 70.976 126.131 70.976 127.258C70.976 128.384 70.7399 129.382 70.2398 130.251C69.7536 131.12 69.0591 131.802 68.1422 132.295C67.2393 132.778 66.1696 133.019 64.9471 133.019H61.3493V121.497ZM64.9471 131.716C66.3501 131.716 67.4754 131.324 68.295 130.541C69.1285 129.758 69.5453 128.663 69.5453 127.258C69.5453 125.852 69.1285 124.758 68.295 123.975C67.4754 123.192 66.3501 122.8 64.9471 122.8H62.7384V131.716H64.9471ZM82.2143 133.277C81.0613 133.277 80.0055 133.014 79.0609 132.488C78.1163 131.962 77.38 131.244 76.8244 130.332C76.2965 129.409 76.0325 128.384 76.0325 127.258C76.0325 126.131 76.2965 125.112 76.8244 124.2C77.38 123.278 78.1163 122.553 79.0609 122.028C80.0055 121.502 81.0613 121.239 82.2143 121.239C83.1033 121.239 83.909 121.405 84.6453 121.738C85.3954 122.06 86.0343 122.521 86.5761 123.122L85.562 124.072C85.1036 123.546 84.6036 123.16 84.0618 122.913C83.5339 122.666 82.9089 122.543 82.2143 122.543C81.353 122.543 80.5472 122.741 79.8248 123.138C79.1025 123.524 78.5329 124.077 78.1023 124.796C77.6717 125.504 77.4633 126.325 77.4633 127.258C77.4633 128.191 77.6717 129.017 78.1023 129.736C78.5329 130.444 79.1025 130.997 79.8248 131.394C80.5472 131.78 81.353 131.973 82.2143 131.973C83.659 131.973 84.8813 131.399 85.8954 130.251L86.9372 131.217C86.3816 131.85 85.687 132.354 84.8813 132.73C84.0756 133.094 83.1867 133.277 82.2143 133.277ZM92.2717 133.277C91.4382 133.277 90.6881 133.084 90.0213 132.697C89.3545 132.311 88.8405 131.785 88.4654 131.12C88.0904 130.455 87.9098 129.72 87.9098 128.916C87.9098 128.111 88.0904 127.376 88.4654 126.711C88.8405 126.046 89.3545 125.52 90.0213 125.134C90.6881 124.747 91.4382 124.554 92.2717 124.554C93.1052 124.554 93.8553 124.747 94.5221 125.134C95.1889 125.52 95.7168 126.046 96.0779 126.711C96.453 127.376 96.6474 128.111 96.6474 128.916C96.6474 129.72 96.453 130.455 96.0779 131.12C95.7168 131.785 95.1889 132.311 94.5221 132.697C93.8553 133.084 93.1052 133.277 92.2717 133.277ZM92.2717 132.038C92.7996 132.038 93.2857 131.914 93.7302 131.667C94.1886 131.41 94.5498 131.045 94.8138 130.573C95.0916 130.101 95.2306 129.548 95.2306 128.916C95.2306 128.283 95.0916 127.73 94.8138 127.258C94.5498 126.786 94.1886 126.426 93.7302 126.18C93.2857 125.922 92.7996 125.793 92.2717 125.793C91.7577 125.793 91.2714 125.922 90.813 126.18C90.3546 126.426 89.9934 126.786 89.7155 127.258C89.4377 127.73 89.3128 128.283 89.3128 128.916C89.3128 129.548 89.4377 130.101 89.7155 130.573C89.9934 131.045 90.3546 131.41 90.813 131.667C91.2714 131.914 91.7577 132.038 92.2717 132.038ZM98.2034 121.497H99.6202V133.019H98.2034V121.497ZM101.732 121.497H103.149V133.019H101.732V121.497ZM108.941 133.277C108.136 133.277 107.399 133.089 106.76 132.713C106.121 132.338 105.607 131.823 105.246 131.169C104.885 130.503 104.704 129.758 104.704 128.932C104.704 128.138 104.871 127.408 105.205 126.743C105.552 126.078 106.038 125.547 106.663 125.15C107.288 124.753 108.011 124.554 108.83 124.554C109.664 124.554 110.386 124.737 110.997 125.101C111.609 125.456 112.067 125.949 112.4 126.582C112.734 127.215 112.901 127.939 112.901 128.755C112.901 128.916 112.873 129.055 112.845 129.173H106.121C106.163 129.795 106.316 130.321 106.594 130.75C106.872 131.179 107.219 131.501 107.649 131.716C108.08 131.93 108.525 132.038 108.997 132.038C110.08 132.038 110.928 131.544 111.511 130.557L112.706 131.12C112.345 131.785 111.845 132.311 111.206 132.697C110.595 133.084 109.831 133.277 108.941 133.277ZM111.4 128.047C111.372 127.703 111.275 127.36 111.095 127.017C110.914 126.673 110.636 126.384 110.247 126.148C109.872 125.911 109.386 125.793 108.816 125.793C108.15 125.793 107.58 126.003 107.108 126.421C106.649 126.829 106.358 127.371 106.205 128.047H111.4ZM118.374 136.753C117.373 136.753 116.54 136.528 115.887 136.077C115.234 135.626 114.804 135.085 114.581 134.452L115.873 133.92C116.054 134.393 116.373 134.773 116.804 135.063C117.248 135.363 117.762 135.514 118.374 135.514C119.249 135.514 119.93 135.267 120.402 134.773C120.888 134.28 121.138 133.583 121.138 132.681V131.764H121.069C120.791 132.182 120.402 132.526 119.888 132.794C119.388 133.051 118.818 133.18 118.165 133.18C117.429 133.18 116.762 132.998 116.151 132.633C115.554 132.268 115.067 131.759 114.72 131.104C114.359 130.45 114.179 129.704 114.179 128.867C114.179 128.041 114.359 127.301 114.72 126.646C115.067 125.981 115.554 125.466 116.151 125.101C116.762 124.737 117.429 124.554 118.165 124.554C118.818 124.554 119.388 124.688 119.888 124.957C120.402 125.214 120.791 125.557 121.069 125.987H121.138V124.812H122.486V132.697C122.486 134.017 122.11 135.02 121.346 135.707C120.596 136.404 119.596 136.753 118.374 136.753ZM118.374 131.941C118.874 131.941 119.346 131.818 119.749 131.571C120.18 131.324 120.513 130.97 120.749 130.509C121.013 130.047 121.138 129.5 121.138 128.867C121.138 128.224 121.013 127.671 120.749 127.21C120.513 126.748 120.18 126.4 119.749 126.164C119.346 125.917 118.874 125.793 118.374 125.793C117.86 125.793 117.387 125.917 116.971 126.164C116.54 126.41 116.207 126.764 115.957 127.226C115.707 127.687 115.581 128.234 115.581 128.867C115.581 129.5 115.707 130.053 115.957 130.525C116.207 130.986 116.54 131.34 116.971 131.587C117.387 131.823 117.86 131.941 118.374 131.941ZM128.278 133.277C127.473 133.277 126.75 133.089 126.097 132.713C125.458 132.338 124.944 131.823 124.583 131.169C124.222 130.503 124.055 129.758 124.055 128.932C124.055 128.138 124.222 127.408 124.555 126.743C124.889 126.078 125.375 125.547 126 125.15C126.625 124.753 127.348 124.554 128.167 124.554C129.001 124.554 129.723 124.737 130.334 125.101C130.945 125.456 131.418 125.949 131.737 126.582C132.071 127.215 132.237 127.939 132.237 128.755C132.237 128.916 132.224 129.055 132.182 129.173H125.472C125.5 129.795 125.653 130.321 125.931 130.75C126.209 131.179 126.556 131.501 126.986 131.716C127.417 131.93 127.862 132.038 128.334 132.038C129.417 132.038 130.265 131.544 130.848 130.557L132.057 131.12C131.682 131.785 131.182 132.311 130.557 132.697C129.931 133.084 129.167 133.277 128.278 133.277ZM130.737 128.047C130.709 127.703 130.612 127.36 130.432 127.017C130.251 126.673 129.973 126.384 129.584 126.148C129.209 125.911 128.723 125.793 128.153 125.793C127.487 125.793 126.917 126.003 126.445 126.421C126 126.829 125.695 127.371 125.556 128.047H130.737ZM141.684 133.277C140.85 133.277 140.1 133.084 139.433 132.697C138.766 132.311 138.252 131.785 137.863 131.12C137.502 130.455 137.322 129.72 137.322 128.916C137.322 128.111 137.502 127.376 137.863 126.711C138.252 126.046 138.766 125.52 139.433 125.134C140.1 124.747 140.85 124.554 141.684 124.554C142.517 124.554 143.267 124.747 143.934 125.134C144.601 125.52 145.115 126.046 145.49 126.711C145.865 127.376 146.059 128.111 146.059 128.916C146.059 129.72 145.865 130.455 145.49 131.12C145.115 131.785 144.601 132.311 143.934 132.697C143.267 133.084 142.517 133.277 141.684 133.277ZM141.684 132.038C142.211 132.038 142.698 131.914 143.142 131.667C143.587 131.41 143.948 131.045 144.226 130.573C144.503 130.101 144.642 129.548 144.642 128.916C144.642 128.283 144.503 127.73 144.226 127.258C143.948 126.786 143.587 126.426 143.142 126.18C142.698 125.922 142.211 125.793 141.684 125.793C141.17 125.793 140.67 125.922 140.225 126.18C139.767 126.426 139.392 126.786 139.114 127.258C138.85 127.73 138.725 128.283 138.725 128.916C138.725 129.548 138.85 130.101 139.114 130.573C139.392 131.045 139.767 131.41 140.225 131.667C140.67 131.914 141.17 132.038 141.684 132.038ZM148.435 126.051H146.865V124.812H148.435V123.927C148.435 123.412 148.56 122.961 148.81 122.575C149.046 122.189 149.379 121.894 149.782 121.69C150.199 121.475 150.658 121.368 151.158 121.368C151.63 121.368 152.047 121.432 152.408 121.561V122.897C152.199 122.822 152.019 122.763 151.838 122.72C151.658 122.666 151.449 122.639 151.199 122.639C150.838 122.639 150.519 122.768 150.255 123.025C149.991 123.272 149.852 123.621 149.852 124.072V124.812H152.033V126.051H149.852V133.019H148.435V126.051ZM157.923 121.497H164.827V122.8H159.326V126.614H164.299V127.902H159.326V131.716H164.827V133.019H157.923V121.497ZM166.66 124.812H168.008V126.019H168.077C168.314 125.611 168.689 125.268 169.203 124.989C169.703 124.699 170.258 124.554 170.828 124.554C171.856 124.554 172.634 124.844 173.162 125.423C173.703 125.992 173.981 126.77 173.981 127.757V133.019H172.564V127.966C172.564 127.204 172.37 126.652 171.995 126.308C171.62 125.965 171.106 125.793 170.453 125.793C169.994 125.793 169.578 125.917 169.217 126.164C168.855 126.41 168.577 126.738 168.383 127.145C168.175 127.542 168.077 127.961 168.077 128.401V133.019H166.66V124.812ZM179.663 136.753C178.663 136.753 177.829 136.528 177.176 136.077C176.537 135.626 176.093 135.085 175.87 134.452L177.162 133.92C177.343 134.393 177.662 134.773 178.093 135.063C178.538 135.363 179.065 135.514 179.663 135.514C180.538 135.514 181.219 135.267 181.691 134.773C182.177 134.28 182.427 133.583 182.427 132.681V131.764H182.358C182.08 132.182 181.691 132.526 181.177 132.794C180.677 133.051 180.107 133.18 179.455 133.18C178.732 133.18 178.051 132.998 177.44 132.633C176.843 132.268 176.371 131.759 176.009 131.104C175.648 130.45 175.481 129.704 175.481 128.867C175.481 128.041 175.648 127.301 176.009 126.646C176.371 125.981 176.843 125.466 177.44 125.101C178.051 124.737 178.732 124.554 179.455 124.554C180.107 124.554 180.677 124.688 181.177 124.957C181.691 125.214 182.08 125.557 182.358 125.987H182.427V124.812H183.775V132.697C183.775 134.017 183.4 135.02 182.65 135.707C181.886 136.404 180.899 136.753 179.663 136.753ZM179.663 131.941C180.177 131.941 180.635 131.818 181.038 131.571C181.469 131.324 181.802 130.97 182.038 130.509C182.302 130.047 182.427 129.5 182.427 128.867C182.427 128.224 182.302 127.671 182.038 127.21C181.802 126.748 181.469 126.4 181.038 126.164C180.635 125.917 180.177 125.793 179.663 125.793C179.149 125.793 178.677 125.917 178.26 126.164C177.843 126.41 177.496 126.764 177.246 127.226C176.996 127.687 176.871 128.234 176.871 128.867C176.871 129.5 176.996 130.053 177.246 130.525C177.496 130.986 177.843 131.34 178.26 131.587C178.677 131.823 179.149 131.941 179.663 131.941ZM186.706 123.299C186.428 123.299 186.192 123.202 185.984 123.009C185.789 122.816 185.692 122.586 185.692 122.317C185.692 122.049 185.789 121.824 185.984 121.641C186.192 121.448 186.428 121.352 186.706 121.352C186.984 121.352 187.22 121.448 187.428 121.641C187.623 121.824 187.72 122.049 187.72 122.317C187.72 122.586 187.623 122.816 187.428 123.009C187.234 123.202 186.998 123.299 186.706 123.299ZM186.011 124.812H187.4V133.019H186.011V124.812ZM189.637 124.812H190.984V126.019H191.054C191.29 125.611 191.651 125.268 192.165 124.989C192.679 124.699 193.221 124.554 193.804 124.554C194.819 124.554 195.596 124.844 196.138 125.423C196.68 125.992 196.958 126.77 196.958 127.757V133.019H195.541V127.966C195.541 127.204 195.346 126.652 194.971 126.308C194.596 125.965 194.068 125.793 193.415 125.793C192.957 125.793 192.554 125.917 192.179 126.164C191.832 126.41 191.554 126.738 191.346 127.145C191.151 127.542 191.054 127.961 191.054 128.401V133.019H189.637V124.812ZM202.764 133.277C201.945 133.277 201.222 133.089 200.583 132.713C199.931 132.338 199.431 131.823 199.055 131.169C198.708 130.503 198.528 129.758 198.528 128.932C198.528 128.138 198.694 127.408 199.028 126.743C199.375 126.078 199.861 125.547 200.472 125.15C201.098 124.753 201.82 124.554 202.639 124.554C203.473 124.554 204.195 124.737 204.807 125.101C205.418 125.456 205.89 125.949 206.21 126.582C206.543 127.215 206.71 127.939 206.71 128.755C206.71 128.916 206.696 129.055 206.668 129.173H199.945C199.972 129.795 200.139 130.321 200.417 130.75C200.695 131.179 201.042 131.501 201.459 131.716C201.889 131.93 202.348 132.038 202.806 132.038C203.904 132.038 204.737 131.544 205.334 130.557L206.529 131.12C206.168 131.785 205.668 132.311 205.029 132.697C204.404 133.084 203.653 133.277 202.764 133.277ZM205.209 128.047C205.195 127.703 205.084 127.36 204.918 127.017C204.737 126.673 204.445 126.384 204.056 126.148C203.681 125.911 203.209 125.793 202.625 125.793C201.959 125.793 201.389 126.003 200.931 126.421C200.472 126.829 200.167 127.371 200.028 128.047H205.209ZM212.238 133.277C211.419 133.277 210.696 133.089 210.057 132.713C209.404 132.338 208.904 131.823 208.529 131.169C208.182 130.503 208.001 129.758 208.001 128.932C208.001 128.138 208.168 127.408 208.502 126.743C208.849 126.078 209.335 125.547 209.946 125.15C210.571 124.753 211.294 124.554 212.113 124.554C212.947 124.554 213.669 124.737 214.28 125.101C214.892 125.456 215.364 125.949 215.683 126.582C216.017 127.215 216.184 127.939 216.184 128.755C216.184 128.916 216.17 129.055 216.142 129.173H209.418C209.446 129.795 209.613 130.321 209.891 130.75C210.169 131.179 210.516 131.501 210.933 131.716C211.363 131.93 211.822 132.038 212.28 132.038C213.378 132.038 214.211 131.544 214.808 130.557L216.003 131.12C215.642 131.785 215.142 132.311 214.503 132.697C213.878 133.084 213.127 133.277 212.238 133.277ZM214.683 128.047C214.669 127.703 214.558 127.36 214.392 127.017C214.211 126.673 213.919 126.384 213.53 126.148C213.155 125.911 212.683 125.793 212.1 125.793C211.433 125.793 210.863 126.003 210.405 126.421C209.946 126.829 209.641 127.371 209.502 128.047H214.683ZM217.85 124.812H219.198V126.131H219.267C219.434 125.681 219.754 125.311 220.226 125.021C220.712 124.721 221.212 124.57 221.726 124.57C222.115 124.57 222.449 124.624 222.726 124.731V126.212C222.379 126.04 221.976 125.954 221.532 125.954C221.115 125.954 220.74 126.067 220.393 126.292C220.045 126.518 219.768 126.823 219.559 127.21C219.365 127.585 219.267 127.993 219.267 128.433V133.019H217.85V124.812ZM224.935 123.299C224.657 123.299 224.407 123.202 224.213 123.009C224.018 122.816 223.907 122.586 223.907 122.317C223.907 122.049 224.018 121.824 224.213 121.641C224.407 121.448 224.657 121.352 224.935 121.352C225.213 121.352 225.449 121.448 225.644 121.641C225.852 121.824 225.949 122.049 225.949 122.317C225.949 122.586 225.852 122.816 225.644 123.009C225.463 123.202 225.213 123.299 224.935 123.299ZM224.227 124.812H225.63V133.019H224.227V124.812ZM227.852 124.812H229.2V126.019H229.269C229.506 125.611 229.881 125.268 230.395 124.989C230.895 124.699 231.45 124.554 232.02 124.554C233.048 124.554 233.826 124.844 234.354 125.423C234.895 125.992 235.173 126.77 235.173 127.757V133.019H233.756V127.966C233.756 127.204 233.562 126.652 233.187 126.308C232.812 125.965 232.298 125.793 231.645 125.793C231.186 125.793 230.77 125.917 230.408 126.164C230.047 126.41 229.769 126.738 229.575 127.145C229.367 127.542 229.269 127.961 229.269 128.401V133.019H227.852V124.812ZM240.855 136.753C239.855 136.753 239.021 136.528 238.368 136.077C237.729 135.626 237.285 135.085 237.062 134.452L238.354 133.92C238.535 134.393 238.854 134.773 239.285 135.063C239.73 135.363 240.257 135.514 240.855 135.514C241.73 135.514 242.411 135.267 242.883 134.773C243.369 134.28 243.619 133.583 243.619 132.681V131.764H243.55C243.272 132.182 242.883 132.526 242.369 132.794C241.869 133.051 241.299 133.18 240.646 133.18C239.924 133.18 239.243 132.998 238.632 132.633C238.035 132.268 237.563 131.759 237.201 131.104C236.84 130.45 236.673 129.704 236.673 128.867C236.673 128.041 236.84 127.301 237.201 126.646C237.563 125.981 238.035 125.466 238.632 125.101C239.243 124.737 239.924 124.554 240.646 124.554C241.299 124.554 241.869 124.688 242.369 124.957C242.883 125.214 243.272 125.557 243.55 125.987H243.619V124.812H244.967V132.697C244.967 134.017 244.592 135.02 243.842 135.707C243.078 136.404 242.091 136.753 240.855 136.753ZM240.855 131.941C241.369 131.941 241.827 131.818 242.23 131.571C242.661 131.324 242.994 130.97 243.23 130.509C243.494 130.047 243.619 129.5 243.619 128.867C243.619 128.224 243.494 127.671 243.23 127.21C242.994 126.748 242.661 126.4 242.23 126.164C241.827 125.917 241.369 125.793 240.855 125.793C240.341 125.793 239.869 125.917 239.452 126.164C239.035 126.41 238.688 126.764 238.438 127.226C238.188 127.687 238.063 128.234 238.063 128.867C238.063 129.5 238.188 130.053 238.438 130.525C238.688 130.986 239.035 131.34 239.452 131.587C239.869 131.823 240.341 131.941 240.855 131.941ZM253.663 133.277C253.038 133.277 252.482 133.159 251.996 132.923C251.496 132.687 251.121 132.365 250.857 131.957C250.593 131.539 250.454 131.067 250.454 130.541C250.454 129.672 250.801 128.996 251.468 128.513C252.149 128.02 253.01 127.773 254.038 127.773C254.552 127.773 255.024 127.827 255.455 127.934C255.899 128.041 256.247 128.165 256.469 128.304V127.805C256.469 127.194 256.247 126.705 255.802 126.341C255.358 125.965 254.802 125.777 254.121 125.777C253.649 125.777 253.204 125.879 252.801 126.083C252.413 126.276 252.093 126.55 251.857 126.904L250.787 126.131C251.121 125.638 251.579 125.252 252.163 124.973C252.746 124.694 253.399 124.554 254.107 124.554C255.26 124.554 256.163 124.849 256.83 125.439C257.497 126.019 257.83 126.813 257.83 127.821V133.019H256.469V131.844H256.413C256.163 132.241 255.802 132.579 255.302 132.858C254.816 133.137 254.274 133.277 253.663 133.277ZM253.788 132.07C254.274 132.07 254.719 131.952 255.121 131.716C255.538 131.48 255.858 131.163 256.108 130.766C256.358 130.369 256.469 129.935 256.469 129.463C256.205 129.291 255.885 129.152 255.497 129.044C255.108 128.937 254.691 128.883 254.26 128.883C253.482 128.883 252.885 129.039 252.496 129.35C252.107 129.661 251.912 130.063 251.912 130.557C251.912 131.008 252.079 131.372 252.44 131.651C252.801 131.93 253.246 132.07 253.788 132.07ZM259.789 124.812H261.15V126.019H261.206C261.442 125.611 261.817 125.268 262.331 124.989C262.845 124.699 263.387 124.554 263.956 124.554C264.984 124.554 265.762 124.844 266.29 125.423C266.846 125.992 267.11 126.77 267.11 127.757V133.019H265.693V127.966C265.693 127.204 265.512 126.652 265.123 126.308C264.748 125.965 264.234 125.793 263.581 125.793C263.123 125.793 262.706 125.917 262.345 126.164C261.984 126.41 261.706 126.738 261.511 127.145C261.317 127.542 261.206 127.961 261.206 128.401V133.019H259.789V124.812ZM272.736 133.277C271.986 133.277 271.291 133.089 270.68 132.713C270.069 132.338 269.582 131.823 269.221 131.169C268.874 130.503 268.693 129.752 268.693 128.916C268.693 128.089 268.874 127.344 269.221 126.679C269.582 126.013 270.069 125.493 270.68 125.118C271.291 124.742 271.986 124.554 272.736 124.554C273.402 124.554 273.986 124.699 274.486 124.989C275 125.268 275.389 125.616 275.653 126.035H275.722L275.653 124.892V121.497H277.07V133.019H275.722V131.812H275.653C275.389 132.22 275 132.569 274.486 132.858C273.986 133.137 273.402 133.277 272.736 133.277ZM272.902 132.038C273.402 132.038 273.875 131.909 274.292 131.651C274.722 131.394 275.07 131.029 275.32 130.557C275.597 130.085 275.722 129.538 275.722 128.916C275.722 128.293 275.597 127.746 275.32 127.274C275.07 126.802 274.722 126.437 274.292 126.18C273.875 125.922 273.402 125.793 272.902 125.793C272.416 125.793 271.958 125.922 271.527 126.18C271.097 126.437 270.735 126.807 270.471 127.29C270.221 127.762 270.096 128.304 270.096 128.916C270.096 129.527 270.221 130.074 270.471 130.557C270.735 131.029 271.097 131.394 271.527 131.651C271.958 131.909 272.416 132.038 272.902 132.038ZM283.321 121.497H285.377L289.183 130.943H289.239L293.045 121.497H295.101V133.019H293.698V125.697L293.767 123.508H293.698L289.794 133.019H288.628L284.724 123.508H284.655L284.724 125.697V133.019H283.321V121.497ZM299.949 133.277C299.338 133.277 298.782 133.159 298.282 132.923C297.796 132.687 297.421 132.365 297.157 131.957C296.893 131.539 296.754 131.067 296.754 130.541C296.754 129.672 297.087 128.996 297.768 128.513C298.449 128.02 299.31 127.773 300.338 127.773C300.852 127.773 301.324 127.827 301.755 127.934C302.2 128.041 302.533 128.165 302.769 128.304V127.805C302.769 127.194 302.547 126.705 302.102 126.341C301.658 125.965 301.102 125.777 300.421 125.777C299.949 125.777 299.505 125.879 299.102 126.083C298.699 126.276 298.393 126.55 298.157 126.904L297.087 126.131C297.421 125.638 297.879 125.252 298.449 124.973C299.046 124.694 299.699 124.554 300.408 124.554C301.561 124.554 302.463 124.849 303.116 125.439C303.783 126.019 304.117 126.813 304.117 127.821V133.019H302.769V131.844H302.7C302.464 132.241 302.088 132.579 301.602 132.858C301.116 133.137 300.56 133.277 299.949 133.277ZM300.088 132.07C300.56 132.07 301.005 131.952 301.422 131.716C301.838 131.48 302.158 131.163 302.408 130.766C302.644 130.369 302.769 129.935 302.769 129.463C302.505 129.291 302.172 129.152 301.783 129.044C301.394 128.937 300.991 128.883 300.56 128.883C299.782 128.883 299.185 129.039 298.782 129.35C298.393 129.661 298.199 130.063 298.199 130.557C298.199 131.008 298.379 131.372 298.741 131.651C299.088 131.93 299.546 132.07 300.088 132.07ZM306.089 124.812H307.45V126.019H307.506C307.742 125.611 308.117 125.268 308.631 124.989C309.145 124.699 309.687 124.554 310.257 124.554C311.285 124.554 312.063 124.844 312.59 125.423C313.146 125.992 313.41 126.77 313.41 127.757V133.019H311.993V127.966C311.993 127.204 311.813 126.652 311.424 126.308C311.049 125.965 310.534 125.793 309.881 125.793C309.423 125.793 309.006 125.917 308.645 126.164C308.284 126.41 308.006 126.738 307.812 127.145C307.617 127.542 307.506 127.961 307.506 128.401V133.019H306.089V124.812ZM318.077 133.277C317.452 133.277 316.897 133.159 316.411 132.923C315.924 132.687 315.535 132.365 315.271 131.957C315.007 131.539 314.869 131.067 314.869 130.541C314.869 129.672 315.216 128.996 315.897 128.513C316.563 128.02 317.425 127.773 318.453 127.773C318.967 127.773 319.439 127.827 319.87 127.934C320.314 128.041 320.661 128.165 320.897 128.304V127.805C320.897 127.194 320.675 126.705 320.231 126.341C319.786 125.965 319.217 125.777 318.536 125.777C318.064 125.777 317.619 125.879 317.23 126.083C316.827 126.276 316.508 126.55 316.272 126.904L315.202 126.131C315.535 125.638 315.994 125.252 316.577 124.973C317.161 124.694 317.814 124.554 318.522 124.554C319.675 124.554 320.592 124.849 321.245 125.439C321.912 126.019 322.245 126.813 322.245 127.821V133.019H320.897V131.844H320.828C320.578 132.241 320.217 132.579 319.731 132.858C319.231 133.137 318.689 133.277 318.077 133.277ZM318.203 132.07C318.689 132.07 319.133 131.952 319.536 131.716C319.953 131.48 320.286 131.163 320.522 130.766C320.772 130.369 320.897 129.935 320.897 129.463C320.62 129.291 320.3 129.152 319.911 129.044C319.522 128.937 319.106 128.883 318.675 128.883C317.897 128.883 317.313 129.039 316.911 129.35C316.522 129.661 316.327 130.063 316.327 130.557C316.327 131.008 316.508 131.372 316.855 131.651C317.216 131.93 317.661 132.07 318.203 132.07ZM327.871 136.753C326.871 136.753 326.037 136.528 325.384 136.077C324.732 135.626 324.301 135.085 324.079 134.452L325.371 133.92C325.551 134.393 325.871 134.773 326.301 135.063C326.746 135.363 327.26 135.514 327.871 135.514C328.746 135.514 329.427 135.267 329.899 134.773C330.385 134.28 330.635 133.583 330.635 132.681V131.764H330.566C330.288 132.182 329.899 132.526 329.385 132.794C328.885 133.051 328.316 133.18 327.663 133.18C326.926 133.18 326.26 132.998 325.648 132.633C325.051 132.268 324.565 131.759 324.218 131.104C323.856 130.45 323.676 129.704 323.676 128.867C323.676 128.041 323.856 127.301 324.218 126.646C324.565 125.981 325.051 125.466 325.648 125.101C326.26 124.737 326.926 124.554 327.663 124.554C328.316 124.554 328.885 124.688 329.385 124.957C329.899 125.214 330.288 125.557 330.566 125.987H330.635V124.812H331.983V132.697C331.983 134.017 331.608 135.02 330.844 135.707C330.094 136.404 329.093 136.753 327.871 136.753ZM327.871 131.941C328.371 131.941 328.843 131.818 329.246 131.571C329.677 131.324 330.01 130.97 330.246 130.509C330.51 130.047 330.635 129.5 330.635 128.867C330.635 128.224 330.51 127.671 330.246 127.21C330.01 126.748 329.677 126.4 329.246 126.164C328.843 125.917 328.371 125.793 327.871 125.793C327.357 125.793 326.885 125.917 326.468 126.164C326.037 126.41 325.704 126.764 325.454 127.226C325.204 127.687 325.079 128.234 325.079 128.867C325.079 129.5 325.204 130.053 325.454 130.525C325.704 130.986 326.037 131.34 326.468 131.587C326.885 131.823 327.357 131.941 327.871 131.941ZM337.776 133.277C336.97 133.277 336.234 133.089 335.595 132.713C334.956 132.338 334.442 131.823 334.08 131.169C333.719 130.503 333.539 129.758 333.539 128.932C333.539 128.138 333.705 127.408 334.039 126.743C334.386 126.078 334.872 125.547 335.497 125.15C336.123 124.753 336.845 124.554 337.664 124.554C338.498 124.554 339.22 124.737 339.832 125.101C340.443 125.456 340.901 125.949 341.235 126.582C341.568 127.215 341.735 127.939 341.735 128.755C341.735 128.916 341.707 129.055 341.679 129.173H334.956C334.997 129.795 335.15 130.321 335.428 130.75C335.706 131.179 336.053 131.501 336.484 131.716C336.914 131.93 337.359 132.038 337.831 132.038C338.915 132.038 339.762 131.544 340.346 130.557L341.54 131.12C341.179 131.785 340.679 132.311 340.04 132.697C339.429 133.084 338.665 133.277 337.776 133.277ZM340.234 128.047C340.207 127.703 340.109 127.36 339.929 127.017C339.748 126.673 339.47 126.384 339.081 126.148C338.706 125.911 338.22 125.793 337.651 125.793C336.984 125.793 336.414 126.003 335.942 126.421C335.483 126.829 335.192 127.371 335.039 128.047H340.234ZM343.388 124.812H344.735V126.019H344.805C345.055 125.6 345.416 125.252 345.902 124.973C346.388 124.694 346.916 124.554 347.458 124.554C348.083 124.554 348.611 124.699 349.069 124.989C349.542 125.279 349.875 125.665 350.07 126.148C350.375 125.665 350.764 125.279 351.25 124.989C351.75 124.699 352.334 124.554 352.987 124.554C353.973 124.554 354.696 124.844 355.196 125.423C355.696 125.992 355.946 126.77 355.946 127.757V133.019H354.543V127.966C354.543 127.204 354.376 126.652 354.056 126.308C353.737 125.965 353.251 125.793 352.626 125.793C352.195 125.793 351.82 125.911 351.473 126.148C351.125 126.384 350.861 126.7 350.653 127.097C350.472 127.494 350.375 127.923 350.375 128.384V133.019H348.958V127.982C348.958 127.21 348.792 126.652 348.472 126.308C348.153 125.965 347.68 125.793 347.055 125.793C346.638 125.793 346.249 125.917 345.902 126.164C345.555 126.4 345.291 126.721 345.083 127.129C344.902 127.526 344.805 127.955 344.805 128.417V133.019H343.388V124.812ZM361.752 133.277C360.947 133.277 360.224 133.089 359.571 132.713C358.932 132.338 358.418 131.823 358.057 131.169C357.696 130.503 357.529 129.758 357.529 128.932C357.529 128.138 357.696 127.408 358.029 126.743C358.363 126.078 358.849 125.547 359.474 125.15C360.099 124.753 360.822 124.554 361.641 124.554C362.475 124.554 363.197 124.737 363.808 125.101C364.42 125.456 364.892 125.949 365.211 126.582C365.545 127.215 365.711 127.939 365.711 128.755C365.711 128.916 365.697 129.055 365.656 129.173H358.946C358.974 129.795 359.127 130.321 359.405 130.75C359.682 131.179 360.03 131.501 360.46 131.716C360.891 131.93 361.335 132.038 361.808 132.038C362.891 132.038 363.739 131.544 364.322 130.557L365.531 131.12C365.156 131.785 364.656 132.311 364.031 132.697C363.405 133.084 362.641 133.277 361.752 133.277ZM364.211 128.047C364.183 127.703 364.086 127.36 363.905 127.017C363.725 126.673 363.447 126.384 363.058 126.148C362.683 125.911 362.197 125.793 361.627 125.793C360.96 125.793 360.391 126.003 359.919 126.421C359.474 126.829 359.168 127.371 359.03 128.047H364.211ZM367.364 124.812H368.712V126.019H368.781C369.018 125.611 369.393 125.268 369.907 124.989C370.407 124.699 370.962 124.554 371.532 124.554C372.56 124.554 373.338 124.844 373.866 125.423C374.407 125.992 374.685 126.77 374.685 127.757V133.019H373.268V127.966C373.268 127.204 373.074 126.652 372.699 126.308C372.324 125.965 371.81 125.793 371.157 125.793C370.699 125.793 370.282 125.917 369.921 126.164C369.559 126.41 369.282 126.738 369.087 127.145C368.879 127.542 368.781 127.961 368.781 128.401V133.019H367.364V124.812ZM379.561 133.148C379.214 133.148 378.894 133.094 378.589 132.987C378.297 132.88 378.061 132.735 377.853 132.553C377.63 132.349 377.464 132.113 377.352 131.844C377.241 131.576 377.186 131.249 377.186 130.863V126.051H375.699V124.812H377.186V122.494H378.603V124.812H380.673V126.051H378.603V130.525C378.603 130.975 378.7 131.308 378.867 131.523C379.089 131.759 379.395 131.877 379.783 131.877C380.117 131.877 380.422 131.785 380.728 131.603V132.939C380.561 133.014 380.381 133.068 380.2 133.1C380.034 133.132 379.825 133.148 379.561 133.148Z" fill="#242424"/>
<defs>
<linearGradient id="paint0_linear_703_2376" x1="425.612" y1="131.228" x2="9.08987" y2="131.228" gradientUnits="userSpaceOnUse">
<stop stop-color="#348BCA"/>
<stop offset="0.404875" stop-color="#59A43A"/>
<stop offset="0.711571" stop-color="#F3B002"/>
<stop offset="1" stop-color="#DF572E"/>
</linearGradient>
</defs>
</svg>
