<svg width="429" height="168" viewBox="0 0 429 168" fill="none" xmlns="http://www.w3.org/2000/svg">
<path d="M417.634 2.11609H12.0033C6.63289 2.11609 2.2793 6.31906 2.2793 11.5037V156.341C2.2793 161.526 6.63289 165.729 12.0033 165.729H417.634C423.005 165.729 427.358 161.526 427.358 156.341V11.5037C427.358 6.31906 423.005 2.11609 417.634 2.11609Z" fill="#EFEFEF" stroke="url(#paint0_linear_703_2375)" stroke-width="3.2"/>
<path d="M51.022 104.228C49.4814 104.228 48.0617 103.87 46.7642 103.156C45.4654 102.441 44.4305 101.465 43.6609 100.226C42.9052 98.972 42.5273 97.5799 42.5273 96.0484C42.5273 94.5182 42.9052 93.1329 43.6609 91.8937C44.4305 90.6398 45.4654 89.6555 46.7642 88.942C48.0617 88.2272 49.4814 87.8705 51.022 87.8705C52.2458 87.8705 53.385 88.081 54.4421 88.5035C55.4992 88.9272 56.3827 89.5173 57.0925 90.275L55.3256 91.9809C54.7977 91.4123 54.1628 90.9751 53.4238 90.6693C52.6987 90.3636 51.8902 90.2093 50.9998 90.2093C49.9579 90.2093 48.9841 90.4507 48.077 90.9309C47.1713 91.4123 46.4461 92.0976 45.903 92.9867C45.3598 93.8759 45.0876 94.8964 45.0876 96.0484C45.0876 97.2004 45.3598 98.221 45.903 99.1101C46.4461 99.9993 47.1713 100.685 48.077 101.166C48.9841 101.646 49.9648 101.888 51.022 101.888C51.9888 101.888 52.7959 101.749 53.446 101.472C54.0948 101.194 54.6768 100.823 55.1894 100.356C55.5228 100.035 55.802 99.6345 56.0285 99.1544C56.2702 98.6729 56.4286 98.1472 56.5036 97.5799H50.9998V95.3926H58.9054C58.9805 95.8003 59.018 96.2241 59.018 96.6613C59.018 97.6523 58.8595 98.6072 58.5428 99.5259C58.2247 100.43 57.7191 101.217 57.0245 101.888C55.4992 103.447 53.4988 104.228 51.022 104.228ZM66.8416 104.228C65.6789 104.228 64.637 103.972 63.716 103.462C62.795 102.936 62.0783 102.223 61.5643 101.319C61.0503 100.415 60.7947 99.4092 60.7947 98.3014C60.7947 97.1923 61.0503 96.1866 61.5643 95.2827C62.0783 94.3788 62.795 93.672 63.716 93.1624C64.637 92.6367 65.6789 92.3752 66.8416 92.3752C68.0043 92.3752 69.0462 92.6367 69.9686 93.1624C70.8896 93.6868 71.6064 94.4016 72.1204 95.3055C72.633 96.2094 72.8899 97.2071 72.8899 98.3014C72.8899 99.4092 72.633 100.415 72.1204 101.319C71.6064 102.223 70.8896 102.936 69.9686 103.462C69.0462 103.972 68.0043 104.228 66.8416 104.228ZM66.8416 102.019C67.4764 102.019 68.0655 101.873 68.6086 101.582C69.1532 101.275 69.5824 100.845 69.9005 100.29C70.2325 99.7216 70.3978 99.0591 70.3978 98.3014C70.3978 97.5424 70.2325 96.8866 69.9005 96.3327C69.5824 95.7789 69.1532 95.3564 68.6086 95.0641C68.0655 94.7583 67.4764 94.6054 66.8416 94.6054C66.2081 94.6054 65.6192 94.7583 65.0746 95.0641C64.5315 95.3564 64.0939 95.7789 63.7619 96.3327C63.4437 96.8866 63.2854 97.5424 63.2854 98.3014C63.2854 99.0591 63.4437 99.7216 63.7619 100.29C64.0939 100.845 64.5315 101.275 65.0746 101.582C65.6192 101.873 66.2081 102.019 66.8416 102.019ZM80.6011 104.228C79.4384 104.228 78.3965 103.972 77.4755 103.462C76.5545 102.936 75.8363 102.223 75.3237 101.319C74.8097 100.415 74.5528 99.4092 74.5528 98.3014C74.5528 97.1923 74.8097 96.1866 75.3237 95.2827C75.8363 94.3788 76.5545 93.672 77.4755 93.1624C78.3965 92.6367 79.4384 92.3752 80.6011 92.3752C81.7638 92.3752 82.8057 92.6367 83.7267 93.1624C84.6477 93.6868 85.3659 94.4016 85.8785 95.3055C86.3925 96.2094 86.6495 97.2071 86.6495 98.3014C86.6495 99.4092 86.3925 100.415 85.8785 101.319C85.3659 102.223 84.6477 102.936 83.7267 103.462C82.8057 103.972 81.7638 104.228 80.6011 104.228ZM80.6011 102.019C81.236 102.019 81.8235 101.873 82.3681 101.582C82.9112 101.275 83.3419 100.845 83.6586 100.29C83.9906 99.7216 84.1573 99.0591 84.1573 98.3014C84.1573 97.5424 83.9906 96.8866 83.6586 96.3327C83.3419 95.7789 82.9112 95.3564 82.3681 95.0641C81.8235 94.7583 81.236 94.6054 80.6011 94.6054C79.9663 94.6054 79.3772 94.7583 78.8341 95.0641C78.2909 95.3564 77.852 95.7789 77.52 96.3327C77.2032 96.8866 77.0449 97.5424 77.0449 98.3014C77.0449 99.0591 77.2032 99.7216 77.52 100.29C77.852 100.845 78.2909 101.275 78.8341 101.582C79.3772 101.873 79.9663 102.019 80.6011 102.019ZM94.1564 108.951C92.7367 108.951 91.5587 108.637 90.6224 108.01C89.7014 107.383 89.0819 106.64 88.7652 105.779L91.0989 104.839C91.3392 105.423 91.7254 105.889 92.2533 106.239C92.7964 106.603 93.4313 106.785 94.1564 106.785C95.2136 106.785 96.0359 106.479 96.6249 105.867C97.2292 105.27 97.5307 104.423 97.5307 103.33V102.303H97.3959C97.018 102.828 96.5124 103.243 95.8776 103.549C95.258 103.84 94.5412 103.986 93.7258 103.986C92.7589 103.986 91.8615 103.746 91.0308 103.265C90.2001 102.783 89.5347 102.106 89.0374 101.232C88.554 100.341 88.3123 99.3287 88.3123 98.1915C88.3123 97.0543 88.554 96.0484 89.0374 95.1741C89.5347 94.2849 90.2001 93.5996 91.0308 93.1181C91.8615 92.6219 92.7589 92.3752 93.7258 92.3752C94.5259 92.3752 95.2441 92.5281 95.8776 92.8338C96.5124 93.1396 97.018 93.5554 97.3959 94.0811H97.5307V92.7252H99.9103V103.265C99.9103 104.474 99.6685 105.503 99.1851 106.348C98.7017 107.209 98.0224 107.857 97.1458 108.294C96.2859 108.732 95.2886 108.951 94.1564 108.951ZM94.1786 101.8C94.7829 101.8 95.3414 101.661 95.8554 101.385C96.368 101.092 96.7764 100.678 97.0778 100.137C97.3807 99.5835 97.5307 98.9345 97.5307 98.1915C97.5307 97.0543 97.207 96.1718 96.5569 95.5455C95.9234 94.9045 95.1302 94.584 94.1786 94.584C93.5591 94.584 92.9937 94.7288 92.4798 95.0212C91.9672 95.2974 91.5587 95.7064 91.2573 96.2456C90.9545 96.7847 90.8044 97.4338 90.8044 98.1915C90.8044 98.9492 90.9545 99.5983 91.2573 100.137C91.5587 100.678 91.9672 101.092 92.4798 101.385C92.9937 101.661 93.5591 101.8 94.1786 101.8ZM102.839 88.2205H105.329V103.878H102.839V88.2205ZM113.425 104.228C112.292 104.228 111.273 103.972 110.366 103.462C109.476 102.951 108.774 102.252 108.26 101.362C107.762 100.458 107.513 99.4454 107.513 98.3229C107.513 97.2581 107.755 96.275 108.238 95.3712C108.736 94.4525 109.423 93.723 110.298 93.1839C111.175 92.6448 112.171 92.3752 113.289 92.3752C114.452 92.3752 115.456 92.6219 116.302 93.1181C117.162 93.6143 117.812 94.2916 118.25 95.1526C118.703 96.0122 118.929 96.9818 118.929 98.06C118.929 98.2639 118.907 98.52 118.861 98.8258H110.004C110.096 99.8611 110.472 100.663 111.137 101.232C111.817 101.786 112.601 102.062 113.493 102.062C114.203 102.062 114.814 101.909 115.327 101.603C115.856 101.283 116.279 100.852 116.597 100.313L118.703 101.275C118.159 102.193 117.45 102.915 116.573 103.44C115.698 103.965 114.648 104.228 113.425 104.228ZM116.393 96.9885C116.362 96.5956 116.234 96.2093 116.008 95.8298C115.781 95.4369 115.433 95.1083 114.964 94.8455C114.512 94.5839 113.953 94.4525 113.289 94.4525C112.489 94.4525 111.81 94.6859 111.25 95.1526C110.707 95.6045 110.329 96.2161 110.118 96.9885H116.393ZM126.915 88.2205H132.102C133.778 88.2205 135.243 88.5477 136.496 89.2035C137.749 89.8593 138.709 90.786 139.373 91.9809C140.052 93.1624 140.393 94.5182 140.393 96.0484C140.393 97.5799 140.052 98.9425 139.373 100.137C138.709 101.319 137.749 102.238 136.496 102.893C135.243 103.549 133.778 103.878 132.102 103.878H126.915V88.2205ZM132.057 101.537C133.869 101.537 135.281 101.056 136.292 100.094C137.32 99.1168 137.833 97.769 137.833 96.0484C137.833 94.3425 137.32 93.0015 136.292 92.0252C135.281 91.0475 133.869 90.5594 132.057 90.5594H129.452V101.537H132.057ZM147.822 104.228C146.69 104.228 145.67 103.972 144.764 103.462C143.874 102.951 143.171 102.252 142.657 101.362C142.16 100.458 141.91 99.4454 141.91 98.3229C141.91 97.2581 142.151 96.275 142.635 95.3712C143.134 94.4525 143.821 93.723 144.696 93.1839C145.573 92.6448 146.569 92.3752 147.686 92.3752C148.849 92.3752 149.853 92.6219 150.699 93.1181C151.56 93.6143 152.209 94.2916 152.646 95.1526C153.101 96.0122 153.327 96.9818 153.327 98.06C153.327 98.2639 153.304 98.52 153.259 98.8258H144.402C144.492 99.8611 144.87 100.663 145.534 101.232C146.215 101.786 147 102.062 147.89 102.062C148.6 102.062 149.211 101.909 149.725 101.603C150.253 101.283 150.677 100.852 150.993 100.313L153.101 101.275C152.556 102.193 151.846 102.915 150.971 103.44C150.095 103.965 149.046 104.228 147.822 104.228ZM150.789 96.9885C150.76 96.5956 150.631 96.2093 150.404 95.8298C150.178 95.4369 149.831 95.1083 149.363 94.8455C148.91 94.5839 148.351 94.4525 147.686 94.4525C146.886 94.4525 146.206 94.6859 145.648 95.1526C145.105 95.6045 144.727 96.2161 144.516 96.9885H150.789ZM154.083 92.7252H156.869L160.063 100.772H160.153L163.415 92.7252H166.134L161.331 103.878H158.841L154.083 92.7252ZM172.686 104.228C171.553 104.228 170.534 103.972 169.627 103.462C168.737 102.951 168.035 102.252 167.521 101.362C167.023 100.458 166.774 99.4454 166.774 98.3229C166.774 97.2581 167.016 96.275 167.499 95.3712C167.997 94.4525 168.684 93.723 169.559 93.1839C170.436 92.6448 171.432 92.3752 172.55 92.3752C173.713 92.3752 174.717 92.6219 175.563 93.1181C176.423 93.6143 177.073 94.2916 177.511 95.1526C177.964 96.0122 178.19 96.9818 178.19 98.06C178.19 98.2639 178.168 98.52 178.122 98.8258H169.265C169.357 99.8611 169.733 100.663 170.398 101.232C171.078 101.786 171.863 102.062 172.754 102.062C173.464 102.062 174.075 101.909 174.588 101.603C175.117 101.283 175.54 100.852 175.858 100.313L177.964 101.275C177.421 102.193 176.711 102.915 175.834 103.44C174.959 103.965 173.909 104.228 172.686 104.228ZM175.654 96.9885C175.623 96.5956 175.495 96.2093 175.269 95.8298C175.042 95.4369 174.694 95.1083 174.225 94.8455C173.773 94.5839 173.214 94.4525 172.55 94.4525C171.75 94.4525 171.071 94.6859 170.511 95.1526C169.968 95.6045 169.59 96.2161 169.379 96.9885H175.654ZM180.459 88.2205H182.951V103.878H180.459V88.2205ZM191.181 104.228C190.019 104.228 188.977 103.972 188.056 103.462C187.135 102.936 186.418 102.223 185.904 101.319C185.39 100.415 185.134 99.4092 185.134 98.3014C185.134 97.1923 185.39 96.1866 185.904 95.2827C186.418 94.3788 187.135 93.672 188.056 93.1624C188.977 92.6367 190.019 92.3752 191.181 92.3752C192.344 92.3752 193.386 92.6367 194.308 93.1624C195.229 93.6868 195.946 94.4016 196.46 95.3055C196.973 96.2094 197.23 97.2071 197.23 98.3014C197.23 99.4092 196.973 100.415 196.46 101.319C195.946 102.223 195.229 102.936 194.308 103.462C193.386 103.972 192.344 104.228 191.181 104.228ZM191.181 102.019C191.816 102.019 192.405 101.873 192.948 101.582C193.493 101.275 193.922 100.845 194.24 100.29C194.572 99.7216 194.738 99.0591 194.738 98.3014C194.738 97.5424 194.572 96.8866 194.24 96.3327C193.922 95.7789 193.493 95.3564 192.948 95.0641C192.405 94.7583 191.816 94.6054 191.181 94.6054C190.548 94.6054 189.959 94.7583 189.414 95.0641C188.871 95.3564 188.434 95.7789 188.102 96.3327C187.784 96.8866 187.625 97.5424 187.625 98.3014C187.625 99.0591 187.784 99.7216 188.102 100.29C188.434 100.845 188.871 101.275 189.414 101.582C189.959 101.873 190.548 102.019 191.181 102.019ZM199.326 92.7252H201.704V94.1897H201.818C202.15 93.6801 202.64 93.2496 203.291 92.8996C203.939 92.5495 204.671 92.3752 205.487 92.3752C206.529 92.3752 207.473 92.63 208.318 93.1396C209.164 93.6505 209.829 94.3573 210.311 95.2612C210.81 96.1503 211.06 97.1642 211.06 98.3014C211.06 99.4387 210.81 100.458 210.311 101.362C209.829 102.252 209.164 102.951 208.318 103.462C207.473 103.972 206.529 104.228 205.487 104.228C204.671 104.228 203.939 104.052 203.291 103.702C202.64 103.352 202.15 102.93 201.818 102.433H201.704L201.818 103.986V108.601H199.326V92.7252ZM205.124 102.019C205.729 102.019 206.295 101.865 206.823 101.559C207.352 101.253 207.775 100.816 208.092 100.247C208.41 99.6787 208.568 99.0296 208.568 98.3014C208.568 97.5719 208.41 96.9308 208.092 96.377C207.775 95.8083 207.352 95.3712 206.823 95.0641C206.295 94.7583 205.729 94.6054 205.124 94.6054C204.521 94.6054 203.955 94.7583 203.425 95.0641C202.913 95.3712 202.497 95.8083 202.181 96.377C201.863 96.9308 201.704 97.5719 201.704 98.3014C201.704 99.0296 201.863 99.6787 202.181 100.247C202.497 100.816 202.913 101.253 203.425 101.559C203.955 101.865 204.521 102.019 205.124 102.019ZM218.609 104.228C217.475 104.228 216.457 103.972 215.55 103.462C214.659 102.951 213.956 102.252 213.444 101.362C212.945 100.458 212.697 99.4454 212.697 98.3229C212.697 97.2581 212.938 96.275 213.422 95.3712C213.919 94.4525 214.607 93.723 215.482 93.1839C216.358 92.6448 217.354 92.3752 218.473 92.3752C219.635 92.3752 220.64 92.6219 221.484 93.1181C222.346 93.6143 222.996 94.2916 223.433 95.1526C223.886 96.0122 224.113 96.9818 224.113 98.06C224.113 98.2639 224.09 98.52 224.044 98.8258H215.187C215.279 99.8611 215.655 100.663 216.321 101.232C217 101.786 217.785 102.062 218.677 102.062C219.385 102.062 219.998 101.909 220.51 101.603C221.04 101.283 221.462 100.852 221.779 100.313L223.886 101.275C223.343 102.193 222.633 102.915 221.757 103.44C220.881 103.965 219.831 104.228 218.609 104.228ZM221.576 96.9885C221.545 96.5956 221.418 96.2093 221.191 95.8298C220.963 95.4369 220.616 95.1083 220.148 94.8455C219.695 94.5839 219.137 94.4525 218.473 94.4525C217.672 94.4525 216.992 94.6859 216.433 95.1526C215.89 95.6045 215.512 96.2161 215.301 96.9885H221.576ZM226.381 92.7252H228.761V94.3653H228.873C229.13 93.7967 229.576 93.3301 230.21 92.9653C230.844 92.5858 231.515 92.3966 232.225 92.3966C232.785 92.3966 233.253 92.4691 233.63 92.6152V95.1083C232.966 94.875 232.37 94.7583 231.84 94.7583C231.267 94.7583 230.753 94.9045 230.3 95.1955C229.862 95.4879 229.515 95.8808 229.258 96.377C229.001 96.8571 228.873 97.3895 228.873 97.9729V103.878H226.381V92.7252ZM245.26 104.228C243.915 104.228 242.708 103.848 241.635 103.09C240.563 102.331 239.822 101.268 239.415 99.8973L241.816 98.9572C242.058 99.8169 242.481 100.524 243.084 101.077C243.704 101.618 244.444 101.888 245.304 101.888C246.105 101.888 246.785 101.69 247.343 101.297C247.902 100.888 248.181 100.335 248.181 99.6345C248.181 98.9934 247.932 98.4691 247.434 98.06C246.95 97.6376 246.097 97.2152 244.875 96.7914L243.855 96.4427C242.767 96.0779 241.853 95.5522 241.114 94.8682C240.374 94.183 240.004 93.2791 240.004 92.1566C240.004 91.3828 240.222 90.6693 240.661 90.0135C241.099 89.3564 241.703 88.8401 242.473 88.4606C243.258 88.0663 244.141 87.8705 245.123 87.8705C246.543 87.8705 247.675 88.2058 248.521 88.8763C249.367 89.5321 249.933 90.275 250.22 91.1065L247.932 92.0466C247.766 91.5504 247.449 91.1132 246.981 90.735C246.513 90.3555 245.908 90.1664 245.169 90.1664C244.429 90.1664 243.802 90.3488 243.288 90.7122C242.79 91.077 242.541 91.5437 242.541 92.1123C242.541 92.6514 242.767 93.0967 243.22 93.4467C243.673 93.7967 244.383 94.132 245.35 94.4525L246.369 94.7798C247.759 95.2465 248.831 95.8593 249.585 96.617C250.356 97.36 250.741 98.3591 250.741 99.613C250.741 100.634 250.469 101.493 249.926 102.193C249.383 102.879 248.687 103.388 247.842 103.723C247.011 104.06 246.15 104.228 245.26 104.228ZM257.395 104.052C256.881 104.052 256.398 103.972 255.945 103.812C255.492 103.651 255.122 103.44 254.835 103.178C254.186 102.55 253.861 101.697 253.861 100.619V94.8455H251.845V92.7252H253.861V89.575H256.353V92.7252H259.162V94.8455H256.353V100.094C256.353 100.691 256.474 101.115 256.716 101.362C256.942 101.654 257.334 101.8 257.894 101.8C258.149 101.8 258.376 101.771 258.573 101.712C258.769 101.639 258.98 101.529 259.207 101.385V103.723C258.709 103.943 258.105 104.052 257.395 104.052ZM265.744 104.228C264.339 104.228 263.268 103.827 262.528 103.025C261.803 102.208 261.44 101.077 261.44 99.6345V92.7252H263.932V99.3072C263.932 100.211 264.151 100.888 264.59 101.34C265.042 101.792 265.631 102.019 266.356 102.019C266.945 102.019 267.466 101.873 267.919 101.582C268.372 101.275 268.719 100.874 268.961 100.379C269.203 99.8826 269.324 99.3502 269.324 98.7815V92.7252H271.814V103.878H269.46V102.433H269.324C269.006 102.959 268.515 103.388 267.851 103.723C267.186 104.06 266.484 104.228 265.744 104.228ZM279.542 104.228C278.5 104.228 277.557 103.972 276.711 103.462C275.865 102.951 275.193 102.252 274.696 101.362C274.212 100.458 273.97 99.4387 273.97 98.3014C273.97 97.1642 274.212 96.1503 274.696 95.2612C275.193 94.3573 275.865 93.6505 276.711 93.1396C277.557 92.63 278.5 92.3752 279.542 92.3752C280.358 92.3752 281.09 92.5495 281.74 92.8996C282.389 93.2496 282.88 93.6801 283.212 94.1897H283.325L283.212 92.6152V88.2205H285.703V103.878H283.325V102.433H283.212C282.88 102.93 282.389 103.352 281.74 103.702C281.09 104.052 280.358 104.228 279.542 104.228ZM279.905 102.019C280.509 102.019 281.068 101.865 281.582 101.559C282.109 101.253 282.533 100.816 282.85 100.247C283.167 99.6787 283.325 99.0296 283.325 98.3014C283.325 97.5719 283.167 96.9308 282.85 96.377C282.533 95.8083 282.109 95.3712 281.582 95.0641C281.068 94.7583 280.509 94.6054 279.905 94.6054C279.301 94.6054 278.735 94.7583 278.206 95.0641C277.678 95.3712 277.254 95.8083 276.938 96.377C276.621 96.9308 276.463 97.5719 276.463 98.3014C276.463 99.0296 276.621 99.6787 276.938 100.247C277.254 100.816 277.678 101.253 278.206 101.559C278.735 101.865 279.301 102.019 279.905 102.019ZM293.774 104.228C292.642 104.228 291.622 103.972 290.717 103.462C289.825 102.951 289.123 102.252 288.609 101.362C288.111 100.458 287.862 99.4454 287.862 98.3229C287.862 97.2581 288.104 96.275 288.587 95.3712C289.086 94.4525 289.772 93.723 290.649 93.1839C291.524 92.6448 292.521 92.3752 293.638 92.3752C294.801 92.3752 295.805 92.6219 296.651 93.1181C297.511 93.6143 298.161 94.2916 298.599 95.1526C299.051 96.0122 299.278 96.9818 299.278 98.06C299.278 98.2639 299.256 98.52 299.21 98.8258H290.354C290.444 99.8611 290.822 100.663 291.486 101.232C292.166 101.786 292.95 102.062 293.842 102.062C294.552 102.062 295.163 101.909 295.677 101.603C296.205 101.283 296.627 100.852 296.946 100.313L299.051 101.275C298.508 102.193 297.798 102.915 296.922 103.44C296.047 103.965 294.997 104.228 293.774 104.228ZM296.741 96.9885C296.711 96.5956 296.583 96.2093 296.357 95.8298C296.13 95.4369 295.783 95.1083 295.315 94.8455C294.862 94.5839 294.302 94.4525 293.638 94.4525C292.838 94.4525 292.159 94.6859 291.6 95.1526C291.056 95.6045 290.678 96.2161 290.467 96.9885H296.741ZM301.548 92.7252H303.926V94.1897H304.038C304.37 93.6653 304.862 93.2348 305.511 92.8996C306.176 92.5495 306.878 92.3752 307.618 92.3752C309.023 92.3752 310.087 92.7762 310.812 93.5768C311.551 94.3654 311.922 95.4436 311.922 96.8142V103.878H309.43V97.1414C309.43 96.267 309.203 95.626 308.751 95.2169C308.313 94.8093 307.7 94.6054 306.915 94.6054C306.357 94.6054 305.858 94.7583 305.421 95.0641C304.983 95.3564 304.643 95.7494 304.401 96.2456C304.159 96.7404 304.038 97.2728 304.038 97.8414V103.878H301.548V92.7252ZM318.89 104.052C318.377 104.052 317.894 103.972 317.441 103.812C316.988 103.651 316.617 103.44 316.331 103.178C315.681 102.55 315.356 101.697 315.356 100.619V94.8455H313.34V92.7252H315.356V89.575H317.848V92.7252H320.657V94.8455H317.848V100.094C317.848 100.691 317.969 101.115 318.211 101.362C318.437 101.654 318.83 101.8 319.389 101.8C319.646 101.8 319.872 101.771 320.068 101.712C320.264 101.639 320.476 101.529 320.703 101.385V103.723C320.204 103.943 319.6 104.052 318.89 104.052ZM335.957 104.228C334.386 104.228 332.952 103.87 331.653 103.156C330.355 102.441 329.335 101.457 328.594 100.203C327.855 98.9492 327.485 97.5652 327.485 96.0484C327.485 94.533 327.855 93.1477 328.594 91.8937C329.335 90.6398 330.355 89.6555 331.653 88.942C332.952 88.2272 334.386 87.8705 335.957 87.8705C337.179 87.8705 338.289 88.0891 339.287 88.5263C340.298 88.9635 341.19 89.5978 341.959 90.428L340.148 92.1123C339.588 91.4713 338.97 90.9965 338.289 90.6908C337.61 90.3703 336.832 90.2093 335.957 90.2093C334.869 90.2093 333.873 90.4507 332.967 90.9309C332.076 91.4123 331.366 92.0976 330.838 92.9867C330.309 93.8611 330.045 94.8817 330.045 96.0484C330.045 97.2152 330.309 98.2424 330.838 99.1316C331.366 100.006 332.076 100.685 332.967 101.166C333.873 101.646 334.869 101.888 335.957 101.888C337.768 101.888 339.309 101.158 340.577 99.7002L342.412 101.406C341.627 102.295 340.683 102.989 339.581 103.483C338.478 103.98 337.271 104.228 335.957 104.228ZM344.615 88.2205H347.108V103.878H344.615V88.2205ZM354.249 104.228C352.845 104.228 351.772 103.827 351.032 103.025C350.307 102.208 349.946 101.077 349.946 99.6345V92.7252H352.436V99.3072C352.436 100.211 352.656 100.888 353.094 101.34C353.546 101.792 354.135 102.019 354.86 102.019C355.449 102.019 355.97 101.873 356.423 101.582C356.876 101.275 357.223 100.874 357.465 100.379C357.707 99.8826 357.828 99.3502 357.828 98.7815V92.7252H360.32V103.878H357.964V102.433H357.828C357.511 102.959 357.019 103.388 356.355 103.723C355.691 104.06 354.988 104.228 354.249 104.228ZM369.381 104.228C368.566 104.228 367.832 104.052 367.184 103.702C366.534 103.352 366.043 102.93 365.711 102.433H365.599V103.878H363.219V88.2205H365.711V92.6152L365.599 94.1897H365.711C366.043 93.6801 366.534 93.2496 367.184 92.8996C367.832 92.5495 368.566 92.3752 369.381 92.3752C370.423 92.3752 371.366 92.63 372.212 93.1396C373.058 93.6505 373.722 94.3573 374.206 95.2612C374.704 96.1503 374.953 97.1642 374.953 98.3014C374.953 99.4387 374.704 100.458 374.206 101.362C373.722 102.252 373.058 102.951 372.212 103.462C371.366 103.972 370.423 104.228 369.381 104.228ZM369.019 102.019C369.623 102.019 370.188 101.865 370.718 101.559C371.245 101.253 371.669 100.816 371.986 100.247C372.303 99.6787 372.461 99.0296 372.461 98.3014C372.461 97.5719 372.303 96.9308 371.986 96.377C371.669 95.8083 371.245 95.3712 370.718 95.0641C370.188 94.7583 369.623 94.6054 369.019 94.6054C368.414 94.6054 367.848 94.7583 367.32 95.0641C366.806 95.3712 366.39 95.8083 366.074 96.377C365.757 96.9308 365.599 97.5719 365.599 98.3014C365.599 99.0296 365.757 99.6787 366.074 100.247C366.39 100.816 366.806 101.253 367.32 101.559C367.848 101.865 368.414 102.019 369.019 102.019ZM381.324 104.228C379.996 104.228 378.908 103.95 378.062 103.396C377.217 102.828 376.62 102.106 376.273 101.232L378.493 100.29C378.765 100.874 379.143 101.319 379.626 101.625C380.123 101.93 380.69 102.085 381.324 102.085C381.943 102.085 382.464 101.981 382.888 101.778C383.31 101.559 383.521 101.238 383.521 100.816C383.521 100.407 383.341 100.086 382.978 99.8531C382.616 99.6197 382.057 99.4159 381.301 99.2416L379.919 98.913C378.998 98.6944 378.236 98.3081 377.633 97.7543C377.028 97.2004 376.726 96.5004 376.726 95.6555C376.726 94.9983 376.923 94.423 377.315 93.9268C377.723 93.432 378.266 93.0524 378.946 92.7896C379.626 92.5133 380.365 92.3752 381.165 92.3752C382.238 92.3752 383.182 92.5857 383.998 93.0095C384.813 93.4172 385.402 94.0153 385.763 94.8026L383.589 95.7199C383.152 94.8602 382.352 94.4297 381.189 94.4297C380.629 94.4297 380.161 94.5397 379.785 94.7583C379.407 94.9769 379.218 95.2612 379.218 95.6112C379.218 95.9465 379.361 96.2241 379.648 96.4427C379.935 96.6465 380.358 96.8209 380.917 96.9671L382.616 97.3828C383.748 97.659 384.601 98.0828 385.174 98.6501C385.763 99.2053 386.058 99.8906 386.058 100.706C386.058 101.406 385.847 102.026 385.424 102.565C385.016 103.09 384.451 103.498 383.726 103.789C383 104.082 382.2 104.228 381.324 104.228Z" fill="#242424"/>
<path d="M222.741 53.7329L241.379 43.3445C243.976 41.8967 247.298 42.7559 248.797 45.2636C250.297 47.7713 249.407 50.9779 246.81 52.4257L228.172 62.814C225.574 64.2618 222.253 63.4026 220.753 60.895C219.253 58.3873 220.143 55.1807 222.741 53.7329Z" fill="#FBBC04"/>
<path d="M209.505 41.9811L190.867 52.3695C188.27 53.8173 184.948 52.9581 183.449 50.4504C181.949 47.9427 182.839 44.7361 185.436 43.2883L204.074 32.9C206.672 31.4522 209.993 32.3113 211.493 34.819C212.993 37.3267 212.103 40.5333 209.505 41.9811Z" fill="#EA4335"/>
<path d="M209.046 53.7317L190.408 43.3433C187.811 41.8955 184.489 42.7547 182.99 45.2624C181.49 47.7701 182.38 50.9766 184.977 52.4244L203.615 62.8128C206.213 64.2606 209.534 63.4014 211.034 60.8937C212.534 58.386 211.644 55.1795 209.046 53.7317Z" fill="#4285F4"/>
<path d="M222.422 41.8048L241.693 52.5459C244.116 53.8963 247.214 53.0949 248.613 50.7559L248.978 50.1449C250.377 47.8059 249.547 44.8151 247.124 43.4647L227.853 32.7236C225.431 31.3732 222.332 32.1746 220.934 34.5135L220.568 35.1246C219.169 37.4635 220 40.4544 222.422 41.8048Z" fill="#0F9D58"/>
<path d="M56.9833 133.277C55.8609 133.277 54.8273 133.014 53.8827 132.488C52.9381 131.962 52.1879 131.238 51.6323 130.316C51.0766 129.393 50.7988 128.374 50.7988 127.258C50.7988 126.142 51.0766 125.123 51.6323 124.2C52.1879 123.278 52.9381 122.553 53.8827 122.028C54.8273 121.502 55.8609 121.239 56.9833 121.239C57.8613 121.239 58.6837 121.389 59.4505 121.69C60.2284 121.99 60.8673 122.414 61.3674 122.961L60.3506 123.943C59.9727 123.492 59.4893 123.149 58.9003 122.913C58.3113 122.666 57.6779 122.543 57 122.543C56.1554 122.543 55.3664 122.741 54.6329 123.138C53.9105 123.524 53.3271 124.077 52.8825 124.796C52.4491 125.504 52.2324 126.325 52.2324 127.258C52.2324 128.191 52.4491 129.017 52.8825 129.736C53.3271 130.444 53.916 130.997 54.6495 131.394C55.383 131.78 56.1665 131.973 57 131.973C57.8001 131.973 58.4669 131.855 59.0003 131.619C59.5449 131.372 60.0116 131.051 60.4006 130.654C60.6895 130.353 60.923 129.994 61.1008 129.575C61.2786 129.146 61.3897 128.674 61.4341 128.159H57.0167V126.888H62.7511C62.8066 127.188 62.8344 127.467 62.8344 127.725C62.8344 128.433 62.7177 129.125 62.4843 129.801C62.2509 130.466 61.8786 131.051 61.3674 131.555C60.2672 132.703 58.8059 133.277 56.9833 133.277ZM68.4952 133.277C67.6617 133.277 66.9116 133.084 66.2448 132.697C65.578 132.311 65.0557 131.785 64.6778 131.12C64.3111 130.455 64.1277 129.72 64.1277 128.916C64.1277 128.111 64.3111 127.376 64.6778 126.711C65.0557 126.046 65.578 125.52 66.2448 125.134C66.9116 124.747 67.6617 124.554 68.4952 124.554C69.3287 124.554 70.0788 124.747 70.7456 125.134C71.4124 125.52 71.9291 126.046 72.2958 126.711C72.6737 127.376 72.8626 128.111 72.8626 128.916C72.8626 129.72 72.6737 130.455 72.2958 131.12C71.9291 131.785 71.4124 132.311 70.7456 132.697C70.0788 133.084 69.3287 133.277 68.4952 133.277ZM68.4952 132.038C69.0175 132.038 69.5009 131.914 69.9455 131.667C70.4011 131.41 70.7622 131.045 71.029 130.573C71.3068 130.101 71.4457 129.548 71.4457 128.916C71.4457 128.283 71.3068 127.73 71.029 127.258C70.7622 126.786 70.4011 126.426 69.9455 126.18C69.5009 125.922 69.0175 125.793 68.4952 125.793C67.9729 125.793 67.4839 125.922 67.0282 126.18C66.5726 126.426 66.2058 126.786 65.928 127.258C65.6613 127.73 65.528 128.283 65.528 128.916C65.528 129.548 65.6613 130.101 65.928 130.573C66.2058 131.045 66.5726 131.41 67.0282 131.667C67.4839 131.914 67.9729 132.038 68.4952 132.038ZM73.3308 124.812H74.8478L77.4816 131.41H77.5149L80.182 124.812H81.6656L78.1984 133.019H76.7648L73.3308 124.812ZM86.3666 133.277C85.5553 133.277 84.8274 133.089 84.1828 132.713C83.5382 132.338 83.0326 131.823 82.6659 131.169C82.3102 130.503 82.1324 129.758 82.1324 128.932C82.1324 128.138 82.2992 127.408 82.6325 126.743C82.9771 126.078 83.4605 125.547 84.0828 125.15C84.7052 124.753 85.4275 124.554 86.2499 124.554C87.0834 124.554 87.8057 124.737 88.417 125.101C89.0282 125.456 89.4949 125.949 89.8172 126.582C90.1506 127.215 90.3173 127.939 90.3173 128.755C90.3173 128.916 90.3006 129.055 90.2673 129.173H83.5493C83.5827 129.795 83.7383 130.321 84.0161 130.75C84.2939 131.179 84.644 131.501 85.0663 131.716C85.4997 131.93 85.9498 132.038 86.4166 132.038C87.5057 132.038 88.3447 131.544 88.9337 130.557L90.1339 131.12C89.7672 131.785 89.2671 132.311 88.6337 132.697C88.0113 133.084 87.2556 133.277 86.3666 133.277ZM88.817 128.047C88.7948 127.703 88.6947 127.36 88.5169 127.017C88.3391 126.673 88.0557 126.384 87.6668 126.148C87.2889 125.911 86.8111 125.793 86.2332 125.793C85.5664 125.793 84.9996 126.003 84.5329 126.421C84.0772 126.829 83.7772 127.371 83.6327 128.047H88.817ZM91.9759 124.812H93.3262V126.131H93.3928C93.5595 125.681 93.8818 125.311 94.3597 125.021C94.8375 124.721 95.3377 124.57 95.86 124.57C96.2489 124.57 96.5824 124.624 96.8602 124.731V126.212C96.5046 126.04 96.1045 125.954 95.66 125.954C95.2488 125.954 94.871 126.067 94.5264 126.292C94.1819 126.518 93.9041 126.823 93.6929 127.21C93.4929 127.585 93.3928 127.993 93.3928 128.433V133.019H91.9759V124.812ZM98.227 124.812H99.5774V126.019H99.644C99.8774 125.611 100.25 125.268 100.761 124.989C101.272 124.699 101.817 124.554 102.394 124.554C103.417 124.554 104.195 124.844 104.728 125.423C105.273 125.992 105.545 126.77 105.545 127.757V133.019H104.128V127.966C104.128 127.204 103.939 126.652 103.561 126.308C103.184 125.965 102.667 125.793 102.011 125.793C101.556 125.793 101.144 125.917 100.778 126.164C100.422 126.41 100.144 126.738 99.9441 127.145C99.744 127.542 99.644 127.961 99.644 128.401V133.019H98.227V124.812ZM107.57 124.812H108.921V126.019H108.987C109.232 125.6 109.599 125.252 110.088 124.973C110.577 124.694 111.093 124.554 111.638 124.554C112.26 124.554 112.799 124.699 113.255 124.989C113.722 125.279 114.055 125.665 114.255 126.148C114.555 125.665 114.95 125.279 115.439 124.989C115.939 124.699 116.517 124.554 117.172 124.554C118.15 124.554 118.884 124.844 119.373 125.423C119.873 125.992 120.123 126.77 120.123 127.757V133.019H118.723V127.966C118.723 127.204 118.561 126.652 118.239 126.308C117.917 125.965 117.439 125.793 116.806 125.793C116.383 125.793 116 125.911 115.655 126.148C115.311 126.384 115.039 126.7 114.838 127.097C114.65 127.494 114.555 127.923 114.555 128.384V133.019H113.138V127.982C113.138 127.21 112.977 126.652 112.655 126.308C112.333 125.965 111.86 125.793 111.238 125.793C110.816 125.793 110.432 125.917 110.088 126.164C109.743 126.4 109.471 126.721 109.271 127.129C109.082 127.526 108.987 127.955 108.987 128.417V133.019H107.57V124.812ZM125.941 133.277C125.129 133.277 124.401 133.089 123.757 132.713C123.112 132.338 122.607 131.823 122.24 131.169C121.884 130.503 121.706 129.758 121.706 128.932C121.706 128.138 121.873 127.408 122.207 126.743C122.551 126.078 123.034 125.547 123.657 125.15C124.279 124.753 125.002 124.554 125.824 124.554C126.657 124.554 127.38 124.737 127.991 125.101C128.602 125.456 129.069 125.949 129.391 126.582C129.725 127.215 129.891 127.939 129.891 128.755C129.891 128.916 129.875 129.055 129.841 129.173H123.123C123.157 129.795 123.312 130.321 123.59 130.75C123.868 131.179 124.218 131.501 124.64 131.716C125.074 131.93 125.524 132.038 125.991 132.038C127.08 132.038 127.919 131.544 128.508 130.557L129.708 131.12C129.341 131.785 128.841 132.311 128.208 132.697C127.585 133.084 126.83 133.277 125.941 133.277ZM128.391 128.047C128.369 127.703 128.269 127.36 128.091 127.017C127.913 126.673 127.63 126.384 127.241 126.148C126.863 125.911 126.385 125.793 125.807 125.793C125.14 125.793 124.574 126.003 124.107 126.421C123.651 126.829 123.351 127.371 123.207 128.047H128.391ZM131.55 124.812H132.9V126.019H132.967C133.2 125.611 133.573 125.268 134.084 124.989C134.595 124.699 135.14 124.554 135.717 124.554C136.74 124.554 137.518 124.844 138.051 125.423C138.596 125.992 138.868 126.77 138.868 127.757V133.019H137.451V127.966C137.451 127.204 137.262 126.652 136.884 126.308C136.506 125.965 135.99 125.793 135.334 125.793C134.878 125.793 134.467 125.917 134.1 126.164C133.745 126.41 133.467 126.738 133.267 127.145C133.067 127.542 132.967 127.961 132.967 128.401V133.019H131.55V124.812ZM143.738 133.148C143.394 133.148 143.072 133.094 142.772 132.987C142.483 132.88 142.238 132.735 142.038 132.553C141.816 132.349 141.649 132.113 141.538 131.844C141.427 131.576 141.371 131.249 141.371 130.863V126.051H139.888V124.812H141.371V122.494H142.788V124.812H144.855V126.051H142.788V130.525C142.788 130.975 142.877 131.308 143.055 131.523C143.266 131.759 143.572 131.877 143.972 131.877C144.294 131.877 144.605 131.785 144.905 131.603V132.939C144.739 133.014 144.566 133.068 144.388 133.1C144.222 133.132 144.005 133.148 143.738 133.148ZM156.009 133.277C154.853 133.277 153.803 133.014 152.858 132.488C151.913 131.962 151.169 131.244 150.624 130.332C150.091 129.409 149.824 128.384 149.824 127.258C149.824 126.131 150.091 125.112 150.624 124.2C151.169 123.278 151.913 122.553 152.858 122.028C153.803 121.502 154.853 121.239 156.009 121.239C156.898 121.239 157.709 121.405 158.442 121.738C159.187 122.06 159.832 122.521 160.376 123.122L159.359 124.072C158.904 123.546 158.404 123.16 157.859 122.913C157.326 122.666 156.709 122.543 156.009 122.543C155.142 122.543 154.347 122.741 153.625 123.138C152.903 123.524 152.325 124.077 151.891 124.796C151.469 125.504 151.258 126.325 151.258 127.258C151.258 128.191 151.469 129.017 151.891 129.736C152.325 130.444 152.903 130.997 153.625 131.394C154.347 131.78 155.142 131.973 156.009 131.973C157.453 131.973 158.681 131.399 159.693 130.251L160.726 131.217C160.171 131.85 159.487 132.354 158.676 132.73C157.865 133.094 156.976 133.277 156.009 133.277ZM166.072 133.277C165.238 133.277 164.488 133.084 163.821 132.697C163.154 132.311 162.632 131.785 162.254 131.12C161.888 130.455 161.704 129.72 161.704 128.916C161.704 128.111 161.888 127.376 162.254 126.711C162.632 126.046 163.154 125.52 163.821 125.134C164.488 124.747 165.238 124.554 166.072 124.554C166.905 124.554 167.655 124.747 168.322 125.134C168.989 125.52 169.506 126.046 169.872 126.711C170.25 127.376 170.439 128.111 170.439 128.916C170.439 129.72 170.25 130.455 169.872 131.12C169.506 131.785 168.989 132.311 168.322 132.697C167.655 133.084 166.905 133.277 166.072 133.277ZM166.072 132.038C166.594 132.038 167.077 131.914 167.522 131.667C167.978 131.41 168.339 131.045 168.605 130.573C168.883 130.101 169.022 129.548 169.022 128.916C169.022 128.283 168.883 127.73 168.605 127.258C168.339 126.786 167.978 126.426 167.522 126.18C167.077 125.922 166.594 125.793 166.072 125.793C165.549 125.793 165.06 125.922 164.605 126.18C164.149 126.426 163.782 126.786 163.505 127.258C163.238 127.73 163.104 128.283 163.104 128.916C163.104 129.548 163.238 130.101 163.505 130.573C163.782 131.045 164.149 131.41 164.605 131.667C165.06 131.914 165.549 132.038 166.072 132.038ZM172.003 121.497H173.42V133.019H172.003V121.497ZM175.519 121.497H176.936V133.019H175.519V121.497ZM182.739 133.277C181.927 133.277 181.199 133.089 180.555 132.713C179.91 132.338 179.405 131.823 179.038 131.169C178.682 130.503 178.504 129.758 178.504 128.932C178.504 128.138 178.671 127.408 179.005 126.743C179.349 126.078 179.833 125.547 180.455 125.15C181.077 124.753 181.8 124.554 182.622 124.554C183.455 124.554 184.178 124.737 184.789 125.101C185.4 125.456 185.867 125.949 186.189 126.582C186.523 127.215 186.689 127.939 186.689 128.755C186.689 128.916 186.673 129.055 186.639 129.173H179.921C179.955 129.795 180.11 130.321 180.388 130.75C180.666 131.179 181.016 131.501 181.438 131.716C181.872 131.93 182.322 132.038 182.789 132.038C183.878 132.038 184.717 131.544 185.306 130.557L186.506 131.12C186.139 131.785 185.639 132.311 185.006 132.697C184.383 133.084 183.628 133.277 182.739 133.277ZM185.189 128.047C185.167 127.703 185.067 127.36 184.889 127.017C184.711 126.673 184.428 126.384 184.039 126.148C183.661 125.911 183.183 125.793 182.605 125.793C181.938 125.793 181.372 126.003 180.905 126.421C180.449 126.829 180.149 127.371 180.005 128.047H185.189ZM192.163 136.753C191.162 136.753 190.334 136.528 189.679 136.077C189.034 135.626 188.601 135.085 188.379 134.452L189.662 133.92C189.851 134.393 190.162 134.773 190.596 135.063C191.04 135.363 191.563 135.514 192.163 135.514C193.041 135.514 193.718 135.267 194.196 134.773C194.685 134.28 194.93 133.583 194.93 132.681V131.764H194.863C194.585 132.182 194.191 132.526 193.68 132.794C193.179 133.051 192.607 133.18 191.963 133.18C191.229 133.18 190.557 132.998 189.946 132.633C189.345 132.268 188.868 131.759 188.512 131.104C188.156 130.45 187.978 129.704 187.978 128.867C187.978 128.041 188.156 127.301 188.512 126.646C188.868 125.981 189.345 125.466 189.946 125.101C190.557 124.737 191.229 124.554 191.963 124.554C192.607 124.554 193.179 124.688 193.68 124.957C194.191 125.214 194.585 125.557 194.863 125.987H194.93V124.812H196.28V132.697C196.28 134.017 195.902 135.02 195.147 135.707C194.391 136.404 193.396 136.753 192.163 136.753ZM192.163 131.941C192.674 131.941 193.135 131.818 193.546 131.571C193.968 131.324 194.302 130.97 194.546 130.509C194.802 130.047 194.93 129.5 194.93 128.867C194.93 128.224 194.802 127.671 194.546 127.21C194.302 126.748 193.968 126.4 193.546 126.164C193.135 125.917 192.674 125.793 192.163 125.793C191.651 125.793 191.185 125.917 190.762 126.164C190.34 126.41 190.001 126.764 189.746 127.226C189.501 127.687 189.379 128.234 189.379 128.867C189.379 129.5 189.501 130.053 189.746 130.525C190.001 130.986 190.34 131.34 190.762 131.587C191.185 131.823 191.651 131.941 192.163 131.941ZM202.078 133.277C201.267 133.277 200.539 133.089 199.895 132.713C199.25 132.338 198.744 131.823 198.378 131.169C198.022 130.503 197.844 129.758 197.844 128.932C197.844 128.138 198.011 127.408 198.344 126.743C198.689 126.078 199.172 125.547 199.795 125.15C200.417 124.753 201.139 124.554 201.962 124.554C202.795 124.554 203.518 124.737 204.129 125.101C204.74 125.456 205.207 125.949 205.529 126.582C205.862 127.215 206.029 127.939 206.029 128.755C206.029 128.916 206.012 129.055 205.979 129.173H199.261C199.294 129.795 199.45 130.321 199.728 130.75C200.006 131.179 200.356 131.501 200.778 131.716C201.212 131.93 201.662 132.038 202.128 132.038C203.217 132.038 204.057 131.544 204.646 130.557L205.846 131.12C205.479 131.785 204.979 132.311 204.345 132.697C203.723 133.084 202.967 133.277 202.078 133.277ZM204.529 128.047C204.507 127.703 204.407 127.36 204.229 127.017C204.051 126.673 203.768 126.384 203.379 126.148C203.001 125.911 202.523 125.793 201.945 125.793C201.278 125.793 200.711 126.003 200.245 126.421C199.789 126.829 199.489 127.371 199.344 128.047H204.529ZM217.053 133.277C215.909 133.277 214.87 133.009 213.936 132.472C213.003 131.936 212.269 131.211 211.736 130.3C211.202 129.377 210.936 128.363 210.936 127.258C210.936 126.164 211.202 125.155 211.736 124.232C212.269 123.31 213.003 122.58 213.936 122.044C214.87 121.507 215.909 121.239 217.053 121.239C218.198 121.239 219.237 121.507 220.171 122.044C221.104 122.58 221.838 123.31 222.371 124.232C222.916 125.155 223.188 126.164 223.188 127.258C223.188 128.363 222.921 129.377 222.388 130.3C221.854 131.211 221.115 131.936 220.171 132.472C219.237 133.009 218.198 133.277 217.053 133.277ZM217.053 131.973C217.909 131.973 218.693 131.775 219.404 131.378C220.126 130.97 220.693 130.412 221.104 129.704C221.526 128.985 221.738 128.17 221.738 127.258C221.738 126.346 221.526 125.536 221.104 124.828C220.693 124.109 220.126 123.551 219.404 123.154C218.693 122.747 217.909 122.543 217.053 122.543C216.198 122.543 215.414 122.747 214.703 123.154C213.992 123.551 213.425 124.109 213.003 124.828C212.58 125.547 212.369 126.357 212.369 127.258C212.369 128.159 212.58 128.969 213.003 129.688C213.425 130.407 213.992 130.97 214.703 131.378C215.414 131.775 216.198 131.973 217.053 131.973ZM225.975 126.051H224.407V124.812H225.975V123.927C225.975 123.412 226.097 122.961 226.341 122.575C226.586 122.189 226.914 121.894 227.325 121.69C227.736 121.475 228.192 121.368 228.692 121.368C229.17 121.368 229.586 121.432 229.942 121.561V122.897C229.742 122.822 229.553 122.763 229.375 122.72C229.197 122.666 228.986 122.639 228.742 122.639C228.375 122.639 228.058 122.768 227.791 123.025C227.525 123.272 227.391 123.621 227.391 124.072V124.812H229.575V126.051H227.391V133.019H225.975V126.051ZM235.465 121.497H242.366V122.8H236.865V126.614H241.833V127.902H236.865V131.716H242.366V133.019H235.465V121.497ZM244.201 124.812H245.552V126.019H245.618C245.852 125.611 246.224 125.268 246.735 124.989C247.246 124.699 247.791 124.554 248.369 124.554C249.391 124.554 250.169 124.844 250.703 125.423C251.247 125.992 251.52 126.77 251.52 127.757V133.019H250.103V127.966C250.103 127.204 249.914 126.652 249.536 126.308C249.158 125.965 248.641 125.793 247.986 125.793C247.53 125.793 247.119 125.917 246.752 126.164C246.396 126.41 246.119 126.738 245.918 127.145C245.718 127.542 245.618 127.961 245.618 128.401V133.019H244.201V124.812ZM257.198 136.753C256.198 136.753 255.37 136.528 254.715 136.077C254.07 135.626 253.637 135.085 253.414 134.452L254.698 133.92C254.887 134.393 255.198 134.773 255.631 135.063C256.076 135.363 256.598 135.514 257.198 135.514C258.076 135.514 258.754 135.267 259.232 134.773C259.721 134.28 259.966 133.583 259.966 132.681V131.764H259.899C259.621 132.182 259.226 132.526 258.715 132.794C258.215 133.051 257.643 133.18 256.998 133.18C256.265 133.18 255.592 132.998 254.981 132.633C254.381 132.268 253.903 131.759 253.548 131.104C253.192 130.45 253.014 129.704 253.014 128.867C253.014 128.041 253.192 127.301 253.548 126.646C253.903 125.981 254.381 125.466 254.981 125.101C255.592 124.737 256.265 124.554 256.998 124.554C257.643 124.554 258.215 124.688 258.715 124.957C259.226 125.214 259.621 125.557 259.899 125.987H259.966V124.812H261.316V132.697C261.316 134.017 260.938 135.02 260.182 135.707C259.427 136.404 258.432 136.753 257.198 136.753ZM257.198 131.941C257.71 131.941 258.171 131.818 258.582 131.571C259.004 131.324 259.338 130.97 259.582 130.509C259.838 130.047 259.966 129.5 259.966 128.867C259.966 128.224 259.838 127.671 259.582 127.21C259.338 126.748 259.004 126.4 258.582 126.164C258.171 125.917 257.71 125.793 257.198 125.793C256.687 125.793 256.22 125.917 255.798 126.164C255.376 126.41 255.037 126.764 254.781 127.226C254.537 127.687 254.414 128.234 254.414 128.867C254.414 129.5 254.537 130.053 254.781 130.525C255.037 130.986 255.376 131.34 255.798 131.587C256.22 131.823 256.687 131.941 257.198 131.941ZM264.244 123.299C263.966 123.299 263.727 123.202 263.527 123.009C263.327 122.816 263.227 122.586 263.227 122.317C263.227 122.049 263.327 121.824 263.527 121.641C263.727 121.448 263.966 121.352 264.244 121.352C264.522 121.352 264.761 121.448 264.961 121.641C265.161 121.824 265.261 122.049 265.261 122.317C265.261 122.586 265.161 122.816 264.961 123.009C264.772 123.202 264.533 123.299 264.244 123.299ZM263.544 124.812H264.944V133.019H263.544V124.812ZM267.171 124.812H268.521V126.019H268.588C268.821 125.611 269.194 125.268 269.705 124.989C270.216 124.699 270.761 124.554 271.338 124.554C272.361 124.554 273.139 124.844 273.672 125.423C274.217 125.992 274.489 126.77 274.489 127.757V133.019H273.072V127.966C273.072 127.204 272.883 126.652 272.505 126.308C272.127 125.965 271.611 125.793 270.955 125.793C270.499 125.793 270.088 125.917 269.721 126.164C269.366 126.41 269.088 126.738 268.888 127.145C268.688 127.542 268.588 127.961 268.588 128.401V133.019H267.171V124.812ZM280.298 133.277C279.487 133.277 278.759 133.089 278.115 132.713C277.47 132.338 276.964 131.823 276.598 131.169C276.242 130.503 276.064 129.758 276.064 128.932C276.064 128.138 276.231 127.408 276.564 126.743C276.909 126.078 277.392 125.547 278.015 125.15C278.637 124.753 279.359 124.554 280.182 124.554C281.015 124.554 281.738 124.737 282.349 125.101C282.96 125.456 283.427 125.949 283.749 126.582C284.082 127.215 284.249 127.939 284.249 128.755C284.249 128.916 284.232 129.055 284.199 129.173H277.481C277.515 129.795 277.67 130.321 277.948 130.75C278.226 131.179 278.576 131.501 278.998 131.716C279.432 131.93 279.882 132.038 280.348 132.038C281.438 132.038 282.277 131.544 282.866 130.557L284.066 131.12C283.699 131.785 283.199 132.311 282.566 132.697C281.943 133.084 281.187 133.277 280.298 133.277ZM282.749 128.047C282.727 127.703 282.627 127.36 282.449 127.017C282.271 126.673 281.988 126.384 281.599 126.148C281.221 125.911 280.743 125.793 280.165 125.793C279.498 125.793 278.932 126.003 278.465 126.421C278.009 126.829 277.709 127.371 277.565 128.047H282.749ZM289.774 133.277C288.963 133.277 288.235 133.089 287.59 132.713C286.946 132.338 286.44 131.823 286.073 131.169C285.718 130.503 285.54 129.758 285.54 128.932C285.54 128.138 285.706 127.408 286.04 126.743C286.384 126.078 286.868 125.547 287.49 125.15C288.112 124.753 288.835 124.554 289.657 124.554C290.491 124.554 291.213 124.737 291.824 125.101C292.435 125.456 292.902 125.949 293.224 126.582C293.558 127.215 293.725 127.939 293.725 128.755C293.725 128.916 293.708 129.055 293.675 129.173H286.957C286.99 129.795 287.146 130.321 287.423 130.75C287.701 131.179 288.051 131.501 288.474 131.716C288.907 131.93 289.357 132.038 289.824 132.038C290.913 132.038 291.752 131.544 292.341 130.557L293.541 131.12C293.174 131.785 292.674 132.311 292.041 132.697C291.419 133.084 290.663 133.277 289.774 133.277ZM292.224 128.047C292.202 127.703 292.102 127.36 291.924 127.017C291.746 126.673 291.463 126.384 291.074 126.148C290.696 125.911 290.218 125.793 289.641 125.793C288.974 125.793 288.407 126.003 287.94 126.421C287.485 126.829 287.184 127.371 287.04 128.047H292.224ZM295.382 124.812H296.732V126.131H296.799C296.965 125.681 297.288 125.311 297.766 125.021C298.243 124.721 298.744 124.57 299.266 124.57C299.655 124.57 299.988 124.624 300.266 124.731V126.212C299.91 126.04 299.51 125.954 299.066 125.954C298.655 125.954 298.277 126.067 297.932 126.292C297.588 126.518 297.31 126.823 297.099 127.21C296.899 127.585 296.799 127.993 296.799 128.433V133.019H295.382V124.812ZM302.466 123.299C302.189 123.299 301.95 123.202 301.75 123.009C301.55 122.816 301.45 122.586 301.45 122.317C301.45 122.049 301.55 121.824 301.75 121.641C301.95 121.448 302.189 121.352 302.466 121.352C302.744 121.352 302.983 121.448 303.183 121.641C303.383 121.824 303.483 122.049 303.483 122.317C303.483 122.586 303.383 122.816 303.183 123.009C302.994 123.202 302.755 123.299 302.466 123.299ZM301.766 124.812H303.167V133.019H301.766V124.812ZM305.393 124.812H306.744V126.019H306.81C307.044 125.611 307.416 125.268 307.927 124.989C308.438 124.699 308.983 124.554 309.561 124.554C310.583 124.554 311.361 124.844 311.895 125.423C312.439 125.992 312.711 126.77 312.711 127.757V133.019H311.294V127.966C311.294 127.204 311.106 126.652 310.728 126.308C310.35 125.965 309.833 125.793 309.177 125.793C308.722 125.793 308.311 125.917 307.944 126.164C307.588 126.41 307.31 126.738 307.11 127.145C306.91 127.542 306.81 127.961 306.81 128.401V133.019H305.393V124.812ZM318.39 136.753C317.39 136.753 316.562 136.528 315.906 136.077C315.262 135.626 314.829 135.085 314.606 134.452L315.89 133.92C316.079 134.393 316.39 134.773 316.823 135.063C317.268 135.363 317.79 135.514 318.39 135.514C319.268 135.514 319.946 135.267 320.424 134.773C320.913 134.28 321.157 133.583 321.157 132.681V131.764H321.091C320.813 132.182 320.418 132.526 319.907 132.794C319.407 133.051 318.835 133.18 318.19 133.18C317.457 133.18 316.784 132.998 316.173 132.633C315.573 132.268 315.095 131.759 314.74 131.104C314.384 130.45 314.206 129.704 314.206 128.867C314.206 128.041 314.384 127.301 314.74 126.646C315.095 125.981 315.573 125.466 316.173 125.101C316.784 124.737 317.457 124.554 318.19 124.554C318.835 124.554 319.407 124.688 319.907 124.957C320.418 125.214 320.813 125.557 321.091 125.987H321.157V124.812H322.508V132.697C322.508 134.017 322.13 135.02 321.374 135.707C320.618 136.404 319.624 136.753 318.39 136.753ZM318.39 131.941C318.901 131.941 319.363 131.818 319.774 131.571C320.196 131.324 320.53 130.97 320.774 130.509C321.03 130.047 321.157 129.5 321.157 128.867C321.157 128.224 321.03 127.671 320.774 127.21C320.53 126.748 320.196 126.4 319.774 126.164C319.363 125.917 318.901 125.793 318.39 125.793C317.879 125.793 317.412 125.917 316.99 126.164C316.568 126.41 316.229 126.764 315.973 127.226C315.729 127.687 315.606 128.234 315.606 128.867C315.606 129.5 315.729 130.053 315.973 130.525C316.229 130.986 316.568 131.34 316.99 131.587C317.412 131.823 317.879 131.941 318.39 131.941ZM328.762 121.497H330.495L336.48 130.67H336.546L336.48 128.449V121.497H337.897V133.019H336.43L330.162 123.412H330.095L330.162 125.633V133.019H328.762V121.497ZM342.753 133.277C342.131 133.277 341.575 133.159 341.086 132.923C340.597 132.687 340.219 132.365 339.953 131.957C339.686 131.539 339.553 131.067 339.553 130.541C339.553 129.672 339.892 128.996 340.569 128.513C341.247 128.02 342.103 127.773 343.136 127.773C343.648 127.773 344.12 127.827 344.553 127.934C344.998 128.041 345.337 128.165 345.57 128.304V127.805C345.57 127.194 345.348 126.705 344.904 126.341C344.459 125.965 343.898 125.777 343.22 125.777C342.742 125.777 342.303 125.879 341.903 126.083C341.503 126.276 341.186 126.55 340.953 126.904L339.886 126.131C340.219 125.638 340.675 125.252 341.253 124.973C341.842 124.694 342.492 124.554 343.203 124.554C344.359 124.554 345.265 124.849 345.92 125.439C346.587 126.019 346.921 126.813 346.921 127.821V133.019H345.57V131.844H345.504C345.259 132.241 344.892 132.579 344.403 132.858C343.914 133.137 343.364 133.277 342.753 133.277ZM342.886 132.07C343.364 132.07 343.809 131.952 344.22 131.716C344.631 131.48 344.959 131.163 345.204 130.766C345.448 130.369 345.57 129.935 345.57 129.463C345.304 129.291 344.976 129.152 344.587 129.044C344.198 128.937 343.787 128.883 343.353 128.883C342.575 128.883 341.986 129.039 341.586 129.35C341.197 129.661 341.003 130.063 341.003 130.557C341.003 131.008 341.181 131.372 341.536 131.651C341.892 131.93 342.342 132.07 342.886 132.07ZM352.544 136.753C351.544 136.753 350.716 136.528 350.06 136.077C349.415 135.626 348.982 135.085 348.76 134.452L350.043 133.92C350.232 134.393 350.543 134.773 350.977 135.063C351.421 135.363 351.944 135.514 352.544 135.514C353.422 135.514 354.1 135.267 354.578 134.773C355.067 134.28 355.311 133.583 355.311 132.681V131.764H355.244C354.966 132.182 354.572 132.526 354.061 132.794C353.561 133.051 352.988 133.18 352.344 133.18C351.61 133.18 350.938 132.998 350.327 132.633C349.727 132.268 349.249 131.759 348.893 131.104C348.538 130.45 348.36 129.704 348.36 128.867C348.36 128.041 348.538 127.301 348.893 126.646C349.249 125.981 349.727 125.466 350.327 125.101C350.938 124.737 351.61 124.554 352.344 124.554C352.988 124.554 353.561 124.688 354.061 124.957C354.572 125.214 354.966 125.557 355.244 125.987H355.311V124.812H356.661V132.697C356.661 134.017 356.283 135.02 355.528 135.707C354.772 136.404 353.777 136.753 352.544 136.753ZM352.544 131.941C353.055 131.941 353.516 131.818 353.927 131.571C354.35 131.324 354.683 130.97 354.928 130.509C355.183 130.047 355.311 129.5 355.311 128.867C355.311 128.224 355.183 127.671 354.928 127.21C354.683 126.748 354.35 126.4 353.927 126.164C353.516 125.917 353.055 125.793 352.544 125.793C352.033 125.793 351.566 125.917 351.144 126.164C350.721 126.41 350.382 126.764 350.127 127.226C349.882 127.687 349.76 128.234 349.76 128.867C349.76 129.5 349.882 130.053 350.127 130.525C350.382 130.986 350.721 131.34 351.144 131.587C351.566 131.823 352.033 131.941 352.544 131.941ZM358.689 124.812H360.04V126.035H360.106C360.362 125.616 360.745 125.268 361.257 124.989C361.779 124.699 362.362 124.554 363.007 124.554C363.763 124.554 364.452 124.742 365.074 125.118C365.696 125.493 366.185 126.013 366.541 126.679C366.897 127.344 367.074 128.089 367.074 128.916C367.074 129.752 366.897 130.503 366.541 131.169C366.185 131.823 365.696 132.338 365.074 132.713C364.452 133.089 363.763 133.277 363.007 133.277C362.362 133.277 361.779 133.137 361.257 132.858C360.745 132.569 360.362 132.22 360.106 131.812H360.04L360.106 132.939V136.495H358.689V124.812ZM362.84 132.038C363.329 132.038 363.79 131.909 364.224 131.651C364.657 131.394 365.002 131.029 365.257 130.557C365.524 130.074 365.657 129.527 365.657 128.916C365.657 128.304 365.524 127.762 365.257 127.29C365.002 126.807 364.657 126.437 364.224 126.18C363.79 125.922 363.329 125.793 362.84 125.793C362.351 125.793 361.89 125.922 361.457 126.18C361.023 126.437 360.679 126.802 360.423 127.274C360.167 127.746 360.04 128.293 360.04 128.916C360.04 129.538 360.167 130.085 360.423 130.557C360.679 131.029 361.023 131.394 361.457 131.651C361.89 131.909 362.351 132.038 362.84 132.038ZM371.722 133.277C370.7 133.277 369.917 132.987 369.372 132.408C368.839 131.828 368.572 131.018 368.572 129.978V124.812H369.989V129.768C369.989 130.552 370.172 131.126 370.539 131.49C370.906 131.855 371.4 132.038 372.022 132.038C372.5 132.038 372.923 131.914 373.289 131.667C373.667 131.421 373.956 131.099 374.156 130.702C374.367 130.305 374.473 129.886 374.473 129.447V124.812H375.89V133.019H374.54V131.828H374.473C374.24 132.236 373.867 132.579 373.356 132.858C372.845 133.137 372.3 133.277 371.722 133.277ZM377.982 124.812H379.332V126.131H379.399C379.566 125.681 379.888 125.311 380.366 125.021C380.844 124.721 381.344 124.57 381.866 124.57C382.255 124.57 382.588 124.624 382.866 124.731V126.212C382.511 126.04 382.11 125.954 381.666 125.954C381.255 125.954 380.877 126.067 380.532 126.292C380.188 126.518 379.91 126.823 379.699 127.21C379.499 127.585 379.399 127.993 379.399 128.433V133.019H377.982V124.812Z" fill="#242424"/>
<defs>
<linearGradient id="paint0_linear_703_2375" x1="425.969" y1="131.228" x2="9.44729" y2="131.228" gradientUnits="userSpaceOnUse">
<stop stop-color="#348BCA"/>
<stop offset="0.404875" stop-color="#59A43A"/>
<stop offset="0.711571" stop-color="#F3B002"/>
<stop offset="1" stop-color="#DF572E"/>
</linearGradient>
</defs>
</svg>
