<svg width="429" height="168" viewBox="0 0 429 168" fill="none" xmlns="http://www.w3.org/2000/svg">
<path d="M417.355 2.11584H11.724C6.3536 2.11584 2 6.31882 2 11.5034V156.341C2 161.525 6.3536 165.728 11.724 165.728H417.355C422.725 165.728 427.079 161.525 427.079 156.341V11.5034C427.079 6.31882 422.725 2.11584 417.355 2.11584Z" fill="#EFEFEF" stroke="url(#paint0_linear_703_2367)" stroke-width="3.2"/>
<path d="M50.7405 104.228C49.2002 104.228 47.7806 103.87 46.482 103.156C45.1833 102.441 44.1488 101.465 43.3787 100.226C42.6237 98.972 42.2461 97.5799 42.2461 96.0484C42.2461 94.5182 42.6237 93.1329 43.3787 91.8937C44.1488 90.6398 45.1833 89.6555 46.482 88.942C47.7806 88.2272 49.2002 87.8705 50.7405 87.8705C51.9636 87.8705 53.1038 88.081 54.1608 88.5035C55.2178 88.9272 56.1013 89.5173 56.811 90.275L55.0442 91.9809C54.5157 91.4123 53.8815 90.9751 53.1415 90.6693C52.4166 90.3636 51.6088 90.2093 50.7178 90.2093C49.6758 90.2093 48.7017 90.4507 47.7957 90.9309C46.8897 91.4123 46.1649 92.0976 45.6212 92.9867C45.0776 93.8759 44.8057 94.8964 44.8057 96.0484C44.8057 97.2004 45.0776 98.221 45.6212 99.1101C46.1649 99.9993 46.8897 100.685 47.7957 101.166C48.7017 101.646 49.6833 101.888 50.7405 101.888C51.7069 101.888 52.5148 101.749 53.1641 101.472C53.8135 101.194 54.3949 100.823 54.9083 100.356C55.2406 100.035 55.52 99.6345 55.7464 99.1544C55.9881 98.6729 56.1466 98.1472 56.2222 97.5799H50.7178V95.3926H58.6232C58.6986 95.8003 58.7364 96.2241 58.7364 96.6613C58.7364 97.6523 58.5779 98.6072 58.2607 99.5259C57.9436 100.43 57.4377 101.217 56.7431 101.888C55.2178 103.447 53.217 104.228 50.7405 104.228ZM66.5603 104.228C65.3976 104.228 64.3556 103.972 63.4345 103.462C62.5133 102.936 61.796 102.223 61.2826 101.319C60.7691 100.415 60.5124 99.4092 60.5124 98.3014C60.5124 97.1923 60.7691 96.1866 61.2826 95.2827C61.796 94.3788 62.5133 93.672 63.4345 93.1624C64.3556 92.6367 65.3976 92.3752 66.5603 92.3752C67.7232 92.3752 68.7651 92.6367 69.6863 93.1624C70.6075 93.6868 71.3247 94.4016 71.8381 95.3055C72.3516 96.2094 72.6083 97.2071 72.6083 98.3014C72.6083 99.4092 72.3516 100.415 71.8381 101.319C71.3247 102.223 70.6075 102.936 69.6863 103.462C68.7651 103.972 67.7232 104.228 66.5603 104.228ZM66.5603 102.019C67.1946 102.019 67.7836 101.873 68.3272 101.582C68.8708 101.275 69.3013 100.845 69.6183 100.29C69.9506 99.7216 70.1167 99.0591 70.1167 98.3014C70.1167 97.5424 69.9506 96.8866 69.6183 96.3327C69.3013 95.7789 68.8708 95.3564 68.3272 95.0641C67.7836 94.7583 67.1946 94.6054 66.5603 94.6054C65.9262 94.6054 65.3372 94.7583 64.7936 95.0641C64.2499 95.3564 63.8121 95.7789 63.4798 96.3327C63.1626 96.8866 63.0041 97.5424 63.0041 98.3014C63.0041 99.0591 63.1626 99.7216 63.4798 100.29C63.8121 100.845 64.2499 101.275 64.7936 101.582C65.3372 101.873 65.9262 102.019 66.5603 102.019ZM80.3194 104.228C79.1566 104.228 78.1146 103.972 77.1934 103.462C76.2723 102.936 75.5551 102.223 75.0416 101.319C74.5282 100.415 74.2715 99.4092 74.2715 98.3014C74.2715 97.1923 74.5282 96.1866 75.0416 95.2827C75.5551 94.3788 76.2723 93.672 77.1934 93.1624C78.1146 92.6367 79.1566 92.3752 80.3194 92.3752C81.4821 92.3752 82.5241 92.6367 83.4453 93.1624C84.3664 93.6868 85.0838 94.4016 85.5972 95.3055C86.1106 96.2094 86.3674 97.2071 86.3674 98.3014C86.3674 99.4092 86.1106 100.415 85.5972 101.319C85.0838 102.223 84.3664 102.936 83.4453 103.462C82.5241 103.972 81.4821 104.228 80.3194 104.228ZM80.3194 102.019C80.9536 102.019 81.5426 101.873 82.0861 101.582C82.6299 101.275 83.0602 100.845 83.3774 100.29C83.7095 99.7216 83.8756 99.0591 83.8756 98.3014C83.8756 97.5424 83.7095 96.8866 83.3774 96.3327C83.0602 95.7789 82.6299 95.3564 82.0861 95.0641C81.5426 94.7583 80.9536 94.6054 80.3194 94.6054C79.6851 94.6054 79.0961 94.7583 78.5526 95.0641C78.0089 95.3564 77.571 95.7789 77.2387 96.3327C76.9217 96.8866 76.7631 97.5424 76.7631 98.3014C76.7631 99.0591 76.9217 99.7216 77.2387 100.29C77.571 100.845 78.0089 101.275 78.5526 101.582C79.0961 101.873 79.6851 102.019 80.3194 102.019ZM93.8745 108.951C92.455 108.951 91.2772 108.637 90.3409 108.01C89.4197 107.383 88.8006 106.64 88.4834 105.779L90.8165 104.839C91.0582 105.423 91.4433 105.889 91.9717 106.239C92.5154 106.603 93.1497 106.785 93.8745 106.785C94.9316 106.785 95.7545 106.479 96.3435 105.867C96.9475 105.27 97.2495 104.423 97.2495 103.33V102.303H97.1137C96.7361 102.828 96.2303 103.243 95.596 103.549C94.9769 103.84 94.2597 103.986 93.4441 103.986C92.4777 103.986 91.5792 103.746 90.7486 103.265C89.918 102.783 89.2536 102.106 88.7553 101.232C88.272 100.341 88.0304 99.3287 88.0304 98.1915C88.0304 97.0543 88.272 96.0484 88.7553 95.1741C89.2536 94.2849 89.918 93.5996 90.7486 93.1181C91.5792 92.6219 92.4777 92.3752 93.4441 92.3752C94.2445 92.3752 94.9617 92.5281 95.596 92.8338C96.2303 93.1396 96.7361 93.5554 97.1137 94.0811H97.2495V92.7252H99.628V103.265C99.628 104.474 99.3864 105.503 98.9032 106.348C98.4199 107.209 97.7403 107.857 96.8644 108.294C96.0037 108.732 95.0072 108.951 93.8745 108.951ZM93.8972 101.8C94.5012 101.8 95.06 101.661 95.5734 101.385C96.0868 101.092 96.4945 100.678 96.7965 100.137C97.0985 99.5835 97.2495 98.9345 97.2495 98.1915C97.2495 97.0543 96.9249 96.1718 96.2756 95.5455C95.6413 94.9045 94.8485 94.584 93.8972 94.584C93.2781 94.584 92.7117 94.7288 92.1983 95.0212C91.6849 95.2974 91.2772 95.7064 90.9752 96.2456C90.6732 96.7847 90.5222 97.4338 90.5222 98.1915C90.5222 98.9492 90.6732 99.5983 90.9752 100.137C91.2772 100.678 91.6849 101.092 92.1983 101.385C92.7117 101.661 93.2781 101.8 93.8972 101.8ZM102.556 88.2205H105.048V103.878H102.556V88.2205ZM113.143 104.228C112.011 104.228 110.991 103.972 110.085 103.462C109.194 102.951 108.492 102.252 107.979 101.362C107.48 100.458 107.231 99.4454 107.231 98.3229C107.231 97.2581 107.473 96.275 107.956 95.3712C108.454 94.4525 109.141 93.723 110.017 93.1839C110.893 92.6448 111.89 92.3752 113.007 92.3752C114.17 92.3752 115.174 92.6219 116.02 93.1181C116.881 93.6143 117.53 94.2916 117.968 95.1526C118.421 96.0122 118.647 96.9818 118.647 98.06C118.647 98.2639 118.625 98.52 118.579 98.8258H109.723C109.813 99.8611 110.191 100.663 110.855 101.232C111.535 101.786 112.32 102.062 113.211 102.062C113.921 102.062 114.532 101.909 115.046 101.603C115.574 101.283 115.997 100.852 116.314 100.313L118.421 101.275C117.877 102.193 117.168 102.915 116.292 103.44C115.416 103.965 114.366 104.228 113.143 104.228ZM116.111 96.9885C116.08 96.5956 115.952 96.2093 115.725 95.8298C115.499 95.4369 115.152 95.1083 114.683 94.8455C114.23 94.5839 113.672 94.4525 113.007 94.4525C112.207 94.4525 111.527 94.6859 110.969 95.1526C110.425 95.6045 110.047 96.2161 109.836 96.9885H116.111ZM126.633 88.2205H131.82C133.497 88.2205 134.961 88.5477 136.215 89.2035C137.468 89.8593 138.427 90.786 139.091 91.9809C139.771 93.1624 140.111 94.5182 140.111 96.0484C140.111 97.5799 139.771 98.9425 139.091 100.137C138.427 101.319 137.468 102.238 136.215 102.893C134.961 103.549 133.497 103.878 131.82 103.878H126.633V88.2205ZM131.775 101.537C133.587 101.537 134.999 101.056 136.011 100.094C137.038 99.1168 137.551 97.769 137.551 96.0484C137.551 94.3425 137.038 93.0015 136.011 92.0252C134.999 91.0475 133.587 90.5594 131.775 90.5594H129.17V101.537H131.775ZM147.54 104.228C146.408 104.228 145.388 103.972 144.483 103.462C143.592 102.951 142.889 102.252 142.375 101.362C141.878 100.458 141.628 99.4454 141.628 98.3229C141.628 97.2581 141.87 96.275 142.353 95.3712C142.852 94.4525 143.54 93.723 144.415 93.1839C145.291 92.6448 146.287 92.3752 147.404 92.3752C148.567 92.3752 149.571 92.6219 150.417 93.1181C151.278 93.6143 151.927 94.2916 152.365 95.1526C152.819 96.0122 153.045 96.9818 153.045 98.06C153.045 98.2639 153.022 98.52 152.977 98.8258H144.12C144.21 99.8611 144.588 100.663 145.252 101.232C145.933 101.786 146.718 102.062 147.608 102.062C148.318 102.062 148.929 101.909 149.443 101.603C149.971 101.283 150.395 100.852 150.712 100.313L152.819 101.275C152.274 102.193 151.565 102.915 150.689 103.44C149.813 103.965 148.764 104.228 147.54 104.228ZM150.507 96.9885C150.478 96.5956 150.349 96.2093 150.123 95.8298C149.896 95.4369 149.549 95.1083 149.081 94.8455C148.628 94.5839 148.07 94.4525 147.404 94.4525C146.604 94.4525 145.925 94.6859 145.366 95.1526C144.823 95.6045 144.445 96.2161 144.234 96.9885H150.507ZM153.801 92.7252H156.588L159.781 100.772H159.872L163.133 92.7252H165.852L161.05 103.878H158.559L153.801 92.7252ZM172.405 104.228C171.271 104.228 170.253 103.972 169.346 103.462C168.455 102.951 167.754 102.252 167.24 101.362C166.741 100.458 166.492 99.4454 166.492 98.3229C166.492 97.2581 166.734 96.275 167.218 95.3712C167.715 94.4525 168.402 93.723 169.278 93.1839C170.154 92.6448 171.15 92.3752 172.268 92.3752C173.431 92.3752 174.436 92.6219 175.282 93.1181C176.141 93.6143 176.792 94.2916 177.229 95.1526C177.682 96.0122 177.908 96.9818 177.908 98.06C177.908 98.2639 177.886 98.52 177.84 98.8258H168.983C169.075 99.8611 169.451 100.663 170.117 101.232C170.796 101.786 171.581 102.062 172.473 102.062C173.183 102.062 173.794 101.909 174.306 101.603C174.836 101.283 175.258 100.852 175.576 100.313L177.682 101.275C177.139 102.193 176.429 102.915 175.552 103.44C174.677 103.965 173.627 104.228 172.405 104.228ZM175.372 96.9885C175.341 96.5956 175.213 96.2093 174.987 95.8298C174.761 95.4369 174.412 95.1083 173.944 94.8455C173.491 94.5839 172.932 94.4525 172.268 94.4525C171.468 94.4525 170.789 94.6859 170.229 95.1526C169.686 95.6045 169.308 96.2161 169.097 96.9885H175.372ZM180.177 88.2205H182.669V103.878H180.177V88.2205ZM190.9 104.228C189.737 104.228 188.695 103.972 187.774 103.462C186.853 102.936 186.136 102.223 185.622 101.319C185.108 100.415 184.853 99.4092 184.853 98.3014C184.853 97.1923 185.108 96.1866 185.622 95.2827C186.136 94.3788 186.853 93.672 187.774 93.1624C188.695 92.6367 189.737 92.3752 190.9 92.3752C192.062 92.3752 193.104 92.6367 194.027 93.1624C194.948 93.6868 195.665 94.4016 196.178 95.3055C196.691 96.2094 196.948 97.2071 196.948 98.3014C196.948 99.4092 196.691 100.415 196.178 101.319C195.665 102.223 194.948 102.936 194.027 103.462C193.104 103.972 192.062 104.228 190.9 104.228ZM190.9 102.019C191.535 102.019 192.124 101.873 192.667 101.582C193.211 101.275 193.641 100.845 193.959 100.29C194.291 99.7216 194.456 99.0591 194.456 98.3014C194.456 97.5424 194.291 96.8866 193.959 96.3327C193.641 95.7789 193.211 95.3564 192.667 95.0641C192.124 94.7583 191.535 94.6054 190.9 94.6054C190.266 94.6054 189.677 94.7583 189.133 95.0641C188.59 95.3564 188.152 95.7789 187.82 96.3327C187.502 96.8866 187.344 97.5424 187.344 98.3014C187.344 99.0591 187.502 99.7216 187.82 100.29C188.152 100.845 188.59 101.275 189.133 101.582C189.677 101.873 190.266 102.019 190.9 102.019ZM199.044 92.7252H201.423V94.1897H201.536C201.868 93.6801 202.359 93.2496 203.009 92.8996C203.658 92.5495 204.39 92.3752 205.205 92.3752C206.247 92.3752 207.192 92.63 208.036 93.1396C208.882 93.6505 209.548 94.3573 210.03 95.2612C210.528 96.1503 210.778 97.1642 210.778 98.3014C210.778 99.4387 210.528 100.458 210.03 101.362C209.548 102.252 208.882 102.951 208.036 103.462C207.192 103.972 206.247 104.228 205.205 104.228C204.39 104.228 203.658 104.052 203.009 103.702C202.359 103.352 201.868 102.93 201.536 102.433H201.423L201.536 103.986V108.601H199.044V92.7252ZM204.843 102.019C205.447 102.019 206.014 101.865 206.542 101.559C207.071 101.253 207.493 100.816 207.81 100.247C208.128 99.6787 208.286 99.0296 208.286 98.3014C208.286 97.5719 208.128 96.9308 207.81 96.377C207.493 95.8083 207.071 95.3712 206.542 95.0641C206.014 94.7583 205.447 94.6054 204.843 94.6054C204.24 94.6054 203.673 94.7583 203.144 95.0641C202.631 95.3712 202.216 95.8083 201.899 96.377C201.581 96.9308 201.423 97.5719 201.423 98.3014C201.423 99.0296 201.581 99.6787 201.899 100.247C202.216 100.816 202.631 101.253 203.144 101.559C203.673 101.865 204.24 102.019 204.843 102.019ZM218.327 104.228C217.194 104.228 216.175 103.972 215.268 103.462C214.378 102.951 213.675 102.252 213.162 101.362C212.663 100.458 212.415 99.4454 212.415 98.3229C212.415 97.2581 212.657 96.275 213.14 95.3712C213.637 94.4525 214.325 93.723 215.2 93.1839C216.077 92.6448 217.073 92.3752 218.191 92.3752C219.354 92.3752 220.358 92.6219 221.203 93.1181C222.064 93.6143 222.714 94.2916 223.152 95.1526C223.604 96.0122 223.831 96.9818 223.831 98.06C223.831 98.2639 223.809 98.52 223.763 98.8258H214.906C214.997 99.8611 215.374 100.663 216.039 101.232C216.718 101.786 217.503 102.062 218.395 102.062C219.104 102.062 219.716 101.909 220.229 101.603C220.758 101.283 221.18 100.852 221.497 100.313L223.604 101.275C223.061 102.193 222.351 102.915 221.475 103.44C220.6 103.965 219.55 104.228 218.327 104.228ZM221.294 96.9885C221.264 96.5956 221.136 96.2093 220.909 95.8298C220.682 95.4369 220.334 95.1083 219.866 94.8455C219.413 94.5839 218.855 94.4525 218.191 94.4525C217.391 94.4525 216.71 94.6859 216.152 95.1526C215.608 95.6045 215.231 96.2161 215.019 96.9885H221.294ZM226.099 92.7252H228.479V94.3653H228.591C228.848 93.7967 229.294 93.3301 229.928 92.9653C230.563 92.5858 231.234 92.3966 231.943 92.3966C232.503 92.3966 232.971 92.4691 233.348 92.6152V95.1083C232.684 94.875 232.088 94.7583 231.559 94.7583C230.985 94.7583 230.471 94.9045 230.018 95.1955C229.581 95.4879 229.233 95.8808 228.976 96.377C228.719 96.8571 228.591 97.3895 228.591 97.9729V103.878H226.099V92.7252ZM244.978 104.228C243.633 104.228 242.426 103.848 241.354 103.09C240.281 102.331 239.541 101.268 239.134 99.8973L241.534 98.9572C241.776 99.8169 242.2 100.524 242.802 101.077C243.422 101.618 244.162 101.888 245.022 101.888C245.824 101.888 246.503 101.69 247.062 101.297C247.62 100.888 247.899 100.335 247.899 99.6345C247.899 98.9934 247.651 98.4691 247.152 98.06C246.668 97.6376 245.815 97.2152 244.593 96.7914L243.573 96.4427C242.486 96.0779 241.572 95.5522 240.833 94.8682C240.092 94.183 239.723 93.2791 239.723 92.1566C239.723 91.3828 239.941 90.6693 240.38 90.0135C240.817 89.3564 241.422 88.8401 242.191 88.4606C242.976 88.0663 243.86 87.8705 244.842 87.8705C246.261 87.8705 247.394 88.2058 248.24 88.8763C249.086 89.5321 249.651 90.275 249.938 91.1065L247.651 92.0466C247.484 91.5504 247.167 91.1132 246.699 90.735C246.231 90.3555 245.627 90.1664 244.888 90.1664C244.147 90.1664 243.521 90.3488 243.007 90.7122C242.508 91.077 242.259 91.5437 242.259 92.1123C242.259 92.6514 242.486 93.0967 242.939 93.4467C243.391 93.7967 244.101 94.132 245.068 94.4525L246.088 94.7798C247.477 95.2465 248.549 95.8593 249.304 96.617C250.075 97.36 250.459 98.3591 250.459 99.613C250.459 100.634 250.187 101.493 249.644 102.193C249.101 102.879 248.405 103.388 247.56 103.723C246.73 104.06 245.868 104.228 244.978 104.228ZM257.113 104.052C256.599 104.052 256.116 103.972 255.663 103.812C255.21 103.651 254.841 103.44 254.553 103.178C253.904 102.55 253.579 101.697 253.579 100.619V94.8455H251.564V92.7252H253.579V89.575H256.072V92.7252H258.88V94.8455H256.072V100.094C256.072 100.691 256.192 101.115 256.434 101.362C256.661 101.654 257.052 101.8 257.612 101.8C257.868 101.8 258.094 101.771 258.291 101.712C258.487 101.639 258.698 101.529 258.925 101.385V103.723C258.428 103.943 257.823 104.052 257.113 104.052ZM265.462 104.228C264.058 104.228 262.987 103.827 262.246 103.025C261.521 102.208 261.159 101.077 261.159 99.6345V92.7252H263.651V99.3072C263.651 100.211 263.869 100.888 264.308 101.34C264.761 101.792 265.35 102.019 266.075 102.019C266.664 102.019 267.185 101.873 267.638 101.582C268.09 101.275 268.438 100.874 268.679 100.379C268.921 99.8826 269.042 99.3502 269.042 98.7815V92.7252H271.533V103.878H269.178V102.433H269.042C268.724 102.959 268.234 103.388 267.57 103.723C266.904 104.06 266.203 104.228 265.462 104.228ZM279.261 104.228C278.219 104.228 277.275 103.972 276.429 103.462C275.584 102.951 274.911 102.252 274.414 101.362C273.93 100.458 273.689 99.4387 273.689 98.3014C273.689 97.1642 273.93 96.1503 274.414 95.2612C274.911 94.3573 275.584 93.6505 276.429 93.1396C277.275 92.63 278.219 92.3752 279.261 92.3752C280.076 92.3752 280.808 92.5495 281.458 92.8996C282.107 93.2496 282.599 93.6801 282.931 94.1897H283.043L282.931 92.6152V88.2205H285.421V103.878H283.043V102.433H282.931C282.599 102.93 282.107 103.352 281.458 103.702C280.808 104.052 280.076 104.228 279.261 104.228ZM279.623 102.019C280.227 102.019 280.786 101.865 281.3 101.559C281.828 101.253 282.251 100.816 282.568 100.247C282.885 99.6787 283.043 99.0296 283.043 98.3014C283.043 97.5719 282.885 96.9308 282.568 96.377C282.251 95.8083 281.828 95.3712 281.3 95.0641C280.786 94.7583 280.227 94.6054 279.623 94.6054C279.019 94.6054 278.453 94.7583 277.924 95.0641C277.396 95.3712 276.973 95.8083 276.656 96.377C276.339 96.9308 276.181 97.5719 276.181 98.3014C276.181 99.0296 276.339 99.6787 276.656 100.247C276.973 100.816 277.396 101.253 277.924 101.559C278.453 101.865 279.019 102.019 279.623 102.019ZM293.492 104.228C292.36 104.228 291.341 103.972 290.435 103.462C289.543 102.951 288.842 102.252 288.328 101.362C287.829 100.458 287.58 99.4454 287.58 98.3229C287.58 97.2581 287.822 96.275 288.305 95.3712C288.804 94.4525 289.49 93.723 290.367 93.1839C291.242 92.6448 292.239 92.3752 293.356 92.3752C294.519 92.3752 295.523 92.6219 296.369 93.1181C297.229 93.6143 297.879 94.2916 298.317 95.1526C298.77 96.0122 298.996 96.9818 298.996 98.06C298.996 98.2639 298.974 98.52 298.928 98.8258H290.072C290.163 99.8611 290.54 100.663 291.204 101.232C291.884 101.786 292.669 102.062 293.56 102.062C294.27 102.062 294.882 101.909 295.396 101.603C295.923 101.283 296.346 100.852 296.664 100.313L298.77 101.275C298.227 102.193 297.517 102.915 296.64 103.44C295.765 103.965 294.715 104.228 293.492 104.228ZM296.46 96.9885C296.429 96.5956 296.301 96.2093 296.075 95.8298C295.848 95.4369 295.501 95.1083 295.033 94.8455C294.58 94.5839 294.02 94.4525 293.356 94.4525C292.556 94.4525 291.877 94.6859 291.318 95.1526C290.774 95.6045 290.396 96.2161 290.185 96.9885H296.46ZM301.266 92.7252H303.644V94.1897H303.757C304.089 93.6653 304.581 93.2348 305.229 92.8996C305.895 92.5495 306.596 92.3752 307.337 92.3752C308.741 92.3752 309.805 92.7762 310.53 93.5768C311.269 94.3654 311.64 95.4436 311.64 96.8142V103.878H309.148V97.1414C309.148 96.267 308.922 95.626 308.469 95.2169C308.031 94.8093 307.419 94.6054 306.634 94.6054C306.075 94.6054 305.577 94.7583 305.139 95.0641C304.701 95.3564 304.361 95.7494 304.119 96.2456C303.878 96.7404 303.757 97.2728 303.757 97.8414V103.878H301.266V92.7252ZM318.608 104.052C318.096 104.052 317.612 103.972 317.159 103.812C316.706 103.651 316.336 103.44 316.049 103.178C315.399 102.55 315.074 101.697 315.074 100.619V94.8455H313.059V92.7252H315.074V89.575H317.566V92.7252H320.375V94.8455H317.566V100.094C317.566 100.691 317.687 101.115 317.929 101.362C318.155 101.654 318.548 101.8 319.107 101.8C319.364 101.8 319.59 101.771 319.786 101.712C319.982 101.639 320.195 101.529 320.421 101.385V103.723C319.922 103.943 319.318 104.052 318.608 104.052ZM335.675 104.228C334.104 104.228 332.671 103.87 331.372 103.156C330.073 102.441 329.053 101.457 328.313 100.203C327.574 98.9492 327.203 97.5652 327.203 96.0484C327.203 94.533 327.574 93.1477 328.313 91.8937C329.053 90.6398 330.073 89.6555 331.372 88.942C332.671 88.2272 334.104 87.8705 335.675 87.8705C336.898 87.8705 338.008 88.0891 339.005 88.5263C340.016 88.9635 340.908 89.5978 341.678 90.428L339.866 92.1123C339.306 91.4713 338.688 90.9965 338.008 90.6908C337.328 90.3703 336.55 90.2093 335.675 90.2093C334.588 90.2093 333.592 90.4507 332.686 90.9309C331.794 91.4123 331.084 92.0976 330.556 92.9867C330.027 93.8611 329.763 94.8817 329.763 96.0484C329.763 97.2152 330.027 98.2424 330.556 99.1316C331.084 100.006 331.794 100.685 332.686 101.166C333.592 101.646 334.588 101.888 335.675 101.888C337.487 101.888 339.027 101.158 340.296 99.7002L342.131 101.406C341.346 102.295 340.401 102.989 339.3 103.483C338.197 103.98 336.989 104.228 335.675 104.228ZM344.334 88.2205H346.826V103.878H344.334V88.2205ZM353.968 104.228C352.563 104.228 351.491 103.827 350.75 103.025C350.025 102.208 349.664 101.077 349.664 99.6345V92.7252H352.155V99.3072C352.155 100.211 352.374 100.888 352.812 101.34C353.265 101.792 353.854 102.019 354.579 102.019C355.168 102.019 355.689 101.873 356.142 101.582C356.594 101.275 356.942 100.874 357.183 100.379C357.425 99.8826 357.546 99.3502 357.546 98.7815V92.7252H360.038V103.878H357.682V102.433H357.546C357.229 102.959 356.738 103.388 356.073 103.723C355.409 104.06 354.707 104.228 353.968 104.228ZM369.1 104.228C368.284 104.228 367.551 104.052 366.902 103.702C366.252 103.352 365.761 102.93 365.429 102.433H365.317V103.878H362.937V88.2205H365.429V92.6152L365.317 94.1897H365.429C365.761 93.6801 366.252 93.2496 366.902 92.8996C367.551 92.5495 368.284 92.3752 369.1 92.3752C370.141 92.3752 371.085 92.63 371.931 93.1396C372.777 93.6505 373.441 94.3573 373.924 95.2612C374.423 96.1503 374.671 97.1642 374.671 98.3014C374.671 99.4387 374.423 100.458 373.924 101.362C373.441 102.252 372.777 102.951 371.931 103.462C371.085 103.972 370.141 104.228 369.1 104.228ZM368.737 102.019C369.341 102.019 369.907 101.865 370.436 101.559C370.964 101.253 371.387 100.816 371.704 100.247C372.021 99.6787 372.179 99.0296 372.179 98.3014C372.179 97.5719 372.021 96.9308 371.704 96.377C371.387 95.8083 370.964 95.3712 370.436 95.0641C369.907 94.7583 369.341 94.6054 368.737 94.6054C368.133 94.6054 367.566 94.7583 367.038 95.0641C366.524 95.3712 366.109 95.8083 365.792 96.377C365.475 96.9308 365.317 97.5719 365.317 98.3014C365.317 99.0296 365.475 99.6787 365.792 100.247C366.109 100.816 366.524 101.253 367.038 101.559C367.566 101.865 368.133 102.019 368.737 102.019ZM381.042 104.228C379.714 104.228 378.626 103.95 377.78 103.396C376.936 102.828 376.338 102.106 375.991 101.232L378.211 100.29C378.483 100.874 378.861 101.319 379.344 101.625C379.842 101.93 380.409 102.085 381.042 102.085C381.662 102.085 382.183 101.981 382.606 101.778C383.028 101.559 383.24 101.238 383.24 100.816C383.24 100.407 383.059 100.086 382.696 99.8531C382.334 99.6197 381.775 99.4159 381.02 99.2416L379.638 98.913C378.717 98.6944 377.954 98.3081 377.351 97.7543C376.747 97.2004 376.444 96.5004 376.444 95.6555C376.444 94.9983 376.641 94.423 377.033 93.9268C377.441 93.432 377.985 93.0524 378.664 92.7896C379.344 92.5133 380.084 92.3752 380.884 92.3752C381.956 92.3752 382.901 92.5857 383.716 93.0095C384.532 93.4172 385.121 94.0153 385.482 94.8026L383.308 95.7199C382.87 94.8602 382.07 94.4297 380.907 94.4297C380.347 94.4297 379.879 94.5397 379.503 94.7583C379.125 94.9769 378.936 95.2612 378.936 95.6112C378.936 95.9465 379.079 96.2241 379.367 96.4427C379.653 96.6465 380.077 96.8209 380.635 96.9671L382.334 97.3828C383.466 97.659 384.319 98.0828 384.893 98.6501C385.482 99.2053 385.776 99.8906 385.776 100.706C385.776 101.406 385.565 102.026 385.143 102.565C384.734 103.09 384.169 103.498 383.444 103.789C382.719 104.082 381.919 104.228 381.042 104.228Z" fill="#242424"/>
<path d="M222.46 53.7331L241.097 43.3448C243.695 41.897 247.017 42.7562 248.516 45.2638C250.016 47.7715 249.126 50.9781 246.528 52.4259L227.89 62.8143C225.293 64.2621 221.971 63.4029 220.472 60.8952C218.972 58.3875 219.862 55.1809 222.46 53.7331Z" fill="#FBBC04"/>
<path d="M209.224 41.9809L190.586 52.3692C187.989 53.817 184.667 52.9578 183.167 50.4501C181.668 47.9425 182.558 44.7359 185.155 43.2881L203.793 32.8997C206.391 31.4519 209.712 32.3111 211.212 34.8188C212.712 37.3265 211.822 40.5331 209.224 41.9809Z" fill="#EA4335"/>
<path d="M208.765 53.7319L190.127 43.3436C187.53 41.8957 184.208 42.755 182.708 45.2626C181.209 47.7703 182.099 50.9769 184.696 52.4247L203.334 62.8131C205.932 64.2609 209.253 63.4017 210.753 60.894C212.253 58.3863 211.363 55.1797 208.765 53.7319Z" fill="#4285F4"/>
<path d="M222.143 41.8047L241.414 52.5458C243.837 53.8962 246.935 53.0949 248.334 50.7559L248.699 50.1449C250.098 47.8059 249.268 44.8151 246.845 43.4647L227.574 32.7236C225.151 31.3732 222.053 32.1746 220.654 34.5135L220.289 35.1245C218.89 37.4635 219.72 40.4543 222.143 41.8047Z" fill="#0F9D58"/>
<path d="M47.3301 122.457H48.6136V133.019H47.3301V122.457ZM50.8009 125.496H52.0386V126.602H52.0997C52.3136 126.229 52.655 125.914 53.1235 125.658C53.5921 125.392 54.0913 125.26 54.621 125.26C55.5583 125.26 56.2713 125.525 56.7603 126.056C57.2594 126.578 57.5091 127.291 57.5091 128.195V133.019H56.2102V128.387C56.2102 127.69 56.037 127.183 55.6907 126.868C55.3443 126.554 54.8706 126.395 54.2696 126.395C53.8518 126.395 53.475 126.51 53.1388 126.735C52.8128 126.961 52.5581 127.262 52.3748 127.635C52.1914 127.999 52.0997 128.383 52.0997 128.785V133.019H50.8009V125.496ZM62.667 133.255C61.9743 133.255 61.3427 133.083 60.7722 132.739C60.2119 132.396 59.7688 131.923 59.4427 131.323C59.1169 130.714 58.9538 130.024 58.9538 129.257C58.9538 128.501 59.1169 127.817 59.4427 127.207C59.7688 126.598 60.2119 126.121 60.7722 125.776C61.3427 125.433 61.9743 125.26 62.667 125.26C63.268 125.26 63.8029 125.392 64.2714 125.658C64.7401 125.914 65.0966 126.233 65.3411 126.617H65.4022L65.3411 125.569V122.457H66.6399V133.019H65.4022V131.913H65.3411C65.0966 132.287 64.7401 132.606 64.2714 132.872C63.8029 133.128 63.268 133.255 62.667 133.255ZM62.8198 132.119C63.2782 132.119 63.701 132.001 64.0881 131.765C64.4854 131.529 64.8012 131.195 65.0355 130.762C65.2799 130.33 65.4022 129.829 65.4022 129.257C65.4022 128.687 65.2799 128.186 65.0355 127.753C64.8012 127.321 64.4854 126.986 64.0881 126.75C63.701 126.514 63.2782 126.395 62.8198 126.395C62.3716 126.395 61.9488 126.514 61.5515 126.75C61.1542 126.986 60.8333 127.325 60.5888 127.767C60.3546 128.201 60.2373 128.697 60.2373 129.257C60.2373 129.818 60.3546 130.32 60.5888 130.762C60.8333 131.195 61.1542 131.529 61.5515 131.765C61.9488 132.001 62.3716 132.119 62.8198 132.119ZM69.3226 124.109C69.068 124.109 68.8489 124.02 68.6656 123.843C68.4822 123.666 68.3905 123.456 68.3905 123.209C68.3905 122.964 68.4822 122.757 68.6656 122.59C68.8489 122.412 69.068 122.324 69.3226 122.324C69.5773 122.324 69.7963 122.412 69.9797 122.59C70.1631 122.757 70.2548 122.964 70.2548 123.209C70.2548 123.456 70.1631 123.666 69.9797 123.843C69.8065 124.02 69.5875 124.109 69.3226 124.109ZM68.6809 125.496H69.9644V133.019H68.6809V125.496ZM74.4218 133.255C73.8514 133.255 73.342 133.148 72.8937 132.931C72.4456 132.715 72.0991 132.42 71.8546 132.045C71.6101 131.662 71.4879 131.23 71.4879 130.747C71.4879 129.951 71.7987 129.331 72.42 128.889C73.0415 128.437 73.8258 128.21 74.7732 128.21C75.2419 128.21 75.6748 128.26 76.0721 128.358C76.4797 128.457 76.7903 128.569 77.0042 128.697V128.239C77.0042 127.679 76.8006 127.232 76.393 126.897C75.9855 126.554 75.4711 126.381 74.8496 126.381C74.4116 126.381 74.0092 126.475 73.6425 126.661C73.2757 126.838 72.9854 127.089 72.7715 127.413L71.7935 126.705C72.0991 126.253 72.5168 125.899 73.0465 125.643C73.5865 125.388 74.1824 125.26 74.8344 125.26C75.8939 125.26 76.7242 125.53 77.3251 126.071C77.9363 126.602 78.2419 127.33 78.2419 128.254V133.019H77.0042V131.942H76.9431C76.719 132.307 76.3828 132.617 75.9346 132.872C75.4864 133.128 74.9822 133.255 74.4218 133.255ZM74.544 132.149C74.9822 132.149 75.3896 132.041 75.7665 131.824C76.1435 131.608 76.444 131.319 76.668 130.954C76.8922 130.59 77.0042 130.192 77.0042 129.759C76.7597 129.602 76.4592 129.475 76.1026 129.375C75.7462 129.277 75.3692 129.228 74.9719 129.228C74.2588 129.228 73.7189 129.371 73.3521 129.656C72.9957 129.941 72.8173 130.31 72.8173 130.762C72.8173 131.175 72.9804 131.51 73.3063 131.765C73.6323 132.021 74.0449 132.149 74.544 132.149ZM80.0489 125.496H81.2867V126.602H81.3478C81.5617 126.229 81.903 125.914 82.3716 125.658C82.8402 125.392 83.3394 125.26 83.8691 125.26C84.8064 125.26 85.5194 125.525 86.0084 126.056C86.5075 126.578 86.7571 127.291 86.7571 128.195V133.019H85.4583V128.387C85.4583 127.69 85.2851 127.183 84.9387 126.868C84.5924 126.554 84.1187 126.395 83.5176 126.395C83.0999 126.395 82.723 126.51 82.3869 126.735C82.0608 126.961 81.8062 127.262 81.6228 127.635C81.4395 127.999 81.3478 128.383 81.3478 128.785V133.019H80.0489V125.496ZM92.4258 122.457H93.7094V133.019H92.4258V122.457ZM95.8966 125.496H97.1343V126.602H97.1955C97.4094 126.229 97.7507 125.914 98.2193 125.658C98.6878 125.392 99.1871 125.26 99.7168 125.26C100.654 125.26 101.367 125.525 101.856 126.056C102.355 126.578 102.605 127.291 102.605 128.195V133.019H101.306V128.387C101.306 127.69 101.133 127.183 100.786 126.868C100.44 126.554 99.9664 126.395 99.3653 126.395C98.9476 126.395 98.5707 126.51 98.2345 126.735C97.9085 126.961 97.6539 127.262 97.4705 127.635C97.2871 127.999 97.1955 128.383 97.1955 128.785V133.019H95.8966V125.496ZM107.107 133.255C106.272 133.255 105.574 133.069 105.014 132.695C104.454 132.311 104.056 131.824 103.822 131.234L104.983 130.733C105.177 131.186 105.462 131.535 105.839 131.78C106.226 132.027 106.649 132.149 107.107 132.149C107.596 132.149 108.014 132.056 108.36 131.868C108.707 131.673 108.88 131.396 108.88 131.042C108.88 130.729 108.742 130.478 108.467 130.29C108.192 130.094 107.759 129.927 107.169 129.788L106.221 129.552C105.6 129.405 105.09 129.154 104.693 128.8C104.296 128.446 104.097 127.989 104.097 127.428C104.097 126.996 104.23 126.617 104.494 126.292C104.77 125.958 105.131 125.702 105.579 125.525C106.028 125.348 106.511 125.26 107.031 125.26C107.714 125.26 108.32 125.403 108.849 125.687C109.389 125.973 109.771 126.371 109.995 126.882L108.865 127.384C108.518 126.716 107.902 126.381 107.016 126.381C106.588 126.381 106.211 126.48 105.885 126.676C105.569 126.864 105.411 127.104 105.411 127.399C105.411 127.675 105.523 127.9 105.747 128.077C105.972 128.245 106.308 128.383 106.756 128.49L107.887 128.771C108.651 128.958 109.226 129.239 109.613 129.611C110.001 129.976 110.194 130.423 110.194 130.954C110.194 131.417 110.057 131.824 109.782 132.178C109.507 132.523 109.135 132.788 108.666 132.975C108.198 133.163 107.678 133.255 107.107 133.255ZM114.53 133.137C114.215 133.137 113.919 133.089 113.644 132.99C113.379 132.892 113.155 132.759 112.972 132.591C112.768 132.405 112.615 132.189 112.513 131.942C112.411 131.697 112.361 131.396 112.361 131.042V126.632H111.001V125.496H112.361V123.371H113.659V125.496H115.554V126.632H113.659V130.733C113.659 131.146 113.741 131.451 113.904 131.647C114.097 131.864 114.378 131.972 114.744 131.972C115.04 131.972 115.325 131.889 115.6 131.721V132.945C115.447 133.015 115.289 133.063 115.126 133.093C114.973 133.122 114.775 133.137 114.53 133.137ZM117.97 124.109C117.715 124.109 117.496 124.02 117.313 123.843C117.129 123.666 117.038 123.456 117.038 123.209C117.038 122.964 117.129 122.757 117.313 122.59C117.496 122.412 117.715 122.324 117.97 122.324C118.225 122.324 118.444 122.412 118.627 122.59C118.81 122.757 118.902 122.964 118.902 123.209C118.902 123.456 118.81 123.666 118.627 123.843C118.454 124.02 118.235 124.109 117.97 124.109ZM117.328 125.496H118.612V133.019H117.328V125.496ZM123.573 133.137C123.258 133.137 122.962 133.089 122.687 132.99C122.422 132.892 122.198 132.759 122.015 132.591C121.811 132.405 121.658 132.189 121.556 131.942C121.454 131.697 121.404 131.396 121.404 131.042V126.632H120.044V125.496H121.404V123.371H122.702V125.496H124.597V126.632H122.702V130.733C122.702 131.146 122.784 131.451 122.947 131.647C123.14 131.864 123.421 131.972 123.787 131.972C124.083 131.972 124.368 131.889 124.643 131.721V132.945C124.49 133.015 124.332 133.063 124.169 133.093C124.017 133.122 123.818 133.137 123.573 133.137ZM129.001 133.255C128.064 133.255 127.346 132.99 126.847 132.459C126.358 131.927 126.113 131.186 126.113 130.231V125.496H127.412V130.039C127.412 130.758 127.58 131.284 127.916 131.618C128.252 131.953 128.706 132.119 129.276 132.119C129.714 132.119 130.101 132.007 130.438 131.78C130.784 131.555 131.049 131.26 131.232 130.895C131.426 130.531 131.523 130.148 131.523 129.744V125.496H132.821V133.019H131.584V131.927H131.523C131.309 132.302 130.967 132.617 130.499 132.872C130.03 133.128 129.531 133.255 129.001 133.255ZM137.809 133.137C137.494 133.137 137.198 133.089 136.923 132.99C136.658 132.892 136.434 132.759 136.251 132.591C136.047 132.405 135.894 132.189 135.792 131.942C135.691 131.697 135.64 131.396 135.64 131.042V126.632H134.28V125.496H135.64V123.371H136.938V125.496H138.833V126.632H136.938V130.733C136.938 131.146 137.02 131.451 137.183 131.647C137.377 131.864 137.657 131.972 138.023 131.972C138.319 131.972 138.604 131.889 138.879 131.721V132.945C138.726 133.015 138.568 133.063 138.405 133.093C138.253 133.122 138.054 133.137 137.809 133.137ZM143.536 133.255C142.792 133.255 142.125 133.083 141.534 132.739C140.943 132.396 140.48 131.923 140.144 131.323C139.817 130.714 139.655 130.03 139.655 129.272C139.655 128.545 139.808 127.876 140.113 127.266C140.429 126.657 140.872 126.17 141.443 125.805C142.012 125.442 142.675 125.26 143.429 125.26C144.193 125.26 144.854 125.427 145.416 125.761C145.975 126.086 146.403 126.539 146.699 127.118C147.005 127.699 147.158 128.363 147.158 129.11C147.158 129.257 147.142 129.386 147.112 129.493H140.954C140.984 130.065 141.126 130.546 141.382 130.939C141.636 131.333 141.957 131.628 142.344 131.824C142.742 132.021 143.154 132.119 143.582 132.119C144.579 132.119 145.349 131.667 145.889 130.762L146.99 131.278C146.653 131.889 146.195 132.37 145.614 132.724C145.043 133.078 144.35 133.255 143.536 133.255ZM145.782 128.461C145.762 128.147 145.67 127.832 145.507 127.517C145.343 127.203 145.084 126.937 144.728 126.72C144.381 126.504 143.943 126.395 143.414 126.395C142.803 126.395 142.283 126.587 141.855 126.971C141.437 127.345 141.162 127.841 141.03 128.461H145.782ZM155.82 133.255C155.056 133.255 154.369 133.078 153.758 132.724C153.146 132.37 152.667 131.889 152.321 131.278C151.985 130.67 151.817 129.995 151.817 129.257C151.817 128.52 151.985 127.847 152.321 127.236C152.667 126.628 153.146 126.145 153.758 125.791C154.369 125.437 155.056 125.26 155.82 125.26C156.584 125.26 157.272 125.437 157.883 125.791C158.494 126.145 158.968 126.628 159.304 127.236C159.65 127.847 159.824 128.52 159.824 129.257C159.824 129.995 159.65 130.67 159.304 131.278C158.968 131.889 158.494 132.37 157.883 132.724C157.272 133.078 156.584 133.255 155.82 133.255ZM155.82 132.119C156.298 132.119 156.741 132.007 157.15 131.78C157.567 131.544 157.899 131.21 158.143 130.777C158.397 130.345 158.525 129.838 158.525 129.257C158.525 128.678 158.397 128.171 158.143 127.738C157.899 127.306 157.567 126.976 157.15 126.75C156.741 126.514 156.298 126.395 155.82 126.395C155.341 126.395 154.892 126.514 154.476 126.75C154.058 126.976 153.721 127.306 153.467 127.738C153.223 128.171 153.1 128.678 153.1 129.257C153.1 129.838 153.223 130.345 153.467 130.777C153.721 131.21 154.058 131.544 154.476 131.78C154.892 132.007 155.341 132.119 155.82 132.119ZM162.009 126.632H160.573V125.496H162.009V124.684C162.009 124.212 162.122 123.799 162.345 123.445C162.57 123.091 162.87 122.822 163.247 122.634C163.625 122.438 164.041 122.339 164.5 122.339C164.939 122.339 165.321 122.398 165.646 122.516V123.74C165.462 123.672 165.29 123.618 165.126 123.578C164.964 123.53 164.771 123.504 164.546 123.504C164.209 123.504 163.919 123.622 163.675 123.858C163.43 124.085 163.308 124.404 163.308 124.817V125.496H165.31V126.632H163.308V133.019H162.009V126.632ZM170.709 122.457H171.993V133.019H170.709V122.457ZM174.179 125.496H175.417V126.602H175.478C175.692 126.229 176.034 125.914 176.502 125.658C176.972 125.392 177.47 125.26 178 125.26C178.937 125.26 179.65 125.525 180.139 126.056C180.639 126.578 180.888 127.291 180.888 128.195V133.019H179.589V128.387C179.589 127.69 179.416 127.183 179.069 126.868C178.723 126.554 178.25 126.395 177.648 126.395C177.231 126.395 176.853 126.51 176.517 126.735C176.192 126.961 175.937 127.262 175.753 127.635C175.57 127.999 175.478 128.383 175.478 128.785V133.019H174.179V125.496ZM183.498 126.632H182.061V125.496H183.498V124.684C183.498 124.212 183.61 123.799 183.834 123.445C184.058 123.091 184.359 122.822 184.735 122.634C185.112 122.438 185.53 122.339 185.989 122.339C186.426 122.339 186.808 122.398 187.135 122.516V123.74C186.951 123.672 186.778 123.618 186.615 123.578C186.452 123.53 186.258 123.504 186.034 123.504C185.698 123.504 185.408 123.622 185.163 123.858C184.919 124.085 184.797 124.404 184.797 124.817V125.496H186.798V126.632H184.797V133.019H183.498V126.632ZM191.499 133.255C190.735 133.255 190.048 133.078 189.436 132.724C188.825 132.37 188.347 131.889 188 131.278C187.664 130.67 187.496 129.995 187.496 129.257C187.496 128.52 187.664 127.847 188 127.236C188.347 126.628 188.825 126.145 189.436 125.791C190.048 125.437 190.735 125.26 191.499 125.26C192.263 125.26 192.951 125.437 193.562 125.791C194.173 126.145 194.647 126.628 194.983 127.236C195.331 127.847 195.503 128.52 195.503 129.257C195.503 129.995 195.331 130.67 194.983 131.278C194.647 131.889 194.173 132.37 193.562 132.724C192.951 133.078 192.263 133.255 191.499 133.255ZM191.499 132.119C191.979 132.119 192.422 132.007 192.829 131.78C193.247 131.544 193.577 131.21 193.822 130.777C194.077 130.345 194.204 129.838 194.204 129.257C194.204 128.678 194.077 128.171 193.822 127.738C193.577 127.306 193.247 126.976 192.829 126.75C192.422 126.514 191.979 126.395 191.499 126.395C191.021 126.395 190.573 126.514 190.155 126.75C189.738 126.976 189.402 127.306 189.146 127.738C188.902 128.171 188.779 128.678 188.779 129.257C188.779 129.838 188.902 130.345 189.146 130.777C189.402 131.21 189.738 131.544 190.155 131.78C190.573 132.007 191.021 132.119 191.499 132.119ZM196.863 125.496H198.1V126.705H198.162C198.314 126.292 198.609 125.953 199.048 125.687C199.485 125.412 199.944 125.274 200.423 125.274C200.779 125.274 201.084 125.324 201.34 125.422V126.779C201.014 126.622 200.647 126.543 200.24 126.543C199.862 126.543 199.516 126.646 199.201 126.853C198.884 127.059 198.63 127.34 198.437 127.694C198.253 128.038 198.162 128.412 198.162 128.815V133.019H196.863V125.496ZM202.593 125.496H203.831V126.602H203.892C204.115 126.218 204.452 125.899 204.9 125.643C205.348 125.388 205.821 125.26 206.321 125.26C206.891 125.26 207.386 125.392 207.804 125.658C208.232 125.923 208.537 126.277 208.721 126.72C208.996 126.277 209.357 125.923 209.805 125.658C210.264 125.392 210.793 125.26 211.395 125.26C212.291 125.26 212.963 125.525 213.412 126.056C213.87 126.578 214.099 127.291 214.099 128.195V133.019H212.816V128.387C212.816 127.69 212.667 127.183 212.373 126.868C212.077 126.554 211.639 126.395 211.058 126.395C210.671 126.395 210.319 126.504 210.004 126.72C209.687 126.937 209.439 127.227 209.255 127.59C209.082 127.955 208.996 128.348 208.996 128.771V133.019H207.697V128.402C207.697 127.694 207.548 127.183 207.254 126.868C206.958 126.554 206.524 126.395 205.955 126.395C205.567 126.395 205.216 126.51 204.9 126.735C204.584 126.952 204.335 127.247 204.152 127.62C203.978 127.985 203.892 128.378 203.892 128.8V133.019H202.593V125.496ZM218.379 133.255C217.808 133.255 217.298 133.148 216.851 132.931C216.402 132.715 216.057 132.42 215.812 132.045C215.568 131.662 215.445 131.23 215.445 130.747C215.445 129.951 215.755 129.331 216.377 128.889C216.998 128.437 217.783 128.21 218.731 128.21C219.199 128.21 219.632 128.26 220.03 128.358C220.437 128.457 220.748 128.569 220.962 128.697V128.239C220.962 127.679 220.757 127.232 220.35 126.897C219.942 126.554 219.428 126.381 218.807 126.381C218.368 126.381 217.967 126.475 217.6 126.661C217.233 126.838 216.943 127.089 216.729 127.413L215.751 126.705C216.057 126.253 216.473 125.899 217.004 125.643C217.543 125.388 218.139 125.26 218.792 125.26C219.85 125.26 220.681 125.53 221.283 126.071C221.894 126.602 222.199 127.33 222.199 128.254V133.019H220.962V131.942H220.901C220.675 132.307 220.339 132.617 219.892 132.872C219.443 133.128 218.939 133.255 218.379 133.255ZM218.501 132.149C218.939 132.149 219.346 132.041 219.724 131.824C220.1 131.608 220.4 131.319 220.625 130.954C220.849 130.59 220.962 130.192 220.962 129.759C220.717 129.602 220.416 129.475 220.06 129.375C219.703 129.277 219.327 129.228 218.929 129.228C218.215 129.228 217.676 129.371 217.31 129.656C216.953 129.941 216.775 130.31 216.775 130.762C216.775 131.175 216.937 131.51 217.264 131.765C217.589 132.021 218.001 132.149 218.501 132.149ZM226.852 133.137C226.536 133.137 226.24 133.089 225.965 132.99C225.7 132.892 225.476 132.759 225.293 132.591C225.089 132.405 224.936 132.189 224.835 131.942C224.733 131.697 224.682 131.396 224.682 131.042V126.632H223.322V125.496H224.682V123.371H225.981V125.496H227.875V126.632H225.981V130.733C225.981 131.146 226.063 131.451 226.225 131.647C226.418 131.864 226.699 131.972 227.066 131.972C227.361 131.972 227.646 131.889 227.921 131.721V132.945C227.768 133.015 227.61 133.063 227.448 133.093C227.295 133.122 227.096 133.137 226.852 133.137ZM230.291 124.109C230.037 124.109 229.817 124.02 229.634 123.843C229.451 123.666 229.359 123.456 229.359 123.209C229.359 122.964 229.451 122.757 229.634 122.59C229.817 122.412 230.037 122.324 230.291 122.324C230.547 122.324 230.765 122.412 230.948 122.59C231.132 122.757 231.223 122.964 231.223 123.209C231.223 123.456 231.132 123.666 230.948 123.843C230.776 124.02 230.557 124.109 230.291 124.109ZM229.649 125.496H230.933V133.019H229.649V125.496ZM236.491 133.255C235.727 133.255 235.039 133.078 234.428 132.724C233.817 132.37 233.338 131.889 232.992 131.278C232.656 130.67 232.487 129.995 232.487 129.257C232.487 128.52 232.656 127.847 232.992 127.236C233.338 126.628 233.817 126.145 234.428 125.791C235.039 125.437 235.727 125.26 236.491 125.26C237.255 125.26 237.943 125.437 238.554 125.791C239.165 126.145 239.639 126.628 239.975 127.236C240.321 127.847 240.494 128.52 240.494 129.257C240.494 129.995 240.321 130.67 239.975 131.278C239.639 131.889 239.165 132.37 238.554 132.724C237.943 133.078 237.255 133.255 236.491 133.255ZM236.491 132.119C236.97 132.119 237.413 132.007 237.82 131.78C238.238 131.544 238.569 131.21 238.814 130.777C239.068 130.345 239.196 129.838 239.196 129.257C239.196 128.678 239.068 128.171 238.814 127.738C238.569 127.306 238.238 126.976 237.82 126.75C237.413 126.514 236.97 126.395 236.491 126.395C236.012 126.395 235.564 126.514 235.146 126.75C234.728 126.976 234.392 127.306 234.138 127.738C233.893 128.171 233.771 128.678 233.771 129.257C233.771 129.838 233.893 130.345 234.138 130.777C234.392 131.21 234.728 131.544 235.146 131.78C235.564 132.007 236.012 132.119 236.491 132.119ZM241.853 125.496H243.091V126.602H243.152C243.366 126.229 243.708 125.914 244.176 125.658C244.645 125.392 245.144 125.26 245.673 125.26C246.611 125.26 247.324 125.525 247.812 126.056C248.313 126.578 248.561 127.291 248.561 128.195V133.019H247.262V128.387C247.262 127.69 247.09 127.183 246.743 126.868C246.397 126.554 245.923 126.395 245.322 126.395C244.905 126.395 244.527 126.51 244.191 126.735C243.866 126.961 243.61 127.262 243.427 127.635C243.244 127.999 243.152 128.383 243.152 128.785V133.019H241.853V125.496ZM255.864 123.652H252.793V122.457H260.219V123.652H257.163V133.019H255.864V123.652ZM263.84 133.255C263.097 133.255 262.43 133.083 261.839 132.739C261.248 132.396 260.784 131.923 260.448 131.323C260.123 130.714 259.959 130.03 259.959 129.272C259.959 128.545 260.112 127.876 260.418 127.266C260.734 126.657 261.177 126.17 261.747 125.805C262.318 125.442 262.981 125.26 263.733 125.26C264.498 125.26 265.16 125.427 265.72 125.761C266.281 126.086 266.709 126.539 267.004 127.118C267.309 127.699 267.462 128.363 267.462 129.11C267.462 129.257 267.447 129.386 267.416 129.493H261.258C261.289 130.065 261.432 130.546 261.686 130.939C261.942 131.333 262.262 131.628 262.649 131.824C263.046 132.021 263.458 132.119 263.886 132.119C264.885 132.119 265.655 131.667 266.194 130.762L267.294 131.278C266.958 131.889 266.499 132.37 265.919 132.724C265.349 133.078 264.656 133.255 263.84 133.255ZM266.087 128.461C266.067 128.147 265.976 127.832 265.812 127.517C265.649 127.203 265.389 126.937 265.032 126.72C264.686 126.504 264.249 126.395 263.718 126.395C263.107 126.395 262.587 126.587 262.16 126.971C261.743 127.345 261.468 127.841 261.334 128.461H266.087ZM272.587 133.255C271.834 133.255 271.156 133.083 270.554 132.739C269.954 132.385 269.485 131.909 269.148 131.308C268.812 130.699 268.644 130.015 268.644 129.257C268.644 128.501 268.812 127.817 269.148 127.207C269.485 126.598 269.954 126.121 270.554 125.776C271.156 125.433 271.834 125.26 272.587 125.26C273.433 125.26 274.141 125.451 274.711 125.835C275.291 126.209 275.704 126.711 275.948 127.34L274.772 127.812C274.579 127.35 274.288 127 273.901 126.764C273.524 126.519 273.066 126.395 272.525 126.395C272.067 126.395 271.639 126.519 271.242 126.764C270.845 127 270.524 127.336 270.279 127.767C270.046 128.201 269.928 128.697 269.928 129.257C269.928 129.818 270.046 130.315 270.279 130.747C270.524 131.18 270.845 131.52 271.242 131.765C271.639 132.001 272.067 132.119 272.525 132.119C273.076 132.119 273.549 131.997 273.947 131.75C274.344 131.505 274.64 131.156 274.833 130.703L275.994 131.175C275.73 131.795 275.302 132.296 274.711 132.68C274.13 133.063 273.423 133.255 272.587 133.255ZM277.399 122.457H278.697V125.569L278.636 126.602H278.697C278.911 126.218 279.247 125.899 279.706 125.643C280.174 125.388 280.684 125.26 281.234 125.26C282.181 125.26 282.905 125.53 283.404 126.071C283.903 126.602 284.153 127.31 284.153 128.195V133.019H282.854V128.387C282.854 127.708 282.676 127.207 282.319 126.882C281.962 126.558 281.499 126.395 280.928 126.395C280.521 126.395 280.144 126.514 279.798 126.75C279.461 126.986 279.192 127.291 278.988 127.664C278.795 128.038 278.697 128.427 278.697 128.83V133.019H277.399V122.457ZM286.024 125.496H287.262V126.602H287.323C287.537 126.229 287.878 125.914 288.346 125.658C288.815 125.392 289.315 125.26 289.844 125.26C290.782 125.26 291.494 125.525 291.983 126.056C292.482 126.578 292.732 127.291 292.732 128.195V133.019H291.433V128.387C291.433 127.69 291.259 127.183 290.914 126.868C290.568 126.554 290.094 126.395 289.492 126.395C289.074 126.395 288.698 126.51 288.362 126.735C288.035 126.961 287.781 127.262 287.598 127.635C287.414 127.999 287.323 128.383 287.323 128.785V133.019H286.024V125.496ZM298.18 133.255C297.416 133.255 296.729 133.078 296.117 132.724C295.506 132.37 295.027 131.889 294.681 131.278C294.345 130.67 294.177 129.995 294.177 129.257C294.177 128.52 294.345 127.847 294.681 127.236C295.027 126.628 295.506 126.145 296.117 125.791C296.729 125.437 297.416 125.26 298.18 125.26C298.944 125.26 299.632 125.437 300.243 125.791C300.854 126.145 301.328 126.628 301.664 127.236C302.01 127.847 302.184 128.52 302.184 129.257C302.184 129.995 302.01 130.67 301.664 131.278C301.328 131.889 300.854 132.37 300.243 132.724C299.632 133.078 298.944 133.255 298.18 133.255ZM298.18 132.119C298.659 132.119 299.103 132.007 299.51 131.78C299.928 131.544 300.258 131.21 300.503 130.777C300.757 130.345 300.885 129.838 300.885 129.257C300.885 128.678 300.757 128.171 300.503 127.738C300.258 127.306 299.928 126.976 299.51 126.75C299.103 126.514 298.659 126.395 298.18 126.395C297.701 126.395 297.254 126.514 296.836 126.75C296.417 126.976 296.081 127.306 295.827 127.738C295.582 128.171 295.46 128.678 295.46 129.257C295.46 129.838 295.582 130.345 295.827 130.777C296.081 131.21 296.417 131.544 296.836 131.78C297.254 132.007 297.701 132.119 298.18 132.119ZM303.617 122.457H304.916V133.019H303.617V122.457ZM310.357 133.255C309.593 133.255 308.906 133.078 308.295 132.724C307.683 132.37 307.204 131.889 306.858 131.278C306.522 130.67 306.354 129.995 306.354 129.257C306.354 128.52 306.522 127.847 306.858 127.236C307.204 126.628 307.683 126.145 308.295 125.791C308.906 125.437 309.593 125.26 310.357 125.26C311.121 125.26 311.809 125.437 312.42 125.791C313.032 126.145 313.505 126.628 313.841 127.236C314.187 127.847 314.361 128.52 314.361 129.257C314.361 129.995 314.187 130.67 313.841 131.278C313.505 131.889 313.032 132.37 312.42 132.724C311.809 133.078 311.121 133.255 310.357 133.255ZM310.357 132.119C310.835 132.119 311.278 132.007 311.687 131.78C312.104 131.544 312.436 131.21 312.68 130.777C312.934 130.345 313.062 129.838 313.062 129.257C313.062 128.678 312.934 128.171 312.68 127.738C312.436 127.306 312.104 126.976 311.687 126.75C311.278 126.514 310.835 126.395 310.357 126.395C309.878 126.395 309.429 126.514 309.013 126.75C308.595 126.976 308.258 127.306 308.004 127.738C307.76 128.171 307.638 128.678 307.638 129.257C307.638 129.838 307.76 130.345 308.004 130.777C308.258 131.21 308.595 131.544 309.013 131.78C309.429 132.007 309.878 132.119 310.357 132.119ZM319.291 136.442C318.374 136.442 317.616 136.235 317.014 135.822C316.424 135.409 316.027 134.913 315.822 134.332L316.999 133.845C317.173 134.278 317.457 134.627 317.855 134.893C318.263 135.169 318.741 135.306 319.291 135.306C320.097 135.306 320.718 135.08 321.155 134.627C321.604 134.175 321.828 133.535 321.828 132.709V131.868H321.767C321.512 132.252 321.151 132.567 320.682 132.813C320.223 133.049 319.699 133.167 319.108 133.167C318.435 133.167 317.82 133 317.259 132.665C316.709 132.331 316.271 131.864 315.945 131.264C315.62 130.664 315.456 129.98 315.456 129.213C315.456 128.457 315.62 127.778 315.945 127.177C316.271 126.568 316.709 126.096 317.259 125.761C317.82 125.427 318.435 125.26 319.108 125.26C319.699 125.26 320.223 125.383 320.682 125.628C321.151 125.864 321.512 126.18 321.767 126.573H321.828V125.496H323.065V132.724C323.065 133.934 322.719 134.854 322.026 135.483C321.335 136.122 320.422 136.442 319.291 136.442ZM319.291 132.031C319.761 132.031 320.183 131.918 320.559 131.691C320.947 131.466 321.253 131.142 321.476 130.718C321.711 130.295 321.828 129.794 321.828 129.213C321.828 128.623 321.711 128.117 321.476 127.694C321.253 127.271 320.947 126.952 320.559 126.735C320.183 126.51 319.761 126.395 319.291 126.395C318.823 126.395 318.395 126.51 318.007 126.735C317.621 126.961 317.31 127.286 317.075 127.708C316.852 128.132 316.739 128.634 316.739 129.213C316.739 129.794 316.852 130.301 317.075 130.733C317.31 131.156 317.621 131.481 318.007 131.706C318.395 131.923 318.823 132.031 319.291 132.031ZM327.37 132.547L324.146 125.496H325.552L327.997 131.087H328.027L330.381 125.496H331.786L326.973 136.206H325.628L327.37 132.547ZM336.676 122.457H338.265L343.751 130.865H343.812L343.751 128.83V122.457H345.05V133.019H343.705L337.96 124.212H337.899L337.96 126.248V133.019H336.676V122.457ZM349.502 133.255C348.933 133.255 348.423 133.148 347.974 132.931C347.527 132.715 347.18 132.42 346.935 132.045C346.691 131.662 346.568 131.23 346.568 130.747C346.568 129.951 346.88 129.331 347.5 128.889C348.123 128.437 348.906 128.21 349.854 128.21C350.323 128.21 350.755 128.26 351.153 128.358C351.561 128.457 351.871 128.569 352.085 128.697V128.239C352.085 127.679 351.882 127.232 351.473 126.897C351.066 126.554 350.552 126.381 349.93 126.381C349.493 126.381 349.09 126.475 348.723 126.661C348.356 126.838 348.066 127.089 347.852 127.413L346.874 126.705C347.18 126.253 347.598 125.899 348.127 125.643C348.667 125.388 349.263 125.26 349.915 125.26C350.975 125.26 351.805 125.53 352.406 126.071C353.017 126.602 353.322 127.33 353.322 128.254V133.019H352.085V131.942H352.024C351.8 132.307 351.464 132.617 351.015 132.872C350.568 133.128 350.063 133.255 349.502 133.255ZM349.624 132.149C350.063 132.149 350.47 132.041 350.847 131.824C351.225 131.608 351.525 131.319 351.748 130.954C351.974 130.59 352.085 130.192 352.085 129.759C351.84 129.602 351.54 129.475 351.183 129.375C350.827 129.277 350.45 129.228 350.052 129.228C349.34 129.228 348.799 129.371 348.433 129.656C348.077 129.941 347.898 130.31 347.898 130.762C347.898 131.175 348.062 131.51 348.387 131.765C348.713 132.021 349.126 132.149 349.624 132.149ZM358.478 136.442C357.561 136.442 356.802 136.235 356.201 135.822C355.61 135.409 355.213 134.913 355.009 134.332L356.185 133.845C356.359 134.278 356.644 134.627 357.041 134.893C357.45 135.169 357.927 135.306 358.478 135.306C359.283 135.306 359.904 135.08 360.342 134.627C360.79 134.175 361.014 133.535 361.014 132.709V131.868H360.953C360.699 132.252 360.338 132.567 359.868 132.813C359.41 133.049 358.886 133.167 358.294 133.167C357.622 133.167 357.006 133 356.445 132.665C355.895 132.331 355.458 131.864 355.131 131.264C354.806 130.664 354.642 129.98 354.642 129.213C354.642 128.457 354.806 127.778 355.131 127.177C355.458 126.568 355.895 126.096 356.445 125.761C357.006 125.427 357.622 125.26 358.294 125.26C358.886 125.26 359.41 125.383 359.868 125.628C360.338 125.864 360.699 126.18 360.953 126.573H361.014V125.496H362.252V132.724C362.252 133.934 361.906 134.854 361.213 135.483C360.521 136.122 359.608 136.442 358.478 136.442ZM358.478 132.031C358.947 132.031 359.369 131.918 359.746 131.691C360.133 131.466 360.439 131.142 360.663 130.718C360.897 130.295 361.014 129.794 361.014 129.213C361.014 128.623 360.897 128.117 360.663 127.694C360.439 127.271 360.133 126.952 359.746 126.735C359.369 126.51 358.947 126.395 358.478 126.395C358.009 126.395 357.581 126.51 357.194 126.735C356.808 126.961 356.497 127.286 356.262 127.708C356.038 128.132 355.926 128.634 355.926 129.213C355.926 129.794 356.038 130.301 356.262 130.733C356.497 131.156 356.808 131.481 357.194 131.706C357.581 131.923 358.009 132.031 358.478 132.031ZM364.112 125.496H365.35V126.617H365.411C365.646 126.233 365.997 125.914 366.465 125.658C366.944 125.392 367.479 125.26 368.07 125.26C368.763 125.26 369.393 125.433 369.964 125.776C370.535 126.121 370.983 126.598 371.309 127.207C371.636 127.817 371.798 128.501 371.798 129.257C371.798 130.024 371.636 130.714 371.309 131.323C370.983 131.923 370.535 132.396 369.964 132.739C369.393 133.083 368.763 133.255 368.07 133.255C367.479 133.255 366.944 133.128 366.465 132.872C365.997 132.606 365.646 132.287 365.411 131.913H365.35L365.411 132.945V136.206H364.112V125.496ZM367.917 132.119C368.365 132.119 368.788 132.001 369.185 131.765C369.582 131.529 369.898 131.195 370.132 130.762C370.377 130.32 370.499 129.818 370.499 129.257C370.499 128.697 370.377 128.201 370.132 127.767C369.898 127.325 369.582 126.986 369.185 126.75C368.788 126.514 368.365 126.395 367.917 126.395C367.468 126.395 367.046 126.514 366.648 126.75C366.251 126.986 365.936 127.321 365.701 127.753C365.466 128.186 365.35 128.687 365.35 129.257C365.35 129.829 365.466 130.33 365.701 130.762C365.936 131.195 366.251 131.529 366.648 131.765C367.046 132.001 367.468 132.119 367.917 132.119ZM376.057 133.255C375.121 133.255 374.403 132.99 373.903 132.459C373.414 131.927 373.169 131.186 373.169 130.231V125.496H374.468V130.039C374.468 130.758 374.636 131.284 374.972 131.618C375.308 131.953 375.763 132.119 376.332 132.119C376.771 132.119 377.157 132.007 377.494 131.78C377.841 131.555 378.105 131.26 378.288 130.895C378.483 130.531 378.578 130.148 378.578 129.744V125.496H379.877V133.019H378.64V131.927H378.578C378.365 132.302 378.024 132.617 377.555 132.872C377.087 133.128 376.588 133.255 376.057 133.255ZM381.796 125.496H383.033V126.705H383.095C383.247 126.292 383.543 125.953 383.981 125.687C384.42 125.412 384.878 125.274 385.356 125.274C385.713 125.274 386.019 125.324 386.273 125.422V126.779C385.948 126.622 385.581 126.543 385.173 126.543C384.796 126.543 384.45 126.646 384.134 126.853C383.818 127.059 383.564 127.34 383.37 127.694C383.186 128.038 383.095 128.412 383.095 128.815V133.019H381.796V125.496Z" fill="#242424"/>
<defs>
<linearGradient id="paint0_linear_703_2367" x1="425.69" y1="131.227" x2="9.16829" y2="131.227" gradientUnits="userSpaceOnUse">
<stop stop-color="#348BCA"/>
<stop offset="0.404875" stop-color="#59A43A"/>
<stop offset="0.711571" stop-color="#F3B002"/>
<stop offset="1" stop-color="#DF572E"/>
</linearGradient>
</defs>
</svg>
