<svg width="429" height="168" viewBox="0 0 429 168" fill="none" xmlns="http://www.w3.org/2000/svg">
<path d="M417.634 2.2323H12.0033C6.63289 2.2323 2.2793 6.43527 2.2793 11.6199V156.457C2.2793 161.642 6.63289 165.845 12.0033 165.845H417.634C423.005 165.845 427.358 161.642 427.358 156.457V11.6199C427.358 6.43527 423.005 2.2323 417.634 2.2323Z" fill="#EFEFEF" stroke="url(#paint0_linear_703_2372)" stroke-width="3.2"/>
<path d="M56.1704 105.685C54.6298 105.685 53.2101 105.327 51.9127 104.613C50.6138 103.899 49.5789 102.922 48.8093 101.683C48.0536 100.429 47.6758 99.0372 47.6758 97.5057C47.6758 95.9755 48.0536 94.5902 48.8093 93.351C49.5789 92.0971 50.6138 91.1128 51.9127 90.3993C53.2101 89.6845 54.6298 89.3278 56.1704 89.3278C57.3942 89.3278 58.5333 89.5383 59.5904 89.9607C60.6476 90.3845 61.5311 90.9746 62.241 91.7323L60.474 93.4382C59.9461 92.8696 59.3113 92.4324 58.5722 92.1266C57.8471 91.8208 57.0386 91.6666 56.1482 91.6666C55.1063 91.6666 54.1325 91.908 53.2254 92.3881C52.3197 92.8696 51.5946 93.5549 51.0514 94.444C50.5082 95.3331 50.2359 96.3537 50.2359 97.5057C50.2359 98.6577 50.5082 99.6783 51.0514 100.567C51.5946 101.457 52.3197 102.142 53.2254 102.623C54.1325 103.103 55.1133 103.345 56.1704 103.345C57.1372 103.345 57.9443 103.207 58.5945 102.929C59.2432 102.651 59.8252 102.28 60.3378 101.813C60.6712 101.493 60.9505 101.092 61.1769 100.612C61.4186 100.13 61.5769 99.6045 61.652 99.0372H56.1482V96.8499H64.0538C64.1288 97.2576 64.1663 97.6814 64.1663 98.1186C64.1663 99.1096 64.008 100.064 63.6912 100.983C63.3731 101.887 62.8675 102.674 62.1729 103.345C60.6476 104.904 58.6473 105.685 56.1704 105.685ZM71.99 105.685C70.8273 105.685 69.7854 105.429 68.8644 104.919C67.9434 104.394 67.2266 103.68 66.7126 102.776C66.1986 101.872 65.943 100.866 65.943 99.7587C65.943 98.6496 66.1986 97.6438 66.7126 96.7399C67.2266 95.8361 67.9434 95.1293 68.8644 94.6197C69.7854 94.094 70.8273 93.8325 71.99 93.8325C73.1527 93.8325 74.1946 94.094 75.1169 94.6197C76.038 95.1441 76.7548 95.8589 77.2688 96.7627C77.7813 97.6666 78.0384 98.6644 78.0384 99.7587C78.0384 100.866 77.7813 101.872 77.2688 102.776C76.7548 103.68 76.038 104.394 75.1169 104.919C74.1946 105.429 73.1527 105.685 71.99 105.685ZM71.99 103.476C72.6249 103.476 73.2138 103.33 73.757 103.039C74.3015 102.732 74.7308 102.303 75.0489 101.748C75.3809 101.179 75.5462 100.516 75.5462 99.7587C75.5462 98.9996 75.3809 98.3439 75.0489 97.79C74.7308 97.2361 74.3015 96.8137 73.757 96.5214C73.2138 96.2156 72.6249 96.0627 71.99 96.0627C71.3566 96.0627 70.7675 96.2156 70.223 96.5214C69.6798 96.8137 69.2423 97.2361 68.9103 97.79C68.5922 98.3439 68.4338 98.9996 68.4338 99.7587C68.4338 100.516 68.5922 101.179 68.9103 101.748C69.2423 102.303 69.6798 102.732 70.223 103.039C70.7675 103.33 71.3566 103.476 71.99 103.476ZM85.7495 105.685C84.5868 105.685 83.5449 105.429 82.6239 104.919C81.7029 104.394 80.9848 103.68 80.4722 102.776C79.9582 101.872 79.7011 100.866 79.7011 99.7587C79.7011 98.6496 79.9582 97.6438 80.4722 96.7399C80.9848 95.8361 81.7029 95.1293 82.6239 94.6197C83.5449 94.094 84.5868 93.8325 85.7495 93.8325C86.9122 93.8325 87.954 94.094 88.8751 94.6197C89.7961 95.1441 90.5143 95.8589 91.0269 96.7627C91.5408 97.6666 91.7978 98.6644 91.7978 99.7587C91.7978 100.866 91.5408 101.872 91.0269 102.776C90.5143 103.68 89.7961 104.394 88.8751 104.919C87.954 105.429 86.9122 105.685 85.7495 105.685ZM85.7495 103.476C86.3843 103.476 86.9734 103.33 87.5165 103.039C88.0597 102.732 88.4903 102.303 88.8071 101.748C89.1391 101.179 89.3057 100.516 89.3057 99.7587C89.3057 98.9996 89.1391 98.3439 88.8071 97.79C88.4903 97.2361 88.0597 96.8137 87.5165 96.5214C86.9734 96.2156 86.3843 96.0627 85.7495 96.0627C85.1146 96.0627 84.5257 96.2156 83.9825 96.5214C83.4394 96.8137 83.0018 97.2361 82.6684 97.79C82.3517 98.3439 82.1933 98.9996 82.1933 99.7587C82.1933 100.516 82.3517 101.179 82.6684 101.748C83.0018 102.303 83.4394 102.732 83.9825 103.039C84.5257 103.33 85.1146 103.476 85.7495 103.476ZM99.3048 110.408C97.8851 110.408 96.7071 110.094 95.7708 109.467C94.8498 108.841 94.2302 108.098 93.9135 107.237L96.2473 106.296C96.4876 106.88 96.8738 107.347 97.4016 107.697C97.9462 108.06 98.5796 108.242 99.3048 108.242C100.362 108.242 101.184 107.937 101.773 107.324C102.378 106.727 102.679 105.881 102.679 104.788V103.761H102.544C102.166 104.285 101.661 104.701 101.026 105.006C100.406 105.297 99.6896 105.444 98.8741 105.444C97.9073 105.444 97.0099 105.204 96.1792 104.722C95.3485 104.241 94.6831 103.563 94.1858 102.689C93.7023 101.799 93.4607 100.786 93.4607 99.6488C93.4607 98.5115 93.7023 97.5057 94.1858 96.6313C94.6831 95.7422 95.3485 95.0569 96.1792 94.5754C97.0099 94.0792 97.9073 93.8325 98.8741 93.8325C99.6743 93.8325 100.392 93.9853 101.026 94.2911C101.661 94.5969 102.166 95.0126 102.544 95.5383H102.679V94.1825H105.059V104.722C105.059 105.932 104.817 106.96 104.334 107.805C103.85 108.666 103.171 109.314 102.294 109.751C101.434 110.19 100.437 110.408 99.3048 110.408ZM99.3271 103.258C99.9313 103.258 100.49 103.118 101.004 102.842C101.516 102.55 101.925 102.135 102.226 101.595C102.529 101.041 102.679 100.392 102.679 99.6488C102.679 98.5115 102.355 97.6291 101.705 97.0028C101.072 96.3617 100.279 96.0412 99.3271 96.0412C98.7075 96.0412 98.1421 96.1861 97.6281 96.4784C97.1155 96.7547 96.7071 97.1637 96.4056 97.7028C96.1028 98.2419 95.9528 98.8911 95.9528 99.6488C95.9528 100.406 96.1028 101.056 96.4056 101.595C96.7071 102.135 97.1155 102.55 97.6281 102.842C98.1421 103.118 98.7075 103.258 99.3271 103.258ZM107.987 89.6778H110.478V105.335H107.987V89.6778ZM118.574 105.685C117.44 105.685 116.422 105.429 115.515 104.919C114.624 104.408 113.923 103.71 113.409 102.819C112.91 101.915 112.661 100.903 112.661 99.7802C112.661 98.7154 112.903 97.7323 113.387 96.8284C113.884 95.9098 114.572 95.1803 115.447 94.6411C116.323 94.102 117.319 93.8325 118.437 93.8325C119.6 93.8325 120.605 94.0792 121.451 94.5754C122.31 95.0716 122.961 95.7489 123.398 96.6098C123.851 97.4695 124.077 98.4391 124.077 99.5173C124.077 99.7212 124.055 99.9773 124.009 100.283H115.152C115.244 101.318 115.62 102.12 116.286 102.689C116.965 103.243 117.75 103.519 118.642 103.519C119.352 103.519 119.963 103.366 120.475 103.06C121.005 102.74 121.427 102.309 121.745 101.77L123.851 102.732C123.308 103.651 122.598 104.372 121.721 104.898C120.846 105.422 119.796 105.685 118.574 105.685ZM121.541 98.4458C121.51 98.0529 121.383 97.6666 121.156 97.2871C120.93 96.8942 120.582 96.5656 120.114 96.3027C119.66 96.0412 119.102 95.9098 118.437 95.9098C117.637 95.9098 116.958 96.1431 116.398 96.6098C115.855 97.0618 115.477 97.6733 115.266 98.4458H121.541ZM132.064 89.6778H137.251C138.926 89.6778 140.392 90.005 141.645 90.6608C142.898 91.3166 143.858 92.2433 144.522 93.4382C145.201 94.6197 145.541 95.9755 145.541 97.5057C145.541 99.0372 145.201 100.4 144.522 101.595C143.858 102.776 142.898 103.695 141.645 104.351C140.392 105.006 138.926 105.335 137.251 105.335H132.064V89.6778ZM137.205 102.995C139.018 102.995 140.429 102.513 141.44 101.552C142.468 100.574 142.981 99.2263 142.981 97.5057C142.981 95.7998 142.468 94.4587 141.44 93.4824C140.429 92.5048 139.018 92.0166 137.205 92.0166H134.6V102.995H137.205ZM152.97 105.685C151.838 105.685 150.819 105.429 149.913 104.919C149.022 104.408 148.319 103.71 147.807 102.819C147.308 101.915 147.058 100.903 147.058 99.7802C147.058 98.7154 147.3 97.7323 147.783 96.8284C148.282 95.9098 148.97 95.1803 149.845 94.6411C150.721 94.102 151.717 93.8325 152.834 93.8325C153.998 93.8325 155.001 94.0792 155.847 94.5754C156.708 95.0716 157.357 95.7489 157.795 96.6098C158.249 97.4695 158.476 98.4391 158.476 99.5173C158.476 99.7212 158.452 99.9773 158.407 100.283H149.55C149.641 101.318 150.018 102.12 150.682 102.689C151.363 103.243 152.148 103.519 153.038 103.519C153.748 103.519 154.359 103.366 154.873 103.06C155.401 102.74 155.825 102.309 156.142 101.77L158.249 102.732C157.705 103.651 156.995 104.372 156.12 104.898C155.243 105.422 154.194 105.685 152.97 105.685ZM155.938 98.4458C155.908 98.0529 155.779 97.6666 155.553 97.2871C155.326 96.8942 154.979 96.5656 154.511 96.3027C154.058 96.0412 153.5 95.9098 152.834 95.9098C152.034 95.9098 151.355 96.1431 150.796 96.6098C150.253 97.0618 149.875 97.6733 149.664 98.4458H155.938ZM159.231 94.1825H162.018L165.212 102.229H165.302L168.564 94.1825H171.282L166.48 105.335H163.989L159.231 94.1825ZM177.835 105.685C176.701 105.685 175.683 105.429 174.776 104.919C173.885 104.408 173.184 103.71 172.67 102.819C172.171 101.915 171.922 100.903 171.922 99.7802C171.922 98.7154 172.164 97.7323 172.648 96.8284C173.145 95.9098 173.833 95.1803 174.708 94.6411C175.584 94.102 176.58 93.8325 177.699 93.8325C178.861 93.8325 179.866 94.0792 180.712 94.5754C181.572 95.0716 182.222 95.7489 182.659 96.6098C183.112 97.4695 183.338 98.4391 183.338 99.5173C183.338 99.7212 183.316 99.9773 183.27 100.283H174.415C174.505 101.318 174.883 102.12 175.547 102.689C176.226 103.243 177.011 103.519 177.903 103.519C178.613 103.519 179.224 103.366 179.736 103.06C180.266 102.74 180.688 102.309 181.006 101.77L183.112 102.732C182.569 103.651 181.859 104.372 180.983 104.898C180.107 105.422 179.057 105.685 177.835 105.685ZM180.802 98.4458C180.771 98.0529 180.644 97.6666 180.417 97.2871C180.191 96.8942 179.843 96.5656 179.375 96.3027C178.921 96.0412 178.363 95.9098 177.699 95.9098C176.898 95.9098 176.219 96.1431 175.659 96.6098C175.116 97.0618 174.738 97.6733 174.527 98.4458H180.802ZM185.607 89.6778H188.099V105.335H185.607V89.6778ZM196.33 105.685C195.167 105.685 194.125 105.429 193.204 104.919C192.283 104.394 191.566 103.68 191.052 102.776C190.538 101.872 190.283 100.866 190.283 99.7587C190.283 98.6496 190.538 97.6438 191.052 96.7399C191.566 95.8361 192.283 95.1293 193.204 94.6197C194.125 94.094 195.167 93.8325 196.33 93.8325C197.493 93.8325 198.534 94.094 199.457 94.6197C200.378 95.1441 201.095 95.8589 201.609 96.7627C202.121 97.6666 202.378 98.6644 202.378 99.7587C202.378 100.866 202.121 101.872 201.609 102.776C201.095 103.68 200.378 104.394 199.457 104.919C198.534 105.429 197.493 105.685 196.33 105.685ZM196.33 103.476C196.965 103.476 197.554 103.33 198.097 103.039C198.641 102.732 199.071 102.303 199.389 101.748C199.721 101.179 199.886 100.516 199.886 99.7587C199.886 98.9996 199.721 98.3439 199.389 97.79C199.071 97.2361 198.641 96.8137 198.097 96.5214C197.554 96.2156 196.965 96.0627 196.33 96.0627C195.696 96.0627 195.107 96.2156 194.563 96.5214C194.02 96.8137 193.582 97.2361 193.25 97.79C192.932 98.3439 192.774 98.9996 192.774 99.7587C192.774 100.516 192.932 101.179 193.25 101.748C193.582 102.303 194.02 102.732 194.563 103.039C195.107 103.33 195.696 103.476 196.33 103.476ZM204.474 94.1825H206.853V95.647H206.966C207.298 95.1373 207.789 94.7069 208.439 94.3568C209.088 94.0068 209.82 93.8325 210.635 93.8325C211.677 93.8325 212.622 94.0873 213.468 94.5969C214.312 95.1078 214.978 95.8146 215.46 96.7185C215.958 97.6076 216.208 98.6215 216.208 99.7587C216.208 100.896 215.958 101.915 215.46 102.819C214.978 103.71 214.312 104.408 213.468 104.919C212.622 105.429 211.677 105.685 210.635 105.685C209.82 105.685 209.088 105.509 208.439 105.159C207.789 104.809 207.298 104.387 206.966 103.891H206.853L206.966 105.444V110.058H204.474V94.1825ZM210.273 103.476C210.877 103.476 211.444 103.322 211.972 103.016C212.501 102.71 212.923 102.273 213.24 101.705C213.558 101.136 213.716 100.487 213.716 99.7587C213.716 99.0291 213.558 98.3881 213.24 97.8342C212.923 97.2656 212.501 96.8285 211.972 96.5214C211.444 96.2156 210.877 96.0627 210.273 96.0627C209.67 96.0627 209.103 96.2156 208.574 96.5214C208.061 96.8285 207.646 97.2656 207.329 97.8342C207.011 98.3881 206.853 99.0291 206.853 99.7587C206.853 100.487 207.011 101.136 207.329 101.705C207.646 102.273 208.061 102.71 208.574 103.016C209.103 103.322 209.67 103.476 210.273 103.476ZM223.757 105.685C222.624 105.685 221.605 105.429 220.698 104.919C219.808 104.408 219.105 103.71 218.592 102.819C218.094 101.915 217.845 100.903 217.845 99.7802C217.845 98.7154 218.087 97.7323 218.57 96.8284C219.067 95.9098 219.755 95.1803 220.63 94.6411C221.507 94.102 222.503 93.8325 223.621 93.8325C224.784 93.8325 225.788 94.0792 226.634 94.5754C227.494 95.0716 228.144 95.7489 228.582 96.6098C229.034 97.4695 229.261 98.4391 229.261 99.5173C229.261 99.7212 229.239 99.9773 229.193 100.283H220.336C220.427 101.318 220.804 102.12 221.469 102.689C222.148 103.243 222.933 103.519 223.825 103.519C224.534 103.519 225.146 103.366 225.659 103.06C226.188 102.74 226.61 102.309 226.927 101.77L229.034 102.732C228.491 103.651 227.781 104.372 226.905 104.898C226.03 105.422 224.98 105.685 223.757 105.685ZM226.724 98.4458C226.694 98.0529 226.566 97.6666 226.34 97.2871C226.112 96.8942 225.764 96.5656 225.296 96.3027C224.843 96.0412 224.285 95.9098 223.621 95.9098C222.821 95.9098 222.14 96.1431 221.582 96.6098C221.039 97.0618 220.661 97.6733 220.45 98.4458H226.724ZM231.529 94.1825H233.909V95.8226H234.022C234.279 95.254 234.724 94.7873 235.358 94.4226C235.993 94.043 236.664 93.8539 237.374 93.8539C237.933 93.8539 238.402 93.9263 238.778 94.0725V96.5656C238.114 96.3323 237.518 96.2156 236.989 96.2156C236.415 96.2156 235.901 96.3618 235.448 96.6528C235.011 96.9451 234.663 97.338 234.406 97.8342C234.149 98.3144 234.022 98.8468 234.022 99.4301V105.335H231.529V94.1825ZM250.408 105.685C249.063 105.685 247.856 105.305 246.784 104.548C245.711 103.789 244.971 102.725 244.564 101.355L246.964 100.415C247.206 101.274 247.63 101.981 248.232 102.535C248.852 103.075 249.592 103.345 250.452 103.345C251.254 103.345 251.933 103.148 252.492 102.755C253.05 102.346 253.329 101.792 253.329 101.092C253.329 100.451 253.081 99.9263 252.582 99.5173C252.099 99.0949 251.246 98.6725 250.023 98.2487L249.003 97.9C247.916 97.5352 247.003 97.0095 246.263 96.3255C245.522 95.6402 245.153 94.7364 245.153 93.6139C245.153 92.8401 245.371 92.1266 245.81 91.4708C246.247 90.8137 246.852 90.2974 247.621 89.9178C248.406 89.5236 249.29 89.3278 250.272 89.3278C251.691 89.3278 252.824 89.663 253.67 90.3336C254.516 90.9894 255.081 91.7323 255.369 92.5638L253.081 93.5039C252.914 93.0077 252.597 92.5705 252.129 92.1923C251.661 91.8128 251.057 91.6237 250.318 91.6237C249.577 91.6237 248.951 91.8061 248.437 92.1695C247.938 92.5343 247.689 93.001 247.689 93.5696C247.689 94.1087 247.916 94.554 248.369 94.904C248.821 95.254 249.531 95.5893 250.498 95.9098L251.518 96.237C252.907 96.7037 253.979 97.3166 254.734 98.0743C255.505 98.8173 255.889 99.8164 255.889 101.07C255.889 102.091 255.617 102.95 255.074 103.651C254.531 104.336 253.835 104.845 252.99 105.181C252.16 105.517 251.298 105.685 250.408 105.685ZM262.543 105.509C262.029 105.509 261.546 105.429 261.093 105.269C260.64 105.108 260.271 104.898 259.983 104.635C259.335 104.007 259.009 103.154 259.009 102.076V96.3027H256.994V94.1825H259.009V91.0323H261.502V94.1825H264.311V96.3027H261.502V101.552C261.502 102.149 261.623 102.572 261.864 102.819C262.091 103.111 262.482 103.258 263.042 103.258C263.298 103.258 263.526 103.228 263.721 103.169C263.917 103.097 264.128 102.987 264.355 102.842V105.181C263.858 105.401 263.253 105.509 262.543 105.509ZM270.892 105.685C269.488 105.685 268.417 105.284 267.676 104.482C266.951 103.665 266.589 102.535 266.589 101.092V94.1825H269.081V100.765C269.081 101.668 269.299 102.346 269.738 102.798C270.191 103.25 270.78 103.476 271.505 103.476C272.094 103.476 272.615 103.33 273.068 103.039C273.521 102.732 273.868 102.331 274.11 101.836C274.351 101.34 274.472 100.807 274.472 100.239V94.1825H276.963V105.335H274.608V103.891H274.472C274.154 104.416 273.664 104.845 273 105.181C272.336 105.517 271.633 105.685 270.892 105.685ZM284.691 105.685C283.649 105.685 282.706 105.429 281.86 104.919C281.014 104.408 280.341 103.71 279.844 102.819C279.361 101.915 279.119 100.896 279.119 99.7587C279.119 98.6215 279.361 97.6076 279.844 96.7185C280.341 95.8146 281.014 95.1078 281.86 94.5969C282.706 94.0873 283.649 93.8325 284.691 93.8325C285.506 93.8325 286.238 94.0068 286.888 94.3568C287.537 94.7069 288.029 95.1373 288.361 95.647H288.473L288.361 94.0725V89.6778H290.851V105.335H288.473V103.891H288.361C288.029 104.387 287.537 104.809 286.888 105.159C286.238 105.509 285.506 105.685 284.691 105.685ZM285.053 103.476C285.658 103.476 286.216 103.322 286.73 103.016C287.258 102.71 287.682 102.273 287.998 101.705C288.315 101.136 288.473 100.487 288.473 99.7587C288.473 99.0291 288.315 98.3881 287.998 97.8342C287.682 97.2656 287.258 96.8285 286.73 96.5214C286.216 96.2156 285.658 96.0627 285.053 96.0627C284.449 96.0627 283.884 96.2156 283.354 96.5214C282.826 96.8285 282.403 97.2656 282.086 97.8342C281.769 98.3881 281.611 99.0291 281.611 99.7587C281.611 100.487 281.769 101.136 282.086 101.705C282.403 102.273 282.826 102.71 283.354 103.016C283.884 103.322 284.449 103.476 285.053 103.476ZM298.923 105.685C297.79 105.685 296.771 105.429 295.865 104.919C294.973 104.408 294.272 103.71 293.758 102.819C293.259 101.915 293.01 100.903 293.01 99.7802C293.01 98.7154 293.252 97.7323 293.735 96.8284C294.234 95.9098 294.92 95.1803 295.797 94.6411C296.672 94.102 297.669 93.8325 298.786 93.8325C299.949 93.8325 300.953 94.0792 301.799 94.5754C302.659 95.0716 303.309 95.7489 303.747 96.6098C304.2 97.4695 304.426 98.4391 304.426 99.5173C304.426 99.7212 304.404 99.9773 304.358 100.283H295.502C295.593 101.318 295.971 102.12 296.635 102.689C297.314 103.243 298.099 103.519 298.991 103.519C299.7 103.519 300.312 103.366 300.826 103.06C301.354 102.74 301.776 102.309 302.094 101.77L304.2 102.732C303.657 103.651 302.947 104.372 302.07 104.898C301.195 105.422 300.145 105.685 298.923 105.685ZM301.89 98.4458C301.859 98.0529 301.731 97.6666 301.505 97.2871C301.278 96.8942 300.931 96.5656 300.463 96.3027C300.01 96.0412 299.45 95.9098 298.786 95.9098C297.986 95.9098 297.307 96.1431 296.748 96.6098C296.204 97.0618 295.826 97.6733 295.615 98.4458H301.89ZM306.696 94.1825H309.074V95.647H309.187C309.519 95.1226 310.011 94.6921 310.659 94.3568C311.325 94.0068 312.026 93.8325 312.767 93.8325C314.171 93.8325 315.235 94.2335 315.96 95.0341C316.701 95.8226 317.07 96.9009 317.07 98.2715V105.335H314.578V98.5987C314.578 97.7243 314.352 97.0833 313.899 96.6742C313.461 96.2665 312.849 96.0627 312.064 96.0627C311.505 96.0627 311.007 96.2156 310.569 96.5214C310.132 96.8137 309.791 97.2066 309.549 97.7028C309.308 98.1977 309.187 98.7301 309.187 99.2987V105.335H306.696V94.1825ZM324.038 105.509C323.526 105.509 323.042 105.429 322.589 105.269C322.137 105.108 321.766 104.898 321.479 104.635C320.829 104.007 320.504 103.154 320.504 102.076V96.3027H318.489V94.1825H320.504V91.0323H322.996V94.1825H325.805V96.3027H322.996V101.552C322.996 102.149 323.117 102.572 323.359 102.819C323.585 103.111 323.979 103.258 324.537 103.258C324.794 103.258 325.02 103.228 325.216 103.169C325.412 103.097 325.625 102.987 325.851 102.842V105.181C325.352 105.401 324.748 105.509 324.038 105.509ZM341.105 105.685C339.534 105.685 338.101 105.327 336.802 104.613C335.503 103.899 334.483 102.914 333.743 101.66C333.004 100.406 332.634 99.0225 332.634 97.5057C332.634 95.9903 333.004 94.6049 333.743 93.351C334.483 92.0971 335.503 91.1128 336.802 90.3993C338.101 89.6845 339.534 89.3278 341.105 89.3278C342.328 89.3278 343.438 89.5464 344.435 89.9836C345.446 90.4208 346.338 91.0551 347.108 91.8852L345.296 93.5696C344.737 92.9286 344.118 92.4538 343.438 92.1481C342.758 91.8275 341.98 91.6666 341.105 91.6666C340.018 91.6666 339.022 91.908 338.116 92.3881C337.224 92.8696 336.514 93.5549 335.986 94.444C335.457 95.3184 335.193 96.3389 335.193 97.5057C335.193 98.6724 335.457 99.6997 335.986 100.589C336.514 101.463 337.224 102.142 338.116 102.623C339.022 103.103 340.018 103.345 341.105 103.345C342.917 103.345 344.457 102.615 345.726 101.157L347.561 102.863C346.776 103.752 345.831 104.446 344.73 104.941C343.627 105.437 342.419 105.685 341.105 105.685ZM349.764 89.6778H352.256V105.335H349.764V89.6778ZM359.398 105.685C357.993 105.685 356.921 105.284 356.18 104.482C355.455 103.665 355.094 102.535 355.094 101.092V94.1825H357.585V100.765C357.585 101.668 357.804 102.346 358.242 102.798C358.695 103.25 359.284 103.476 360.009 103.476C360.598 103.476 361.119 103.33 361.572 103.039C362.025 102.732 362.372 102.331 362.614 101.836C362.855 101.34 362.976 100.807 362.976 100.239V94.1825H365.468V105.335H363.112V103.891H362.976C362.659 104.416 362.168 104.845 361.504 105.181C360.84 105.517 360.137 105.685 359.398 105.685ZM374.53 105.685C373.714 105.685 372.981 105.509 372.332 105.159C371.683 104.809 371.191 104.387 370.859 103.891H370.747V105.335H368.367V89.6778H370.859V94.0725L370.747 95.647H370.859C371.191 95.1373 371.683 94.7069 372.332 94.3568C372.981 94.0068 373.714 93.8325 374.53 93.8325C375.571 93.8325 376.515 94.0873 377.361 94.5969C378.207 95.1078 378.871 95.8146 379.354 96.7185C379.853 97.6076 380.101 98.6215 380.101 99.7587C380.101 100.896 379.853 101.915 379.354 102.819C378.871 103.71 378.207 104.408 377.361 104.919C376.515 105.429 375.571 105.685 374.53 105.685ZM374.167 103.476C374.771 103.476 375.337 103.322 375.866 103.016C376.394 102.71 376.817 102.273 377.134 101.705C377.451 101.136 377.609 100.487 377.609 99.7587C377.609 99.0291 377.451 98.3881 377.134 97.8342C376.817 97.2656 376.394 96.8285 375.866 96.5214C375.337 96.2156 374.771 96.0627 374.167 96.0627C373.563 96.0627 372.996 96.2156 372.468 96.5214C371.954 96.8285 371.539 97.2656 371.222 97.8342C370.905 98.3881 370.747 99.0291 370.747 99.7587C370.747 100.487 370.905 101.136 371.222 101.705C371.539 102.273 371.954 102.71 372.468 103.016C372.996 103.322 373.563 103.476 374.167 103.476ZM386.473 105.685C385.144 105.685 384.056 105.407 383.21 104.853C382.366 104.285 381.768 103.563 381.421 102.689L383.641 101.748C383.913 102.331 384.291 102.776 384.775 103.082C385.272 103.388 385.839 103.542 386.473 103.542C387.092 103.542 387.613 103.439 388.036 103.235C388.459 103.016 388.67 102.696 388.67 102.273C388.67 101.864 388.489 101.544 388.127 101.31C387.764 101.077 387.206 100.873 386.45 100.699L385.069 100.37C384.147 100.152 383.384 99.7654 382.781 99.2116C382.177 98.6577 381.874 97.9576 381.874 97.1127C381.874 96.4556 382.071 95.8803 382.463 95.3841C382.871 94.8892 383.415 94.5097 384.094 94.2469C384.775 93.9706 385.514 93.8325 386.314 93.8325C387.386 93.8325 388.331 94.043 389.146 94.4668C389.962 94.8745 390.551 95.4726 390.912 96.2598L388.738 97.1771C388.3 96.3175 387.5 95.887 386.337 95.887C385.777 95.887 385.309 95.997 384.933 96.2156C384.555 96.4342 384.366 96.7185 384.366 97.0685C384.366 97.4038 384.509 97.6814 384.797 97.9C385.083 98.1038 385.507 98.2781 386.065 98.4243L387.764 98.8401C388.896 99.1163 389.749 99.5401 390.324 100.107C390.912 100.663 391.206 101.348 391.206 102.163C391.206 102.863 390.995 103.483 390.573 104.022C390.164 104.548 389.599 104.955 388.874 105.246C388.149 105.539 387.349 105.685 386.473 105.685Z" fill="#242424"/>
<path d="M227.889 55.1903L246.527 44.8019C249.125 43.3541 252.446 44.2133 253.946 46.721C255.446 49.2287 254.556 52.4353 251.958 53.8831L233.32 64.2714C230.723 65.7192 227.401 64.86 225.901 62.3523C224.402 59.8447 225.292 56.6381 227.889 55.1903Z" fill="#FBBC04"/>
<path d="M214.654 43.4385L196.016 53.8269C193.418 55.2747 190.097 54.4155 188.597 51.9078C187.097 49.4001 187.987 46.1935 190.585 44.7457L209.223 34.3574C211.82 32.9095 215.142 33.7687 216.642 36.2764C218.141 38.7841 217.251 41.9907 214.654 43.4385Z" fill="#EA4335"/>
<path d="M214.197 55.1892L195.559 44.8008C192.961 43.353 189.64 44.2122 188.14 46.7199C186.64 49.2276 187.53 52.4342 190.128 53.882L208.766 64.2703C211.363 65.7182 214.685 64.859 216.185 62.3513C217.684 59.8436 216.794 56.637 214.197 55.1892Z" fill="#4285F4"/>
<path d="M227.573 43.2619L246.844 54.003C249.266 55.3534 252.364 54.552 253.763 52.213L254.129 51.602C255.527 49.2631 254.697 46.2722 252.275 44.9218L233.004 34.1807C230.581 32.8303 227.483 33.6317 226.084 35.9707L225.719 36.5817C224.32 38.9206 225.15 41.9115 227.573 43.2619Z" fill="#0F9D58"/>
<path d="M47.964 134.713C46.9041 134.713 45.9415 134.473 45.076 133.99C44.2106 133.508 43.5271 132.85 43.0284 132.013C42.5394 131.168 42.2949 130.228 42.2949 129.196C42.2949 128.163 42.5394 127.23 43.0284 126.393C43.5271 125.548 44.2106 124.884 45.076 124.401C45.9415 123.92 46.9041 123.678 47.964 123.678C48.7795 123.678 49.5227 123.831 50.195 124.136C50.8771 124.431 51.4689 124.854 51.9676 125.404L51.0354 126.275C50.6173 125.793 50.1589 125.439 49.6602 125.213C49.1712 124.987 48.6058 124.873 47.964 124.873C47.1694 124.873 46.4415 125.056 45.7789 125.419C45.1163 125.773 44.587 126.28 44.1897 126.939C43.8022 127.588 43.609 128.34 43.609 129.196C43.609 130.051 43.8022 130.809 44.1897 131.467C44.587 132.116 45.1163 132.623 45.7789 132.987C46.4415 133.341 47.1694 133.518 47.964 133.518C49.2879 133.518 50.4145 132.992 51.3411 131.939L52.2885 132.825C51.7787 133.405 51.1521 133.868 50.4089 134.211C49.6657 134.546 48.8503 134.713 47.964 134.713ZM56.499 134.713C55.5627 134.713 54.8445 134.447 54.3444 133.916C53.8554 133.385 53.6109 132.643 53.6109 131.689V126.953H54.9098V131.497C54.9098 132.216 55.0779 132.741 55.4141 133.075C55.7502 133.411 56.2045 133.577 56.7741 133.577C57.213 133.577 57.5992 133.464 57.9354 133.238C58.2827 133.012 58.5465 132.717 58.7299 132.352C58.9244 131.989 59.0202 131.605 59.0202 131.202V126.953H60.3192V134.477H59.0814V133.385H59.0202C58.8063 133.759 58.466 134.074 57.9964 134.329C57.5283 134.585 57.0297 134.713 56.499 134.713ZM62.2375 126.953H63.4753V128.06H63.5364C63.7614 127.676 64.0976 127.357 64.5449 127.101C64.9936 126.846 65.4673 126.717 65.966 126.717C66.5369 126.717 67.0315 126.85 67.4482 127.116C67.8761 127.381 68.1817 127.735 68.3651 128.178C68.6401 127.735 69.0027 127.381 69.45 127.116C69.9084 126.85 70.4391 126.717 71.0392 126.717C71.9366 126.717 72.6089 126.983 73.0562 127.514C73.5146 128.036 73.7438 128.749 73.7438 129.653V134.477H72.4603V129.845C72.4603 129.147 72.313 128.64 72.0171 128.325C71.7226 128.011 71.2837 127.853 70.703 127.853C70.3168 127.853 69.9653 127.962 69.6486 128.178C69.3333 128.395 69.0832 128.685 68.8998 129.048C68.7276 129.413 68.6401 129.806 68.6401 130.228V134.477H67.3413V129.859C67.3413 129.151 67.194 128.64 66.8981 128.325C66.6036 128.011 66.1702 127.853 65.5993 127.853C65.2131 127.853 64.8617 127.967 64.5449 128.192C64.2296 128.41 63.9795 128.705 63.7962 129.078C63.6239 129.442 63.5364 129.835 63.5364 130.258V134.477H62.2375V126.953ZM75.6081 126.953H76.8458V128.06H76.9069C77.132 127.676 77.4682 127.357 77.9155 127.101C78.3642 126.846 78.8378 126.717 79.3365 126.717C79.9074 126.717 80.402 126.85 80.8187 127.116C81.2466 127.381 81.5523 127.735 81.7356 128.178C82.0107 127.735 82.3733 127.381 82.8206 127.116C83.279 126.85 83.8096 126.717 84.4097 126.717C85.3071 126.717 85.9794 126.983 86.4267 127.514C86.8851 128.036 87.1143 128.749 87.1143 129.653V134.477H85.8308V129.845C85.8308 129.147 85.6835 128.64 85.3877 128.325C85.0932 128.011 84.6542 127.853 84.0735 127.853C83.6874 127.853 83.3359 127.962 83.0191 128.178C82.7038 128.395 82.4537 128.685 82.2704 129.048C82.0981 129.413 82.0107 129.806 82.0107 130.228V134.477H80.7118V129.859C80.7118 129.151 80.5645 128.64 80.2686 128.325C79.9742 128.011 79.5407 127.853 78.9698 127.853C78.5836 127.853 78.2322 127.967 77.9155 128.192C77.6001 128.41 77.3501 128.705 77.1667 129.078C76.9945 129.442 76.9069 129.835 76.9069 130.258V134.477H75.6081V126.953ZM89.7426 125.567C89.4884 125.567 89.2689 125.478 89.0855 125.301C88.9022 125.124 88.8105 124.913 88.8105 124.667C88.8105 124.421 88.9022 124.215 89.0855 124.047C89.2689 123.87 89.4884 123.782 89.7426 123.782C89.9982 123.782 90.2164 123.87 90.3997 124.047C90.5831 124.215 90.6748 124.421 90.6748 124.667C90.6748 124.913 90.5831 125.124 90.3997 125.301C90.2275 125.478 90.008 125.567 89.7426 125.567ZM89.1009 126.953H90.3844V134.477H89.1009V126.953ZM92.4265 126.953H93.6642V128.06H93.7253C93.9393 127.687 94.2796 127.372 94.7491 127.116C95.2173 126.85 95.716 126.717 96.2466 126.717C97.1829 126.717 97.8969 126.983 98.3859 127.514C98.8846 128.036 99.1347 128.749 99.1347 129.653V134.477H97.8358V129.845C97.8358 129.147 97.6622 128.64 97.3163 128.325C96.969 128.011 96.4953 127.853 95.8952 127.853C95.4771 127.853 95.1006 127.967 94.7644 128.192C94.4379 128.419 94.1838 128.719 94.0004 129.092C93.817 129.457 93.7253 129.841 93.7253 130.243V134.477H92.4265V126.953ZM103.637 134.713C102.802 134.713 102.103 134.526 101.543 134.152C100.984 133.769 100.586 133.282 100.352 132.692L101.513 132.19C101.706 132.643 101.992 132.992 102.369 133.238C102.756 133.484 103.178 133.606 103.637 133.606C104.126 133.606 104.544 133.514 104.89 133.326C105.236 133.13 105.409 132.854 105.409 132.5C105.409 132.186 105.272 131.935 104.997 131.748C104.722 131.552 104.288 131.384 103.698 131.246L102.751 131.01C102.13 130.863 101.62 130.612 101.223 130.258C100.825 129.904 100.627 129.446 100.627 128.886C100.627 128.454 100.759 128.074 101.024 127.75C101.299 127.416 101.66 127.16 102.109 126.983C102.557 126.806 103.041 126.717 103.561 126.717C104.243 126.717 104.85 126.861 105.379 127.145C105.919 127.431 106.301 127.829 106.525 128.34L105.394 128.841C105.048 128.174 104.431 127.838 103.545 127.838C103.117 127.838 102.741 127.938 102.414 128.133C102.099 128.321 101.941 128.561 101.941 128.856C101.941 129.133 102.053 129.358 102.277 129.535C102.501 129.702 102.837 129.841 103.285 129.948L104.416 130.228C105.18 130.416 105.755 130.696 106.143 131.069C106.531 131.434 106.724 131.88 106.724 132.411C106.724 132.874 106.586 133.282 106.311 133.636C106.036 133.981 105.664 134.246 105.196 134.432C104.727 134.62 104.208 134.713 103.637 134.713ZM116.787 134.713C115.727 134.713 114.764 134.473 113.898 133.99C113.033 133.508 112.35 132.85 111.851 132.013C111.362 131.168 111.117 130.228 111.117 129.196C111.117 128.163 111.362 127.23 111.851 126.393C112.35 125.548 113.033 124.884 113.898 124.401C114.764 123.92 115.727 123.678 116.787 123.678C117.602 123.678 118.345 123.831 119.017 124.136C119.7 124.431 120.291 124.854 120.79 125.404L119.858 126.275C119.44 125.793 118.981 125.439 118.483 125.213C117.994 124.987 117.428 124.873 116.787 124.873C115.992 124.873 115.264 125.056 114.601 125.419C113.939 125.773 113.41 126.28 113.012 126.939C112.625 127.588 112.432 128.34 112.432 129.196C112.432 130.051 112.625 130.809 113.012 131.467C113.41 132.116 113.939 132.623 114.601 132.987C115.264 133.341 115.992 133.518 116.787 133.518C118.11 133.518 119.237 132.992 120.164 131.939L121.111 132.825C120.601 133.405 119.975 133.868 119.232 134.211C118.488 134.546 117.673 134.713 116.787 134.713ZM126.012 134.713C125.248 134.713 124.56 134.536 123.949 134.182C123.338 133.828 122.859 133.346 122.513 132.736C122.176 132.127 122.008 131.453 122.008 130.715C122.008 129.977 122.176 129.304 122.513 128.694C122.859 128.085 123.338 127.602 123.949 127.248C124.56 126.894 125.248 126.717 126.012 126.717C126.776 126.717 127.464 126.894 128.075 127.248C128.686 127.602 129.16 128.085 129.496 128.694C129.842 129.304 130.015 129.977 130.015 130.715C130.015 131.453 129.842 132.127 129.496 132.736C129.16 133.346 128.686 133.828 128.075 134.182C127.464 134.536 126.776 134.713 126.012 134.713ZM126.012 133.577C126.49 133.577 126.933 133.464 127.341 133.238C127.758 133.002 128.09 132.668 128.335 132.234C128.589 131.803 128.717 131.296 128.717 130.715C128.717 130.136 128.589 129.629 128.335 129.196C128.09 128.764 127.758 128.434 127.341 128.207C126.933 127.971 126.49 127.853 126.012 127.853C125.533 127.853 125.084 127.971 124.667 128.207C124.249 128.434 123.913 128.764 123.659 129.196C123.414 129.629 123.292 130.136 123.292 130.715C123.292 131.296 123.414 131.803 123.659 132.234C123.913 132.668 124.249 133.002 124.667 133.238C125.084 133.464 125.533 133.577 126.012 133.577ZM131.449 123.914H132.748V134.477H131.449V123.914ZM134.672 123.914H135.971V134.477H134.672V123.914ZM141.288 134.713C140.545 134.713 139.878 134.541 139.287 134.196C138.696 133.853 138.232 133.381 137.896 132.78C137.571 132.171 137.407 131.487 137.407 130.73C137.407 130.003 137.56 129.334 137.866 128.723C138.182 128.115 138.625 127.628 139.195 127.263C139.766 126.9 140.428 126.717 141.181 126.717C141.945 126.717 142.608 126.885 143.168 127.219C143.729 127.543 144.157 127.997 144.451 128.576C144.757 129.157 144.91 129.821 144.91 130.567C144.91 130.715 144.895 130.844 144.864 130.951H138.706C138.736 131.522 138.88 132.004 139.134 132.397C139.389 132.791 139.71 133.086 140.096 133.282C140.494 133.479 140.906 133.577 141.334 133.577C142.333 133.577 143.103 133.125 143.642 132.22L144.742 132.736C144.406 133.346 143.947 133.828 143.366 134.182C142.797 134.536 142.104 134.713 141.288 134.713ZM143.535 129.918C143.515 129.605 143.423 129.289 143.26 128.974C143.097 128.66 142.837 128.395 142.48 128.178C142.134 127.962 141.697 127.853 141.166 127.853C140.555 127.853 140.035 128.045 139.607 128.428C139.191 128.803 138.916 129.299 138.782 129.918H143.535ZM149.927 137.899C149.011 137.899 148.252 137.693 147.651 137.28C147.06 136.867 146.663 136.37 146.459 135.79L147.635 135.303C147.809 135.736 148.094 136.085 148.491 136.35C148.9 136.626 149.377 136.763 149.927 136.763C150.733 136.763 151.354 136.538 151.792 136.085C152.24 135.633 152.464 134.993 152.464 134.167V133.326H152.403C152.149 133.71 151.788 134.025 151.318 134.27C150.86 134.506 150.336 134.624 149.744 134.624C149.072 134.624 148.456 134.458 147.895 134.123C147.345 133.789 146.907 133.322 146.581 132.721C146.256 132.122 146.092 131.438 146.092 130.671C146.092 129.914 146.256 129.236 146.581 128.635C146.907 128.026 147.345 127.554 147.895 127.219C148.456 126.885 149.072 126.717 149.744 126.717C150.336 126.717 150.86 126.841 151.318 127.086C151.788 127.322 152.149 127.637 152.403 128.03H152.464V126.953H153.702V134.182C153.702 135.391 153.356 136.311 152.663 136.94C151.971 137.58 151.058 137.899 149.927 137.899ZM149.927 133.488C150.397 133.488 150.819 133.376 151.196 133.149C151.583 132.924 151.889 132.599 152.113 132.175C152.347 131.753 152.464 131.251 152.464 130.671C152.464 130.081 152.347 129.575 152.113 129.151C151.889 128.729 151.583 128.41 151.196 128.192C150.819 127.967 150.397 127.853 149.927 127.853C149.459 127.853 149.031 127.967 148.644 128.192C148.258 128.419 147.946 128.744 147.712 129.166C147.488 129.59 147.376 130.091 147.376 130.671C147.376 131.251 147.488 131.758 147.712 132.19C147.946 132.614 148.258 132.939 148.644 133.164C149.031 133.381 149.459 133.488 149.927 133.488ZM159.017 134.713C158.273 134.713 157.605 134.541 157.015 134.196C156.424 133.853 155.961 133.381 155.624 132.78C155.298 132.171 155.135 131.487 155.135 130.73C155.135 130.003 155.288 129.334 155.594 128.723C155.909 128.115 156.352 127.628 156.923 127.263C157.494 126.9 158.155 126.717 158.91 126.717C159.674 126.717 160.336 126.885 160.896 127.219C161.456 127.543 161.884 127.997 162.18 128.576C162.485 129.157 162.638 129.821 162.638 130.567C162.638 130.715 162.623 130.844 162.592 130.951H156.434C156.465 131.522 156.608 132.004 156.862 132.397C157.116 132.791 157.437 133.086 157.825 133.282C158.222 133.479 158.635 133.577 159.062 133.577C160.061 133.577 160.829 133.125 161.37 132.22L162.47 132.736C162.134 133.346 161.675 133.828 161.095 134.182C160.524 134.536 159.832 134.713 159.017 134.713ZM161.263 129.918C161.242 129.605 161.15 129.289 160.988 128.974C160.825 128.66 160.566 128.395 160.209 128.178C159.863 127.962 159.424 127.853 158.894 127.853C158.283 127.853 157.764 128.045 157.336 128.428C156.918 128.803 156.643 129.299 156.511 129.918H161.263ZM171.301 134.713C170.537 134.713 169.849 134.536 169.238 134.182C168.627 133.828 168.148 133.346 167.802 132.736C167.465 132.127 167.297 131.453 167.297 130.715C167.297 129.977 167.465 129.304 167.802 128.694C168.148 128.085 168.627 127.602 169.238 127.248C169.849 126.894 170.537 126.717 171.301 126.717C172.065 126.717 172.753 126.894 173.364 127.248C173.975 127.602 174.449 128.085 174.785 128.694C175.131 129.304 175.304 129.977 175.304 130.715C175.304 131.453 175.131 132.127 174.785 132.736C174.449 133.346 173.975 133.828 173.364 134.182C172.753 134.536 172.065 134.713 171.301 134.713ZM171.301 133.577C171.78 133.577 172.223 133.464 172.63 133.238C173.048 133.002 173.379 132.668 173.624 132.234C173.878 131.803 174.006 131.296 174.006 130.715C174.006 130.136 173.878 129.629 173.624 129.196C173.379 128.764 173.048 128.434 172.63 128.207C172.223 127.971 171.78 127.853 171.301 127.853C170.822 127.853 170.374 127.971 169.956 128.207C169.538 128.434 169.202 128.764 168.948 129.196C168.703 129.629 168.581 130.136 168.581 130.715C168.581 131.296 168.703 131.803 168.948 132.234C169.202 132.668 169.538 133.002 169.956 133.238C170.374 133.464 170.822 133.577 171.301 133.577ZM177.491 128.089H176.055V126.953H177.491V126.142C177.491 125.67 177.602 125.257 177.827 124.903C178.051 124.549 178.351 124.279 178.729 124.091C179.105 123.896 179.523 123.796 179.982 123.796C180.419 123.796 180.801 123.855 181.128 123.973V125.198C180.944 125.129 180.771 125.076 180.608 125.036C180.444 124.987 180.251 124.962 180.027 124.962C179.691 124.962 179.401 125.08 179.157 125.316C178.912 125.542 178.79 125.862 178.79 126.275V126.953H180.792V128.089H178.79V134.477H177.491V128.089ZM186.19 123.914H192.516V125.109H187.473V128.605H192.027V129.786H187.473V133.282H192.516V134.477H186.19V123.914ZM194.197 126.953H195.435V128.06H195.496C195.71 127.687 196.051 127.372 196.519 127.116C196.989 126.85 197.488 126.717 198.017 126.717C198.955 126.717 199.667 126.983 200.156 127.514C200.656 128.036 200.905 128.749 200.905 129.653V134.477H199.606V129.845C199.606 129.147 199.434 128.64 199.087 128.325C198.741 128.011 198.267 127.853 197.666 127.853C197.249 127.853 196.871 127.967 196.535 128.192C196.21 128.419 195.954 128.719 195.771 129.092C195.587 129.457 195.496 129.841 195.496 130.243V134.477H194.197V126.953ZM206.112 137.899C205.195 137.899 204.435 137.693 203.835 137.28C203.243 136.867 202.846 136.37 202.643 135.79L203.819 135.303C203.992 135.736 204.278 136.085 204.675 136.35C205.082 136.626 205.561 136.763 206.112 136.763C206.916 136.763 207.537 136.538 207.976 136.085C208.423 135.633 208.648 134.993 208.648 134.167V133.326H208.587C208.331 133.71 207.97 134.025 207.502 134.27C207.044 134.506 206.519 134.624 205.928 134.624C205.256 134.624 204.639 134.458 204.079 134.123C203.529 133.789 203.09 133.322 202.765 132.721C202.439 132.122 202.276 131.438 202.276 130.671C202.276 129.914 202.439 129.236 202.765 128.635C203.09 128.026 203.529 127.554 204.079 127.219C204.639 126.885 205.256 126.717 205.928 126.717C206.519 126.717 207.044 126.841 207.502 127.086C207.97 127.322 208.331 127.637 208.587 128.03H208.648V126.953H209.886V134.182C209.886 135.391 209.539 136.311 208.847 136.94C208.154 137.58 207.242 137.899 206.112 137.899ZM206.112 133.488C206.58 133.488 207.002 133.376 207.38 133.149C207.766 132.924 208.072 132.599 208.297 132.175C208.53 131.753 208.648 131.251 208.648 130.671C208.648 130.081 208.53 129.575 208.297 129.151C208.072 128.729 207.766 128.41 207.38 128.192C207.002 127.967 206.58 127.853 206.112 127.853C205.642 127.853 205.214 127.967 204.828 128.192C204.44 128.419 204.129 128.744 203.896 129.166C203.671 129.59 203.56 130.091 203.56 130.671C203.56 131.251 203.671 131.758 203.896 132.19C204.129 132.614 204.44 132.939 204.828 133.164C205.214 133.381 205.642 133.488 206.112 133.488ZM212.57 125.567C212.315 125.567 212.096 125.478 211.913 125.301C211.729 125.124 211.638 124.913 211.638 124.667C211.638 124.421 211.729 124.215 211.913 124.047C212.096 123.87 212.315 123.782 212.57 123.782C212.825 123.782 213.043 123.87 213.227 124.047C213.41 124.215 213.502 124.421 213.502 124.667C213.502 124.913 213.41 125.124 213.227 125.301C213.055 125.478 212.835 125.567 212.57 125.567ZM211.928 126.953H213.211V134.477H211.928V126.953ZM215.254 126.953H216.491V128.06H216.552C216.766 127.687 217.107 127.372 217.576 127.116C218.044 126.85 218.543 126.717 219.074 126.717C220.01 126.717 220.724 126.983 221.213 127.514C221.712 128.036 221.962 128.749 221.962 129.653V134.477H220.663V129.845C220.663 129.147 220.489 128.64 220.143 128.325C219.796 128.011 219.322 127.853 218.722 127.853C218.304 127.853 217.928 127.967 217.591 128.192C217.265 128.419 217.011 128.719 216.827 129.092C216.644 129.457 216.552 129.841 216.552 130.243V134.477H215.254V126.953ZM227.288 134.713C226.543 134.713 225.876 134.541 225.286 134.196C224.694 133.853 224.232 133.381 223.895 132.78C223.569 132.171 223.406 131.487 223.406 130.73C223.406 130.003 223.559 129.334 223.865 128.723C224.18 128.115 224.623 127.628 225.194 127.263C225.764 126.9 226.426 126.717 227.181 126.717C227.945 126.717 228.606 126.885 229.167 127.219C229.727 127.543 230.155 127.997 230.451 128.576C230.756 129.157 230.909 129.821 230.909 130.567C230.909 130.715 230.894 130.844 230.863 130.951H224.705C224.736 131.522 224.878 132.004 225.133 132.397C225.387 132.791 225.708 133.086 226.096 133.282C226.493 133.479 226.906 133.577 227.334 133.577C228.331 133.577 229.101 133.125 229.641 132.22L230.741 132.736C230.405 133.346 229.947 133.828 229.366 134.182C228.795 134.536 228.102 134.713 227.288 134.713ZM229.534 129.918C229.513 129.605 229.421 129.289 229.259 128.974C229.095 128.66 228.835 128.395 228.48 128.178C228.132 127.962 227.695 127.853 227.165 127.853C226.554 127.853 226.035 128.045 225.607 128.428C225.189 128.803 224.914 129.299 224.782 129.918H229.534ZM235.973 134.713C235.228 134.713 234.561 134.541 233.971 134.196C233.379 133.853 232.916 133.381 232.58 132.78C232.254 132.171 232.091 131.487 232.091 130.73C232.091 130.003 232.244 129.334 232.55 128.723C232.865 128.115 233.308 127.628 233.879 127.263C234.449 126.9 235.111 126.717 235.866 126.717C236.63 126.717 237.291 126.885 237.852 127.219C238.412 127.543 238.84 127.997 239.136 128.576C239.441 129.157 239.594 129.821 239.594 130.567C239.594 130.715 239.579 130.844 239.548 130.951H233.39C233.421 131.522 233.562 132.004 233.818 132.397C234.072 132.791 234.393 133.086 234.781 133.282C235.178 133.479 235.591 133.577 236.018 133.577C237.016 133.577 237.785 133.125 238.326 132.22L239.426 132.736C239.09 133.346 238.631 133.828 238.051 134.182C237.48 134.536 236.787 134.713 235.973 134.713ZM238.219 129.918C238.198 129.605 238.106 129.289 237.944 128.974C237.78 128.66 237.52 128.395 237.165 128.178C236.817 127.962 236.38 127.853 235.85 127.853C235.239 127.853 234.72 128.045 234.292 128.428C233.874 128.803 233.599 129.299 233.467 129.918H238.219ZM241.114 126.953H242.352V128.163H242.413C242.565 127.75 242.861 127.411 243.299 127.145C243.737 126.87 244.195 126.732 244.674 126.732C245.031 126.732 245.337 126.782 245.591 126.88V128.237C245.265 128.08 244.898 128.001 244.491 128.001C244.114 128.001 243.767 128.104 243.452 128.31C243.136 128.517 242.881 128.797 242.688 129.151C242.504 129.496 242.413 129.87 242.413 130.272V134.477H241.114V126.953ZM247.608 125.567C247.354 125.567 247.134 125.478 246.951 125.301C246.768 125.124 246.676 124.913 246.676 124.667C246.676 124.421 246.768 124.215 246.951 124.047C247.134 123.87 247.354 123.782 247.608 123.782C247.862 123.782 248.082 123.87 248.265 124.047C248.449 124.215 248.54 124.421 248.54 124.667C248.54 124.913 248.449 125.124 248.265 125.301C248.092 125.478 247.873 125.567 247.608 125.567ZM246.966 126.953H248.25V134.477H246.966V126.953ZM250.291 126.953H251.528V128.06H251.589C251.803 127.687 252.145 127.372 252.613 127.116C253.083 126.85 253.581 126.717 254.111 126.717C255.048 126.717 255.761 126.983 256.25 127.514C256.75 128.036 256.999 128.749 256.999 129.653V134.477H255.7V129.845C255.7 129.147 255.528 128.64 255.18 128.325C254.834 128.011 254.361 127.853 253.759 127.853C253.343 127.853 252.965 127.967 252.628 128.192C252.303 128.419 252.048 128.719 251.864 129.092C251.681 129.457 251.589 129.841 251.589 130.243V134.477H250.291V126.953ZM262.205 137.899C261.288 137.899 260.529 137.693 259.928 137.28C259.337 136.867 258.939 136.37 258.737 135.79L259.913 135.303C260.085 135.736 260.372 136.085 260.769 136.35C261.176 136.626 261.655 136.763 262.205 136.763C263.01 136.763 263.631 136.538 264.07 136.085C264.517 135.633 264.742 134.993 264.742 134.167V133.326H264.681C264.425 133.71 264.064 134.025 263.596 134.27C263.137 134.506 262.612 134.624 262.022 134.624C261.35 134.624 260.733 134.458 260.173 134.123C259.623 133.789 259.184 133.322 258.859 132.721C258.532 132.122 258.37 131.438 258.37 130.671C258.37 129.914 258.532 129.236 258.859 128.635C259.184 128.026 259.623 127.554 260.173 127.219C260.733 126.885 261.35 126.717 262.022 126.717C262.612 126.717 263.137 126.841 263.596 127.086C264.064 127.322 264.425 127.637 264.681 128.03H264.742V126.953H265.98V134.182C265.98 135.391 265.632 136.311 264.941 136.94C264.247 137.58 263.336 137.899 262.205 137.899ZM262.205 133.488C262.673 133.488 263.096 133.376 263.474 133.149C263.86 132.924 264.165 132.599 264.39 132.175C264.624 131.753 264.742 131.251 264.742 130.671C264.742 130.081 264.624 129.575 264.39 129.151C264.165 128.729 263.86 128.41 263.474 128.192C263.096 127.967 262.673 127.853 262.205 127.853C261.736 127.853 261.308 127.967 260.922 128.192C260.534 128.419 260.223 128.744 259.99 129.166C259.765 129.59 259.653 130.091 259.653 130.671C259.653 131.251 259.765 131.758 259.99 132.19C260.223 132.614 260.534 132.939 260.922 133.164C261.308 133.381 261.736 133.488 262.205 133.488ZM272.054 128.089H270.618V126.953H272.054V126.142C272.054 125.67 272.167 125.257 272.39 124.903C272.614 124.549 272.916 124.279 273.292 124.091C273.668 123.896 274.087 123.796 274.545 123.796C274.983 123.796 275.365 123.855 275.691 123.973V125.198C275.508 125.129 275.334 125.076 275.172 125.036C275.009 124.987 274.815 124.962 274.591 124.962C274.255 124.962 273.964 125.08 273.72 125.316C273.475 125.542 273.353 125.862 273.353 126.275V126.953H275.355V128.089H273.353V134.477H272.054V128.089ZM280.056 134.713C279.292 134.713 278.604 134.536 277.993 134.182C277.382 133.828 276.902 133.346 276.557 132.736C276.22 132.127 276.052 131.453 276.052 130.715C276.052 129.977 276.22 129.304 276.557 128.694C276.902 128.085 277.382 127.602 277.993 127.248C278.604 126.894 279.292 126.717 280.056 126.717C280.82 126.717 281.507 126.894 282.119 127.248C282.73 127.602 283.204 128.085 283.54 128.694C283.886 129.304 284.059 129.977 284.059 130.715C284.059 131.453 283.886 132.127 283.54 132.736C283.204 133.346 282.73 133.828 282.119 134.182C281.507 134.536 280.82 134.713 280.056 134.713ZM280.056 133.577C280.535 133.577 280.978 133.464 281.385 133.238C281.803 133.002 282.134 132.668 282.378 132.234C282.633 131.803 282.761 131.296 282.761 130.715C282.761 130.136 282.633 129.629 282.378 129.196C282.134 128.764 281.803 128.434 281.385 128.207C280.978 127.971 280.535 127.853 280.056 127.853C279.577 127.853 279.129 127.971 278.711 128.207C278.293 128.434 277.957 128.764 277.703 129.196C277.458 129.629 277.336 130.136 277.336 130.715C277.336 131.296 277.458 131.803 277.703 132.234C277.957 132.668 278.293 133.002 278.711 133.238C279.129 133.464 279.577 133.577 280.056 133.577ZM285.418 126.953H286.656V128.163H286.717C286.87 127.75 287.165 127.411 287.603 127.145C288.042 126.87 288.5 126.732 288.978 126.732C289.335 126.732 289.641 126.782 289.895 126.88V128.237C289.57 128.08 289.203 128.001 288.795 128.001C288.419 128.001 288.073 128.104 287.756 128.31C287.441 128.517 287.186 128.797 286.992 129.151C286.808 129.496 286.717 129.87 286.717 130.272V134.477H285.418V126.953ZM293.845 126.953H295.174L297.038 132.898H297.053L299.009 126.953H300.354L302.325 132.884H302.341L304.189 126.953H305.504L302.982 134.477H301.668L299.651 128.473L297.649 134.477H296.35L293.845 126.953ZM310.02 134.713C309.256 134.713 308.568 134.536 307.957 134.182C307.346 133.828 306.868 133.346 306.521 132.736C306.184 132.127 306.016 131.453 306.016 130.715C306.016 129.977 306.184 129.304 306.521 128.694C306.868 128.085 307.346 127.602 307.957 127.248C308.568 126.894 309.256 126.717 310.02 126.717C310.784 126.717 311.471 126.894 312.083 127.248C312.694 127.602 313.168 128.085 313.504 128.694C313.851 129.304 314.023 129.977 314.023 130.715C314.023 131.453 313.851 132.127 313.504 132.736C313.168 133.346 312.694 133.828 312.083 134.182C311.471 134.536 310.784 134.713 310.02 134.713ZM310.02 133.577C310.499 133.577 310.942 133.464 311.349 133.238C311.767 133.002 312.098 132.668 312.342 132.234C312.598 131.803 312.724 131.296 312.724 130.715C312.724 130.136 312.598 129.629 312.342 129.196C312.098 128.764 311.767 128.434 311.349 128.207C310.942 127.971 310.499 127.853 310.02 127.853C309.542 127.853 309.093 127.971 308.675 128.207C308.258 128.434 307.922 128.764 307.666 129.196C307.422 129.629 307.3 130.136 307.3 130.715C307.3 131.296 307.422 131.803 307.666 132.234C307.922 132.668 308.258 133.002 308.675 133.238C309.093 133.464 309.542 133.577 310.02 133.577ZM315.383 126.953H316.621V128.06H316.682C316.906 127.676 317.242 127.357 317.691 127.101C318.138 126.846 318.612 126.717 319.112 126.717C319.681 126.717 320.176 126.85 320.594 127.116C321.022 127.381 321.327 127.735 321.511 128.178C321.786 127.735 322.147 127.381 322.596 127.116C323.054 126.85 323.583 126.717 324.185 126.717C325.081 126.717 325.753 126.983 326.202 127.514C326.66 128.036 326.89 128.749 326.89 129.653V134.477H325.606V129.845C325.606 129.147 325.457 128.64 325.163 128.325C324.867 128.011 324.429 127.853 323.849 127.853C323.461 127.853 323.11 127.962 322.794 128.178C322.478 128.395 322.229 128.685 322.046 129.048C321.872 129.413 321.786 129.806 321.786 130.228V134.477H320.487V129.859C320.487 129.151 320.338 128.64 320.044 128.325C319.748 128.011 319.315 127.853 318.745 127.853C318.357 127.853 318.006 127.967 317.691 128.192C317.374 128.41 317.125 128.705 316.942 129.078C316.768 129.442 316.682 129.835 316.682 130.258V134.477H315.383V126.953ZM332.222 134.713C331.478 134.713 330.811 134.541 330.221 134.196C329.629 133.853 329.166 133.381 328.83 132.78C328.504 132.171 328.341 131.487 328.341 130.73C328.341 130.003 328.494 129.334 328.8 128.723C329.115 128.115 329.558 127.628 330.129 127.263C330.699 126.9 331.361 126.717 332.116 126.717C332.88 126.717 333.541 126.885 334.102 127.219C334.662 127.543 335.09 127.997 335.386 128.576C335.691 129.157 335.844 129.821 335.844 130.567C335.844 130.715 335.829 130.844 335.798 130.951H329.64C329.671 131.522 329.812 132.004 330.068 132.397C330.322 132.791 330.643 133.086 331.031 133.282C331.428 133.479 331.84 133.577 332.268 133.577C333.266 133.577 334.035 133.125 334.576 132.22L335.676 132.736C335.34 133.346 334.881 133.828 334.301 134.182C333.73 134.536 333.036 134.713 332.222 134.713ZM334.469 129.918C334.448 129.605 334.356 129.289 334.194 128.974C334.03 128.66 333.77 128.395 333.414 128.178C333.067 127.962 332.63 127.853 332.1 127.853C331.489 127.853 330.969 128.045 330.542 128.428C330.123 128.803 329.848 129.299 329.716 129.918H334.469ZM337.364 126.953H338.601V128.06H338.663C338.877 127.687 339.218 127.372 339.686 127.116C340.155 126.85 340.655 126.717 341.184 126.717C342.122 126.717 342.834 126.983 343.323 127.514C343.822 128.036 344.072 128.749 344.072 129.653V134.477H342.773V129.845C342.773 129.147 342.599 128.64 342.253 128.325C341.908 128.011 341.434 127.853 340.832 127.853C340.414 127.853 340.038 127.967 339.702 128.192C339.375 128.419 339.121 128.719 338.938 129.092C338.754 129.457 338.663 129.841 338.663 130.243V134.477H337.364V126.953ZM345.746 135.701L346.556 134.477C346.372 134.447 346.21 134.355 346.067 134.196C345.924 134.04 345.853 133.848 345.853 133.621C345.853 133.366 345.944 133.149 346.128 132.972C346.321 132.786 346.556 132.692 346.831 132.692C347.106 132.692 347.335 132.786 347.518 132.972C347.711 133.149 347.809 133.366 347.809 133.621C347.809 133.789 347.773 133.951 347.702 134.108C347.631 134.255 347.524 134.428 347.381 134.624L346.372 136.099L345.746 135.701ZM353.426 123.914H355.016L360.501 132.323H360.562L360.501 130.287V123.914H361.8V134.477H360.456L354.71 125.67H354.649L354.71 127.706V134.477H353.426V123.914ZM366.252 134.713C365.681 134.713 365.173 134.605 364.724 134.388C364.276 134.172 363.93 133.877 363.685 133.503C363.441 133.12 363.319 132.688 363.319 132.205C363.319 131.408 363.63 130.789 364.251 130.346C364.872 129.894 365.656 129.668 366.604 129.668C367.072 129.668 367.505 129.717 367.903 129.815C368.31 129.914 368.621 130.027 368.835 130.154V129.697C368.835 129.137 368.631 128.69 368.224 128.355C367.817 128.011 367.301 127.838 366.68 127.838C366.243 127.838 365.84 127.932 365.473 128.119C365.106 128.296 364.816 128.546 364.602 128.871L363.624 128.163C363.93 127.711 364.348 127.357 364.877 127.101C365.418 126.846 366.013 126.717 366.665 126.717C367.725 126.717 368.554 126.988 369.156 127.529C369.767 128.06 370.073 128.788 370.073 129.712V134.477H368.835V133.4H368.774C368.55 133.765 368.214 134.074 367.765 134.329C367.316 134.585 366.812 134.713 366.252 134.713ZM366.375 133.606C366.812 133.606 367.221 133.499 367.597 133.282C367.974 133.066 368.275 132.776 368.499 132.411C368.722 132.048 368.835 131.65 368.835 131.217C368.59 131.06 368.29 130.932 367.933 130.833C367.576 130.735 367.2 130.685 366.802 130.685C366.09 130.685 365.55 130.829 365.183 131.113C364.826 131.399 364.648 131.768 364.648 132.22C364.648 132.633 364.81 132.968 365.137 133.223C365.463 133.479 365.876 133.606 366.375 133.606ZM375.228 137.899C374.311 137.899 373.552 137.693 372.951 137.28C372.361 136.867 371.963 136.37 371.759 135.79L372.936 135.303C373.109 135.736 373.394 136.085 373.791 136.35C374.198 136.626 374.678 136.763 375.228 136.763C376.032 136.763 376.654 136.538 377.092 136.085C377.541 135.633 377.764 134.993 377.764 134.167V133.326H377.703C377.449 133.71 377.086 134.025 376.618 134.27C376.16 134.506 375.635 134.624 375.044 134.624C374.372 134.624 373.755 134.458 373.195 134.123C372.645 133.789 372.208 133.322 371.881 132.721C371.555 132.122 371.392 131.438 371.392 130.671C371.392 129.914 371.555 129.236 371.881 128.635C372.208 128.026 372.645 127.554 373.195 127.219C373.755 126.885 374.372 126.717 375.044 126.717C375.635 126.717 376.16 126.841 376.618 127.086C377.086 127.322 377.449 127.637 377.703 128.03H377.764V126.953H379.002V134.182C379.002 135.391 378.656 136.311 377.963 136.94C377.27 137.58 376.358 137.899 375.228 137.899ZM375.228 133.488C375.696 133.488 376.12 133.376 376.496 133.149C376.884 132.924 377.189 132.599 377.413 132.175C377.648 131.753 377.764 131.251 377.764 130.671C377.764 130.081 377.648 129.575 377.413 129.151C377.189 128.729 376.884 128.41 376.496 128.192C376.12 127.967 375.696 127.853 375.228 127.853C374.76 127.853 374.332 127.967 373.944 128.192C373.557 128.419 373.247 128.744 373.012 129.166C372.788 129.59 372.676 130.091 372.676 130.671C372.676 131.251 372.788 131.758 373.012 132.19C373.247 132.614 373.557 132.939 373.944 133.164C374.332 133.381 374.76 133.488 375.228 133.488ZM380.861 126.953H382.098V128.074H382.16C382.394 127.691 382.746 127.372 383.214 127.116C383.693 126.85 384.228 126.717 384.818 126.717C385.512 126.717 386.144 126.89 386.713 127.234C387.284 127.578 387.733 128.056 388.058 128.664C388.384 129.275 388.547 129.959 388.547 130.715C388.547 131.482 388.384 132.171 388.058 132.78C387.733 133.381 387.284 133.853 386.713 134.196C386.144 134.541 385.512 134.713 384.818 134.713C384.228 134.713 383.693 134.585 383.214 134.329C382.746 134.064 382.394 133.745 382.16 133.37H382.098L382.16 134.403V137.663H380.861V126.953ZM384.666 133.577C385.114 133.577 385.537 133.459 385.934 133.223C386.331 132.987 386.648 132.653 386.881 132.22C387.126 131.777 387.248 131.276 387.248 130.715C387.248 130.154 387.126 129.658 386.881 129.225C386.648 128.782 386.331 128.443 385.934 128.207C385.537 127.971 385.114 127.853 384.666 127.853C384.218 127.853 383.795 127.971 383.397 128.207C383 128.443 382.685 128.778 382.45 129.21C382.217 129.643 382.098 130.145 382.098 130.715C382.098 131.286 382.217 131.788 382.45 132.22C382.685 132.653 383 132.987 383.397 133.223C383.795 133.459 384.218 133.577 384.666 133.577ZM392.807 134.713C391.87 134.713 391.151 134.447 390.653 133.916C390.164 133.385 389.919 132.643 389.919 131.689V126.953H391.218V131.497C391.218 132.216 391.386 132.741 391.722 133.075C392.059 133.411 392.511 133.577 393.082 133.577C393.52 133.577 393.908 133.464 394.244 133.238C394.59 133.012 394.855 132.717 395.038 132.352C395.231 131.989 395.329 131.605 395.329 131.202V126.953H396.628V134.477H395.39V133.385H395.329C395.115 133.759 394.773 134.074 394.305 134.329C393.837 134.585 393.337 134.713 392.807 134.713ZM398.546 126.953H399.784V128.163H399.845C399.998 127.75 400.293 127.411 400.731 127.145C401.169 126.87 401.627 126.732 402.106 126.732C402.463 126.732 402.769 126.782 403.023 126.88V128.237C402.697 128.08 402.33 128.001 401.923 128.001C401.547 128.001 401.199 128.104 400.884 128.31C400.568 128.517 400.313 128.797 400.12 129.151C399.936 129.496 399.845 129.87 399.845 130.272V134.477H398.546V126.953Z" fill="#242424"/>
<defs>
<linearGradient id="paint0_linear_703_2372" x1="425.969" y1="131.344" x2="9.44729" y2="131.344" gradientUnits="userSpaceOnUse">
<stop stop-color="#348BCA"/>
<stop offset="0.404875" stop-color="#59A43A"/>
<stop offset="0.711571" stop-color="#F3B002"/>
<stop offset="1" stop-color="#DF572E"/>
</linearGradient>
</defs>
</svg>
