<svg xmlns="http://www.w3.org/2000/svg" data-name="Filled outline" viewBox="0 0 64 64" id="keyboard"><path fill="#3d4f7b" d="M7 29h50a4 4 0 0 1 4 4v24H3V33a4 4 0 0 1 4-4Z"></path><path fill="#e2f3ff" d="M7 33h4v4H7zM7 41h8v4H7zM7 49h4v4H7zM15 33h4v4h-4zM23 33h4v4h-4zM31 33h4v4h-4zM39 33h4v4h-4zM19 41h4v4h-4zM15 49h4v4h-4zM45 49h4v4h-4zM53 49h4v4h-4zM23 49h18v4H23zM27 41h4v4h-4zM35 41h4v4h-4zM43 41h4v4h-4zM47 33h10v4H47zM51 41h6v4h-6z"></path><path fill="#1f2b54" d="M3 57h58a4 4 0 0 1-4 4H7a4 4 0 0 1-4-4zm28-32h2a2 2 0 0 1 2 2v2h-6v-2a2 2 0 0 1 2-2z"></path><g fill="#1e120b"><path d="M57 28H36v-1a3 3 0 0 0-3-3 3 3 0 0 0-3-3h-7a2 2 0 0 1 0-4h18a4 4 0 0 0 0-8h-7a1 1 0 0 1-1-1V7a1 1 0 0 0-2 0v1a3 3 0 0 0 3 3h7a2 2 0 0 1 0 4H23a4 4 0 0 0 0 8h7a1 1 0 0 1 1 1 3 3 0 0 0-3 3v1H7a5.006 5.006 0 0 0-5 5v24a5.006 5.006 0 0 0 5 5h50a5.006 5.006 0 0 0 5-5V33a5.006 5.006 0 0 0-5-5Zm-27-1a1 1 0 0 1 1-1h2a1 1 0 0 1 1 1v1h-4Zm27 33H7a3 3 0 0 1-2.816-2h55.632A3 3 0 0 1 57 60Zm3-4H4V33a3 3 0 0 1 3-3h50a3 3 0 0 1 3 3Z"></path><path d="M7 38h4a1 1 0 0 0 1-1v-4a1 1 0 0 0-1-1H7a1 1 0 0 0-1 1v4a1 1 0 0 0 1 1zm1-4h2v2H8zM7 46h8a1 1 0 0 0 1-1v-4a1 1 0 0 0-1-1H7a1 1 0 0 0-1 1v4a1 1 0 0 0 1 1zm1-4h6v2H8zm3 6H7a1 1 0 0 0-1 1v4a1 1 0 0 0 1 1h4a1 1 0 0 0 1-1v-4a1 1 0 0 0-1-1zm-1 4H8v-2h2zm5-14h4a1 1 0 0 0 1-1v-4a1 1 0 0 0-1-1h-4a1 1 0 0 0-1 1v4a1 1 0 0 0 1 1zm1-4h2v2h-2zm7 4h4a1 1 0 0 0 1-1v-4a1 1 0 0 0-1-1h-4a1 1 0 0 0-1 1v4a1 1 0 0 0 1 1zm1-4h2v2h-2zm7 4h4a1 1 0 0 0 1-1v-4a1 1 0 0 0-1-1h-4a1 1 0 0 0-1 1v4a1 1 0 0 0 1 1zm1-4h2v2h-2zm7 4h4a1 1 0 0 0 1-1v-4a1 1 0 0 0-1-1h-4a1 1 0 0 0-1 1v4a1 1 0 0 0 1 1zm1-4h2v2h-2zm-21 6a1 1 0 0 0-1 1v4a1 1 0 0 0 1 1h4a1 1 0 0 0 1-1v-4a1 1 0 0 0-1-1zm3 4h-2v-2h2zm-3 4h-4a1 1 0 0 0-1 1v4a1 1 0 0 0 1 1h4a1 1 0 0 0 1-1v-4a1 1 0 0 0-1-1zm-1 4h-2v-2h2zm31-4h-4a1 1 0 0 0-1 1v4a1 1 0 0 0 1 1h4a1 1 0 0 0 1-1v-4a1 1 0 0 0-1-1zm-1 4h-2v-2h2zm9-4h-4a1 1 0 0 0-1 1v4a1 1 0 0 0 1 1h4a1 1 0 0 0 1-1v-4a1 1 0 0 0-1-1zm-1 4h-2v-2h2zm-15-4H23a1 1 0 0 0-1 1v4a1 1 0 0 0 1 1h18a1 1 0 0 0 1-1v-4a1 1 0 0 0-1-1zm-1 4H24v-2h16zM27 40a1 1 0 0 0-1 1v4a1 1 0 0 0 1 1h4a1 1 0 0 0 1-1v-4a1 1 0 0 0-1-1zm3 4h-2v-2h2zm5-4a1 1 0 0 0-1 1v4a1 1 0 0 0 1 1h4a1 1 0 0 0 1-1v-4a1 1 0 0 0-1-1zm3 4h-2v-2h2zm10 1v-4a1 1 0 0 0-1-1h-4a1 1 0 0 0-1 1v4a1 1 0 0 0 1 1h4a1 1 0 0 0 1-1zm-2-1h-2v-2h2zm11-12H47a1 1 0 0 0-1 1v4a1 1 0 0 0 1 1h10a1 1 0 0 0 1-1v-4a1 1 0 0 0-1-1zm-1 4h-8v-2h8zm1 4h-6a1 1 0 0 0-1 1v4a1 1 0 0 0 1 1h6a1 1 0 0 0 1-1v-4a1 1 0 0 0-1-1zm-1 4h-4v-2h4z"></path><circle cx="32" cy="3" r="1"></circle></g></svg>