<?xml version="1.0" encoding="utf-8"?>
<!-- Generator: Adobe Illustrator 24.3.0, SVG Export Plug-In . SVG Version: 6.00 Build 0)  -->
<svg version="1.1" id="laptop" xmlns="http://www.w3.org/2000/svg" xmlns:xlink="http://www.w3.org/1999/xlink" x="0px" y="0px"
	 viewBox="0 0 36 36" style="enable-background:new 0 0 36 36;" xml:space="preserve">
<style type="text/css">
	.st0{opacity:0.141;enable-background:new    ;}
	.st1{opacity:0.94;fill:#2B4255;enable-background:new    ;}
	.st2{opacity:0.15;enable-background:new    ;}
	.st3{opacity:0.94;fill:#E9EDED;enable-background:new    ;}
	.st4{opacity:0.94;fill:#576D7E;enable-background:new    ;}
	.st5{opacity:0.94;fill:#CAD1D8;enable-background:new    ;}
	.st6{fill:#F8B84E;}
	.st7{fill:#34485C;fill-opacity:0.949;}
	.st8{fill:#25B39E;}
	.st9{fill:#3E4D5B;}
	.st10{fill:none;stroke:#3E4D5B;stroke-linecap:round;stroke-linejoin:round;}
</style>
<g transform="translate(0 -1016.362)">
	<g transform="translate(-2 -203)">
		<path class="st0" d="M8,1229.4c-0.6,0-1,0.4-1,1v5h0v8.9H5c0,1.1,0.9,2,2,2h24c1.1,0,2-0.9,2-2c0,0,0,0,0,0h-2v-0.9
			c0,0,0-0.1,0-0.1v-13c0-0.6-0.4-1-1-1L8,1229.4L8,1229.4z"/>
		<rect x="8" y="1233.4" class="st1" width="24" height="11"/>
		<path class="st2" d="M26.5,1235.4h9c0.3,0,0.5,0.2,0.5,0.5v4c0,0.3-0.2,0.5-0.5,0.5H23.8c0.2-0.2,0.2-0.2,0.5-0.4
			c0.4-0.3,0.8-0.7,1.1-1c0.1-0.2,0.3-0.3,0.4-0.5c0.1-0.2,0.2-0.3,0.2-0.6v-2C26,1235.6,26.2,1235.4,26.5,1235.4L26.5,1235.4z"/>
		<path class="st1" d="M9,1229.4h22c0.6,0,1,0.4,1,1v13c0,0.6-0.4,1-1,1H9c-0.6,0-1-0.4-1-1v-13C8,1229.8,8.4,1229.4,9,1229.4z"/>
		<path class="st2" d="M4.5,1232.4h9c0.3,0,0.5,0.2,0.5,0.5v2c0,0.3,0.1,0.4,0.2,0.6c0.1,0.2,0.2,0.3,0.4,0.5c0.3,0.3,0.7,0.7,1.1,1
			c0.2,0.2,0.3,0.2,0.5,0.4H4.5c-0.3,0-0.5-0.2-0.5-0.5c0,0,0,0,0,0v-4C4,1232.6,4.2,1232.4,4.5,1232.4L4.5,1232.4z"/>
		<path class="st3" d="M9,1230.5H31v12.8H9V1230.5z"/>
		<path class="st4" d="M34,1244.3c0,1.1-0.9,2-2,2c0,0,0,0,0,0H8c-1.1,0-2-0.9-2-2c0,0,0,0,0,0H34z"/>
		<path class="st5" d="M22.7,1244.3c0,0.5-0.4,0.9-0.9,0.9h-3.4c-0.5,0-0.9-0.4-0.9-0.9c0,0,0,0,0,0"/>
		<path class="st6" d="M5.5,1232.4h9c0.3,0,0.5,0.2,0.5,0.5v2c0,0.3,0.1,0.4,0.2,0.6c0.1,0.2,0.2,0.3,0.4,0.5c0.3,0.3,0.7,0.7,1.1,1
			c0.2,0.2,0.3,0.2,0.5,0.4H5.5c-0.3,0-0.5-0.2-0.5-0.5c0,0,0,0,0,0v-4C5,1232.6,5.2,1232.4,5.5,1232.4L5.5,1232.4z"/>
		<rect x="6.8" y="1233.4" class="st7" width="1" height="1"/>
		<rect x="8.8" y="1233.4" class="st7" width="4" height="1"/>
		<rect x="6.8" y="1235.4" class="st7" width="3" height="1"/>
		<rect x="10.8" y="1235.4" class="st7" width="1" height="1"/>
		<path class="st8" d="M25.5,1235.4h9c0.3,0,0.5,0.2,0.5,0.5v4c0,0.3-0.2,0.5-0.5,0.5H22.8c0.2-0.2,0.2-0.2,0.5-0.4
			c0.4-0.3,0.8-0.7,1.1-1c0.1-0.2,0.3-0.3,0.4-0.5c0.1-0.2,0.2-0.3,0.2-0.6v-2C25,1235.6,25.2,1235.4,25.5,1235.4L25.5,1235.4z"/>
		<rect x="28.7" y="1238.4" class="st9" width="1" height="1"/>
		<rect x="28.7" y="1236.4" class="st9" width="1" height="1"/>
		<path class="st10" d="M31.2,1238.9c0.4-0.7,0.4-1.3,0-2"/>
	</g>
</g>
</svg>
